<?xml version="1.0" encoding="utf-8"?>
<!-- Generator: Adobe Illustrator 22.1.0, SVG Export Plug-In . SVG Version: 6.00 Build 0)  -->
<svg version="1.1" id="Layer_1" xmlns="http://www.w3.org/2000/svg" xmlns:xlink="http://www.w3.org/1999/xlink" x="0px" y="0px"
	 viewBox="0 0 1600 900" enable-background="new 0 0 1600 900" xml:space="preserve">
<g>
	<linearGradient id="SVGID_1_" gradientUnits="userSpaceOnUse" x1="768.0715" y1="574.5357" x2="768.0715" y2="315.4621">
		<stop  offset="0" style="stop-color:#F16622"/>
		<stop  offset="1" style="stop-color:#F5841F"/>
	</linearGradient>
	<path fill="url(#SVGID_1_)" d="M723.273,419.74l-0.047-0.156c-1.549-2.871-3.338-12.232-3.41-25.643
		c0.082-13.42,1.863-22.775,3.429-25.67l0.048-0.15c0.282-0.23,2.038-1.374,7.023-1.371c3.4-0.005,5.348,0.562,6.386,1.051
		c0.889,0.421,1.116,0.742,1.169,0.803c1.507,3.212,3.157,12.373,3.24,25.326c-0.094,13.018-1.77,22.227-3.276,25.374
		c-0.103,0.108-0.37,0.396-1.158,0.764c-1.025,0.486-2.972,1.046-6.39,1.05c-3.59-0.007-5.537-0.594-6.407-1.014
		C723.528,419.929,723.366,419.785,723.273,419.74 M730.28,463.266c22.811,0.147,37.826-8.909,45.885-22.243
		c8.13-13.253,9.903-29.731,9.94-45.37c0-0.573-0.021-1.128-0.022-1.701c-0.002-0.554,0.017-1.126,0.015-1.68
		c-0.019-15.661-1.798-32.144-9.9-45.397c-8.06-13.326-23.046-22.391-45.876-22.253c-22.981-0.177-37.94,8.902-45.867,22.264
		c-7.978,13.263-9.616,29.731-9.652,45.35c0.002,0.554,0.002,1.127,0.023,1.682c-0.019,0.572-0.017,1.126-0.016,1.699
		c0.023,15.604,1.649,32.077,9.618,45.34c7.854,13.255,22.633,22.288,45.299,22.31L730.28,463.266z M893.914,350.619
		c1.186-2.347,2.175-5.185,2.18-8.45c-0.017-0.612-0.049-1.283-0.099-1.974c0.031-0.475,0.098-0.91,0.091-1.388
		c-0.012-1.853-0.173-4.041-0.956-6.365c-0.766-2.285-2.331-4.909-5.187-6.491l-15.288-9.123l-0.332-0.175
		c-2.814-1.35-5.14-1.122-6.472-1.19c-6.946-0.076-13.159,3.793-16.452,9.706L731.308,538.978c-1.93,2.909-2.431,6.18-2.398,8.856
		c0.004,0.516,0.026,1.052,0.066,1.609c-0.04,0.608-0.06,1.199-0.059,1.772c0.013,1.834,0.173,4.041,0.957,6.346
		c0.767,2.266,2.332,4.89,5.187,6.491l14.927,9.099l0.349,0.214c2.834,1.333,5.159,1.123,6.473,1.171
		c6.648-0.04,13.398-3.357,17.102-9.721l119.894-213.993L893.914,350.619z M596.065,499.208c-2.664,5.363-8.372,9.685-21.73,9.817
		c-13.743-0.103-19.747-4.624-22.059-9.837c-4.283-8.914-7.065-28.424-7.112-54.093c0.07-25.7,2.862-45.186,7.09-53.998
		c2.357-5.345,8.382-9.837,22.12-9.944c13.321,0.133,19.015,4.442,21.766,9.932c4.005,9.068,7.31,28.478,7.404,54.017
		C603.423,470.723,600.099,490.155,596.065,499.208 M648.227,363.12c-12.716-22.952-36.275-38.712-73.83-38.55
		c-37.552-0.182-61.124,15.568-73.845,38.506c-12.83,22.854-15.765,52.052-15.832,80.311c0.002,0.554,0.021,1.128,0.023,1.682
		c0.002,0.554-0.017,1.126-0.015,1.68c0.03,28.247,2.959,57.429,15.757,80.291c12.714,22.971,36.273,38.731,73.829,38.569
		l0.611,0.002c37.048,0.015,60.407-15.691,73.12-38.515c12.848-22.834,15.898-52.043,15.925-80.286c0-0.573-0.001-1.146-0.003-1.7
		c-0.002-0.554,0.016-1.107,0.014-1.661C663.971,415.185,661.044,385.983,648.227,363.12 M405.671,499.138
		c-2.683,5.361-8.374,9.704-21.73,9.817c-13.762-0.104-19.768-4.606-22.06-9.818c-4.281-8.933-7.065-28.424-7.111-54.112
		c0.07-25.7,2.862-45.186,7.109-53.997c2.337-5.327,8.344-9.839,22.101-9.945c13.321,0.133,19.015,4.442,21.766,9.932
		c4.004,9.087,7.31,28.478,7.384,54.035C413.028,470.652,409.704,490.103,405.671,499.138 M457.831,363.069
		c-12.735-22.953-36.273-38.731-73.829-38.569c-37.552-0.182-61.124,15.568-73.865,38.523
		c-12.811,22.856-15.746,52.053-15.811,80.293c0,0.573,0.021,1.128,0.023,1.682c0,0.573-0.017,1.126-0.016,1.699
		c0.03,28.247,2.959,57.429,15.757,80.291c12.716,22.952,36.273,38.731,73.83,38.55l0.611,0.002
		c37.048,0.015,60.426-15.69,73.12-38.515c12.847-22.815,15.878-52.025,15.925-80.286c-0.002-0.554-0.002-1.127-0.003-1.7
		c-0.002-0.554,0.016-1.107,0.014-1.661C473.557,415.132,470.629,385.931,457.831,363.069 M902.256,521.744
		c-0.201,0.159-0.664,1.675-7.225,1.835c-3.571-0.006-5.672-0.584-6.672-1.051c-0.388-0.197-0.625-0.366-0.715-0.448l-0.016-0.039
		c-1.549-2.871-3.337-12.251-3.391-25.642c0.063-13.421,1.863-22.775,3.408-25.652l0.023-0.056c0.364-0.301,2.351-1.487,7.374-1.481
		c6.578,0.166,7.033,1.666,7.23,1.851c1.577,3.312,3.459,12.431,3.563,25.348C905.729,509.312,903.83,518.43,902.256,521.744
		 M940.942,449.336c-8.06-13.326-23.046-22.391-45.876-22.253c-22.983-0.158-38.017,8.897-46.037,22.233
		c-8.073,13.256-9.77,29.74-9.826,45.377c0.002,0.554,0.021,1.128,0.023,1.682c0,0.573-0.017,1.126-0.016,1.699
		c0.04,15.624,1.723,32.12,9.788,45.37c8.02,13.343,23.045,22.41,46.009,22.261c0.19,0.013,0.361,0.024,0.534,0.016
		c22.534,0.014,37.375-9.016,45.369-22.239c8.11-13.235,9.903-29.731,9.96-45.387c-0.002-0.554-0.022-1.109-0.023-1.682
		c-0.002-0.554,0.017-1.126,0.015-1.68C950.823,479.072,949.046,462.57,940.942,449.336 M1139.648,329.012l-13.12-0.005
		c-3.994,0.042-9.692,0.145-15.081,3.094c-5.518,2.883-9.715,9.482-9.55,18.583l-0.02,95.981
		c-28.604-39.773-57.212-80.062-78.09-107.543c-3.332-4.497-7.306-7.375-11.474-8.757c-4.188-1.364-8.178-1.379-12.15-1.392
		l-8.555-0.01c-3.975,0.044-9.673,0.146-15.08,3.094c-5.499,2.884-9.715,9.482-9.55,18.583l-0.058,188.18
		c-0.055,7.502,2.146,13.815,6.968,17.723c4.806,3.869,10.924,4.921,17.645,4.943l12.833,0.005
		c6.722,0.004,12.704-1.799,16.912-5.971c4.247-4.17,6.108-10.101,6.065-16.693l0.04-93.669
		c27.086,38.47,56.962,80.102,77.106,106.237c3.45,4.448,7.599,7.28,11.979,8.619c4.378,1.377,8.744,1.493,13.269,1.504l9.949,0.006
		c6.684,0.001,12.591-1.825,16.723-6.003c4.135-4.215,5.88-10.116,5.852-16.649l0.057-188.161
		c-0.001-4.908-0.998-10.359-4.755-14.789C1153.809,331.472,1147.594,328.981,1139.648,329.012 M1316.864,513.495
		c-3.159-5.383-9.911-9.285-19.353-9.162c-21.638,0.007-40.083,0.263-55.782,0.565l0.052-154.168c-0.02-4.909-1-10.34-4.755-14.789
		c-3.775-4.45-9.951-6.938-17.918-6.89l-14.112-0.013c-3.994,0.042-9.692,0.145-15.06,3.076c-5.538,2.901-9.735,9.499-9.571,18.6
		l-0.057,188.161c-0.075,7.519,2.144,13.834,6.987,17.724c4.786,3.886,10.905,4.92,17.625,4.961l92.582,0.025
		c4.987-0.034,10.485-0.875,15.161-4.31c4.698-3.472,7.603-9.602,7.503-17.362l0.002-11.917
		C1320.142,524.329,1320.031,518.764,1316.864,513.495 M271.259,333.974c-3.009-2.452-6.57-3.756-10.461-4.413
		c-1.397-0.245-2.895-0.401-4.458-0.446c-0.363-0.005-0.724-0.029-1.067-0.032c-0.171-0.011-0.323-0.021-0.475-0.031l-0.21,0.005
		c-0.324-0.002-0.648-0.024-0.972-0.026l-0.022,0.037l-12.909-0.01c-3.994,0.042-9.692,0.145-15.098,3.073
		c-5.519,2.902-9.716,9.501-9.552,18.602l-0.057,188.161c-0.075,7.519,2.146,13.815,6.986,17.743
		c3.029,2.434,6.589,3.757,10.502,4.377c1.358,0.261,2.799,0.414,4.323,0.476c0.496,0.014,1.01,0.028,1.525,0.043l0.152,0.01
		c0.382,0.006,0.762,0.031,1.143,0.037l0.003-0.038l12.928,0.011c3.994-0.042,9.673-0.146,15.079-3.074
		c5.521-2.921,9.736-9.518,9.572-18.62l0.057-188.161C278.301,344.197,276.1,337.883,271.259,333.974"/>
	<linearGradient id="SVGID_2_" gradientUnits="userSpaceOnUse" x1="1298.9633" y1="412.4584" x2="1298.9633" y2="329.0606">
		<stop  offset="0" style="stop-color:#F16622"/>
		<stop  offset="1" style="stop-color:#F5841F"/>
	</linearGradient>
	<path fill="url(#SVGID_2_)" d="M1325.668,343.413c-6.111-0.001-12.213-0.136-18.336-0.253l-0.015,63.726
		c-0.005,6.741-5.861,5.477-10.731,5.481c-4.106-0.003-5.98-1.12-5.978-5.493l0.015-63.726c-6.12,0.132-12.354,0.256-18.465,0.254
		c-6.225-0.009-5.225-4.756-5.235-9.244c0.009-3.609,1.749-5.098,5.244-5.097l53.51,0.011c5.978-0.007,5.36,3.867,5.361,8.489
		C1331.032,341.417,1329.908,343.405,1325.668,343.413"/>
	<linearGradient id="SVGID_3_" gradientUnits="userSpaceOnUse" x1="1376.0546" y1="412.7524" x2="1376.0546" y2="329.0709">
		<stop  offset="0" style="stop-color:#F16622"/>
		<stop  offset="1" style="stop-color:#F5841F"/>
	</linearGradient>
	<path fill="url(#SVGID_3_)" d="M1412.347,335.958l-25.593,71.075c-2.484,6.979-6.615,5.618-13.221,5.603
		c-4.354,0-5.852-1.608-7.346-5.602l-26.802-72.349c-0.245-0.627-0.49-1.255-0.488-1.866c-0.01-2.751,1.984-3.746,4.485-3.734
		l7.602-0.015c3.379,0.012,4.863,1.256,5.995,4.367l19.694,56.755l19.205-55.855c1.251-3.622,2.389-5.247,6.495-5.244l6.111,0.001
		c2.501,0.012,4.736,0.006,4.73,2.985C1413.216,333.208,1412.726,334.837,1412.347,335.958"/>
</g>
</svg>
