<?xml version="1.0" encoding="utf-8"?>
<!-- Generator: Adobe Illustrator 22.1.0, SVG Export Plug-In . SVG Version: 6.00 Build 0)  -->
<svg version="1.1" id="Layer_1" xmlns="http://www.w3.org/2000/svg" xmlns:xlink="http://www.w3.org/1999/xlink" x="0px" y="0px"
	 viewBox="0 0 1600 900" enable-background="new 0 0 1600 900" xml:space="preserve">
<g>
	<path fill="#F49C35" d="M1105.437,432.934c-1.059-59.139-18.643-301.451-302.032-301.451
		c-267.395,0-308.021,241.131-314.002,301.451H300.112v132.447h995.561V432.934H1105.437z"/>
	<path fill="#3D4796" d="M501.731,568.096c0,0,87.769,196.541,290.558,196.541c234.172,0,301.349-197.797,301.349-197.797
		L501.731,568.096z"/>
	<g>
		<path fill="#3D4796" d="M1269.966,414.196h-5.314h-27.56h-5.321h-26.209h-5.312h-26.529h-5.309h-27.309h-5.306h-10.762
			c-16.009-166.193-156.435-296.572-326.756-296.572S487.533,248.003,471.524,414.196h-10.756h-5.308h-27.31h-5.308h-26.532h-5.313
			h-26.208h-5.321h-27.557h-5.317h-42.912v170.945h62.367h5.717h28.723h5.775h27.49h5.821h28.109h5.898h29.527h5.771h12.133
			c52.481,111.609,165.989,189.07,297.266,189.07c131.275,0,244.782-77.461,297.267-189.07h12.131h5.772h29.526h5.713h28.294h5.82
			h27.491h5.776h28.727h5.714h62.367V414.196H1269.966z M1297.018,569.28h-41.992h-5.637h-28.436h-5.671h-27.162h-5.713h-27.847
			h-5.606h-28.972h-5.659h-11.828h-0.002h-17.189c-2.314,5.367-4.781,10.652-7.384,15.861c-4.808,9.617-10.097,18.955-15.836,27.977
			c-1.912,3.01-3.874,5.982-5.888,8.92c-56.33,82.242-150.919,136.315-257.917,136.315c-106.994,0-201.584-54.072-257.916-136.315
			c-2.012-2.938-3.976-5.91-5.888-8.92c-5.739-9.022-11.029-18.359-15.838-27.977c-2.603-5.209-5.066-10.494-7.384-15.861h-17.19
			h-11.829h-5.655h-28.972h-5.774h-27.682h-5.714h-27.162h-5.67h-28.434h-5.637h-41.993V430.057h26.26h5.295h27.537h5.299h26.148
			h5.298h26.446h5.288h27.221h5.29h10.749h15.872c0.269-5.324,0.669-10.611,1.2-15.861
			C503.393,256.76,636.71,133.483,798.28,133.483c161.571,0,294.886,123.277,310.833,280.713c0.532,5.25,0.933,10.541,1.203,15.861
			h15.87h10.752h5.289h27.221h5.291h26.441h5.297h26.153h5.296h27.539h5.296h26.257V569.28z"/>
		<path fill="#FFFFFF" d="M798.276,167.854c-153.639,0-278.633,124.996-278.633,278.635c0,153.656,124.994,278.664,278.633,278.664
			c153.643,0,278.642-125.008,278.642-278.664C1076.917,292.85,951.918,167.854,798.276,167.854z M798.276,719.866
			c-150.723,0-273.346-122.637-273.346-273.377c0-150.723,122.623-273.35,273.346-273.35c150.727,0,273.353,122.627,273.353,273.35
			C1071.629,597.229,949.003,719.866,798.276,719.866z"/>
		<path fill="#FFFFFF" d="M798.276,190.993c-140.879,0-255.493,114.617-255.493,255.496c0,140.897,114.614,255.523,255.493,255.523
			c140.885,0,255.502-114.627,255.502-255.523C1053.778,305.61,939.161,190.993,798.276,190.993z M798.276,696.725
			c-137.963,0-250.207-112.254-250.207-250.236c0-137.965,112.244-250.207,250.207-250.207
			c137.97,0,250.216,112.242,250.216,250.207C1048.492,584.471,936.246,696.725,798.276,696.725z"/>
		<path fill="#FFFFFF" d="M798.278,216.565c-126.781,0-229.925,103.144-229.925,229.928c0,126.795,103.144,229.953,229.925,229.953
			c126.784,0,229.932-103.158,229.932-229.953C1028.209,319.71,925.062,216.565,798.278,216.565z M798.278,671.159
			c-123.866,0-224.637-100.783-224.637-224.666c0-123.869,100.77-224.641,224.637-224.641
			c123.869,0,224.645,100.771,224.645,224.641C1022.922,570.376,922.147,671.159,798.278,671.159z"/>
		<path fill="#FFFFFF" d="M798.28,243.383c-111.994,0-203.108,91.115-203.108,203.113c0,112.006,91.114,203.127,203.108,203.127
			c111.995,0,203.111-91.121,203.111-203.127C1001.391,334.499,910.275,243.383,798.28,243.383z M798.28,644.337
			c-109.08,0-197.821-88.748-197.821-197.84c0-109.082,88.741-197.824,197.821-197.824c109.079,0,197.824,88.742,197.824,197.824
			C996.104,555.589,907.359,644.337,798.28,644.337z"/>
		<path fill="#FFFFFF" d="M798.278,267.503c-98.695,0-178.99,80.297-178.99,178.994c0,98.707,80.295,179.01,178.99,179.01
			c98.699,0,178.995-80.303,178.995-179.01C977.273,347.799,896.977,267.503,798.278,267.503z M798.278,620.219
			c-95.78,0-173.702-77.932-173.702-173.723c0-95.783,77.922-173.707,173.702-173.707c95.783,0,173.707,77.924,173.707,173.707
			C971.985,542.288,894.061,620.219,798.278,620.219z"/>
		<path fill="#FFFFFF" d="M798.278,288.602c-87.061,0-157.892,70.83-157.892,157.895c0,87.074,70.83,157.91,157.892,157.91
			c87.065,0,157.898-70.836,157.898-157.91C956.176,359.432,885.342,288.602,798.278,288.602z M798.278,599.12
			c-84.146,0-152.604-68.467-152.604-152.623c0-84.148,68.458-152.607,152.604-152.607c84.151,0,152.611,68.459,152.611,152.607
			C950.889,530.653,882.429,599.12,798.278,599.12z"/>
		<path fill="#FFFFFF" d="M798.28,314.135c-72.985,0-132.36,59.379-132.36,132.363c0,72.992,59.375,132.375,132.36,132.375
			c72.984,0,132.363-59.383,132.363-132.375C930.643,373.514,871.264,314.135,798.28,314.135z M798.28,573.587
			c-70.07,0-127.073-57.01-127.073-127.088c0-70.068,57.003-127.076,127.073-127.076s127.076,57.008,127.076,127.076
			C925.356,516.577,868.35,573.587,798.28,573.587z"/>
		<path fill="#FFFFFF" d="M798.28,337.026c-60.363,0-109.473,49.109-109.473,109.473c0,60.371,49.109,109.486,109.473,109.486
			c60.365,0,109.477-49.115,109.477-109.486C907.756,386.135,858.645,337.026,798.28,337.026z M798.28,550.698
			c-57.449,0-104.186-46.744-104.186-104.199c0-57.447,46.736-104.188,104.186-104.188c57.451,0,104.188,46.74,104.188,104.188
			C902.468,503.954,855.731,550.698,798.28,550.698z"/>
		<path fill="#FFFFFF" d="M798.28,356.858c-49.431,0-89.646,40.213-89.646,89.645c0,49.436,40.215,89.652,89.646,89.652
			c49.43,0,89.645-40.217,89.645-89.652C887.924,397.071,847.709,356.858,798.28,356.858z M798.28,530.868
			c-46.516,0-84.357-37.846-84.357-84.365c0-46.514,37.842-84.357,84.357-84.357c46.514,0,84.357,37.844,84.357,84.357
			C882.637,493.022,844.793,530.868,798.28,530.868z"/>
		<path fill="#FFFFFF" d="M798.28,375.696c-39.041,0-70.804,31.764-70.804,70.807c0,39.047,31.763,70.814,70.804,70.814
			c39.043,0,70.806-31.768,70.806-70.814C869.085,407.46,837.323,375.696,798.28,375.696z M798.28,512.028
			c-36.127,0-65.518-29.395-65.518-65.525c0-36.127,29.391-65.52,65.518-65.52c36.128,0,65.518,29.393,65.518,65.52
			C863.798,482.633,834.408,512.028,798.28,512.028z"/>
		<path fill="#FFFFFF" d="M798.28,394.251c-28.813,0-52.256,23.439-52.256,52.252c0,28.816,23.442,52.262,52.256,52.262
			c28.812,0,52.255-23.445,52.255-52.262C850.535,417.69,827.092,394.251,798.28,394.251z M798.28,493.477
			c-25.898,0-46.969-21.072-46.969-46.975c0-25.898,21.07-46.967,46.969-46.967c25.897,0,46.969,21.068,46.969,46.967
			C845.248,472.405,824.177,493.477,798.28,493.477z"/>
		<path fill="#FFFFFF" d="M798.28,411.329c-19.396,0-35.178,15.777-35.178,35.178c0,19.397,15.781,35.178,35.178,35.178
			c19.397,0,35.178-15.781,35.178-35.178C833.457,427.106,817.677,411.329,798.28,411.329z M798.28,476.397
			c-16.482,0-29.891-13.41-29.891-29.891c0-16.484,13.409-29.891,29.891-29.891c16.482,0,29.891,13.406,29.891,29.891
			C828.17,462.987,814.762,476.397,798.28,476.397z"/>
		<path fill="#FFFFFF" d="M798.28,426.239c-11.177,0-20.267,9.09-20.267,20.268c0,11.176,9.09,20.268,20.267,20.268
			c11.175,0,20.266-9.092,20.266-20.268C818.545,435.329,809.455,426.239,798.28,426.239z M798.28,461.487
			c-8.261,0-14.98-6.719-14.98-14.98c0-8.26,6.72-14.98,14.98-14.98c8.26,0,14.979,6.721,14.979,14.98
			C813.259,454.768,806.539,461.487,798.28,461.487z"/>
		<path fill="#FFFFFF" d="M1077.213,565.79c-2.206,5.115-4.621,10.303-7.175,15.414c-24.869,49.748-62.915,91.785-110.023,121.562
			c-48.403,30.6-104.33,46.77-161.736,46.77c-57.406,0-113.332-16.17-161.734-46.77c-47.108-29.777-85.154-71.814-110.025-121.562
			c-2.545-5.098-4.959-10.281-7.175-15.414l-2.296-5.32h-1.26c45.217,111.685,154.793,190.682,282.484,190.682
			c127.698,0,237.277-78.996,282.497-190.682h-1.264L1077.213,565.79z"/>
		<path fill="#FFFFFF" d="M1114.324,569.28h5.659c1.118-2.918,2.195-5.853,3.235-8.81h-5.608
			C1116.553,563.427,1115.461,566.366,1114.324,569.28z"/>
		<path fill="#FFFFFF" d="M1080.771,560.469c-45.22,111.685-154.799,190.682-282.497,190.682
			c-127.691,0-237.268-78.996-282.484-190.682h-4.535h-1.139c45.501,114.65,157.515,195.93,288.158,195.93
			c130.65,0,242.667-81.279,288.168-195.93h-1.138H1080.771z"/>
	</g>
	<path fill="#FFFFFF" d="M1270.761,430.057h-5.296h-27.539h-5.296h-26.153h-5.297h-26.441h-5.291h-27.221h-5.289h-10.752h-15.87
		c-0.271-5.324-0.671-10.611-1.203-15.861C1093.165,256.76,959.851,133.483,798.28,133.483
		c-161.569,0-294.887,123.277-310.834,280.713c-0.531,5.25-0.932,10.537-1.2,15.861h-15.872h-10.749h-5.29h-27.221h-5.288h-26.446
		h-5.298h-26.148h-5.299h-27.537h-5.295h-26.26V569.28h41.993h5.637h28.434h5.67h27.162h5.714h27.682h5.774h28.972h5.655h11.829
		h7.048h10.143c2.317,5.367,4.781,10.652,7.384,15.861c4.809,9.617,10.099,18.955,15.838,27.977c1.912,3.01,3.876,5.982,5.888,8.92
		c56.332,82.242,150.922,136.311,257.916,136.311c106.998,0,201.587-54.068,257.917-136.311c2.014-2.938,3.976-5.91,5.888-8.92
		c5.739-9.022,11.028-18.359,15.836-27.977c2.603-5.209,5.069-10.494,7.384-15.861h17.189h0.002h11.828h5.659h28.765h0.207h5.606
		h27.847h5.713h27.162h5.671h28.436h5.637h41.992V430.057H1270.761z M308.356,560.469V438.868h17.227
		c-0.04,2.537-0.092,5.07-0.092,7.615c0,38.93,4.686,77.137,13.766,113.986H308.356z M344.855,560.469
		c-9.179-36.5-14.078-74.678-14.078-113.986c0-2.549,0.058-5.078,0.096-7.615h27.524c-0.045,2.537-0.093,5.07-0.093,7.615
		c0,39.022,5.074,77.26,14.854,113.986H344.855z M378.781,560.469c-9.881-36.344-15.19-74.555-15.19-113.986
		c0-2.545,0.052-5.078,0.097-7.615h26.135c-0.046,2.537-0.093,5.074-0.093,7.617c0,39.127,5.49,77.406,16.055,113.984H378.781z
		 M411.445,560.469c-10.672-36.164-16.427-74.41-16.427-113.984c0-2.547,0.049-5.08,0.096-7.617h26.428
		c-0.05,2.533-0.097,5.07-0.097,7.617c0,39.26,5.99,77.592,17.482,113.984H411.445z M444.638,560.469
		c-11.607-35.934-17.905-74.234-17.905-113.984c0-2.547,0.044-5.084,0.096-7.617h27.202c-0.054,2.533-0.096,5.07-0.096,7.617
		c0,39.935,6.853,78.289,19.409,113.984H444.638z M798.274,756.399c-127.268,0-236.848-77.139-284.489-187.119h568.988
		C1035.131,679.26,925.549,756.399,798.274,756.399z M1151.924,560.469h-28.706l-0.002,0.004h-5.607l0.002-0.004h-15.117h-16.052
		l-0.002,0.004H510.119c0,0-0.002,0-0.003-0.004h-16.052H478.95c-12.758-35.639-19.727-74.012-19.727-113.984
		c0-2.547,0.039-5.084,0.096-7.617h11.056h15.872h2.252c-0.06,2.533-0.096,5.074-0.096,7.621c0,40.227,7.708,78.686,21.714,113.98
		h1.139h4.535c-14.262-35.225-22.138-73.697-22.138-113.98c0-2.547,0.035-5.088,0.097-7.621
		c4.06-164.467,139.104-297.008,304.525-297.008c165.429,0,300.479,132.541,304.538,297.008c0.062,2.533,0.099,5.074,0.099,7.621
		c0,40.283-7.88,78.756-22.14,113.98h4.533h1.138c14.007-35.295,21.716-73.754,21.716-113.98c0-2.547-0.036-5.088-0.097-7.621h2.255
		h15.87h11.059c0.055,2.533,0.097,5.07,0.097,7.617c0,39.973-6.973,78.346-19.73,113.984h5.608
		c12.556-35.695,19.41-74.049,19.41-113.984c0-2.547-0.042-5.084-0.095-7.617h27.2c0.054,2.533,0.096,5.07,0.096,7.617
		C1169.829,486.235,1163.532,524.536,1151.924,560.469z M1185.117,560.469h-27.633c11.439-35.977,17.634-74.268,17.634-113.984
		c0-2.547-0.047-5.084-0.097-7.617h26.427c0.046,2.537,0.096,5.07,0.096,7.617C1201.543,486.059,1195.787,524.305,1185.117,560.469z
		 M1217.778,560.469h-27.005c10.566-36.578,16.057-74.857,16.057-113.984c0-2.543-0.046-5.08-0.092-7.617h26.137
		c0.043,2.537,0.097,5.07,0.097,7.615C1232.971,485.915,1227.664,524.126,1217.778,560.469z M1251.707,560.469h-28.306
		c9.783-36.727,14.856-74.965,14.856-113.986c0-2.545-0.051-5.078-0.093-7.615h27.525c0.039,2.537,0.095,5.066,0.095,7.615
		C1265.786,485.792,1260.886,523.969,1251.707,560.469z M1288.204,560.469h-30.902c9.081-36.85,13.771-75.057,13.771-113.986
		c0-2.545-0.054-5.078-0.093-7.615h17.224V560.469z"/>
	<path fill="#FFFFFF" d="M647.739,227.389c0,0,27.296-43.902,74.018-45.379c41.854-1.322,95.165,30.84,137.461,29.078
		s93.844-11.016,93.844-11.016s4.406,81.947,14.099,115.432c13.699,47.326,68.29,112.791,68.29,112.791s-55.513,9.693-92.52,0.44
		c-37.01-9.252-159.933-47.143-208.396,18.064L647.739,227.389z"/>
	<path fill="#FFFFFF" d="M625.858,226.803c0,0,1.47-3.523,4.994-4.113c3.524-0.586,7.635-0.295,10.278,7.342
		c2.643,7.639,211.185,545.146,211.185,545.146l-12.336,4.113L625.858,226.803z"/>
	<path fill="#FFFFFF" d="M614.254,183.333c4.185-1.984,14.099,9.25,20.267,18.504c6.168,9.252,6.609,18.283,2.643,17.844
		c-3.965-0.441-7.49-2.645-9.473-0.881c-1.982,1.76-4.626,3.305-7.71,0.66c-3.083-2.644-5.948-5.508-6.829-12.336
		C612.272,200.296,607.756,186.413,614.254,183.333z"/>
	<path fill="#231F20" d="M664.481,244.573l7.489,24.232h31.723l41.854,119.397l32.163-0.881l-60.359-172.707l-24.673-0.883
		C692.678,213.731,697.083,239.286,664.481,244.573z"/>
	<g>
		<path fill="#231F20" d="M864.947,334.598c-11.457-41.414-30.55-86.646-39.948-99.57c-9.397-12.924-28.196-26.729-47.581-26.729
			c-19.386,0-31.505,16.564-16.447,63.738c22.026,69.022,66.38,49.934,66.38,49.934s6.753,18.795,8.222,25.256
			c1.47,6.461,2.697,14.781-4.698,15.57c-13.806,1.465-23.204-31.723-23.204-31.723h-26.727c0,0,5.874,24.082,15.86,36.42
			c9.986,12.336,29.371,25.85,49.933,25.26C867.296,392.169,876.401,376.014,864.947,334.598z M811.783,296.413
			c-6.757,1.762-17.917-7.342-24.673-26.728c-6.757-19.385-7.638-31.721-0.589-34.363c3.4-1.275,17.331,1.762,25.262,26.727
			C817.66,280.551,818.539,294.651,811.783,296.413z"/>
	</g>
	<path fill="#231F20" d="M893.142,299.059l-29.372-1.176c0,0-8.459-27.256-9.986-33.484c-3.524-14.393-4.992-35.246,13.805-40.826
		c16.129-4.789,45.818,7.93,61.389,26.434c15.567,18.506,18.798,56.689,14.392,71.082c-4.406,14.393-23.497,47.287-23.497,47.287
		l49.932,1.762l8.52,32.018l-83.418-5.873l-10.574-30.844c0,0,13.804-21.147,19.386-34.363c5.581-13.217,10.866-41.123,5.287-57.865
		c-5.579-16.742-14.978-22.617-19.677-22.029C884.625,251.77,878.163,262.051,893.142,299.059z"/>
	<g>
		<polygon fill="#FFFFFF" points="632.318,694.114 632.318,516.118 580.33,516.118 580.33,446.212 763.611,446.212 763.611,516.118 
			711.622,516.118 711.622,694.114 		"/>
		<path fill="#231F20" d="M755.682,454.139v54.047h-36.129h-15.86v15.863v162.133h-63.444V524.049v-15.863h-15.86H588.26v-54.047
			H755.682 M771.541,438.28H572.4v85.77h51.988v177.994h95.165V524.049h51.988V438.28L771.541,438.28z"/>
	</g>
	<g>
		<polygon fill="#FFFFFF" points="897.005,694.114 803.143,446.216 888.961,446.216 935.392,619.815 983.889,447.387 
			1066.855,447.387 973.576,694.114 		"/>
		<path fill="#231F20" d="M882.874,454.143l37.388,139.797l14.936,55.852l15.654-55.656l39.043-138.816h65.483l-86.077,230.863
			h-68.028l-86.648-232.039H882.874 M895.05,438.284h-103.39l98.257,263.76h90.747l97.67-262.586H977.88l-42.296,150.385
			L895.05,438.284L895.05,438.284z"/>
	</g>
</g>
</svg>
