<?xml version="1.0" encoding="utf-8"?>
<!-- Generator: Adobe Illustrator 22.1.0, SVG Export Plug-In . SVG Version: 6.00 Build 0)  -->
<svg version="1.2" baseProfile="tiny" xmlns="http://www.w3.org/2000/svg" xmlns:xlink="http://www.w3.org/1999/xlink" x="0px"
	 y="0px" viewBox="0 0 1600 900" xml:space="preserve">
<g id="Layer_1">
	<g>
		<path fill="#FFFFFF" d="M666.6,376.3v-35.5h35.5v35.5H666.6z M668.8,543.2V398.6h31.4v144.6H668.8z"/>
		<path fill="#FFFFFF" d="M836.1,532.4c-12.3,6.3-23.6,9.4-34.3,9.4c-14.8,0-26.1-4.4-34-12.9c-7.9-8.5-11.6-20.4-11.6-35.5V423h-27
			v-28.9h27v-30.5l31.4-6.6v37.1h33.3V423h-33.3v72.9c0,6.3,1.6,11,4.4,14.5c2.8,3.5,6.9,5,12.3,5c7.5,0,14.8-1.9,21.4-5.7
			L836.1,532.4z"/>
		<path fill="#FFFFFF" d="M919.5,392.6c19.8,0,34.9,4.7,45.3,14.5c10.4,9.7,15.7,22,15.7,36.8H949c0-6.6-2.5-11.9-7.9-16
			c-5.3-4.1-12.6-6.3-22-6.3c-20.4,0-30.5,9.1-30.5,27.4v38.4c0,18.2,10.1,27.4,30.5,27.4c9.4,0,16.7-2.2,22-6.3
			c5.3-4.1,7.9-9.4,7.9-16h31.4c0,14.8-5.3,27-15.7,36.8c-10.4,9.7-25.5,14.5-45.3,14.5c-20.8,0-36.2-5-46.5-15.1
			c-10.4-10.1-15.4-24.5-15.4-43.4v-33.6c0-18.6,5.3-33,15.7-43.1c10.4-10.1,25.8-15.1,46.2-15.1V392.6z"/>
		<path fill="#FFFFFF" d="M1087,394.8c15.1,0,27,4.4,35.5,13.2c8.5,8.8,12.9,21.7,12.9,39v95.9H1104v-93.4c0-17-7.9-25.5-23.6-25.5
			c-9.4,0-17.3,2.8-23.9,8.5c-6.6,5.7-9.7,14.1-9.7,25.8v84.9h-31.4V342h31.4v69.2c11-10.4,24.5-15.7,40.6-15.7L1087,394.8z"/>
		<path fill="#FFFFFF" d="M1201.7,488.5c0,18.2,10.1,27.4,30.2,27.4c9.4,0,17-1.9,22.3-5.7c5.3-3.8,8.2-8.5,8.2-14.1h31.4
			c0,12.9-5.3,23.9-16,33.3c-10.7,9.4-25.8,14.1-45.6,14.1c-20.4,0-35.8-5-46.2-15.1c-10.4-10.1-15.4-24.5-15.4-43.4v-33.6
			c0-18.6,5-33,15.4-43.1c10.4-10.1,25.8-15.1,46.2-15.1c20.4,0,35.8,5,46.2,15.1c10.4,10.1,15.4,24.2,15.4,42.4v22.6H1202
			L1201.7,488.5z M1201.7,447.6v5.3h60.4v-5.7c0-17.9-10.1-27-30.2-27S1201.7,429.3,1201.7,447.6z"/>
		<path fill="#FFFFFF" d="M1400.3,394.8c15.1,0,27,4.4,35.5,13.2c8.5,8.8,12.9,21.7,12.9,39v95.9h-31.4v-93.4
			c0-17-7.9-25.5-23.6-25.5c-9.4,0-17.3,2.8-23.9,8.5c-6.6,5.7-9.7,14.1-9.7,25.8v84.9h-31.4V398.6h26.1l2.8,15.4
			c10.7-12.3,24.8-18.6,42.8-18.6V394.8z"/>
		<g>
			<path fill="#FFFFFF" d="M397.7,387.7c0,0-11.3-71.2,66.8-66.4C464.5,321.3,474.9,394.1,397.7,387.7z"/>
			<path fill="#FFFFFF" d="M329.7,314.2c0,0-8.6,54.4,51,50.7C380.7,364.9,388.7,309.2,329.7,314.2z"/>
			<path fill="#FFFFFF" d="M382.5,510.4V390.2h-37.4L259.8,510h-58l46.2-45.1c19.6-19,31.2-37.4,31.2-63.5
				c0-34.6-24.9-58.9-64.9-58.9c-41.1,0-64.3,25.5-65.5,64.6v0.6h37.4v-2.8c0-17.3,10.2-28.6,28.1-28.6c17.9,0,27.8,11.3,27.8,25.8
				c0,11.6-6.2,23.5-18.4,35.1L148.8,510v33.7h130.4l0,0h66v44.9h37.4v-45.1h20.7v-33.2H382.5z M345.1,510.4h-42.2l42.2-59.2V510.4z
				"/>
		</g>
		<path fill="#FFFFFF" d="M583.2,441l44.6,84.6v17.6h-25.5l-45.6-87.7H536v87.7h-31.4V342H536v84.6h20.8l44.6-84.6h26.4v15.1
			L583.2,441z"/>
	</g>
</g>
<g id="Laag_2" display="none">
</g>
</svg>
