<?xml version="1.0" encoding="utf-8"?>
<!-- Generator: Adobe Illustrator 22.1.0, SVG Export Plug-In . SVG Version: 6.00 Build 0)  -->
<svg version="1.2" baseProfile="tiny" xmlns="http://www.w3.org/2000/svg" xmlns:xlink="http://www.w3.org/1999/xlink" x="0px"
	 y="0px" viewBox="0 0 1600 900" xml:space="preserve">
<g id="Layer_1">
	<g>
		<g>
			<rect x="795.3" y="183" fill="#DDF0FC" width="513.3" height="513.3"/>
			<rect x="283" y="183" fill="#1C1C1B" width="513.3" height="513.3"/>
			<g>
				<g>
					<polygon fill="#008ED3" points="1101.4,497.6 1101.4,565.9 999.8,667 999.8,574 1075.9,497.9 					"/>
					<polygon fill="#00A4C4" points="1045.7,516.1 997.4,564.4 854,564.1 919.8,498.3 1027.4,498.3 					"/>
					<polygon fill="#50AB3B" points="993.3,489.8 924.9,489.8 823.7,388.3 916.8,388.3 992.9,464.3 					"/>
					<polygon fill="#F5C200" points="974.7,434.2 926.4,385.8 926.6,242.5 992.4,308.3 992.4,415.9 					"/>
					<polygon fill="#EF911E" points="1001,381.7 1001,313.3 1102.5,212.2 1102.5,305.2 1026.5,381.3 					"/>
					<polygon fill="#E54A40" points="1056.6,363.2 1105,314.8 1248.3,315.1 1182.5,380.9 1074.9,380.9 					"/>
					<polygon fill="#D1408F" points="1109.1,389.4 1177.5,389.4 1278.7,491 1185.6,491 1109.5,414.8 					"/>
					<polygon fill="#806FAF" points="1127.7,445.1 1176,493.4 1175.7,636.8 1109.9,571 1109.9,463.4 					"/>
				</g>
			</g>
		</g>
		<g>
			<path fill="#FFFFFF" d="M496.3,604.5H334.3c0-56.7,19-95.9,58-139.6l21.6-24.3c23.4-25.7,27.5-40.1,27.5-72.9
				c0-26.6-9.3-39.6-26-39.6c-26.8,0-29.4,28.4-29.7,62.1h-51.3V378c0-59,25.7-92.3,81.8-92.3c52.8,0,78.8,32,78.8,86.9
				c0,41.4-10.8,68.4-40.9,101.3l-29.7,33.3c-15.6,17.1-24.5,34.7-27.1,46.8h99.2V604.5z"/>
		</g>
		<path fill="#FFFFFF" d="M519.3,283.6h79.5l37.9,226.9h0.7l38.3-226.9H755v321.5h-49.1V356.9h-0.7L658,605.1h-41.6l-47.2-248.2
			h-0.7v248.2h-49.1V283.6z"/>
	</g>
</g>
<g id="Laag_2" display="none">
</g>
</svg>
