<?xml version="1.0" encoding="utf-8"?>
<!-- Generator: Adobe Illustrator 22.1.0, SVG Export Plug-In . SVG Version: 6.00 Build 0)  -->
<svg version="1.1" id="Layer_1" xmlns="http://www.w3.org/2000/svg" xmlns:xlink="http://www.w3.org/1999/xlink" x="0px" y="0px"
	 viewBox="0 0 1600 900" enable-background="new 0 0 1600 900" xml:space="preserve">
<g>
	<g>
		<path fill-rule="evenodd" clip-rule="evenodd" fill="#9A6500" d="M851.867,602.562c1.437,3.229,3.947,6.098,7.538,8.611
			l10.757,8.607l1.435-8.251c1.076-0.717,2.153-2.15,2.87-4.304l-2.513,17.935l-10.758-8.609
			C855.814,612.607,852.945,607.945,851.867,602.562 M916.079,499.969l3.585,2.511l-12.195,20.448l-20.807-8.608l2.153-3.588
			l16.859,6.815L916.079,499.969z M842.899,455.13l5.021,1.435l-17.217,21.883l-17.217-13.274l2.151-2.511l13.272,10.045
			L842.899,455.13z M795.549,560.235l3.587,3.585l-17.219,19.372l-15.785-17.218l1.796-1.434l12.195,13.272L795.549,560.235z
			 M790.529,597.902l3.583,3.226l-14.706,17.936l-16.859-14.348l2.151-2.153l12.915,11.121L790.529,597.902z M699.771,471.272
			l1.076,3.228c3.945,11.479,5.021,21.883,3.588,30.851c-1.794,10.043-6.817,16.142-15.068,18.652
			c-8.249,2.511-16.5,0.359-24.751-6.457c-4.304-3.227-8.248-7.534-11.836-12.914c-1.078,9.687-0.359,19.729,2.511,30.132
			l-1.796-5.382c-2.868-10.403-3.587-20.446-2.509-30.13c3.586,5.38,7.53,9.684,11.837,12.913c8.251,6.815,16.502,8.968,24.75,6.458
			c8.251-2.512,13.274-8.611,14.709-18.654C703.716,491.72,703.001,482.033,699.771,471.272z M690.445,474.5
			c-1.078-4.664-2.872-8.249-5.739-11.119c-3.947-4.307-8.254-4.664-12.915-1.437c-7.531,5.74-13.274,12.916-16.859,21.883
			l3.229,2.869c3.585-7.533,8.608-13.99,15.423-19.371c4.664-3.229,8.969-2.869,12.915,1.435
			C688.293,470.555,689.367,472.35,690.445,474.5z M703.001,398.453l1.074-1.077c1.077-1.077,1.794-1.077,2.511,0.36
			c0.36,1.434-0.357,3.586-2.15,6.814c-1.794,2.871-3.947,5.381-6.458,7.174c-3.229,2.153-5.737,2.871-8.251,2.511
			c-2.51-0.717-4.307-3.586-5.381-8.25c1.074,1.435,2.153,2.511,3.588,2.869c2.512,0.36,5.021-0.358,7.891-2.51
			c2.872-1.794,5.023-4.304,6.817-7.533L703.001,398.453z M693.674,380.157c3.944-4.664,9.683-9.325,16.502-13.989
			c0.715,0.357-0.359,1.793-2.873,5.022l-9.325,10.761c-6.098,7.174-9.325,12.914-9.685,16.86l-0.72-0.718
			c-2.508-2.869-1.434-7.533,2.872-14.347L693.674,380.157z M779.047,274.695v4.664l-0.715,6.455
			c-3.587,6.457-8.61,11.481-14.708,15.426c-27.262,16.86-44.84,27.98-52.733,33.721c-22.238,15.424-38.383,30.131-48.428,43.404
			c-5.737,7.892-10.401,17.579-14.349,29.415c-3.585,11.838-5.381,23.316-5.737,35.153c-0.36,8.968,0.717,16.861,2.51,24.035v0.358
			c-3.228-8.608-4.661-18.654-4.307-29.773c0.36-11.838,2.153-23.318,5.743-35.156c3.944-11.837,8.608-21.522,14.347-29.415
			c10.044-13.272,26.186-27.98,48.429-43.405c7.892-5.739,25.468-16.86,52.731-33.718c6.814-3.947,11.836-9.686,15.423-16.861
			L779.047,274.695z M754.296,263.216c1.435,2.151,2.153,4.662,2.153,7.532c0,3.947-1.434,7.533-4.664,10.405
			c-3.229,3.227-6.814,4.661-11.121,4.661c-4.661,0-8.251-1.434-11.118-4.661c-2.511-2.512-4.307-5.382-4.664-8.611
			c0.717,1.077,1.794,2.153,2.87,3.229c2.868,3.229,6.455,4.664,10.762,4.664c4.661,0,8.248-1.435,11.479-4.664
			c3.228-2.869,4.664-6.458,4.664-10.403L754.296,263.216z M808.821,396.299l37.308-40.176l-0.359-3.228l0.719-1.076l1.432,9.685
			l-39.099,42.327V396.299z M856.531,431.814l50.221-40.895c1.074,1.076,1.793,2.51,1.793,5.024l-50.938,41.251L856.531,431.814z
			 M816.354,275.412l-6.457-7.892c5.021,24.75,1.437,49.503-10.401,74.254l-14.352,30.491
			c-5.738,12.555-10.042,23.317-12.912,33.002c-6.101,18.295-8.249,34.436-6.816,48.787l5.022-5.022
			c0-12.554,2.511-26.545,7.175-41.971c3.229-9.685,7.531-20.446,12.916-33.001l14.709-30.491
			C815.995,320.97,819.585,298.012,816.354,275.412z M807.746,194.343l2.871,4.304v0.357c-8.251,8.251-9.688,19.013-4.307,32.286
			c4.307,10.762,13.632,23.675,28.342,38.741l18.651,19.012c7.174,7.533,12.912,14.706,17.576,20.805
			c17.219,23.318,22.6,44.123,16.142,62.417l-11.838,10.404c14.706-21.165,11.479-45.918-9.685-74.614
			c-4.664-6.098-10.402-13.274-17.579-20.807l-18.65-19.012c-14.706-15.065-24.394-27.979-28.34-38.742
			C795.189,215.148,797.342,203.311,807.746,194.343z M779.047,249.585c-1.074,1.435-2.151,2.511-3.226,3.587
			c-3.229,3.228-6.816,4.663-11.48,4.663c-4.664,0-8.251-1.435-11.479-4.663c-2.87-2.511-4.307-5.381-4.666-8.968
			c0.719,1.434,1.796,2.511,2.874,3.587c3.226,3.229,6.812,4.664,11.477,4.664c4.664,0,8.251-1.435,11.48-4.664
			c3.226-2.87,5.02-6.458,5.02-10.762l-0.355-2.153l1.432,2.153l2.871,0.358c10.761,34.797,11.479,61.341,2.51,79.636
			l-16.499,34.079c-8.968,19.011-16.862,36.589-22.957,53.089c-19.013,49.862-26.547,89.68-22.602,119.812
			c1.436,10.762,3.229,20.805,5.38,29.774l-3.944,4.305c-2.87-10.763-5.023-22.6-6.812-35.872
			c-3.949-30.134,3.223-69.95,22.237-119.813c6.455-16.501,13.989-34.077,22.957-53.089l16.859-34.078
			c7.537-15.425,8.251-36.231,2.151-62.775l-0.358-1.794l-1.433-5.023C780.123,247.073,779.766,248.508,779.047,249.585z
			 M642.377,485.262l-4.664-12.555l4.664,11.48V485.262z M725.958,596.465l-7.534,1.793c-7.533,1.077-15.423,0.718-23.316-1.793
			c-8.251-2.511-15.782-6.816-22.6-12.914c-7.172-6.456-12.912-14.707-17.217-24.752l-4.664-12.195l2.868,6.815
			c4.307,10.044,10.045,18.294,17.219,24.752c6.817,6.099,14.352,10.402,22.601,12.913c7.894,2.511,15.784,2.87,23.316,1.794
			c7.892-1.434,14.708-4.664,20.806-9.326c16.143-12.914,23.676-43.046,21.883-90.396l42.687-38.384l-3.587-34.078h0.361l1.43,4.664
			l3.59,34.795l-25.108,22.957c3.942,6.817,8.969,13.274,15.421,20.089c7.893,7.892,16.862,14.707,26.904,20.806l-0.357,1.076
			c-12.195-6.815-22.957-14.707-31.923-23.675c-5.023-5.381-9.33-10.403-12.915-15.783l-7.894,7.174l-6.815,6.098
			c1.794,46.991-5.382,76.765-21.524,90.039c3.231,7.89,7.174,14.706,11.121,20.447c5.74,8.249,11.838,13.63,18.296,16.501
			l-1.077-0.36c-8.251-2.152-15.785-8.25-22.6-17.935c-3.228-4.662-6.455-10.044-9.325-16.141
			C732.773,593.595,729.546,595.388,725.958,596.465z M835.367,559.876c-1.076,5.739-1.436,12.197-1.793,19.011l-0.72,24.036
			c-0.715,8.607-2.151,16.141-4.659,22.239c-2.872,7.533-6.819,13.991-12.2,19.013c-5.738,5.381-12.195,8.609-19.013,9.325
			c-5.381,0.36-11.119-0.357-16.859-2.869l11.479,1.078c6.817-0.72,13.274-3.947,19.016-9.327
			c5.378-5.023,9.325-11.479,12.195-19.013c2.511-6.098,3.944-13.63,4.302-22.241l1.081-24.033
			c0.357-10.044,1.432-18.654,3.226-26.187c2.511-10.403,6.817-20.089,12.197-29.774c2.151-3.944,6.458-9.686,13.271-16.5
			l20.451-20.089c19.01-19.011,31.565-34.077,36.945-45.556c9.327-19.013,7.536-45.559-5.38-79.277l3.227-2.869
			c14.709,36.23,17.22,64.211,7.532,83.94c-5.379,11.479-17.935,26.544-36.946,45.557l-20.089,20.088
			c-6.815,6.816-11.477,12.554-13.632,16.501l-6.098,11.479l2.511,1.076l-2.511-0.717c-2.511,5.739-4.305,11.838-6.098,17.936
			L835.367,559.876z M812.768,99.999c1.796,0,3.947,0.358,5.738,1.434c-16.14,13.989-20.446,30.491-12.195,48.785
			c4.664,11.121,13.991,25.11,27.981,41.971l41.611,51.297c35.513,46.274,64.213,94.701,86.45,144.563
			c6.458,14.707,10.762,30.492,12.915,48.068c2.513,17.936,2.151,35.154-0.72,51.654c-2.867,17.579-8.607,32.644-16.856,45.558
			c-8.968,13.989-20.807,24.035-35.512,30.49c-14.711,6.099-29.777,8.611-45.2,7.534c-8.968-0.717-17.574-2.511-26.544-5.739
			c6.812,1.793,13.989,3.229,21.161,3.946c15.425,1.077,30.491-1.434,44.84-7.532c14.711-6.458,26.547-16.501,35.872-30.492
			c8.251-12.914,13.632-27.98,16.861-45.558c2.87-16.5,3.227-33.718,0.717-51.654c-2.153-17.578-6.457-33.361-12.915-48.069
			c-22.242-49.862-51.297-98.289-86.81-144.562l-41.252-51.298c-13.991-16.859-23.314-30.849-27.98-41.971
			C792.681,130.131,796.628,113.989,812.768,99.999z"/>
		<path fill-rule="evenodd" clip-rule="evenodd" fill="#E2B75B" d="M775.462,485.979l-0.359,0.36l-2.511,2.51l-0.717,0.359
			l-3.231,3.229l-0.717,0.359l0.357,0.359v0.717h0.359v0.718h0.36v0.717h0.357v0.717h0.359v0.717h0.357v0.718h0.359v0.717h0.359
			v0.718h0.357v0.717h0.36v0.718h0.359v0.716h0.357v0.719h0.359v0.716h0.357v0.718h0.357l0.359,0.359v0.717h0.361v0.717h0.357
			l0.36,0.36v0.717h0.357v0.716h0.359l0.359,0.358v0.718h0.355v0.717h0.359l0.359,0.358v0.718h0.357v0.717h0.36l0.359,0.359v0.716
			h0.359l0.715,0.718v0.717h0.359l0.359,0.36v0.717h0.357l0.72,0.717v0.718h0.357l0.359,0.358v0.717h0.357l0.717,0.719v0.716h0.36
			l0.719,0.718v0.717h0.358l1.073,1.075v0.718h0.359l1.437,1.436v0.717h0.359l1.437,1.434v0.717h0.355l6.816,6.817v0.717h0.72
			l2.508,2.51l0.717,0.359l2.87,2.87l0.718,0.358l2.155,2.153l0.715,0.357l0.719,0.718l0.717,0.358l0.718,0.717l0.714,0.36
			l0.72,0.717l0.72,0.358l0.717,0.719l0.715,0.357l0.719,0.719l0.719,0.359l0.718,0.716l0.715,0.359l0.361,0.359l0.715,0.357v-1.792
			l0.72-4.306l0.357-1.794l0.717-4.304l2.87-11.48l-0.357-0.358l-1.437-0.717l-0.359-0.359l-1.434-0.717l-0.357-0.358l-1.435-0.719
			l-0.361-0.357l-1.433-0.718l-0.361-0.359l-1.434-0.716l-0.717-0.72l-0.718-0.357l-0.359-0.359l-0.72-0.359l-0.356-0.358
			l-0.718-0.357l-0.357-0.359l-0.717-0.36l-0.719-0.717l-0.715-0.358l-0.357-0.358l-0.722-0.359l-0.359-0.357l-0.717-0.36
			l-1.074-1.077l-0.718-0.357l-1.077-1.078l-0.719-0.357l-0.717-0.718l-0.717-0.36l-1.077-1.075l-0.714-0.358l-2.516-2.51
			l-0.715-0.36l-3.946-3.944h-0.715v-0.719l-2.155-2.151h-0.36v-0.718l-2.508-2.511h-0.359v-0.718l-1.794-1.793H781.2v-0.718
			l-0.717-0.717h-0.36v-0.718l-0.717-0.716h-0.359v-0.719l-0.715-0.718h-0.359v-0.716l-0.72-0.717h-0.357v-0.718l-0.719-0.718
			H775.462z M803.44,258.553l-0.36,12.555l-0.357,5.738l-0.356,4.307l-0.36,3.945l-0.357,5.379l-0.359,3.228l-0.359,2.511
			l-0.358,2.153l-1.075,4.304l-1.794,5.382l-1.074,2.151l-0.36,1.077l-1.078,2.153l-0.357,1.075l-2.151,4.304l-0.359,1.078
			l-2.153,4.304l-0.357,1.076l-2.511,5.023l-0.359,1.076l-1.796,3.587l-0.357,1.076l-1.074,2.152l-0.359,1.077l-1.079,2.152
			l-0.358,1.076l-1.074,2.153l-0.359,1.075l-0.36,0.718l-0.357,1.076l-0.719,1.435l-0.355,1.075l-0.719,1.435l-0.359,1.077
			l-0.718,1.436l-0.359,1.075l-0.359,0.719l-0.355,1.076l-0.719,1.435l-0.357,1.075l-0.718,1.435l-0.721,2.152l-0.357,0.717
			l-0.717,2.153l-0.357,0.716l-0.72,2.153l-0.357,0.717l-0.719,2.153l-0.357,0.717l-2.511,7.534l-0.359,1.434l-1.794,5.381
			l-0.359,1.435l-0.357,1.075l-2.87,11.481l-1.077,5.379l-0.356,2.152l-0.718,3.587l-0.359,2.153l-0.717,5.739l-0.36,3.229
			l-0.359,2.869l-0.359,7.175v12.914h0.359v6.098h0.359v3.229h0.36v3.229h0.357v2.87l6.457-6.457l0.359-10.403h-0.359v-1.792
			l0.722-8.611l0.352-3.586l0.72-4.305l0.719-3.587l0.357-1.434l0.357-1.795l1.077-4.304l0.359-1.076l0.357-1.435l0.359-1.078
			l0.359-1.434l1.077-3.228l0.357-1.436l2.87-8.608l0.359-0.716l0.715-2.154l0.359-0.717l1.077-3.229l0.719-1.435l0.359-1.077
			l0.355-0.717l0.359-1.076l0.717-1.435l0.36-1.076l0.359-0.717l0.357-1.077l1.074-2.152l0.359-1.075l1.079-2.154l0.358-1.075
			l0.716-1.436l0.357-1.077l2.516-5.021l0.354-1.077l2.515-5.022l0.355-1.075l2.513-5.023l0.357-1.075l2.513-5.023l0.36-1.076
			l2.508-5.022l0.36-1.077l1.075-2.153l0.358-1.076l0.719-1.435l0.357-1.075l1.074-2.152l0.36-1.077l0.359-0.718l1.796-5.38
			l0.355-0.717l1.078-3.229l1.074-4.305l0.36-1.076l0.714-2.87l1.079-5.38l0.36-2.152l0.357-1.795l0.717-7.173l0.357-16.859h-0.357
			v-4.307h-0.357v-2.511h-0.359v-2.15h-0.357v-2.153h-0.36v-2.153h-0.359v-0.716l-0.359-0.36h-0.36v-0.716l-0.714-0.719h-0.36
			v-0.716l-0.717-0.717h-0.357v-0.717l-0.359-0.36h-0.359v-0.717l-0.359-0.359h-0.355v-0.717l-0.357-0.358h-0.362v-0.717
			l-0.359-0.359h-0.359v-0.719l-0.357-0.357H803.44z M809.897,99.999l-1.076,0.358l-2.151,1.077l-0.359,0.359l-0.715,0.357
			l-3.229,3.229l-0.36,0.718l-0.717,0.717l-0.359,0.718l-0.72,0.717l-1.074,2.152l-0.355,0.359l-1.798,3.586l-0.354,1.076
			l-0.72,1.435l-0.359,1.078l-0.359,0.717l-0.357,1.076l-0.359,0.717l-0.36,1.434l-1.791,5.381l-2.153,8.61l-0.357,1.076
			l-0.719,5.739v3.947h0.359v5.021h0.359v2.153h0.357v2.151h0.361v1.794h0.355v1.435h0.357v1.075h0.359v1.435h0.36v1.436h0.359
			v1.436h0.359v0.717h0.357v1.076h0.359v0.717h0.357v1.076h0.357v0.718h0.36v1.077h0.359v0.716h0.357v0.718h0.359v0.717h0.359v1.077
			h0.359v0.717h0.36v0.718h0.354v0.717h0.359v0.719h0.36v0.716h0.357v0.718h0.359v0.716h0.361v0.719h0.355v0.716h0.36v0.718h0.356
			v0.717h0.357v0.718h0.361v0.718h0.358l0.359,0.357v0.718h0.359v0.717h0.357v0.718h0.36l0.356,0.36v0.716h0.357v0.718h0.36v0.717
			h0.359l0.357,0.36v-0.36l7.177-7.174l0.715-0.358l1.796-1.795h0.719v0.719h0.355v1.076h0.361v1.076h0.357v0.718h0.357v1.076h0.359
			v1.076h0.36v0.717h0.357v1.077h0.359v1.077h0.357l-0.357,1.077l-0.717,0.358l-0.36,0.357l-1.435,0.718l-0.355,0.359l-1.438,0.717
			l-0.357,0.358l-0.719,0.359l-0.715,0.717l-0.717,0.359l-0.72,0.717l-0.72,0.358l-0.714,0.718l-0.718,0.359l0.718,0.716v0.718
			h0.357l0.356,0.357v0.719h0.36l0.359,0.358v0.717h0.359l0.36,0.359v1.077h0.357l0.717,0.717v0.717h0.357l0.359,0.36v0.717h0.359
			l0.719,0.717v0.719h0.358l0.359,0.357v0.718h0.359l0.717,0.716v0.719h0.357l0.357,0.358v0.717h0.359l0.718,0.718v0.717h0.359
			l0.357,0.358v0.718h0.357l0.719,0.717v0.717h0.359l0.718,0.717v0.719h0.359l0.357,0.358v0.718h0.357l0.721,0.716v0.719h0.355
			l0.36,0.358v0.717h0.359l0.719,0.718v0.717h0.356l0.719,0.717v0.717h0.357l0.72,0.718v0.717h0.357l0.717,0.718v0.717h0.357
			l0.719,0.718v0.716h0.362l0.715,0.72v0.715h0.359l0.717,0.718v0.717h0.357l0.717,0.718v0.718h0.36l1.079,1.075v0.717h0.354
			l0.72,0.718v0.717h0.357l0.721,0.718v0.716h0.356l1.074,1.078v0.717h0.359l0.72,0.718v0.717h0.359l0.718,0.717v0.717h0.357
			l1.435,1.435v0.718h0.358l1.079,1.075v0.718h0.354l1.077,1.077v0.715h0.359l1.077,1.078v0.717h0.356l1.437,1.434v0.718h0.359
			l1.074,1.075v0.72h0.357l1.077,1.075v0.716h0.359l1.079,1.078v0.717h0.354l1.437,1.435v0.717h0.359l1.074,1.077v0.717h0.357
			l1.079,1.077v0.717h0.36l1.074,1.077v0.717h0.357l1.076,1.075v0.718h0.359l1.435,1.435v0.718h0.359l1.078,1.076v0.717h0.358
			l1.074,1.078v0.716h0.359l1.076,1.076v0.719h0.36l1.432,1.434v0.717h0.359l1.077,1.077v0.717h0.359l1.074,1.077v0.717h0.359
			l1.076,1.077v0.718h0.36l1.432,1.435v0.716h0.359l1.079,1.078v0.717h0.357l1.074,1.077v0.716h0.359l1.077,1.076v0.718h0.359
			l1.076,1.075v0.718h0.357l1.077,1.077v0.716h0.359l1.074,1.078v0.717h0.357l1.079,1.077v0.717h0.361l1.072,1.075v0.718h0.357
			l1.077,1.075v0.718h0.359l0.719,0.717v0.718h0.36l1.074,1.075v0.717h0.357l1.076,1.077v0.717h0.359l0.715,0.718v0.717h0.36
			l1.078,1.078v0.716h0.357l0.717,0.718v0.717h0.357l0.72,0.718v0.717h0.358l1.079,1.076v0.718h0.361l0.713,0.718v0.717h0.359
			l0.717,0.717v0.717h0.359l1.074,1.077v0.718h0.357l0.36,0.359v0.716h0.359l0.72,0.718v0.717h0.358l0.716,0.718v0.717h0.357
			l0.719,0.717v0.717h0.357l0.719,0.718v0.717h0.36l0.359,0.358v0.72h0.355l0.721,0.716v0.717h0.356l0.72,0.717v0.718h0.357
			l0.717,0.717v0.718h0.357l0.359,0.357v0.718h0.359l0.72,0.718v0.717h0.357l0.359,0.359v0.717h0.357l0.357,0.358v0.719h0.359
			l0.717,0.716v0.719h0.359l0.36,0.356v0.72h0.359l0.715,0.716v0.718h0.359l0.359,0.36v0.717h0.357l0.359,0.358v0.718h0.36
			l0.717,0.717v0.717h0.357l0.357,0.358v0.718h0.361l0.357,0.359v0.716h0.36l0.359,0.36v0.716h0.357l0.359,0.359v0.718h0.357
			l0.357,0.358v0.718h0.359l0.359,0.359v0.717h0.357v0.717h0.36l0.359,0.359v0.717h0.361l0.358,0.358v0.717h0.354l0.359,0.359v0.72
			h0.36l0.358,0.356v0.718h0.358l0.359,0.359v0.717h0.357v0.718h0.359l0.358,0.357v0.718h0.357l0.359,0.36v0.717h0.359v0.716h0.36
			l0.359,0.36v0.717h0.357l0.359,0.359v0.717h0.358v0.718h0.357l0.359,0.36v0.716h0.36l0.357,0.36v0.716h0.361v0.719h0.357v0.716
			h0.359l0.36,0.359v0.718h0.354v0.717h0.36v0.718h0.359l0.357,0.359v0.717h0.359v0.717h0.359v0.717h0.357l0.359,0.36v0.717h0.357
			v0.718h0.357l0.359,0.358v0.717h0.36v0.718h0.359v0.717h0.359v0.718h0.359v0.717h0.357v0.717h0.357v0.717h0.357v0.718h0.36v0.717
			h0.361v0.718h0.355v0.717h0.359v0.718h0.359v0.715h0.36v0.72h0.359v0.716h0.355v0.718h0.36v0.717h0.359v0.718h0.357v0.718h0.359
			v1.076h0.359v0.717h0.357v0.718h0.36v0.717h0.356v0.718h0.357v0.716h0.36v1.078h0.359v0.717h0.361v1.076h0.357v0.718h0.357v1.075
			h0.36v0.718h0.357v1.076h0.358v0.719h0.358v1.076h0.359v0.715h0.357v1.078h0.359v1.076h0.359v1.077h0.36v1.077h0.359v1.075h0.355
			v1.076h0.359v1.077h0.359v1.076h0.357v1.077h0.359v1.075h0.362v1.435h0.354v1.434h0.36v1.435h0.357v1.435h0.357v1.077h0.361v1.435
			h0.357v1.435h0.359v1.794h0.36v1.792h0.358v1.794h0.359v1.795h0.357v2.15h0.357v2.871h0.359v2.512h0.359v2.869h0.357v4.664h0.359
			l-0.359,20.087l-0.357,3.588l-0.359,3.229l-0.359,2.511l-0.357,2.153l-0.357,1.794l-0.359,2.151l-1.796,7.174l-1.075,3.229
			l-0.354,1.436l-0.722,2.153l-0.357,0.717l-0.359,1.077l-0.359,0.717l-0.355,1.075l-0.359,0.718l-0.36,1.076l-4.306,8.609
			l-0.36,0.358l-0.714,1.435l-0.36,0.36l-0.717,1.434l-0.359,0.359l-0.357,0.717l-0.359,0.359l-0.36,0.718l-0.355,0.357
			l-0.359,0.718l-0.36,0.358l-0.359,0.717l-0.359,0.36l-0.355,0.717l-0.722,0.718l-0.357,0.716l-1.074,1.078l-0.359,0.717
			l-1.437,1.435l-0.357,0.717l-7.174,7.174l-0.72,0.36l-1.434,1.434l-0.717,0.359l-1.077,1.076l-0.714,0.358l-0.72,0.717l-0.72,0.36
			l-0.357,0.359l-0.719,0.357l-0.357,0.358l-0.717,0.36l-0.357,0.358l-1.439,0.717l-0.357,0.359l-0.717,0.359l-0.357,0.357
			l-4.307,2.153l-0.359,0.358l-1.432,0.717l-1.079,0.36l-1.434,0.717l-1.077,0.359l-1.432,0.718l-1.079,0.36l-0.717,0.357
			l-6.457,2.153l-2.871,0.716l-5.38,1.078l-2.511,0.357l-4.664,0.359l-9.325,0.358v-0.358l-4.664-0.359l-5.021-0.717l-2.871-0.358
			l-11.479-2.87l-1.795-0.359l-1.074-0.357h-1.436l-0.358,0.716l-0.36,1.075l-0.359,0.719l-0.715,2.151l-0.359,0.718l-0.718,2.152
			l-0.358,0.717l-0.36,1.435l-1.073,3.229l-0.36,1.435l-1.076,3.229l-1.435,7.174l2.153,0.717l0.718,0.358l2.15,0.718l0.719,0.36
			l1.074,0.357l0.718,0.358l2.15,0.718l0.72,0.357l2.15,0.72l0.72,0.358l1.076,0.357l0.72,0.359l1.791,0.358l1.434,0.36l1.797,0.357
			l2.867,0.718l3.588,0.718l7.534,1.075l2.15,0.359l12.915,0.358v-0.358l3.227-0.359l3.589-0.358l3.227-0.359l1.435-0.358
			l1.793-0.359l1.435-0.359l1.796-0.358l2.87-0.717l1.791-0.36l1.077-0.358l0.717-0.359l4.304-1.436l0.72-0.357l3.228-1.076
			l7.893-3.946l0.358-0.358l3.587-1.795l0.717-0.716l0.717-0.36l0.718-0.717l0.719-0.358l0.359-0.359l0.715-0.359l0.72-0.717
			l0.717-0.36l0.717-0.717l0.717-0.358l0.357-0.358l0.72-0.359l0.719-0.717l0.717-0.359l3.585-3.588h0.72v-0.716l3.946-3.946
			l0.357-0.718l1.435-1.435l0.359-0.718l1.436-1.435l0.359-0.716l0.355-0.359l0.359-0.716l0.717-0.719l0.359-0.717l0.362-0.358
			l0.354-0.718l0.36-0.357l0.357-0.718l0.357-0.358l1.078-2.152l0.36-0.359l1.432-2.87l0.359-0.36l1.076-2.151l0.36-0.359
			l1.074-2.152l0.359-1.075l0.717-1.435l0.359-1.075l0.36-0.719l0.357-1.076l0.719-1.435l0.355-1.077l0.719-1.435l1.437-4.304
			l0.357-1.435l1.794-5.379l0.719-2.87l0.359-1.794l0.356-1.435l0.359-1.793l0.359-1.435l0.357-1.793l0.36-1.436l0.359-1.793
			l0.717-5.021l0.357-2.87l0.357-2.512l0.359-3.945l0.36-6.815l0.359-13.272h-0.359v-6.457h-0.36v-3.587h-0.359v-3.587h-0.357
			v-3.229h-0.357v-2.511h-0.357v-2.151h-0.359v-2.511h-0.359v-2.153h-0.36v-2.153h-0.357v-2.15h-0.359v-1.436h-0.359v-1.794h-0.356
			v-1.434h-0.359v-1.435H966.3v-1.793h-0.359v-1.436h-0.36v-1.435h-0.357v-1.435h-0.359v-1.075h-0.359v-1.435h-0.357v-1.077h-0.357
			v-1.076h-0.359v-1.075h-0.357v-1.077h-0.359v-1.434h-0.36v-1.078h-0.359v-1.076h-0.359v-1.077h-0.355v-1.077h-0.359v-0.717h-0.359
			v-1.076h-0.357v-0.718h-0.36v-1.075h-0.359v-0.719h-0.357v-1.076h-0.359v-0.717h-0.359v-1.077h-0.355v-0.717h-0.359v-1.077h-0.359
			v-0.717h-0.36v-1.076h-0.359v-0.718h-0.357v-0.717h-0.359v-0.718h-0.359v-0.716h-0.357v-0.719h-0.357v-1.075h-0.359v-0.718h-0.358
			v-0.717h-0.36v-0.717h-0.359v-0.716h-0.357v-0.719h-0.361v-0.717h-0.357v-1.078h-0.357v-0.715h-0.36v-0.718h-0.354v-0.717h-0.362
			v-0.718h-0.359v-0.717h-0.357v-1.075h-0.359v-0.718h-0.359v-0.718h-0.355v-0.717h-0.359v-0.718h-0.36v-0.716h-0.359v-0.719h-0.359
			v-0.716h-0.357v-0.718h-0.359v-0.717h-0.358v-0.718h-0.358v-0.717h-0.357v-0.718h-0.36v-0.716h-0.357v-0.718h-0.357v-0.717h-0.361
			v-0.718h-0.359v-0.717h-0.36v-0.718h-0.357V357.2h-0.356v-0.718h-0.36v-0.716h-0.357v-0.719h-0.359v-0.717h-0.359v-0.717h-0.357
			v-0.717h-0.359v-0.718h-0.36v-0.718h-0.355v-0.717h-0.359v-0.718h-0.36v-0.716h-0.359v-0.719h-0.359v-0.716l-0.355-0.359h-0.361
			v-0.715h-0.36v-0.72h-0.357v-0.717h-0.357v-0.717h-0.357v-0.717l-0.359-0.359h-0.359v-0.717h-0.359v-0.717h-0.36v-0.718h-0.359
			v-0.717h-0.357v-0.718h-0.357v-0.717l-0.359-0.358h-0.357v-0.718h-0.359v-0.717h-0.359v-0.718h-0.357v-0.717h-0.359v-0.718h-0.36
			v-0.717l-0.354-0.359h-0.36v-0.718h-0.359v-0.717h-0.357v-0.718h-0.361v-0.716h-0.357v-0.72l-0.36-0.356h-0.359v-0.719h-0.357
			v-0.716l-0.358-0.36h-0.359v-0.718H927.2v-0.717h-0.359v-0.718l-0.36-0.357h-0.359v-0.718h-0.359v-0.718h-0.357v-0.717
			l-0.358-0.358h-0.359v-0.717h-0.357v-0.718l-0.359-0.36h-0.358v-0.716h-0.358v-0.718h-0.36v-0.717l-0.359-0.36h-0.354v-0.717
			h-0.358v-0.717l-0.361-0.359h-0.359v-0.717h-0.36v-0.717h-0.357v-0.717l-0.359-0.359h-0.359v-0.718h-0.357v-0.716h-0.357v-0.719
			l-0.359-0.357h-0.357v-0.719l-0.359-0.358h-0.36v-0.717h-0.357v-0.718l-0.361-0.358h-0.357v-0.717l-0.357-0.359h-0.359v-0.717
			h-0.357v-0.717l-0.36-0.359h-0.359v-0.717h-0.357v-0.718l-0.359-0.357h-0.359v-0.718l-0.356-0.36h-0.359v-0.716h-0.359v-0.718
			l-0.36-0.357h-0.359v-0.719l-0.357-0.358h-0.359v-0.717h-0.359v-0.718l-0.357-0.356h-0.357v-0.719l-0.359-0.358h-0.357v-0.717
			h-0.359v-0.718l-0.36-0.36h-0.359v-0.716h-0.359v-0.719l-0.357-0.358h-0.356v-0.718l-0.36-0.358h-0.357v-0.717l-0.36-0.36h-0.359
			v-0.717l-0.356-0.358h-0.361v-0.718l-0.359-0.358h-0.355v-0.717l-0.359-0.359h-0.36v-0.717l-0.359-0.36h-0.359v-0.718
			l-0.357-0.358h-0.359v-0.718l-0.359-0.36h-0.357v-0.715l-0.357-0.36h-0.358v-0.716l-0.358-0.359h-0.36v-0.718l-0.359-0.358h-0.359
			v-0.717l-0.36-0.359H898.5v-0.717l-0.357-0.358h-0.36v-0.718l-0.357-0.357h-0.359v-0.718l-0.359-0.36h-0.357v-0.716l-0.359-0.359
			h-0.36v-0.717l-0.353-0.358h-0.361v-0.718l-0.36-0.357h-0.359v-0.72l-0.717-0.717h-0.36v-0.716l-0.359-0.36h-0.357v-0.717
			l-0.357-0.358h-0.359v-0.718l-0.717-0.717h-0.357v-0.718l-0.361-0.357h-0.36v-0.718l-0.715-0.717h-0.359v-0.718l-0.357-0.358
			h-0.359v-0.717l-0.359-0.36h-0.357v-0.716l-0.72-0.717h-0.354v-0.717l-0.36-0.36h-0.359v-0.717l-0.359-0.359h-0.359v-0.717
			l-0.717-0.718h-0.36v-0.716l-0.357-0.359h-0.357v-0.717l-0.715-0.718h-0.361v-0.716l-0.72-0.719h-0.359v-0.717l-0.715-0.717
			h-0.359v-0.717l-0.717-0.718h-0.359v-0.718l-0.718-0.717h-0.357v-0.718l-0.717-0.716h-0.359v-0.719l-0.718-0.716h-0.359v-0.718
			l-0.719-0.717h-0.357v-0.718l-0.717-0.717h-0.357v-0.718l-0.72-0.717h-0.359v-0.717l-0.717-0.717h-0.357v-0.718l-0.717-0.717
			h-0.36v-0.718l-1.076-1.075h-0.359v-0.718l-1.074-1.076h-0.359v-0.717l-1.077-1.077h-0.359v-0.717l-1.074-1.077h-0.357v-0.717
			l-1.079-1.075h-0.357v-0.718l-1.076-1.076h-0.357v-0.718l-1.077-1.077h-0.359v-0.717l-1.074-1.077h-0.36v-0.717l-1.076-1.077
			h-0.359v-0.717l-1.434-1.434h-0.357v-0.72l-1.079-1.076h-0.36v-0.716l-1.072-1.078h-0.359v-0.717l-1.076-1.076h-0.357v-0.718
			l-1.076-1.075h-0.36v-0.718l-1.076-1.075h-0.359v-0.719l-1.075-1.076h-0.359v-0.716l-1.076-1.078h-0.359v-0.717l-1.074-1.075
			h-0.36v-0.718l-1.434-1.435h-0.36v-0.718l-1.074-1.075h-0.359v-0.717l-1.076-1.077h-0.36v-0.717l-1.073-1.077h-0.36v-0.717
			l-1.076-1.077h-0.36v-0.717l-1.074-1.077h-0.359v-0.718l-1.076-1.076h-0.357v-0.717L832.5,194.7h-0.36v-0.717l-1.079-1.077h-0.357
			v-0.717l-1.434-1.435h-0.359v-0.718l-1.077-1.076h-0.359v-0.717l-1.074-1.078h-0.359v-0.716l-1.077-1.075h-0.357v-0.719
			l-1.074-1.076h-0.359v-0.718l-1.079-1.076h-0.355v-0.718l-0.721-0.717h-0.357v-0.718l-0.717-0.716h-0.357v-0.719l-0.72-0.716
			h-0.359v-0.718l-0.717-0.716h-0.357v-0.719l-0.717-0.717h-0.36v-0.718l-0.717-0.717h-0.357v-0.717l-0.361-0.359h-0.355v-0.717
			l-0.359-0.359h-0.359v-0.717l-0.358-0.358h-0.361v-0.719l-0.717-0.716h-0.359v-0.718l-0.357-0.358h-0.357v-0.719h-0.359v-0.717
			l-0.357-0.358h-0.36v-0.718l-0.359-0.357h-0.359v-0.718l-0.36-0.358h-0.356v-0.717l-0.357-0.36h-0.36v-0.718h-0.357v-0.716h-0.359
			v-0.719l-0.357-0.357h-0.359v-0.718h-0.359v-0.716l-0.359-0.359h-0.355v-0.719h-0.357v-0.717h-0.362v-0.718h-0.359v-0.717h-0.359
			v-0.717H803.8v-0.717h-0.359v-0.718h-0.36v-0.717h-0.357v-0.718h-0.356v-0.717h-0.36v-0.718h-0.357v-0.716h-0.359v-0.719h-0.359
			v-1.075h-0.358v-1.076h-0.361v-1.077h-0.357v-0.716h-0.356v-1.078h-0.36v-1.076h-0.355v-0.717h-0.361v-1.794h-0.359v-1.793h-0.357
			v-1.435h-0.36v-2.869h-0.359v-6.458l0.72-5.021l0.357-0.719l1.793-5.379l0.357-0.359l1.438-2.87l0.357-0.359l1.074-2.151
			l1.077-1.077l0.359-0.717l0.722-0.718l0.357-0.717l1.074-1.078l0.359-0.716l5.738-5.739H809.897z"/>
		<path fill-rule="evenodd" clip-rule="evenodd" fill="#E2B75B" d="M782.634,254.249l-0.359,6.814l-0.358,2.511l-0.357,2.153
			l-0.359,2.51l-2.153,6.458l-0.355,10.043l-0.359,2.153l-0.719,3.586l-0.36,1.077l-0.357,1.436l-0.359,1.076l-0.359,1.435
			l-1.432,4.304l-0.36,0.717l-0.719,2.152l-0.359,0.718l-0.357,1.076l-0.357,0.716l-0.359,1.078l-6.101,12.195l-0.352,0.358
			l-1.438,2.869l-0.357,0.36l-6.819,13.631l-0.355,0.359l-6.816,13.631l-0.359,0.357l-0.356,1.078l-2.516,5.021l-0.357,1.077
			l-2.871,5.739l-0.359,1.075l-2.511,5.023l-0.357,1.076l-0.719,1.435l-0.359,1.076l-0.715,1.435l-0.358,1.077l-0.719,1.435
			l-0.357,1.075l-0.717,1.435l-0.359,1.076l-0.72,1.435l-0.357,1.078l-0.719,1.434l-0.357,1.077l-1.076,2.151l-1.077,3.228
			l-0.357,0.718l-0.719,2.151l-0.36,0.719l-0.714,2.151l-0.36,0.718l-4.663,13.99l-0.357,1.435l-0.36,1.076l-0.358,1.435
			l-0.358,1.075l-0.717,2.871l-0.359,1.076l-0.359,1.436l-0.36,1.076l-1.433,5.739l-0.357,1.795l-0.717,2.869l-0.36,1.793
			l-1.076,4.305l-0.357,2.151l-0.719,3.587l-0.357,2.153l-0.717,3.587l-0.36,2.152l-0.359,1.794l-0.717,5.021l-0.355,2.152
			l-1.081,7.533l-0.356,3.23l-1.078,10.759l-0.357,4.664l-0.717,12.197V519.7h0.359v7.891h0.357v6.457h0.357v3.229h0.359v3.228
			h0.361v3.588h0.357v3.227h0.356v2.153h0.359v2.152h0.36v2.153h0.361v1.794h0.355v2.151h0.359v2.153h0.357v2.153h0.359v1.075h0.36
			v1.436h0.357v1.075l0.718-0.359l0.719-0.716l0.717-0.36l0.717-0.717l0.72-0.358l0.715-0.718l0.719-0.357l1.435-1.437l0.717-0.358
			l1.794-1.794l0.359-1.793h-0.359v-1.436h-0.357v-1.434h-0.36v-1.436h-0.358v-1.434h-0.358v-1.435h-0.359v-1.794h-0.357v-1.794
			h-0.359v-1.792h-0.359v-1.794h-0.36v-1.794h-0.354v-2.153h-0.36v-2.151h-0.359v-1.794h-0.359v-2.151h-0.357v-2.512h-0.357v-2.51
			h-0.359v-2.512h-0.36v-2.151h-0.355v-4.665h-0.362v-4.304h-0.359v-17.218l0.722-8.611l0.355-3.944l0.36-2.153l0.359-2.511
			l0.357-2.153l0.357-2.511l0.359-2.151l0.359-2.513l0.36-1.794l0.354-1.435l0.72-3.586l0.359-1.435l0.717-3.587l0.358-1.435
			l0.358-1.794l0.718-2.87l0.359-1.076l1.076-4.304l0.357-1.076l0.72-2.87l0.357-1.077l0.72-2.87l0.714-2.151l0.359-1.436
			l1.794-5.381l0.359-1.435l1.794-5.379l0.357-1.435l0.359-1.078l0.357-0.716l1.076-3.228l0.36-0.717l1.436-4.307l0.357-0.716
			l1.077-3.229l0.359-0.717l1.434-4.306l0.718-1.434l0.356-1.077l0.36-0.717l0.359-1.077l0.357-0.717l0.361-1.077l0.356-0.717
			l0.359-1.076l0.36-0.718l0.357-1.075l0.36-0.719l0.358-1.076l0.357-0.717l0.359-1.077l0.36-0.717l0.357-1.077l0.717-1.435
			l0.359-1.076l0.715-1.435l0.359-1.075l0.359-0.718l0.362-1.076l0.715-1.435l0.357-1.075l0.721-1.436l0.355-1.078l1.077-2.151
			l0.359-1.077l1.076-2.152l0.357-1.076l1.077-2.153l0.357-1.075l0.719-1.435l0.359-1.077l1.792-3.587l0.359-1.076l1.794-3.588
			l0.358-1.075l1.794-3.587l0.357-1.076l16.502-33.002l0.357-1.076l0.72-1.435l0.357-1.078l0.359-0.716l0.357-1.076l0.717-1.436
			l0.36-1.434l0.359-1.077l0.359-1.435l0.358-1.076l0.358-1.435l0.357-1.794l0.717-4.304l0.359-2.869l0.357-4.663l0.36-9.687h-0.36
			v-4.661h-0.357v-3.947h-0.359v-2.511h-0.359v-2.511h-0.357v-2.513h-0.357v-2.151h-0.358v-1.794h-0.358v-1.794h-0.359v-1.794
			h-0.359v-1.792H782.634z M781.56,249.585l0.357,0.357v-0.357H781.56z M780.483,245.998l-0.36,1.075l-0.357,1.078l-0.719,1.434
			v2.511l1.076-3.229h1.077l0.359,0.36v-0.718H781.2v-1.435h-0.357v-1.075H780.483z M813.845,178.198l-0.358,0.359l-1.438,1.436
			l-0.715,0.358l-7.534,7.534l-0.359,0.716l-0.36,0.359l-0.357,0.718l-0.717,0.717l-0.357,0.717l-0.719,0.717l-0.358,0.719
			l-0.361,0.358l-0.357,0.717l-0.717,0.719l-3.946,7.89l-1.792,5.382l-0.359,1.434l-0.357,1.077l-1.438,8.608v7.893h0.359v3.229
			h0.36v2.151h0.359v1.795h0.359v1.435h0.357v1.434h0.359v1.077h0.357v1.077h0.357v1.075h0.36v1.076h0.359v1.078h0.357v0.717h0.359
			v1.076h0.359v0.718h0.359v0.718h0.36v1.076h0.354v0.717h0.359v0.718h0.36v0.717h0.357v0.718h0.359v0.716h0.361v0.719h0.355v0.716
			h0.36l0.356,0.36v0.718h0.357v0.717h0.361l0.358,0.358v0.718h0.359v0.717h0.359l0.357,0.358v0.717h0.36v0.718h0.356l0.357,0.36
			v0.716h0.36v0.718h0.359l0.357,0.357v0.719h0.359l0.359,0.359v0.717h0.362l0.357,0.358v0.717h0.355l0.359,0.359v0.717h0.359
			l0.359,0.36v0.717h0.357l0.717,0.717v0.716h0.36l0.714,0.719v0.716h0.36l0.359,0.36v0.716h0.359l1.435,1.435v0.718h0.357
			l1.076,1.077v0.717h0.361l1.433,1.435v0.717h0.361l1.074,1.078v0.716h0.36l3.944,3.945v0.718h0.357l11.483,11.478v0.718h0.714
			l6.098,6.098v0.717h0.36l6.816,6.817v0.717h0.357l2.87,2.869v0.718h0.36l1.791,1.794v0.716h0.359l1.434,1.435v0.718h0.357
			l1.079,1.076v0.718h0.36l1.074,1.076v0.717h0.357l0.719,0.718v0.717h0.357l0.719,0.718v0.716h0.36l0.361,0.36v0.718h0.354
			l0.359,0.357v0.718h0.359l0.357,0.359v0.717h0.361l0.358,0.358v0.718h0.357v0.717h0.359v0.717h0.357v0.717h0.359l0.357,0.359
			v0.717h0.359v0.718h0.359v0.716h0.36v0.72h0.357l0.359,0.358v0.717h0.357v0.718h0.357v0.717h0.359v1.077h0.359v1.076h0.357v0.717
			h0.36v1.078h0.359v0.716h0.359v1.076h0.359v0.719h0.355v1.075h0.359v1.436h0.36v1.434h0.356v1.435h0.359v1.794h0.36v1.435h0.357
			v1.794h0.359v4.304h0.357l-0.357,10.763l-0.717,4.304l-0.36,1.793l-0.359,1.435l-1.791,5.381l-2.513,5.022l-0.357,0.358
			l-0.359,0.717l-0.357,0.36l-0.36,0.716l-0.359,0.359l-0.359,0.718l-0.357,0.357l-0.359,0.718l-0.357,0.358l-0.359,0.717
			l-1.794,1.794l-0.359,0.719l-4.302,4.305l-0.719,0.356l-1.793,1.794l-0.719,0.36l-0.717,0.717l-0.72,0.358l-0.354,0.358
			l-0.72,0.359l-0.719,0.718l-0.717,0.358l-0.36,0.36l-0.715,0.358l0.357,0.357v2.513h0.357v2.511h0.36v2.51h0.359v2.512h0.357
			v2.511h0.359v2.51h0.359v2.869h0.36v2.513h0.359v2.51h0.354v2.511h0.362v2.512h0.357v2.511h0.357v2.51l0.719-0.358l0.718-0.717
			l0.714-0.36l0.721-0.717l0.719-0.358l1.074-1.076l0.717-0.36l1.076-1.075l0.72-0.358l1.074-1.077l0.717-0.358l1.437-1.435
			l0.717-0.36l1.076-1.076l0.718-0.358l1.074-1.076l0.719-0.358l1.437-1.435l0.715-0.359l1.076-1.075l0.72-0.36l1.432-1.435
			l0.719-0.358l1.077-1.077l0.717-0.359l1.076-1.075l0.718-0.36l1.436-1.434l0.718-0.36l1.076-1.075l0.717-0.36l1.434-1.435
			l0.722-0.357l1.072-1.077l0.718-0.357l1.076-1.078l0.719-0.358l1.435-1.434l0.717-0.359l1.076-1.077l0.715-0.357l1.079-1.078
			l0.717-0.357l1.434-1.435l0.718-0.358l1.079-1.076l0.714-0.36l1.437-1.435l0.717-0.358l1.074-1.077l0.72-0.358l1.078-1.075
			l0.716-0.36l1.434-1.434l0.719-0.359l1.075-1.075l0.721-0.36l1.075-1.076h0.718l0.356,0.36v0.716h0.357l0.359,0.36v0.715h0.359
			l-0.359,5.741l-0.359,1.794l-0.714,2.868l-2.514,7.533l-0.355,0.719l-0.72,2.151l-0.359,0.718l-0.359,1.075l-0.717,1.435
			l-0.359,1.078l-0.715,1.434l-0.358,1.077l-1.438,2.869l-0.36,1.075l-4.661,9.328l-0.359,0.358l-1.077,2.152l-0.357,0.359
			l-0.357,0.718l-0.359,0.357l-0.717,1.435l-0.357,0.36l-0.361,0.718l-0.36,0.357l-0.357,0.718l-0.717,0.718l-0.357,0.717
			l-0.719,0.717l-0.357,0.717l-1.074,1.077l-0.36,0.718l-1.078,1.075l-0.357,0.718l-4.305,4.304l-0.359,0.717l-3.587,3.588
			l-0.718,0.358l-3.229,3.229l-0.717,0.357l-1.794,1.793l-0.717,0.36l-1.434,1.435l-0.72,0.358l-1.076,1.077l-0.715,0.359
			l-1.077,1.075l-0.719,0.359l-1.074,1.076l-0.717,0.358l-1.437,1.435l-0.713,0.358l-1.081,1.077l-0.717,0.359l-1.076,1.075
			l-0.717,0.359l-1.076,1.077l-0.721,0.358l-1.432,1.435l-0.719,0.357l-1.432,1.436l-0.72,0.357l-1.796,1.794l-0.715,0.36
			l-3.229,3.229l-0.717,0.357l-0.359,0.718l-5.738,5.739l-0.359,0.718l-1.435,1.435l-0.359,0.717l-0.717,0.718l-0.359,0.717
			l-0.718,0.717l-0.359,0.717L832.5,497.1l-0.36,0.718l-0.359,0.358l-0.359,0.718l-0.36,0.359l-0.717,1.434l-0.357,0.358
			l-0.717,1.435l-0.359,0.36l-0.357,1.075l-2.153,4.307l-0.359,1.075l-0.357,0.716l-0.359,1.078l-0.36,0.717l-1.791,5.382
			l-0.359,1.434l-2.153,6.456l-2.87,11.48l-0.717,4.304l-0.357,1.794l-0.72,4.306l-0.357,1.792l-2.87,20.089l-0.359,2.153
			l-1.434,10.044l-1.077,6.456l-1.794,8.968l-0.717,2.87l-2.511,7.534l-2.51,5.021l-0.718,0.717l-0.359,0.717l-0.718,0.718
			l-0.361,0.717l-0.714,0.718v0.717h-0.716l-2.152,2.153l-0.72,0.358l-0.359,0.357l-0.717,0.359l-0.359,0.358l-1.435,0.717
			l-0.357,0.36l-5.74,2.868l-1.077,0.359l-0.719,0.359l-1.073,0.359l-1.438,0.357l-1.074,0.358l-1.794,0.36l-2.513,0.358
			l-5.737,0.357v-0.357l-2.511-0.358l-4.307-1.436l-4.305-2.153l-0.356-0.357l-0.718-0.359l-0.359-0.358l-0.717-0.358l-0.36-0.36
			l-0.719-0.357l-1.434-1.435l-0.715-0.358l-5.023-5.023h-0.359v-0.717l-1.077-1.077h-0.359v-0.717l-1.074-1.075h-0.36v-0.718
			l-1.074-1.075h-0.359v-0.718h-0.357v-0.717l-0.358-0.359h-0.36v-0.717l-0.357-0.358h-0.36v-0.718l-0.359-0.357h-0.356v-0.718
			h-0.361v-0.718l-0.357-0.357h-0.359v-0.718l-0.36-0.36h-0.356v-0.716h-0.36v-0.719h-0.357v-0.716l-0.359-0.36h-0.359v-0.715
			h-0.359v-0.72h-0.356v-0.717h-0.359v-0.717h-0.358v-0.717h-0.361v-0.718h-0.357v-0.718h-0.357v-0.717h-0.359v-0.718l-0.357-0.357
			h-0.719l-1.437,0.717l-0.357,0.358l-1.437,0.717l-0.357,0.359l-1.435,0.718l-1.074,0.359l-0.72,0.357l-1.074,0.36l-0.717,0.358
			l-1.077,0.358l0.718,0.717v0.72h0.359v0.715h0.357v0.718h0.359v0.717h0.36l0.356,0.36v0.716h0.357v0.718h0.359v0.717h0.36v0.718
			h0.359l0.354,0.358v0.717h0.36v0.718h0.359v0.717h0.359l0.357,0.359v0.719h0.359l0.357,0.357v0.718h0.36l0.359,0.358v0.717h0.357
			l0.359,0.36v0.716h0.357l0.359,0.359v0.719h0.359l0.357,0.356v0.718h0.36l0.359,0.359v0.717h0.359v0.718h0.357l1.074,1.076v0.719
			h0.361l0.718,0.716v0.718h0.356l0.719,0.717v0.718h0.359l0.718,0.717v0.718h0.356l1.077,1.076v0.718h0.361l1.433,1.434v0.717h0.36
			l1.793,1.795v0.715h0.357l2.516,2.514v0.716h0.356l6.457,6.457l0.719,0.359l2.511,2.511l0.718,0.358l0.717,0.717l0.717,0.36
			l0.717,0.717l0.719,0.358l1.077,1.078l0.715,0.357l0.359,0.358l1.434,0.718l0.36,0.357l0.719,0.359l0.357,0.36l0.717,0.358
			l0.36,0.357l5.022,2.512l1.075,0.36l0.719,0.357l4.302,1.435l7.892,0.718l5.383,0.36v-0.36l3.585-0.718l1.077-0.358l0.721-0.358
			l1.072-0.358l0.719-0.36l1.077-0.357l0.718-0.36l0.356-0.358l1.435-0.718l0.359-0.358l1.435-0.718l0.719-0.717l0.717-0.358
			l1.077-1.077l0.714-0.358l5.386-5.382l0.355-0.717l0.361-0.358l0.357-0.717l0.717-0.718l0.36-0.717l0.357-0.358l0.359-0.718
			l0.357-0.358l0.717-1.436l0.359-0.359l2.511-5.022l0.361-1.075l0.716-1.436l0.359-1.077l0.359-0.717l1.434-4.304l0.357-1.435
			l0.36-1.795l0.359-1.434l0.717-4.304l0.357-3.23l0.357-5.022l0.719-15.783l0.362-8.25l0.357-6.457l0.357-3.947l0.359-3.586
			l0.357-2.153l0.359-2.51l0.357-2.153l1.077-5.379l0.719-2.153l0.36-1.435l0.354-1.076l0.359-1.435l1.077-3.228l0.361-0.717
			l0.715-2.152l0.357-0.717l0.717-2.153l1.437-2.869l0.36-1.077l5.38-10.762l0.357-0.358l0.36-0.717l0.356-0.358l0.718-1.435
			l0.719-0.718l0.359-0.717l0.357-0.36l0.359-0.717l0.715-0.717l0.36-0.716l1.436-1.437l0.36-0.717l1.434-1.434l0.357-0.719
			l4.664-4.661l0.357-0.718l0.719-0.359l30.491-30.491l0.359-0.718l3.944-3.946l0.357-0.717l2.518-2.511l0.353-0.719l1.796-1.791
			l0.357-0.72l1.794-1.793l0.359-0.717l1.435-1.434l0.357-0.718l0.719-0.717l0.357-0.718l1.079-1.075l0.359-0.718l0.715-0.717
			l0.361-0.718l0.715-0.717l0.36-0.718l0.357-0.357l0.36-0.718l0.714-0.718l0.359-0.717l0.359-0.358l0.36-0.717l0.359-0.359
			l0.357-0.719l0.359-0.357l0.715-1.434l0.359-0.36l0.359-0.718l0.357-0.358l2.87-5.741l0.359-1.075l0.36-0.716l0.357-1.078
			l0.359-0.717l0.357-1.076l0.357-0.718l0.719-2.153l0.36-1.793l1.076-4.304l0.357-2.153l0.717-7.175l0.359-4.663h-0.359v-7.893
			h-0.359v-3.229h-0.357v-2.869h-0.357v-2.511h-0.359v-1.794h-0.357v-1.794h-0.359v-1.792h-0.36v-1.793h-0.357v-1.794h-0.361v-1.435
			h-0.357v-1.435h-0.357v-1.435h-0.359V379.8h-0.357v-1.436h-0.36v-1.076h-0.359v-1.435h-0.357v-1.075h-0.359v-1.436h-0.359v-1.077
			h-0.356v-1.076h-0.359v-1.076h-0.359v-1.076h-0.36v-1.078h-0.359v-1.076h-0.357v-0.717h-0.359v-1.077h-0.359v-1.077h-0.357v-1.075
			h-0.357v-1.076h-0.359v-1.077h-0.357v-0.717h-0.359v-1.078h-0.36v-0.716h-0.359v-0.719h-0.359v-0.716h-0.357v-0.718h-0.356v-0.717
			h-0.718l-1.796,1.794l-0.715,0.357l-2.155,2.153l-0.715,0.359l-2.156,2.151l-0.714,0.36l-2.153,2.154l-0.713,0.356l-2.158,2.153
			l-0.717,0.358l-2.152,2.152l-0.718,0.358l-1.793,1.793l-0.718,0.358l-2.51,2.512l-0.72,0.358l-2.151,2.152l-0.719,0.358
			l-2.15,2.153l-0.718,0.357l-2.511,2.513v-0.359l0.359-0.718l0.358-0.358l0.359-0.717l0.359-0.359l0.36-0.717l0.356-0.359
			l2.511-5.022l0.357-1.077l0.357-0.717l0.359-1.076l0.359-0.717l0.36-1.434l0.717-2.153l0.717-3.587l0.357-2.152l0.36-3.588
			l0.359-5.021h-0.359v-4.304h-0.36v-1.794h-0.357v-2.153h-0.357v-1.793h-0.359v-1.435h-0.355v-1.076h-0.361v-1.435h-0.36v-1.075
			h-0.359v-1.077h-0.359v-1.076h-0.357v-1.076h-0.357v-0.718h-0.359v-1.076h-0.357v-0.717h-0.359v-0.718h-0.359v-1.076h-0.357
			v-0.718h-0.36v-0.717h-0.357v-0.718h-0.356v-0.717h-0.36v-0.718h-0.359v-0.717h-0.359v-0.717h-0.358v-0.717h-0.359v-0.718h-0.359
			v-0.717h-0.359v-0.718h-0.357v-0.717l-0.355-0.358h-0.361v-0.718h-0.357v-0.717h-0.359v-0.718l-0.36-0.358h-0.359v-0.717
			l-0.359-0.359h-0.357v-0.717h-0.357v-0.717l-0.359-0.359h-0.357v-0.717l-0.36-0.359h-0.359v-0.717l-0.356-0.358h-0.36v-0.719
			l-0.359-0.357h-0.355v-0.719l-0.719-0.716h-0.359v-0.719l-0.36-0.358h-0.357v-0.717l-0.719-0.718h-0.357v-0.717l-0.717-0.717
			h-0.357v-0.717l-1.079-1.078h-0.357v-0.716l-0.717-0.719h-0.359v-0.716l-1.077-1.075h-0.357v-0.719l-1.434-1.434h-0.36v-0.716
			l-1.436-1.437h-0.359v-0.717l-1.792-1.793h-0.358v-0.717l-2.512-2.512h-0.359v-0.717l-3.587-3.587h-0.36v-0.717l-18.293-18.294
			h-0.357v-0.719l-5.383-5.38h-0.356v-0.718l-2.872-2.871h-0.357v-0.715l-1.796-1.795h-0.359v-0.717l-1.792-1.794h-0.359v-0.717
			l-1.076-1.077h-0.355v-0.718l-0.719-0.716h-0.358v-0.719l-1.078-1.076h-0.359v-0.715l-0.715-0.72h-0.359v-0.716l-0.357-0.359
			h-0.36v-0.718l-0.719-0.717h-0.36v-0.717l-0.356-0.359h-0.357v-0.717l-0.36-0.358h-0.357v-0.717l-0.359-0.358h-0.357v-0.72h-0.359
			v-0.716l-0.359-0.36h-0.359v-0.716h-0.355v-0.719l-0.357-0.359h-0.362v-0.717h-0.359v-0.718h-0.359v-0.717H803.8v-0.717h-0.359
			v-0.717h-0.36v-0.718h-0.357v-0.717h-0.356v-0.718h-0.36v-1.076h-0.357v-0.718h-0.359v-0.717h-0.359v-1.077h-0.358v-1.077h-0.361
			v-1.075h-0.357v-1.076h-0.356v-1.078h-0.36v-1.793h-0.355v-1.793h-0.361v-2.153h-0.359v-6.455l0.359-2.513l0.717-2.869l0.36-1.076
			l2.152-4.305l0.357-0.358l0.36-0.717l0.714-0.718l0.36-0.718l0.717-0.717l0.359-0.718l3.229-3.227l0.718-0.359l0.714-0.718
			l0.72-0.358l0.72-0.717l0.717-0.359l0.715-0.717l0.719-0.359l0.357-0.358l1.438-0.717l0.355-0.359l1.435-0.718l0.36-0.357
			l0.717-0.358l0.357-1.077h-0.357v-1.077h-0.359v-1.077h-0.357v-0.717h-0.36v-1.076h-0.359v-1.076h-0.357v-0.718h-0.357v-1.076
			h-0.361v-1.076h-0.355v-0.719H813.845z"/>
		<path fill-rule="evenodd" clip-rule="evenodd" fill="#E2B75B" d="M675.738,460.152l-1.077,0.36l-2.87,1.434l-2.153,2.152
			l-0.717,0.359l-1.792,1.794l-0.719,0.357l-0.359,0.718l-2.511,2.511l-0.357,0.718l-1.437,1.436l-0.357,0.717l-0.358,0.358
			l-0.36,0.718l-0.357,0.357l-0.359,0.72l-0.357,0.358l-0.358,0.717l-0.361,0.358l-0.359,0.717l-0.356,0.359l-3.229,6.458
			l0.717,0.358l2.513,2.511l0.715,0.358l0.361,0.36l0.716,0.357l0.717,0.718l0.719,0.358l0.717,0.718l4.305,2.153l0.359,0.357
			l1.074,0.36l1.437,0.718l1.077,0.357l0.717,0.36l2.153,0.718l1.434,0.357l1.791,0.359l5.744,0.358v-0.358l1.433-0.359l1.077-0.357
			l1.434-0.718l2.513-2.511l0.357-0.718l0.357-0.357l0.359-1.078l0.719-1.436l0.358-1.434l0.359-2.152l0.357-5.382h-0.357v-2.151
			h-0.359v-1.793h-0.358v-1.436h-0.359v-1.075h-0.359v-1.437h-0.359v-0.717h-0.357v-0.717h-0.357v-1.077l-0.359-0.36h-0.359v-0.717
			h-0.36v-0.718l-0.356-0.357h-0.36v-0.718l-3.944-3.946l-0.716-0.358l-0.36-0.36l-0.718-0.357l-1.076-0.36H675.738z
			 M780.123,248.866l-0.357,1.076l-0.719,2.153l-0.355,1.794l-1.078,4.306l-0.36,1.075l-0.717,1.435l-0.359,1.076l-2.149,4.306
			l-0.361,0.357l-0.359,0.718l-0.357,0.358l-0.717,1.435l-1.077,1.076l-0.357,0.717l-0.719,0.718l-0.357,0.718l-2.151,2.15
			l-0.359,0.72l-2.87,2.869l-0.717,0.357l-3.231,3.229l-0.717,0.359l-1.434,1.434l-0.72,0.36l-1.074,1.075l-0.719,0.36l-0.715,0.715
			l-0.72,0.36l-0.717,0.718l-0.717,0.358l-0.72,0.718l-0.717,0.36l-0.717,0.717l-0.717,0.359l-0.359,0.358l-0.718,0.359
			l-0.359,0.358l-0.715,0.36l-0.359,0.358l-0.72,0.358l-0.357,0.358l-0.718,0.358l-0.359,0.36l-0.716,0.359l-0.36,0.357
			l-0.718,0.358l-0.359,0.36l-1.434,0.716l-0.36,0.36l-0.717,0.359l-0.357,0.359l-1.434,0.717l-0.359,0.358l-1.435,0.717
			l-0.359,0.36l-2.153,1.077l-0.359,0.356l-1.434,0.718l-0.36,0.358l-2.867,1.436l-0.36,0.357l-2.87,1.434l-0.357,0.36l-7.889,3.946
			l-0.362,0.357l-5.023,2.513l-0.359,0.357l-3.585,1.794l-0.359,0.36l-1.434,0.716l-0.36,0.359l-2.15,1.076l-0.36,0.359
			l-1.434,0.717l-0.359,0.359l-1.435,0.717l-0.359,0.358l-0.717,0.358l-0.359,0.358l-1.435,0.718l-0.359,0.36l-0.716,0.357
			l-0.361,0.359l-0.717,0.359l-0.357,0.358l-0.719,0.357l-0.359,0.36l-0.715,0.359l-0.359,0.358l-0.718,0.357l-0.356,0.36
			l-0.72,0.358l-0.357,0.359l-0.718,0.357l-0.719,0.718l-0.717,0.359l-0.357,0.359l-0.719,0.357l-0.36,0.359l-0.717,0.359
			l-0.717,0.717l-0.72,0.358l-1.074,1.077l-0.717,0.358l-0.717,0.719l-0.716,0.356l-0.721,0.72l-0.717,0.358l-1.076,1.075
			l-0.718,0.36l-1.793,1.793l-0.72,0.358l-1.434,1.435l-0.715,0.358l-3.229,3.23l-0.717,0.358l-9.327,9.325l-0.36,0.718
			l-1.433,1.435l-0.361,0.718l-1.794,1.793l-0.356,0.718l-1.435,1.435l-0.359,0.716l-1.076,1.078l-0.36,0.717l-0.715,0.718
			l-0.359,0.717l-0.719,0.718l-0.357,0.716l-0.718,0.718l-0.359,0.717l-0.719,0.718l-0.354,0.717l-0.361,0.359l-0.72,1.435
			l-0.357,0.36l-0.354,0.716l-0.362,0.36l-0.359,0.718l-0.357,0.357l-0.359,0.718l-0.36,0.358l-0.357,0.717l-0.36,0.359
			l-1.076,2.153l-0.357,0.357l-1.437,2.869l-0.357,0.359l-2.87,5.74l-0.357,1.076l-1.435,2.87l-0.36,1.076l-0.355,0.718
			l-0.721,2.151l-0.357,0.719l-0.715,2.151l-0.362,0.718l-0.359,1.436l-0.357,1.075l-0.359,1.435l-0.357,1.076l-0.359,1.436
			l-0.359,1.076l-0.36,1.435l-1.074,5.379l-0.359,1.435l-0.357,3.588l-0.357,3.228v16.143h0.357v5.021h0.357v2.513h0.359v2.51h0.36
			v2.511h0.359v2.512h0.354v1.435h0.36v1.793h0.359v1.793h0.359v1.435h0.357v1.794h0.359v1.794h0.357v1.435h0.359v1.435h0.362v1.434
			h0.355v1.077h0.359v1.076h0.357v1.077h0.359v1.076h0.361v1.435h0.355v1.077h0.36v1.075h0.359v1.076h0.357v1.435h0.359v0.718h0.359
			v0.717h0.357v1.076h0.357v0.718h0.359v1.077h0.36v0.717h0.359v1.076h0.354v0.718h0.36v1.076h0.359v0.717h0.359v1.077h0.357v0.717
			h0.36v22.24h0.357v5.382h0.36v2.869h0.359v2.871h0.357v2.87h0.359v1.434h0.359v1.794h0.357v1.793h0.36v1.436h0.357v1.792h0.36
			v1.794h0.359v1.794h0.357v1.435h0.359v1.434h0.362v1.435h0.354v1.436h0.357v1.435h0.36v1.076h0.359v1.436h0.361v1.076h0.354v1.075
			h0.359v1.077h0.359v1.077h0.359v1.435h0.359v0.716h0.358v0.718h0.357v1.075h0.359v0.718h0.359v0.717h0.359v1.076h0.357v0.718
			h0.357v1.076h0.36v0.717h0.359v0.717h0.357v0.718h0.359v0.717h0.359v0.718h0.357v0.717h0.359v0.717h0.36v0.717h0.357v0.718h0.356
			v0.716h0.36v0.718h0.359l0.359,0.36v0.716h0.356l0.359,0.359v0.716h0.361v0.72h0.358l0.357,0.358v0.717h0.359v0.718h0.357
			l0.36,0.357v0.718h0.358l0.717,0.718v0.717h0.357l1.077,1.076v0.718h0.359l0.717,0.717v0.718h0.36l5.737,5.739v0.717h0.718
			l1.076,1.077l0.72,0.36l1.076,1.075l0.715,0.358l1.079,1.077l1.434,0.716l0.357,0.359l0.717,0.358l0.359,0.36l0.718,0.357
			l0.359,0.36l0.717,0.358l0.359,0.358l6.455,3.23l2.153,0.716l0.719,0.36l2.151,0.716l0.718,0.359l5.74,1.435l2.511,0.358
			l2.87,0.36l8.608,0.357v-0.357l3.587-0.36l1.793-0.358l4.305-1.075l0.718-0.36l1.076-0.359l0.717-0.357l2.153-0.718l4.304-2.152
			l0.359-0.359l1.435-0.718l0.359-0.357l0.717-0.36l0.359-0.358l0.718-0.358l0.359-0.36l0.717-0.357l0.717-0.718l0.719-0.359
			l4.664-4.663l0.356-0.717l0.72-0.717l0.357-0.718l0.719-0.718l0.357-0.717l0.359-0.359l0.718-1.435l0.357-0.359l0.36-0.716
			l0.359-0.36l2.868-5.739l0.359-1.075l0.361-0.718l0.355-1.076l0.359-0.718l1.794-5.381l0.359-1.434l0.357-1.077l1.077-4.304
			l0.357-1.793l0.359-1.435l0.359-1.794l1.074-6.458l0.72-5.739l0.357-3.588l0.359-4.304l0.359-6.456l0.357-25.112l-0.357-0.357
			l0.718-0.359l2.51-2.51l0.717-0.36l2.868-2.87l0.72-0.358l2.87-2.869l0.717-0.359l2.868-2.871l0.721-0.358l2.868-2.869
			l0.718-0.359l2.87-2.871l0.717-0.357l2.871-2.871l0.716-0.358l2.873-2.869l0.714-0.359l2.868-2.869l0.72-0.359l2.87-2.869
			l0.717-0.36l2.87-2.869l0.717-0.36l2.513-2.51l0.357-3.586h-0.357v-3.228h-0.359v-3.588h-0.359v-3.227h-0.358v-3.587h-0.361
			v-3.229h-0.357v-3.587h-0.356v-3.229h-0.36v-3.587h-0.355v-3.228l-0.361-0.36h-0.359l-8.968,8.968l-0.355,0.718l-8.971,8.968
			l-0.359,0.717l-13.989,13.99l-0.359,0.717l-6.457,6.457l-0.357,0.717l-7.173,7.174l-0.721,12.198l-0.357,4.661l-0.359,3.588
			l-0.356,3.945l-0.362,3.229l-0.359,2.87l-0.715,5.022l-0.359,2.869l-0.359,2.153l-1.074,5.381l-0.36,2.153l-0.359,1.791
			l-1.434,5.741l-0.36,1.077l-0.715,2.87l-0.361,1.075l-0.357,0.718l-1.794,5.38l-0.719,1.436l-0.359,1.075l-2.509,5.022
			l-0.357,0.36l-0.719,1.435l-0.36,0.359l-0.357,0.716l-0.359,0.36l-0.359,0.716l-0.357,0.359l-0.359,0.718l-1.077,1.075
			l-0.357,0.718l-1.435,1.434l-0.36,0.717l-1.434,1.436l-0.357,0.717l-5.74,5.74l-0.717,0.358l-1.435,1.437l-0.719,0.357
			l-0.715,0.718l-0.72,0.358l-0.717,0.717l-0.717,0.36l-0.719,0.716l-0.718,0.359l-0.357,0.358l-6.458,3.229l-1.076,0.359
			l-0.717,0.358l-1.077,0.358l-1.434,0.36l-3.588,0.717l-7.893,0.358v-0.358l-3.587-0.717l-1.434-0.36l-1.077-0.358l-1.436-0.717
			l-1.074-0.358l-1.434-0.717l-1.076-0.359l-0.36-0.359l-0.717-0.358l-0.359-0.36l-1.435-0.717l-0.359-0.358l-0.717-0.359
			l-0.357-0.357l-0.719-0.358l-1.074-1.077l-0.72-0.358l-1.072-1.075l-0.719-0.36l-5.384-5.382h-0.357v-0.716l-0.717-0.719h-0.359
			v-0.716l-1.074-1.075h-0.359v-0.72l-1.077-1.075h-0.359v-0.718h-0.357v-0.717h-0.359v-0.717l-0.36-0.359h-0.357v-0.717h-0.359
			v-0.718l-0.357-0.357h-0.358v-0.719h-0.36v-0.716l-0.357-0.359h-0.359v-0.718h-0.357v-0.717h-0.358v-0.718h-0.361v-0.717h-0.359
			v-0.718h-0.356v-0.717h-0.359v-0.717h-0.359v-0.717h-0.36v-0.718h-0.356v-1.076h-0.357v-0.719h-0.36v-0.716h-0.359v-1.075h-0.357
			v-1.078h-0.359v-1.076h-0.359v-1.077h-0.357v-1.077h-0.359v-1.076h-0.36v-1.794h-0.357v-1.434h-0.357v-1.794h-0.359v-1.434h-0.359
			v-1.793h-0.359v-2.87h-0.357v-2.512h-0.358v-6.099h-0.359v-5.021l0.359-5.381h0.358l0.717,0.718v0.716h0.359l0.717,0.719v0.716
			h0.357l0.36,0.36v0.718h0.359l1.793,1.794v0.717h0.36l4.302,4.304l0.719,0.359l1.435,1.434l0.717,0.359l0.72,0.717l0.717,0.358
			l0.719,0.719l1.434,0.716l0.357,0.358l0.718,0.358l0.359,0.359l2.15,1.078l1.077,0.357l0.717,0.358l3.23,1.075l2.15,0.36
			l6.817,0.359v-0.359l2.867-0.717l1.079-0.359l2.868-1.435l1.076-0.36l0.718-0.358l1.793-1.792l0.717-0.36l1.794-1.793l0.359-0.718
			l0.357-0.357l0.361-0.718l0.358-0.36l1.434-2.869l1.077-3.228l0.356-1.793l0.36-2.153l0.359-3.228l0.359-11.119h-0.359v-2.513
			h-0.359v-2.511h-0.36v-1.794h-0.356v-1.434h-0.357v-1.435h-0.36V474.5h-0.359v-1.435h-0.357v-1.435h-0.359v-1.076h-0.359v-1.075
			h-0.357v-1.077h-0.358v-1.077h-0.361v-0.718h-0.357v-1.075h-0.359v-0.717h-0.357v-1.076h-0.358v-0.717h-0.361v-1.077h-0.357
			v-0.717h-0.36v-0.717h-0.357v-0.718h-0.359v-0.718h-0.359v-0.716h-0.359v-0.719h-0.355v-0.716h-0.359v-0.719h-0.359v-0.716h-0.36
			v-0.718h-0.357v-0.717l-0.356-0.359h-0.36v-0.717l-0.359-0.358h-0.357v-0.718l-0.359-0.357h-0.358v-0.718h-0.359v-0.718
			l-0.359-0.358h-0.359v-0.718l-0.357-0.36h-0.357v-0.716l-1.079-1.076h-0.356v-0.718l-1.437-1.435h-0.36v-0.717l-5.378-5.381
			l-0.717-0.36l-0.72-0.716l-1.434-0.718l-0.359-0.357l-2.151-1.078l-1.077-0.358l-1.432-0.358h-5.023l-1.078,0.358l-1.435,0.358
			l-0.357,0.359l-0.72,0.359l-0.357,0.359l-0.72,0.357l-0.357,0.359l-0.717,0.359l-0.358,0.358l-0.718,0.357l-4.664,4.663
			l-0.357,0.718l-0.719,0.717l-0.357,0.718l-0.72,0.717l-0.357,0.718l-0.717,0.716l-2.872,5.74l-0.354,0.358l-0.721,2.153
			l-0.36,0.716l-0.712,2.154l-0.362,0.716l-0.359,1.077l-1.434,5.74l-0.36,1.076v-0.717h-0.357v-1.078h-0.359v-1.075h-0.359v-1.076
			h-0.357v-1.435h-0.359v-1.075h-0.36v-1.794h-0.357v-1.794h-0.36v-2.153h-0.357v-2.152H641.3v-3.587h-0.359v-11.12l-0.36-0.358
			l0.36-5.739l0.359-4.304l0.717-5.741l0.36-2.151l0.357-1.794l0.36-2.151l0.717-3.587l0.719-2.87l0.357-1.077l1.436-5.74
			l0.357-0.716l0.722-2.153l0.354-0.717l1.077-3.229l0.361-0.718l0.354-1.075l0.359-0.717l0.359-1.077l1.077-2.152l0.357-1.076
			l3.229-6.457l0.359-0.36l1.435-2.869l0.356-0.358l0.36-0.716l0.359-0.36l0.359-0.718l0.356-0.357l0.359-0.718l0.361-0.36
			l0.358-0.715l0.357-0.36l0.717-1.435l1.435-1.434l0.357-0.717l1.077-1.077l0.359-0.717l1.436-1.435l0.359-0.718l2.868-2.87
			l0.357-0.717l8.251-8.251l0.717-0.358l3.587-3.586l0.721-0.36l1.792-1.794l0.718-0.359l2.15-2.151l0.717-0.359l1.079-1.076
			l0.715-0.358l1.078-1.076l0.718-0.359l1.077-1.076l0.714-0.359l1.079-1.076l0.715-0.358l0.719-0.719l0.718-0.357l0.718-0.718
			l0.716-0.358l1.078-1.077l0.716-0.358l0.719-0.717l0.717-0.359l0.718-0.717l0.717-0.359l0.359-0.359l0.715-0.358l0.719-0.717
			l0.718-0.36l0.359-0.358l0.717-0.359l0.717-0.716l0.717-0.36l0.36-0.36l0.717-0.356l0.719-0.719l0.718-0.358l0.359-0.357
			l0.715-0.36l0.359-0.359l0.719-0.358l0.715-0.717l0.722-0.359l0.355-0.359l0.717-0.357l0.359-0.359l0.717-0.359l0.36-0.358
			l0.717-0.36l0.359-0.357l0.717-0.359l0.362-0.358l0.715-0.36l0.359-0.357l0.715-0.358l0.359-0.359l1.435-0.717l0.359-0.358
			l0.717-0.359l0.359-0.359l0.717-0.357l0.36-0.36l0.717-0.36l0.357-0.358l0.719-0.358l0.357-0.358l1.436-0.718l0.36-0.358
			l0.714-0.359l0.359-0.358l0.72-0.359l0.354-0.359l1.437-0.717l0.359-0.359l0.718-0.359l0.359-0.357l1.434-0.718l0.359-0.359
			l0.718-0.357l0.359-0.359l0.717-0.36l0.359-0.358l1.435-0.717l0.359-0.36l0.715-0.358l0.359-0.358l1.434-0.717l0.36-0.359
			l0.717-0.357l0.361-0.36l1.433-0.717l0.36-0.359l0.716-0.357l0.359-0.36l1.435-0.718l0.359-0.357l0.715-0.359l0.359-0.359
			l1.437-0.717l0.357-0.359l0.721-0.359l0.355-0.358l1.437-0.717l0.357-0.359l1.436-0.717l0.359-0.358l0.715-0.358l0.359-0.36
			l1.434-0.717l0.359-0.358l0.718-0.358l0.359-0.36l1.434-0.717l0.36-0.358l0.717-0.36l0.359-0.357l0.717-0.359l0.359-0.359
			l0.718-0.36l0.359-0.358l0.715-0.358l0.359-0.36l0.722-0.358l0.352-0.357l0.72-0.359l4.664-4.664l0.359-0.718l1.074-1.075
			l0.357-0.717l0.721-0.718l0.357-0.716l0.36-0.359l1.076-2.153l0.355-0.357l1.796-3.588l0.359-1.077l0.359-0.718l2.509-7.533
			l0.359-2.51l0.357-2.153l0.358-2.511l0.359-8.251h-0.359v-1.792h-0.358v-1.078h-0.357v-0.716l-0.359-0.36H780.123z"/>
		<path fill-rule="evenodd" clip-rule="evenodd" fill="#E2B75B" d="M851.867,602.562c1.437,3.229,3.947,6.098,7.538,8.611
			l10.757,8.607l1.435-8.251l1.076-9.685c-1.793,4.664-5.021,6.099-9.685,3.587c-4.664-2.51-9.328-7.531-13.272-15.784
			C849.356,594.312,850.076,598.617,851.867,602.562 M888.815,510.732l-3.946-1.794l13.631-24.034l19.373,11.838l-1.794,3.228
			l-10.404,17.578L888.815,510.732z M815.638,462.662l-3.946-2.869l13.632-15.784l20.806,7.174l-3.229,3.946l-13.989,17.577
			L815.638,462.662z M767.928,564.54l-3.587-3.947l18.293-17.935l14.349,15.784l-1.434,1.794l-15.426,17.577L767.928,564.54z
			 M764.698,602.562l-3.944-3.227l16.859-16.859l14.708,13.273l-1.792,2.154l-12.916,15.782L764.698,602.562z M688.293,398.811
			c3.228,3.229,6.455,2.511,10.042-2.152l3.587-4.664c1.079-1.076,2.153-1.076,2.871,0.359c0.359,1.075,0,3.228-1.792,6.099
			l-0.359,0.358c-1.794,3.229-3.945,5.739-6.817,7.533c-2.87,2.152-5.379,2.871-7.891,2.51c-1.435-0.358-2.514-1.434-3.588-2.869
			c-0.717-1.075-1.434-2.869-1.793-5.379c-2.511-13.632,6.1-26.904,25.827-39.819c0.719,0.358-0.357,1.794-2.87,5.022
			l-11.836,14.348l-3.229,3.588c-4.306,6.814-5.38,11.479-2.872,14.347L688.293,398.811z M724.882,272.542
			c-1.077-2.151-1.794-4.664-1.794-7.174c0-4.304,1.435-7.891,4.664-10.762c2.868-3.229,6.455-4.664,10.762-4.664
			c4.661,0,8.248,1.435,11.479,4.664c2.511,2.513,3.946,5.382,4.304,8.611l0.36,2.151c0,3.946-1.436,7.535-4.664,10.403
			c-3.23,3.229-6.817,4.664-11.479,4.664c-4.307,0-7.893-1.435-10.762-4.664C726.676,274.695,725.599,273.618,724.882,272.542z
			 M808.821,396.299l37.308-40.176l-0.359-3.228l-1.077-6.457l-37.663,42.329v9.325L808.821,396.299z M748.196,244.204
			c-1.435-2.152-2.148-4.663-2.148-7.174c0-4.663,1.793-8.251,5.023-11.121c3.226-3.228,6.812-4.662,11.477-4.662
			c4.664,0,8.251,1.434,11.48,4.662c2.509,2.512,4.305,5.382,4.664,8.968l0.355,2.153c0,4.304-1.794,7.892-5.02,10.762
			c-3.229,3.229-6.816,4.664-11.48,4.664c-4.664,0-8.251-1.435-11.477-4.664C749.992,246.715,748.915,245.638,748.196,244.204z"/>
	</g>
	<path fill-rule="evenodd" clip-rule="evenodd" fill="#1E5398" d="M564.572,773.753h18.217l-24.511-71.445h-2.095H540.06h-2.092
		l-24.513,71.445h18.216l4.409-12.854h24.083L564.572,773.753z M541.62,744.756l6.502-18.95l6.501,18.95H541.62z"/>
	<path fill-rule="evenodd" clip-rule="evenodd" fill="#1E5398" d="M731.577,773.753h18.216l-24.512-71.445h-2.093h-16.124h-2.092
		l-24.513,71.445h18.216l4.409-12.854h24.081L731.577,773.753z M708.625,744.756l6.502-18.95l6.502,18.95H708.625z"/>
	<path fill-rule="evenodd" clip-rule="evenodd" fill="#1E5398" d="M1068.329,773.753h18.216l-24.513-71.445h-2.092h-16.124h-2.093
		l-24.512,71.445h18.216l4.409-12.854h24.083L1068.329,773.753z M1045.377,744.756l6.501-18.95l6.502,18.95H1045.377z"/>
	<rect x="601.306" y="757.611" fill-rule="evenodd" clip-rule="evenodd" fill="#1E5398" width="34.677" height="16.142"/>
	<rect x="594.447" y="702.308" fill-rule="evenodd" clip-rule="evenodd" fill="#1E5398" width="17.936" height="71.445"/>
	<path fill-rule="evenodd" clip-rule="evenodd" fill="#1E5398" d="M670.175,773.753v-71.445h-17.936v71.445
		c0,3.09-2.989,12.355-14.447,8.071l-4.087,14.947C633.705,796.771,670.175,812.713,670.175,773.753z"/>
	<polygon fill-rule="evenodd" clip-rule="evenodd" fill="#1E5398" points="763.144,702.308 763.144,718.052 789.32,718.052 
		763.144,755.32 763.144,758.008 763.144,765.681 763.144,773.753 812.768,773.753 812.768,758.008 787.426,758.008 
		812.768,720.643 812.768,718.052 812.768,712.472 812.768,702.308 	"/>
	<polygon fill-rule="evenodd" clip-rule="evenodd" fill="#1E5398" points="846.846,758.008 846.846,745.903 871.358,745.903 
		871.358,730.159 846.846,730.159 846.846,718.052 875.144,718.052 875.144,702.308 846.846,702.308 828.709,702.308 
		828.709,718.052 828.709,730.159 828.709,745.903 828.709,773.753 831.101,773.753 846.846,773.753 877.535,773.753 
		877.535,758.008 	"/>
	<polygon fill-rule="evenodd" clip-rule="evenodd" fill="#1E5398" points="910.42,758.008 910.42,745.903 934.933,745.903 
		934.933,730.159 910.42,730.159 910.42,718.052 938.719,718.052 938.719,702.308 910.42,702.308 892.283,702.308 892.283,718.052 
		892.283,730.159 892.283,745.903 892.283,773.753 894.675,773.753 910.42,773.753 941.112,773.753 941.112,758.008 	"/>
	<g>
		<path fill="#1E5398" d="M1001.593,747.895c-2.84-6.726-5.381-8.819-5.381-8.819s10.462-4.035,10.462-15.843
			c0-18.982-15.992-20.925-20.178-20.925c-3.347,0-10.117,0-12.704,0c-0.649,0-1.047,0-1.047,0h-16.89v71.445h17.936v-26.605
			c1.229,0,3.369,0,5.53,0c3.29,0,5.083,3.886,6.128,6.726c1.046,2.84,7.473,19.879,7.473,19.879h18.684
			C1011.606,773.753,1004.433,754.621,1001.593,747.895z M979.472,731.454c-4.783,0-5.68,0-5.68,0v-13.602c0,0,3.886,0,5.829,0
			c1.942,0,8.818,1.644,8.818,6.726C988.439,729.66,984.254,731.454,979.472,731.454z"/>
	</g>
</g>
</svg>
