<?xml version="1.0" encoding="utf-8"?>
<!-- Generator: Adobe Illustrator 23.0.1, SVG Export Plug-In . SVG Version: 6.00 Build 0)  -->
<svg version="1.1" id="Layer_1" xmlns="http://www.w3.org/2000/svg" xmlns:xlink="http://www.w3.org/1999/xlink" x="0px" y="0px"
	 viewBox="0 0 1600 900" enable-background="new 0 0 1600 900" xml:space="preserve">
<g id="layer1" transform="translate(127.84375,-2295.9397)">
	<path id="path17862-8" fill="#FFFFFF" d="M126.69,2967.129c-26.6,0-43.13,21.472-43.13,45.111c0,27.231,19.71,46.484,43.587,46.484
		c17.596,0,28.499-12.802,28.499-12.802v9.754h27.941v-85.345h-27.941v10.566c0,0-9.498-13.767-28.957-13.767V2967.129z
		 M134.919,2990.701c12.637,0,21.54,12.535,21.54,21.997c0,12.959-10.099,21.794-21.54,21.794c-10.888,0-22.149-7.363-22.149-21.641
		c0-11.305,9.323-22.149,22.149-22.149V2990.701z"/>
	<path id="path17866-0" fill="#FFFFFF" d="M203.602,3055.656v-85.347h28.123v11.194c0,0,9.348-14.447,30.005-14.447
		c23.343,0,31.281,14.797,31.281,33.329v55.271h-28.123v-45.518c0-14.388-5.554-20.311-14.808-20.311
		c-10.596,0-18.355,9.16-18.355,23.562v42.267H203.602z"/>
	<path id="path17869-1" fill="#FFFFFF" d="M311.382,3055.656v-85.347h28.449v85.347H311.382z"/>
	<circle id="path17871-9" fill="#FFFFFF" cx="325.836" cy="2938.654" r="16.539"/>
	<path id="path17873-9" fill="#FFFFFF" d="M449.073,3015.014v40.641h-28.123v-45.518c0-14.388-5.554-20.311-14.808-20.311
		c-10.596,0-18.355,9.16-18.355,23.562v42.267h-28.123v-85.347h28.123v11.194c0,0,9.348-14.447,30.005-14.447
		c14.318,0,22.841,5.567,27.29,14.149c0,0,9.186-14.237,32.797-14.237c22.146,0,32.968,13.473,32.968,31.791v56.897h-28.123v-45.518
		c0-11.1-4.37-20.576-14.818-20.576c-10.678,0-18.833,9.628-18.833,25.453V3015.014z"/>
	<path id="path17877-9" fill="#FFFFFF" d="M565.039,2967.129c-26.6,0-43.13,21.472-43.13,45.111
		c0,27.231,19.71,46.484,43.587,46.484c17.595,0,28.499-12.802,28.499-12.802v9.754h27.941v-85.345h-27.941v10.566
		c0,0-9.498-13.767-28.957-13.767V2967.129z M573.269,2990.701c12.637,0,21.54,12.535,21.54,21.997
		c0,12.959-10.099,21.794-21.54,21.794c-10.888,0-22.149-7.363-22.149-21.641c0-11.305,9.323-22.149,22.149-22.149V2990.701z"/>
	<path id="path17879-8" fill="#FFFFFF" d="M641.9,3055.656v-119.486h28.449v119.486H641.9z"/>
	<path id="path17881-5" fill="#FFFFFF" d="M921.582,2967.129c-26.6,0-43.13,21.472-43.13,45.111
		c0,27.231,19.71,46.484,43.587,46.484c17.596,0,28.499-12.802,28.499-12.802v9.754h27.941v-85.345h-27.941v10.566
		c0,0-9.498-13.767-28.957-13.767V2967.129z M929.811,2990.701c12.637,0,21.54,12.535,21.54,21.997
		c0,12.959-10.099,21.794-21.54,21.794c-10.888,0-22.149-7.363-22.149-21.641c0-11.305,9.323-22.149,22.149-22.149V2990.701z"/>
	<path id="path17883-9" fill="#FFFFFF" d="M838.051,3055.656v-119.486H866.5v119.486H838.051z"/>
	<path id="path17885-4" fill="#FFFFFF" d="M783.648,2967.129c26.6,0,43.13,21.472,43.13,45.111c0,27.231-19.71,46.484-43.587,46.484
		c-17.596,0-28.499-12.802-28.499-12.802v43.871h-27.941V2970.33h27.941v10.566C754.692,2980.896,764.19,2967.129,783.648,2967.129z
		 M775.419,2990.701c-12.637,0-21.54,12.535-21.54,21.997c0,12.959,10.099,21.794,21.54,21.794c10.888,0,22.149-7.363,22.149-21.641
		c0-11.305-9.323-22.149-22.149-22.149V2990.701z"/>
	<path id="path17887-5" fill="#FFFFFF" d="M998.537,3055.656v-85.347h28.123v11.194c0,0,9.348-14.447,30.005-14.447
		c23.343,0,31.281,14.797,31.281,33.329v55.271h-28.124v-45.518c0-14.388-5.554-20.311-14.808-20.311
		c-10.597,0-18.355,9.16-18.355,23.562v42.267H998.537z"/>
	<path id="path17889-4" fill="#FFFFFF" d="M1144.996,2967.129c-26.613,0-45.772,17.208-45.772,45.773
		c0,27.937,19.359,45.721,50.953,45.721c15.589,0,30.989-6.96,30.989-6.96l-6.249-20.218c0,0-10.506,5.385-22.454,5.385
		c-15.01,0-22-8.441-23.876-16.103h61.774c0.873-29.161-11.186-53.596-45.365-53.596V2967.129z M1146.215,2987.653
		c9.864,0,16.98,6.914,18.255,16.003h-36.34C1129.146,2993.89,1138.141,2987.653,1146.215,2987.653z"/>
	<path id="path17893-0" fill="#FFFFFF" d="M1237.505,2949.989v20.32h19.508v21.946h-19.508v34.138
		c0,6.978,2.843,10.386,11.146,10.386c3.722,0,8.525-1.25,8.525-1.25l2.42,20.314c0,0-6.253,2.538-17.74,2.538
		c-21.431,0-32.799-10.563-32.799-30.364v-35.764h-12.68v-21.946h12.68v-20.32L1237.505,2949.989z"/>
	<path id="path17895-7" fill="#0074FF" d="M741.986,2398.948v135.432c0,0,21.032,17.213,31.037,31.036
		c-51.523-33.615-106.262-47.734-172.822-47.734c-109.568,0-209.33,50.765-258.582,134.789l6.357,11.948
		c0,0,21.431-25.766,70.948-51.038c-54.086,53.354-76.739,95.917-109.994,194.054l52.751,52.535
		c69.021-77.226,170.569-128.25,285.204-128.25c108.472,0,208.353,48.547,270.798,113.085l56.824-56.996
		c-31.855-54.517-73.22-104.797-106.099-139.705c34.018,19.426,88.33,30.538,140.208,30.538c90.76,0,157.45-48.868,157.45-115.404
		c0-81.964-70.274-131.846-184.896-150.812l-18.536,31.097c57.684,10.287,147.423,43.861,147.423,103.837
		c0,32.9-25.451,60.496-62.121,60.496c-45.32,0-82.958-50.54-105.828-95.169l-35.003-0.843
		c-40.173-49.713-105.12-98.224-165.12-112.898V2398.948z"/>
</g>
</svg>
