<?xml version="1.0" encoding="utf-8"?>
<!-- Generator: Adobe Illustrator 22.1.0, SVG Export Plug-In . SVG Version: 6.00 Build 0)  -->
<svg version="1.2" baseProfile="tiny" xmlns="http://www.w3.org/2000/svg" xmlns:xlink="http://www.w3.org/1999/xlink" x="0px"
	 y="0px" viewBox="0 0 1600 900" xml:space="preserve">
<g id="Layer_1">
	<path id="path2452" fill="#505050" d="M1319.6,267.3c68.5,0,124,55.5,124,124c0,68.5-55.5,124-124,124c-68.5,0-124-55.5-124-124
		C1195.6,322.9,1251.1,267.3,1319.6,267.3 M1369.3,441.5V317.4l-124.8,44.8v30.8l41.3-14.9v93.3L1369.3,441.5z M1319.6,285.5
		c-58.4,0-105.8,47.4-105.8,105.8c0,58.4,47.4,105.8,105.8,105.8c58.4,0,105.8-47.4,105.8-105.8
		C1425.3,332.9,1378,285.5,1319.6,285.5 M332.7,509.8h-68.1L297.3,398L332.7,509.8z M784.4,626.7l-3.7-34.5
		c-42.8,8.3-29.9-105.4-79.6-111.3c35.9-11.5,61.6-38.6,61.6-80.1c0-57.1-42.8-83.3-114.6-83.3c-44.2,0-101.2,2.3-112.7,2.3h-35v29
		c11.5,6.9,25.3,16.1,38.2,19.8v213c-14.3,3.7-26.7,12-38.2,19.3v29.4h142.2v-29.4c-7.8-6.9-16.1-14.3-26.7-19.3v-76.8h13.8
		c47.9,0,31.3,130.7,101.7,130.7C748.5,635.4,768.7,633.1,784.4,626.7 M682.7,411.3c0,30.4-15.2,49.2-46,49.2H616V364
		c4.1-0.9,11.5-1.8,18.4-1.8C669.4,362.1,682.7,385.1,682.7,411.3 M1143.1,468.4c0-108.6-55.2-150.5-155-150.5
		c-41.9,0-93.9,1.8-118.7,1.8h-37.3v29c11.5,6.9,25.3,16.1,38.2,20.2v212.1c-14.3,3.7-26.7,12.4-38.2,19.8v29.4h38.7
		c13.8,0,62.6,1.8,96.2,1.8C1067.2,632.2,1143.1,574.7,1143.1,468.4 M1061.7,475.3c0,75-32.7,108.1-74.5,108.1
		c-18.4,0-29.9-1.4-39.6-4.6V363.5c8.3-0.9,17.5-1.4,27.6-1.4C1044.2,362.1,1061.7,414.6,1061.7,475.3 M461.5,630.3v-29.4
		c-5.5-6.9-13.3-13.3-22.1-18.9l-90.6-263.2h-75.9L182.3,582c-10.1,4.6-19.3,11.5-26.7,18.9v29.4h114.6v-29.4
		c-7.8-7.4-16.6-13.8-26.7-18.9l8.7-29h93.4l9.7,29c-10.1,4.6-19.8,11.5-28.1,18.9v29.4L461.5,630.3L461.5,630.3z"/>
</g>
<g id="Laag_2" display="none">
</g>
</svg>
