<?xml version="1.0" encoding="utf-8"?>
<!-- Generator: Adobe Illustrator 22.1.0, SVG Export Plug-In . SVG Version: 6.00 Build 0)  -->
<svg version="1.2" baseProfile="tiny" xmlns="http://www.w3.org/2000/svg" xmlns:xlink="http://www.w3.org/1999/xlink" x="0px"
	 y="0px" viewBox="0 0 1600 900" xml:space="preserve">
<g id="Layer_1">
	<g>
		<path fill-rule="evenodd" fill="#E47D17" d="M1001.7,350.3h79.8v81.1h-79.8v182.5h-85.2c0,0-33.8-1.4-46-36.5
			c-5.4-16.2-4.1-63.5-4.1-63.5v-81.1h-54.1v-82.5h54.1v-62.2h135.2V350.3L1001.7,350.3z"/>
		<path fill-rule="evenodd" fill="#E47D17" d="M485.3,446.3v167.7H351.4v-74.4l-62.2,20.3c0,0-20.3,6.8-20.3,27
			c0,16.2,17.6,27,17.6,27H154c0,0-28.4-12.2-28.4-39.2c0-14.9,1.3-32.5,20.3-52.7c31.1-29.8,94.6-36.5,94.6-36.5s39.2-5.4,54.1-8.1
			c37.9-6.8,58.1-6.8,56.8-27c0-17.6-23-23-40.6-23c-47.3,0-41.9,32.5-41.9,32.5H140.5c0,0-2.7-47.3,50-85.2
			c33.8-23,113.6-41.9,204.2-24.3C497.4,371.9,483.9,430,485.3,446.3L485.3,446.3z"/>
		<path fill-rule="evenodd" fill="#E47D17" d="M1342.5,477.4c0,0,4.1-50-54.1-50c-59.5,0-52.7,50-52.7,50H1342.5L1342.5,477.4z
			 M1456,430c27,51.4,16.2,116.3,16.2,116.3h-233.9v67.6H1141c0,0-40.6-43.3-40.6-106.8c0-82.5,48.7-159.5,181.2-163.6
			C1357.3,340.8,1422.2,369.2,1456,430L1456,430z"/>
		<path fill-rule="evenodd" fill="#E47D17" d="M782.7,348.9l1.3,83.8l-39.2-1.4c0,0-24.3,0-40.6,13.5
			c-14.9,14.9-14.9,36.5-14.9,36.5v132.5H552.9V350.3h124.4v31.1c0,0,24.3-37.9,70.3-37.9c24.3,0,35.1,6.8,35.1,6.8V348.9
			L782.7,348.9z"/>
	</g>
</g>
<g id="Laag_2" display="none">
</g>
</svg>
