<?xml version="1.0" encoding="utf-8"?>
<!-- Generator: Adobe Illustrator 22.1.0, SVG Export Plug-In . SVG Version: 6.00 Build 0)  -->
<svg version="1.1" xmlns="http://www.w3.org/2000/svg" xmlns:xlink="http://www.w3.org/1999/xlink" x="0px" y="0px"
	 viewBox="0 0 1599.999 900" enable-background="new 0 0 1599.999 900" xml:space="preserve">
<g id="Layer_1">
</g>
<g id="Laag_2">
	<g>
		<g>
			<path fill="#F1F2F3" d="M563.669,798.951c-26.87,0-53.74,0.007-80.61-0.005c-6.225-0.003-6.448-0.353-4.202-6.147
				c79.87-206.066,159.76-412.125,239.506-618.239c2.032-5.251,4.793-7.09,10.339-7.069c47.151,0.18,94.304,0.171,141.455,0.008
				c5.31-0.018,7.987,1.678,9.961,6.781c67.505,174.533,135.166,349.004,202.802,523.486c12.117,31.258,24.228,62.518,36.326,93.783
				c2.455,6.344,1.762,7.397-4.829,7.398c-52.873,0.008-105.745-0.058-158.617,0.099c-5.428,0.016-8.046-2.11-9.894-7.021
				c-10.1-26.845-20.568-53.553-30.635-80.41c-1.964-5.241-4.943-7.055-10.429-7.044c-69.687,0.135-139.375,0.085-209.063,0.094
				c-8.739,0.001-8.703,0.047-11.833,8.387c-9.895,26.37-19.915,52.694-29.649,79.123c-1.853,5.032-4.705,6.902-10.018,6.864
				C617.409,798.849,590.538,798.951,563.669,798.951z M797.166,565.613c24.777,0,49.555,0.003,74.332-0.002
				c6.228-0.001,6.243-0.022,4.18-6.058c-20.834-60.963-41.659-121.929-62.524-182.882c-3.636-10.622-7.443-21.186-11.175-31.775
				c-0.5-1.418-0.548-3.561-2.278-3.683c-2.229-0.157-2.028,2.383-2.841,3.772c-0.342,0.584-0.457,1.299-0.69,1.949
				c-25.524,71.207-51.014,142.427-76.66,213.59c-1.64,4.549-0.399,5.187,3.844,5.161
				C747.958,565.538,772.562,565.613,797.166,565.613z"/>
			<path fill="#D00E27" d="M977.85,234.724c-7.337-19.141-14.441-37.679-21.547-56.216c-0.495-1.29-1.187-2.537-1.469-3.872
				c-1.694-7.996-5.346-13.091-14.712-11.044c-3.565,0.779-2.979-1.389-1.865-3.584c14.059-27.685,36.284-44.957,66.945-49.57
				c48.671-7.322,91.515,22.917,101.818,70.72c11.619,53.908-31.144,106.898-86.284,106.919
				c-40.849,0.015-75.351-24.697-87.117-62.155c-1.3-4.14-0.938-5.605,3.746-5.3c5.351,0.348,10.744,0.183,16.113,0.036
				c2.56-0.07,3.949,0.576,4.994,3.224c4.453,11.285,4.573,11.24,16.568,11.03C975.728,234.9,976.416,234.822,977.85,234.724z
				 M1052.818,164.066c-5.894,0-11.795,0.181-17.678-0.07c-3.358-0.143-4.516,0.8-4.428,4.307
				c0.235,9.355,0.277,18.725-0.015,28.077c-0.121,3.88,1.354,4.505,4.77,4.456c6.373-0.092,12.826-1.079,19.114,0.878
				c6.214,1.935,8.994,5.885,8.431,11.942c-0.463,4.986-4.293,8.297-10.509,8.869c-4.688,0.432-9.337,0.15-13.875-1.301
				c-7.326-2.343-7.332-2.322-10.483,4.595c-0.215,0.472-0.374,0.985-0.667,1.403c-1.719,2.453-0.506,3.608,1.787,4.614
				c8.274,3.63,16.936,5.106,25.866,4.182c11.687-1.209,20.846-10.445,21.893-21.556c1.031-10.944-6.133-20.87-17.648-24.472
				c-3.495-1.093-7.073-1.754-10.727-1.672c-5.726,0.128-2.923-4.165-3.47-6.633c-0.609-2.747,0.402-4.04,3.543-3.886
				c5.188,0.255,10.397,0.069,15.598,0.069c10.632,0,10.542,0.005,10.004-10.546c-0.125-2.458-0.823-3.347-3.304-3.295
				C1064.954,164.154,1058.885,164.069,1052.818,164.066z M987.403,206.437c0,5.882,0,11.764,0,17.646
				c0,11.259,0,11.07,11.037,11.096c3.727,0.009,4.132-1.483,4.104-4.563c-0.127-13.666-0.055-27.334-0.055-41.001
				c0-11.748,0-11.748,11.743-11.748c9.372,0,9.209-0.002,9.302-9.579c0.033-3.402-0.926-4.344-4.316-4.301
				c-14.357,0.184-28.717,0.078-43.076,0.077c-10.562,0-10.46-0.005-9.91,10.667c0.132,2.552,0.973,3.249,3.363,3.175
				c4.494-0.139,9.006,0.153,13.489-0.102c3.299-0.188,4.513,0.723,4.401,4.242C987.225,190.17,987.403,198.306,987.403,206.437z"/>
		</g>
		<path fill="#D00E27" d="M933.94,206.707c2.947-7.828,5.785-15.367,8.95-23.772c3.157,8.347,6.008,15.883,8.992,23.772
			C945.684,206.707,940.047,206.707,933.94,206.707z"/>
	</g>
</g>
</svg>
