<?xml version="1.0" encoding="utf-8"?>
<!-- Generator: Adobe Illustrator 22.1.0, SVG Export Plug-In . SVG Version: 6.00 Build 0)  -->
<svg version="1.2" baseProfile="tiny" xmlns="http://www.w3.org/2000/svg" xmlns:xlink="http://www.w3.org/1999/xlink" x="0px"
	 y="0px" viewBox="0 0 1600 900" xml:space="preserve">
<g id="Layer_1">
	<g id="Layer_x0020_1">
		<path fill="#005E70" d="M394,753.6v-600H1218v600H394z"/>
		<path fill="#FFFFFF" d="M944.8,289.7c-0.5-0.1-0.9-0.2-1.5-0.2l-0.6-0.1c-0.8-0.1-1.7-0.2-2.5-0.3c-0.6-0.1-1.2-0.1-1.7-0.2
			c-1-0.1-2-0.1-3-0.1c-0.5,0-0.7,0-1.2,0c-0.8,0-1.6,0.1-2.4,0.1c-0.5,0-0.9,0-1.3,0.1c-0.6,0-1.3,0.1-1.9,0.2l-0.5,0l-0.6,0.1
			l-0.7,0.1c-0.3,0.1-0.6,0.1-0.9,0.2c-0.5,0.1-0.9,0.2-1.3,0.3c-2.5,0.6-4.9,1.2-7.1,2.1c-1.1,0.4-2.2,0.9-3.3,1.4
			c-0.8,0.4-1.7,0.9-2.5,1.3c-0.8,0.5-1.5,0.9-2.3,1.4c-0.4,0.3-0.8,0.6-1.2,0.8c-0.3,0.2-0.7,0.5-1,0.7c-0.7,0.5-1.3,1.1-1.9,1.6
			c-0.6,0.5-1.2,1-1.7,1.6c-0.5,0.5-0.9,0.9-1.3,1.4c-0.5,0.5-0.9,0.9-1.3,1.5c-0.5,0.6-0.9,1.1-1.3,1.7c-0.3,0.4-0.6,0.9-0.9,1.3
			c-0.2,0.3-0.4,0.6-0.6,0.9c-1.1,1.9-2.1,3.8-2.9,5.9c-1,2.6-1.8,5.5-2.2,8.5c-0.1,0.9-0.2,1.9-0.3,2.9c-0.1,0.8-0.1,1.5-0.1,2.3
			c0,0.6,0,1.2,0,1.7c0.1,0.6,0.1,1.2,0.2,1.8l0,0.4c0.1,0.7,0.2,1.4,0.3,2c0.1,0.2,0.1,0.5,0.2,0.8c0.1,0.6,0.3,1.1,0.4,1.7
			c0.2,0.7,0.4,1.4,0.6,2.1c0.3,0.8,0.6,1.6,0.9,2.4c0.5,1.2,1.1,2.5,1.7,3.6c0.4,0.6,0.7,1.3,1.1,1.9c0.3,0.5,0.6,1,0.9,1.4
			c0.5,0.6,0.9,1.2,1.3,1.7c0.5,0.6,0.9,1.2,1.4,1.7c0.6,0.7,1.1,1.3,1.7,1.8l0.3,0.3c0.5,0.4,1,0.9,1.6,1.4c0.4,0.3,0.8,0.7,1.2,1
			c0.4,0.3,0.8,0.7,1.3,1c0.6,0.4,1.1,0.8,1.8,1.2c0.6,0.4,1.3,0.8,2,1.2c1.4,0.8,3,1.6,4.7,2.3c0.6,0.3,1.3,0.5,2,0.7
			c0.7,0.2,1.4,0.5,2.1,0.6c1.2,0.4,2.6,0.7,3.9,0.9c1.1,0.2,2.3,0.4,3.5,0.6c1.2,0.1,2.4,0.2,3.7,0.3c0.7,0,1.2,0.1,1.9,0.1
			c0.3,0,0.6,0,0.9,0c2.3,0,4.4-0.1,6.3-0.2l0.4,0c0.8-0.1,1.6-0.2,2.3-0.2c1.1-0.1,2.2-0.3,3.2-0.5c0.7-0.1,1.3-0.2,1.9-0.4
			c0.9-0.2,1.8-0.4,2.6-0.6c0.6-0.2,1.3-0.4,1.8-0.5c0.7-0.2,1.4-0.5,2-0.7l0.6-0.2c0.3-0.1,0.7-0.2,1.2-0.5
			c0.6-0.2,1.4-0.6,2.3-0.9c0.6-0.2,1.1-0.5,1.7-0.7c0.5-0.2,1.1-0.5,1.7-0.8c0.2-0.1,0.5-0.2,0.7-0.3l0-13.9
			c-0.2,0.1-0.4,0.2-0.5,0.3l-0.9,0.6c-1,0.6-1.9,1.1-2.8,1.6c-1,0.5-2,1-3,1.5c-1.7,0.8-3.3,1.5-5,2.1c-3,1.1-5.8,1.8-8.3,2.2
			c-0.3,0.1-0.6,0.1-0.9,0.2c-0.7,0.1-1.3,0.2-1.9,0.2c-1,0.1-1.9,0.2-2.7,0.2c-0.6,0-1.1,0-1.5,0c-1,0-2,0-3-0.1
			c-1.2-0.1-2.5-0.2-3.7-0.4c-2-0.3-4.1-0.8-6.1-1.6c-0.3-0.1-0.6-0.2-0.9-0.3c-0.2-0.1-0.4-0.2-0.6-0.2c-0.3-0.2-0.6-0.3-0.9-0.4
			c-0.7-0.3-1.4-0.7-2-1c-0.3-0.2-0.6-0.4-1-0.6c-0.3-0.2-0.7-0.4-1-0.6c-0.4-0.3-0.8-0.6-1.2-0.9c-0.4-0.3-0.7-0.6-1.1-0.9L914,345
			l-0.2-0.2l-0.2-0.1l-0.2-0.2c-0.6-0.6-1.2-1.3-1.8-1.9c-0.3-0.4-0.6-0.7-0.8-1.1c-0.3-0.3-0.5-0.7-0.7-1c-0.2-0.3-0.5-0.6-0.6-1
			c-0.3-0.5-0.6-1-0.8-1.5c-0.2-0.4-0.4-0.8-0.6-1.2c-0.3-0.7-0.6-1.4-0.8-2.1c-0.2-0.5-0.3-1-0.4-1.6c-0.4-1.4-0.6-2.8-0.6-3.9
			c-0.1-0.4-0.1-0.8-0.1-1.2c0-0.6,0-1,0-1.4c0-0.2,0-0.6,0-0.9c0-0.8,0.1-1.8,0.3-3c0.1-0.7,0.2-1.4,0.4-2.2c0.2-0.5,0.3-1,0.5-1.6
			c0.2-0.5,0.3-1,0.5-1.5c0.1-0.3,0.3-0.7,0.5-1c0.2-0.5,0.4-0.9,0.7-1.4c0.2-0.4,0.4-0.7,0.6-1.1c0.5-0.8,0.9-1.6,1.6-2.4
			c0.2-0.3,0.4-0.6,0.6-0.9c0.3-0.3,0.6-0.7,0.9-1c0.1-0.2,0.3-0.4,0.5-0.6c2.6-2.5,5.4-4.5,8.4-5.8c0.5-0.2,0.9-0.4,1.4-0.6
			c0.5-0.2,0.9-0.4,1.4-0.5c0.6-0.2,1.1-0.3,1.6-0.5c0.5-0.1,1-0.2,1.5-0.4c0.5-0.1,0.9-0.2,1.5-0.3c0.6-0.1,1.1-0.2,1.6-0.2
			c0.6-0.1,1.1-0.2,1.6-0.2c1-0.1,2-0.2,3-0.2c0.3,0,0.6,0,0.9,0c0.7,0,1.4,0.1,2.1,0.1c0.5,0,0.9,0.1,1.4,0.1
			c0.9,0.1,1.7,0.2,2.5,0.3c0.7,0.1,1.4,0.2,2.1,0.4c0.9,0.2,1.9,0.4,2.7,0.6c0.6,0.1,1,0.3,1.5,0.4c0.7,0.2,1.2,0.4,1.7,0.6
			c0.8,0.2,1.2,0.4,1.2,0.4c0.7,0.2,1.4,0.5,2,0.8c0.9,0.3,1.7,0.7,2.5,1.1c0.7,0.3,1.3,0.6,1.9,0.9c0.5,0.2,0.9,0.5,1.4,0.7
			c0.8,0.4,1.4,0.7,1.9,1l1.4,0.8l0-13.7c0,0-0.8-0.3-2.3-0.9c-0.6-0.2-1.4-0.6-2.3-0.9c-0.5-0.2-1-0.3-1.6-0.5
			c-0.5-0.1-0.9-0.3-1.4-0.5c-0.5-0.2-1-0.3-1.6-0.5c-0.4-0.1-0.8-0.2-1.2-0.4l-0.4-0.1c-0.4-0.1-0.8-0.2-1.2-0.3
			c-0.5-0.1-1-0.2-1.5-0.4c-0.4-0.1-0.7-0.1-1-0.2c-0.6-0.1-1.1-0.2-1.7-0.4C945.9,289.9,945.3,289.8,944.8,289.7 M876.4,275.5
			h108.5v102.1l-108.5,0V275.5z"/>
		<path fill="#FFFFFF" d="M793,331.8v20.1h13c0,0,0.3,0,0.7,0c0.4,0,1,0,1.8-0.1c1.4-0.1,3.3-0.4,5.1-1c1.6-0.6,3.2-1.4,4.4-2.6
			c0.5-0.5,0.9-0.9,1.2-1.4c1-1.6,1.3-3.2,1.3-4.2c0-0.4,0-0.6,0-0.6s0-0.2,0-0.5c0-0.4-0.1-1.1-0.3-1.9c-0.2-0.9-0.7-2-1.5-3.1
			c-0.1-0.2-0.3-0.4-0.5-0.6c-0.4-0.4-0.8-0.7-1.2-1c-0.7-0.5-1.5-1-2.4-1.3c-1.2-0.5-2.5-0.9-3.9-1.2c-0.7-0.2-1.5-0.2-2.3-0.3
			c-0.5,0-1-0.1-1.5-0.1c-0.4,0-0.9-0.1-1.4-0.1H793L793,331.8z"/>
		<path fill="#FFFFFF" d="M793,301.3v19h6.3c0,0,0.4,0,1,0c0.4,0,0.9,0,1.4-0.1c1.3-0.1,3.1-0.3,4.9-0.8c0.3-0.1,0.7-0.2,1-0.3
			c1.4-0.5,2.8-1.2,3.8-2.3c0.9-0.8,1.4-1.7,1.8-2.6c0.4-1.1,0.6-2.1,0.6-2.9c0.1-0.7,0.1-1.1,0.1-1.1s0-0.3,0-0.8
			c0-0.8-0.2-2.2-0.9-3.5c-0.3-0.6-0.7-1.2-1.3-1.8c-0.7-0.7-1.6-1.2-2.5-1.7c-1.8-0.8-3.8-1.1-5.5-1.2c-0.7-0.1-1.4-0.1-2-0.1H793
			L793,301.3z"/>
		<path fill="#FFFFFF" d="M779.9,289.8v73.6h27.7c0,0,13.5,0.4,21-7.1c6.1-6.1,5.6-13.1,5.6-13.1s0.5-7.3-5.2-13
			c-4.7-4.8-10.9-6-10.9-6s2.8-1.3,4.9-3.4c0.9-1,4.5-4.2,4.5-11.9c0-7.8-5.2-12.3-5.2-12.3s-5.7-6.7-18.5-6.7L779.9,289.8
			L779.9,289.8z M751.4,275.5h108.5v102.1l-108.5,0V275.5L751.4,275.5z"/>
		<path fill="#FFFFFF" d="M668,331.8v20.1h13c0,0,0.2,0,0.7,0c0.4,0,1,0,1.8-0.1c1.4-0.1,3.3-0.4,5.1-1c1.7-0.6,3.2-1.4,4.4-2.6
			c0.5-0.5,0.9-0.9,1.2-1.4c1-1.6,1.2-3.2,1.3-4.2c0-0.4,0-0.6,0-0.6s0-0.2,0-0.5c0-0.4-0.1-1.1-0.2-1.9c-0.3-0.9-0.7-2-1.5-3.1
			c-0.1-0.2-0.3-0.4-0.5-0.6c-0.4-0.4-0.7-0.7-1.2-1c-0.7-0.5-1.5-1-2.4-1.3c-1.2-0.5-2.5-0.9-3.9-1.2c-0.7-0.2-1.5-0.2-2.3-0.3
			c-0.5,0-1-0.1-1.5-0.1c-0.4,0-0.9-0.1-1.4-0.1H668L668,331.8z"/>
		<path fill="#FFFFFF" d="M668,301.3v19h6.3c0,0,0.4,0,1,0c0.4,0,0.9,0,1.4-0.1c1.3-0.1,3.1-0.3,4.9-0.8c0.3-0.1,0.7-0.2,1-0.4
			c1.4-0.5,2.8-1.2,3.8-2.3c0.8-0.8,1.4-1.7,1.7-2.6c0.5-1.1,0.6-2.1,0.6-2.9c0.1-0.7,0.1-1.1,0.1-1.1s0-0.3,0-0.8
			c-0.1-0.8-0.2-2.2-0.9-3.5c-0.3-0.6-0.7-1.2-1.3-1.8c-0.7-0.7-1.6-1.2-2.5-1.7c-1.8-0.8-3.8-1-5.5-1.2c-0.7-0.1-1.4-0.1-2-0.1H668
			z"/>
		<path fill="#FFFFFF" d="M654.8,289.8v73.6h27.7c0,0,13.5,0.4,21-7.1c6.1-6.1,5.6-13.1,5.6-13.1s0.4-7.3-5.2-13
			c-4.8-4.8-10.9-6.1-10.9-6.1s2.8-1.3,4.9-3.4c1-1,4.5-4.2,4.5-11.9c0-7.8-5.2-12.3-5.2-12.3s-5.7-6.7-18.5-6.7L654.8,289.8
			L654.8,289.8z M626.4,275.5h108.5v102.1l-108.5,0V275.5L626.4,275.5z"/>
		<polygon fill="#FFFFFF" points="545.4,477.7 490.2,477.7 490.2,448.7 632.7,448.7 632.7,477.7 577.5,477.7 577.5,628.9 
			545.4,628.9 		"/>
		<polygon fill="#FFFFFF" points="665,448.7 700.1,448.7 734,578.5 734.5,578.5 774.9,448.7 806.5,448.7 846.1,578.5 846.7,578.5 
			882,448.7 914.7,448.7 862.2,628.9 831.7,628.9 789.9,491.7 789.4,491.7 747.7,628.9 718.2,628.9 		"/>
		<path fill="#FFFFFF" d="M1024,444.1c56.2-1,95.9,36.7,95.9,94.4c0,56.3-39.7,93.9-95.9,94.9c-55.5,0-95.2-37.6-95.2-93.9
			C928.8,481.8,968.5,444.1,1024,444.1 M1024.3,604.4c37.4,0,62-28.5,62-66.9c0-35.9-24.7-64.4-62-64.4c-37.1,0-61.9,28.5-61.9,64.4
			C962.4,576,987.1,604.4,1024.3,604.4z"/>
	</g>
</g>
<g id="Laag_2" display="none">
</g>
</svg>
