<?xml version="1.0" encoding="utf-8"?>
<!-- Generator: Adobe Illustrator 22.1.0, SVG Export Plug-In . SVG Version: 6.00 Build 0)  -->
<svg version="1.2" baseProfile="tiny" xmlns="http://www.w3.org/2000/svg" xmlns:xlink="http://www.w3.org/1999/xlink" x="0px"
	 y="0px" viewBox="0 0 1600 900" xml:space="preserve">
<g id="Layer_1">
	<g id="layer1_1_" transform="translate(-82.957589,-468.68866)">
		<path id="path10516_1_" fill="#505050" d="M708.9,788.5v24.9h9.5c2-0.3,4.1-0.2,6.1-0.7c2.1-0.3,4.1-1,6-2
			c1.7-1.1,3.2-2.2,4.1-4.1c1.1-1.8,1.6-4,1.6-6.1c0.1-2.9-0.7-5.9-2.8-8c-1.3-1.4-3.1-2.4-5-2.9c-2.9-0.9-5.8-1.3-8.8-1.2
			C716,788.5,712.5,788.5,708.9,788.5L708.9,788.5z M872.3,788.5v24.9h9.6c2.5-0.2,5-0.3,7.5-0.9c2.2-0.6,4.5-1.3,6.3-2.8
			c1.6-1.2,2.7-3.1,3.4-4.9c0.8-2.5,0.8-5.2,0.3-7.7c-0.5-2.1-1.6-3.9-3.3-5.3c-1.6-1.4-3.8-2.1-5.8-2.6c-2.4-0.6-5-0.8-7.5-0.7
			C879.3,788.5,875.8,788.5,872.3,788.5L872.3,788.5z M708.9,828.5v26.2h18.8c2.4-0.2,4.7-0.5,7-1.2c2.5-0.7,4.8-1.9,6.8-3.6
			c1.6-1.6,2.7-3.8,3.2-6c0.4-2.3,0.2-4.8-0.6-7c-1.1-2.2-2.8-4.1-4.9-5.3c-2.3-1.3-4.8-2.2-7.5-2.6c-2.2-0.5-4.5-0.6-6.8-0.6
			C719.6,828.5,714.3,828.5,708.9,828.5z M872.3,828.5v26.2h19.1c2.5-0.2,5-0.6,7.4-1.3c2.5-0.8,5-2,6.8-4c2.3-2.3,3.1-5.7,2.9-8.9
			c0-2.1-0.9-4-2.1-5.7c-1.6-2-3.8-3.6-6.3-4.4c-2-1-4.4-1.2-6.5-1.6c-2.7-0.4-5.4-0.2-8.1-0.2C881,828.5,876.6,828.5,872.3,828.5z
			 M654.3,754.8v133.5h141.8V754.8H654.3z M817.9,754.8v133.5h142V754.8H817.9z M981.4,754.8v133.5h142V754.8H981.4z M1056.9,772.2
			c4.7-0.1,9.4,0.3,14,1.1c4.2,0.8,8.2,1.9,12.2,3.2c3.6,1.1,7.4,2.6,11,4c0.1,5.9,0,11.9,0,17.9c-1.9-1.2-3.8-2-5.6-3
			c-4.2-2-8.6-3.9-13-5.1c-4.7-1.5-9.3-2.3-14.3-2.6c-6-0.2-11.6,0.5-17,2.3c-4.5,1.6-9.6,4.1-13.3,7.8c-2.5,2.3-4.5,4.8-6.3,8
			c-1.4,2.5-2.4,5.4-3.2,8.2c-1.2,5.8-1.2,12.3,0.5,17.9c0.9,2.9,2.1,5.7,3.7,8.2c2.3,3.6,5.9,6.8,9.2,9c1.8,1.4,4.5,2.5,6.5,3.5
			c6.4,2.4,13.8,3.6,20.7,3c8.1-0.4,16.3-2.9,23.7-6.4c3.1-1.4,6.6-3.4,9.2-5.1v18.4c-1.5,0.6-3.3,1.4-4.9,2.2c-2.8,1-5.4,2.2-8.2,3
			c-4,1.4-8.4,2-12.6,2.8c-5.7,0.4-11.6,0.9-17.3,0.4c-6.9-0.5-13.7-2-19.9-4.8c-5.1-2.2-9.7-5.2-13.4-8.7
			c-3.9-3.7-7.3-7.8-9.8-12.4c-2.7-4.7-4.4-9.7-5.4-14.7c-1.7-10.3,0-21.4,5.1-30.8c1.9-3.7,4.4-6.9,7-9.8c2.2-2.5,5-4.9,7.8-6.9
			c4.5-3,9.5-5.7,15-7.4c4.6-1.6,9-2.1,13.6-2.8C1053.7,772.3,1055.4,772.3,1056.9,772.2z M691.5,773.5c8.2,0,16.4,0,24.7,0
			c8.1-0.2,16.6,0.1,24,3.9c9.1,4.2,15.2,14.5,13.4,24.6c-0.5,7.2-5.7,13.5-12,16.4c3.5,1,7.2,2.6,10.3,4.8
			c10.1,6.4,13.9,20.9,7.8,31.3c-5.3,10.2-17.4,14.4-28.3,15.1c-13.3,0.5-26.6,0.1-39.9,0.2V773.5L691.5,773.5z M855.1,773.5
			c5.1,0,10.3,0,15.4,0c10.3,0.4,21-1.5,30.8,2.8c10.4,3.4,17.7,14.7,15.8,25.6c-0.4,7.3-5.7,13.5-12,16.4c4,1.1,8.2,3.1,11.6,5.7
			c9.3,6.7,12.4,20.4,6.7,30.4c-5.4,10.2-17.3,14.4-28.2,15.1c-13.3,0.5-26.7,0.1-40,0.2V773.5L855.1,773.5z"/>
		<path id="path10544_1_" fill="#505050" d="M495.3,930.3v37.2h-21.8v11.9h21.8v107.2h11.9V979.4h21.6v-11.9h-21.6v-37.2H495.3z
			 M737.1,930.3v37.2h-21.8v11.9h21.8v107.2h12V979.4h21.6v-11.9h-21.6v-37.2H737.1z M915.4,930.3v23.2h11.7v-23.2H915.4z
			 M1511.5,930.3v37.2h-21.9v11.9h21.9v107.2h11.9V979.4h21.6v-11.9h-21.6v-37.2H1511.5z M293.3,964.1c-33.4,0-60.5,28.2-60.5,63
			c0,35,26.9,62.6,61.5,62.6c26,0,46.4-14.5,57.4-40.6l1.3-3h-12.5l-0.6,1.3c-8.9,20.3-25.3,31.6-46,31.6c-27.5,0-47.1-18.8-49.5-47
			h111.1v-2.2C354.8,990.4,329.7,964.1,293.3,964.1L293.3,964.1z M591.6,964.1c-33.4,0-60.5,28.2-60.5,63c0,35,26.9,62.6,61.5,62.6
			c26,0,46.4-14.5,57.4-40.6l1.3-3h-12.5l-0.6,1.3c-8.9,20.3-25.3,31.6-46,31.6c-27.5,0-47.1-18.8-49.5-47H654v-2.2
			C653.1,990.4,628,964.1,591.6,964.1L591.6,964.1z M1308.5,964.1c-33.4,0-60.6,28.2-60.6,63c0,35,27.1,62.6,61.6,62.6
			c26,0,46.5-14.5,57.4-40.6l1.3-3h-12.5l-0.6,1.3c-8.9,20.3-25.3,31.6-46,31.6c-27.5,0-47.1-18.8-49.5-47h111.1v-2.2
			C1369.9,990.4,1344.8,964.1,1308.5,964.1L1308.5,964.1z M832.5,964.5c-34.9,0-61.2,26.7-61.2,62.1c0,35.4,26.8,63,61.2,63
			c20,0,35.8-8.3,49.2-25.7v22.8h11.3V967.5h-11.3v22.7C869.8,973.2,853.3,964.5,832.5,964.5L832.5,964.5z M417.6,965.3
			c-15.3,0-27.6,5.7-37.1,17.1v-14.8h-11.7v119.2h11.3v-61.4c0-13.3-0.1-23.8,6.3-32.9c7.6-10.8,17.9-16.1,31.3-16.1
			c25.5,0,37.9,15.3,37.9,47v63.4h11.3v-64.6c0-14.2-0.7-26.8-9-37.9C448.6,971.4,435.7,965.3,417.6,965.3L417.6,965.3z
			 M996.5,965.4c-15.3,0-27.5,5.6-37,17v-14.9h-11.8v119.2h11.3v-61.4c0-13.3,0-23.8,6.4-32.9c7.6-10.8,17.7-16.1,31.2-16.1
			c25.5,0,37.9,15.3,37.9,47v63.4h11.3v-64.5c0-14.2-0.7-26.8-9-37.9C1027.4,971.4,1014.6,965.4,996.5,965.4z M1110.4,965.4
			c-13.8,0-24.7,5.4-33.1,16.4v-14.3h-11.7v119.2h11.3v-61.4c0-13.2,0-23.7,5.8-33.2c6.8-10.6,15.8-15.8,27.7-15.8
			c22.5,0,33.9,15.8,33.9,47v63.4h11.3v-61.4c0-13.2,0-23.7,5.8-33.2c6.7-10.6,15.8-15.8,27.7-15.8c22.5,0,33.8,15.8,33.8,47v63.4
			h11.3v-68.1c0-32.8-17.3-53.2-45.4-53.2c-17.1,0-30.2,8.8-38.5,25.5C1143.3,974.5,1129.3,965.4,1110.4,965.4z M1432.8,965.4
			c-15.3,0-27.6,5.6-37.1,17v-14.9H1384v119.2h11.3v-61.4c0-13.3-0.1-23.8,6.3-32.9c7.6-10.8,17.9-16.1,31.3-16.1
			c25.5,0,37.9,15.3,37.9,47v63.4h11.3v-64.5c0-14.2-0.7-26.8-9-37.9C1463.7,971.4,1450.9,965.4,1432.8,965.4z M704.7,965.6
			l-2.3,0.1c-9.4,0.3-16.6,3.8-23.3,11v-9.2h-11.9v119.2h11.9v-78.9c0-19.8,6.2-27.4,23.6-28.9l2-0.2V965.6L704.7,965.6z
			 M914.4,967.5v119.2h11.8V967.5H914.4z M294.6,974.3c25.9,0,44.3,17.6,48.6,46.1h-98.5C249.2,992.3,268.5,974.3,294.6,974.3
			L294.6,974.3z M592.9,974.3c25.9,0,44.3,17.6,48.6,46.1H543C547.4,992.3,566.8,974.3,592.9,974.3L592.9,974.3z M1309.8,974.3
			c25.9,0,44.3,17.6,48.6,46.1h-98.6C1264.2,992.3,1283.6,974.3,1309.8,974.3z M832.1,974.8c27.8,0,49.5,23.5,49.5,53.4
			c0,27.2-22.7,51.1-48.4,51.1c-27.6,0-50.1-23.4-50.1-52.2C783.1,997.8,804.6,974.8,832.1,974.8z"/>
	</g>
</g>
<g id="Laag_2" display="none">
</g>
</svg>
