<?xml version="1.0" encoding="utf-8"?>
<!-- Generator: Adobe Illustrator 23.0.4, SVG Export Plug-In . SVG Version: 6.00 Build 0)  -->
<svg version="1.1" id="Layer_1" xmlns="http://www.w3.org/2000/svg" xmlns:xlink="http://www.w3.org/1999/xlink" x="0px" y="0px"
	 viewBox="0 0 1600 900" enable-background="new 0 0 1600 900" xml:space="preserve">
<g>
	<path fill="#B80000" d="M500.454,148.977c199.676,0,399.352,0,599.075,0c0,199.642,0,399.294,0,599.028
		c-199.661,0-399.367,0-599.075,0C500.454,548.354,500.454,348.671,500.454,148.977z"/>
	<g>
		<path fill="#FEFCFC" d="M921.115,266.907c16.285,0,32.571,0,48.856,0.001c0.862,0,1.725-0.006,2.585,0.028
			c0.538,0.022,0.889,0.328,0.921,0.886c0.038,0.668,0.044,1.339,0.044,2.009c0.002,30.942,0.001,61.884,0.002,92.826
			c0,3.168,0.19,2.973-2.933,2.973c-33.05-0.001-66.099-0.001-99.149,0.001c-2.951,0-2.839,0.158-2.838-2.786
			c0.003-31.038,0.003-62.076,0.001-93.114c0-2.989-0.138-2.826,2.793-2.826C887.969,266.908,904.542,266.907,921.115,266.907z
			 M925.633,352.665c3.161-0.047,6.31-0.191,9.447-0.677c5.629-0.872,10.967-2.611,16.108-5.039c1.02-0.482,1.401-1.105,1.385-2.204
			c-0.048-3.353-0.017-6.706-0.019-10.06c0-0.191-0.006-0.384-0.021-0.574c-0.044-0.562-0.486-0.851-0.954-0.597
			c-0.589,0.319-1.153,0.681-1.735,1.013c-6.395,3.652-13.186,6.118-20.562,6.786c-6.021,0.546-11.872-0.224-17.412-2.688
			c-11.943-5.312-16.1-16.853-13.755-27.689c1.745-8.063,6.769-13.589,14.157-17.003c5.153-2.381,10.625-3.087,16.263-2.695
			c6.497,0.452,12.581,2.342,18.385,5.222c1.286,0.638,2.544,1.332,3.829,1.972c0.672,0.335,1.084,0.075,1.088-0.704
			c0.018-3.545-0.015-7.09,0.035-10.635c0.013-0.943-0.431-1.381-1.215-1.684c-3.394-1.312-6.825-2.517-10.338-3.466
			c-8.651-2.337-17.374-2.803-26.143-0.729c-8.13,1.923-15.281,5.684-20.758,12.081c-8.086,9.443-10.963,20.352-7.671,32.413
			c3.003,11.005,10.183,18.685,20.561,23.333C912.445,351.791,918.941,352.794,925.633,352.665z"/>
		<path fill="#FEFCFC" d="M800.176,365.63c-16.285,0-32.571,0.005-48.856-0.004c-3.779-0.002-3.457,0.402-3.457-3.307
			c-0.003-30.75-0.002-61.501-0.002-92.251c0-3.485-0.221-3.158,3.03-3.158c32.954-0.004,65.908-0.002,98.861-0.002
			c0.287,0,0.575-0.004,0.862,0.001c2.131,0.033,2.132,0.033,2.162,2.3c0.006,0.479,0.001,0.958,0.001,1.437
			c0,30.463,0.004,60.926-0.005,91.389c-0.001,4.004,0.446,3.59-3.454,3.592C832.938,365.635,816.557,365.63,800.176,365.63z
			 M812.927,313.705c0.834-0.56,1.566-1.011,2.254-1.52c2.444-1.808,4.38-4.05,5.269-6.988c1.948-6.433,0.885-12.301-3.63-17.397
			c-2.003-2.261-4.517-3.805-7.307-4.936c-3.695-1.497-7.566-2.045-11.509-2.078c-6.7-0.056-13.4-0.01-20.1-0.02
			c-2.522-0.004-2.515-0.057-2.514,2.533c0.007,22.015,0.003,44.029,0.007,66.044c0,0.572,0.023,1.146,0.07,1.717
			c0.036,0.441,0.345,0.662,0.758,0.71c0.378,0.045,0.762,0.058,1.144,0.058c8.423,0.001,16.846,0.042,25.269-0.024
			c3.646-0.028,7.253-0.538,10.74-1.662c3.506-1.131,6.654-2.876,9.293-5.503c7.263-7.229,6.792-19.609-1.418-26.194
			c-1.882-1.509-3.956-2.664-6.187-3.575C814.382,314.592,813.517,314.633,812.927,313.705z"/>
		<path fill="#FEFCFC" d="M679.446,365.63c-16.381,0-32.762,0.002-49.143-0.002c-3.474-0.001-3.184,0.319-3.184-3.296
			c-0.002-30.75-0.002-61.501,0-92.251c0-3.591-0.25-3.168,3.304-3.169c32.762-0.008,65.524-0.005,98.286-0.004
			c0.671,0,1.342-0.015,2.011,0.012c1.107,0.045,1.261,0.21,1.304,1.413c0.028,0.765,0.01,1.533,0.01,2.299
			c0,30.463,0,60.926,0,91.389c0,0.766,0.018,1.534-0.014,2.299c-0.045,1.082-0.239,1.258-1.42,1.301
			c-0.765,0.028-1.533,0.01-2.299,0.01C712.016,365.63,695.731,365.63,679.446,365.63z M692.169,313.739
			c0.899-0.618,1.708-1.125,2.465-1.702c2.668-2.033,4.544-4.602,5.402-7.894c1.898-7.284-0.777-14.642-6.937-18.963
			c-1.736-1.217-3.621-2.139-5.629-2.806c-3.391-1.127-6.892-1.587-10.451-1.598c-6.509-0.021-13.017-0.007-19.526-0.007
			c-0.479,0-0.958-0.013-1.435,0.009c-1.18,0.053-1.344,0.209-1.397,1.326c-0.023,0.478-0.011,0.957-0.011,1.435
			c0,21.823-0.001,43.646,0.002,65.469c0,0.669,0.015,1.339,0.063,2.005c0.03,0.419,0.284,0.7,0.72,0.748
			c0.379,0.041,0.762,0.066,1.143,0.066c8.519-0.001,17.038,0.044,25.556-0.034c3.547-0.032,7.06-0.543,10.455-1.637
			c3.698-1.192,7.015-3.026,9.705-5.892c6.372-6.789,6.353-17.475-0.06-24.221c-2.145-2.257-4.729-3.847-7.59-5.048
			C693.873,314.672,692.931,314.67,692.169,313.739z"/>
		<path fill="#FEFCFC" d="M614.017,481.12c0.491-0.638,0.632-1.396,0.833-2.13c5.245-19.203,10.248-38.469,14.951-57.812
			c0.136-0.558,0.323-1.107,0.413-1.671c0.13-0.818,0.601-1.106,1.383-1.103c2.779,0.011,5.558-0.001,8.336-0.002
			c1.341-0.001,2.683,0.015,4.024,0.003c0.793-0.007,1.197,0.354,1.387,1.134c1.296,5.299,2.578,10.602,3.947,15.882
			c3.676,14.172,7.391,28.335,11.098,42.499c0.193,0.736,0.456,1.454,0.69,2.188c0.793-0.357,0.803-1.069,0.956-1.706
			c2.106-8.746,4.329-17.465,6.29-26.244c2.629-11.769,5.055-23.583,7.569-35.377c0.06-0.281,0.133-0.559,0.193-0.839
			c0.169-0.782,0.66-1.059,1.445-1.054c3.258,0.02,6.516,0.003,9.774,0.002c1.15,0,2.3-0.014,3.449,0.022
			c0.916,0.029,1.094,0.297,0.85,1.298c-1.292,5.3-2.562,10.605-3.906,15.892c-5.303,20.87-10.906,41.659-17.021,62.308
			c-0.081,0.275-0.123,0.563-0.217,0.834c-1.076,3.105-0.218,2.799-3.902,2.809c-3.641,0.01-7.282,0.014-10.924-0.004
			c-1.66-0.008-1.713-0.043-2.171-1.642c-1.949-6.808-3.916-13.611-5.806-20.435c-3.27-11.804-6.487-23.623-9.728-35.436
			c-0.097-0.352-0.207-0.7-0.31-1.044c-0.839,0.142-0.79,0.8-0.933,1.331c-1.898,7.021-3.765,14.05-5.7,21.06
			c-3.081,11.162-6.206,22.311-9.315,33.465c-0.154,0.553-0.373,1.091-0.489,1.651c-0.17,0.822-0.699,1.055-1.453,1.052
			c-2.012-0.008-4.024,0.003-6.037,0.002c-2.491-0.001-4.983-0.008-7.474-0.006c-0.645,0.001-1.086-0.232-1.256-0.904
			c-0.14-0.555-0.34-1.096-0.506-1.645c-7.823-25.837-14.709-51.927-21.014-78.172c-0.112-0.465-0.186-0.939-0.269-1.41
			c-0.101-0.574,0.158-0.942,0.721-0.984c0.763-0.057,1.532-0.042,2.298-0.042c3.737-0.002,7.474-0.01,11.211,0.009
			c1.272,0.006,1.508,0.186,1.757,1.379c0.646,3.092,1.247,6.193,1.88,9.287c3.664,17.912,7.64,35.753,12.126,53.478
			C613.355,479.767,613.45,480.531,614.017,481.12z"/>
		<path fill="#FEFCFC" d="M888.69,531.478c2.893-0.35,13.148-0.31,15.367,0.056c-0.058,0.461-0.07,0.935-0.18,1.387
			c-6.459,26.503-13.49,52.853-21.184,79.025c-0.135,0.459-0.327,0.904-0.429,1.37c-0.174,0.793-0.67,1.093-1.441,1.091
			c-4.504-0.008-9.007-0.013-13.511-0.005c-0.831,0.001-1.138-0.467-1.343-1.194c-1.068-3.775-2.19-7.535-3.259-11.31
			c-4.172-14.733-8.328-29.47-12.2-44.285c-0.169-0.645-0.397-1.274-0.631-2.014c-0.704,0.58-0.802,1.306-0.988,1.999
			c-4.817,18.029-9.68,36.045-14.889,53.965c-0.951,3.271-0.322,2.816-3.831,2.843c-3.737,0.029-7.474,0.019-11.211-0.004
			c-1.317-0.008-1.394-0.059-1.784-1.375c-1.986-6.698-3.984-13.392-5.906-20.108c-5.661-19.785-10.812-39.704-15.576-59.723
			c-0.132-0.554-0.344-1.095-0.141-1.72c0.245-0.065,0.517-0.2,0.789-0.201c4.504-0.018,9.007-0.034,13.511-0.017
			c1.291,0.005,1.39,0.12,1.656,1.449c2.538,12.671,5.181,25.319,8.079,37.913c1.889,8.208,3.9,16.387,5.869,24.576
			c0.172,0.716,0.432,1.411,0.653,2.122c0.858-0.325,0.811-1.074,0.977-1.697c3.05-11.468,6.142-22.925,9.126-34.411
			c2.166-8.336,4.184-16.71,6.278-25.065c0.343-1.367,0.366-1.404,1.684-1.41c4.305-0.021,8.611-0.008,13.014-0.008
			c0.471,0.811,0.627,1.653,0.823,2.463c4.542,18.793,9.446,37.492,14.492,56.154c0.266,0.985,0.595,1.954,0.868,2.843
			c0.806,0.125,0.723-0.383,0.802-0.687c2.906-11.212,5.58-22.48,8.034-33.799c2.028-9.354,3.951-18.731,5.928-28.096
			C888.29,532.87,888.513,532.152,888.69,531.478z"/>
		<path fill="#FEFCFC" d="M650.963,553.604c0,1.041,0,2.082,0,3.123c0,17.915,0,35.831,0,53.746c0,0.766,0.014,1.533-0.005,2.299
			c-0.038,1.484-0.14,1.619-1.671,1.629c-3.736,0.024-7.473,0.02-11.209-0.006c-1.158-0.008-1.333-0.216-1.376-1.319
			c-0.023-0.574-0.008-1.15-0.008-1.724c0-25.675-0.004-51.351,0.005-77.026c0.001-3.43-0.41-3.061,3.051-3.075
			c3.545-0.015,7.09,0.015,10.634-0.013c0.843-0.007,1.476,0.214,1.923,0.962c0.343,0.574,0.757,1.105,1.138,1.656
			c12.622,18.285,24.874,36.816,36.88,55.51c0.545,0.848,1.148,1.659,1.986,2.864c0.294-1.379,0.198-2.309,0.199-3.22
			c0.006-17.82-0.002-35.639,0.018-53.459c0.002-1.318-0.244-2.662,0.219-3.959c1.35-0.72,2.801-0.287,4.201-0.322
			c2.872-0.071,5.748-0.031,8.622-0.005c0.96,0.009,1.177,0.249,1.216,1.18c0.028,0.67,0.012,1.341,0.012,2.012
			c0,25.58,0.006,51.159-0.007,76.739c-0.002,3.434,0.515,3.21-3.244,3.215c-3.449,0.005-6.898-0.027-10.347,0.015
			c-0.972,0.012-1.618-0.3-2.119-1.142c-0.832-1.398-1.746-2.747-2.63-4.114c-11.538-17.854-23.157-35.656-35.139-53.218
			c-0.579-0.848-1.196-1.671-1.795-2.505C651.333,553.499,651.148,553.551,650.963,553.604z"/>
		<path fill="#FEFCFC" d="M945.978,456.33c0-12.935,0-25.871,0-38.807c0-2.746-0.188-2.639,2.668-2.638
			c9.199,0.002,18.397-0.027,27.596,0.012c4.993,0.021,9.941,0.466,14.77,1.881c13.394,3.923,21.752,12.709,25.186,26.17
			c1.503,5.889,1.877,11.896,1.371,17.967c-0.295,3.542-0.772,7.038-1.782,10.453c-4.061,13.734-13.206,22.077-27.026,25.408
			c-3.545,0.855-7.164,1.273-10.821,1.272c-9.965-0.001-19.93,0.002-29.895,0.002c-0.383,0-0.766-0.01-1.149-0.025
			c-0.559-0.022-0.873-0.314-0.886-0.877c-0.021-0.862-0.03-1.724-0.03-2.586C945.978,481.818,945.978,469.074,945.978,456.33z
			 M970.499,485.452c0,0.001,0,0.002,0,0.003c1.818,0,3.637,0.027,5.454-0.007c2.2-0.041,4.384-0.175,6.56-0.612
			c9.295-1.864,15.398-7.27,18.182-16.33c1.71-5.565,1.99-11.278,1.422-17.044c-0.348-3.538-1.08-6.985-2.533-10.257
			c-2.721-6.127-7.277-10.19-13.651-12.242c-3.408-1.097-6.921-1.439-10.471-1.474c-3.827-0.037-7.655-0.018-11.483-0.006
			c-3.478,0.011-3.184-0.327-3.185,3.282c-0.005,17.225-0.002,34.45-0.001,51.674c0,0.67,0.015,1.34,0.013,2.009
			c-0.003,0.733,0.403,1.004,1.081,1.003C964.757,485.45,967.628,485.452,970.499,485.452z"/>
		<path fill="#FEFCFC" d="M699.688,457.093c0.042-7.19,0.831-13.44,3.177-19.404c5.186-13.185,14.736-21.16,28.684-23.745
			c7.26-1.346,14.533-1.19,21.631,0.876c12.826,3.734,21.202,12.197,25.451,24.78c1.508,4.466,2.26,9.095,2.437,13.815
			c0.249,6.65-0.242,13.205-2.295,19.585c-0.972,3.019-2.222,5.912-3.847,8.636c-5.112,8.565-12.554,14.095-22.143,16.655
			c-7.525,2.009-15.169,2.171-22.764,0.443c-13.955-3.176-23.124-11.733-27.767-25.21
			C700.328,467.935,699.723,462.142,699.688,457.093z M765.755,456.597c-0.087-1.817-0.1-3.642-0.275-5.451
			c-0.502-5.207-1.821-10.176-4.685-14.623c-3.375-5.24-8.112-8.54-14.218-9.903c-3.225-0.72-6.482-0.796-9.717-0.427
			c-7.387,0.844-13.168,4.381-17.104,10.76c-1.414,2.292-2.455,4.759-3.149,7.366c-1.854,6.965-2.007,13.988-0.734,21.064
			c0.72,4,2.04,7.771,4.253,11.196c3.091,4.782,7.365,7.963,12.88,9.472c3.178,0.869,6.409,1.17,9.675,0.896
			c9.285-0.779,15.993-5.327,19.923-13.832c0.48-1.039,0.869-2.125,1.235-3.212C765.293,465.587,765.72,461.121,765.755,456.597z"/>
		<path fill="#FEFCFC" d="M864.583,498.052c-1.012,0-1.773,0-2.535,0c-3.833,0-7.666,0.015-11.499-0.005
			c-3.133-0.016-2.406,0.306-3.774-2.126c-5.213-9.266-10.702-18.367-16.205-27.461c-0.297-0.492-0.595-0.983-0.893-1.474
			c-0.325-0.535-0.785-0.768-1.426-0.765c-4.887,0.023-9.774,0.015-14.661,0.044c-1.093,0.007-1.273,0.235-1.312,1.389
			c-0.026,0.766-0.01,1.533-0.01,2.3c0,8.337,0.001,16.674-0.002,25.01c0,0.766-0.02,1.532-0.047,2.297
			c-0.016,0.435-0.274,0.688-0.696,0.745c-0.284,0.038-0.573,0.042-0.86,0.042c-3.737,0.003-7.474,0.016-11.211-0.005
			c-1.662-0.009-1.678-0.057-1.713-1.838c-0.011-0.575-0.003-1.15-0.003-1.725c0-25.394-0.007-50.787,0.008-76.181
			c0.002-3.716-0.536-3.407,3.328-3.411c8.241-0.009,16.482-0.021,24.723,0.006c3.738,0.012,7.469,0.176,11.162,0.843
			c3.314,0.598,6.531,1.499,9.564,2.979c8.223,4.012,12.555,10.649,13.215,19.727c0.217,2.981,0.023,5.947-0.723,8.845
			c-1.67,6.485-5.565,11.244-11.41,14.437c-1.17,0.639-2.385,1.197-3.623,1.815c0.075,0.962,0.69,1.585,1.134,2.271
			c6.245,9.649,12.333,19.395,18.158,29.304C863.739,495.913,864.392,496.645,864.583,498.052z M812.261,440.477
			c0.001,0,0.002,0,0.002,0c0,4.119-0.012,8.238,0.007,12.357c0.006,1.356,0.194,1.579,1.425,1.573
			c5.268-0.023,10.536-0.051,15.803-0.143c1.919-0.033,3.796-0.458,5.641-0.993c6.865-1.993,9.936-6.178,9.702-13.34
			c-0.231-7.073-4.078-10.14-8.485-11.685c-2.646-0.928-5.376-1.443-8.157-1.502c-4.787-0.102-9.578-0.067-14.368-0.06
			c-1.451,0.002-1.557,0.126-1.565,1.723C812.247,432.43,812.261,436.453,812.261,440.477z"/>
		<path fill="#FEFCFC" d="M727.162,572.667c0-12.841-0.001-25.682,0.001-38.523c0-3.008-0.239-2.9,2.706-2.899
			c16.77,0.004,33.54,0.001,50.309,0.005c0.67,0,1.345-0.003,2.006,0.085c0.211,0.028,0.458,0.314,0.554,0.539
			c0.106,0.249,0.074,0.564,0.075,0.851c0.004,3.162,0.018,6.325-0.004,9.487c-0.009,1.314-0.15,1.426-1.516,1.47
			c-0.766,0.024-1.533,0.009-2.3,0.009c-11.02,0-22.04,0-33.06,0c-0.575,0-1.15-0.008-1.725,0.002
			c-2.183,0.037-2.204,0.039-2.208,2.251c-0.012,5.654-0.004,11.308-0.004,16.961c0,0.287-0.007,0.575,0.005,0.862
			c0.055,1.291,0.151,1.382,1.568,1.424c0.574,0.017,1.15,0.005,1.725,0.005c10.158,0,20.315-0.002,30.473,0.002
			c2.76,0.001,2.631-0.245,2.629,2.651c-0.002,2.875,0.01,5.75-0.02,8.624c-0.01,0.955-0.243,1.149-1.22,1.188
			c-0.766,0.03-1.533,0.015-2.299,0.015c-9.87,0.001-19.74,0-29.611,0.002c-0.766,0-1.535-0.011-2.299,0.034
			c-0.518,0.031-0.904,0.286-0.922,0.879c-0.014,0.479-0.028,0.958-0.028,1.436c-0.002,6.516-0.002,13.033,0,19.549
			c0,0.479-0.002,0.959,0.028,1.436c0.034,0.54,0.321,0.893,0.881,0.915c0.861,0.034,1.723,0.039,2.585,0.039
			c11.978,0.002,23.957,0.001,35.935,0.002c0.671,0,1.342-0.013,2.012,0.005c1.539,0.041,1.592,0.075,1.601,1.663
			c0.018,3.162,0.015,6.325-0.006,9.487c-0.007,0.979-0.245,1.222-1.134,1.271c-0.669,0.037-1.341,0.019-2.012,0.019
			c-17.153,0.001-34.306,0-51.459,0.001c-3.676,0-3.259,0.202-3.262-3.222C727.156,598.349,727.162,585.508,727.162,572.667z"/>
		<path fill="#FEFCFC" d="M967.982,547.719c-0.953,0.089-1.396-0.317-1.888-0.576c-7.453-3.929-15.403-5.667-23.804-5.41
			c-2.308,0.071-4.585,0.413-6.774,1.14c-1.171,0.389-2.321,0.907-3.393,1.52c-4.757,2.719-5.847,8.024-4.318,12.47
			c0.514,1.494,1.531,2.639,2.755,3.602c1.446,1.138,3.093,1.893,4.82,2.497c3.255,1.139,6.591,1.993,9.924,2.86
			c3.705,0.963,7.377,2.031,10.961,3.389c2.518,0.954,4.911,2.154,7.127,3.679c5.315,3.659,8.208,8.717,8.57,15.168
			c0.15,2.677,0.13,5.346-0.406,8.008c-1.239,6.159-4.558,10.868-9.74,14.32c-3.555,2.369-7.488,3.895-11.652,4.678
			c-11.574,2.177-22.898,1.294-33.77-3.403c-4.28-1.849-3.396-1.09-3.461-5.175c-0.046-2.873-0.015-5.747,0.007-8.621
			c0.007-0.968,0.343-1.129,1.255-0.658c0.51,0.264,1.007,0.553,1.511,0.827c8.482,4.607,17.557,6.425,27.152,5.693
			c2.881-0.22,5.675-0.881,8.245-2.273c4.31-2.335,6.339-5.914,5.978-10.851c-0.177-2.418-1.128-4.416-2.831-6.098
			c-1.815-1.793-4.031-2.934-6.412-3.699c-2.729-0.877-5.51-1.6-8.285-2.326c-3.704-0.97-7.375-2.036-10.952-3.412
			c-2.689-1.035-5.257-2.299-7.65-3.913c-5.195-3.506-7.995-8.374-8.341-14.637c-0.143-2.587-0.114-5.162,0.424-7.719
			c1.181-5.616,4.213-9.996,8.833-13.312c3.802-2.729,8.089-4.38,12.657-5.172c10.641-1.846,20.979-0.705,30.947,3.516
			c0.528,0.224,1.024,0.527,1.559,0.729c0.752,0.284,0.957,0.835,0.955,1.573C967.976,539.961,967.982,543.789,967.982,547.719z"/>
		<path fill="#FEFCFC" d="M877.458,456.579c0-13.025,0.003-26.051-0.002-39.076c-0.001-2.729-0.091-2.624,2.706-2.618
			c3.544,0.008,7.087-0.009,10.631,0.016c1.139,0.008,1.347,0.236,1.385,1.325c0.03,0.861,0.011,1.724,0.011,2.586
			c0,21.07-0.001,42.141,0.002,63.211c0,3.64-0.276,3.246,3.214,3.249c11.397,0.01,22.794,0.004,34.191,0.004
			c0.766,0,1.533-0.017,2.298,0.012c0.997,0.037,1.271,0.245,1.276,1.129c0.019,3.543,0.005,7.086-0.01,10.63
			c-0.003,0.713-0.451,0.991-1.116,0.994c-0.575,0.003-1.149,0.012-1.724,0.012c-16.665,0.001-33.329,0.004-49.994-0.002
			c-3.208-0.001-2.861,0.314-2.864-2.969C877.451,482.247,877.458,469.413,877.458,456.579z"/>
		<path fill="#FEFCFC" d="M788.091,330.886c0-2.775-0.015-5.549,0.008-8.324c0.008-0.923,0.266-1.187,1.218-1.184
			c4.592,0.015,9.185-0.004,13.774,0.129c2.303,0.067,4.536,0.677,6.626,1.695c3.202,1.559,5.065,4.071,5.071,7.685
			c0.006,3.678-1.706,6.397-5.033,8.034c-1.731,0.851-3.565,1.367-5.49,1.546c-4.966,0.463-9.943,0.184-14.916,0.216
			c-0.991,0.006-1.245-0.322-1.255-1.473c-0.024-2.774-0.008-5.549-0.008-8.324C788.088,330.886,788.089,330.886,788.091,330.886z"
			/>
		<path fill="#FEFCFC" d="M788.088,300.788c0-2.485-0.017-4.97,0.008-7.455c0.012-1.131,0.271-1.448,1.276-1.452
			c3.63-0.016,7.265-0.174,10.885,0.243c1.537,0.177,3.001,0.622,4.34,1.381c2.03,1.151,3.254,2.877,3.587,5.231
			c0.218,1.541,0.143,3.065-0.195,4.558c-0.49,2.162-1.801,3.763-3.699,4.882c-1.673,0.986-3.513,1.495-5.416,1.753
			c-3.136,0.425-6.296,0.33-9.449,0.288c-1.06-0.014-1.32-0.296-1.331-1.401C788.07,306.141,788.088,303.465,788.088,300.788z"/>
		<path fill="#FEFCFC" d="M667.341,330.98c0-2.68-0.016-5.36,0.007-8.039c0.012-1.361,0.184-1.569,1.421-1.569
			c4.306-0.001,8.614-0.008,12.919,0.079c2.507,0.051,4.929,0.632,7.208,1.711c3.337,1.58,5.204,4.18,5.152,7.918
			c-0.051,3.694-1.859,6.356-5.196,7.935c-1.831,0.866-3.775,1.339-5.801,1.5c-4.78,0.381-9.566,0.136-14.349,0.174
			c-1.076,0.009-1.34-0.288-1.35-1.383c-0.026-2.775-0.009-5.551-0.009-8.326C667.343,330.98,667.342,330.98,667.341,330.98z"/>
		<path fill="#FEFCFC" d="M673.582,291.775c1.907,0.109,3.818,0.18,5.721,0.338c1.734,0.144,3.369,0.668,4.859,1.585
			c1.809,1.114,2.892,2.715,3.26,4.823c0.285,1.633,0.203,3.252-0.182,4.839c-0.522,2.151-1.841,3.746-3.748,4.852
			c-1.594,0.924-3.336,1.435-5.142,1.69c-3.23,0.457-6.486,0.364-9.736,0.311c-0.999-0.016-1.254-0.323-1.264-1.465
			c-0.025-2.868-0.012-5.736-0.012-8.604c0-2.294-0.016-4.589,0.014-6.883c0.014-1.095,0.273-1.361,1.349-1.386
			c1.624-0.037,3.25-0.01,4.875-0.01C673.578,291.835,673.58,291.805,673.582,291.775z"/>
	</g>
</g>
</svg>
