<?xml version="1.0" encoding="utf-8"?>
<!-- Generator: Adobe Illustrator 22.1.0, SVG Export Plug-In . SVG Version: 6.00 Build 0)  -->
<svg version="1.2" baseProfile="tiny" xmlns="http://www.w3.org/2000/svg" xmlns:xlink="http://www.w3.org/1999/xlink" x="0px"
	 y="0px" viewBox="0 0 1600 900" xml:space="preserve">
<g id="Layer_1">
	<g id="bvSV72.tif">
		<g>
			<path fill="#FFFFFF" d="M384.7,440.5c2.1-0.4,4.3-1,6.4-1c47.2-0.1,94.3-0.1,141.5,0c1.9,0,3.8,0.3,6.1,0.5c0,13.4,0,26.5,0,40.6
				c-3.2,0-6,0-8.8,0c-30.8,0-61.6,0.2-92.4-0.2c-7-0.1-8.6,2.2-8.4,8.7c0.4,15.1,0.1,30.1,0.1,45.9c29,0,57,0,85.5,0
				c0,13.3,0,25.9,0,39.5c-28.2,0-56.4,0-85.4,0c0,29.5,0,57.9,0,87.5c-15.5,0-30.1,0-44.6,0C384.7,588.1,384.7,514.3,384.7,440.5z"
				/>
			<path fill="#FFFFFF" d="M384.7,238.1c53.9-0.1,107.9-0.2,161.8-0.2c0.9,0,1.8,0.3,3.2,0.6c0,50.8,0,101.5,0,153.6
				c-55,0-110,0-165,0C384.7,340.8,384.7,289.5,384.7,238.1z M428.7,370c17.3,0,33.9,0.5,50.4-0.3c6.1-0.3,12.5-2.8,17.8-6
				c19.3-11.6,18.7-37.4-0.9-48.6c-2.5-1.4-5.2-2.6-7.9-3.9c22.8-16.6,11.8-43.6-7.8-49.3c-17-4.9-34.2-2.1-51.7-2.7
				C428.7,296.6,428.7,332.9,428.7,370z"/>
			<path fill="#FFFFFF" d="M661.5,439.4c7.3,0,14.1-0.1,20.9,0c24.2,0.3,48.4-0.2,72.5,1.3c33.7,2.1,60,22,68,50.2
				c8.7,30.6,1.4,68.5-35.4,85.2c-0.9,0.4-1.6,1-3,1.9c16.7,27.6,33.2,55.1,50.5,83.8c-16.4,0-31.5,0.2-46.5-0.2
				c-2.1-0.1-4.6-3-6-5.2c-12.7-21.4-25.3-42.9-37.5-64.6c-2.7-4.7-5.7-6.4-11-6.2c-9.2,0.4-18.5,0.1-28.9,0.1c0,25.4,0,50.3,0,75.7
				c-15.2,0-29.2,0-43.6,0C661.5,587.4,661.5,513.8,661.5,439.4z M705.5,546.4c2.8,0,5.2,0,7.6,0c12.9-0.1,25.9,0.6,38.8-0.6
				c16.5-1.5,27.7-14.1,28.6-30.2c0.9-16-8.2-30.6-24-33.1c-16.6-2.6-33.8-2-51.1-2.8C705.5,503,705.5,524.4,705.5,546.4z"/>
			<path fill="#FFFFFF" d="M845.9,599.5c14.2-3.8,27.8-7.5,41.7-11.2c0.7,1.6,1.2,2.6,1.6,3.7c10,26.8,36.1,40.7,63.5,32.9
				c6.4-1.8,13-6.1,17.3-11.2c8.6-10,5.7-25.1-6.2-32.3c-9.3-5.6-19.8-9.2-29.9-13.4c-16.2-6.6-33-12-48.8-19.5
				c-14.4-6.7-25.1-17.9-29.3-33.8c-5-19-1.2-36.4,11.6-51.4c35.3-41.6,122-40,148.5,23c1.1,2.6,1.8,5.4,3,9
				c-14.3,4-28,7.8-41.6,11.5c-12.4-27.9-34.6-39.3-60-31.1c-3.4,1.1-6.9,2.7-9.8,4.8c-11.3,8.2-11.8,23.1-0.3,30.8
				c8.2,5.5,17.7,9.1,26.9,12.8c13.1,5.3,26.7,9.4,39.7,14.9c7.8,3.3,15.3,7.7,22.3,12.5c37.2,25.5,30.3,74.1,1.4,95.8
				c-22.4,16.8-47.9,20.9-75,17.7c-36-4.3-60.4-24-74-57.4C847.5,605.2,846.9,602.6,845.9,599.5z"/>
			<path fill="#FFFFFF" d="M929.6,238.5c0,50.9,0,101.6,0,152.9c-54.6,0-109.1,0-164,0c0-50.9,0-101.6,0-152.9
				C820.2,238.5,874.7,238.5,929.6,238.5z M897.3,341.2c-3.3,1.7-5.4,2.7-7.5,3.7c-12.4,6.4-25.4,9.9-39.5,9
				c-23.3-1.4-39.7-17.3-39.9-38.7c-0.1-20.8,16.1-37.2,38.8-39.2c14.1-1.2,27.1,2,39.6,8.2c2.1,1,4.2,2,7.4,3.4
				c0-6.4,0.3-11.8-0.2-17c-0.1-1.7-2-3.9-3.6-4.6c-18.5-7.5-37.5-10.8-57.3-5.8c-26.4,6.6-43.8,27.2-45.4,53.6
				c-1.4,21.7,13.6,44.4,35.9,52.9c22.8,8.7,45.5,6.6,67.6-3.2c1.7-0.7,3.6-2.9,3.8-4.5C897.6,353.5,897.3,347.9,897.3,341.2z"/>
			<path fill="#FFFFFF" d="M576,238.2c54.5,0,108.6,0,163.3,0c0,51.2,0,102.1,0,153.4c-54.4,0-108.5,0-163.3,0
				C576,340.8,576,289.9,576,238.2z M679.4,311.8c3.5-5.5,8.4-10.4,10.2-16.3c5.1-16.9-7-33.1-26.4-35.3
				c-12.3-1.4-24.9-0.6-37.3-1.3c-6.2-0.3-7.8,1.8-7.8,7.8c0.3,32,0.1,64,0.1,96c0,2.4,0.2,4.7,0.3,7.6c12.9,0,25.1,0,37.3,0
				c4.4,0,8.9,0.3,13.1-0.5c5.4-1.1,11-2.6,15.9-5c10.2-5,15.9-13.7,15.9-25.2c0-11.5-5.9-19.8-16-25.2
				C682.7,313.3,680.5,312.3,679.4,311.8z"/>
			<path fill="#FFFFFF" d="M1148.7,661.4c-15,0-29,0-43.8,0c0-60,0-119.8,0-180.5c-23.3,0-45.8,0-68.9,0c0-14.1,0-27.2,0-40.8
				c60.5,0,121,0,182,0c0,13.1,0,26.1,0,40.2c-22.8,0-45.6,0-69.3,0C1148.7,541.1,1148.7,601.1,1148.7,661.4z"/>
			<path fill="#FFFFFF" d="M614.1,661.3c-14.3,0-28.4,0-42.9,0c0-73.8,0-147.4,0-221.5c14.4,0,28.4,0,42.9,0
				C614.1,513.7,614.1,587.3,614.1,661.3z"/>
			<path fill="#FFFFFF" d="M449.1,353.5c10.6-0.7,20.3-0.8,29.8-2.3c6.8-1,11.1-5.8,11.2-13.2c0.1-7.5-4.4-12.2-11.1-13.2
				c-9.7-1.5-19.6-1.6-29.9-2.4C449.1,333.2,449.1,342.6,449.1,353.5z M449.2,306.1c7.8-1,15.1-1.3,22-3c6.7-1.7,9.3-7.3,8.9-14.2
				c-0.4-6.7-4.4-10.4-10.6-11.2c-6.6-0.9-13.4-0.9-20.3-1.2C449.2,286.7,449.2,295.7,449.2,306.1z"/>
			<path fill="#FFFFFF" d="M639,323.6c0,10,0,19.4,0,28.9c8.8,0,17.1,0.5,25.3-0.1c9.9-0.7,15.6-6.3,15.9-14.1
				c0.2-7.5-4.9-13.4-14.6-14.5C657,322.8,648.1,323.6,639,323.6z M638.8,306.3c8.2-1.2,15.7-1.6,22.8-3.5c6.5-1.7,8.8-7.3,8.5-13.7
				c-0.3-6.4-4-10.6-10.3-11.4c-6.8-0.9-13.8-1-21-1.4C638.8,286.5,638.8,295.4,638.8,306.3z"/>
			<path fill="#FFFFFF" d="M449.1,353.5c0-11,0-20.3,0-31.1c10.3,0.7,20.2,0.9,29.9,2.4c6.8,1,11.2,5.7,11.1,13.2
				c-0.1,7.5-4.4,12.2-11.2,13.2C469.4,352.7,459.7,352.8,449.1,353.5z"/>
			<path fill="#FFFFFF" d="M449.2,306.1c0-10.5,0-19.4,0-29.7c6.9,0.4,13.6,0.4,20.3,1.2c6.2,0.8,10.1,4.5,10.6,11.2
				c0.5,6.9-2.1,12.5-8.9,14.2C464.2,304.9,456.9,305.1,449.2,306.1z"/>
			<path fill="#FFFFFF" d="M639,323.6c9.2,0,18-0.7,26.6,0.2c9.7,1,14.8,7,14.6,14.5c-0.3,7.9-6,13.4-15.9,14.1
				c-8.2,0.6-16.5,0.1-25.3,0.1C639,343,639,333.6,639,323.6z"/>
			<path fill="#FFFFFF" d="M638.8,306.3c0-10.9,0-19.8,0-29.9c7.2,0.5,14.2,0.5,21,1.4c6.3,0.8,9.9,5,10.3,11.4
				c0.3,6.4-2,12-8.5,13.7C654.5,304.7,647,305.1,638.8,306.3z"/>
		</g>
	</g>
</g>
<g id="Laag_2" display="none">
</g>
</svg>
