<?xml version="1.0" encoding="utf-8"?>
<!-- Generator: Adobe Illustrator 22.1.0, SVG Export Plug-In . SVG Version: 6.00 Build 0)  -->
<svg version="1.2" baseProfile="tiny" xmlns="http://www.w3.org/2000/svg" xmlns:xlink="http://www.w3.org/1999/xlink" x="0px"
	 y="0px" viewBox="0 0 1600 900" xml:space="preserve">
<g id="Layer_1">
	<g>
		<polygon fill-rule="evenodd" fill="#E4222A" points="396.6,153.6 1213.4,153.6 1213.4,753.6 396.6,753.6 396.6,153.6 		"/>
		<path fill-rule="evenodd" fill="#FFFFFF" d="M935.8,297.3c-0.4-0.1-0.9-0.2-1.4-0.2l-0.5-0.1c-0.8-0.1-1.6-0.2-2.4-0.3
			c-0.5-0.1-1.1-0.1-1.6-0.1c-1-0.1-1.9-0.1-2.8-0.1c-0.4,0-0.7,0-1.1,0c-0.8,0-1.5,0.1-2.3,0.1c-0.4,0-0.8,0.1-1.2,0.1
			c-0.6,0-1.2,0.1-1.8,0.2l-0.5,0.1l-0.5,0.1l-0.7,0.1c-0.3,0-0.6,0.1-0.9,0.1c-0.4,0.1-0.8,0.2-1.2,0.2c-2.4,0.5-4.7,1.2-6.7,2
			c-1.1,0.4-2.1,0.9-3.1,1.3c-0.8,0.4-1.6,0.8-2.3,1.2c-0.7,0.4-1.4,0.8-2.1,1.3c-0.4,0.3-0.8,0.5-1.1,0.8c-0.3,0.2-0.6,0.5-0.9,0.7
			c-0.6,0.5-1.3,1-1.8,1.5c-0.6,0.5-1.1,1-1.6,1.5c-0.4,0.4-0.9,0.9-1.3,1.3c-0.4,0.4-0.8,0.9-1.2,1.4c-0.4,0.5-0.8,1.1-1.2,1.6
			c-0.3,0.4-0.6,0.8-0.9,1.3c-0.2,0.3-0.4,0.6-0.5,0.9c-1.1,1.7-2,3.6-2.8,5.6c-1,2.5-1.6,5.1-2,8c-0.1,0.9-0.2,1.8-0.3,2.7
			c0,0.7-0.1,1.4-0.1,2.2c0,0.5,0,1.1,0,1.6c0,0.6,0.1,1.1,0.1,1.7l0,0.4c0.1,0.7,0.2,1.3,0.3,1.9c0.1,0.3,0.1,0.5,0.1,0.7
			c0.1,0.5,0.2,1,0.4,1.6c0.2,0.7,0.4,1.3,0.6,1.9c0.3,0.8,0.5,1.5,0.8,2.3c0.5,1.2,1,2.3,1.6,3.4c0.3,0.6,0.7,1.2,1.1,1.8
			c0.3,0.5,0.6,0.9,0.9,1.4c0.4,0.6,0.8,1.1,1.2,1.7c0.4,0.6,0.9,1.1,1.3,1.6c0.5,0.6,1.1,1.2,1.6,1.7l0.3,0.3
			c0.4,0.4,0.9,0.9,1.5,1.3c0.4,0.3,0.8,0.6,1.2,1c0.4,0.3,0.8,0.6,1.2,0.9c0.5,0.4,1.1,0.7,1.6,1.1c0.6,0.4,1.3,0.8,1.9,1.2
			c1.4,0.8,2.8,1.5,4.5,2.1c0.6,0.2,1.2,0.5,1.9,0.7c0.7,0.2,1.3,0.4,2,0.6c1.2,0.3,2.4,0.6,3.7,0.9c1,0.2,2.1,0.4,3.2,0.5
			c1.1,0.1,2.3,0.2,3.5,0.3c0.6,0,1.2,0,1.8,0.1c0.3,0,0.6,0,0.8,0c2.1,0,4.1-0.1,6-0.2l0.4,0c0.7-0.1,1.5-0.1,2.1-0.2
			c1-0.1,2.1-0.3,3-0.5c0.6-0.1,1.2-0.2,1.7-0.3c0.9-0.2,1.7-0.4,2.5-0.6c0.6-0.1,1.2-0.3,1.7-0.5c0.6-0.2,1.3-0.4,1.9-0.6l0.6-0.2
			c0.3-0.1,0.7-0.2,1.2-0.4c0.6-0.2,1.4-0.5,2.2-0.9c0.5-0.2,1-0.4,1.6-0.7c0.5-0.2,1-0.5,1.6-0.7c0.2-0.1,0.4-0.2,0.7-0.3v-13.1
			c-0.1,0.1-0.3,0.2-0.5,0.3l-0.9,0.5c-0.9,0.5-1.8,1.1-2.6,1.5c-1,0.5-1.9,1-2.8,1.4c-1.6,0.8-3.2,1.4-4.7,1.9
			c-2.9,1-5.5,1.7-7.8,2.1c-0.3,0-0.5,0.1-0.8,0.1c-0.6,0.1-1.3,0.2-1.8,0.2c-0.9,0.1-1.8,0.1-2.5,0.2c-0.5,0-1,0-1.4,0
			c-0.9,0-1.9,0-2.8-0.1c-1.1-0.1-2.3-0.2-3.5-0.4c-1.9-0.3-3.8-0.8-5.7-1.5c-0.3-0.1-0.5-0.2-0.8-0.3c-0.2-0.1-0.4-0.2-0.5-0.2
			c-0.3-0.1-0.6-0.3-0.9-0.4c-0.6-0.3-1.3-0.6-1.9-1c-0.3-0.2-0.6-0.3-0.9-0.5c-0.3-0.2-0.6-0.4-0.9-0.6c-0.4-0.3-0.8-0.5-1.1-0.8
			c-0.3-0.3-0.7-0.6-1-0.8l-0.4-0.4l-0.2-0.2l-0.1-0.1l-0.2-0.2c-0.6-0.6-1.1-1.2-1.6-1.7c-0.3-0.3-0.5-0.7-0.8-1
			c-0.2-0.3-0.5-0.7-0.7-1c-0.2-0.3-0.4-0.6-0.6-0.9c-0.3-0.5-0.5-0.9-0.7-1.4c-0.2-0.4-0.4-0.8-0.5-1.2c-0.3-0.7-0.5-1.3-0.7-1.9
			c-0.2-0.5-0.3-1-0.4-1.4c-0.3-1.4-0.5-2.6-0.6-3.7c0-0.4-0.1-0.8-0.1-1.1c0-0.5,0-1,0-1.3c0-0.2,0-0.5,0-0.8
			c0-0.7,0.1-1.7,0.2-2.8c0.1-0.7,0.2-1.4,0.4-2.1c0.1-0.5,0.3-1,0.4-1.5c0.1-0.5,0.3-0.9,0.5-1.4c0.1-0.3,0.3-0.6,0.4-1
			c0.2-0.5,0.4-0.9,0.6-1.3c0.2-0.3,0.4-0.7,0.6-1c0.4-0.7,0.9-1.5,1.5-2.2c0.2-0.3,0.4-0.5,0.6-0.8c0.3-0.3,0.6-0.7,0.9-1
			c0.2-0.2,0.3-0.3,0.5-0.5c2.4-2.4,5.1-4.2,7.9-5.5c0.4-0.2,0.9-0.4,1.3-0.6c0.5-0.2,0.9-0.3,1.3-0.5c0.5-0.2,1-0.3,1.4-0.4
			c0.5-0.1,0.9-0.2,1.4-0.4c0.5-0.1,0.9-0.2,1.4-0.3c0.5-0.1,1-0.2,1.5-0.2c0.5-0.1,1-0.1,1.5-0.2c1-0.1,1.9-0.1,2.8-0.1
			c0.3,0,0.6,0,0.9,0c0.7,0,1.3,0,2,0.1c0.5,0,0.9,0,1.3,0.1c0.8,0.1,1.6,0.2,2.4,0.3c0.7,0.1,1.3,0.2,1.9,0.3
			c0.9,0.2,1.8,0.4,2.6,0.6c0.5,0.1,1,0.3,1.4,0.4c0.6,0.2,1.2,0.4,1.6,0.5c0.7,0.3,1.1,0.4,1.1,0.4c0.6,0.2,1.3,0.5,1.9,0.7
			c0.8,0.3,1.6,0.7,2.4,1c0.6,0.3,1.2,0.6,1.8,0.9c0.5,0.2,0.9,0.5,1.3,0.7c0.7,0.4,1.3,0.7,1.8,1l1.3,0.7v-12.9
			c0,0-0.8-0.3-2.2-0.9c-0.6-0.2-1.3-0.5-2.2-0.8c-0.5-0.2-0.9-0.3-1.4-0.5c-0.4-0.1-0.8-0.3-1.3-0.4c-0.5-0.2-1-0.3-1.5-0.5
			c-0.4-0.1-0.8-0.2-1.1-0.3l-0.4-0.1c-0.4-0.1-0.8-0.2-1.2-0.3c-0.5-0.1-0.9-0.3-1.4-0.4c-0.3-0.1-0.6-0.2-0.9-0.2
			c-0.5-0.1-1-0.2-1.5-0.3C936.8,297.5,936.3,297.4,935.8,297.3L935.8,297.3z M871.5,284h102v96h-102V284L871.5,284z"/>
		<path fill-rule="evenodd" fill="#FFFFFF" d="M793.1,336.9v18.9h12.3c0,0,0.2,0,0.7,0c0.4,0,1,0,1.7-0.1c1.3-0.1,3.1-0.4,4.8-1
			c1.5-0.5,3-1.3,4.2-2.4c0.4-0.4,0.8-0.9,1.1-1.4c0.9-1.5,1.2-3,1.3-3.9c0-0.4,0-0.6,0-0.6s0-0.2,0-0.4c0-0.4,0-1.1-0.2-1.8
			c-0.2-0.9-0.7-1.9-1.4-2.9c-0.1-0.2-0.3-0.4-0.5-0.5c-0.3-0.3-0.7-0.7-1.1-1c-0.7-0.5-1.4-0.9-2.3-1.3c-1.1-0.5-2.3-0.8-3.7-1.1
			c-0.7-0.1-1.4-0.2-2.2-0.3c-0.5,0-0.9-0.1-1.4-0.1c-0.4,0-0.9,0-1.3,0C800.6,336.9,793.1,336.9,793.1,336.9L793.1,336.9z"/>
		<path fill-rule="evenodd" fill="#FFFFFF" d="M793.1,308.2v17.9h5.9c0,0,0.4,0,0.9,0c0.4,0,0.9,0,1.3-0.1c1.2-0.1,2.9-0.3,4.6-0.7
			c0.3-0.1,0.7-0.2,1-0.3c1.3-0.5,2.6-1.2,3.6-2.1c0.8-0.8,1.3-1.6,1.6-2.5c0.4-1,0.6-2,0.6-2.7c0.1-0.6,0.1-1,0.1-1s0-0.3,0-0.8
			c0-0.8-0.2-2.1-0.8-3.3c-0.3-0.6-0.7-1.1-1.3-1.7c-0.7-0.7-1.5-1.2-2.3-1.5c-1.7-0.7-3.6-1-5.2-1.1c-0.7,0-1.3-0.1-1.9-0.1
			C800.1,308.2,793.1,308.2,793.1,308.2L793.1,308.2z"/>
		<path fill-rule="evenodd" fill="#FFFFFF" d="M780.8,297.4v69.1h26c0,0,12.7,0.4,19.7-6.7c5.7-5.7,5.3-12.3,5.3-12.3
			s0.4-6.9-4.9-12.2c-4.5-4.5-10.2-5.7-10.2-5.7s2.6-1.2,4.6-3.2c0.9-0.9,4.3-3.9,4.3-11.2c0-7.3-4.9-11.6-4.9-11.6
			s-5.3-6.3-17.4-6.3H780.8L780.8,297.4z M754,284h102v96H754V284L754,284z"/>
		<path fill-rule="evenodd" fill="#FFFFFF" d="M675.6,336.9v18.9h12.2c0,0,0.2,0,0.6,0c0.4,0,1,0,1.7-0.1c1.3-0.1,3.1-0.4,4.8-1
			c1.5-0.5,3-1.3,4.2-2.4c0.4-0.4,0.8-0.9,1.1-1.4c1-1.5,1.2-3,1.3-3.9c0-0.4,0-0.6,0-0.6s0-0.2,0-0.4c0-0.4-0.1-1.1-0.3-1.8
			c-0.2-0.9-0.7-1.9-1.4-2.9c-0.2-0.2-0.3-0.4-0.5-0.5c-0.3-0.3-0.7-0.7-1.1-1c-0.7-0.5-1.4-0.9-2.3-1.3c-1.1-0.5-2.3-0.8-3.7-1.1
			c-0.7-0.1-1.4-0.2-2.2-0.3c-0.5,0-0.9-0.1-1.4-0.1c-0.4,0-0.9,0-1.3,0C683.1,336.9,675.6,336.9,675.6,336.9L675.6,336.9z"/>
		<path fill-rule="evenodd" fill="#FFFFFF" d="M675.6,308.2v17.9h5.9c0,0,0.4,0,0.9,0c0.4,0,0.9,0,1.3-0.1c1.2-0.1,2.9-0.3,4.6-0.7
			c0.3-0.1,0.7-0.2,1-0.3c1.3-0.5,2.6-1.2,3.6-2.1c0.8-0.8,1.3-1.6,1.6-2.5c0.4-1,0.6-2,0.6-2.7c0.1-0.6,0-1,0-1s0-0.3,0-0.8
			c0-0.8-0.2-2.1-0.8-3.3c-0.3-0.6-0.7-1.1-1.3-1.7c-0.7-0.7-1.5-1.2-2.3-1.5c-1.7-0.7-3.6-1-5.2-1.1c-0.7,0-1.3-0.1-1.9-0.1
			C682.6,308.2,675.6,308.2,675.6,308.2L675.6,308.2z"/>
		<path fill-rule="evenodd" fill="#FFFFFF" d="M663.3,297.4v69.1h26c0,0,12.7,0.4,19.7-6.7c5.7-5.7,5.3-12.3,5.3-12.3
			s0.4-6.9-4.9-12.2c-4.5-4.5-10.2-5.7-10.2-5.7s2.6-1.2,4.6-3.2c0.9-0.9,4.3-3.9,4.3-11.2c0-7.3-4.9-11.6-4.9-11.6
			s-5.3-6.3-17.4-6.3H663.3L663.3,297.4z M636.5,284h102v96h-102V284L636.5,284z"/>
		<path fill-rule="evenodd" fill="#FFFFFF" d="M525,517.7c0,48.9,37.3,92.5,96.2,92.5c61.1,0,97.6-43.9,97.6-92.5
			c0-50.2-37.5-92.5-97-92.5C563.3,425.2,525,467.8,525,517.7L525,517.7z M551.7,517.7c0-39.6,29.9-68.7,70.1-68.7
			c40.5,0,70.3,29.1,70.3,68.7c0,39.4-29.9,68.7-70.3,68.7C581.6,586.5,551.7,557.1,551.7,517.7L551.7,517.7z"/>
		<polygon fill-rule="evenodd" fill="#FFFFFF" points="913.2,427.6 888.8,427.6 888.8,567.2 766.7,427.6 746.1,427.6 746.1,607.9 
			770.4,607.9 770.4,469.1 891,607.9 913.2,607.9 913.2,427.6 		"/>
		<polygon fill-rule="evenodd" fill="#FFFFFF" points="1051.8,427.6 949.5,427.6 949.5,607.9 1054.2,607.9 1054.2,584.6 
			975.4,584.6 975.4,528.6 1049.2,528.6 1049.2,505.3 975.4,505.3 975.4,450.8 1051.8,450.8 1051.8,427.6 		"/>
	</g>
</g>
<g id="Laag_2" display="none">
</g>
</svg>
