<?xml version="1.0" encoding="utf-8"?>
<!-- Generator: Adobe Illustrator 22.1.0, SVG Export Plug-In . SVG Version: 6.00 Build 0)  -->
<svg version="1.1" id="Layer_1" xmlns="http://www.w3.org/2000/svg" xmlns:xlink="http://www.w3.org/1999/xlink" x="0px" y="0px"
	 viewBox="0 0 1599.999 900" enable-background="new 0 0 1599.999 900" xml:space="preserve">
<g>
	<polygon fill="#FFFFFF" points="757.456,652.363 251.227,360.094 250.642,542.295 756.876,834.564 1259.818,542.292 
		1260.399,360.09 	"/>
	<g>
		<g>
			<g>
				<path fill="#000104" d="M1197.126,417.25c17.988-11.444,42.712-21.738,41.334,3.496c-0.298,5.499-2.885,10.349-6.202,14.254
					c-3.551,4.174-8.056,6.552-13.004,8.432c-9.262,3.511-16.641,10.16-21.652,18.692c-5.383,9.166-6.329,19.868-6.351,23.543
					c-0.037,5.115,1.526,23.141,15.799,14.411c1.69-1.038,3.235-2.189,4.784-3.544c3.63-3.406,6.511-7.933,7.11-13.83l-6.098,3.771
					c-7.114,4.385-6.995-7.654-6.988-8.257c0.134-13.417,6.574-17.43,6.917-17.642l24.723-15.498
					c0.376-0.238,7.505-4.735,7.245,8.477c-0.875,44.744-12.259,76.898-42.317,95.11c-22.698,13.577-46.267,0.119-46.386-41.308
					C1155.922,465.736,1173.616,432.078,1197.126,417.25z"/>
			</g>
		</g>
	</g>
	<g>
		<g>
			<g>
				<path fill="#000104" d="M552.781,553.828c31.406,18.986,56.248,59.49,56.006,102.336c-0.234,41.535-25.367,53.522-56.78,34.536
					c-29.213-17.653-54.83-57.275-54.584-100.932C497.665,546.923,522.25,535.382,552.781,553.828z M555.212,643.645
					c9.657,4.772,13.916-2.49,12.985-14.005c-0.945-11.678-6.351-23.911-16.447-28.9c-9.944-4.921-13.894,2.68-12.952,14.363
					C539.721,626.617,545.562,638.868,555.212,643.645"/>
			</g>
		</g>
		<path fill="#000104" d="M721.589,651.396c-6.526-3.786-13.352-3.697-17.957,0.015l-22.806,17.869l-25.125-46.758
			c-2.596-5.022-8.184-14.169-16.453-18.975c-4.086-2.375-7.77-3.578-10.949-3.578c-12.453,0-12.879,16.939-12.886,18.867
			L614.929,700c-0.335,6.131,0.073,27.016,19.364,38.304c1.962,1.147,3.875,1.728,5.687,1.728c10.612,0,13.443-18.368,13.443-29.206
			l0.099-13.149l20.019,32.932c1.087,2.259,2.991,4.259,5.357,5.629c2.718,1.59,5.809,1.08,8.782-1.336l15.379-10.614l-0.134,22.456
			c0,14.653,1.659,35.061,15.991,43.099c4.079,2.286,7.751,3.447,10.913,3.447h0.004c9.46-0.004,12.872-10.186,12.918-18.934
			l0.48-83.432C743.243,688.173,742.729,663.688,721.589,651.396z"/>
		<g>
			<g>
				<path fill="#000104" d="M357.952,509.594c16.685,14.921,17.966,29.723,17.906,39.149c-0.127,21.73-12.047,29.842-41.204,12.888
					l-39.41-23.059c-24.756-14.392-24.466-39.116-24.462-40.069l0.465-79.202c0.004-0.953,0.004-25.84,24.764-11.451l39.41,23.063
					c29.157,16.95,40.902,38.818,40.772,60.551C376.141,500.89,374.697,514.11,357.952,509.594z M324.737,523.112
					c6.221,3.615,8.678,0.048,8.704-4.203c0.034-5.566-2.662-11.764-8.131-14.94l-11.853-6.895l-0.116,19.411L324.737,523.112
					 M325.471,477.064c5.469,3.179,8.216,0.145,8.246-5.421c0.026-4.251-2.375-10.64-8.596-14.258l-11.396-6.627l-0.112,19.411
					L325.471,477.064"/>
			</g>
		</g>
		<g>
			<g>
				<path fill="#000104" d="M438.107,489.595c31.383,18.972,55.016,59.594,54.777,102.44c-0.238,41.535-24.161,53.404-55.548,34.432
					c-29.213-17.653-56.895-58.254-56.653-101.908C380.929,481.711,407.591,471.149,438.107,489.595z M438.506,578.377
					c9.891,4.199,13.749-3.287,12.133-14.727c-1.623-11.608-7.743-23.506-18.115-27.91c-10.219-4.337-13.715,3.481-12.084,15.085
					C422.04,562.268,428.588,574.162,438.506,578.377"/>
			</g>
		</g>
	</g>
	<g>
		<g>
			<g>
				<path fill="#000104" d="M1083.677,485.809c5.089-2.938,9.504-1.452,12.296,1.951l22.158,27.53l-0.067-23.1
					c-0.003-0.949-2.312-25.758,13.875-35.102c16.406-9.471,16.351,15.405,16.354,16.358l0.227,81.031
					c0.004,1.15,0.074,25.955-16.209,35.355c-3.358,1.94-6.213,1.24-9.687-2.725l-22.404-28.602l0.067,24.615
					c0.003,1.143,0.074,25.952-16.235,35.367c-16.157,9.329-16.228-15.476-16.231-16.622l-0.231-80.967
					C1067.591,519.944,1067.521,495.139,1083.677,485.809z"/>
			</g>
		</g>
		<g>
			<g>
				<path fill="#000104" d="M837.634,629.755c1.314-0.759,16.306-9.225,16.362,10.584c0.06,20.36-15.52,29.35-16.25,29.775
					l-27.601,15.934l0.034,11.552l28.598-16.511c5.015-2.896,10.744-3.119,10.77,7.059c0.034,10.964-5.681,17.147-10.692,20.04
					l-28.599,16.511l0.03,11.358l27.601-15.937c1.318-0.759,16.31-9.225,16.365,10.584c0.056,20.386-15.52,29.38-16.25,29.801
					l-45.757,26.417c-22.151,12.791-22.072-12.103-22.076-13.246l-0.223-79.039c-0.004-0.95-0.22-25.676,23.074-39.123
					L837.634,629.755z"/>
			</g>
		</g>
	</g>
	<g>
		<g>
			<path fill="#000104" d="M1060.897,594.47c2.208,4.304,3.172,8.76,3.183,13.179c0.041,13.845-9.236,27.098-18.264,32.31
				c-5.621,3.246-10.844,1.444-13.592-4.114l-3.168-8.172l-33.27,19.21l-4.315,15.356c-2.733,8.719-7.899,16.522-13.521,19.768
				c-8.205,4.735-20.074,2.103-20.118-12.133c-0.007-4.222,0.748-8.667,2.803-15.032l34.093-105.75
				c1.497-4.534,5.149-14.932,15.297-20.792c10.249-5.919,15.993-0.558,17.512,2.23L1060.897,594.47z M1004.058,614.964
				l20.193-11.068l-9.467-30.411L1004.058,614.964"/>
		</g>
	</g>
	<g>
		<g>
			<g>
				<path fill="#000104" d="M754.165,67.818l506.233,292.273L757.456,652.363L251.227,360.094L754.165,67.818z"/>
			</g>
		</g>
		<g>
			<g>
				<path fill="#FFFFFF" d="M1024.187,286.878L794.39,156.737l-21.507-12.181c-13.625-5.048-33.338-7.241-57.208,4.542
					L398.75,333.458c0,0-29.276,15.401-7.959,33.181l259.822,149.824c76.522,45.686,160.631,51.129,231.725,13
					c46.706-25.051,46.699-67.784,23.409-95.389c38.397,10.457,89.116,9.501,133.276-14.217
					C1113.192,380.022,1104.871,332.575,1024.187,286.878"/>
			</g>
			<g>
				<path fill="#000104" d="M857.834,307.636l-38.047-21.842c-0.506-0.238-1.027-0.495-1.627-0.879
					c-7.025-4.467-12.754-3.57-16.228-2.141l-3.142,1.742c-0.32,0.238-0.502,0.398-0.502,0.398l-0.09-0.071l-31.539,17.508
					l0.045,0.13c0,0-7.453,5.856,0,10.647c0.06,0.037,0.074,0.07,0.127,0.108l39.458,22.813
					c19.508,11.272,39.652,12.613,56.664,3.272C880.014,329.958,877.475,318.913,857.834,307.636"/>
			</g>
			<g>
				<path fill="#000104" d="M724.275,390.152l-44.666-26.13c-0.852-0.212-1.835-0.611-3.045-1.385
					c-5.115-3.257-9.553-3.663-12.933-3.097l-42.153,23.402c-1.493,2.141-2.561,5.491,2.029,8.443
					c0.026,0.015,0.034,0.03,0.056,0.048l47.536,28.003c18.551,10.93,40.247,11.31,55.671,2.848
					C743.511,413.103,742.964,401.086,724.275,390.152"/>
			</g>
		</g>
	</g>
	<g>
		<g>
			<path fill="#000104" d="M939.836,635.395c13.477-1.422,13.354,7.974,13.399,24.142l0.03,9.422
				c0,1.147-0.078,24.697-20.036,36.223c-19.787,11.421-16.54-15.36-16.544-16.507l-0.048-17.505
				c-0.03-9.985-2.446-10.722-4.71-9.411l-10.104,7.237l0.086,30.177c0.004,1.173-0.372,24.302-19.746,35.486
				c-19.079,11.019-19.85-11.451-19.854-12.624l-0.231-80.938c-0.003-0.953-0.22-25.676,22.832-38.981l36.51-21.555
				c27.161-15.68,34.704-5.018,34.763,16.712C956.209,606.309,954.958,620.504,939.836,635.395z M913.925,636.884
				c5.085-2.937,7.628-9.028,7.613-14.593c-0.011-4.251-2.29-10.744-8.108-7.386l-14.958,9.467l0.059,22.229l10.718-6.545"/>
		</g>
	</g>
</g>
</svg>
