<?xml version="1.0" encoding="utf-8"?>
<!-- Generator: Adobe Illustrator 22.1.0, SVG Export Plug-In . SVG Version: 6.00 Build 0)  -->
<svg version="1.2" baseProfile="tiny" xmlns="http://www.w3.org/2000/svg" xmlns:xlink="http://www.w3.org/1999/xlink" x="0px"
	 y="0px" viewBox="0 0 1600 900" xml:space="preserve">
<g id="Layer_1">
	<g>
		<g>
			<rect x="108.1" y="322" fill="#A51125" width="1386.1" height="256.4"/>
		</g>
		<path fill="#FFFFFF" d="M145.1,358.9h185.1V544H145.1L145.1,358.9L145.1,358.9z M471.5,547.2c-54.1,0-94.2-41.7-94.2-94.5v-0.5
			c0-52.2,39.4-95,95.8-95c34.6,0,55.4,11.5,72.4,28.3l-25.7,29.7c-14.2-12.9-28.6-20.7-47-20.7c-31,0-53.3,25.7-53.3,57.2v0.5
			c0,31.5,21.8,57.7,53.3,57.7c21,0,33.9-8.4,48.3-21.5l25.7,26C528,534.6,507,547.2,471.5,547.2L471.5,547.2z M552.9,544l78.7-185
			h37.3l78.7,185h-42.3l-16.8-41.2h-77.7L594.1,544H552.9L552.9,544z M625.3,467.1h48.8l-24.4-59.6L625.3,467.1L625.3,467.1z
			 M770.6,544V360.3h37.3L894,473.4V360.3h39.9V544h-34.4l-89-116.8V544H770.6L770.6,544z M1031.2,545.3l-74.3-185h44.6l48,129.4
			l48-129.4h43.6l-74.3,185H1031.2L1031.2,545.3z M1111.8,544l78.7-185h37.3l78.7,185h-42.3l-16.8-41.2h-77.7L1153,544H1111.8
			L1111.8,544z M1184.3,467.1h48.8l-24.4-59.6L1184.3,467.1L1184.3,467.1z M1389.7,546.6c-27.8,0-55.9-9.7-77.9-29.4l23.9-28.6
			c16.5,13.6,33.9,22.3,54.9,22.3c16.5,0,26.5-6.6,26.5-17.3v-0.5c0-10.2-6.3-15.5-37-23.4c-37-9.4-60.9-19.7-60.9-56.2v-0.5
			c0-33.3,26.8-55.4,64.3-55.4c26.8,0,49.6,8.4,68.2,23.4l-21,30.4c-16.3-11.3-32.3-18.1-47.8-18.1c-15.5,0-23.6,7.1-23.6,16v0.5
			c0,12.1,7.9,16,39.6,24.1c37.3,9.7,58.3,23.1,58.3,55.1v0.5C1457.2,526.2,1429.3,546.6,1389.7,546.6L1389.7,546.6z"/>
	</g>
</g>
<g id="Laag_2" display="none">
</g>
</svg>
