<?xml version="1.0" encoding="utf-8"?>
<!-- Generator: Adobe Illustrator 22.1.0, SVG Export Plug-In . SVG Version: 6.00 Build 0)  -->
<svg version="1.1" id="Layer_1" xmlns="http://www.w3.org/2000/svg" xmlns:xlink="http://www.w3.org/1999/xlink" x="0px" y="0px"
	 viewBox="0 0 1600 900" enable-background="new 0 0 1600 900" xml:space="preserve">
<g>
	<rect x="788.196" y="167.949" fill="#FFFFFF" width="471.442" height="471.443"/>
	<rect x="788.196" y="167.949" fill="#FFFFFF" width="471.442" height="471.443"/>
	<rect x="316.751" y="167.949" fill="#0E0F0E" width="471.445" height="471.443"/>
	<path fill="#FFFFFF" d="M631.44,441.233c-13.06,22.807-37.581,38.205-65.738,38.205c-41.838,0-75.766-33.93-75.766-75.77
		c0-41.838,33.928-75.771,75.766-75.771c28.157,0,52.678,15.408,65.738,38.209l116.978-66.846
		c-36.277-63.346-104.483-106.057-182.716-106.057c-116.243,0-210.467,94.221-210.467,210.465
		c0,116.242,94.225,210.465,210.467,210.465c78.234,0,146.44-42.707,182.716-106.051L631.44,441.233z"/>
	<polygon fill="#0E0F0E" points="1225.966,605.721 1225.966,201.623 1091.267,201.623 1091.267,369.996 956.57,201.623 
		821.872,201.623 821.872,605.721 956.57,605.721 956.57,437.348 1091.267,605.721 	"/>
	<polygon fill="#1D1D1B" points="1026.625,715.258 1033.438,730.797 1049.434,730.797 1060.45,673.065 1041.057,673.065 
		1036.249,698.418 1026.625,675.07 1017.003,698.418 1012.191,673.065 992.799,673.065 1003.81,730.797 1019.813,730.797 	"/>
	<polygon fill="#1D1D1B" points="988.14,673.065 930.411,673.065 930.411,689.902 948.451,689.902 948.451,730.797 970.099,730.797 
		970.099,689.902 988.14,689.902 	"/>
	<path fill="#1D1D1B" d="M1091.871,671.867c-16.608,0-30.065,13.459-30.065,30.062c0,16.606,13.457,30.066,30.065,30.066
		c16.607,0,30.064-13.461,30.064-30.066C1121.934,685.326,1108.478,671.867,1091.871,671.867 M1091.871,712.754
		c-5.978,0-10.826-4.844-10.826-10.824c0-5.979,4.848-10.82,10.826-10.82c5.977,0,10.825,4.842,10.825,10.82
		C1102.696,707.91,1097.848,712.754,1091.871,712.754"/>
	<polygon fill="#1D1D1B" points="865.466,730.797 865.466,673.065 846.224,673.065 846.224,697.119 826.981,673.065 
		807.739,673.065 807.739,730.797 826.981,730.797 826.981,706.742 846.224,730.797 	"/>
	<polygon fill="#1D1D1B" points="924.099,689.902 924.099,673.065 873.584,673.065 873.584,730.797 924.099,730.797 
		924.099,715.162 892.827,715.162 892.827,709.375 919.287,709.375 919.287,694.94 892.827,694.94 892.827,689.902 	"/>
	<path fill="#1D1D1B" d="M1182.967,693.512c0-10.48-8.286-20.447-21.645-20.447h-33.672v57.732h19.239v-16.838h6.113l8.473,16.838
		h21.491l-11.442-19.195C1178.217,708.176,1182.967,701.363,1182.967,693.512 M1146.89,689.902h12.027
		c2.658,0,4.812,2.158,4.812,4.807c0,2.664-2.154,4.815-4.812,4.815h-12.027V689.902z"/>
	<polygon fill="#1D1D1B" points="1247.313,673.065 1222.573,673.065 1208.226,691.969 1208.226,673.065 1188.985,673.065 
		1188.985,730.797 1208.226,730.797 1208.226,709.273 1222.573,730.797 1247.313,730.797 1224.85,700.834 	"/>
	<path fill="#1D1D1B" d="M433.961,730.846h20.444l-18.039-57.729h-28.863l-18.041,57.729h20.548l2.744-9.625h18.438L433.961,730.846
		z M416.87,706.791l5.062-17.742l5.105,17.742H416.87z"/>
	<polygon fill="#1D1D1B" points="578.18,673.117 520.452,673.117 520.452,689.957 538.493,689.957 538.493,730.846 560.142,730.846 
		560.142,689.957 578.18,689.957 	"/>
	<path fill="#1D1D1B" d="M372.703,707.785c-2.05,3.582-5.906,6.002-10.33,6.002c-6.575,0-11.905-5.334-11.905-11.91
		c0-6.57,5.33-11.9,11.905-11.9c4.424,0,8.28,2.42,10.33,5.998l15.701-9.012c-5.182-9.043-14.927-15.152-26.102-15.152
		c-16.607,0-30.068,13.461-30.068,30.066c0,16.609,13.461,30.068,30.068,30.068c11.175,0,20.92-6.1,26.102-15.15L372.703,707.785z"
		/>
	<path fill="#1D1D1B" d="M610.653,671.914c-16.606,0-30.068,13.459-30.068,30.064c0,16.611,13.462,30.07,30.068,30.07
		c16.603,0,30.067-13.459,30.067-30.07C640.719,685.373,627.256,671.914,610.653,671.914 M610.653,712.803
		c-5.979,0-10.824-4.844-10.824-10.824c0-5.973,4.845-10.822,10.824-10.822c5.978,0,10.823,4.85,10.823,10.822
		C621.476,707.959,616.631,712.803,610.653,712.803"/>
	<path fill="#1D1D1B" d="M675.596,671.914c-16.604,0-30.066,13.459-30.066,30.064c0,16.611,13.462,30.07,30.066,30.07
		c16.606,0,30.066-13.459,30.066-30.07C705.662,685.373,692.202,671.914,675.596,671.914 M675.596,712.803
		c-5.979,0-10.824-4.844-10.824-10.824c0-5.973,4.845-10.822,10.824-10.822c5.978,0,10.824,4.85,10.824,10.822
		C686.42,707.959,681.575,712.803,675.596,712.803"/>
	<polygon fill="#1D1D1B" points="769.104,730.846 769.104,673.117 749.862,673.117 749.862,697.166 730.62,673.117 711.375,673.117 
		711.375,730.846 730.62,730.846 730.62,706.791 749.862,730.846 	"/>
	<path fill="#1D1D1B" d="M515.341,693.565c0-10.484-8.292-20.447-21.649-20.447h-14.433h-12.024h-7.218v57.729h19.241v-16.84h6.114
		l8.469,16.84h21.498l-11.444-19.195C510.588,708.225,515.341,701.412,515.341,693.565 M479.259,689.957h12.028
		c2.656,0,4.811,2.15,4.811,4.807c0,2.656-2.155,4.811-4.811,4.811h-12.028V689.957z"/>
	<polygon fill="#1D1D1B" points="1266.164,715.066 1266.164,717.848 1261.457,717.848 1261.457,730.797 1258.154,730.797 
		1258.154,717.848 1253.426,717.848 1253.426,715.066 	"/>
	<path fill="#1D1D1B" d="M1278.519,715.066h4.732v15.73h-3.063v-10.641c0-0.309,0.003-0.736,0.012-1.283
		c0.006-0.555,0.009-0.977,0.009-1.277l-2.979,13.201h-3.194l-2.96-13.201c0,0.301,0.002,0.723,0.012,1.277
		c0.006,0.547,0.006,0.975,0.006,1.283v10.641h-3.06v-15.73h4.782l2.861,12.363L1278.519,715.066z"/>
</g>
</svg>
