<?xml version="1.0" encoding="utf-8"?>
<!-- Generator: Adobe Illustrator 22.1.0, SVG Export Plug-In . SVG Version: 6.00 Build 0)  -->
<svg version="1.1" id="Layer_1" xmlns="http://www.w3.org/2000/svg" xmlns:xlink="http://www.w3.org/1999/xlink" x="0px" y="0px"
	 viewBox="0 0 1600 900" enable-background="new 0 0 1600 900" xml:space="preserve">
<g>
	<path fill="#F06322" d="M206.696,415.853c-2.039-3.273-4.584-6.142-7.637-8.617c-3.055-2.472-6.512-4.399-10.365-5.782
		c-3.853-1.383-7.891-2.074-12.109-2.074c-7.712,0-14.258,1.492-19.636,4.473c-5.383,2.981-9.748,6.982-13.093,12
		c-3.347,5.019-5.781,10.73-7.308,17.129c-1.528,6.402-2.291,13.019-2.291,19.855c0,6.547,0.764,12.911,2.291,19.091
		c1.528,6.185,3.961,11.749,7.308,16.692c3.345,4.949,7.711,8.912,13.093,11.894c5.378,2.981,11.924,4.472,19.636,4.472
		c10.474,0,18.657-3.198,24.548-9.601c5.89-6.399,9.49-14.836,10.8-25.311h33.164c-0.873,9.748-3.129,18.546-6.765,26.402
		c-3.636,7.855-8.438,14.548-14.399,20.074c-5.965,5.529-12.949,9.746-20.947,12.653c-8.001,2.909-16.801,4.365-26.401,4.365
		c-11.928,0-22.658-2.072-32.183-6.219c-9.529-4.146-17.565-9.853-24.11-17.127c-6.548-7.273-11.565-15.818-15.054-25.637
		c-3.492-9.819-5.239-20.402-5.239-31.748c0-11.637,1.747-22.437,5.239-32.401c3.489-9.963,8.507-18.655,15.054-26.075
		c6.545-7.419,14.58-13.233,24.11-17.453c9.525-4.218,20.255-6.329,32.183-6.329c8.581,0,16.693,1.238,24.328,3.711
		c7.639,2.473,14.473,6.073,20.511,10.799c6.035,4.731,11.019,10.584,14.947,17.566c3.927,6.982,6.4,14.983,7.417,24.002h-33.165
		C210.041,422.727,208.73,419.127,206.696,415.853"/>
	<path fill="#F06322" d="M331.925,374.289c7.419,0,14.182,0.652,20.292,1.96c6.11,1.309,11.345,3.46,15.71,6.44
		c4.364,2.984,7.746,6.948,10.146,11.89c2.398,4.947,3.599,11.057,3.599,18.329c0,7.855-1.784,14.401-5.347,19.638
		c-3.565,5.237-8.833,9.529-15.818,12.873c9.602,2.764,16.763,7.603,21.492,14.51c4.727,6.91,7.092,15.239,7.092,24.982
		c0,7.855-1.528,14.659-4.583,20.403c-3.055,5.747-7.167,10.438-12.327,14.073c-5.167,3.637-11.06,6.328-17.675,8.073
		c-6.621,1.744-13.418,2.619-20.4,2.619h-75.494V374.289H331.925z M327.561,437.347c6.109,0,11.128-1.455,15.056-4.365
		c3.926-2.91,5.89-7.636,5.89-14.183c0-3.634-0.655-6.617-1.964-8.945c-1.309-2.327-3.056-4.146-5.237-5.456
		c-2.181-1.308-4.69-2.216-7.526-2.727c-2.837-0.508-5.783-0.764-8.839-0.764h-32.072v36.44H327.561z M329.524,503.456
		c3.344,0,6.546-0.325,9.6-0.98c3.055-0.655,5.746-1.745,8.071-3.272c2.327-1.527,4.182-3.599,5.565-6.218
		c1.382-2.62,2.074-5.963,2.074-10.038c0-7.998-2.255-13.708-6.763-17.127c-4.512-3.417-10.474-5.126-17.893-5.126h-37.31v42.762
		H329.524z"/>
	<path fill="#F06322" d="M436.783,491.674c1.888,3.639,4.397,6.584,7.526,8.84c3.128,2.256,6.798,3.925,11.02,5.016
		c4.216,1.09,8.58,1.636,13.089,1.636c3.056,0,6.33-0.252,9.82-0.763c3.491-0.508,6.765-1.49,9.819-2.947
		c3.056-1.452,5.598-3.451,7.637-5.999c2.035-2.543,3.055-5.783,3.055-9.708c0-4.219-1.348-7.637-4.038-10.256
		c-2.693-2.618-6.217-4.802-10.581-6.546c-4.365-1.746-9.312-3.273-14.839-4.583c-5.528-1.31-11.127-2.76-16.798-4.36
		c-5.821-1.455-11.494-3.238-17.021-5.349c-5.531-2.107-10.473-4.833-14.837-8.181c-4.363-3.346-7.892-7.527-10.58-12.545
		c-2.694-5.02-4.037-11.092-4.037-18.22c0-7.998,1.707-14.946,5.126-20.836c3.417-5.891,7.889-10.802,13.42-14.728
		c5.527-3.929,11.781-6.837,18.765-8.73c6.981-1.888,13.963-2.837,20.945-2.837c8.145,0,15.964,0.91,23.456,2.729
		c7.491,1.819,14.146,4.766,19.965,8.837c5.817,4.072,10.437,9.272,13.856,15.598c3.416,6.329,5.127,14.002,5.127,23.022h-33.164
		c-0.296-4.653-1.276-8.512-2.947-11.566c-1.675-3.053-3.894-5.454-6.654-7.2c-2.766-1.743-5.928-2.977-9.492-3.709
		c-3.565-0.725-7.454-1.091-11.672-1.091c-2.766,0-5.531,0.295-8.292,0.874c-2.764,0.581-5.275,1.6-7.528,3.053
		c-2.256,1.456-4.112,3.272-5.566,5.453c-1.454,2.185-2.179,4.948-2.179,8.293c0,3.056,0.579,5.529,1.746,7.418
		c1.162,1.892,3.451,3.637,6.871,5.236c3.417,1.605,8.145,3.202,14.184,4.801c6.034,1.603,13.927,3.637,23.673,6.11
		c2.91,0.584,6.944,1.636,12.111,3.164c5.161,1.529,10.288,3.965,15.382,7.309c5.091,3.35,9.491,7.822,13.201,13.42
		c3.708,5.6,5.564,12.762,5.564,21.491c0,7.129-1.385,13.746-4.145,19.856c-2.766,6.108-6.874,11.382-12.33,15.818
		c-5.454,4.439-12.217,7.893-20.291,10.364c-8.074,2.471-17.422,3.709-28.038,3.709c-8.584,0-16.91-1.056-24.981-3.164
		c-8.074-2.105-15.203-5.416-21.386-9.926c-6.182-4.508-11.091-10.256-14.726-17.239c-3.637-6.982-5.384-15.274-5.238-24.872h33.165
		C433.944,483.602,434.89,488.043,436.783,491.674"/>
	<path fill-rule="evenodd" clip-rule="evenodd" fill="#F06322" d="M620.531,375.018c-43.31,0-78.417,35.141-78.417,78.437
		c0,43.325,35.107,78.424,78.417,78.424c43.327,0,78.464-35.098,78.464-78.424C698.995,410.159,663.858,375.018,620.531,375.018
		 M620.531,499.57c-32.198-0.158-58.383-21.287-72.258-46.632c14.054-25.214,40.331-45.689,72.258-45.689
		c32.525,0,58.567,20.334,72.3,45.689C679.098,478.283,653.317,499.716,620.531,499.57"/>
	<path fill-rule="evenodd" clip-rule="evenodd" fill="#F06322" d="M620.531,495.061c22.974,0,41.585-18.662,41.585-41.606
		c0-22.928-18.611-41.577-41.585-41.577c-22.936,0-41.586,18.649-41.586,41.577C578.945,476.399,597.595,495.061,620.531,495.061"/>
	<path fill="#FBB800" d="M883.106,370.664c44.118,0,75.293,29.305,75.293,84.146c0,3.754,0.257,5.764,0,9.276H850.677
		c3.986,18.283,18.449,27.037,35.898,27.037c15.208,0,25.196-10.757,33.171-21.291c0,0,27.671,16.034,36.155,21.291
		c-13.455,24.056-39.393,40.086-71.545,40.086c-47.17,0-79.568-28.811-79.568-80.405
		C804.788,404.218,837.966,370.664,883.106,370.664 M852.415,431.519h58.106c-5.489-14.777-13.472-21.786-27.924-21.786
		C866.917,409.733,858.159,417.249,852.415,431.519"/>
	<path fill="#FBB800" d="M1039.744,370.665c18.707,0,30.432,6.251,44.147,18.776v-15.773h45.896v153.785h-46.615v-15.028
		c0,0-16.716,18.777-45.883,18.777c-42.671,0-71.845-30.563-71.845-79.891C965.445,408.479,997.115,370.665,1039.744,370.665
		 M1012.582,450.552c0,21.299,13.457,38.826,34.916,38.826c20.689,0,37.896-15.272,37.896-37.564
		c0-22.548-15.941-38.076-36.42-38.076C1026.797,413.739,1012.582,430.269,1012.582,450.552"/>
	<rect x="1143.495" y="335.593" fill="#FBB800" width="46.391" height="191.867"/>
	<path fill="#FBB800" d="M1229.551,306.268c15.447,0,28.173,12.302,28.173,27.802c0,15.8-12.726,28.554-28.694,28.554
		c-15.195,0-27.448-12.258-27.448-28.046C1201.583,319.057,1214.086,306.268,1229.551,306.268 M1206.096,373.668h46.377v153.799
		h-46.377V373.668z"/>
	<polygon fill="#FBB800" points="1276.208,527.453 1276.208,416.005 1260.987,416.005 1260.987,373.654 1276.208,373.654 
		1276.208,335.593 1322.829,335.593 1322.829,373.654 1347.503,373.654 1347.503,416.249 1322.829,416.249 1322.829,527.453 	"/>
	<path fill="#FBB800" d="M1454.619,373.154v89.424c0,15.529-9.228,25.306-25.925,25.306c-15.719,0-26.196-9.776-26.196-26.55
		v-88.179h-46.377v89.424c0,42.574,28.176,68.117,72.065,68.117c10.298,0,19.646-1.329,28.012-3.84l-0.016,1.483
		c0,16.802-14.124,24.296-29.437,24.296c-10.855,0-17.003-2.002-23.116-12.523h-49.25c4.714,34.556,35.822,53.622,71.413,53.622
		c40.522,0,74.208-24.812,74.208-72.406V373.154H1454.619z"/>
	<path fill="#FBB514" d="M759.724,456.569v70.896h-47.093v-153.81h45.341v24.296c3.754-11.529,18.038-27.308,36.57-27.308h10.514
		v48.094c0,0-5.749-2.997-16.279-2.997C770.746,415.741,759.724,426.757,759.724,456.569"/>
</g>
</svg>
