<?xml version="1.0" encoding="utf-8"?>
<!-- Generator: Adobe Illustrator 22.1.0, SVG Export Plug-In . SVG Version: 6.00 Build 0)  -->
<svg version="1.1" id="Layer_1" xmlns="http://www.w3.org/2000/svg" xmlns:xlink="http://www.w3.org/1999/xlink" x="0px" y="0px"
	 viewBox="0 0 1600 900" enable-background="new 0 0 1600 900" xml:space="preserve">
<g>
	<path fill="#BFAE62" d="M1382.471,284.216v209.347l-174.844-205.396c-2.134-2.507-5.261-3.951-8.552-3.951h-60.474v337.785h76.419
		V409.167l176.025,208.907c2.099,2.489,5.189,3.927,8.446,3.927h59.593V284.216H1382.471z"/>
	<path fill="#BFAE62" d="M395.44,548.487c-14.85,4.762-30.686,7.178-47.069,7.178c-21.172,0-40.428-4.372-57.238-12.986
		c-16.54-8.479-29.525-20.636-38.604-36.148c-9.112-15.584-13.735-33.523-13.735-53.307c0-19.329,4.66-37.117,13.853-52.853
		c9.157-15.668,22.198-27.99,38.763-36.628c16.801-8.753,35.965-13.192,56.961-13.192c17.03,0,33.583,2.426,49.212,7.222
		c10.166,3.116,20.564,7.376,32.043,13.065c0.74,0.367,0.523,0.248,1.267,0.623l31.313-60.844l-4.659-2.334
		c-20.37-10.186-39.66-17.516-57.328-21.764c-17.729-4.273-36.083-6.434-54.558-6.434c-35.041,0-67.055,7.337-95.147,21.821
		c-28.308,14.583-50.869,35.651-67.051,62.624c-16.174,26.949-24.377,57.722-24.377,91.453c0,31.587,7.963,61.068,23.673,87.609
		c15.726,26.61,37.651,47.27,65.166,61.425c27.256,14.012,58.542,21.117,92.991,21.117c23.514,0,44.446-2.409,62.212-7.171
		c17.677-4.72,37.265-12.754,58.216-23.876l3.732-1.987l-23.408-65.05C423.539,537.514,407.927,544.476,395.44,548.487z"/>
	<path fill="#BFAE62" d="M788.013,450.479l-51.269,0.042v-0.057h-18.042v12.473h0.009v80.238
		c-11.818,5.737-22.777,8.781-29.75,10.116c-8.235,1.573-17.025,2.376-26.124,2.376c-32.781,0-59.426-9.334-79.19-27.744
		c-19.844-18.476-29.488-42.302-29.488-72.861c0-19.982,4.611-38.31,13.701-54.466c8.994-15.992,21.857-28.431,38.238-36.968
		c16.667-8.68,36.054-13.077,57.642-13.077c29.269,0,59.349,6.656,89.659,19.61l31.16-60.869l-4.436-2.045
		c-39.158-18.021-79.228-27.163-119.096-27.163c-34.743,0-66.749,7.412-95.146,22.045c-28.618,14.75-51.248,35.743-67.279,62.393
		c-16.024,26.65-24.145,56.803-24.145,89.622c0,32.372,8.049,62.144,23.934,88.478c15.868,26.352,38.27,47.105,66.585,61.698
		c28.081,14.476,59.793,21.813,94.243,21.813c24.161,0,47.752-3.238,70.13-9.613c22.557-6.427,42.221-15.529,58.44-27.057
		l3.569-2.526v-133.1C791.359,451.986,789.863,450.485,788.013,450.479z"/>
	<polygon fill="#BFAE62" points="1081.095,284.216 808.751,284.216 808.751,349.631 918.692,349.631 918.692,622.001 
		997.657,622.001 997.657,349.631 1105.337,349.631 1105.337,305.797 1105.337,287.596 1105.337,284.216 1101.956,284.216 	"/>
</g>
</svg>
