<?xml version="1.0" encoding="utf-8"?>
<!-- Generator: Adobe Illustrator 22.1.0, SVG Export Plug-In . SVG Version: 6.00 Build 0)  -->
<svg version="1.1" id="Layer_1" xmlns="http://www.w3.org/2000/svg" xmlns:xlink="http://www.w3.org/1999/xlink" x="0px" y="0px"
	 viewBox="0 0 1600 900" enable-background="new 0 0 1600 900" xml:space="preserve">
<path fill="#EC2C3C" d="M1249.505,246.886l-70.843,0.004l0.004,70.848h-11.752l-0.004-70.848l-70.843,0.004v-11.746l70.843-0.004
	l-0.004-70.844h11.753l0.004,70.844l70.843-0.003V246.886z"/>
<g id="XMLID_1_">
	<g>
		<polygon fill="#FFFFFF" points="1254.501,561.87 1254.501,751.51 1210.911,751.51 1138.091,644.86 1138.091,751.51 
			1091.091,751.51 1091.091,561.87 1136.511,561.87 1207.501,664.33 1207.501,561.75 1254.501,561.75 		"/>
		<rect x="1207.501" y="354.07" fill="#FFFFFF" width="47" height="189.64"/>
		<polygon fill="#FFFFFF" points="1195.091,354.07 1195.091,392.11 1138.091,392.11 1138.091,543.71 1091.091,543.71 
			1091.091,392.11 1034.101,392.11 1034.101,354.07 		"/>
		<polygon fill="#FFFFFF" points="1109.701,297 1109.701,335.84 978.581,335.84 978.581,146.2 1109.171,146.2 1109.171,184.76 
			1025.581,184.76 1025.581,220.94 1101.071,220.94 1101.071,259.24 1025.581,259.24 1025.581,297 		"/>
		<path fill="#FFFFFF" d="M1069.361,630.17v52.66c0,49.47-40.17,71.81-79.3,71.81c-42.01,0-80.08-20.48-80.08-69.42v-54.78
			c0-48.14,38.86-71.82,79.03-71.82C1030.761,558.62,1069.361,581.23,1069.361,630.17z M1022.361,684.43v-56.12
			c0-19.95-15.5-30.86-33.08-30.86c-16.81,0-32.3,9.04-32.3,31.13v55.58c0,20.21,13.91,31.39,33.08,31.39
			C1006.611,715.55,1022.361,705.97,1022.361,684.43z"/>
		<path fill="#FFFFFF" d="M1030.991,379.6l-29.67,26.07c-9.2-11.97-24.95-17.55-39.66-17.55c-13.65,0-25.46,4.78-25.46,17.81
			c0,10.91,11.29,14.63,25.46,18.36l29.41,7.98c26.79,6.92,44.9,23.14,44.9,52.66c0,41.23-36.76,61.97-75.35,61.97
			c-32.82,0-61.45-9.04-79.3-34.31l29.67-26.86c9.71,13.83,27.83,23.94,47.52,23.94c14.18,0,29.41-4.53,29.41-17.82
			c0-11.71-9.45-15.96-21.01-19.15l-32.29-8.51c-25.47-6.92-44.38-21.81-44.38-52.4c0-35.38,29.94-60.91,71.42-60.91
			C994.751,350.88,1014.451,359.12,1030.991,379.6z"/>
		<polygon fill="#FFFFFF" points="954.841,146.2 954.841,335.83 911.531,335.83 911.531,215.08 911.001,215.08 875.291,310.3 
			842.991,310.3 807.021,215.35 806.491,215.35 806.491,335.83 763.171,335.83 763.171,146.2 821.461,146.2 859.531,244.07 
			860.061,244.07 897.341,146.2 		"/>
		<rect x="841.251" y="561.81" fill="#FFFFFF" width="47" height="189.64"/>
		<polygon fill="#FFFFFF" points="877.421,504.87 877.421,543.71 746.291,543.71 746.291,354.07 876.891,354.07 876.891,392.64 
			793.301,392.64 793.301,428.81 868.781,428.81 868.781,467.11 793.301,467.11 793.301,504.87 		"/>
		<polygon fill="#FFFFFF" points="817.731,561.68 817.731,599.71 760.741,599.71 760.741,751.31 713.731,751.31 713.731,599.71 
			656.741,599.71 656.741,561.68 		"/>
		<rect x="692.441" y="146.2" fill="#FFFFFF" width="47" height="189.63"/>
		<polygon fill="#FFFFFF" points="739.301,354.07 679.851,543.77 631.801,543.77 573.941,354.07 622.251,354.07 657.541,487.85 
			658.321,487.85 694.661,354.07 		"/>
		<path fill="#FFFFFF" d="M616.301,561.55l65.64,189.9h-48.05l-11.29-35.38h-66.96l-11.54,35.38h-44.38l66.43-189.9H616.301z
			 M611.051,678.84l-21.53-68.62h-0.79l-21.79,68.62H611.051z"/>
		<path fill="#FFFFFF" d="M633.631,261.9l42.8,73.93h-51.2l-37.03-67.02h-21.26v67.02h-47V146.2h81.92
			c42.53,0,66.95,24.73,66.95,59.84C668.811,229.18,657.781,251.79,633.631,261.9z M595.821,233.7c17.07,0,27.3-9.84,27.3-25.27
			c0-16.22-10.5-25-27.3-25h-28.88v50.27H595.821z"/>
		<polygon fill="#FFFFFF" points="566.941,354.2 566.941,543.83 523.351,543.83 454.721,437.18 454.721,543.83 407.721,543.83 
			407.721,354.2 453.141,354.2 519.941,456.65 519.941,354.07 566.941,354.07 		"/>
		<path fill="#FFFFFF" d="M501.221,648.78v43.62c0,43.62-39.38,62.24-75.62,62.24c-41.48,0-79.82-21.02-79.82-68.35v-57.98
			c0-46.55,37.29-69.69,78.77-69.69c36.23,0,76.67,17.29,76.67,61.44v6.91h-44.11v-3.71c0-19.69-16.81-26.87-31.25-26.87
			c-16.28,0-33.08,8.78-33.08,30.32v58.51c0,19.42,13.91,31.38,33.08,31.38c17.33,0,30.46-7.97,30.46-27.92v-4.79h-37.81v-35.11
			H501.221z"/>
		<path fill="#FFFFFF" d="M500.431,267.48v9.31c0,43.62-38.59,62.23-74.83,62.23c-41.23,0-79.82-21.01-79.82-68.35v-57.98
			c0-46.55,37.29-69.68,78.77-69.68c36.23,0,75.88,18.62,75.88,62.5v8.78h-44.11v-4.26c0-19.94-16.54-28.19-30.99-28.19
			c-16.54,0-32.55,8.78-32.55,30.32v57.44c0,19.42,13.91,30.59,33.08,30.59c14.44,0,30.46-8.51,30.46-28.19v-4.52H500.431z"/>
		<rect x="345.781" y="354.07" fill="#FFFFFF" width="47" height="189.64"/>
	</g>
</g>
</svg>
