<?xml version="1.0" encoding="utf-8"?>
<!-- Generator: Adobe Illustrator 22.1.0, SVG Export Plug-In . SVG Version: 6.00 Build 0)  -->
<svg version="1.1" id="Layer_1" xmlns="http://www.w3.org/2000/svg" xmlns:xlink="http://www.w3.org/1999/xlink" x="0px" y="0px"
	 viewBox="0 0 1600 899.998" enable-background="new 0 0 1600 899.998" xml:space="preserve">
<g>
	<path fill="#EB6608" d="M643.717,304.169l107.375,245.553l-221.52-151.689c-55.574-36.801-44.293-99.866-13.511-127.65
		C559.613,233.575,621.189,246.339,643.717,304.169z"/>
	<path fill="#C5183D" d="M790.897,246.339l-39.059,274.847l-111.12-261.315c-24.039-65.333,30.015-108.142,66.068-108.895
		C748.099,146.461,799.909,178.008,790.897,246.339z"/>
	<path fill="#6758A1" d="M959.86,259.107L849.475,521.186L814.173,284.64c-2.993-36.033,19.523-36.791,27.783-43.557
		c-1.477-5.24-12.768-5.24-12.768-5.24H808.17c-2.257-61.593,45.809-88.624,84.852-85.62
		C935.074,151.728,982.393,200.53,959.86,259.107z"/>
	<path fill="#0080C8" d="M1072.511,396.539L850.986,548.975l104.369-242.548c31.54-76.597,105.134-61.576,131.418-32.288
		C1115.311,302.68,1123.571,360.485,1072.511,396.539z"/>
	<path fill="#13A438" d="M1095.77,575.996H839.7l208.02-144.913c51.075-33.787,105.144-3.01,119.38,41.3
		C1182.146,521.938,1148.361,575.996,1095.77,575.996z"/>
	<path fill="#FAB900" d="M432.699,469.38c19.523-51.06,73.597-69.09,121.648-38.296l208.003,144.913H510.048
		C457.474,575.996,416.168,527.941,432.699,469.38z"/>
	<g>
		<path fill="#1D1D1B" d="M414.679,680.114c0,24.775,20.277,69.884,97.637,69.884c71.315,0,93.858-32.711,93.858-47.726H550.95
			c0,0-2.617,19.826-33.771,19.826c-31.17,0-39.608-26.036-39.608-41.05c0-15.005,8.439-39.61,39.608-39.61
			c31.153,0,33.771,17.262,33.771,17.262h55.224c0-15.015-16.525-47.3-93.858-47.3C434.956,611.399,414.679,659.462,414.679,680.114
			z"/>
		<path fill="#1D1D1B" d="M993.826,680.114c0,24.775,20.271,69.884,97.62,69.884c71.331,0,93.875-32.711,93.875-47.726h-55.191
			c0,0-2.64,19.826-33.805,19.826c-31.168,0-39.609-26.036-39.609-41.05c0-15.005,8.441-39.61,39.609-39.61
			c31.165,0,33.805,17.262,33.805,17.262h55.191c0-15.015-16.525-47.3-93.875-47.3
			C1014.098,611.399,993.826,659.462,993.826,680.114z"/>
		<polygon fill="#1D1D1B" points="757.112,613.714 757.112,697.62 692.849,613.714 620.543,613.714 620.543,746.618 
			670.088,746.618 670.088,661.74 733.231,746.618 806.659,746.618 806.659,613.714 		"/>
		<path fill="#1D1D1B" d="M956.462,675.982c9.028,0,27.891-10.512,27.891-30.794c0-28.899-53.787-31.475-62.053-31.475h-99.125
			v132.904H922.3c47.679,0,66.827-15.079,66.827-40.224C989.127,681.238,956.462,675.982,956.462,675.982z M874.997,639.562h39.79
			v0.063c6.74,0,12.218,4.43,12.218,9.887c0,5.468-5.477,9.887-12.218,9.887v0.063h-39.79V639.562z M915.926,714.85v0.19h-41.305
			v-24.404h41.305v0.096c8.801,0,15.927,5.404,15.927,12.069C931.853,709.457,924.727,714.85,915.926,714.85z"/>
	</g>
</g>
</svg>
