<?xml version="1.0" encoding="utf-8"?>
<!-- Generator: Adobe Illustrator 22.1.0, SVG Export Plug-In . SVG Version: 6.00 Build 0)  -->
<svg version="1.1" id="Layer_1" xmlns="http://www.w3.org/2000/svg" xmlns:xlink="http://www.w3.org/1999/xlink" x="0px" y="0px"
	 viewBox="0 0 1599.999 900" enable-background="new 0 0 1599.999 900" xml:space="preserve">
<g>
	<g>
		<g>
			<g>
				<g>
					<g>
						<path fill="#E20613" d="M585.938,550.299c9.416-0.033,15.842-7.688,15.809-16.36V293.764
							c0-89.823,114.734-132.925,175.508-28.596c62.023,106.515,97.555,168.262,97.555,168.262V293.824
							c0-89.839,114.545-132.919,175.254-28.628c62.056,106.554,98.395,168.279,98.395,168.279V206.06h136.68v398.266
							c0.287,102.477-119.711,118.572-169.323,36.593c-29.192-48.264-103.474-171.437-103.474-171.437v134.799
							c0.244,102.433-119.789,118.583-169.368,36.549C813.746,592.567,739.5,469.437,739.5,469.437v121.857
							c0.055,62.323-36.594,96.106-93.606,96.061H513.384c-339.067-0.188-342.298-481.346-4.522-481.313h75.33v136.354
							c0,0-21.549-0.094-83.008,0c-138.318,0.189-152.832,208.09,9.656,207.902H585.938z"/>
						<g>
							<path fill="#FFFFFF" d="M1207.561,206.06v389.482c0,7.246-2.566,12.39-6.891,13.75c-3.95,1.239-8.529-0.896-11.727-5.387
								c-1.35-2.157-160.465-257.083-200.441-322.337c-8.152-11.792-21.726-16.792-33.926-12.92
								c-12.667,4.01-20.542,16.084-20.476,31.516v295.324c0,7.18-2.545,12.456-6.716,13.761c-3.693,1.195-8.152-0.951-11.249-5.42
								c-1.35-2.169-160.553-257.089-200.44-322.354c-8.209-11.791-21.759-16.78-33.994-12.886
								c-12.732,4.01-20.564,16.084-20.498,31.482V593.54c0,8.274-7.057,15.299-15.431,15.299H504.103
								c-116.404,0-169.49-83.916-169.551-161.836c-0.061-78.439,51.111-162.93,163.656-163.118h87.166v-18.689h-87.201
								c-119.787,0.205-182.376,91.608-182.311,181.824c0.094,86.919,59.016,180.491,188.24,180.491h141.669
								c18.783,0,34.081-15.254,34.081-33.971V300.036c0-7.179,2.699-12.135,7.468-13.639c4.513-1.444,9.503,0.625,12.766,5.314
								c39.634,64.862,198.859,319.827,200.464,322.393c8.186,11.737,20.852,16.66,32.421,12.943
								c9.624-3.031,19.845-12.921,19.79-31.593V300.113c-0.033-7.162,2.688-12.168,7.423-13.672
								c4.49-1.394,9.446,0.675,12.765,5.348c39.602,64.845,198.871,319.827,200.439,322.382
								c8.209,11.77,21.008,16.681,32.889,12.931c9.689-3.086,20.01-12.976,19.911-31.592V206.06H1207.561z"/>
						</g>
					</g>
				</g>
			</g>
		</g>
	</g>
	<g>
		<g>
			<g>
				<g>
					<path fill="#E20613" d="M1311.829,684.502h-4.646v-29.115c2.433-0.354,4.757-0.708,8.208-0.708
						c4.425,0,7.345,0.952,9.093,2.234c1.726,1.261,2.654,3.23,2.654,6.018c0,3.806-2.543,6.15-5.685,7.058v0.221
						c2.545,0.487,4.314,2.788,4.846,7.102c0.729,4.513,1.438,6.261,1.881,7.19h-4.869c-0.686-0.93-1.416-3.584-1.945-7.433
						c-0.731-3.695-2.59-5.089-6.283-5.089h-3.253V684.502z M1311.829,668.396h3.362c3.828,0,7.081-1.394,7.081-5
						c0-2.566-1.859-5.11-7.081-5.11c-1.504,0-2.521,0.11-3.362,0.243V668.396z"/>
				</g>
			</g>
		</g>
		<path fill="#E20613" d="M1342.703,669.591c0,14.446-11.704,26.161-26.151,26.161c-14.446,0-26.171-11.715-26.171-26.161
			c0-14.448,11.724-26.162,26.171-26.162C1330.999,643.429,1342.703,655.143,1342.703,669.591z M1316.552,647.5
			c-12.211,0-22.101,9.889-22.101,22.091c0,12.201,9.89,22.09,22.101,22.09c12.191,0,22.081-9.89,22.081-22.09
			C1338.633,657.389,1328.743,647.5,1316.552,647.5z"/>
	</g>
</g>
</svg>
