<?xml version="1.0" encoding="utf-8"?>
<!-- Generator: Adobe Illustrator 23.0.3, SVG Export Plug-In . SVG Version: 6.00 Build 0)  -->
<svg version="1.2" baseProfile="tiny" xmlns="http://www.w3.org/2000/svg" xmlns:xlink="http://www.w3.org/1999/xlink" x="0px"
	 y="0px" viewBox="0 0 1600 900" xml:space="preserve">
<g id="Layer_1">
	<g>
		<path fill="#FFFFFF" d="M326.6,217.4c-87.1,0-163,47.8-202.8,118.7l48.7,27.4c30.3-53.8,87.9-90.2,154.1-90.2
			c97.6,0,176.7,79.1,176.7,176.7s-79.1,176.7-176.7,176.7c-66.1,0-123.7-36.3-154-90l-48.7,27.4c39.9,70.7,115.7,118.4,202.7,118.4
			c128.5,0,232.6-104.1,232.6-232.6C559.2,321.6,455,217.4,326.6,217.4z"/>
		<path fill="#FFFFFF" d="M381,480.8c-10.7,19-31.1,31.8-54.4,31.8c-34.5,0-62.5-28-62.5-62.5s28-62.5,62.5-62.5
			c23.4,0,43.9,12.9,54.6,32l48.7-27.4c-20.3-36.1-58.9-60.5-103.3-60.5c-65.4,0-118.4,53-118.4,118.4c0,65.4,53,118.4,118.4,118.4
			c44.2,0,82.8-24.3,103.1-60.2L381,480.8z"/>
		<path fill="#FFFFFF" d="M1336.7,648.8l-5.5-23.3h-48.4l-5.5,23.3h-36.8l51.7-180.4h29.1l52.2,180.4H1336.7z M1303,541.5
			l-12.8,53.2h33.4l-12.8-53.2c-0.8-3.5-1.6-7.8-2.5-12.8c-0.9-5-1.4-8.7-1.6-11.3c-0.2,2.6-0.6,6.3-1.3,11.1
			C1304.8,533.3,1304,537.6,1303,541.5z"/>
		<path fill="#FFFFFF" d="M653.6,290.4c-5.8,6.7-9.1,18.5-9.1,41.6v20.2c0,22.9,3.4,34.6,9.1,41.1c4.6,5.3,10.6,7.5,17.8,7.5
			c10.6,0,19.2-4.3,25.5-17.8l31.8,13.7c-10.6,25.7-30.8,37.8-57.3,37.8c-16.1,0-28.6-4.3-38.5-12.3c-16.1-12.7-24.5-35.4-24.5-69.8
			v-21.9c0-33.4,8.4-55.6,24.5-68.6c9.9-7.7,22.4-12.8,38.5-12.8c26,0,46.7,11.8,57.3,39l-31.8,13.7c-5.8-14.9-15.6-19-25.5-19
			C663.9,282.9,658.2,285.3,653.6,290.4z"/>
		<path fill="#FFFFFF" d="M768.9,422.2c-16.1-12.7-24.5-35.4-24.5-69.8v-21.9c0-33.4,8.4-55.6,24.5-68.6
			c9.9-7.7,22.4-12.5,38.5-12.8c16.1,0.2,28.6,5.1,38.5,12.8c16.1,13,24.5,35.1,24.5,68.6v22.9c0,33.4-8.4,56-24.5,68.8
			c-9.9,7.9-22.4,12.3-38.5,12.3C791.3,434.5,778.8,430.1,768.9,422.2z M789.6,290.4c-5.8,6.7-9.1,18.5-9.1,41.6v20.2
			c0,22.9,3.4,34.6,9.1,41.1c4.6,5.3,10.6,7.5,17.8,7.5c7.2,0,13.2-2.2,17.8-7.5c5.8-6.5,9.1-18.3,9.1-41.1V332
			c0-23.1-3.4-34.9-9.1-41.6c-4.6-5.1-10.3-7.5-17.8-7.5C799.9,282.9,794.2,285.3,789.6,290.4z"/>
		<path fill="#FFFFFF" d="M961.4,432l-27.2-98.9L923.2,432h-33.4l20.9-180.4h33.9l31,114l31-114h33.7l21.2,180.4H1028l-11.3-98.9
			L989.8,432H961.4z"/>
		<path fill="#FFFFFF" d="M1089.4,251.6h95.8v33.7h-59.7v38.2h51.8v33.7h-51.8v41.1h59.7V432h-95.8V251.6z"/>
		<path fill="#FFFFFF" d="M1215.5,251.6h57.7c19.2,0,34.6,7.5,45.5,20.4c10.8,12.7,16.8,30.5,16.8,51.5v32.2
			c0,22.9-6,41.9-16.8,55.3c-10.8,13.2-26.2,20.9-45.5,20.9h-57.7V251.6z M1269.2,398.4c10.1,0,17.8-3.6,22.9-10.8
			c5.1-7.5,7.5-18.8,7.5-34.2v-28.6c0-12.8-2.4-22.6-7.5-29.3c-5.1-6.7-12.7-10.1-22.9-10.1h-17.6v113.1H1269.2z"/>
		<path fill="#FFFFFF" d="M1386,345.2l-50.5-93.6h39l29.6,57l29.6-57h39l-50.5,93.6V432H1386V345.2z"/>
		<path fill="#FFFFFF" d="M653.6,506.8c-5.8,6.7-9.1,18.5-9.1,41.6v20.2c0,22.9,3.4,34.6,9.1,41.1c4.6,5.3,10.6,7.5,17.8,7.5
			c10.6,0,19.2-4.3,25.5-17.8l31.8,13.7c-10.6,25.7-30.8,37.8-57.3,37.8c-16.1,0-28.6-4.3-38.5-12.3c-16.1-12.7-24.5-35.4-24.5-69.8
			V547c0-33.4,8.4-55.6,24.5-68.6c9.9-7.7,22.4-12.8,38.5-12.8c26,0,46.7,11.8,57.3,39l-31.8,13.7c-5.8-14.9-15.6-19-25.5-19
			C663.9,499.3,658.2,501.7,653.6,506.8z"/>
		<path fill="#FFFFFF" d="M748,468.1h91.2v33.7h-55.1V540h47.2v33.7h-47.2v41.1h55.1v33.7H748V468.1z"/>
		<path fill="#FFFFFF" d="M865.9,468.1h31.8l48.2,105.6V468.1h33v180.4H947l-48.2-104.2v104.2h-33V468.1z"/>
		<path fill="#FFFFFF" d="M1030.5,501.7h-33.6v-33.7h103.3v33.7h-33.6v146.7h-36.1V501.7z"/>
		<path fill="#FFFFFF" d="M1155,648.5h-36.1V468.1h57.5c31.8,0,55.3,25.5,55.3,59.7v4.1c0,23.1-10.6,41.9-27.2,52l26.5,64.7h-36.3
			l-23.3-57.3H1155V648.5z M1172.3,557.6c13.5,0,23.3-8.4,23.3-28.1v-0.5c0-18-9.9-27.2-23.3-27.2H1155v55.8H1172.3z"/>
		<path fill="#FFFFFF" d="M1386,468.1h36.1v146.7h52.4v33.7H1386V468.1z"/>
	</g>
</g>
<g id="Laag_2" display="none">
</g>
</svg>
