<?xml version="1.0" encoding="utf-8"?>
<!-- Generator: Adobe Illustrator 22.1.0, SVG Export Plug-In . SVG Version: 6.00 Build 0)  -->
<svg version="1.1" id="Layer_1" xmlns="http://www.w3.org/2000/svg" xmlns:xlink="http://www.w3.org/1999/xlink" x="0px" y="0px"
	 viewBox="0 0 1600 900" enable-background="new 0 0 1600 900" xml:space="preserve">
<g>
	<path fill="#D6D9DC" d="M668.317,278.819V132.292c-7.098-0.386-14.265-0.648-21.571-0.648H443.515V638.67h203.232
		c69.661,0,130.167-17.715,176.571-50.388V278.819H668.317z"/>
	<path fill="#D6D9DC" d="M668.317,131.645v0.648c150.448,8.17,253.307,102.164,253.307,252.862
		c0,90.002-36.716,159.759-98.307,203.127v50.388h168.109V278.819h155V131.645H668.317z"/>
</g>
<path fill="#D6D9DC" d="M342.754,725.715c0-14.626,0.095-29.253-0.075-43.877c-0.037-3.158,0.886-3.96,3.968-3.919
	c12.875,0.168,25.757-0.116,38.63,0.112c25.372,0.448,45.649,19.155,47.27,43.343c1.763,26.3-14.285,46.967-40.201,51.142
	c-13.87,2.235-27.923,0.563-41.889,0.896c-7.701,0.184-7.704,0.033-7.704-7.633C342.753,752.423,342.753,739.069,342.754,725.715z
	 M366.678,725.837c0,7.621,0.088,15.244-0.05,22.862c-0.045,2.484,0.717,3.35,3.223,3.235c5.228-0.238,10.512,0.175,15.691-0.411
	c13.236-1.497,22.783-12.729,22.718-26.206c-0.064-13.14-9.751-24.069-22.957-25.447c-5.03-0.525-10.15-0.124-15.218-0.381
	c-2.72-0.138-3.519,0.807-3.464,3.485C366.78,710.593,366.677,718.216,366.678,725.837z"/>
<path fill="#D6D9DC" d="M1076.984,771.004c0,10.513-0.123,20.524,0.072,30.529c0.062,3.194-0.599,4.519-4.107,4.311
	c-5.227-0.31-10.49-0.209-15.729-0.026c-2.565,0.09-3.196-0.821-3.191-3.263c0.069-31.313,0.082-62.627-0.017-93.94
	c-0.009-2.782,1.171-3.035,3.395-2.981c4.925,0.119,10.296-1.225,14.686,0.311c8.038,2.812,14.589-2.398,22.051-2.315
	c21.939,0.244,38.148,18.767,34.943,40.582c-3.752,25.533-26.728,38.017-50.284,27.33
	C1078.391,771.356,1077.931,771.28,1076.984,771.004z M1076.984,739.753c0,1.907,0.273,3.862-0.052,5.712
	c-0.906,5.142,2.182,7.615,6.099,9.48c8.317,3.96,17.658,0.914,21.666-6.952c4.353-8.544,1.438-19.596-6.489-23.737
	c-5.457-2.85-10.905-2.153-16.432,0.424c-5.457,2.544-4.918,7.126-4.796,11.735C1077.009,737.528,1076.984,738.641,1076.984,739.753
	z"/>
<path fill="#D6D9DC" d="M989.167,771.341c0,10.081-0.152,20.216,0.084,30.342c0.08,3.429-0.976,4.353-4.271,4.151
	c-4.592-0.282-9.236-0.345-13.818,0.013c-3.92,0.306-5.036-0.824-5.008-4.875c0.194-27.815,0.102-55.632,0.102-83.449
	c0-2.702,0.239-5.431-0.061-8.1c-0.375-3.335,1.084-3.956,4.023-3.81c4.44,0.22,9.261-1.041,13.274,0.285
	c8.383,2.771,15.529-2.46,23.462-2.253c14.59,0.38,26.427,8.049,31.838,21.544c5.663,14.123,2.287,31.093-8.161,41.016
	c-10.167,9.656-24.988,12.035-38.084,6.126C991.569,771.889,990.72,771.031,989.167,771.341z M1001.757,756.45
	c8.187,0.14,13.744-3.799,16.179-10.953c2.549-7.49-0.054-16.085-6.195-20.455c-5.214-3.71-13.734-3.371-19.249,0.649
	c-2.352,1.714-3.594,3.673-3.397,6.78c0.281,4.432,0.415,8.93-0.025,13.336c-0.443,4.439,1.727,6.773,5.181,8.636
	C996.828,755.832,999.541,756.556,1001.757,756.45z"/>
<path fill="#D6D9DC" d="M517.22,739.734c0,10.021-0.109,20.043,0.067,30.061c0.052,2.962-0.825,3.885-3.763,3.71
	c-4.121-0.245-8.69,1.067-12.317-0.291c-8.184-3.065-15.102,2.037-22.696,2.176c-18.531,0.34-31.997-10.147-35.876-28.194
	c-4.241-19.729,7.605-38.772,26.72-42.966c3.622-0.795,7.33-0.03,10.92-0.484c5.395-0.684,9.271,4.85,15.631,2.332
	c4.952-1.961,11.314-0.135,17.017-0.503c3.795-0.245,4.445,1.183,4.373,4.575C517.085,720.008,517.22,729.873,517.22,739.734z
	 M494.169,740.018c0-2.064-0.265-4.171,0.051-6.185c0.864-5.511-2.298-8.175-6.71-10.038c-8.506-3.592-17.516-0.249-21.304,7.866
	c-3.991,8.548-0.873,19.272,6.981,23.15c5.484,2.708,10.959,2.061,16.464-0.558c5.247-2.496,4.61-6.957,4.522-11.377
	C494.153,741.924,494.169,740.97,494.169,740.018z"/>
<path fill="#D6D9DC" d="M817.078,677.989c12.716,0,25.432,0.085,38.146-0.063c2.975-0.035,4.287,0.546,4.065,3.86
	c-0.297,4.431-0.308,8.912,0.001,13.341c0.246,3.523-1.167,4.216-4.344,4.123c-7.146-0.211-14.31,0.125-21.452-0.146
	c-3.625-0.138-4.826,0.728-4.789,4.626c0.209,21.773,0.02,43.55,0.183,65.324c0.026,3.454-0.648,4.74-4.359,4.482
	c-5.22-0.363-10.493-0.279-15.726-0.021c-3.119,0.154-3.956-0.79-3.936-3.917c0.138-21.933-0.021-43.869,0.164-65.801
	c0.032-3.761-0.949-4.861-4.714-4.702c-7.298,0.307-14.625-0.076-21.928,0.165c-3.247,0.107-4.07-1.023-3.919-4.063
	c0.229-4.598,0.219-9.223,0.001-13.822c-0.132-2.779,0.846-3.465,3.507-3.44C791.011,678.056,804.045,677.989,817.078,677.989z"/>
<path fill="#D6D9DC" d="M742.108,745.762c-6.832,0.001-13.665,0.087-20.495-0.042c-2.751-0.052-3.348,0.656-2.173,3.237
	c3.722,8.172,15.323,11.106,22.226,5.375c1.425-1.183,2.652-1.967,4.565-1.929c5.559,0.111,11.126,0.189,16.68-0.017
	c3.298-0.123,3.301,1.104,2.305,3.624c-4.417,11.174-13.189,16.579-24.459,18.817c-17.414,3.457-34.45-4.331-41.41-18.969
	c-7.293-15.339-3.265-35.072,9.122-44.692c13.531-10.508,34.714-10.117,47.656,1.102c9.701,8.409,11.421,19.648,10.581,31.674
	c-0.158,2.264-1.808,1.801-3.149,1.807C756.407,745.777,749.258,745.761,742.108,745.762z M718.313,732.397
	c7.963,0,15.822-0.112,23.675,0.054c3.225,0.068,3.388-1.073,2.288-3.606c-2.176-5.011-6.808-7.672-13.145-7.337
	C724.343,721.867,720.328,725.18,718.313,732.397z"/>
<path fill="#D6D9DC" d="M1203.038,709.86c9.95-6.818,20.113-8.127,30.492-3.978c11.472,4.586,16.506,14.182,16.982,25.95
	c0.521,12.865,0.088,25.767,0.261,38.65c0.037,2.769-1.138,3.051-3.384,3.001c-5.406-0.121-10.823-0.183-16.224,0.021
	c-2.729,0.103-3.47-0.778-3.425-3.456c0.155-9.225,0.069-18.453,0.051-27.68c-0.004-1.907-0.007-3.824-0.194-5.718
	c-0.534-5.408-2.523-9.913-8.198-11.662c-4.989-1.538-12.175,1.058-15.511,5.15c-1.196,1.467-0.877,2.983-0.883,4.503
	c-0.042,11.613-0.111,23.228,0.039,34.839c0.038,2.933-0.481,4.233-3.816,4.045c-5.392-0.303-10.816-0.178-16.221-0.036
	c-2.248,0.059-2.992-0.583-2.983-2.915c0.083-20.681,0.084-41.363,0-62.044c-0.01-2.345,0.758-2.964,2.993-2.904
	c5.246,0.141,10.506,0.208,15.746-0.021C1201.613,705.481,1203.68,705.712,1203.038,709.86z"/>
<path fill="#D6D9DC" d="M555.352,710.177c11.046-7.297,21.406-8.524,32.088-3.776c10.776,4.79,15.401,14.07,15.875,25.209
	c0.554,13.022,0.121,26.084,0.276,39.127c0.031,2.571-1.122,2.774-3.153,2.739c-5.566-0.095-11.14-0.162-16.702,0.025
	c-2.559,0.086-3.195-0.787-3.162-3.23c0.127-9.225,0.055-18.453,0.046-27.681c-0.002-1.59,0.007-3.184-0.103-4.768
	c-0.357-5.113-1.536-9.919-6.773-12.192c-5.325-2.31-10.186-0.907-14.724,2.452c-2.377,1.76-3.339,3.763-3.289,6.813
	c0.191,11.61-0.008,23.227,0.138,34.838c0.035,2.786-0.466,3.947-3.592,3.788c-5.554-0.282-11.134-0.158-16.699-0.039
	c-2.063,0.044-2.728-0.579-2.721-2.687c0.069-20.84,0.071-41.681-0.002-62.521c-0.007-2.161,0.761-2.681,2.764-2.642
	c5.566,0.108,11.138,0.141,16.702-0.008C554.977,705.554,556.801,705.901,555.352,710.177z"/>
<path fill="#D6D9DC" d="M675.49,733.546c-1.43,0-2.873-0.124-4.288,0.024c-3.731,0.391-6.116-0.346-7.959-4.431
	c-2.303-5.105-7.595-6.526-12.984-5.947c-6.434,0.692-10.96,4.231-12.748,10.531c-1.831,6.45-1.23,12.73,3.602,17.793
	c4.03,4.223,9.147,5.429,14.863,3.913c3.951-1.047,6.988-3.329,8.301-7.151c0.801-2.33,1.996-2.795,4.146-2.746
	c4.923,0.113,9.869,0.295,14.771-0.047c3.855-0.269,3.765,1.649,3.146,4.279c-2.816,11.963-10.103,19.93-21.719,23.768
	c-21.333,7.049-43.523-4.015-48.678-24.138c-6.347-24.777,10.849-46.281,36.595-45.765c17.018,0.341,29.55,9.5,33.426,24.428
	c1.422,5.478,1.422,5.479-4.275,5.488C679.621,733.549,677.555,733.546,675.49,733.546z"/>
<path fill="#D6D9DC" d="M893.543,711.875c5.632-4.074,11.921-6.782,19.099-7.19c2.527-0.144,3.762,0.385,3.634,3.303
	c-0.223,5.074-0.159,10.168-0.02,15.248c0.066,2.389-0.647,3.461-3.172,3.453c-3.187-0.01-6.28,0.754-9.311,1.757
	c-9.572,3.168-11.014,5.127-11.014,15.113c0,8.897-0.079,17.795,0.051,26.69c0.035,2.421-0.527,3.344-3.132,3.255
	c-5.713-0.196-11.438-0.138-17.155-0.02c-2.064,0.043-2.722-0.586-2.715-2.686c0.068-20.812,0.065-41.624,0.004-62.436
	c-0.006-2.034,0.536-2.781,2.667-2.734c5.875,0.129,11.756,0.077,17.634,0.035C895.411,705.623,891.322,709.93,893.543,711.875z"/>
<path fill="#D6D9DC" d="M950.578,739.38c0,9.998-0.147,19.999,0.081,29.992c0.078,3.427-1.038,4.309-4.292,4.141
	c-5.065-0.262-10.156-0.171-15.23-0.026c-2.469,0.07-3.689-0.335-3.672-3.284c0.12-20.471,0.102-40.944,0.014-61.415
	c-0.011-2.56,0.878-3.235,3.303-3.166c5.391,0.153,10.799,0.228,16.183-0.023c3.044-0.142,3.716,0.948,3.672,3.787
	C950.483,719.383,950.578,729.382,950.578,739.38z"/>
<path fill="#D6D9DC" d="M1141.344,739.571c0-10.157,0.08-20.314-0.054-30.469c-0.035-2.673,0.729-3.59,3.473-3.491
	c5.547,0.201,11.109,0.153,16.66,0.016c2.28-0.056,3.015,0.686,3.008,2.971c-0.068,20.631-0.066,41.261-0.002,61.892
	c0.007,2.248-0.66,3.06-2.979,3c-5.551-0.144-11.112-0.18-16.66,0.012c-2.702,0.094-3.539-0.749-3.502-3.461
	C1141.428,759.885,1141.344,749.727,1141.344,739.571z"/>
<path fill="#D6D9DC" d="M1152.585,695.168c-7.704-0.112-13.339-5.798-13.148-13.269c0.193-7.554,5.792-12.633,13.781-12.501
	c7.423,0.123,13.08,5.706,13.07,12.898C1166.278,689.506,1160.134,695.278,1152.585,695.168z"/>
<path fill="#D6D9DC" d="M938.858,695.169c-7.708-0.07-13.383-5.722-13.237-13.182c0.148-7.567,5.727-12.696,13.693-12.589
	c7.45,0.1,13.1,5.601,13.156,12.81C952.527,689.396,946.391,695.238,938.858,695.169z"/>
<path fill="#D6D9DC" d="M677.992,131.38c-0.001,0.438-0.002,0.875-0.003,1.313c-2.924,0.256-5.781-0.263-8.64-0.752
	c0,0,0.07,0.114,0.07,0.114C672.153,130.258,675.119,131.414,677.992,131.38z"/>
</svg>
