<?xml version="1.0" encoding="utf-8"?>
<!-- Generator: Adobe Illustrator 22.1.0, SVG Export Plug-In . SVG Version: 6.00 Build 0)  -->
<svg version="1.1" id="Layer_1" xmlns="http://www.w3.org/2000/svg" xmlns:xlink="http://www.w3.org/1999/xlink" x="0px" y="0px"
	 viewBox="0 0 1600 900" enable-background="new 0 0 1600 900" xml:space="preserve">
<path fill="#FFFFFF" d="M391.246,196.005l-123.67,123.67v393.1h393.1l123.67-123.67v-393.1H391.246z M543.4,331.895h-39.756v-8.965
	c0-9.092-2.144-16.955-6.432-23.581c-4.287-6.626-11.498-9.939-21.632-9.939c-5.457,0-9.939,1.041-13.447,3.118
	c-3.508,2.083-6.237,4.744-8.186,7.99c-1.949,3.252-3.313,7.016-4.092,11.303c-0.78,4.288-1.169,8.77-1.169,13.447
	c0,5.457,0.194,10.073,0.584,13.837c0.39,3.77,1.364,7.016,2.923,9.744s3.831,5.134,6.82,7.211
	c2.985,2.083,7.078,4.159,12.278,6.236l30.402,12.083c8.831,3.38,15.98,7.345,21.437,11.888c5.457,4.549,9.677,9.878,12.667,15.98
	c2.984,6.108,5,13.125,6.041,21.048c1.036,7.929,1.56,16.955,1.56,27.089c0,11.693-1.169,22.545-3.508,32.545
	c-2.339,10.006-6.176,18.581-11.498,25.725c-5.329,7.15-12.412,12.801-21.243,16.955c-8.837,4.153-19.622,6.236-32.351,6.236
	c-9.616,0-18.58-1.693-26.894-5.067c-8.319-3.374-15.463-7.99-21.437-13.836c-5.98-5.847-10.719-12.795-14.227-20.853
	c-3.508-8.051-5.262-16.76-5.262-26.115v-14.811h39.756v12.473c0,7.278,2.144,13.837,6.431,19.684s11.498,8.77,21.632,8.77
	c6.755,0,12.017-0.974,15.786-2.923c3.764-1.949,6.626-4.678,8.575-8.186c1.949-3.508,3.179-7.856,3.703-13.057
	c0.518-5.195,0.78-10.914,0.78-17.15c0-7.271-0.262-13.252-0.78-17.929c-0.524-4.678-1.626-8.441-3.313-11.304
	c-1.693-2.856-4.031-5.195-7.016-7.016c-2.991-1.815-6.956-3.764-11.888-5.846l-28.453-11.693
	c-17.15-7.016-28.648-16.303-34.495-27.869c-5.847-11.559-8.77-26.047-8.77-43.459c0-10.389,1.425-20.268,4.288-29.622
	c2.856-9.354,7.077-17.406,12.668-24.166c5.584-6.754,12.667-12.144,21.242-16.176c8.575-4.025,18.575-6.042,30.012-6.042
	c9.872,0,18.904,1.821,27.089,5.457c8.185,3.642,15.201,8.447,21.047,14.421c5.847,5.98,10.329,12.667,13.447,20.073
	c3.118,7.405,4.678,15.006,4.678,22.801V331.895z M691.508,331.505h-39.756v-13.252c0-7.795-2.211-14.549-6.626-20.268
	c-4.421-5.713-10.396-8.575-17.929-8.575c-9.878,0-16.438,3.057-19.683,9.16c-3.252,6.108-4.873,13.836-4.873,23.191v141.875
	c0,8.057,1.754,14.812,5.262,20.268c3.508,5.457,9.805,8.185,18.904,8.185c2.595,0,5.39-0.451,8.38-1.364
	c2.984-0.907,5.712-2.399,8.185-4.482c2.466-2.077,4.482-4.933,6.041-8.575c1.56-3.636,2.339-8.185,2.339-13.642v-13.642h39.756
	v17.15c0,8.575-1.626,16.759-4.872,24.555c-3.252,7.795-7.734,14.617-13.447,20.463c-5.719,5.847-12.412,10.523-20.073,14.032
	c-7.668,3.508-15.919,5.262-24.75,5.262c-7.54,0-15.201-1.042-22.997-3.119c-7.796-2.077-14.812-5.652-21.048-10.719
	c-6.236-5.066-11.371-11.753-15.396-20.073c-4.032-8.313-6.042-18.837-6.042-31.571v-152.79c0-9.093,1.56-17.54,4.678-25.335
	c3.118-7.795,7.534-14.549,13.252-20.268c5.713-5.712,12.534-10.195,20.463-13.447c7.923-3.246,16.692-4.872,26.309-4.872
	c9.092,0,17.54,1.626,25.335,4.872c7.795,3.252,14.549,7.795,20.268,13.642c5.712,5.847,10.195,12.863,13.447,21.047
	c3.246,8.186,4.872,17.089,4.872,26.699V331.505z M751.5,529.841h-38.48V252.258h38.48V529.841z"/>
<g>
	<rect x="889.303" y="252.014" fill="#FFFFFF" width="16.337" height="108.956"/>
	<path fill="#FFFFFF" d="M965.625,389.72c-3.085-3.134-6.729-5.57-10.934-7.313c-4.206-1.74-8.763-2.612-13.668-2.612
		c-5.188,0-9.92,0.872-14.194,2.612c-4.278,1.743-7.958,4.146-11.039,7.209c-3.086,3.066-5.468,6.686-7.15,10.865
		c-1.683,4.179-2.524,8.707-2.524,13.582v81.911c0,6.826,1.085,12.468,3.259,16.925c2.172,4.46,4.942,8.045,8.307,10.762
		c3.364,2.716,7.149,4.633,11.355,5.746c4.206,1.114,8.339,1.672,12.407,1.672c4.764,0,9.216-0.941,13.353-2.821
		c4.134-1.88,7.745-4.388,10.83-7.522c3.082-3.135,5.5-6.791,7.254-10.97c1.752-4.18,2.629-8.567,2.629-13.164v-9.194H954.06v7.313
		c0,2.925-0.421,5.364-1.262,7.313c-0.841,1.953-1.929,3.484-3.259,4.598c-1.334,1.117-2.807,1.917-4.416,2.402
		c-1.613,0.49-3.121,0.732-4.521,0.732c-4.908,0-8.306-1.463-10.198-4.388c-1.893-2.925-2.839-6.546-2.839-10.866v-76.059
		c0-5.015,0.873-9.158,2.629-12.433c1.751-3.271,5.29-4.91,10.619-4.91c4.064,0,7.287,1.535,9.673,4.597
		c2.382,3.066,3.575,6.686,3.575,10.866v7.104h21.448v-8.358c0-5.152-0.877-9.925-2.629-14.313
		C971.125,396.615,968.707,392.854,965.625,389.72z"/>
	<path fill="#FFFFFF" d="M885.825,390.451c-3.154-3.203-6.939-5.779-11.355-7.731c-4.416-1.949-9.289-2.925-14.614-2.925
		c-6.171,0-11.566,1.081-16.192,3.239c-4.626,2.161-8.447,5.051-11.46,8.672c-3.016,3.624-5.293,7.94-6.834,12.955
		c-1.544,5.015-2.313,10.311-2.313,15.881c0,9.335,1.577,17.102,4.732,23.299c3.154,6.2,9.357,11.179,18.609,14.94l15.35,6.269
		c2.661,1.117,4.801,2.161,6.413,3.134c1.61,0.976,2.872,2.23,3.785,3.762c0.911,1.535,1.505,3.552,1.788,6.06
		c0.279,2.507,0.419,5.714,0.419,9.612c0,3.344-0.14,6.409-0.419,9.194c-0.283,2.789-0.946,5.12-1.998,7
		c-1.051,1.881-2.596,3.344-4.627,4.388c-2.033,1.044-4.872,1.567-8.516,1.567c-5.467,0-9.357-1.567-11.671-4.702
		c-2.313-3.134-3.469-6.651-3.469-10.553v-6.686h-21.449v7.94c0,5.015,0.946,9.684,2.839,14c1.892,4.319,4.449,8.045,7.675,11.179
		c3.223,3.134,7.077,5.609,11.566,7.418c4.485,1.808,9.321,2.716,14.509,2.716c6.867,0,12.687-1.117,17.453-3.343
		c4.764-2.227,8.586-5.257,11.461-9.09c2.871-3.83,4.941-8.427,6.203-13.791c1.263-5.361,1.893-11.179,1.893-17.448
		c0-5.433-0.283-10.271-0.842-14.522c-0.561-4.248-1.65-8.009-3.259-11.284c-1.612-3.271-3.89-6.128-6.834-8.567
		c-2.943-2.436-6.8-4.561-11.566-6.373l-16.401-6.477c-2.807-1.113-5.015-2.227-6.625-3.344c-1.612-1.113-2.838-2.403-3.68-3.866
		c-0.84-1.463-1.366-3.203-1.577-5.224c-0.21-2.018-0.315-4.493-0.315-7.418c0-2.507,0.21-4.91,0.631-7.209
		c0.421-2.298,1.156-4.316,2.208-6.06c1.052-1.74,2.524-3.167,4.416-4.283c1.893-1.113,4.31-1.672,7.255-1.672
		c5.467,0,9.358,1.776,11.671,5.328c2.313,3.552,3.469,7.767,3.469,12.642v4.806h21.45v-10.448c0-4.179-0.842-8.254-2.524-12.224
		C891.398,397.243,888.98,393.658,885.825,390.451z"/>
	<rect x="989.386" y="381.048" fill="#FFFFFF" width="21.449" height="148.776"/>
	<path fill="#FFFFFF" d="M868.883,353.702c5.178-4.844,7.768-12.369,7.768-22.572v-50.958c0-8.876-2.459-15.786-7.369-20.735
		c-4.911-4.947-12.012-7.422-21.302-7.422h-24.184V360.97h22.743C856.255,360.97,863.703,358.548,868.883,353.702z M840.133,266.705
		h7.527c4.805,0,8.114,1.174,9.931,3.52c1.815,2.348,2.723,5.662,2.723,9.947v52.488c0,4.693-0.961,8.137-2.884,10.329
		c-1.922,2.195-5.18,3.29-9.77,3.29h-7.527V266.705z"/>
	<path fill="#FFFFFF" d="M1032.007,336.639v-6.733h-16.336v5.356c0,2.143-0.321,3.929-0.961,5.356
		c-0.641,1.43-1.469,2.551-2.483,3.367c-1.016,0.818-2.137,1.403-3.363,1.76c-1.229,0.359-2.377,0.536-3.443,0.536
		c-3.739,0-6.326-1.071-7.768-3.213c-1.441-2.143-2.162-4.794-2.162-7.958v-55.702c0-3.673,0.666-6.707,2.002-9.105
		c1.334-2.396,4.029-3.596,8.088-3.596c3.095,0,5.551,1.124,7.368,3.367c1.814,2.245,2.723,4.897,2.723,7.957v5.203h16.336v-6.121
		c0-3.773-0.668-7.268-2.001-10.482c-1.336-3.214-3.178-5.968-5.526-8.263c-2.35-2.295-5.126-4.079-8.329-5.356
		c-3.203-1.274-6.674-1.913-10.411-1.913c-3.951,0-7.556,0.638-10.811,1.913c-3.258,1.277-6.061,3.037-8.408,5.279
		c-2.35,2.245-4.164,4.897-5.446,7.958c-1.281,3.06-1.922,6.377-1.922,9.947v59.986c0,5,0.826,9.131,2.483,12.396
		c1.654,3.266,3.764,5.891,6.327,7.881c2.563,1.99,5.445,3.393,8.649,4.208c3.203,0.816,6.351,1.224,9.449,1.224
		c3.629,0,7.02-0.689,10.171-2.066c3.148-1.377,5.898-3.214,8.249-5.509c2.347-2.295,4.189-4.973,5.526-8.034
		C1031.339,343.219,1032.007,340.005,1032.007,336.639z"/>
	<polygon fill="#FFFFFF" points="1214.915,345.361 1182.562,345.361 1182.562,313.379 1210.751,313.379 1210.751,298.688 
		1182.562,298.688 1182.562,266.705 1214.915,266.705 1214.915,252.014 1166.226,252.014 1166.226,360.97 1214.915,360.97 	"/>
	<path fill="#FFFFFF" d="M923.097,354.466c2.455,2.296,5.39,4.108,8.809,5.432c3.416,1.325,7.099,1.99,11.051,1.99
		c5.23,0,9.662-0.818,13.293-2.449c3.629-1.631,6.54-3.849,8.73-6.656c2.187-2.805,3.763-6.171,4.724-10.1
		c0.961-3.926,1.442-8.187,1.442-12.778c0-3.979-0.215-7.522-0.641-10.635c-0.428-3.111-1.257-5.865-2.483-8.264
		c-1.229-2.396-2.963-4.488-5.206-6.274c-2.242-1.784-5.18-3.34-8.809-4.667l-12.493-4.744c-2.137-0.816-3.819-1.631-5.045-2.449
		c-1.229-0.816-2.162-1.76-2.803-2.831c-0.64-1.071-1.041-2.346-1.201-3.826c-0.16-1.477-0.24-3.29-0.24-5.432
		c0-1.836,0.16-3.596,0.48-5.279c0.32-1.683,0.881-3.161,1.682-4.438c0.801-1.275,1.921-2.319,3.363-3.137
		c1.441-0.815,3.283-1.224,5.526-1.224c4.164,0,7.127,1.301,8.889,3.903c1.762,2.601,2.643,5.688,2.643,9.258v3.52h16.337v-7.651
		c0-3.061-0.641-6.045-1.922-8.952c-1.281-2.907-3.123-5.533-5.526-7.881c-2.403-2.346-5.285-4.232-8.649-5.662
		c-3.363-1.427-7.074-2.142-11.132-2.142c-4.699,0-8.809,0.791-12.332,2.372c-3.524,1.583-6.435,3.699-8.729,6.351
		c-2.297,2.654-4.032,5.815-5.205,9.488c-1.177,3.673-1.762,7.551-1.762,11.63c0,6.836,1.201,12.524,3.603,17.062
		c2.403,4.541,7.128,8.187,14.175,10.942l11.693,4.591c2.027,0.818,3.656,1.583,4.884,2.295c1.227,0.715,2.187,1.633,2.883,2.755
		c0.694,1.124,1.146,2.601,1.362,4.438c0.212,1.836,0.32,4.184,0.32,7.039c0,2.449-0.108,4.694-0.32,6.733
		c-0.215,2.042-0.72,3.749-1.522,5.126c-0.801,1.377-1.977,2.448-3.523,3.214c-1.549,0.765-3.711,1.148-6.486,1.148
		c-4.165,0-7.128-1.148-8.89-3.443c-1.761-2.296-2.642-4.871-2.642-7.728v-4.897h-16.337v5.815c0,3.673,0.721,7.092,2.162,10.253
		C918.693,349.443,920.639,352.171,923.097,354.466z"/>
	<polygon fill="#FFFFFF" points="1299.643,360.97 1315.979,360.97 1315.979,314.909 1338.402,252.014 1321.104,252.014 
		1307.971,295.322 1307.651,295.322 1294.517,252.014 1277.219,252.014 1299.643,314.909 	"/>
	<polygon fill="#FFFFFF" points="1027.446,529.825 1091.371,529.825 1091.371,508.511 1048.895,508.511 1048.895,464.84 
		1085.904,464.84 1085.904,444.78 1048.895,444.78 1048.895,401.108 1091.371,401.108 1091.371,381.048 1027.446,381.048 	"/>
	<path fill="#FFFFFF" d="M1263.285,311.236c5.23-2.754,8.889-6.401,10.971-10.941c2.082-4.538,3.124-9.971,3.124-16.298
		c0-21.321-9.61-31.983-28.83-31.983h-26.266V360.97h16.337v-46.52h9.77l15.216,46.52h17.297L1263.285,311.236z M1260.562,290.96
		c-0.321,2.092-0.936,3.852-1.842,5.279c-0.908,1.43-2.218,2.525-3.924,3.29c-1.709,0.765-4.004,1.147-6.887,1.147h-9.289v-33.972
		h8.489c2.988,0,5.39,0.359,7.207,1.071c1.815,0.715,3.229,1.813,4.245,3.29c1.013,1.48,1.681,3.266,2.002,5.355
		c0.32,2.092,0.48,4.515,0.48,7.269C1261.043,286.446,1260.883,288.87,1260.562,290.96z"/>
	<path fill="#FFFFFF" d="M1248.446,389.72c-3.085-3.134-6.729-5.57-10.934-7.313c-4.206-1.74-8.763-2.612-13.668-2.612
		c-5.188,0-9.92,0.872-14.194,2.612c-4.278,1.743-7.958,4.146-11.039,7.209c-3.086,3.066-5.468,6.686-7.15,10.865
		c-1.683,4.179-2.524,8.707-2.524,13.582v81.911c0,6.826,1.085,12.468,3.259,16.925c2.172,4.46,4.942,8.045,8.307,10.762
		c3.364,2.716,7.15,4.633,11.355,5.746c4.206,1.114,8.339,1.672,12.407,1.672c4.764,0,9.216-0.941,13.353-2.821
		c4.134-1.88,7.745-4.388,10.83-7.522c3.082-3.135,5.5-6.791,7.254-10.97c1.752-4.18,2.629-8.567,2.629-13.164v-9.194h-21.448v7.313
		c0,2.925-0.421,5.364-1.262,7.313c-0.841,1.953-1.929,3.484-3.259,4.598c-1.334,1.117-2.806,1.917-4.416,2.402
		c-1.613,0.49-3.122,0.732-4.521,0.732c-4.908,0-8.306-1.463-10.198-4.388c-1.893-2.925-2.839-6.546-2.839-10.866v-76.059
		c0-5.015,0.874-9.158,2.629-12.433c1.751-3.271,5.29-4.91,10.619-4.91c4.064,0,7.287,1.535,9.673,4.597
		c2.382,3.066,3.575,6.686,3.575,10.866v7.104h21.448v-8.358c0-5.152-0.877-9.925-2.629-14.313
		C1253.946,396.615,1251.528,392.854,1248.446,389.72z"/>
	<polygon fill="#FFFFFF" points="1271.576,529.825 1335.501,529.825 1335.501,508.511 1293.025,508.511 1293.025,464.84 
		1330.034,464.84 1330.034,444.78 1293.025,444.78 1293.025,401.108 1335.501,401.108 1335.501,381.048 1271.576,381.048 	"/>
	<path fill="#FFFFFF" d="M1087.184,257.753c-2.618-2.193-5.553-3.849-8.809-4.973c-3.258-1.121-6.542-1.683-9.85-1.683
		c-3.311,0-6.594,0.562-9.85,1.683c-3.258,1.124-6.194,2.781-8.809,4.973c-2.618,2.195-4.725,4.973-6.327,8.34
		c-1.601,3.366-2.403,7.245-2.403,11.63v57.538c0,4.491,0.801,8.393,2.403,11.707c1.602,3.316,3.709,6.071,6.327,8.263
		c2.615,2.195,5.55,3.852,8.809,4.973c3.256,1.122,6.539,1.683,9.85,1.683c3.309,0,6.592-0.562,9.85-1.683
		c3.256-1.121,6.191-2.779,8.809-4.973c2.615-2.193,4.725-4.947,6.326-8.263c1.602-3.314,2.402-7.216,2.402-11.707v-57.538
		c0-4.385-0.801-8.263-2.402-11.63C1091.909,262.726,1089.799,259.948,1087.184,257.753z M1079.576,335.261
		c0,3.776-1.096,6.556-3.283,8.34c-2.19,1.786-4.78,2.678-7.768,2.678c-2.991,0-5.58-0.892-7.768-2.678
		c-2.19-1.784-3.283-4.565-3.283-8.34v-57.538c0-3.773,1.094-6.554,3.283-8.34c2.188-1.784,4.777-2.678,7.768-2.678
		c2.988,0,5.578,0.895,7.768,2.678c2.187,1.786,3.283,4.567,3.283,8.34V335.261z"/>
	<polygon fill="#FFFFFF" points="1153.613,470.69 1153.192,470.69 1120.809,381.048 1100.202,381.048 1100.202,529.825 
		1121.651,529.825 1121.651,440.392 1122.071,440.392 1154.875,529.825 1175.061,529.825 1175.061,381.048 1153.613,381.048 	"/>
	<polygon fill="#FFFFFF" points="1136.275,360.97 1159.66,252.014 1142.362,252.014 1129.228,328.069 1128.908,328.069 
		1115.934,252.014 1098.637,252.014 1121.861,360.97 	"/>
</g>
</svg>
