<?xml version="1.0" encoding="utf-8"?>
<!-- Generator: Adobe Illustrator 23.0.6, SVG Export Plug-In . SVG Version: 6.00 Build 0)  -->
<svg version="1.2" baseProfile="tiny" xmlns="http://www.w3.org/2000/svg" xmlns:xlink="http://www.w3.org/1999/xlink" x="0px"
	 y="0px" viewBox="0 0 1600 900" xml:space="preserve">
<g id="Layer_1">
	<g>
		<g>
			<path fill="#EFEFEF" d="M383.4,484.7c0.7,12.3,9.4,24.2,28.2,24.2c14.1,0,21-7.6,21-15.6c0-6.5-4.3-11.9-17.7-14.8l-20.6-4.7
				c-38.4-8.3-53.6-30-53.6-55.4c0-32.9,28.9-59.7,69.1-59.7c52.1,0,70.2,32.6,72,53.5l-45.6,8.3c-1.4-11.9-9-22.1-25.7-22.1
				c-10.5,0-19.5,6.2-19.5,15.6c0,7.6,6.2,11.9,14.1,13.4l23.9,4.7c37.3,7.6,55.4,30,55.4,56.4c0,30.8-23.5,60.8-71.6,60.8
				c-56.5,0-74.5-36.5-76-56.4L383.4,484.7z"/>
			<path fill="#EFEFEF" d="M551.6,454.3c0,28.6,19.2,44.5,42,44.5c21.3,0,33.3-13.4,37.3-26.8l48.5,14.8
				c-8,31.5-37.6,62.6-85.8,62.6c-53.6,0-96.6-39.4-96.6-95.2c0-56.1,42-95.5,94.8-95.5c49.6,0,78.5,30.4,86.5,62.6l-49.2,14.8
				c-4-13.8-14.8-26.8-36.2-26.8C570.1,409.4,551.6,425.3,551.6,454.3z"/>
			<path fill="#EFEFEF" d="M879.4,453.9c0,55.7-41.6,95.5-95.5,95.5c-53.6,0-95.5-39.8-95.5-95.5s42-95.2,95.5-95.2
				C837.8,358.7,879.4,398.2,879.4,453.9z M824.4,453.9c0-30.4-19.5-44.5-40.5-44.5c-20.6,0-40.5,14.1-40.5,44.5
				c0,30,19.9,44.9,40.5,44.9C804.9,498.8,824.4,484.3,824.4,453.9z"/>
			<polygon fill="#EFEFEF" points="999.6,544 944.2,544 870.4,364.2 930.1,364.2 971.7,476 1010.1,364.2 1068,364.2 			"/>
			<path fill="#EFEFEF" d="M1237.7,492.3c-8.7,31.1-37.3,57.2-82.9,57.2c-49.6,0-93.7-35.5-93.7-95.9c0-57.9,43.1-94.8,89.7-94.8
				c55.7,0,90.1,34.4,90.1,92.3c0,7.6-0.7,15.9-1.1,17h-125.2c1.1,20.3,19.5,34.7,40.9,34.7c19.9,0,31.1-9.4,36.2-23.5L1237.7,492.3
				z M1187.8,432.6c-0.7-13.7-10.1-30.4-36.2-30.4c-23.2,0-34.7,17-35.8,30.4H1187.8z"/>
			<path fill="#EFEFEF" d="M1376,418.4c-6.1-1.5-11.9-1.8-17.4-1.8c-22.1,0-42,13-42,48.8V544h-55V364.2h53.2v24.2
				c9.4-20.3,32.2-26.1,46.7-26.1c5.4,0,10.9,0.7,14.5,1.8V418.4z"/>
			<polygon fill="#EFEFEF" points="1418.3,613.1 1459.2,519.8 1383.5,364.2 1445.1,364.2 1488.8,460.4 1528.6,364.2 1586.9,364.2 
				1476.2,613.1 			"/>
			<g>
				<path fill="#EFEFEF" d="M188.1,416.5c0-42.3-34-76.5-76.2-76.5H35.3v-51l76.5,0c73.9,0,132.2,54,132.2,127.5
					S185.7,544,111.8,544l-76.5,0v-51h76.5C154.1,493,188.1,458.7,188.1,416.5z"/>
				<g>
					<path fill="#EFEFEF" d="M34.7,383.9c-0.2,0.2-0.1,0.2,0.2-0.1c0.2-0.2,0.2-0.2,0.1-0.1C34.9,383.8,34.8,383.9,34.7,383.9z"/>
					<path fill="#EFEFEF" d="M72.8,371.5c0-0.2-0.1-0.2-0.2,0.1c-0.1,0.2-0.1,0.2,0,0.2C72.7,371.7,72.8,371.6,72.8,371.5z"/>
					<path fill="#EFEFEF" d="M77,365.5c0-0.1-0.3-0.1-0.3,0.1c-0.1,0.1,0,0.1,0.1,0.1S77,365.5,77,365.5z"/>
					<path fill="#EFEFEF" d="M47.5,454.8c-0.1,0.2-0.1,0.2,0.1,0.1c0.1,0,0.2-0.1,0.2-0.1C47.9,454.6,47.7,454.6,47.5,454.8z"/>
					<path fill="#EFEFEF" d="M66.2,471.3c0.1,0.1,0.1,0.1,0.2,0C66.3,471.3,66.3,471.3,66.2,471.3C66.1,471.2,66.1,471.3,66.2,471.3
						z"/>
					<path fill="#EFEFEF" d="M63.6,373.6C63.7,373.5,63.7,373.4,63.6,373.6c-0.2-0.1-0.3,0-0.2,0C63.5,373.6,63.6,373.6,63.6,373.6z
						"/>
					<path fill="#EFEFEF" d="M125.9,412.6c0.1,0.1,0.1,0,0-0.2c-0.1-0.3-0.2-0.4-0.1-0.1C125.8,412.4,125.9,412.6,125.9,412.6z"/>
					<path fill="#EFEFEF" d="M36.5,412.8c-0.1,0-0.2,0-0.1,0.3c0.1,0.3,0.3,0.3,0.3-0.1C36.7,412.9,36.6,412.8,36.5,412.8z"/>
					<path fill="#EFEFEF" d="M36.6,393.1c0-0.1-0.1,0-0.1,0.1c0,0.1-0.1,0.2-0.1,0.3c0,0.1,0.1,0,0.1-0.1
						C36.6,393.3,36.6,393.1,36.6,393.1z"/>
					<path fill="#EFEFEF" d="M41.3,414.6c-0.1,0.2-0.2,0.8-0.1,0.8c0,0,0.2-0.1,0.2-0.3C41.6,414.9,41.5,414.3,41.3,414.6z"/>
					<path fill="#EFEFEF" d="M47,454.1c0,0.1,0,0.2,0.1,0.2c0.1,0,0.1,0,0.1-0.1c0-0.1-0.1-0.2-0.1-0.2C47,453.9,47,454,47,454.1z"
						/>
					<path fill="#EFEFEF" d="M43,433.2c0.1,0.1,0.2,0.3,0.3,0.4c0.2,0.1,0.2,0.1,0-0.2C43.1,432.9,42.8,432.8,43,433.2z"/>
					<path fill="#EFEFEF" d="M45.9,451.7c-0.1,0-0.1,0,0,0.1c0.1,0.1,0.1,0.2,0.2,0.2c0,0,0-0.1,0-0.1C46,451.8,46,451.7,45.9,451.7
						z"/>
					<path fill="#EFEFEF" d="M61.1,368.2c0,0,0,0.1,0,0.2c0,0,0.1,0,0.2-0.1c0.1-0.1,0-0.2,0-0.2C61.2,368.1,61.1,368.1,61.1,368.2z
						"/>
					<path fill="#EFEFEF" d="M82.2,412.8c-0.5-0.3-0.6-0.2-0.3,0.4c0.2,0.4,0.8,0.4,0.8,0C82.6,413.1,82.4,413,82.2,412.8z"/>
					<path fill="#EFEFEF" d="M72.5,417c-0.1-0.1-0.3-0.1-0.3,0c0,0,0.1,0.2,0.2,0.3c0.2,0.2,0.3,0.2,0.3,0
						C72.8,417.2,72.6,417.1,72.5,417z"/>
					<path fill="#EFEFEF" d="M97.4,414.1c0.1-0.1,0.2-0.2,0.1-0.2c0,0-0.1-0.1-0.2-0.1c-0.1,0-0.2,0.1-0.1,0.2
						C97.3,414.1,97.4,414.2,97.4,414.1z"/>
					<path fill="#EFEFEF" d="M72.4,417.9c-0.1,0.1,0,0.2,0.1,0.2c0.1,0,0.2-0.1,0.2-0.2c0-0.1,0-0.2-0.1-0.2
						C72.6,417.7,72.5,417.8,72.4,417.9z"/>
					<path fill="#EFEFEF" d="M97.2,419.9c0,0.3,0.1,0.7,0.2,0.8c0.2,0.2,0.3,0.2,0.1,0c-0.1-0.2-0.2-0.5-0.2-0.8
						c0-0.2-0.1-0.3-0.1-0.5C97.2,419.6,97.2,419.7,97.2,419.9z"/>
					<path fill="#EFEFEF" d="M126.7,392.5c0-0.1-0.1-0.2-0.1-0.2c-0.1,0-0.1,0.1,0,0.2c0,0.1,0.1,0.2,0.1,0.2
						C126.7,392.6,126.7,392.6,126.7,392.5z"/>
					<path fill="#EFEFEF" d="M95.5,429.8c0-0.2,0-0.5-0.1-0.5c-0.1-0.1-0.1,0.3-0.2,0.9c0,0.5,0,1.1,0,1.2c0,0.1,0.1,0.4,0.2,0.6
						c0.2,0.2,0.2,0.2,0.2-0.6c0-0.5,0-1,0-1C95.6,430.3,95.5,430.1,95.5,429.8z"/>
					<path fill="#EFEFEF" d="M82.2,379.5c-0.1,0.1-0.2,0.3-0.2,0.4c0,0.2,0.5-0.1,0.6-0.3C82.7,379.3,82.5,379.2,82.2,379.5z"/>
					<path fill="#EFEFEF" d="M94.6,424.6c0.2-0.1,0.5-0.1,0.7-0.1c0.1,0,0.2-0.1,0.2-0.1c0-0.1,0.1-0.4,0.3-0.8
						c0.3-0.6,0.3-0.7,0.1-0.8c-0.4-0.2-1.1-0.1-1.2,0.1c-0.1,0.1-0.2,0.6-0.3,1C94.2,424.6,94.2,424.7,94.6,424.6z"/>
					<path fill="#EFEFEF" d="M105.3,373c0,0,0,0.1,0,0.2c0,0.1,0.1,0.2,0.2,0.2c0,0,0-0.1,0-0.2C105.3,373.1,105.3,373.1,105.3,373z
						"/>
					<path fill="#EFEFEF" d="M89.3,377.4c0,0.1-0.1,0.2-0.2,0.1c-0.1-0.1-0.2,0-0.2,0.2c0,0.2-0.1,0.2-0.2,0.2
						c-0.1-0.1-0.1,0-0.2,0.1c0,0.1,0,0.2,0.1,0.2c0.3,0,0.8-0.4,0.7-0.7c0-0.1,0-0.3-0.1-0.3C89.3,377.2,89.3,377.3,89.3,377.4z"/>
					<path fill="#EFEFEF" d="M88.1,373c0,0.1,0.1,0.2,0.1,0.2c0.1,0,0.1-0.1,0.2-0.2c0-0.1,0-0.2-0.1-0.2
						C88.2,372.8,88.1,372.9,88.1,373z"/>
					<path fill="#EFEFEF" d="M88.1,377.2c0,0.1,0.1,0.1,0.1,0.1c0.1-0.1,0.1-0.2,0.1-0.2c0,0-0.1-0.1-0.1-0.1
						C88.2,377,88.1,377.1,88.1,377.2z"/>
					<path fill="#EFEFEF" d="M87.6,377.7c0,0.1,0,0.2,0.1,0.3c0.1,0.1,0.1,0,0.1-0.2C87.8,377.5,87.7,377.4,87.6,377.7z"/>
					<path fill="#EFEFEF" d="M58.9,373.2c0.1-0.1-0.2,0-0.3,0.1c-0.1,0.1,0,0.1,0.1,0.1C58.8,373.3,58.9,373.2,58.9,373.2z"/>
					<path fill="#EFEFEF" d="M51.9,386.1c-0.1,0-0.2,0.1-0.3,0.2c-0.3,0.3-0.2,0.3,0.2,0.1C52,386.1,52.1,386.1,51.9,386.1z"/>
					<path fill="#EFEFEF" d="M57.9,376.1c0.1,0,0.1,0,0.1-0.2c-0.2-0.2-0.3-0.2-0.5,0.1c-0.1,0.2-0.1,0.2,0.1,0.2
						C57.6,376.2,57.8,376.1,57.9,376.1z"/>
					<path fill="#EFEFEF" d="M57.1,372.7c0-0.1,0.2-0.2,0.3-0.2c0.1-0.1,0-0.1-0.1-0.1c-0.2,0-0.3,0-0.4-0.1c-0.1,0-0.1,0-0.1,0
						c0,0.1-0.1,0.2-0.2,0.3c-0.1,0.1-0.1,0.2,0.2,0.1C56.8,372.8,57,372.8,57.1,372.7z"/>
					<path fill="#EFEFEF" d="M53.7,373.9c0,0,0.1,0,0.2,0c0.1-0.1,0.1-0.1-0.1-0.1C53.8,373.9,53.7,373.9,53.7,373.9z"/>
					<path fill="#EFEFEF" d="M53.7,385.9c0.1-0.3,0.1-0.4-0.2-0.2c-0.2,0.2-0.2,0.5-0.1,0.5C53.5,386.2,53.6,386.1,53.7,385.9z"/>
					<path fill="#EFEFEF" d="M56.1,384.3c0.1,0,0.1-0.1,0.1-0.2c0-0.1,0-0.2-0.1-0.2c-0.1,0-0.1,0.1-0.1,0.2
						C56,384.2,56,384.3,56.1,384.3z"/>
					<path fill="#EFEFEF" d="M57.5,367.6c-0.1,0-0.1,0.1-0.1,0.1C57.4,367.7,57.5,367.7,57.5,367.6
						C57.6,367.6,57.6,367.5,57.5,367.6z"/>
					<path fill="#EFEFEF" d="M58.7,366.9c0.2-0.2,0.1-0.2-0.3,0.1c-0.1,0.1-0.2,0.1-0.3,0.2c0.1,0,0.1,0,0.2,0
						C58.4,367.1,58.6,367,58.7,366.9z"/>
					<path fill="#EFEFEF" d="M51.8,377.3c0.1-0.2-0.2-0.4-0.3-0.2c-0.1,0.1-0.1,0.2,0,0.1c0,0,0.1,0,0.2,0.1
						C51.7,377.4,51.7,377.4,51.8,377.3z"/>
					<path fill="#EFEFEF" d="M56.6,368c-0.1-0.1-0.1-0.1-0.2,0.1c0,0.1-0.2,0.2-0.3,0.3c-0.2,0.1-0.2,0.1,0.1,0.1
						C56.5,368.4,56.7,368.1,56.6,368z"/>
					<path fill="#EFEFEF" d="M52.4,445c0.1-0.1,0.1-0.3,0.1-0.3c-0.1-0.1-0.3,0.2-0.3,0.4C52.3,445.2,52.3,445.1,52.4,445z"/>
					<path fill="#EFEFEF" d="M57.8,384.2c0.2-0.2,0.2-0.2-0.2,0c-0.2,0.1-0.3,0.2-0.1,0.2C57.6,384.4,57.7,384.3,57.8,384.2z"/>
					<path fill="#EFEFEF" d="M45.4,390.1c-0.3,0.3-1.3,2.2-1.3,2.5c0,0.4,0.5-0.2,0.9-1.1c0.3-0.6,0.4-0.8,0.8-1.2
						c0.6-0.6,0.6-0.6,0.7-0.1c0,0.3,0,0.4-0.2,0.6c-0.1,0.1-0.3,0.3-0.3,0.4c0,0.1,0,0.1,0.1,0c0.2-0.2,0.2-0.2,0.2,0.2
						c0,0.2,0,0.3,0,0.4c0.2-0.3,0.3-0.4,0.4-0.7c0.2-0.4,0.5-0.8,0.5-0.8c0-0.1,0.1,0,0.1,0.2c0.1,0.4,0.4,0,0.3-0.5
						c-0.1-0.4-0.3-0.5-0.4-0.2c0,0.1-0.1,0.2-0.1,0.2c-0.1,0-0.1-0.1,0-0.2C47.3,389.4,45.8,389.6,45.4,390.1z"/>
					<path fill="#EFEFEF" d="M47.7,391.5c0.4,0,0.6-0.1,0.8-0.3c0.2-0.3,0.3-0.6,0.1-0.4c-0.1,0.1-0.3,0.2-0.6,0.2
						C47.2,391.2,47,391.5,47.7,391.5z"/>
					<path fill="#EFEFEF" d="M43.3,378.4c-0.2,0.2-0.3,0.3-0.5,0.4c-0.2,0.2-0.3,0.3-0.5,0.4c0.1,0,0.1,0,0.2,0
						c0.1,0,0.3-0.1,0.3-0.2c0.1-0.1,0.2-0.2,0.2-0.2c0.1,0,0,0.1-0.1,0.2c-0.1,0.1,0,0.1,0.2-0.1c0.2-0.2,0.5-0.4,0.6-0.4
						c0.4-0.2,0.6-0.5,0.2-0.3c-0.3,0.1-0.3,0.1-0.1,0c0.4-0.3-0.1-0.1-0.9,0.3c-0.2,0.1-0.4,0.2-0.6,0.3c0.2-0.1,0.3-0.1,0.5-0.2
						C43,378.5,43.1,378.5,43.3,378.4z"/>
					<path fill="#EFEFEF" d="M47.5,379.1c0.1-0.2-0.1-0.1-0.3,0.1c-0.1,0.1-0.1,0.2-0.1,0.2C47.2,379.5,47.3,379.4,47.5,379.1z"/>
					<path fill="#EFEFEF" d="M46.5,387.2c0.1-0.2,0.1-0.4-0.1-0.3c-0.2,0.2-0.3,0.4-0.1,0.4C46.4,387.4,46.5,387.3,46.5,387.2z"/>
					<path fill="#EFEFEF" d="M44.6,383.1c-0.2,0.2-0.2,0.3-0.2,0.3c0.1,0,0.7-0.7,0.9-1c0.1-0.2,0-0.1-0.3,0.2
						c-0.1,0.1-0.2,0.3-0.2,0.3C44.8,382.9,44.7,383,44.6,383.1z"/>
					<path fill="#EFEFEF" d="M45.4,389c0.2-0.1,0.4-0.2,0.3-0.1c-0.2,0.2,0.1,0.4,0.6,0.4c0.2,0,0.3,0,0.4,0
						c0.1-0.2,0.1-0.3,0.2-0.5c0.1-0.3,0.1-0.5,0-0.4c-0.1,0.1-0.2,0-0.2-0.1c-0.1-0.5-0.4-0.4-1.3,0.2c-0.5,0.4-1,0.7-1,0.7
						C44.2,389.4,45,389.3,45.4,389z"/>
					<path fill="#EFEFEF" d="M50,376.1c0,0-0.1,0.1-0.1,0.2c0,0.1,0,0.2,0,0.2c0,0,0.1-0.1,0.1-0.2C50.1,376.2,50.1,376.1,50,376.1z
						"/>
					<path fill="#EFEFEF" d="M43.7,387.1c0.1-0.1,0.1-0.3,0.2-0.5c0-0.2,0-0.3,0-0.2C43.7,386.5,43.6,387.2,43.7,387.1z"/>
					<path fill="#EFEFEF" d="M43.9,381.7c-0.1,0-0.4,0.2-0.6,0.3c-0.4,0.3-0.4,0.3,0.3-0.1C44.2,381.7,44.2,381.7,43.9,381.7z"/>
					<path fill="#EFEFEF" d="M44.1,385.1c-0.2,0.3-0.3,0.4-0.2,0.5c0,0,0,0.2-0.1,0.3c-0.1,0.1-0.1,0.2-0.1,0.3
						c0,0.1,0.1-0.1,0.2-0.3c0.1-0.2,0.3-0.6,0.4-0.8C44.4,384.7,44.4,384.7,44.1,385.1z"/>
					<path fill="#EFEFEF" d="M45.9,392.2c-0.4,0.2-0.6,0.5-0.3,0.5c0.3,0,1.4-0.6,1.6-0.8C47.4,391.6,47.3,391.7,45.9,392.2z"/>
					<path fill="#EFEFEF" d="M45,384.7c0,0-0.1,0.1-0.2,0.1c-0.1,0-0.2,0.2-0.3,0.2c-0.1,0.3-0.2,0.7-0.1,0.9c0,0.1,0,0.4-0.1,0.7
						c-0.2,0.4-0.1,0.4,0,0.2c0.1-0.2,0.3-0.7,0.5-1.2C44.9,385.1,45,384.7,45,384.7z"/>
					<path fill="#EFEFEF" d="M44.2,387.9c0.1,0,0.2-0.1,0.3-0.3c0.1-0.1,0.1-0.3,0.1-0.3c0,0-0.1,0.1-0.3,0.3
						C44.1,387.9,44.1,387.9,44.2,387.9z"/>
					<path fill="#EFEFEF" d="M43.5,380.2c-0.1-0.1-0.1-0.1-0.1,0.1c0,0.2-0.1,0.3-0.5,0.6c-0.2,0.1-0.3,0.2-0.4,0.3
						c0.1,0,0.2,0,0.4-0.1c0.2,0,0.5-0.1,0.6-0.2c0.1-0.1,0.4-0.3,0.6-0.5c0.2-0.2,0.5-0.3,0.5-0.4c0.1,0,0.2-0.1,0.3-0.2
						c0.2-0.3-0.1-0.1-0.5,0.2C43.9,380.4,43.6,380.4,43.5,380.2z"/>
					<path fill="#EFEFEF" d="M111.4,392.2c-0.1,0-0.3,0.1-0.3,0.2c0,0.1,0.1,0.2,0.3,0.2c0.1,0,0.3-0.1,0.3-0.2
						C111.7,392.3,111.6,392.2,111.4,392.2z"/>
					<path fill="#EFEFEF" d="M110.9,389.5C110.7,389.5,110.7,389.5,110.9,389.5c0,0.1,0.2,0.1,0.2,0.1
						C111.2,389.6,111.1,389.5,110.9,389.5z"/>
					<path fill="#EFEFEF" d="M111.8,372.4c0,0,0,0,0,0.1c0,0.1,0.1,0.2,0.2,0.2c0,0,0-0.1,0-0.1
						C111.9,372.5,111.9,372.4,111.8,372.4z"/>
					<path fill="#EFEFEF" d="M109.8,389.4c-0.4,0.2-0.4,0.3-0.3,0.7c0.1,0.4,0.2,0.3,0.3-0.1c0-0.2,0.1-0.4,0.3-0.4
						c0.1,0,0.2-0.1,0.2-0.2c0-0.1-0.1-0.2-0.1-0.2C110.1,389.3,109.9,389.3,109.8,389.4z"/>
					<path fill="#EFEFEF" d="M106.7,373.4c0,0.2,0,0.3,0.1,0.3c0.1,0,0.1,0.1,0.2,0.3c0,0.2,0.1,0.2,0.1,0.2c0,0,0-0.3-0.1-0.5
						C106.8,373.1,106.7,373,106.7,373.4z"/>
					<path fill="#EFEFEF" d="M111.3,372.8c-0.2-0.3-0.5-0.6-0.4-0.4C110.9,372.5,111.1,372.7,111.3,372.8
						C111.4,373,111.4,373,111.3,372.8z"/>
					<path fill="#EFEFEF" d="M112.3,388.5c0,0,0,0.1,0.1,0.2c0.1,0.1,0.3,0.2,0.3,0.2c0.1,0,0-0.1-0.1-0.2
						C112.5,388.6,112.3,388.5,112.3,388.5z"/>
					<path fill="#EFEFEF" d="M118.4,384.6c0,0,0,0.3,0,0.6c0,0.7-0.2,1.6-0.4,1.7c-0.1,0.1-0.1,0.1,0,0.2c0.1,0,0.3-0.1,0.3-0.3
						c0.1-0.2,0.2-0.3,0.2-0.3c0.2,0,0.2-0.8,0-1.4C118.5,384.9,118.4,384.6,118.4,384.6z"/>
					<path fill="#EFEFEF" d="M120.1,396.4c0,0-0.1,0.1,0,0.2c0,0.1,0.1,0.2,0.2,0.2c0.1,0,0.1-0.1,0-0.2
						C120.2,396.5,120.1,396.4,120.1,396.4z"/>
					<path fill="#EFEFEF" d="M81.2,355.3c-33.8,0-61.1,27.4-61.1,61.1c0,33.8,27.4,61.1,61.1,61.1s61.1-27.4,61.1-61.1
						C142.4,382.7,115,355.3,81.2,355.3z M136.8,421.6c0,0,0,0.1,0,0.2C136.8,421.8,136.7,421.8,136.8,421.6
						C136.7,421.6,136.7,421.5,136.8,421.6z M132.9,419.1C132.9,419.1,132.9,419.1,132.9,419.1C132.9,419.2,132.8,419.2,132.9,419.1
						C132.8,419.2,132.8,419.1,132.9,419.1z M132.4,418.3C132.5,418.1,132.5,418.1,132.4,418.3c0.1,0.2,0.1,0.3,0.1,0.1
						c0-0.1,0-0.2,0.1-0.1c0,0.1-0.3,1.2-0.4,1.2C132.1,419.5,132.3,418.5,132.4,418.3z M132.3,420.7c0.2,0,0.3,0,0.3,0.2
						c0,0.2,0,0.2-0.2,0.2c-0.1,0-0.2,0-0.2,0c-0.1,0-0.1,0-0.1-0.1C132,420.8,132.1,420.7,132.3,420.7z M132.3,422.9
						c0,0,0,0.2-0.1,0.3c-0.1,0.1-0.1,0.1-0.1,0.1C132.1,423.2,132.2,423.1,132.3,422.9C132.2,422.9,132.3,422.9,132.3,422.9z
						 M131.4,414.4c0-0.2,0.1-0.4,0.1-0.4c0.1,0,0.5,1.2,0.5,1.4c0,0.1-0.1,0.1-0.1,0.1c-0.1-0.1-0.1,0,0,0.2c0.1,0.3,0.1,0.3,0,0.4
						c-0.2,0-0.3-0.2-0.4-0.6c-0.1-0.3-0.1-0.4-0.3-0.3c-0.1,0-0.1,0.2-0.1,0.3c0,0.1,0,0.1-0.1-0.1c0-0.1,0-0.4,0.1-0.5
						c0.1-0.1,0.2-0.2,0.2-0.1C131.3,414.9,131.4,414.8,131.4,414.4z M131.7,421.3c0,0-0.1-0.1-0.1-0.1c0-0.1,0.1-0.2,0.1-0.2
						c0.1,0,0.1,0,0.1,0.1C131.8,421.2,131.7,421.3,131.7,421.3z M131.7,425.1c0,0,0,0,0,0.1c0,0.1-0.1,0.2-0.2,0.2
						c-0.1,0-0.1,0,0-0.1C131.6,425.2,131.7,425.1,131.7,425.1z M131.7,418.9c-0.2,0.2-0.3,0.3-0.6,0.3c-0.3,0-0.4,0-0.5,0.3
						c-0.1,0.2-0.1,0.4,0,0.5c0.1,0.2,0.1,0.3,0.3,0c0.1-0.1,0.3-0.3,0.3-0.3c0.1,0,0.1,0.1-0.2,0.4c-0.1,0.2-0.2,0.2-0.3,0.4
						c0,0.2,0,0.3,0,0.5c0,0.3,0,0.6,0,0.7c0,0.2-0.1,0.7-0.1,0.8c-0.1,0-0.1-0.2,0-0.4c0.1-0.3,0-0.3-0.1,0
						c-0.1,0.1-0.1,0.1-0.1-0.2c0-0.2,0-0.4,0-0.5c0-0.1,0-0.2,0-0.2c0,0-0.1,0.3-0.2,0.7c-0.1,0.5-0.2,0.8-0.3,0.9
						c-0.1,0.1-0.1,0,0-0.4c0.1-0.3,0.1-0.6,0.1-0.7c-0.1-0.2,0.2-1.3,0.3-1.5c0-0.1,0.1-0.3,0.1-0.5c0.1-0.4,0.5-1,0.5-0.9
						c0.1,0.2,0.5,0.1,0.7-0.1C131.9,418.4,131.9,418.5,131.7,418.9z M131.1,423.9c0,0.1-0.1,0.2-0.2,0.2c0,0-0.2,0.2-0.4,0.5
						c-0.4,0.5-0.4,0.6-0.3,0.2c0-0.2,0.3-0.6,0.7-0.9C131.1,423.8,131.2,423.8,131.1,423.9z M129.3,424.9c0.1,0,0.2,0,0.1,0.1
						c0,0.3-0.1,0.4-0.2,0.1c0-0.1-0.1-0.1-0.1-0.2C129.2,424.9,129.3,424.9,129.3,424.9z M129.1,424.6c-0.1,0-0.2,0.1-0.3,0.2
						c-0.1,0.1-0.1,0.1-0.1-0.1c0.1-0.1,0.1-0.2,0.2-0.2c0.1,0,0.1,0,0.1-0.1c0-0.1,0-0.1,0.1-0.1
						C129.3,424.3,129.2,424.6,129.1,424.6z M129,421.9c-0.1,0.2-0.2,0.2-0.2,0c0-0.1-0.1-0.2-0.3-0.1c-0.2,0-0.3,0-0.3-0.1
						c0-0.1-0.1-0.1-0.2-0.1c-0.2,0-0.2-0.1-0.1-0.5c0-0.3,0-0.5,0-0.6c-0.1-0.1,0-1,0.1-1.4c0.1-0.2,0.2-0.2,0.3-0.2
						c0.2,0,0.3,0,0.3-0.2c0-0.2,0.2-0.4,0.3-0.5c0.1-0.1,0.4-0.5,0.5-0.7c0.1-0.2,0.1-0.5,0.2-0.5c0.1,0,0.1-0.3,0.2-0.6
						c0.1-0.7,0.1-0.8,0.4-0.4c0.1,0.2,0.3,0.4,0.3,0.5c0.2,0.2,0.2,0.2,0.1,0.2c-0.1,0-0.1,0.1-0.1,0.3c0,0.1,0,0.3-0.1,0.3
						c-0.1,0-0.1,0.1,0,0.2c0,0.1,0,0.2-0.1,0.2c0,0-0.1,0.3,0,0.6c0,0.3,0.1,0.6,0.1,0.6c0.1,0,0,0.3-0.2,0.4
						c-0.1,0.1-0.2,0.2-0.3,0.5c-0.1,0.2-0.2,0.5-0.3,0.7c-0.1,0.2-0.2,0.4-0.2,0.5C129.5,421.1,129.2,421.7,129,421.9z
						 M128.7,424.6c0,0.1-0.1,0.2-0.1,0.2c0,0-0.1-0.1,0-0.1c0-0.1,0.1-0.2,0.1-0.2C128.7,424.4,128.7,424.5,128.7,424.6z
						 M124.7,421.2c0,0,0.1,0.2,0,0.3c0,0.1-0.1,0.1-0.1,0.1c0,0,0-0.2,0-0.3C124.7,421.1,124.7,421.1,124.7,421.2z M124.6,420.1
						c0,0-0.1-0.1-0.1-0.2c0-0.1,0-0.2,0.1-0.2c0.1,0,0.1,0.1,0.1,0.2C124.6,420,124.6,420.1,124.6,420.1z M124.7,418.6
						c-0.2-0.6-0.7-1.1-0.7-1.2c0-0.1,0-0.1,0.1-0.1c0.1,0,0.2,0.1,0.3,0.1c0.1,0,0.6,0.4,0.8,0.9s0.4,0.9,0.4,0.9
						c0.1,0,0.1,0.1,0.2,0.3c0.1,0.2,0.2,0.4,0.3,0.6c0.1,0.2,0.1,0.4,0,0.5c-0.1,0.1,0,0.5,0.1,0.9c0.2,0.6,0.2,0.7,0,1.4
						c-0.2,0.6-0.3,0.8-0.4,0.8c-0.2,0.1-0.8-1.3-0.8-2c0-0.3-0.1-0.8-0.1-1c-0.1-0.3-0.1-0.5-0.1-0.7
						C125,419.7,124.9,419.2,124.7,418.6z M126.8,423.9c0.1,0.1,0.3,0.2,0.6,0.1c0.4-0.1,0.5-0.1,0.5,0.1c0,0.2,0.1,0.3,0.3,0.3
						c0.2,0,0.3,0.1,0.3,0.2c0,0.2-0.9,0.3-1.3,0.1c-0.2,0-0.4-0.1-0.6-0.1c-0.4,0-0.6-0.3-0.5-0.6
						C126.2,423.7,126.6,423.6,126.8,423.9z M126.6,421.2c0.1-0.2,0.2-0.1,0.2,0.3c0,0.2,0,0.4-0.1,0.4
						C126.6,421.9,126.5,421.3,126.6,421.2z M127.1,421.8c0-0.1,0-0.2,0.1-0.2c0.1,0,0.1,0.1,0,0.2
						C127.1,421.9,127.1,421.9,127.1,421.8z M128,423.9c0,0,0-0.1,0.1-0.1c0.1,0,0.1,0,0.1,0.1C128.1,423.9,128,424,128,423.9z
						 M128,391.1c0,0.1,0.2,0.4,0.3,0.6c0.2,0.4,0.3,0.4,0.1,0.3c-0.1-0.1-0.2-0.1-0.2,0c0,0.1-0.1-0.1-0.6-1.4
						c-0.3-0.9-0.7-1.7-0.8-1.8c-0.1-0.2-0.5-1.1-0.4-1.1c0,0,0-0.1-0.1-0.3c-0.1-0.2,0-0.1,0.2,0.2c0.2,0.3,0.3,0.6,0.3,0.6
						c0,0.2,0.6,1.3,0.8,1.6c0.2,0.3,0.2,0.5,0.1,0.4C127.8,390.3,127.9,390.7,128,391.1z M128.4,406.2c0,0.1,0,0.2,0,0.4
						c-0.1-0.1-0.1-0.2-0.2-0.4c-0.1-0.3-0.2-0.5-0.2-0.9c0-0.3,0-0.6,0-0.6c0-0.1,0.1-0.1,0.1-0.1
						C128.1,404.5,128.4,405.8,128.4,406.2z M130,413.4c0,0,0,0.3,0,0.7c-0.1,0.9-0.2,0.8-0.1-0.1
						C129.9,413.7,129.9,413.4,130,413.4z M129.8,411.9C129.8,411.8,129.9,411.8,129.8,411.9c0.2,0,0.3,0.2,0.3,0.4
						c0.1,0.4,0.1,0.4-0.1,0C130,412.1,129.9,411.9,129.8,411.9z M130.9,414.2c-0.1-0.1-0.1-0.2-0.1-0.6c0-0.4,0-0.4-0.1-0.2
						c-0.1,0.2-0.1,0.2-0.2-0.2c-0.1-0.3-0.1-0.4,0-0.3c0.2,0.1,0.3,0.4,0.4,1C131,414.3,131,414.3,130.9,414.2z M131,413.6
						c0-0.2,0-0.2,0.1,0c0.1,0.1,0.1,0.3,0.1,0.4c0,0.1-0.1,0-0.1-0.1c0-0.1-0.1-0.2-0.1-0.1C131,413.8,131,413.8,131,413.6z
						 M129.8,424.2c0.3,0,0.2,0.2-0.1,0.3c-0.1,0-0.2,0-0.2-0.1C129.5,424.3,129.7,424.2,129.8,424.2z M130.9,412.3
						c0.1,0,0.2,0.2,0.3,1c0,0.4,0,0.4-0.1,0.1c-0.1-0.2-0.1-0.3-0.1-0.4c0-0.1,0-0.2-0.1-0.4C130.8,412.4,130.8,412.3,130.9,412.3z
						 M130.7,412.6c-0.1,0-0.1-0.1-0.1-0.2C130.5,412.3,130.7,412.3,130.7,412.6C130.8,412.6,130.8,412.6,130.7,412.6z M130.5,411.8
						c-0.1-0.2-0.2-0.3-0.2-0.2c0,0.1,0,0.2-0.1,0.1c-0.1-0.1-0.2-0.1-0.3-0.1c-0.1,0-0.2-0.1-0.2-0.3c0-0.2-0.1-0.3-0.1-0.2
						c0,0.1-0.1-0.1-0.2-0.4c-0.1-0.3-0.2-0.5-0.1-0.5c0,0,0-0.2,0-0.5c-0.1-0.2-0.1-0.5-0.1-0.7c0-0.2,0-0.3,0.2-0.3
						c0.2,0,0.2,0.1,0.3,0.6c0.1,0.3,0.1,0.7,0.1,0.8c0,0.5,0.2,1.1,0.5,1.2c0.2,0.1,0.3,0.2,0.4,0.4
						C130.7,412.2,130.7,412.2,130.5,411.8z M130.3,398.1c0.2,0.5,0.2,0.8,0.1,0.6c-0.1-0.2-0.1-0.1-0.1,0c0,0.1-0.1,0.2-0.2,0.2
						c-0.2,0-0.2,0.1-0.2,0.3c0.1,0.4-0.1,0.4-0.2,0c-0.1-0.2-0.1-0.3-0.2-0.3c-0.1,0-0.1,0,0,0.3c0.2,0.3,0.3,0.7,0.1,0.5
						c-0.1-0.1-0.1,0-0.1,0.2c0,0.3,0,0.3-0.1,0c-0.1-0.2-0.1-0.3,0-0.4c0.1-0.2,0.1-0.3-0.1-0.3c-0.1,0-0.1,0.1-0.1,0.2
						c0,0.1,0,0.1-0.1,0.1c-0.2-0.2-0.1,0.1,0,0.3c0.2,0.2,0.2,0.3,0.2,0.8c0.1,0.7-0.1,0.8-0.3,0c-0.1-0.4-0.1-0.5-0.2-0.4
						c-0.1,0.1-0.2-0.2-0.1-0.6c0.1-0.8,0.2-1.1,0.5-1c0.3,0,0.3-0.1,0.1-1c0-0.2,0-0.2,0.1,0.1c0.1,0.3,0.1,0.3,0.2,0.1
						c0.1-0.3,0-1-0.2-1.5c-0.2-0.6-0.3-0.9-0.1-0.8c0.1,0.1,0.1,0,0-0.1c-0.1-0.1-0.1-0.2-0.1-0.2c0,0,0.2,0.3,0.3,0.6
						c0.3,0.6,0.3,0.7,0.4,1.1C129.9,397,130,397.2,130.3,398.1z M129.5,394.1c-0.1,0-0.1,0.1-0.1,0.2c0,0.2,0,0.2-0.2,0.1
						c-0.2-0.2-0.4-0.3-0.4-0.1c0,0.1,0,0.1,0.1,0.1c0.1,0,0.1,0.1,0.1,0.2c0,0.2,0,0.2-0.1-0.1c-0.2-0.3-0.2-0.9-0.1-0.8
						c0.1,0,0-0.4-0.2-0.9c-0.2-0.5-0.1-0.4,0.3,0.2c0.1,0.2,0.3,0.4,0.4,0.4C129.5,393.6,129.7,394.2,129.5,394.1z M129.2,390.1
						c0-0.1,0-0.2,0-0.1C129.3,390,129.3,390.1,129.2,390.1C129.3,390.2,129.2,390.2,129.2,390.1z M121.5,375.7c0,0,0.1,0.1,0.2,0.1
						c0.1,0.1,0.2,0.2,0.3,0.3C121.8,376,121.6,375.9,121.5,375.7C121.4,375.7,121.4,375.6,121.5,375.7z M119.5,374.6
						c0.1,0,0.1,0,0.2,0.1c0,0,0.3,0.2,0.7,0.4c0.5,0.3,0.7,0.4,0.7,0.5c0,0.1-1-0.2-1.3-0.4C119.5,374.9,119.4,374.6,119.5,374.6z
						 M121.3,376.4c0.1,0.2-0.1,0.1-0.3-0.1c-0.1-0.1-0.2-0.2-0.2-0.2C120.8,376,121.1,376.2,121.3,376.4z M114.3,373.6
						c0,0.1,0,0.1-0.1,0.1c-0.1,0-0.1-0.1-0.2-0.2c0-0.1,0-0.1,0.1-0.1C114.2,373.4,114.3,373.5,114.3,373.6z M109.8,370.1
						c0.1-0.3,0.4-0.4,0.5-0.1c0,0.1,0.2,0.2,0.3,0.2c0.3,0.1,0.5,0.3,0.5,0.4c0,0-0.3,0-0.7-0.1c-0.3,0-0.4-0.1-0.7-0.1
						C109.8,370.3,109.8,370.2,109.8,370.1z M107.2,368.8c0.1-0.1,0.1-0.1,0-0.1c0,0-0.1-0.1,0-0.2c0.2-0.3,1.2,0.1,1.4,0.5
						c0,0.1,0.2,0.2,0.4,0.3c0.3,0.1,0.4,0.2,0.5,0.5c0.1,0.3,0.1,0.3-0.5,0.1c-0.8-0.3-1.1-0.5-1.1-0.7c0,0-0.1-0.1-0.4-0.2
						C107.2,368.9,107.1,368.8,107.2,368.8z M98.8,366.5c0.1,0,0.2-0.1,0.3-0.1c0.1,0,0.1,0.1,0,0.1c-0.1,0-0.2,0.1-0.3,0.1
						C98.7,366.6,98.7,366.6,98.8,366.5z M97.9,366.4c0.3,0,0.5,0.1,0.4,0.2c0,0.2-0.7,0.1-0.8-0.1
						C97.5,366.4,97.7,366.3,97.9,366.4z M97.1,366.4c0.2,0,0.2,0.1,0.1,0.2c-0.1,0.2-0.2,0.2-0.3,0C97,366.4,97,366.4,97.1,366.4z
						 M96.6,371.5c0.1,0,0.2-0.1,0.3-0.3c0-0.2,0.1-0.3,0.2-0.3c0.1,0,0.1-0.1,0.1-0.3c0-0.1,0-0.3,0.1-0.3c0.1,0,0.2-0.2,0.3-0.4
						c0.2-0.4,1.2-0.8,2-0.7c0.3,0,0.6,0,0.7,0c0.2-0.1,0.9-0.1,1,0.1c0,0.1-0.2,0.2-0.6,0.2c-1.2,0.2-1.7,0.3-1.7,0.5
						c0,0.1-0.1,0.1-0.2,0.1c-0.2,0-1.1,1.1-1,1.4c0,0.1,0.3,0.4,0.5,0.6c0.2,0.2,0.3,0.2,0.5,0.4c-0.2,0-0.3,0-0.5,0
						c-0.3,0-0.6-0.2-0.7-0.3c-0.1-0.1-0.3-0.3-0.5-0.3C96.7,371.9,96.3,371.5,96.6,371.5z M96.4,373.3c0,0.2-0.3,0.4-0.5,0.2
						c-0.1-0.1-0.1-0.2-0.1-0.3C95.9,373,96.4,373.1,96.4,373.3z M94.6,365.9c0.2,0,0.3,0,0.5,0c-0.2,0.1-0.3,0.1-0.5,0.2
						c-0.5,0.2-0.6,0.2-0.6-0.1C94.1,366,94.3,365.9,94.6,365.9z M83.1,364.5c0.4,0.1,0.8,0,0.8,0c0.1-0.1,1.4,0.1,1.5,0.3
						c0.1,0.2-1.1,0.6-1.3,0.4c-0.1-0.1-0.5-0.2-0.8-0.2C82.2,364.8,82.2,364.4,83.1,364.5z M81.4,365.1c0.1,0.1,0.2,0.1,0.2,0
						c0-0.1,0-0.2,0-0.3c0-0.2,0.5-0.1,0.5,0.1c0,0.1,0.1,0.2,0.2,0.1c0.1-0.1,0.2,0,0.2,0.1c0,0.1,0.2,0.2,0.4,0.3
						c0.2,0.1,0.6,0.3,0.9,0.5c0.3,0.2,0.6,0.3,0.6,0.3c0.1,0,0.1,0,0,0.1c-0.2,0.3-1.1,0.3-1,0c0.1-0.2-0.3-0.6-0.5-0.6
						c-0.1,0-0.3,0.2-0.4,0.4c-0.1,0.2-0.2,0.4-0.3,0.4c-0.1,0-0.2,0.1-0.2,0.3c-0.1,0.3-0.1,0.3-0.6,0c-0.3-0.2-0.4-0.3-0.3-0.3
						c0.1,0,0.1-0.1-0.1-0.2c-0.3-0.1-0.2-0.2,0.3-0.3c0.4-0.1,0.5-0.2,0.3-0.3c-0.1-0.1-0.4,0-0.5,0c-0.3,0.2-1,0-0.9-0.3
						c0-0.1,0-0.2-0.1-0.2c-0.1,0-0.2-0.1-0.2-0.2C79.8,364.7,81.2,364.8,81.4,365.1z M71.8,383.8c-0.1-0.1-0.1-0.3-0.1-0.5
						c0-0.3,0.2-0.4,0.4-0.4c0.2,0,0.3-0.2,0.4-0.3c0.2-0.4,1.1-0.5,1.1,0c0,0.2-0.1,0.4-0.2,0.5c-0.1,0.1-0.2,0.3-0.1,0.4
						c0.1,0.4-0.3,1-0.7,1.1c-0.2,0.1-0.5,0.2-0.7,0.3c-0.2,0.1-0.4,0-0.5-0.1c-0.1-0.2-0.1-0.2,0.2-0.5
						C71.8,384,71.9,383.9,71.8,383.8z M73.5,380.3c0.1-0.1,0.2-0.2,0.2-0.2c0.1,0,0.1,0.1,0,0.2c-0.1,0.1-0.2,0.2-0.2,0.2
						C73.4,380.5,73.4,380.4,73.5,380.3z M73.6,385.5c0.2-0.2,0.5-0.4,0.7-0.5c0.3,0,0.3-0.1-0.1-0.2c-0.2-0.1-0.5-0.1-0.5-0.1
						c-0.1,0.1-0.1,0-0.1-0.1c0-0.1,0.2-0.2,0.3-0.3c0.2-0.1,0.3-0.2,0.2-0.4c-0.1-0.3-0.1-0.3,0.2-0.3c0.2,0,0.4-0.1,0.4-0.3
						c0.1-0.2,0.1-0.3,0-0.3c-0.1,0-0.1-0.1-0.1-0.3c0-0.2-0.1-0.3-0.4-0.2c-0.4,0.1-0.4,0.1-0.2-0.4c0.2-0.5,0-0.7-0.2-0.3
						c-0.1,0.1-0.1,0.1,0-0.2c0.1-0.3,0.1-0.4-0.1-0.3c-0.1,0.1-0.1-0.1,0.1-0.6c0.2-0.4,0.4-0.7,0.5-0.8s0.3-0.2,0.5-0.2
						c0.3,0,0.3,0,0.1,0.3c-0.4,0.4-0.3,0.4,0.2,0.4c0.5-0.1,0.5,0.2,0.1,0.8c-0.2,0.3-0.2,0.4,0,0.5c0.1,0.1,0.2,0.3,0.3,0.5
						s0.1,0.4,0.2,0.5c0.1,0.1,0.3,0.3,0.3,0.6c0.1,0.3,0.2,0.5,0.3,0.5c0.3,0,0.4,0.4,0.1,0.7c-0.1,0.1-0.2,0.3-0.2,0.5
						c0,0.1,0,0.2-0.1,0.2c-0.1,0-0.4,0.1-0.6,0.1c-0.2,0-0.7,0.1-1.2,0.2c-0.4,0.1-0.9,0.2-1,0.3C73.2,385.9,73.3,385.8,73.6,385.5
						z M76.7,376.4c-0.4,0-0.7-0.2-0.6-0.2c0.2-0.1,0.2-0.4,0-0.4c-0.2,0-0.1-0.1,0-0.3c0.2-0.3,0.1-0.3-0.2-0.3
						c-0.4,0-0.3-0.3,0.2-0.5c0.2-0.1,0.3,0,0.4,0.2c0.1,0.2,0.2,0.3,0.4,0.2c0.1-0.1,0.5-0.2,0.9-0.2c0.4-0.1,0.7-0.2,0.7-0.3
						c0-0.1,0.1-0.2,0.1-0.2c0.1,0,1,0.9,1,1C79.3,376.1,77.6,376.5,76.7,376.4z M68.2,363.5c0.2,0,0.3,0,0.3,0.1
						c-0.1,0.1-0.7,0.2-0.6,0C67.8,363.6,68,363.5,68.2,363.5z M53.6,368.5c0.1-0.1,0.2-0.2,0.3-0.3c0.1-0.1,0.2-0.1,0.2-0.2
						c0-0.1,0.2-0.2,0.6-0.3c0.2-0.1,0.6,0,0.8,0.2c0,0,0.1,0,0.2,0c0.1,0,0.2,0,0.2,0.1c0.1,0,0.1,0,0.2-0.1c0-0.1,0.2-0.2,0.8-0.3
						c0.4-0.1,0.8-0.2,0.9-0.3c0.1-0.1-0.3-0.1-1.1,0.1c-0.3,0.1-0.4,0.1-0.2-0.1c0.2-0.2,0.2-0.2,0.1-0.2c-0.1,0-0.2,0.1-0.3,0.2
						c-0.2,0.2-0.6,0.2-0.7,0c-0.1-0.2,0-0.3,0.6-0.5c0.3-0.1,0.6-0.2,0.8-0.3c0.2-0.1,0.4-0.2,0.6-0.2c0.2,0,0.3,0,0.5-0.2
						c0.1-0.1,0.6-0.3,1.1-0.5c1.2-0.4,3.6-1.2,4.9-0.7c-0.1,0.1-0.4,0.3-0.8,0.4c-0.4,0.1-0.7,0.3-0.7,0.3c0,0.1-0.2,0.2-0.4,0.3
						c-0.3,0.1-0.7,0.3-1.1,0.5c-0.7,0.4-1.7,0.8-2,0.9c-0.3,0.1-0.4,0.3-0.1,0.3c0.2,0,0.2,0-0.1,0.2c-0.2,0.1-0.4,0.3-0.6,0.3
						c-0.2,0-0.3,0.1-0.4,0.2c0,0.1-0.2,0.2-0.3,0.3c-0.2,0.2-0.3,0.2-0.1,0.2c0.2,0.1,0,0.2-1.8,0.6c-1.5,0.3-1.8,0.3-1-0.1
						c0.3-0.1,0.4-0.2,0.3-0.3c-0.1-0.1,0.1-0.1,0.4-0.1c0.3,0,0.5-0.1,0.4-0.1c0,0,0-0.1,0-0.2c0.1-0.1,0-0.1-0.2,0
						c-0.4,0.1-0.4,0-0.2-0.2c0.1-0.1,0.1-0.1-0.1,0c-0.9,0.5-1.1,0.5-1.4,0.5c-0.3-0.1-0.3-0.2,0-0.4c0.2-0.1,0.2-0.1-0.1,0
						C53.6,368.8,53.4,368.7,53.6,368.5z M54.1,369.6c0.1-0.2,0.2-0.2,0.3-0.1c0,0.1,0,0.1-0.1,0.2
						C54.2,369.7,54.1,369.7,54.1,369.6z M54.2,369.9c0,0,0,0,0,0.1c0,0.1-0.1,0.2-0.1,0.2c0,0,0-0.1,0-0.1
						C54.1,369.9,54.2,369.9,54.2,369.9z M52.7,368.8C52.8,368.8,52.9,368.8,52.7,368.8c0,0.1-0.1,0.1-0.1,0.1
						C52.6,368.9,52.6,368.8,52.7,368.8z M52.6,369.4c0.1-0.1,0.2-0.2,0.3-0.1c0.1,0,0.3,0,0.4,0c0.1,0,0.1,0,0,0.2
						c-0.1,0.2-0.1,0.2,0.1,0.2c0.2,0,0.2,0-0.1,0.1c-0.2,0.1-0.4,0.1-0.4,0c0-0.1,0-0.1-0.1-0.1C52.6,369.7,52.5,369.6,52.6,369.4z
						 M52.5,370.2c0.1-0.1,0.2-0.1,0.3-0.1c0.1,0,0.3,0,0.6,0c0.3,0,0.5,0.1,0.6,0.2c0.1,0.2,0.2,0.2,1.3-0.1
						c0.9-0.2,1.3-0.3,1.3-0.2c0,0.1,0,0.1,0.1,0.2c-0.1,0.1-0.2,0.1-0.3,0.2c-0.2,0.1-1,0.3-1.9,0.5c-1.2,0.2-1.5,0.3-1.5,0.1
						c0-0.1,0.1-0.2,0.1-0.2c0,0,0.1-0.1,0.1-0.2c0-0.1-0.2-0.2-0.3-0.1C52.5,370.5,52.3,370.4,52.5,370.2z M52.7,370.9
						c0.1,0.3-0.4,0.6-0.7,0.4c-0.1,0-0.1,0-0.1-0.1c0.1-0.1,0.2-0.1,0.3-0.2C52.6,370.8,52.6,370.8,52.7,370.9z M50.9,369.7
						c0.1-0.1,0.2-0.2,0.4-0.2c0.2,0,0.4,0,0.5,0c0.3,0,0.4,0.2,0.3,0.4c-0.1,0.2-0.5,0.3-0.4,0.1c0-0.1-0.2-0.1-0.5,0
						c-0.4,0.1-0.4,0.1-0.3,0c0.3-0.2,0.2-0.2,0-0.1C50.9,369.8,50.9,369.8,50.9,369.7z M50.5,370.6c0,0.1,0,0.1-0.1,0.2
						c-0.1,0-0.1,0-0.1-0.1C50.4,370.4,50.5,370.4,50.5,370.6z M50.6,371.1c0.1,0.1,0.1,0.1,0.3-0.1c0.1-0.2,0.1-0.2,0.2-0.1
						c0.1,0.2,0.3,0.1,0.2-0.1c0-0.1,0.1-0.2,0.4-0.2c0.3-0.1,0.4-0.1,0.2,0.2c-0.2,0.4-0.5,0.7-0.9,0.8c-0.2,0.1-0.2,0,0-0.2
						c0.2-0.2,0.1-0.2-0.2-0.1c-0.2,0.1-0.4,0.1-0.3,0c0-0.1,0-0.1-0.1-0.1c-0.1,0-0.1,0-0.1-0.1C50.3,371,50.5,370.9,50.6,371.1z
						 M50,371.6c0.1,0,0.1,0.1-0.1,0.2c-0.1,0.1-0.1,0-0.1,0C49.8,371.7,49.9,371.6,50,371.6z M50,372.8c0.1-0.1,0.1-0.2,0-0.1
						c-0.2,0,0-0.3,0.3-0.4c0.4-0.2,0.8-0.3,0.8-0.2c0.1,0,0,0.1-0.2,0.3c-0.3,0.2-0.3,0.3-0.1,0.3c0.2,0.1-0.1,0.5-0.4,0.6
						c-0.1,0-0.3,0.1-0.4,0.2c-0.1,0.1-0.2,0.1-0.3-0.1c-0.1-0.1-0.2-0.3-0.3-0.3c-0.1,0-0.1-0.1,0-0.2c0.1-0.1,0.2-0.1,0.2,0
						C49.8,373,49.9,372.9,50,372.8z M49.1,370.5c0.2-0.1,0.4-0.2,0.4-0.2c0,0,0.1,0,0.1,0.1C49.7,370.4,49.5,370.5,49.1,370.5
						C48.8,370.7,48.8,370.7,49.1,370.5z M49,370.8c0.2-0.1,0.3-0.1,0.2,0c-0.1,0.1-0.3,0.2-0.5,0.3c-0.2,0.1-0.3,0-0.2,0
						C48.6,371,48.8,370.9,49,370.8z M48.3,371C48.4,371,48.4,371,48.3,371c0,0.1-0.1,0.1-0.1,0.1C48.2,371.1,48.2,371.1,48.3,371z
						 M48.2,371.9c0.1,0.1,0.2,0.1,0.4,0.1c0.3-0.1,0.3-0.1,0.3-0.3c0-0.2,0-0.2,0.2-0.4c0.3-0.2,0.3-0.2,0.3,0
						c-0.1,0.2,0,0.2,0.3,0.1c0.2-0.1,0.3-0.1,0.2,0c-0.2,0.3-0.6,0.6-0.9,0.6c-0.2,0-0.6,0.2-1,0.4c-0.5,0.3-0.7,0.3-0.7,0.3
						c0-0.1,0-0.1,0.2-0.2c0.1,0,0.2-0.1,0.2-0.2c0-0.1-0.1,0-0.2,0c-0.1,0.1-0.3,0.2-0.3,0.2c-0.1,0-0.2,0-0.3,0
						c-0.1,0-0.1,0-0.2,0c0.2-0.2,0.2-0.2,0.4-0.4c0.3-0.3,0.5-0.4,0.8-0.5C47.9,371.8,48.1,371.9,48.2,371.9z M46.4,372.6
						c0.1-0.1,0.2-0.2,0.3-0.2c0.1,0,0.1,0-0.1,0.1C46.4,372.7,46.2,372.8,46.4,372.6z M46.3,372.2c0.8-0.6,1.6-0.9,1.3-0.6
						c-0.2,0.3-0.8,0.6-0.7,0.4c0.1-0.1,0-0.1-0.2,0.1c-0.2,0.2-0.3,0.2-0.3,0.2c0-0.1,0,0-0.1,0.1c-0.1,0.1-0.3,0.2-0.4,0.2
						c-0.1,0-0.1,0-0.2,0C45.9,372.5,46.1,372.4,46.3,372.2z M44,374.5c0.3-0.4,0.5-0.5,0.5-0.6c0-0.1,0.1-0.2,0.3-0.3
						c0.2-0.1,0.4-0.2,0.6-0.2c0.2,0,0.4-0.1,0.5-0.1c0.3-0.1,0.5,0.1,0.3,0.3c-0.1,0.1-0.1,0.1,0.1,0.1c0.2-0.1,0.2-0.1,0.1,0.1
						c-0.1,0.1-0.1,0.2,0.2,0c0.3-0.1,0.4-0.1,0.3,0c0,0.1,0,0.1,0.2,0c0.4-0.3,0.5-0.3,0.4,0c-0.1,0.4,0.1,0.3,0.2-0.1
						c0.1-0.4,0.1-0.4,0.3-0.4c0.1,0,0.3-0.1,0.3-0.2c0.2-0.2,0.7-0.4,0.6-0.2c0,0.1-0.2,0.2-0.3,0.3c-0.2,0.2-0.2,0.3-0.4,0.8
						c-0.1,0.4-0.1,0.6,0,0.5c0.1,0,0.2,0,0.3,0.1c0.1,0.1,0.1,0.1,0.1,0.2c-0.1,0-0.2,0.1-0.3,0.1c-0.2,0-0.3,0.1-0.2,0.2
						c0.2,0.2-0.7,0.6-1,0.4c-0.1-0.1-0.2,0-0.4,0.1c-0.4,0.4-1.8,0.8-1.7,0.6c0-0.1-0.1-0.2-0.2-0.1c-0.1,0-0.3,0-0.3-0.1
						c0-0.1,0-0.1-0.1-0.1c0.2-0.1,0.2-0.1,0.4-0.2c0.2-0.1,0.5-0.2,0.7-0.2c0.2,0,0.3-0.1,0.4-0.2c0.1-0.1-0.2,0-0.6,0.1
						c-0.4,0.1-0.7,0.1-0.6,0.1c0-0.1,0.2-0.2,0.3-0.2c0.3-0.1,0.3-0.1,0-0.2c-0.1,0-0.1,0-0.2,0c0.2-0.1,0.2-0.2,0.4-0.4
						c0.2-0.1,0.2-0.2,0.4-0.4c-0.1,0.1-0.1,0.1-0.2,0.2c-0.4,0.2-0.8,0.6-0.9,0.7c-0.2,0.3-0.8,0.5-0.9,0.4
						c-0.1-0.1-0.1-0.1-0.2-0.1C43.7,374.8,43.8,374.7,44,374.5z M25.5,406.3c0,0.1-0.1,0.2-0.1,0.3c-0.1,0,0-0.1,0-0.3
						c0.1-0.2,0.1-0.3,0.2-0.3C25.6,406.1,25.6,406.2,25.5,406.3z M33.5,421.4c0,0-0.1-0.2-0.1-0.3c0-0.2,0-0.2,0.1-0.2
						c0,0.1,0.1,0.2,0.1,0.3C33.6,421.3,33.5,421.4,33.5,421.4z M48,455c0,0.2,0,0.4-0.1,0.4c-0.1,0-0.2-0.1-0.1-0.2
						c0-0.1-0.1-0.1-0.2-0.1c-0.1,0-0.3,0-0.4-0.1c-0.1-0.1-0.1-0.2,0-0.2c0.1,0-0.1-0.3-0.3-0.7c-0.3-0.5-0.5-0.7-0.6-0.7
						c-0.1,0-0.2,0-0.1-0.1c0.1-0.1,0-0.7-0.1-0.8c0,0-0.1,0.1-0.1,0.2c-0.1,0.2-0.1,0.2-0.2-0.2c-0.1-0.3-0.2-0.5-0.3-0.6
						c-0.1-0.1-0.2-0.2-0.1-0.2c0,0,0.2,0,0.3,0.2c0.1,0.2,0.3,0.3,0.3,0.2c-0.2-0.9-0.3-1.1-0.8-1.2c-0.1,0-0.1-0.1,0-0.2
						c0.1-0.1,0.3-0.1,0.4-0.1c0.2,0.1,0.2,0,0.2-0.4c0-0.3-0.1-0.6-0.1-0.6c-0.1-0.9-0.2-1.3-0.4-1.3c-0.1,0-0.1,0.1-0.1,0.4
						c0,0.2,0,0.4,0,0.4c-0.1,0-0.1,0-0.1-0.2c0-0.2-0.1-0.6-0.1-0.9c-0.1-0.3-0.1-0.7-0.1-0.8s0-0.4-0.2-0.7
						c-0.2-0.4-0.2-0.7-0.2-1.3c0.1-1.2,0-1.9-0.2-2.7c-0.1-0.4-0.2-0.7-0.1-0.7c0.1-0.1,0-0.2,0-0.3c-0.1-0.1-0.1-0.6-0.1-1.1
						c-0.1-1.5-0.3-2.9-0.6-4.4c-0.2-1.2-0.7-2.1-1.6-2.8c-0.8-0.7-1.6-1.6-1.6-2c0-0.1-0.2-0.6-0.4-1.1c-0.3-0.5-0.7-1.5-1-2.3
						c-0.3-0.7-0.7-1.6-0.9-1.8c-0.5-0.7-0.7-1.8-0.4-2.2c0.2-0.3,0.2-0.8,0-0.8c-0.1,0-0.2-0.2-0.3-0.4c-0.1-0.6,0.1-2.2,0.3-2.1
						c0.1,0,0.1-0.2,0.1-0.5c0-0.3,0.1-0.5,0.1-0.5c0.4-0.1,0.6-2.7,0.6-3.5c0-0.5,0-0.9-0.1-1c-0.1-0.2-0.7,0.4-0.7,0.7
						c0,0.4-0.3,0.3-0.5-0.1c-0.1-0.2-0.2-0.4-0.3-0.4c-0.3-0.1-0.3-0.1-0.3-0.4c0.1-0.3-0.1-0.6-0.4-0.7c0,0,0-0.2,0-0.5
						c0.1-0.2,0.1-0.7,0-1c-0.1-0.3-0.1-0.7-0.1-0.8c0-0.1,0-0.2-0.1-0.2c-0.5-0.1-1.1-0.8-1.1-1.3c-0.1-0.9-0.3-1-0.7-0.7
						c-0.3,0.2-0.4,0.2-0.8-0.3c-0.3-0.3-0.5-0.7-0.5-0.8c-0.1-0.1-0.2-0.3-0.2-0.4c-0.2-0.2-0.4-1-0.4-1.3c0-0.1,0.1-0.3,0.2-0.5
						c0.3-0.5,0.4-1.3,0.4-2.4c0-0.5,0-1,0-1.1c0-0.1,0-0.5,0-1c0-0.5,0.1-1.2,0.2-1.6c0.1-0.5,0.2-0.7,0.1-0.9
						c-0.1-0.2-0.1-0.2-0.4,0.4c-0.1,0.3-0.2,0.7-0.2,0.8c0,0.1,0,0.5-0.1,1c-0.1,0.5-0.1,0.9-0.1,0.9c0,0.1-0.1,0.4-0.2,0.8
						c-0.1,0.4-0.2,0.8-0.1,0.8c0.1,0.1,0,0.6-0.1,0.7c-0.1,0.2-0.2-1.1-0.1-1.4c0.1-0.2,0.1-0.5,0.1-0.6c-0.2-0.9-0.2-0.8,0-1.1
						c0.2-0.2,0.2-0.3,0.2-0.7c0-0.3,0.1-1,0.3-1.6c0.3-1.2,0.3-1.6,0.1-1.7c-0.1,0-0.1-0.2-0.1-0.2c0-0.1,0.1-0.5,0.2-0.9
						c0.1-0.4,0.2-0.9,0.3-1c0.1-0.2,0.1-0.2,0-0.2c-0.1,0.1,0-0.5,0.1-0.8c0.1-0.1,0.1-0.3,0.1-0.3c0.5-1.1,1.1-2.2,1.7-3.2
						c0.5-0.9,0.7-1.2,0.8-1.5c0.1-0.4,0.2-0.4,0.2-0.4c0.2,0.3,0.3,0.2,0.4-0.1c0.2-0.4,0.2-0.7,0.1-0.8c-0.1,0-0.1-0.1,0-0.2
						c0.1-0.1,0.1-0.2,0-0.1c-0.1,0-0.3,0.4-0.2,0.7c0,0.2,0,0.3-0.1,0.4c-0.2,0.1-0.4-1-0.3-1.2c0.1-0.1,0.1-0.1,0.1-0.1
						c0.1,0.2,0.2,0.2,0.3,0.1c0.1-0.1,0-0.2-0.1-0.2c-0.1,0-0.1-0.1,0.1-0.4c0,0,0.1-0.2,0.2-0.4c0.1-0.2,0.1-0.3,0-0.2
						c-0.1,0.1-0.1,0,0.1-0.3c0.2-0.3,0.3-0.4,0.1-0.2c-0.4,0.4-0.4,0.3,0-0.3c0.2-0.4,0.3-0.5,0.3-0.5c-0.1,0.1-0.1-0.6,0.1-0.7
						c0.1-0.1,0-0.1,0-0.1c-0.1,0-0.2,0-0.2,0.3c-0.1,0.2-0.1,0.3,0,0.2c0,0,0,0.1-0.1,0.2c-0.2,0.3-0.2,0.3-0.2,0.2
						c0-0.1,0.1-0.3,0.2-0.6c0.1-0.2,0.1-0.3,0-0.2c-0.1,0.1-0.1,0,0-0.1c0.1-0.1,0.2-0.2,0.2-0.2c0.1,0,0.4-0.5,0.4-0.6
						c0,0-0.1,0-0.2,0.2c-0.1,0.1-0.2,0.3-0.2,0.3c0,0,0-0.1,0-0.1c0.1-0.1,0.1-0.2,0.2-0.3c0.1-0.1,0.1-0.2,0.1-0.3
						c0-0.1,0-0.1,0,0c-0.1,0.1-0.1,0.2-0.2,0.2c0,0-0.1,0.1-0.1,0.1c0,0.1-0.4,0.9-0.5,1c-0.1,0,0.2-0.7,0.5-1.1
						c0.1-0.2,0.2-0.3,0.1-0.2c-0.2,0.3-0.3,0.3-0.4,0.1c0-0.2,0.2-0.6,0.1-0.6c-0.2,0-0.2-0.1-0.2-0.2c-0.1-0.2-0.1-0.1-0.3,0.1
						c-0.1,0.2-0.2,0.2-0.3,0.3c-0.1,0-0.3,0.2-0.4,0.3c-0.3,0.3-0.6,0.5-0.3,0.2c0.1-0.1,0.2-0.2,0.1-0.2c-0.1,0,0.5-0.6,0.7-0.7
						c0.1-0.1,0.1-0.1,0-0.1c-0.1,0-0.7,0.6-0.9,0.8c0,0.1-0.2,0.2-0.3,0.2c-0.2,0.2-0.5,0.5-0.3,0.4c0.1,0,0.1,0-0.2,0.2
						c-0.1,0.1-0.4,0.4-0.6,0.5c-0.2,0.1-0.4,0.3-0.4,0.4c0,0.1-0.1,0.1-0.2,0.2c0,0-0.3,0.2-0.4,0.4c-0.2,0.2-0.5,0.4-0.6,0.5
						c-0.1,0.1-0.2,0.2-0.3,0.2c0-0.1,0.1-0.2,0.1-0.2c0.1-0.1,0.2-0.1,0.2-0.1c0,0.1,0,0,0.1-0.1c0.1-0.1,0.3-0.3,0.6-0.6
						c0.2-0.2,0.6-0.6,0.8-0.8c0.3-0.4,0.3-0.4,0.1-0.3c-0.1,0-0.2,0.1-0.2,0.2c0,0.1-0.1,0.1-0.1,0c0-0.1-0.1-0.1-0.2,0
						c-0.2,0.1-0.2,0.1,0-0.2c0.1-0.2,0.2-0.3,0.1-0.3c0.4-0.6,0.8-1.2,1.2-1.7c0.2-0.1,0.4-0.3,0.5-0.4c0-0.1,0.1-0.2,0.2-0.3
						c0.1-0.2,0.1-0.2,0-0.1c-0.1,0.1-0.1,0.1-0.2,0.1c0.2-0.2,0.4-0.5,0.6-0.7c0.1,0,0.2-0.1,0.2-0.1c0.2-0.2,0.3-0.5,0.2-0.3
						c0,0-0.1,0.1-0.1,0.1c0.5-0.6,0.9-1.2,1.4-1.7c0.2-0.1,0.4-0.3,0.7-0.5c0.1-0.1,0.3-0.2,0.4-0.3c0.1-0.1,0.2-0.1,0.2-0.1
						c0,0,0.1,0,0.2,0c0.1,0,0.3,0,0.3,0c0.1,0,0.2,0,0.3-0.1c0.8-0.3,0.5,0.1,0.9,0.1c0.2,0.1,0.3,0,0.5-0.2
						c0.3-0.2,0.9-0.6,1.5-0.8c0.2-0.1,0.4-0.2,0.6-0.3c0.2-0.2,0.2-0.2,0.2,0c-0.1,0.3,0,0.3,0.3,0c0.1-0.1,0.2-0.2,0.2,0
						c0,0.1,0.1,0.1,0.3,0c0.2-0.1,0.5-0.1,0.6-0.1c0.2,0.1,0.5,0.1,0.6,0.1c0.4-0.1,0.6,0.1,0.3,0.2c-0.1,0-0.2,0.1-0.3,0.2
						c-0.1,0.1,0,0.1,0.5,0c0.8-0.2,1.2-0.2,0.9,0.2c-0.1,0.1-0.1,0.2,0,0.1c0.1-0.1,0.2-0.2,0.3-0.4c0.1-0.2,0.2-0.3,0.5-0.5
						c0.2-0.1,0.4-0.2,0.4-0.2c0,0-0.2,0-0.4,0.2c-0.2,0.1-0.4,0.2-0.4,0.1c0.1-0.3,0.8-0.5,0.9-0.2c0.1,0.3,1.3,0.2,1.7-0.2
						c0.3-0.3,0.4-0.5,0.1-0.4c-0.1,0-0.1,0,0.2-0.3c0.4-0.3,0.6-0.3,0.7,0.1c0,0.2,0,0.2-0.1,0.2c-0.1,0-0.2,0.1-0.3,0
						c-0.1,0-0.1,0.1-0.1,0.2c0,0.1,0,0.3-0.1,0.4c-0.1,0.1-0.1,0.2,0,0.3c0.1,0,0.1,0,0.3-0.2c0.1-0.2,0.2-0.3,0.4-0.5
						c0.3-0.2,0.7-0.5,0.5-0.5c-0.1,0-0.1-0.1,0-0.2c0.1-0.1,0.1-0.2,0.1-0.2c-0.4,0-0.4-0.2-0.2-0.5c0.1-0.2,0.3-0.4,0.5-0.5
						c0.3-0.2,0.4-0.4,0.6-0.8c0.1-0.3,0.1-0.3,0.3-0.5c0.2-0.2,1.6-0.5,1.5-0.4c-0.1,0.2-1,0.8-1.1,0.8c-0.1,0-0.3,0.1-0.5,0.3
						c-0.2,0.2-0.3,0.4-0.3,0.4c0.1,0,0.2,0.8,0,0.8c-0.2,0.1-0.3,0.4-0.1,0.3c0.1,0,0.2,0.1,0.1,0.3c-0.2,0.4-0.2,0.4,0.3,0
						c0.3-0.3,0.3-0.3,0.4-0.1c0.1,0.1,0.1,0.2-0.1,0.4c-0.2,0.2-0.2,0.2-0.2,0.4c0,0.3,0.2,0.2,0.4-0.2c0.1-0.2,0.2-0.3,0.2-0.2
						c0,0,0.2-0.1,0.5-0.3c0.2-0.2,0.3-0.4,0.3-0.4c-0.2,0,0.1-0.3,0.3-0.4c0.1,0-0.1-0.1-0.3-0.1c-0.4,0-0.5-0.1-0.5-0.4
						c0-0.3,0-0.3,0.4-0.8c0.5-0.6,0.9-0.8,1.4-0.9c0.4-0.1,0.4,0,0.1,0.2c-0.2,0.1-0.3,0.3-0.4,0.3c0,0.1-0.1,0.2-0.2,0.3
						c-0.1,0.1-0.1,0.3,0,0.4c0.1,0.2,0.1,0.2,0.3,0c0.1-0.1,0-0.2,0-0.2c-0.1,0,0-0.1,0-0.3c0.2-0.4,0.5-0.7,1.2-0.9
						c0.4-0.1,0.5-0.1,0.5,0c0,0.2,0,0.2,0.1,0c0.1-0.1,0.2-0.2,0.5-0.3c0.5-0.1,0.8,0.2,0.6,0.4c-0.1,0.1-0.1,0.1,0.1,0.1
						c0.1,0,0.2,0.2,0.3,0.4c0.1,0.2,0.2,0.3,0.3,0.2c0.2-0.2,0.6,0,0.5,0.2c0,0.1,0,0.1,0.1,0.1c0.4,0,0.4,0,0.3,0.2
						c-0.1,0.1-0.1,0.2,0.1,0.1c0.2-0.1,0.3-0.1,0.2,0c0,0.1-0.1,0.2-0.3,0.2c-0.2,0-0.2,0.1,0,0.2c0.2,0.1,0.2,0.1,0,0.2
						c-0.6,0.1-0.4,0.6,0.3,0.8c0.2,0,0.3,0.2,0.3,0.3c0,0.1,0.1,0.2,0.3,0.3c0.1,0,0.2,0.1,0.4,0.1c-0.2,0.2-0.3,0.3-0.5,0.4
						c-0.3,0.2-0.5,0.4-0.5,0.3c0-0.1-0.1,0-0.2,0.2c-0.1,0.3-0.4,0.3-0.5-0.1c-0.1-0.6-0.2-0.6-0.6-0.4c-0.3,0.3-0.3,0.3-0.2,0.6
						c0.1,0.2,0.2,0.3,0.2,0.3c0.1,0,0.1,0.2,0.1,0.4c0,0.3,0,0.5-0.3,0.7c-0.2,0.3-0.3,0.3-0.6,0c-0.4-0.4-0.6-0.3-0.3,0.2
						c0.3,0.3,0.2,0.8,0,0.7c-0.1,0-0.3-0.1-0.4-0.2c-0.1-0.1-0.3-0.2-0.3-0.3c0-0.1-0.1-0.1-0.2,0c-0.2,0.2-0.4-0.2-0.3-0.5
						c0.1-0.1,0-0.1,0-0.1c-0.1,0-0.2-0.1-0.2-0.2c0-0.2-0.3-0.2-0.8-0.1c-0.4,0.1-0.7,0.1-0.7,0c0.2-0.3,0.6-0.6,0.7-0.5
						c0.1,0,0.3,0,0.6-0.1c0.3-0.1,0.4-0.2,0.4-0.3c0-0.2,0.1-0.3,0.3-0.4c0.8-0.4,1-1.1,0.5-1.3c-0.2-0.1-0.3-0.2-0.2-0.3
						c0-0.1,0-0.1-0.2-0.1c-0.1,0.1-0.2,0.1-0.2,0c0.1-0.1,0.1-0.3,0-0.4c-0.2-0.3-0.2-0.3-0.3,0c-0.1,0.2-0.3,0.2-0.9,0.3
						c-0.4,0-0.8,0.1-0.7,0.1c0,0,0.2,0.1,0.3,0.2c0.1,0.1,0.2,0.3,0.1,0.4c-0.1,0.1-0.2,0.2-0.2,0.2c-0.1,0-0.2,0.3-0.2,0.5
						c0,0.1,0,0.1,0,0.2c-0.1,0.1-0.2,0.1-0.3,0.2c-0.2,0.1-0.4,0.3-0.6,0.3c-0.2,0-0.3,0.1-0.4,0.3c-0.1,0.2-0.1,0.2-0.1,0.1
						c0-0.1-0.1-0.2-0.3-0.2c-0.2,0-0.3,0-0.2,0c0.1,0.1-1.3,1.5-1.6,1.6c-0.3,0-0.8,0.4-0.8,0.6c0,0.1-0.1,0.2-0.2,0.2
						c-0.3,0-1.1,0.7-1.6,1.4c-0.7,0.9-0.9,1.2-0.7,1.3c0.1,0,0.1,0.3,0.1,0.5c-0.1,0.4-0.1,0.4,0.3,0.4c0.3,0,0.5,0.1,0.6,0.3
						c0.1,0.2,0.2,0.4,0.3,0.4c0.1,0,0.2,0.1,0.1,0.2c0,0.1,0.2,0.2,0.5,0.1c0.5,0,0.5,0-0.1,1.2c-0.1,0.1-0.1,0.5,0,0.8
						c0.1,0.5,0.1,0.5,0.4,0.4c0.4-0.3,0.5-0.4,0.8-1.4c0.1-0.3,0.1-0.4,0.2-0.7c0.2-0.2,0.4-0.2,0.6-0.4c0.3-0.2,0.7-0.5,0.8-0.7
						c0.3-0.5,0.5-1.1,0.4-1.4c-0.1-0.2-0.1-0.2,0.2-0.6c0.3-0.3,0.4-0.5,0.6-1.1c0.2-0.4,0.4-0.8,0.4-0.9c0.1-0.1,0.3-0.1,0.4-0.1
						c0.2,0.1,0.5,0.1,0.6,0.1c0.4-0.1,0.7,0.3,0.6,0.5c0,0.1,0.1,0.2,0.2,0.2c0.3,0.1,0.3,0.1,0,0.8c-0.3,0.6-0.3,0.7-0.1,0.6
						c0.1,0,0.2,0,0.3,0.1c0.1,0.3,0.6,0,1.2-0.6c0.2-0.2,0.3-0.4,0.5-0.6c0,0.4,0,0.6,0.1,1.1c0.1,0.6,0,1.2-0.1,1.4
						c-0.1,0.2-0.1,0.4,0,0.5c0.1,0.1,0.1,0.3,0.1,0.4c0,0.1,0.1,0.2,0.2,0.2c0.1,0,0.2,0.1,0.2,0.1c0,0.1,0.1,0.1,0.3,0.2
						c0.1,0,0.1,0.1-0.1,0.2c-0.1,0.1-0.1,0.3,0.1,0.4c0.3,0.2,0.3,0.3,0.1,0.8c-0.2,0.5-0.3,0.6-0.8,0.7c-0.3,0.1-0.8,0.4-1.1,0.6
						c-0.5,0.3-0.7,0.4-1.5,0.3c-0.8-0.1-1.1,0-1.4,0.2c-0.2,0.2-0.6,0.4-0.8,0.6c-0.2,0.2-0.7,0.6-1,0.9c-0.5,0.5-0.5,0.6-0.2,0.3
						c0.8-0.7,1.4-1.1,2-1.1c0.4,0,0.5,0.1,0.4,0.3c-0.1,0.2-0.3,0.4-0.5,0.4c-0.3,0.1-0.3,0.1-0.1,0.2c0.2,0,0.2,0.1,0.1,0.4
						c-0.2,0.5,0,1,0.4,1.1c0.3,0,0.5-0.1,0.8-0.5c0.4-0.4,0.4-0.4,0.3-0.2c-0.1,0.2-0.1,0.4,0,0.4c0.1,0,0.1,0.1-0.1,0.2
						c-0.1,0.1-0.2,0.1-0.2-0.1c0-0.2,0-0.2-0.1,0c-0.1,0.3-0.9,0.8-1.3,0.9c-0.1,0-0.4,0.2-0.7,0.4c-0.2,0.2-0.5,0.3-0.5,0.2
						c-0.1-0.1,0.1-0.7,0.3-0.7c0.1,0,0.2-0.1,0.4-0.3c0.3-0.3,0.3-0.3,0-0.2c-0.2,0.1-0.4,0.2-0.5,0.2c-0.1,0-0.3,0.1-0.4,0.2
						c-0.2,0.1-0.6,0.3-0.9,0.5c-0.6,0.3-1.2,1-1.2,1.5c0,0.2-0.1,0.3-0.6,0.4c-0.4,0.1-0.6,0.2-0.5,0.3c0,0.1,0,0.2-0.2,0.2
						c-0.2,0-0.3,0.1-0.6,0.5c-0.2,0.3-0.3,0.5-0.5,0.5c-0.1,0-0.2,0.1-0.3,0.3c0,0.2-0.2,0.5-0.3,0.7c-0.2,0.3-0.2,0.3,0-0.3
						c0.1-0.5,0.2-0.6,0-0.4c-0.2,0.3-0.5,1.1-0.5,1.4c0,0.1-0.1,0.3-0.2,0.5c-0.2,0.2-0.2,0.3-0.1,0.3c0.1,0,0.1,0.1,0,0.2
						c-0.1,0.1-0.2,0.1-0.2,0.1c0-0.1-0.1,0-0.1,0.2c0,0.2-0.1,0.3-0.3,0.3c-0.1,0-0.3,0.1-0.4,0.3c-0.1,0.2-0.3,0.3-0.4,0.3
						c-0.1,0-0.3,0.2-0.6,0.5s-0.5,0.5-0.6,0.5c-0.1,0-0.7,0.8-0.9,1.2c0,0.1-0.1,0.5-0.2,0.8c-0.3,1.4-0.4,1.9-0.6,2.4
						c-0.1,0.3-0.3,0.5-0.4,0.5c-0.1,0-0.2-0.5-0.1-0.7c0-0.1,0-0.4,0.1-0.6c0-0.3,0.1-0.6,0.2-0.8c0.3-0.5,0.1-1.3-0.2-1.1
						c-0.2,0.1-0.3,0.1-0.3-0.1c0-0.2-0.3-0.3-0.6-0.3c-0.5,0-0.6,0-0.7,0.4c-0.1,0.4-0.2,0.4-0.5,0.3c-0.6-0.3-1.2-0.3-1.5,0
						c-0.2,0.2-0.4,0.3-0.5,0.3c-0.2,0-0.8,0.8-1,1.5c-0.1,0.3-0.2,0.6-0.3,0.7c-0.1,0.1-0.4,0.6-0.6,1.3c-0.4,1-0.5,1.3-0.6,2.1
						c-0.1,1.2,0.1,1.5,0.7,1.3c0.2-0.1,0.4-0.1,0.4,0c0.1,0.2,0.6-0.5,0.8-0.9c0.2-0.6,0.5-0.8,1.1-0.9c0.6-0.1,0.6,0,0.1,0.7
						c-0.1,0.2-0.3,0.6-0.5,0.9c-0.1,0.3-0.3,0.5-0.3,0.4c0-0.1-0.2,0.2-0.3,0.6c-0.1,0.4-0.4,0.8-0.5,0.9c-0.2,0.3-0.3,0.3,0.7,0.4
						c0.5,0,0.7,0.1,0.7,0.4c0.1,0.3,0,0.5-0.5,1.7c-0.5,1.2-0.5,1.3-0.5,1.8c0,0.3,0.1,0.7,0.2,0.8c0.1,0.3,0.2,0.3,0.6,0
						c0.5-0.3,0.8-0.2,0.9,0.4c0.1,0.4,0.1,0.4,0.6-0.2c0.3-0.3,0.5-0.7,0.6-0.9c0-0.2,0.1-0.3,0.2-0.3c0.1,0,0.2,0,0.2,0
						c0.1,0,0.2-0.1,0.2-0.2c0.1-0.1,0.2-0.1,0.3-0.1c0.1,0,0.4-0.1,0.6-0.4c0.5-0.4,0.6-0.3,0.2,0.2c-0.3,0.4-0.3,0.8,0,0.5
						c0.1-0.1,0.3-0.2,0.4-0.2c0.1,0,0.2-0.1,0.2-0.2c0-0.1,0-0.2,0-0.1c0,0.1,0.1,0.2,0.2,0.2c0.1,0,0.2,0.2,0.3,0.5
						c0.1,0.3,0.2,0.4,0.5,0.4c0.2,0,0.4,0.1,0.5,0.2c0.1,0.2,0.3,0.2,0.7,0c0.5-0.2,0.6-0.2,0.6,0.1c0,0.2,0.1,0.4,0.3,0.5
						c0.2,0.1,0.3,0.3,0.1,0.6c-0.2,0.3-0.1,0.4,0.1,0.4c0.2,0,0.4,0.4,0.7,1c0.3,0.9,0.4,1,1.3,1.2c0.8,0.2,1,0.3,1.3,1
						c0.2,0.4,0.5,1.1,0.6,1.5c0.1,0.4,0.3,0.8,0.5,1c0.3,0.3,0.3,0.4,0,0.9c-0.2,0.3-0.3,0.8-0.3,1c0.1,0.4,0.1,0.4,0.3-0.1
						c0.2-0.4,0.3-0.5,0.6-0.4c0.5,0.2,0.7,0.6,0.3,1c-0.1,0.2-0.2,0.4-0.2,0.5c0.1,0.1,0.3-0.1,0.4-0.4c0.1-0.2,0.2-0.3,0.3-0.6
						c0.3,0.2,0.5,0.3,0.9,0.5c0.7,0.4,0.9,0.6,0.9,1c0,0.4,0.1,0.4,0.4,0.3c0.2-0.1,0.5-0.1,0.7,0.1c0.2,0.1,0.6,0.3,1,0.3
						c0.5,0.1,0.9,0.3,1.6,1c0.5,0.5,1.1,0.9,1.3,1c0.3,0,0.4,0.2,0.6,0.9c0.1,0.4,0.2,1.1,0.2,1.3c-0.3,1.1-1,2-1.6,2.9
						c-0.2,0.3-0.2,0.6-0.1,1.5c0.1,0.6,0.1,1.4,0,1.8c-0.1,0.4-0.1,0.7,0,0.8c0,0,0,0.4-0.2,0.8c-0.1,0.4-0.2,0.7-0.2,0.8
						c0,0.3-0.5,0.7-0.9,0.6c-0.6,0-1.9,0.7-2.2,1.1c-0.1,0.2-0.1,0.6-0.1,1.1c0.1,0.6,0,0.9-0.1,1.3c-0.1,0.3-0.3,0.7-0.4,0.8
						c-0.1,0.2-0.1,0.2-0.1,0.1c0-0.1,0-0.3,0-0.3c-0.1-0.2-0.3,0.3-0.4,1c0,0.3-0.2,0.7-0.4,1c-0.3,0.4-0.4,0.4-1,0.2
						c-0.4-0.1-0.8-0.3-0.9-0.4c-0.1-0.2-0.2-0.2-0.2,0c0,0.1,0.2,0.3,0.3,0.4c0.2,0.1,0.3,0.4,0.4,0.5c0,0.2,0.1,0.3,0.2,0.3
						c0.2,0,0.2,0.4,0,0.8c-0.2,0.4-0.7,0.5-1.5,0.4c-0.3-0.1-0.4,0-0.4,0.1c0.1,0.1,0.1,0.4,0.1,0.6c0,0.4,0,0.4-0.6,0.2
						c-0.5-0.2-0.6-0.2-0.4,0.2c0.1,0.2,0.3,0.4,0.3,0.5c0.1,0.1,0.1,0.1,0,0.1c-0.1,0-0.1,0-0.1,0.1c0,0.1,0.1,0.6,0,0.9
						c0,0.1-0.1,0.2-0.3,0.2c-0.5,0.1-0.2,1,0.4,1.1c0.3,0.1,0.4,0.5,0.1,0.7c-0.1,0.1-0.2,0.3-0.2,0.5c0,0.2-0.1,0.3-0.2,0.3
						c-0.3-0.1-0.2,0.2,0,0.6c0.2,0.4,0.2,0.4,0,0.4c-0.1,0-0.1,0,0.1,0.2c0.2,0.1,0.3,0.3,0.4,0.4c0.1,0.2,1,0.9,1.3,1
						c0.4,0.1,0.3,0.3-0.2,0.3c-0.3,0-0.5-0.1-0.7-0.2c-0.2-0.2-0.2-0.2-0.1,0c0.1,0.1,0.1,0.2-0.2,0.1c-0.2,0-0.3-0.1-0.3-0.2
						c0-0.1-0.1-0.2-0.3-0.2c-0.2,0-0.3-0.1-0.3-0.2c0-0.1,0.1-0.1,0.1-0.1c0,0,0.1-0.1,0.2-0.2c0.1-0.2,0.1-0.2-0.1-0.3
						c-0.1,0-0.2-0.1-0.1-0.2c0.1-0.2,0-0.2-0.1-0.2C48.1,454.6,48,454.8,48,455z M34.2,385.1c-0.3,0.2-0.1-0.1,0.2-0.3
						c0.1-0.1,0.3-0.2,0.3-0.3c0.1-0.1,0.1-0.2,0.2-0.2c0.1,0,0.1,0-0.1,0.2c-0.1,0.1-0.2,0.2-0.1,0.2
						C34.7,384.6,34.4,385,34.2,385.1z M36.1,386.2c0.1-0.1,0.1-0.1,0.2-0.2c0.1,0,0.1,0.1-0.1,0.4c-0.1,0.2-0.3,0.4-0.3,0.4
						C35.9,386.8,36,386.3,36.1,386.2z M56.8,375.1c-0.2,0.4-0.4,0.6-0.7,0.6c-0.4,0,0-0.6,0.5-0.7c0.2-0.1,0.4-0.2,0.4-0.2
						C56.9,374.9,56.9,375,56.8,375.1z M57,375.2C57.2,375.2,57.2,375.2,57,375.2c0,0.1-0.1,0.1-0.2,0.1
						C56.8,375.2,56.9,375.2,57,375.2z M56.1,374.5c-0.1,0.1-0.3,0.3-0.3,0.3c-0.1,0,0-0.1,0.2-0.3
						C56.4,374.2,56.5,374.2,56.1,374.5z M54.4,378.2c-0.1,0.1-0.1,0.1-0.2,0C54.2,378.2,54.2,378.2,54.4,378.2
						C54.4,378.1,54.5,378.2,54.4,378.2z M53.1,378.1c-0.2-0.1-0.3-0.1-0.6,0.2c-0.4,0.3-0.5,0.3-0.5,0.1c0-0.1-0.1-0.2-0.3-0.1
						c-0.2,0.1-0.2,0.1,0-0.1c0.1-0.1,0.4-0.5,0.6-0.7c0.2-0.3,0.4-0.5,0.5-0.5c0.1-0.1,0.2-0.1,0.2-0.1c0,0,0,0.1-0.1,0.2
						c-0.1,0.1-0.1,0.2,0,0.2c0.3,0.1,0.6,0.4,0.5,0.5c-0.1,0.1,0,0.2,0.1,0.2c0.1,0,0.1,0.1,0.1,0.2
						C53.5,378.3,53.3,378.3,53.1,378.1z M53.4,378.9c0.1,0,0.1,0.1,0,0.2c-0.1,0.1-0.2,0.2-0.3,0.2c-0.1,0-0.1-0.1,0-0.2
						C53.2,379,53.4,378.9,53.4,378.9z M52.7,378.8c-0.1,0.1-0.2,0.2-0.4,0.2c-0.1,0-0.2-0.1-0.1-0.2c0.1-0.1,0.2-0.2,0.4-0.2
						C52.8,378.6,52.8,378.7,52.7,378.8z M51.6,382.8c0,0-0.1,0.1-0.2,0.2c-0.1,0.1-0.1,0-0.1-0.1c0.1-0.1,0.2-0.2,0.2-0.2
						C51.6,382.8,51.6,382.8,51.6,382.8z M49.9,385c0,0.1-0.1,0.1-0.2,0.1c0-0.1-0.1-0.1,0-0.2c0,0,0.1-0.1,0.2-0.1
						C49.9,384.8,49.9,384.9,49.9,385z M58.4,389c-0.1,0.1-0.2,0.2-0.3,0.1c-0.1-0.1-0.1-0.2,0.2-0.5c0.4-0.4,0.5-0.5,0.3-0.2
						c-0.1,0.1-0.1,0.2-0.1,0.3C58.5,388.7,58.5,388.8,58.4,389z M58.6,387.6c-0.2,0.3-0.2,0.4,0,0.3c0.1-0.1-0.1,0.1-0.4,0.5
						c-0.6,0.6-1,0.8-0.6,0.4c0.2-0.2,0.1-0.2-0.6-0.2c-0.5,0-0.8,0-0.8-0.1c0-0.1,0.1-0.2,0.2-0.2c0.1,0,0.2-0.1,0.2-0.3
						c0.1-0.2,0.2-0.3,0.2-0.3c0.1,0,0.2-0.2,0.3-0.4c0.1-0.2,0.4-0.6,0.7-0.9c0.5-0.6,1.1-0.8,0.5-0.2c-0.5,0.5-0.7,0.9-0.5,0.8
						c0.1-0.1,0.2,0,0.2,0.2c0,0.2,0.2,0.3,0.5,0.2C58.8,387.1,58.8,387.2,58.6,387.6z M55.2,387.5c-0.1-0.1-0.3-0.2-0.3-0.3
						c0-0.3,0.4-0.2,0.5,0.1C55.5,387.5,55.4,387.6,55.2,387.5z M54.2,389.5c-0.1,0-0.3-0.1-0.3-0.3c0-0.2,0-0.2,0-0.2
						c0.1,0.1,0.2,0.2,0.3,0.3C54.4,389.5,54.4,389.5,54.2,389.5z M46,415c0,0.1-0.1,0.2-0.2,0.2c-0.1,0-0.1-0.1-0.1-0.2
						c0-0.1,0.1-0.2,0.2-0.2C46,414.8,46,414.8,46,415z M45.6,409.3c0,0.1-0.2,0.2-0.4,0.2c-0.2,0-0.3-0.1-0.2-0.2
						c0-0.1,0.2-0.2,0.4-0.2C45.5,409.1,45.6,409.2,45.6,409.3z M41.5,407.1c-0.1,0-0.2-0.2-0.2-0.3c0-0.2-0.1-0.3-0.2-0.3
						c-0.1,0-0.2-0.1-0.2-0.2c0-0.1-0.1-0.2-0.2-0.2c-0.1,0-0.2-0.1-0.2-0.2c0.1-0.2-0.2-0.3-0.4-0.1c-0.1,0.1-0.3,0.2-0.5,0.3
						c-0.3,0.1-0.3,0.1,0-0.2c0.1-0.2,0.4-0.4,0.6-0.5c0.6-0.2,0.9,0,1.9,1.3c0.2,0.2,0.4,0.5,0.5,0.6c0.3,0.2-0.1,0.5-0.7,0.5
						c-0.4,0-0.5-0.1-0.4-0.3C41.6,407.2,41.6,407.1,41.5,407.1z M41.2,408.9c0.1,0.1,0,0.2-0.3,0.2c-0.2,0-0.3-0.1-0.3-0.2
						C40.7,408.6,41.1,408.6,41.2,408.9z M42.3,404.3c0-0.1,0.1-0.2,0.2-0.2c0.1,0,0.1,0.1,0,0.2c0,0.1-0.1,0.2-0.2,0.2
						C42.2,404.5,42.2,404.4,42.3,404.3z M42.5,408.8c0.3,0.1,0.5-0.2,0.5-0.7c-0.1-0.4,1-0.2,1.3,0.3c0.2,0.2,0.3,0.5,0.3,0.5
						c0,0-0.3,0.1-0.5,0.1c-0.3,0-0.6,0.1-0.6,0.1c-0.2,0.1-1.3-0.2-1.2-0.3C42.2,408.7,42.4,408.7,42.5,408.8z M58.2,463.3
						c0,0.1,0,0.1-0.1,0.1c-0.1,0-0.2-0.1-0.1-0.1C58.2,463.2,58.2,463.2,58.2,463.3z M56.8,465.9c-0.1-0.1-0.3-0.1-0.5-0.1
						c-0.2,0-0.3,0-0.5-0.2c-0.1-0.1-0.1-0.2,0-0.1c0.1,0,0.2,0,0.3,0c0.1,0,0.3,0,0.5,0c0.4,0,0.4,0,0.1-0.2
						c-0.2-0.1-0.2-0.1-0.2-0.2c0,0,0-0.2-0.1-0.3c-0.1-0.2-0.1-0.3,0-0.3c0.3,0,0.4,0,0.9,0.6c0.9,1,0.9,1.3-0.1,1
						c-0.5-0.1-0.6-0.2-0.3-0.2C57,466,57,466,56.8,465.9z M55.7,465.1c0.4,0.1,0.4,0.2,0,0.1c-0.2,0-0.3-0.1-0.3-0.1
						C55.3,465.1,55.5,465.1,55.7,465.1z M55.5,464.7c0.1,0,0.2,0.1,0.1,0.1C55.6,464.9,55.5,464.9,55.5,464.7
						C55.4,464.7,55.4,464.7,55.5,464.7z M57,464.1c0.1-0.1,0.2-0.1,0.2,0c0,0.1,0,0.2-0.1,0.2C57,464.4,56.9,464.3,57,464.1z
						 M55.2,465.7c0,0.1-0.1,0.1-0.2,0.1c-0.1,0-0.2-0.1-0.3-0.2c-0.1-0.1,0-0.1,0.2-0.1C55.1,465.6,55.2,465.7,55.2,465.7z
						 M52.7,455.3c-0.2,0.1-0.2,0-0.2-0.2c0-0.1,0.2-0.2,0.3-0.2C53.2,455,53.1,455.2,52.7,455.3z M52.2,455.1
						c-0.1,0.1-0.2,0.1-0.2-0.1c0-0.1,0.1-0.2,0.2-0.2C52.4,454.9,52.4,455,52.2,455.1z M51.4,464.4
						C51.4,464.5,51.4,464.5,51.4,464.4c-0.1,0.1-0.1,0-0.2-0.1c0-0.1,0-0.1,0-0.1C51.3,464.3,51.4,464.4,51.4,464.4z M49.2,449.7
						c0,0.1,0,0.2-0.1,0.1c-0.1,0-0.1-0.1-0.2-0.2c0-0.1,0-0.1,0.1-0.1C49.2,449.5,49.2,449.6,49.2,449.7z M49.6,463.7
						c-0.2-0.1-0.5-0.2-0.6-0.2c-0.1,0-0.2-0.1-0.2-0.1c0,0-0.1-0.1-0.3-0.2c-0.1-0.1,0.1,0,0.5,0.2
						C49.7,463.6,50.3,463.9,49.6,463.7z M59.1,469.4c-0.1,0-0.2,0-0.4,0c-0.1-0.1-0.3-0.1-0.4-0.2c0-0.1,0.2-0.1,0.4-0.1
						C59.2,469.1,59.4,469.2,59.1,469.4z M60.5,467.5c-0.2-0.1-0.3-0.1-0.3,0c0,0.1,0.1,0.1,0.2,0.1c0.1,0,0.1,0.1,0,0.3
						c-0.1,0.1-0.2,0.2-0.3,0.1c-0.1-0.1-0.1,0-0.2,0.1c0,0.1-0.2,0.1-0.7,0.1c-0.3,0-0.8-0.1-0.9-0.1c-0.4,0-1.2-0.2-1.9-0.6
						c-0.4-0.2-0.6-0.3-0.7-0.3c-0.1,0.1,0.7,0.7,1.3,0.9c0.3,0.1,0.5,0.2,0.4,0.3c-0.1,0.1-1.1-0.3-1.9-0.7c-0.3-0.1-0.3-0.1-0.3,0
						c0.1,0.1,0.3,0.2,0.5,0.3c0.2,0.1,0.5,0.2,0.6,0.3c0.1,0.1,0,0.1-0.1,0c-2.4-1.2-4.8-2.5-7-4c-0.1-0.1-0.1-0.1-0.2-0.1
						c-0.1,0-0.2-0.1-0.2-0.2c-0.1-0.1-0.2-0.2-0.3-0.3c-0.1-0.1,0,0,0.2,0.1c0.2,0.1,0.4,0.1,0.4,0.1c0-0.1-0.3-0.2-0.5-0.3
						c-0.3-0.1-0.5-0.2-0.5-0.3c0-0.1,0-0.1,0.2,0c1.1,0.6,2.3,1.1,3.5,1.4c0.1,0,0.3,0,0.3,0.1c0,0.1,0.3,0.2,0.5,0.2
						c0.2,0.1,0.4,0.2,0.5,0.2c0,0.1,0.3,0.2,0.7,0.4c0.5,0.2,0.6,0.3,0.7,0.1c0-0.1,0.1-0.1,0.3,0c0.1,0.1,0.4,0.2,0.5,0.3
						c0.1,0.1,0.4,0.2,0.6,0.3c0.2,0.1,0.3,0.1,0.3,0c0-0.1-0.1-0.2-0.2-0.2c-0.1,0,0-0.1,0-0.1c0.1-0.1,0.2,0,0.3,0.2
						c0.2,0.2,0.3,0.3,1.1,0.4c0.8,0.1,1.1,0.1,1-0.1c0-0.1-0.2-0.3-0.4-0.5c-0.7-1-0.7-0.9-0.4-0.8c0.2,0.1,0.2,0,0.1-0.3
						c-0.1-0.3-0.1-0.4-0.2-0.4c0,0-0.1,0-0.1-0.1c0-0.1,0.1-0.2,0.3-0.3c0.2-0.1,0.4-0.2,0.4-0.3c0.1-0.1,0.6-0.3,1.1-0.4
						c0.2,0,0.3-0.1,0.3-0.1c0,0,0.2,0,0.3,0c0.1,0,0.2,0,0.3,0.1c-0.1,0-0.2,0-0.3,0c-0.1,0-0.2,0.1-0.2,0.2c0,0.1-0.1,0.1-0.2,0.1
						c-0.3-0.1-0.7,0.1-0.7,0.4c0,0.1-0.1,0.2-0.2,0.1c-0.1-0.1-0.3,0-0.5,0.3c0,0,0,0.1,0.1,0.3c0.1,0.2,0.2,0.3,0.3,0.3
						c0.2,0,1,0.7,1,0.9c0,0.1,0.1,0.2,0.2,0.2c0.2,0.1,0.2,0.2,0.3,0.4c0,0.2,0.1,0.3,0.2,0.3c0.1,0,0.1,0.1,0.1,0.1
						c0,0,0.1,0.2,0.3,0.3c0.1,0.1,0.2,0.1,0.3,0.2C60.7,467.5,60.6,467.5,60.5,467.5z M60.1,463.7
						C60.1,463.7,60.1,463.8,60.1,463.7c-0.2,0.1-0.3,0-0.3-0.1c0-0.1,0-0.1,0.1-0.1C60,463.5,60.1,463.6,60.1,463.7z M61.3,470.4
						C61.3,470.4,61.3,470.4,61.3,470.4c0.1-0.2,0.3-0.1,0.4,0.1c0,0,0,0.1,0.1,0.1C61.6,470.5,61.5,470.5,61.3,470.4z M62.7,377.3
						c-0.2-0.8-0.2-0.8,0.1-1.2c0.3-0.4,0.3-0.4,0-0.2c-0.5,0.3-0.5,0.3-0.3,0c0.1-0.2,0.1-0.4,0-0.7c-0.1-0.3-0.1-0.4,0-0.5
						c0.1-0.1,0.1-0.2,0.1-0.3c-0.1-0.2,0-0.3,0.4-0.6c0.2-0.2,0.5-0.4,0.6-0.4c0.1,0,0.3-0.2,0.5-0.5c0.2-0.4,0.3-0.4,0.1-0.3
						c-0.1,0.1-0.2,0.1-0.2,0c0-0.1-0.1-0.2-0.3-0.3c-0.3-0.1-0.3-0.1-0.2,0.1c0.1,0.1,0.1,0.1,0.1,0.2c-0.1,0.1-0.2,0.1-0.3,0.1
						c-0.4,0.2-0.7,0-0.5-0.3c0.1-0.1,0.2-0.3,0.2-0.3c0,0,0.1-0.1,0.1-0.2c0-0.1,0.1-0.2,0.2-0.3c0.1-0.1,0.1,0,0.1,0.1
						c-0.1,0.1,0,0.2,0.2,0.2c0.2,0,0.4,0,0.4,0.1c0.2,0.2,0.2-0.2,0-0.5c-0.2-0.2-0.4-0.2-0.7-0.1c-0.5,0.1-0.5,0-0.1-0.5
						c0.2-0.2,0.2-0.3,0.1-0.9c0-0.4-0.1-0.7-0.2-0.6c-0.1,0-0.1-0.1-0.1-0.2c0-0.4-0.8-0.5-1.9-0.3c-0.7,0.2-1.1,0.2-1.2,0.1
						c0-0.1-0.2-0.2-0.3-0.3c-0.2-0.1-0.1-0.1,0.3-0.2c0.3-0.1,0.5-0.2,0.5-0.3c0-0.1,0-0.1-0.1-0.1c-0.2,0.2-1.1-0.1-1-0.2
						c0.1-0.1,0.4-0.3,1.7-0.7c0.7-0.2,1-0.4,1.1-0.5c0-0.1-0.1-0.1-0.3-0.1c-0.2,0-0.3,0-0.2-0.1c0.3-0.3,1.2-0.7,1.7-0.8
						c0.3,0,0.4-0.1,0.5-0.3c0.1-0.3,2.2-0.9,2.3-0.6c0.1,0.1,0.1,0.1,0.2,0c0.1-0.1,0.2-0.2,0.4-0.1c0.3,0.2,0.5,0.2,0.5-0.1
						c0-0.3,0.1-0.3,1-0.1c0.8,0.2,0.8,0.2,0.8,0c0-0.1,0.1-0.2,0.1-0.2c0.2,0,0.1-0.2-0.2-0.3c-0.2-0.1,0.2-0.1,0.9-0.1
						c0.6,0,1.2-0.1,1.2-0.2c0-0.1,0.3-0.2,0.7-0.2c1.1-0.2,2.3-0.2,3.4,0.1c0.2,0.1,0.5,0.2,0.7,0.2c0.3,0,0.4,0.1,0.3,0.2
						c0,0.1-0.3,0.2-0.5,0.2c-0.2,0-0.5,0.1-0.5,0.2c-0.1,0.1,0.1,0.1,0.5,0.1c0.6-0.1,0.6-0.1,0.4,0.2c-0.1,0.2-0.3,0.3-0.3,0.3
						c0,0-0.1,0-0.1,0.1c0,0.1,0.2,0,0.5-0.1c0.3-0.1,0.6-0.2,0.7-0.2c0.2,0,0.5,0,0.8-0.1c0.3-0.1,0.7-0.2,1.1-0.1
						c0.2,0.1,0.4,0.1,0.6,0.2c-0.2,0.1-0.4,0.1-0.6,0.2c-0.6,0.2-0.9,0.4-1.3,0.8c-0.1,0.1-0.3,0.2-0.4,0.2c-0.1,0-0.3,0.1-0.3,0.3
						c-0.1,0.1-0.2,0.3-0.3,0.3c-0.1,0-0.3,0.2-0.4,0.4c-0.1,0.2-0.2,0.2-0.3,0.4c0.1-0.1,0.1-0.1,0.2-0.1c0.2-0.1,0.3,0,0.3,0.1
						c0,0.1,0.2,0.2,0.3,0.2c0.4,0,0.4,0.2,0.2,0.5c-0.1,0.1-0.2,0.2-0.1,0c0-0.1-0.1-0.2-0.4-0.2c0,0.1-0.1,0.1-0.1,0.1
						c0,0-0.1,0-0.1-0.1c-0.5,0.1-0.6,0.3,0,0.3c0.3,0,0.5,0.4,0.5,0.6c0,0.1-0.1,0.1-0.3,0.1c-0.4,0-0.4,0.4,0,0.4
						c0.1,0,0.2,0,0.3,0c-0.1,0-0.2,0.1-0.3,0.1c-0.2,0.1-0.3,0.2-0.3,0.3c0,0.3-0.7,0.5-1.1,0.2c-0.2-0.1-0.3-0.2-0.4-0.1
						c0,0.1,0.1,0.2,0.3,0.3c0.4,0.2,0.4,0.4,0.2,0.6c-0.2,0.1-0.7-0.3-0.7-0.4c0-0.1,0-0.2-0.1-0.2c-0.3,0-0.1,0.5,0.3,0.7
						c0.3,0.1,0.7,0.7,0.6,1c0,0.2-0.9,0.1-0.9-0.1c0-0.1-0.1-0.2-0.2-0.3c-0.2-0.1-0.2-0.1-0.2,0.2c0,0.2-0.1,0.3-0.3,0.4
						c-0.2,0.1-0.1,0.1,0.2,0.1c0.2,0,0.5,0.1,0.7,0.2c0.2,0.1,0.1,0.2-0.6,0.5c-1.2,0.6-2.6,0.9-2.8,0.6c-0.1-0.2-0.2-0.2-0.2,0.1
						c0,0.2-2.2,0.3-2.3,0.3c-0.1,0,1.8,0.2,1.5,0.4c-0.3,0.3-0.7,0.5-0.9,0.6c-0.3,0.1-0.6,0.2-0.7,0.3c-0.2,0.2-0.2,0.1-0.1-0.2
						c0.2-0.3,0.2-0.3-0.1,0c-0.2,0.2-0.5,0.4-0.8,0.5c-0.4,0.1-0.5,0.2-0.5,0.4c0,0.2,0,0.3-0.2,0.3c-0.1,0-0.2,0.1-0.1,0.1
						c0.2,0.1,0,0.4-0.5,0.7c-0.3,0.2-0.5,0.4-0.5,0.5c0,0.1-0.2,0.5-0.4,0.9c-0.3,0.5-0.5,0.6-0.7,0.7c-0.2,0-0.3-0.1-0.2-0.2
						c0-0.1,0-0.2-0.1-0.2c-0.1,0-0.1-0.1-0.1-0.2c0-0.1-0.1-0.1-0.3-0.1C63.2,378.4,62.9,378.2,62.7,377.3z M66.7,472
						c-0.2,0-0.3,0-0.5,0c-0.8-0.2-1.6-0.4-2.3-0.7c0.1,0,0.1,0,0.2,0c0.3,0,0.5-0.1,0.5-0.3c0-0.1,0.2-0.3,0.4-0.3
						c0.5-0.1,1.5,0.3,1.5,0.5c0,0.1,0.1,0.3,0.2,0.4C66.8,471.9,66.8,471.9,66.7,472z M66.9,457.1c-0.3-0.2-0.3-0.2,0-0.1
						c0.2,0.1,0.4,0.2,0.4,0.2C67.5,457.4,67.3,457.4,66.9,457.1z M81.2,474c-3.5,0-6.9-0.3-10.2-0.9c0.1,0,0.2-0.1,0.2-0.1
						c0,0-0.1-0.1-0.3-0.2c-0.1,0-0.2,0-0.3-0.1c0.1-0.1,0.1-0.1,0.2-0.1c0.2-0.1,0.2-0.1-0.3-0.2c-0.3,0-0.6,0-0.6,0
						c-0.1,0-1.2-0.5-1.2-0.6c0.1-0.6,3.5-0.6,4.5-0.5c0.3,0,0.5,0,0.6-0.1c0-0.1,0.3-0.3,0.6-0.4c0.5-0.2,0.5-0.3,0.2-0.2
						c-0.3,0-0.4,0-0.3-0.1c0-0.1,0.1-0.2,0.3-0.2c0.2,0,0.3-0.1,0.4-0.1c0-0.1,0.1-0.1,0.2-0.1c0.1,0,0.3,0,0.4-0.1
						c0.2-0.1,0.2-0.1,0-0.3c-0.2-0.2-0.2-0.2,0-0.1c0.1,0.1,0.3,0,0.5,0c0.2-0.1,0.3-0.1,0.5,0.1c0.2,0.3,0.2,0.2,0.4,0
						c0.2-0.3,0.6-0.3,0.5-0.1c0,0.1,0.3,0.2,0.8,0.2c0.8,0.1,1.2,0,1.7-0.2c0.3-0.1,2.2-0.1,2.5,0c0.1,0.1,0.3,0.1,0.4,0
						c0.8-0.2,1.7-0.1,2.6,0c0.5,0.1,1.2,0,1.9-0.1c1.1-0.2,1.4-0.3,1.9-0.7c0.2-0.1,0.2-0.1,0.4,0.1c0.1,0.2,0.3,0.2,0.4,0.2
						c0.1,0,0.2,0,0.2,0c0,0.2,0.4,0,0.6-0.2c0.2-0.2,0.7-0.4,1.3-0.6c0.1,0,0.4-0.1,0.6-0.2c0.2-0.1,0.5-0.1,0.6-0.1
						c0.2,0,0.3,0,0.3-0.1c0-0.1,0.1-0.1,0.3-0.1c0.2,0,0.3,0,0.3-0.1c0.1-0.4,1.4-0.7,1.7-0.4c0.1,0.1,0.1,0.2,0.1,0.2
						c0,0.1,1.1,0.1,2.3,0.1c0.4,0,0.7,0,0.7,0.1c-0.1,0.2-0.6,0.7-0.7,0.7c-0.1,0-0.2,0.1-0.2,0.1c-0.1,0.2,0,0.2,0.2,0.1
						c0.1-0.1,0.1-0.1,0,0.1c-0.1,0.1-0.3,0.2-0.3,0.2c-0.2,0-0.4,0.4-0.2,0.4c0.2,0.1,0.7-0.3,1.1-0.7c0.2-0.2,0.3-0.3,0.3-0.3
						c0,0,0.1,0,0.2-0.1c0.1-0.1,0.5-0.3,0.8-0.4c0.3-0.1,0.8-0.4,1.1-0.6c0.3-0.2,0.6-0.4,0.7-0.4c0.1,0,0.3-0.1,0.4-0.2
						c0.2-0.1,0.6-0.3,1.3-0.5c0.1,0,0.3-0.1,0.4-0.3c0,0,0,0,0,0c0,0,0.1-0.1,0.2-0.2c0.3-0.2,0.5-0.2,1.1-0.2c0.7,0,0.8,0,1-0.2
						c0.3-0.3,0.8-0.5,0.9-0.4c0.1,0.1,0.4,0.2,0.8,0c0.6-0.2,1.5-0.6,1.7-0.7c0.1-0.1,0.1,0,0.1,0c0,0.2,0.3,0.1,0.5-0.2
						c0.1-0.1,0.3-0.2,0.6-0.3c0.4-0.1,0.4-0.2,0.5-0.4c0.1-0.1,0.2-0.2,0.2-0.3c0.1,0,0,0-0.1,0.2c-0.1,0.2-0.1,0.2-0.1,0.2
						c0.2-0.1,0.3-0.1,0.6-0.1c0.5-0.1,0.7-0.2,0.9-0.2c0.1,0,0.1,0,0,0c-0.1,0.1,0.1,0.2,0.4,0.1c0.1,0,0.1,0,0.1,0c0,0,0,0,0.2,0
						c0.1-0.1,0.2-0.1,0.3-0.2c0.1-0.1,0.2-0.2,0.1,0c0,0.1,0.1,0.1,0.2,0c0.1-0.1,0.3-0.1,0.3-0.1c0.1,0.1,0.2,0,0.6-0.1
						C105.6,469.9,93.9,474,81.2,474z M73,470.6c0-0.1,0-0.1,0-0.1c0,0,0.1,0.1,0.1,0.1c0,0.1,0,0.1,0,0.1
						C73.1,470.8,73,470.7,73,470.6z M78.2,469.4c0-0.1,0.1-0.2,0.1-0.2c0,0,0,0.1,0.1,0.2c0,0.1,0,0.2-0.1,0.2
						C78.2,469.6,78.2,469.5,78.2,469.4z M100.3,434.7c-0.1-0.9,0.3-1.5,1.1-1.9c0.3-0.1,0.7-0.4,0.9-0.7c0.2-0.2,0.4-0.5,0.6-0.7
						c0.2-0.2,0.3-0.4,0.3-0.6c0-0.1,0.1-0.3,0.2-0.4c0.1-0.1,0.1-0.1,0.2-0.1c0.1,0,0.3,1,0.3,1.6c0,0.6,0,0.7-0.2,0.6
						c-0.2-0.1-0.2,0-0.2,0.3c0,0.2,0,0.4-0.1,0.6c-0.1,0.1-0.2,0.3-0.2,0.5c-0.5,1.5-1.1,3.3-1.9,4.4c0,0.1-0.3,0.2-0.6,0.3
						c-0.7,0.2-1-0.2-0.9-1.2c0-0.6,0.1-0.9,0.4-1.3C100.3,435.5,100.3,435.4,100.3,434.7z M105.5,453.9c0.2,0,0.2,0.1,0.1,0.2
						c-0.3,0.2-0.6,0.3-0.5,0C105.1,454,105.3,453.9,105.5,453.9z M105.4,435.6c0-0.1,0.1-0.2,0.1-0.2c0,0,0.1,0.1,0.1,0.2
						c0,0.1,0,0.2-0.1,0.2C105.4,435.8,105.4,435.7,105.4,435.6z M106.3,413.2c0.3,0,0.3,0.1,0.2,0.3c-0.1,0.1-0.2,0-0.2-0.1
						C106.1,413.3,106.2,413.2,106.3,413.2z M111.5,459.1c0,0,0-0.1,0.1-0.1c0.1,0,0.1,0,0.1,0C111.6,459.1,111.6,459.1,111.5,459.1
						z M119.3,417.3c-0.2,0.2-0.3,0.2-0.4,0c-0.2-0.3-0.5-1.5-0.5-1.9c0-0.5,0.1-0.4,0.6,0.4C119.5,416.7,119.6,417,119.3,417.3z
						 M123.1,409.7c0,0.2-0.1,0.3-0.1,0.5c-0.1,0.5-0.2,0.5-0.5,0.4c-0.1-0.1-0.2-0.2-0.2-0.5c0-0.5-0.4-1.4-0.6-1.4
						c-0.1,0-0.1-0.1-0.1-0.3c0-0.2-0.1-0.4-0.3-0.5c-0.2-0.1-0.4-0.5-0.6-0.9c-0.4-0.8-0.7-1.1-0.6-0.6c0,0.2,0,0.3-0.1,0.4
						c-0.1,0-0.3,0.1-0.4,0.1c-0.2,0-0.4,0.1-0.4,0.1c-0.1,0-0.1,0.2,0,0.4c0.1,0.4,0,0.8-0.2,0.8c-0.1,0-0.2,0.3-0.3,0.6
						c-0.3,1.1-0.6,1.7-0.7,1.7c-0.1,0-0.1,0.1-0.1,0.2c0,0.1,0,0.2-0.2,0.3c-0.2,0.1-0.2,0.3,0,1.1c0.3,1.1,0.6,2.3,0.2,3.4
						c-0.3,0.9-0.5,0.9-0.9-0.1c-0.2-0.4-0.5-1.1-0.8-1.5c-0.2-0.4-0.5-0.9-0.5-1.1c0-0.1-0.3-0.6-0.5-1.1c-0.6-1.1-1.1-2.4-1.4-3.7
						c0-0.1-0.1-0.5-0.2-0.8c-0.3-0.5-0.3-0.5-0.2-0.1c0,0.7-0.4,0.8-1,0.1c-0.5-0.6-0.5-0.6-0.2-0.6c0.1,0,0.2-0.1,0.2-0.2
						c0-0.1-0.1-0.1-0.1-0.1c-0.1,0.2-0.7-0.4-1.5-1.3c-0.3-0.4-0.6-0.6-0.6-0.6c-1.1,0.4-2.7,0.1-3.8-0.3c-0.1-0.1-0.2-0.3-0.3-0.6
						c-0.2-0.5-0.5-0.7-0.4-0.3c0,0.1,0,0.2-0.1,0.1c-0.1-0.1-0.2,0-0.3,0.1c-1,0.2-2-1-2.4-1.8c-0.5-0.8-0.8-1-1.2-0.6
						c-0.2,0.2-0.2,0.2,0.2,1c0.2,0.4,0.5,0.9,0.6,0.9c0.1,0.1,0.4,0.5,0.5,0.9c0.3,0.7,0.3,0.8,0.4,0.3c0-0.6,0.4-0.4,0.4,0.2
						c0,1.2,1.2,1.2,1.8,0c0.1-0.3,0.2-0.4,0.3-0.7c0.1,0.2,0.1,0.3,0.2,0.6c0.2,0.7,0.4,1,0.9,1.2c0.2,0.1,0.6,0.3,0.8,0.6
						c0.1,0.2,0.2,0.3,0.4,0.5c-0.1,0.3-0.1,0.4-0.2,0.7c-0.1,0.3-0.2,0.7-0.3,0.7c-0.2,0-0.2,0.6-0.1,0.8c0,0.1,0,0.3-0.2,0.4
						c-0.2,0.1-0.3,0.3-0.3,0.5c0,0.1-0.1,0.2-0.2,0.2c-0.2,0-0.3,0.1-0.2,0.3c0,0.2-0.2,0.3-0.5,0.4c-0.3,0.1-0.6,0.3-0.8,0.6
						c-0.1,0.3-0.5,0.6-0.8,0.8c-0.3,0.1-0.7,0.4-0.9,0.6c-0.2,0.2-0.4,0.3-0.4,0.3c0,0-0.2,0-0.4,0.2c-0.2,0.1-0.4,0.2-0.5,0.2
						c-0.1,0-0.4,0.1-0.6,0.3c-0.2,0.2-0.5,0.3-0.6,0.2c-0.2-0.1-0.8-1.6-0.9-2.4c0-0.3-0.3-0.8-0.6-1.3c-0.3-0.5-0.6-0.9-0.6-1.1
						c0-0.1-0.3-0.5-0.7-0.8c-0.4-0.4-0.6-0.7-0.7-1.1c-0.1-0.7-0.5-1.5-1-1.9c-0.2-0.2-0.4-0.4-0.4-0.6c0-0.1-0.4-0.7-0.8-1.3
						c-0.4-0.6-0.8-1.2-0.9-1.4c-0.1-0.2-0.1-0.1-0.1,0.2c0.1,0.7-0.3,0.5-0.8-0.4c-0.2-0.4-0.4-0.7-0.5-0.7c-0.1,0,0,0.3,0.3,0.7
						c0.2,0.4,0.5,1,0.7,1.4c0.2,0.4,0.5,1,0.7,1.5c0.2,0.4,0.5,1,0.5,1.1c0,0.2,0.3,0.6,0.5,0.9c0.3,0.3,0.5,0.9,0.7,1.5
						c0.2,0.7,0.4,1.1,0.7,1.4c0.2,0.2,0.6,0.8,0.7,1.2c0.2,0.6,0.5,1,0.9,1.3c0.9,0.7,2,2,1.8,2.1c-0.1,0,0,0.3,0.3,0.6
						c0.2,0.2,0.3,0.3,0.5,0.5c0.6-0.2,0.9-0.3,1.5-0.4c0.8-0.2,1.6-0.5,1.8-0.6c0.2-0.2,0.3-0.1,0.3,0.8c0,0.5,0,1.1,0,1.2
						c-0.1,0.1-0.2,0.8-0.4,1.5c-0.3,1.4-0.9,2.6-2.1,3.5c-0.3,0.2-0.9,0.8-1.4,1.4c-0.5,0.6-1.1,1.3-1.4,1.6c-0.3,0.3-0.7,1-1,1.6
						c-0.4,0.8-0.5,1.1-0.4,1.4c0.1,0.2,0.1,0.8,0.1,1.3c0,0.5,0.1,1,0.2,1.1c0.2,0.2,0.2,0.6,0.1,1.8c-0.1,1.4-0.2,1.6-0.6,2
						c-0.2,0.2-0.6,0.6-0.9,0.7c-0.3,0.1-0.7,0.5-1,0.7c-0.2,0.3-0.6,0.7-0.9,0.8c-0.4,0.3-0.4,0.4-0.3,1c0.1,0.4,0.1,1,0,1.3
						c-0.1,0.6-0.1,0.7-0.8,1c-0.7,0.4-0.7,0.4-0.9,1.2c-0.1,0.6-0.2,0.9-0.6,1.3c-0.3,0.3-0.7,0.8-1,1.1c-0.9,1.3-2.4,1.9-3.9,2
						c-0.5,0-1.1,0.2-1.3,0.3c-0.2,0.1-0.4,0.1-0.7,0c-0.4-0.2-0.8-0.8-0.7-1.1c0.1-0.2-0.9-2.1-1.3-2.4c-0.4-0.3-0.7-1.1-0.9-2.3
						c-0.1-0.6-0.3-1.3-0.5-1.5c-0.6-0.9-1.4-1.9-1.6-2.9c-0.1-0.7,0.4-2.3,0.8-2.7c0.3-0.3,0.3-0.6,0.2-1.1c-0.1-0.4-0.2-1-0.3-1.4
						c-0.3-1.4-1-2.8-2-3.8c-1.1-1.1-1.4-1.7-1.2-2.1c0.1-0.1,0.2-0.7,0.2-1.2c0-0.5,0.1-1.1,0.2-1.3c0-0.2-0.1-0.5-0.5-0.8
						c-0.5-0.5-0.6-0.5-1.4-0.4c-0.9,0.1-1.3,0-1.2-0.6c0-0.2-0.2-0.4-0.4-0.6c-1-0.6-2.4,0-3.3,0.4c-0.9,0.4-1.2,0.5-1.8,0.3
						c-0.4-0.1-1-0.1-1.5,0c-1.6,0.4-1.7,0.4-2.1,0c-0.7-0.7-2.1-1.8-2.2-2.7c0-0.2-0.2-0.8-0.5-1.3c-0.3-0.5-0.5-0.9-0.5-1
						c0-0.1-0.1-0.3-0.3-0.3c-0.3-0.1-0.3-0.3-0.2-0.7c0.1-0.3,0.1-0.8,0-1c-0.1-0.3-0.1-0.5,0-0.5c0.2-0.1,0.7-1.5,0.8-2.2
						c0.2-1.2,0.2-1.6,0-2c-0.2-0.3-0.1-0.4,0.3-1.3c0.3-0.5,0.6-1.1,0.8-1.3c0.2-0.2,0.4-0.5,0.4-0.7c0.1-0.4,1.2-1.9,1.8-2.3
						c0.9-0.6,1.4-1.2,1.4-1.8c0-0.6,0.7-1.8,1.4-2.2c0.4-0.2,0.7-0.6,0.9-1c0.3-0.7,0.4-0.8,0.6-0.5c0.2,0.3,1.7,0.4,1.9,0.2
						c0.8-0.9,2.4-1.1,3.6-1.2c0.9-0.1,2-0.2,2.3-0.3c0.4-0.1,0.6,0,0.6,0.1c0,0.1,0.1,0.1,0.3,0.1c0.2-0.1,0.2-0.1,0,0.2
						c-0.2,0.3-0.2,0.4,0,0.7c0.2,0.3,0.1,0.4-0.2,0.7c-0.2,0.2-0.4,0.4-0.4,0.5c0,0.2,1.5,1,1.6,0.8c0.2-0.2,1.4,0.4,1.6,0.8
						c0.1,0.2,0.3,0.4,0.6,0.4c0.2,0,0.7,0.2,1.1,0.4c0.7,0.4,0.8,0.4,1,0.1c0.1-0.2,0.2-0.5,0.2-0.8c0-0.6,0.7-1,1.3-0.8
						c0.2,0.1,0.4,0.2,0.4,0.3c0,0.1,0.4,0.3,1,0.4c0.5,0.2,1.2,0.4,1.5,0.5c0.8,0.3,1.2,0.3,1.7,0c0.4-0.2,0.5-0.2,0.9,0
						c0.7,0.5,1.2,0.1,1.5-1.2c0.1-0.6,0.2-1.5,0.2-2c0-0.3,0-0.5,0-0.9c-0.2,0-0.3,0-0.5,0.1c-0.3,0-0.5,0.2-0.6,0.3
						c-0.1,0.3-0.7,0.2-1.2-0.2c-0.4-0.3-0.5-0.3-0.7,0c-0.2,0.3-0.3,0.3-0.6,0.1c-0.2-0.1-0.5-0.3-0.8-0.5
						c-0.3-0.1-0.5-0.4-0.5-0.6c0-0.2-0.1-0.3-0.2-0.3c-0.1,0-0.1-0.2-0.1-0.5c0-0.3,0-0.5-0.2-0.5c-0.1,0-0.2-0.1-0.1-0.3
						c0.1-0.7-0.9-1.1-1.3-0.5c-0.1,0.2-0.3,0.3-0.5,0.2c-0.3-0.2-0.4,0.2-0.1,0.4c0.1,0.1,0.1,0.3,0.1,0.4c0,0.2,0,0.3,0.1,0.3
						c0.7-0.1,0.9,0.4,0.3,0.7c-0.3,0.1-0.4,0.3-0.3,0.5c0.1,0.2,0,0.3-0.1,0.3c-0.3,0-1-0.9-0.8-1c0.1,0-0.1-0.4-0.5-0.9
						c-0.4-0.5-0.6-1-0.7-1.3c0-0.4-0.2-0.7-0.6-1.1c-0.4-0.3-0.8-0.6-1-0.7c-0.2-0.1-0.5-0.4-0.7-0.7c-0.1-0.4-0.3-0.6-0.5-0.5
						c-0.1,0.1-0.3,0-0.3-0.2c-0.1-0.5-0.7-0.2-0.7,0.4c0,0.3,0,0.5,0.1,0.5c0.1,0,0.4,0.4,0.7,0.8s0.7,0.8,0.8,0.8
						c0.1,0,0.3,0.1,0.3,0.2c0,0.1,0.1,0.2,0.2,0.2c0.3,0,1.3,0.8,1.2,0.9c0,0.1-0.2,0-0.4-0.2c-0.3-0.2-0.4-0.2-0.5,0
						c-0.2,0.2-0.2,0.3,0,0.5c0.2,0.2,0.2,0.3-0.2,0.8c-0.4,0.5-0.5,0.6-0.3,0.1c0.2-0.8-0.1-1.3-1.1-1.9c-0.5-0.3-1.3-1-1.6-1.6
						c-0.4-0.5-0.7-0.9-0.8-0.9c-0.1,0-0.5,0.2-0.9,0.5c-0.6,0.4-0.8,0.4-1.1,0.3c-0.5-0.3-1,0-1.2,0.6c-0.1,0.4-0.2,0.6-0.6,0.8
						c-0.6,0.3-1.3,1.1-1.4,1.6c0,0.4-0.5,1.3-0.7,1.3c-0.1,0-0.2,0.1-0.3,0.3c-0.1,0.2-0.3,0.3-0.7,0.3c-0.3,0-0.8,0.1-1,0.2
						c-0.3,0.2-0.5,0.2-0.7-0.2c-0.2-0.3-0.4-0.4-0.7-0.3c-0.4,0.1-0.5,0.1-0.4-0.4c0-0.3,0-0.6,0-0.7c-0.1-0.2-0.1-0.4,0.2-0.9
						c0.2-0.4,0.3-1,0.4-1.5c0.1-0.8,0.1-0.9,0.4-1.1c0.2-0.1,0.4-0.2,0.5-0.1c0.1,0,0.7,0.1,1.4,0.1c1.2,0.1,1.3,0,1.5-0.4
						c0.1-0.3,0.2-0.7,0.3-1c0.1-0.8-0.5-1.7-1.1-1.7c-0.2,0-0.3-0.1-0.2-0.3c0-0.3,0.3-0.4,1-0.3c0.3,0,0.4-0.1,0.4-0.4
						c0-0.4,0.1-0.4,0.3-0.2c0.2,0.2,0.4,0.2,0.7-0.1c0.3-0.2,0.5-0.5,0.6-0.6c0.1-0.2,0.3-0.3,0.5-0.4c0.2-0.1,0.6-0.4,0.8-0.8
						c0.3-0.5,0.4-0.6,0.5-0.4c0.1,0.2,0.1,0.1,0.2-0.2c0.1-0.4,0.2-0.5,1.2-0.5c0.4,0,0.4-0.1,0.3-1.6c0-0.6,0-0.7,0.1-0.6
						c0.1,0.1,0.2,0,0.4-0.2c0.2-0.4,0.7-0.4,0.5-0.1c-0.1,0.1,0,0.3,0,0.5c0.1,0.2,0.1,0.3-0.1,0.4c-0.1,0.1-0.3,0.2-0.3,0.4
						c-0.2,0.5,0.3,0.8,1.1,0.8c0.4,0,0.8,0.1,0.9,0.1c0.1,0.1,0.6,0,1.1-0.2c0.6-0.3,1-0.3,1.1-0.2c0.2,0.3,0.8,0.3,0.8,0
						c0-0.1,0.1-0.2,0.3-0.2c0.2,0,0.3-0.1,0.2-0.6c0-1.1,0.3-1.5,0.9-1c0.3,0.3,0.5,0.3,0.6-0.3c0-0.3,0-0.4-0.2-0.5
						c-0.1-0.1-0.3-0.2-0.3-0.3c0-0.3,0.4-0.4,1.5-0.4c0.5,0,0.9-0.1,1-0.2c0.1-0.2-0.3-0.5-0.7-0.5c-0.2,0-0.7,0.1-1.1,0.2
						c-0.9,0.1-1.5-0.2-1.5-0.8c0-0.2,0-0.5-0.1-0.7c-0.1-0.3,0.1-0.5,1.4-1.6c0.4-0.3,0.2-0.6-0.4-0.7c-0.6-0.1-1.2,0.3-1,0.7
						c0.1,0.2-0.1,0.5-0.8,0.8c-0.6,0.3-0.9,0.9-0.9,1.5c0,0.2,0.1,0.4,0.2,0.4c0.1,0,0.3,0.1,0.4,0.3c0.2,0.2,0.2,0.3,0.1,0.5
						c-0.1,0.2-0.3,0.4-0.6,0.5c-0.3,0.2-0.4,0.3-0.3,0.8c0.1,0.6-0.2,1-0.8,1c-0.2,0-0.3,0.1-0.3,0.2c0,0.4-0.5,0.4-0.7,0
						c-0.1-0.2-0.1-0.4-0.1-0.4c0-0.1,0-0.3-0.2-0.5c-0.1-0.2-0.2-0.5-0.2-0.6c0-0.1,0-0.3-0.1-0.3c-0.1,0-0.1-0.1-0.1-0.3
						c0-0.1-0.1-0.4-0.2-0.5c-0.1-0.2-0.2-0.2-0.2,0c0,0.1-0.3,0.4-0.6,0.6c-0.4,0.3-0.7,0.4-1,0.3c-0.6-0.2-0.7-0.3-0.4-0.6
						c0.2-0.3,0.2-0.3-0.1-0.2c-0.3,0.1-0.3,0.1-0.1-0.1s0.2-0.3,0.1-0.5c-0.3-0.5-0.1-1.1,0.5-1.5c0.3-0.2,0.6-0.3,0.7-0.3
						c0.1,0,0.2-0.1,0.2-0.3c0-0.2,0.1-0.2,0.2-0.2c0.1,0.1,0.3-0.1,0.5-0.3c0.2-0.2,0.4-0.3,0.4-0.3c0.1,0.1,0.1,0,0.1-0.1
						c0-0.1,0.1-0.2,0.2-0.2s0.3-0.2,0.4-0.6c0.1-0.3,0.5-0.8,0.9-1.1c0.6-0.5,0.9-1,0.5-0.7c-0.1,0.1-0.3,0-0.4-0.1
						c-0.1-0.2-0.1-0.2,0.1-0.1c0.2,0.1,0.2,0.1,0.2-0.1c-0.1-0.2,0-0.2,0.2,0c0.3,0.3,0.7,0.1,0.5-0.2c-0.1-0.2-0.1-0.2,0.1-0.2
						c0.2,0,0.3,0,0.4,0c0.1,0,0.1-0.1,0.1-0.1c-0.1-0.2,0-0.2,0.3,0c0.1,0.1,0.3,0.1,0.5-0.1c0.2-0.1,0.4-0.2,0.5-0.2
						c0.1,0.1,0.3,0,0.4-0.1c0.1-0.1,0.3-0.3,0.5-0.4c0.4-0.2,0.4-0.1,0.3,0.1c-0.1,0.1-0.2,0.3-0.2,0.4c0,0.1,0.1,0,0.2-0.1
						c0.1-0.1,0.2-0.2,0.4-0.3c0.1,0,0.3-0.1,0.4-0.2c0.1-0.1,0.2,0,0.2,0.1c0,0.1,0.1,0.2,0.2,0.1c0.1,0,0.3,0,0.5,0.1
						c0.4,0.2,0.4,0.2,0.1,0.3c-0.2,0.1-0.1,0.2,0.4,0.3c1.6,0.4,1.8,0.5,2.8,1c0.6,0.3,1.1,0.7,1.2,0.8c0.1,0.2,0,0.4-0.3,0.5
						c-0.3,0.2-0.5,0.2-1.5,0c-1.1-0.3-1.5-0.3-0.9,0c0.2,0.1,0.3,0.2,0.3,0.4c0,0.2,0.1,0.4,0.1,0.6c0.2,0.3,0.9,0.8,1.2,0.8
						c0.2,0,0.1-0.3-0.1-0.4c-0.1-0.1-0.3-0.2-0.3-0.3c0-0.2,0-0.2,0.2-0.1c0.1,0.1,0.5,0.2,0.8,0.3c0.5,0.1,0.5,0.1,0.3-0.2
						c-0.3-0.4-0.2-0.4,0.2-0.7c0.2-0.1,0.5-0.2,0.7-0.1c0.4,0.2,0.6-0.2,0.3-0.5c-0.1-0.1-0.1-0.3-0.1-0.4c0-0.1-0.1-0.4-0.2-0.5
						c-0.2-0.2,0.5-0.2,0.8,0c0.3,0.2,0.3,0.5,0.1,0.4c-0.3,0-0.3,0.3-0.1,0.4c0.3,0.2,0.8,0.2,0.8-0.1c0-0.2,0.7-0.6,1.2-0.6
						c0.2,0,0.3-0.1,0.4-0.2c0.1-0.1,0.2,0,0.3,0.1c0.1,0.2,0.3,0.2,0.9,0.1c0.6-0.1,0.8-0.1,0.9,0.1c0.1,0.2,0.2,0.2,0.3,0.1
						c0.2-0.2,0-0.5-0.5-0.9c-0.3-0.2-0.3-0.3-0.1-0.2c0.2,0.1,0.6,0.2,1,0.4c0.4,0.1,1.1,0.5,1.6,0.7c1,0.5,1.2,0.4,0.3-0.3
						c-0.3-0.2-0.5-0.4-0.4-0.4c0.1,0,0.1-0.1,0-0.3c0-0.1-0.1-0.3-0.2-0.3c-0.1,0,0-0.1,0.1-0.2c0.1-0.1,0.2-0.4,0.2-0.6
						s0.1-0.3,0.1-0.3c0.1,0,0.1-0.1,0.1-0.2c0-0.1,0-0.2,0.1-0.1c0.2,0,0.2,0.1,0.1,0.2c-0.1,0.1,0,0.2,0.2,0.2
						c0.3,0.1,0.5,0.3,0.5,0.7c0,0.2,0,0.3,0.1,0.4c0.1,0.1,0.2,0.4,0.3,0.8c0.1,0.4,0.2,0.7,0.4,0.9c0.2,0.2,0.2,0.3,0.1,0.8
						c-0.1,0.4-0.2,0.5-0.5,0.4c-0.3-0.1-0.4-0.1-0.3,0.1c0.2,0.3,1,0.3,1.3,0c0.2-0.3,0.2-0.4,0.1-0.7c-0.1-0.3-0.1-0.4,0-0.4
						c0.3-0.1,0.7,0.2,0.8,0.6c0.1,0.3,0.1,0.3,0.1,0.1c0-0.4-0.4-0.8-0.9-0.8c-0.5-0.1-0.7-0.3-0.7-0.7c0-0.2,0-0.3-0.2-0.5
						c-0.2-0.3-0.3-0.3-0.2-0.4c0-0.1,0.1-0.1,0.2-0.1c0.1,0,0.1-0.1,0-0.3c-0.1-0.2-0.1-0.2,0-0.1c0.1,0.1,0.2,0.3,0.3,0.5
						c0.1,0.3,0.2,0.4,0.5,0.5c0.3,0.1,0.3,0.1,0.1-0.1c-0.4-0.3-0.4-0.5,0-0.3c0.3,0.2,0.4,0.2,0.1-0.1c-0.3-0.3-0.3-0.3,0.1-0.1
						c0.2,0.1,0.6,0.3,0.8,0.4c0.2,0.1,0.5,0.2,0.6,0.2c0.1,0,0-0.1-0.2-0.2c-0.3-0.2-0.8-0.9-0.7-0.9c0,0,0.5,0,1,0
						c0.6,0.1,0.8,0,0.7-0.1c-0.1-0.1-0.1-0.1-0.2-0.2c0-0.1,0.1-0.1,0.1-0.2c0.2-0.3,1.7-0.4,2.7-0.1c0.3,0.1,0.5,0.1,0.4,0
						c0-0.1,0-0.1,0.1-0.1c0.1,0,0.2,0,0.2-0.1c0-0.1,0-0.2,0.1-0.2c0.3-0.1,0.9,0.1,1,0.4c0,0.1,0.6,0.4,1,0.5
						c0.2,0,0.5,0.2,0.7,0.3c0.2,0.1,0.3,0.2,0.4,0.3c0.1,0,0.2,0.1,0.2,0.2c0.2,0.3,0.2,0.4,0,0.5c-0.1,0-0.3,0.1-0.5,0.2
						c-0.1,0.1-0.3,0.2-0.4,0.2c-0.3,0.1,0,0.3,0.4,0.2c0.2,0,0.3-0.1,0.2-0.2c-0.1-0.1,0-0.1,0.3,0c0.2,0.1,0.8,0.3,1.1,0.5
						c0.4,0.1,0.8,0.3,1,0.5c0.2,0.1,0.5,0.3,0.7,0.4c0.3,0.1,0.4,0.1,0.3-0.1c-0.1-0.2,0-0.2,0.4,0c0.3,0.1,0.6,0.3,0.7,0.4
						c0.2,0.1,0.2,0.1,0.1,0.2c-0.1,0.1,0,0.1,0.1,0.1c0.2,0.1,0.4,0.4,0.3,0.4c-0.1,0-0.1,0,0.1,0.2c0.5,0.6,0.7,0.7,0.7,0.5
						c0-0.2,0.1-0.2,0.5,0c0.3,0.1,0.5,0.3,0.6,0.3c0.1,0.1,0.2,0.1,0.1,0c0-0.1,0.1-0.1,0.2,0c0.2,0.1,0.2,0.1,0-0.2
						c-0.2-0.3-0.2-0.3-0.1-0.3c0.1,0,0.2,0.1,0.3,0.1c0.1,0,0.3,0.1,0.5,0.3c0.3,0.1,0.4,0.2,0.5,0.4c0.1,0.2,0.1,0.2,0.1,0.1
						c-0.1-0.3,0.5,0,0.8,0.4c0.3,0.4-0.1,0.3,0.6,0.6c0.3,0.1,0.5,0.3,0.7,0.4c0.1,0.1,0.2,0.3,0.4,0.4c0,0,0,0,0,0
						c0.1,0.1,0.1,0.2,0.2,0.2c0,0,0,0,0.1,0c0,0.1,0.1,0.1,0.1,0.2c0,0,0,0,0,0.1c0.1,0.2,0.1,0.2,0.1,0.2c1.4,1.7,2.6,3.5,3.8,5.4
						c0,0-0.1,0-0.1-0.1c-0.2-0.3-0.3-0.3-0.4-0.1c0,0.1,0,0.1-0.1,0c0-0.1-0.1-0.1-0.1-0.1c0,0-0.1,0.1-0.1,0c-0.1,0-0.1,0.1,0,0.4
						c0.1,0.5,0.1,0.7,0.3,0.7c0.1,0,0.1,0.1,0.2,0.3c0.1,0.2,0.1,0.3,0.2,0.3c0,0,0.1,0.1,0.1,0.2c0,0.1,0,0.1,0,0.1
						c-0.2-0.2-0.1,0.1,0,0.4c0.1,0.2,0.1,0.3,0.1,0.4c-0.1,0-0.1,0.2,0,0.4c0.1,0.2,0.1,0.3,0,0.4c0,0,0,0.2,0,0.3
						c0.1,0.3,0.1,0.9,0,0.6c-0.1-0.1-0.3-0.6-0.5-1.1c-0.2-0.5-0.5-1.1-0.7-1.3c-0.3-0.6-0.4-1.3-0.3-1.4c0-0.1,0.1-0.2,0.1-0.4
						c0-0.2,0-0.4,0-0.6c0.1-0.4-0.1-1.1-0.3-1.2c-0.1,0,0,0.1,0,0.3c0.1,0.2,0.1,0.3,0.1,0.2c0-0.1-0.1,0-0.1,0.1
						c0,0.3-0.2,0.2-0.3-0.2c-0.1-0.2-0.1-0.2-0.3-0.3c-0.2-0.1-0.3,0-0.2,0.4c0,0.4,0,0.5,0.1,0.6c0.1,0.1,0.2,0.2,0,0.1
						c-0.1,0-0.2,0-0.3,0c-0.1,0-0.2,0-0.3-0.1c-0.1-0.2-0.6-0.6-0.6-0.4c0,0.1-0.2,0-0.4-0.1c-0.8-0.4-0.2-0.1-0.3,1.3
						c0,0.2-0.1,0.5-0.1,0.7c0,0.1-0.1,0.2-0.1,0.3c0.1,0,0.1,0.1,0.2,0.1c0.1,0.1,0.3,0.2,0.3,0.4c0.1,0.3,0.1,0.3,0.1,0
						c0-0.2,0-0.1,0.2,0.2c0.1,0.2,0.1,0.2,0.2-0.1c0-0.5,1,0.8,1.1,1.6c0,0.1,0.2,0.6,0.3,1c0.2,0.6,0.3,0.9,0.4,2.2
						c0.1,1.7,0,2.1-0.3,1.8c-0.2-0.2-0.2-0.2-0.3,0.2c0,0.2,0,0.5,0,0.7c0.1,0.2,0,0.8-0.1,1c0,0,0.2,0.4,0.5,0.8
						c0.4,0.7,0.5,0.9,0.7,1.4c0.2,0.6,0.2,0.7,0,0.8c-0.1,0.1-0.3,0.1-0.3,0.1c-0.2-0.5-0.5-1.4-0.5-1.5c0-0.2-0.2-0.5-0.4-0.5
						c-0.2,0-0.3-0.2-0.4-0.7c-0.1-0.4-0.1-0.4-0.4-0.6c-0.2-0.1-0.3-0.1-0.4,0.1c-0.1,0.3-0.3,0-0.3-0.4c0-0.3,0-0.3-0.2-0.5
						c-0.1-0.1-0.2,0.1-0.3,0.4c-0.1,0.3-0.2,0.6-0.3,0.6c-0.2,0,0,0.5,0.2,0.6c0.1,0,0.2,0.2,0.3,0.3c0.1,0.3,0.3,0.5,0.3,0.2
						c0-0.2,0.1-0.2,0.3-0.1c0.3,0.2,0.4,0.4,0.2,0.5c-0.2,0.1-0.3,1.1-0.1,1.3c0.1,0.1,0.3,0.3,0.8,1.2c0.5,0.9,0.7,1.4,0.5,1.6
						c0,0.1-0.1,0.1-0.1,0.2c0.1,0,0.1,0,0.2,0c0.3,0.1,0.4,0.6,0.4,1.7c0,0.3,0,0.6,0,0.7c0,0.1,0,0.2,0.1,0.3c0,0.2,0,0.8-0.2,1.4
						c-0.1,0.6-0.6,0.9-0.8,0.6c-0.1-0.1-0.1-0.1,0,0.1c0.1,0.2,0,0.4-0.2,0.6c-0.3,0.3-0.3,0.7,0,1.1c0.1,0.1,0.1,0.3,0.1,0.6
						c0,0.4-0.1,0.6-0.3,0.5c-0.3-0.2-0.3-1,0-1c0.1,0,0.1-0.1,0-0.2c-0.1-0.1-0.2-0.4-0.2-0.5c-0.2-0.6-0.6-0.4-0.7,0.3
						c-0.2,0.8,0,1.2,0.7,2.3c0.9,1.2,1,1.5,1.2,2.5c0.2,0.7,0.2,0.9,0.1,1.3c-0.1,0.2-0.2,0.4-0.3,0.4c-0.1,0-0.1,0.1-0.1,0.2
						c0,0.2-0.1,0.9-0.2,0.9c0,0-0.1-0.2-0.2-0.4c-0.1-0.3-0.2-0.5-0.3-0.6c-0.1-0.1-0.4-0.4-0.7-0.8c-0.3-0.4-0.5-0.7-0.6-0.7
						c-0.1,0-0.2-0.1-0.2-0.3c-0.1-0.6-0.2-0.1-0.1,0.9c0.1,1.2,0.1,1.4,0.5,1.8c0.1,0.2,0.3,0.6,0.4,0.8c0.1,0.3,0.2,0.4,0.3,0.5
						c0.4,0.2,1.2,1.1,1.1,1.7c-0.1,0.3-0.1,0.8-0.1,1c0,0.4,0,0.5-0.1,0.5c-0.4,0.1-0.7-1.4-0.9-2.3c-0.1-0.4-0.8-1.7-0.9-1.6
						c0,0-0.2-0.6-0.4-1.5c-0.2-1.1-0.4-1.6-0.6-2.1c-0.2-0.4-0.4-1-0.6-1.4C123.3,410.2,123.2,410,123.1,409.7z M76.3,393.4
						c0-0.1,0-0.2,0.2-0.2c0.3,0,0.3,0.1,0.1,0.3C76.4,393.6,76.3,393.6,76.3,393.4z M79.6,392.3c0.4-0.1,0.5,0,0.4,0.7
						c0,0.5-0.3,0.8-0.6,0.8c-0.1,0-0.1-0.3-0.1-0.7C79.3,392.6,79.4,392.3,79.6,392.3z M79.6,391.2c0.2-0.2,0.4-0.1,0.3,0.3
						c0,0.2-0.1,0.4-0.2,0.4C79.6,392,79.5,391.4,79.6,391.2z M81.5,394.6c0-0.1,0.4-0.2,0.8-0.2c0.7,0,0.8,0,0.7,0.5
						c0,0.3-0.1,0.5-0.2,0.5c0,0-0.4-0.2-0.7-0.4C81.8,394.9,81.5,394.7,81.5,394.6z M88.9,396.6c0.3,0,0.4,0.1,0.3,0.1
						c-0.2,0-0.4,0-0.6,0C88.5,396.7,88.6,396.6,88.9,396.6z M92.7,396.9c0-0.1,0.2-0.2,0.4-0.2c0.2,0,0.3,0.1,0.3,0.2
						c0,0.1-0.2,0.2-0.4,0.2C92.8,397.1,92.7,397,92.7,396.9z M81,382.3c-0.1,0.1-0.2,0-0.2-0.1c0-0.1,0-0.2,0.1-0.2
						C81.2,382,81.2,382.1,81,382.3z M81.5,381.7c0.4-0.2,0.4-0.1,0.4,0c0,0.3-0.3,0.6-0.5,0.5C81.2,382.1,81.2,381.8,81.5,381.7z
						 M84.5,380.6c0-0.1,0.1-0.2,0.2-0.2c0.1,0,0.1,0.1,0.1,0.2c0,0.1-0.1,0.2-0.2,0.2C84.6,380.8,84.5,380.7,84.5,380.6z M86.3,380
						c0-0.1,0.1-0.2,0.3-0.2c0.2,0,0.2,0,0.1,0.2C86.5,380.3,86.3,380.3,86.3,380z M128.6,385.7c0,0.1,0,0.1,0,0.1
						C128.5,385.8,128.5,385.7,128.6,385.7c-0.1-0.1-0.1-0.2-0.1-0.2C128.5,385.5,128.5,385.6,128.6,385.7z M125.3,386.8
						c0,0-0.1-0.1-0.1-0.2c0-0.1,0-0.2,0-0.2c0,0,0.1,0.1,0.1,0.2C125.4,386.7,125.4,386.8,125.3,386.8z M128.5,438.2
						c0,0,0-0.1,0.1-0.1c0.1,0,0.1,0,0,0C128.6,438.2,128.5,438.2,128.5,438.2z M129.3,440.8c-0.1,0.2-0.2,0.3-0.2,0.3
						c0,0-0.1,0.1-0.2,0.2c-0.2,0.4-0.3,0.2-0.1-0.5c0.1-0.2,0.1-0.3,0.1-0.5c0.1-0.1,0.2-0.1,0.3-0.2
						C129.7,440,129.7,440,129.3,440.8z M132.1,439.4c-0.2,0.3-0.3,0.6-0.3,0.6c0,0.1-0.1,0.1-0.1,0.1c0-0.1-0.3,0.3-0.5,0.8
						c-0.3,0.6-0.5,0.9-0.7,1c-0.1,0-0.1-0.1-0.1-0.2c0.1-0.3,0.5-0.9,1-1.4c0.2-0.3,0.5-0.8,0.7-1.2c0.2-0.5,0.4-0.6,0.3-0.5
						c0,0.1,0,0.1,0.1,0.1C132.5,438.5,132.4,438.8,132.1,439.4z M133.4,437.2c0,0-0.1,0.1-0.1,0.2c-0.1,0.3-0.6,1.3-0.7,1.2
						c0,0,0-0.1,0.1-0.4c0.1-0.3,0.1-0.3,0.1-0.4c0-0.1,0-0.3,0.1-0.4c0,0,0.1-0.2,0.2-0.4c0.2-0.4,0.4-1,0.4-1.2c0,0,0-0.2,0.1-0.4
						c0.1-0.3,0.1-0.4,0.1-0.2c0,0.1,0,0.3-0.1,0.6c-0.1,0.2-0.1,0.4-0.1,0.4c0,0,0.1,0,0,0.2c0,0.2,0,0.2,0.1,0.1
						c0.1-0.1,0.1-0.1,0.1-0.1C133.7,436.7,133.4,437.2,133.4,437.2z M133.8,426c0.1,0.1,0.1,0.2,0,0.5c-0.1,0.2-0.1,0.5-0.1,0.7
						c0,0.1-0.1,0.4-0.1,0.7c-0.1,0.3,0,0.5,0,0.7c0.1,0.2,0.1,0.5,0,0.8c0,0.3,0,0.5,0,0.6c0,0,0,0.1,0,0.2c0,0.1-0.1,0.4-0.1,0.7
						c0,0.4,0,0.6-0.1,0.9c-0.1,0.2-0.2,0.6-0.2,0.8c0,0.2-0.2,0.6-0.3,0.9c-0.1,0.3-0.3,0.7-0.4,1c-0.1,0.2-0.3,0.6-0.4,0.8
						c-0.2,0.4-1.2,2.3-1.3,2.7c-0.1,0.2-0.2,0.3-0.3,0.4c-0.1,0-0.3,0.3-0.5,0.5c-0.4,0.4-0.4,0.4-0.4,0.2c0-0.2,0-0.2-0.2,0.1
						c-0.2,0.2-0.3,0.3-0.3,0.2c0-0.1-0.1-0.1-0.2-0.1c-0.2,0-0.2-0.2,0-0.6c0.2-0.4,0.2-0.7,0-0.5c-0.1,0.1-0.1,0,0-0.2
						c0.2-0.4,0.2-0.6,0-0.3c-0.3,0.5-0.2,0.2,0.1-0.3c0.4-0.7,0.4-0.8-0.1-0.1c-0.4,0.7-0.6,0.8-0.4,0.5c0.1-0.4,0.1-1.2,0-1.2
						c-0.1,0-0.2,0-0.2-0.1c0-0.1-0.2,0-0.5,0.2c-1.1,0.7-1.5,1.1-1.7,1.5c-0.1,0.2-0.2,0.3-0.6,0.4c-0.3,0.1-0.6,0.3-0.9,0.6
						c-0.5,0.5-0.6,0.6-0.8,0.3c-0.2-0.2-0.2-0.3,0.1-0.5c0.2-0.1,0.6-1.2,0.5-1.3c0,0,0-0.3,0.1-0.5c0.1-0.2,0.2-0.8,0.2-1.2
						c0.1-0.7,0.2-0.8,0.3-1c0.1-0.1,0.1-0.2,0.2-0.5c0-0.5,0.5-1.9,0.7-1.8c0,0,0.1,0,0.1-0.1c0-0.1,0.1-0.2,0.1-0.2
						c0,0,0.2-0.2,0.3-0.3c0.1-0.1,0.5-0.5,0.8-0.7c0.3-0.2,0.7-0.5,0.8-0.6c0.2-0.2,0.5-0.8,0.6-1.2c0.1-0.4,0.4-0.8,0.3-0.5
						c0,0.1,0,0.2,0,0.2c0,0,0.1-0.1,0.1-0.2c0-0.2,0.1-0.2,0.2-0.3c0.1,0,0.1-0.1,0.2-0.2c0-0.2,0.4-0.8,0.5-0.8
						c0,0,0.1-0.1,0.1-0.2c0.1-0.2,0.3-0.4,0.4-0.2c0,0.1,0,0.2,0,0.3c0,0.1,0,0.2,0.1,0.1c0.1-0.1,0.2-0.2,0.2-0.3
						c0-0.1,0.1-0.3,0.2-0.5c0.1-0.2,0.2-0.3,0.2-0.4c0-0.2,0.2-0.4,0.4-0.4c0.1,0,0.3-0.4,0.2-0.5c-0.1-0.2,0-0.2,0.2,0
						c0.1,0.1,0.3,0.2,0.4,0.1c0.2,0,0.2,0,0.2,0.2c0,0.1-0.1,0.3-0.1,0.3c0,0.1-0.1,0.3-0.2,0.6c-0.2,0.5-0.2,0.6,0.1,1.1
						c0.1,0.2,0.2,0.4,0.2,0.4c0,0.2,0.1,0.1,0.3-0.3c0.1-0.2,0.3-0.8,0.4-1.2c0.3-1.1,0.5-1.8,0.6-2c0.1-0.3,0.1-0.2,0,0.7
						C133.7,425.7,133.7,425.9,133.8,426z M132.4,426.1c0,0,0,0.1,0,0.1c0,0.1-0.1,0.2-0.1,0.2c0,0,0-0.1,0-0.1
						C132.4,426.2,132.4,426.1,132.4,426.1z M132.8,422.4c0-0.2,0.1-0.4,0.1-0.4c0-0.1,0.1-0.1,0.1-0.2
						C133.1,421.8,133.1,422,132.8,422.4C132.8,422.6,132.8,422.6,132.8,422.4z M134.8,423c0-0.6-0.2-0.8-0.4-0.5
						c-0.1,0.1-0.2,0.3-0.2,0.4c-0.1,0.4-0.4,0.5-0.5,0.2c0-0.2-0.1-0.3-0.3-0.1c-0.2,0.1-0.2,0.1-0.1-0.1c0-0.1,0.1-0.3,0.2-0.3
						c0,0,0.1-0.1,0.1-0.2c0.1-0.3,0-1.1-0.1-1.1c0,0-0.2-0.1-0.3-0.3c-0.1-0.1-0.3-0.2-0.3-0.1c0,0.1-0.1,0.1-0.1,0.2
						c0,0,0-0.1,0-0.2c0-0.1,0-0.3,0-0.3c-0.1-0.1,0-0.2,0.1-0.2c0.2-0.1,0.2-0.1,0.1-0.1c-0.1,0-0.1-0.1-0.1-0.2
						c0-0.1-0.1-0.2-0.1-0.3c0,0-0.1-0.1-0.1-0.1c0.1-0.1,0.1-0.1,0.2-0.2c0.2-0.2,0.5-0.3,0.5-0.1c0,0,0,0.2,0,0.5
						c0,0.2,0,0.5,0,0.6c0,0.3,0.1,0.2,0.4-0.3c0.3-0.5,0.3-0.6,0.4-0.5c0.1,0.1,0.3,0.3,0.5,0.4c0.4,0.3,0.5,0.6,0.5,0.9
						c0,0.1,0,0.3,0.1,0.4c0.1,0.1,0.1,0.2,0,0.3c-0.1,0.1-0.2,0.4-0.1,0.7c0,0.2,0,0.4,0,0.4c0,0.1,0,0.1,0,0.1
						c0-0.1,0.1,0.1,0.1,0.3c0,0.3,0,0.4,0,0.4c0,0-0.1-0.1-0.2-0.1C134.9,423.4,134.9,423.2,134.8,423z M135.2,428.9
						c0,0-0.1-0.2-0.1-0.4c0-0.6,0-0.6,0.1,0C135.3,428.7,135.3,428.9,135.2,428.9z M135.7,421.2c-0.1,0.1-0.1,0-0.2,0
						c0-0.1-0.1-0.1-0.1-0.1c0.1-0.1,0.1-0.1,0.2-0.1c0.1-0.1,0.2-0.2,0.3-0.4c0.1-0.3,0.2-0.4,0.1-0.2
						C136.1,420.5,135.8,421.1,135.7,421.2z M136.2,420.2c0,0,0-0.1,0-0.2c0-0.1,0-0.1,0.1-0.1C136.3,420,136.3,420.1,136.2,420.2
						C136.2,420.3,136.2,420.3,136.2,420.2z M136.4,421.2c-0.1,0.1-0.1-0.3,0-0.5c0-0.1,0,0,0.1,0.1
						C136.5,421,136.4,421.2,136.4,421.2z M136.7,422.5C136.7,422.5,136.7,422.4,136.7,422.5c0-0.2,0-0.2,0-0.2
						S136.8,422.3,136.7,422.5C136.8,422.4,136.8,422.4,136.7,422.5z M136.9,422.1c0,0.1,0,0.2,0,0.1
						C136.9,422.2,136.9,422.1,136.9,422.1C136.9,421.8,136.9,421.8,136.9,422.1z M137.2,425.8c0-0.1,0.1-0.2,0.1-0.2
						c0,0,0.1,0.1,0,0.1C137.3,426,137.2,426,137.2,425.8z M137.5,425.2c0,0,0-0.1,0-0.1c0-0.1,0.1-0.2,0.1-0.2c0,0,0,0,0,0.1
						C137.6,425.1,137.5,425.2,137.5,425.2z"/>
					<path fill="#EFEFEF" d="M117,387.3c0.1,0.2,0.1,0.3,0.1,0.1c0-0.1-0.1-0.3-0.1-0.4C116.9,387,116.9,387.1,117,387.3z"/>
					<path fill="#EFEFEF" d="M118.2,375.9c0,0,0-0.1-0.1-0.2c0-0.1-0.1-0.2-0.2-0.2c0,0,0,0,0.1,0.2
						C118.1,375.8,118.2,375.9,118.2,375.9z"/>
					<path fill="#EFEFEF" d="M114.7,387.2c0,0-0.1,0.1,0,0.2c0,0.1,0.1,0.2,0.2,0.2c0.1,0,0.1-0.1,0-0.2
						C114.9,387.3,114.8,387.3,114.7,387.2z"/>
					<path fill="#EFEFEF" d="M94.2,421.3c-0.1-0.1-0.2,0-0.3,0.2c-0.1,0.2-0.2,0.4-0.2,0.4c0.1,0.1,0.2,0,0.3-0.2
						C94.1,421.6,94.2,421.4,94.2,421.3z"/>
					<path fill="#EFEFEF" d="M97.7,394.4c-0.2,0-0.2,0.1-0.1,0.1c0.1,0.1,0.2,0,0.3,0C97.9,394.4,97.8,394.3,97.7,394.4z"/>
					<path fill="#EFEFEF" d="M100.5,380.4c0-0.1-0.1-0.2-0.1-0.2c0,0-0.1,0.1-0.1,0.2c0,0.1,0,0.2,0.1,0.2
						C100.5,380.6,100.5,380.5,100.5,380.4z"/>
					<path fill="#EFEFEF" d="M92.9,394.2c0.1,0.1,0.1,0.2,0.2,0.2c0,0,0-0.1,0-0.2c0-0.1-0.1-0.2-0.2-0.2
						C92.9,394,92.8,394.1,92.9,394.2z"/>
					<path fill="#EFEFEF" d="M102.4,393.9c0-0.1-0.1-0.2-0.2-0.2c-0.1,0-0.2-0.2-0.2-0.4c0-0.2,0.1-0.3,0.2-0.3c0.1,0,0.3,0,0.4,0
						c0.1-0.1,0.1-0.2-0.2-0.6c-0.3-0.4-0.4-0.4-0.6-0.2c-0.2,0.2-0.2,0.2-0.2-0.2c0-0.2-0.1-0.4-0.1-0.4c-0.1,0-0.4-0.3-0.7-0.7
						c-0.3-0.4-0.5-0.7-0.4-0.7c0.1,0,0.2-0.1,0.3-0.3c0.1-0.2,0.2-0.3,0.3-0.2c0.2,0.1,0.3-0.2,0.2-0.7c-0.1-0.6-0.9-0.6-1.6,0
						c-0.8,0.7-0.9,1-0.5,1.7c0.1,0.2,0.3,0.5,0.3,0.6c0,0.1,0.3,0.5,0.7,1c0.3,0.3,0.4,0.5,0.6,0.9c0,0.3-0.1,0.4-0.1,0.6
						c-0.1,0.4-0.1,0.8,0,1c0.3,0.7,1.7,1.3,2.2,1c0.2-0.1,0-1.4-0.3-1.6C102.5,394.1,102.4,394,102.4,393.9z"/>
					<path fill="#EFEFEF" d="M98.9,394.8c0,0,0,0.1,0.1,0.3c0.1,0.2,0.2,0.3,0.3,0.3c0.1,0,0-0.1-0.1-0.3
						C99,394.9,98.9,394.8,98.9,394.8z"/>
					<path fill="#EFEFEF" d="M90.2,392.5c-0.3,0-0.6,0.1-0.6,0.2c-0.1,0.1,0.1,0.2,0.5,0.2c0.3,0,0.6-0.1,0.6-0.2
						C90.7,392.6,90.6,392.5,90.2,392.5z"/>
					<path fill="#EFEFEF" d="M98.3,383c0.1-0.2,0.1-0.3,0.1-0.4c0-0.1-0.1,0.1-0.2,0.2c-0.1,0.4,0.1,1.1,0.3,0.9
						c0.1-0.1,0-0.2-0.1-0.3C98.2,383.3,98.2,383.3,98.3,383z"/>
					<path fill="#EFEFEF" d="M92.5,426.2c0,0.5,0.1,1.1,0.3,1.3c0.1,0.2,0.3,0.6,0.4,0.8c0.1,0.2,0.2,0.4,0.3,0.4
						c0.2,0,0.2-0.2-0.2-0.9c-0.2-0.4-0.4-0.9-0.4-1.3C92.8,425.4,92.5,425.1,92.5,426.2z"/>
					<path fill="#EFEFEF" d="M90.5,379c0.5,0,0.4-0.5-0.1-0.8c-0.5-0.4-0.6-0.4-0.6-0.1C89.7,378.4,90.2,379,90.5,379z"/>
					<path fill="#EFEFEF" d="M104.8,389.9c-0.2-0.2-0.2-0.4-0.2-0.6c0.1-0.3,0-0.3-0.3-0.3c-0.5,0-0.9,0.7-0.7,1.4
						c0.1,0.4,0.2,0.5,0.9,0.7c0.4,0.1,0.5,0.1,0.4-0.1c-0.1-0.1-0.1-0.4,0-0.5C105,390.3,104.9,390.1,104.8,389.9z"/>
					<path fill="#EFEFEF" d="M92.3,378.4c0-0.1-0.1-0.4-0.2-0.6c-0.2-0.3-0.3-0.4-0.3-0.2c0,0.1,0,0.2-0.2,0.1
						c-0.3-0.2-0.2,0.2,0.2,0.6C92,378.4,92.2,378.5,92.3,378.4z"/>
					<path fill="#EFEFEF" d="M93.6,380.3c0-0.1-0.2-0.3-0.3-0.4c-0.2-0.2-0.3-0.2-0.2,0C93.2,380.4,93.7,380.7,93.6,380.3z"/>
					<path fill="#EFEFEF" d="M94.7,390.1c-0.4-0.2-0.6-0.5-0.7-0.6c0-0.1,0.1-0.1,0.2,0c0.2,0.1,0.4-0.5,0.2-0.7
						c0,0,0.1-0.2,0.2-0.3c0.1-0.1,0.2-0.2,0.3-0.3c-0.1,0-0.2,0-0.3,0c-0.2,0-0.4,0.1-0.6,0.2c-0.1,0.1-0.5,0.3-0.8,0.4
						c-0.5,0.2-0.5,0.3-0.3,0.5c0.1,0.1,0.4,0.2,0.6,0.2c0.2-0.1,0.3,0,0.2,0.1c0,0.1-0.2,0.2-0.3,0.2c-0.2,0-0.4,0.1-0.5,0.2
						c-0.2,0.2-0.3,0.1-0.6-0.2c-0.3-0.4-0.3-0.4-0.1-0.6c0.2-0.2,0.1-0.2-0.2-0.2c-0.2,0-0.5-0.1-0.5-0.2c-0.1-0.6-0.9,0.1-1.1,0.9
						c0,0.2-0.1,0.3-0.2,0.2c-0.2-0.2-0.6,1.7-0.5,2c0.2,0.6,1.5,0.8,2.3,0.3c0.5-0.3,1-0.3,1.8,0.1c0.7,0.4,2.3,0.6,2.6,0.3
						C97.3,391.5,95.4,390.5,94.7,390.1z"/>
				</g>
			</g>
		</g>
		<g>
			<g>
				<g>
					<path fill="#EFEFEF" d="M265.7,544V364.2h55V544H265.7z"/>
				</g>
			</g>
			<path fill="#EFEFEF" d="M293,288.7c14.5,0,26.1,11.6,26.1,25.8s-11.6,25.8-26.1,25.8c-13.9,0-25.5-11.6-25.5-25.8
				S279.1,288.7,293,288.7z"/>
		</g>
	</g>
</g>
<g id="Laag_2" display="none">
</g>
</svg>
