<?xml version="1.0" encoding="utf-8"?>
<!-- Generator: Adobe Illustrator 22.1.0, SVG Export Plug-In . SVG Version: 6.00 Build 0)  -->
<svg version="1.1" xmlns="http://www.w3.org/2000/svg" xmlns:xlink="http://www.w3.org/1999/xlink" x="0px" y="0px"
	 viewBox="0 0 1600 900" enable-background="new 0 0 1600 900" xml:space="preserve">
<g id="Layer_1">
	<g>
		<path fill="#F1F2F3" d="M253.068,316.986c19.65-0.043,39.3-0.135,58.949-0.114c19.777,0.02,39.579-0.45,59.325,0.375
			c30.773,1.286,59.613,9.366,84.889,27.733c27.83,20.223,44.035,47.745,49.448,81.477c4.734,29.5,1.911,58.3-11.391,85.41
			c-16.464,33.556-43.849,54.277-78.973,65.403c-16.516,5.232-33.524,7.732-50.843,7.769c-37.135,0.08-74.27,0.024-111.405,0.024
			C253.068,495.705,253.068,406.346,253.068,316.986z M382.88,397.432c10.938,1.376,19.996,5.699,24.185,16.222
			c2.449,6.152,4.149,12.94,4.487,19.53c0.84,16.375-2.796,32.211-8.314,47.545c-4.113,11.427-10.415,21.509-19.807,29.526
			c-6.691,5.711-13.624,8.057-22.088,3.864c-4.04-2.002-8.157-0.216-10.073,3.524c-1.638,3.198-0.712,7.766,2.868,9.67
			c3.619,1.925,7.711,3.555,11.742,4.006c15.167,1.698,27.588-4.788,37.65-15.251c25.905-26.939,33.349-60.037,28.227-95.844
			c-3.238-22.638-19.932-37.645-41.387-40.147c-18.237-2.127-35.255,2.13-50.465,12.637c-9.023,6.233-15.218,14.81-18.252,25.262
			c-4.1,14.127-2.553,27.291,8.607,38.132c1.947,1.891,4.027,3.015,6.875,2.057c5.109-1.717,6.516-6.072,3.543-11.017
			c-1.697-2.823-3.756-5.562-4.789-8.63c-5.639-16.738,10.066-38.134,28.675-39.103c-0.288,1.392-0.519,2.756-0.853,4.095
			c-6.294,25.228-13.087,50.319-22.317,74.657c-3.65,9.623-7.685,19.131-12.14,28.406c-2.414,5.026-6.186,8.902-12.933,8.133
			c-4.765-0.544-7.782,2.197-8.097,6.16c-0.343,4.308,2.544,7.606,7.303,8.193c7.311,0.902,13.836-0.846,19.669-5.518
			c7.136-5.716,11.212-13.519,14.832-21.534c10.461-23.163,18.472-47.205,24.848-71.789
			C377.684,419.394,380.19,408.492,382.88,397.432z"/>
		<path fill="#F1F2F3" d="M943.942,312.391c7.093,1.275,14.267,2.21,21.265,3.883c28.821,6.891,52.291,21.48,66.489,48.335
			c3.71,7.018,5.763,14.916,8.508,22.436c0.329,0.902,0.223,1.963,0.345,3.216c-21.51,4.383-42.829,8.726-64.41,13.123
			c-0.324-0.906-0.677-1.673-0.876-2.479c-6.31-25.594-29.899-38.059-54.561-34.496c-6.536,0.944-12.608,3.14-17.857,7.27
			c-8.087,6.362-11.175,14.734-9.28,24.738c1.751,9.242,8.64,13.601,16.943,15.704c12.349,3.128,24.844,5.681,37.263,8.537
			c16.87,3.878,34.053,6.632,49.991,13.884c20.099,9.145,35.982,22.598,42.572,44.397c10.212,33.779,0.74,72.596-35.683,94.297
			c-15.616,9.304-32.624,14.459-50.533,16.425c-26.047,2.859-51.748,1.143-76.508-8.193c-24.133-9.1-43.709-23.718-54.615-47.821
			c-3.37-7.448-5.267-15.562-8.061-24.046c23.687-4.604,46.241-8.988,69.033-13.418c0.629,1.837,1.172,3.365,1.677,4.906
			c6.788,20.714,21.891,32.717,43.614,34.376c10.501,0.802,20.98,0.558,30.799-3.922c10.052-4.586,16.383-11.898,16.449-23.582
			c0.053-9.354-4.037-16.343-12.787-19.308c-9.249-3.134-18.891-5.152-28.423-7.4c-17.851-4.211-35.882-7.728-53.579-12.496
			c-14.67-3.953-27.951-11.071-38.804-22.077c-14.975-15.186-20.114-33.975-19.279-54.631c1.454-35.954,20.822-59.064,53.149-72.444
			c11.504-4.762,23.598-7.285,35.976-8.486c0.961-0.093,1.894-0.48,2.84-0.73C925.049,312.391,934.496,312.391,943.942,312.391z"/>
		<path fill="#F1F2F3" d="M1083.378,318.538c21.512,0,42.658,0,64.153,0c0,44.194,0,88.271,0,133.534
			c5.939-7.032,11.168-13.193,16.365-19.381c31.262-37.23,62.502-74.479,93.835-111.65c1.073-1.273,3.046-2.528,4.608-2.539
			c23.613-0.16,47.228-0.11,70.842-0.101c0.49,0,0.98,0.104,2.23,0.246c-32.972,38.978-65.614,77.566-98.394,116.317
			c35.557,50.551,70.977,100.907,106.771,151.794c-1.799,0.096-3.017,0.216-4.234,0.217c-23.87,0.011-47.739-0.044-71.608,0.076
			c-2.896,0.015-4.562-0.883-6.202-3.281c-21.886-32.006-43.89-63.932-65.868-95.876c-0.501-0.728-1.042-1.429-1.836-2.515
			c-4.031,4.806-7.922,9.442-11.81,14.082c-10.982,13.104-22.006,26.173-32.875,39.369c-1.083,1.315-1.702,3.404-1.721,5.142
			c-0.142,12.763-0.077,25.528-0.077,38.293c0,1.389,0,2.777,0,4.441c-21.525,0-42.769,0-64.177,0
			C1083.378,497.334,1083.378,408.146,1083.378,318.538z"/>
		<path fill="#F1F2F3" d="M716.585,318.552c22.303,0,44.084,0,66.385,0c0,1.515,0,2.872,0,4.229
			c0,48.241,0.149,96.482-0.064,144.721c-0.105,23.773-4.674,46.673-16.21,67.743c-15.062,27.511-37.921,45.438-68.225,53.262
			c-27.732,7.16-55.465,6.279-82.36-3.876c-37.379-14.114-59.594-41.886-69.587-79.996c-3.215-12.263-4.575-24.805-4.575-37.489
			c0.003-47.858,0.001-95.715,0.001-143.573c0-1.514,0-3.028,0-4.862c22.121,0,43.983,0,66.385,0c0,1.456,0,2.938,0,4.421
			c0,48.241-0.017,96.481,0.011,144.722c0.008,13.752,2.68,26.925,9.846,38.811c10.937,18.142,27.587,25.951,48.306,25.006
			c21.335-0.973,35.527-12.494,43.828-31.715c4.78-11.068,6.263-22.789,6.261-34.754c-0.009-47.22-0.004-94.439-0.004-141.659
			C716.585,322.032,716.585,320.52,716.585,318.552z"/>
	</g>
</g>
<g id="Laag_2">
</g>
</svg>
