<?xml version="1.0" encoding="utf-8"?>
<!-- Generator: Adobe Illustrator 22.1.0, SVG Export Plug-In . SVG Version: 6.00 Build 0)  -->
<svg version="1.1" id="Layer_1" xmlns="http://www.w3.org/2000/svg" xmlns:xlink="http://www.w3.org/1999/xlink" x="0px" y="0px"
	 viewBox="0 0 1600 900" enable-background="new 0 0 1600 900" xml:space="preserve">
<g>
	<rect x="701.879" y="642.278" fill="#FFFFFF" width="181.908" height="156.607"/>
	<polygon fill="#FFFFFF" points="684.033,100.001 701.827,605.367 883.787,605.367 887.423,507.092 803.719,507.092 
		803.719,386.227 891.499,386.227 894.712,294.911 805.007,294.911 805.007,203.289 897.939,203.289 901.565,100.001 	"/>
	<g>
		<path fill="#FFFFFF" d="M906.137,783.748c0,1.615-1.312,2.778-3.06,2.778h-2.857v-5.59h2.857
			C904.825,780.936,906.137,782.151,906.137,783.748 M906.245,794.089h1.904l-3.69-6.248c1.939-0.544,3.32-1.896,3.32-4.094
			c0-2.483-2.078-4.299-4.527-4.299h-4.672v14.641h1.64v-6.093h2.414L906.245,794.089z M914.249,786.783
			c0,6.328-5.191,11.654-11.504,11.654c-6.315,0-11.514-5.327-11.514-11.654c0-6.315,5.199-11.649,11.514-11.649
			C909.058,775.133,914.249,780.467,914.249,786.783 M915.966,786.783c0-7.294-5.927-13.215-13.221-13.215
			c-7.307,0-13.217,5.921-13.217,13.215c0,7.307,5.91,13.218,13.217,13.218C910.039,800,915.966,794.089,915.966,786.783"/>
	</g>
</g>
</svg>
