<?xml version="1.0" encoding="utf-8"?>
<!-- Generator: Adobe Illustrator 23.0.6, SVG Export Plug-In . SVG Version: 6.00 Build 0)  -->
<svg version="1.2" baseProfile="tiny" xmlns="http://www.w3.org/2000/svg" xmlns:xlink="http://www.w3.org/1999/xlink" x="0px"
	 y="0px" viewBox="0 0 1600 900" xml:space="preserve">
<g id="Layer_1">
	<g>
		<path fill="#067080" d="M1084.8,255.1l-262-151.3c-14.7-8.5-32.8-8.5-47.5,0l-262,151.3c-14.7,8.5-23.7,24.1-23.7,41.1v302.6
			c0,17,9,32.6,23.7,41.1l262,151.3c14.7,8.5,32.8,8.5,47.5,0l262-151.3c14.7-8.5,23.7-24.1,23.7-41.1V296.2
			C1108.5,279.3,1099.5,263.6,1084.8,255.1z M799,344.3v103.2v217.6c0,14.3-15.5,23.2-27.9,16.1L693,636
			c-11-6.4-17.8-18.1-17.8-30.8V376l-64.7-37.3c-12.4-7.1-12.4-25,0-32.2l160.6-92.7c12.4-7.1,27.9,1.8,27.9,16.1V344.3z"/>
		<path fill="#5EA490" d="M675.3,605.2c0,12.7,6.8,24.5,17.8,30.8l78.1,45.1c12.4,7.1,27.9-1.8,27.9-16.1V447.5L675.3,376V605.2z"/>
		<path fill="#9BD4C1" d="M771.2,213.8l-160.6,92.7c-12.4,7.1-12.4,25,0,32.2l64.7,37.3L799,447.5V344.3V229.9
			C799,215.6,783.6,206.7,771.2,213.8z"/>
	</g>
</g>
<g id="Laag_2" display="none">
</g>
</svg>
