<?xml version="1.0" encoding="utf-8"?>
<!-- Generator: Adobe Illustrator 22.1.0, SVG Export Plug-In . SVG Version: 6.00 Build 0)  -->
<svg version="1.1" id="Layer_1" xmlns="http://www.w3.org/2000/svg" xmlns:xlink="http://www.w3.org/1999/xlink" x="0px" y="0px"
	 viewBox="0 0 1600 900" enable-background="new 0 0 1600 900" xml:space="preserve">
<g>
	<g id="g52177" transform="matrix(1.0855323,0,0,-1.0855323,-705.59128,1151.6609)">
		<g id="g52179" transform="scale(6.50024e-2,-6.50024e-2)">
			<path id="path52181" fill="#B6B5B5" d="M17085.621-14195.522h8503.189v8503.191h-8503.189V-14195.522z"/>
		</g>
		<g id="g52183" transform="matrix(6.50024e-2,0,0,-6.50024e-2,666.44409,110.85893)">
			<path id="path52185" fill="#FFFFFF" d="M11118.797-10435.703c-869.763,0-1574.861,705.085-1574.861,1575.027
				c0,869.923,705.099,1575.008,1574.861,1575.008c869.751,0,1574.835-705.085,1574.835-1575.008
				C12693.632-9730.618,11988.548-10435.703,11118.797-10435.703"/>
		</g>
		<g id="g52187" transform="matrix(6.50024e-2,0,0,-6.50024e-2,662.82358,101.01237)">
			<path id="path52189" fill="#FFFFFF" d="M9782.32-6800.211h-2.768v2.075v345.962c0,42.557-14.892,81.647-42.213,110.013
				c-26.28,27.679-61.933,42.55-99.646,42.55c-37.7,0-73.006-14.871-99.634-42.55c-27.002-28.365-42.197-67.456-42.197-110.013
				v-345.962v-2.075h-2.422h-108.643h-2.422v2.075v345.962c0,76.112,25.243,141.497,72.992,189.591
				c46.349,46.371,111.05,71.953,182.325,71.953c71.261,0,136.335-25.582,182.685-71.953
				c47.749-48.094,72.978-113.479,72.978-189.591v-345.962v-2.075h-2.408H9782.32z"/>
		</g>
		<g id="g52191" transform="matrix(6.50024e-2,0,0,-6.50024e-2,665.32774,99.855926)">
			<path id="path52193" fill="#FFFFFF" d="M10706.951-6373.44c-34.585,36.323-83.717,56.038-137.332,56.038
				c-53.99,0-102.762-19.715-137.36-56.038c-34.587-36.683-53.962-88.222-53.962-145.65c0-57.782,19.375-110.027,53.962-146.35
				c34.599-36.323,83.37-56.397,137.36-56.397c53.615,0,102.747,20.075,137.332,56.397c34.613,36.69,53.989,88.568,53.989,146.35
				C10760.94-6461.662,10741.564-6410.123,10706.951-6373.44 M10786.529-6743.974c-58.126-56.044-134.924-86.484-216.91-86.484
				c-82.002,0-159.49,30.44-216.94,86.484c-60.188,57.775-93.045,137.692-93.045,224.884c0,86.837,32.856,166.409,93.045,224.184
				c57.45,55.706,134.938,86.484,216.94,86.484c81.986,0,158.784-30.779,216.91-86.484c59.858-57.775,92.714-137.347,92.714-224.184
				C10879.243-6606.281,10846.388-6686.199,10786.529-6743.974"/>
		</g>
		<g id="g52195" transform="matrix(6.50024e-2,0,0,-6.50024e-2,666.66551,101.04449)">
			<path id="path52197" fill="#FFFFFF" d="M11200.479-6812.173c-71.275,0-135.949,25.596-182.312,71.953
				c-48.095,48.094-73.006,113.486-73.006,189.591v345.962v2.42h2.422h108.643h2.422v-2.42v-345.962
				c0-42.55,15.226-81.654,42.213-110.013c26.641-27.679,62.278-42.91,99.619-42.91c38.059,0,73.35,15.23,99.66,42.91
				c27.333,28.358,42.197,67.463,42.197,110.013v345.962v2.42h2.768h108.643h2.77v-2.42v-345.962
				c0-75.766-25.619-141.497-73.352-189.591C11336.801-6786.577,11271.754-6812.173,11200.479-6812.173"/>
		</g>
		<g id="g52199" transform="matrix(6.50024e-2,0,0,-6.50024e-2,671.09283,101.01237)">
			<path id="path52201" fill="#FFFFFF" d="M12835.234-6800.211h-2.768v2.075v378.133c0,73.004-40.468,120.392-103.452,120.392
				c-75.428,0-113.834-46.356-113.834-138.025v-360.5v-2.075h-2.408h-108.282h-2.768v2.075v360.5
				c0,91.668-38.073,138.025-113.474,138.025c-62.956,0-103.799-47.388-103.799-120.392v-378.133v-2.075h-2.422h-108.643h-2.422
				v2.075v402.359c0,115.196,94.458,205.147,214.836,205.147c72.312,0,134.953-30.094,173.012-82.333
				c37.7,52.238,99.979,82.333,172.625,82.333c120.406,0,214.503-89.951,214.503-205.147v-402.359v-2.075h-2.091H12835.234z"/>
		</g>
		<g id="g52203" transform="matrix(6.50024e-2,0,0,-6.50024e-2,672.28371,100.39902)">
			<path id="path52205" fill="#FFFFFF" d="M13274.958-6574.038c-72.646-20.082-135.617-37.722-135.617-77.85
				c2.81-33.216,13.147-49.131,67.814-49.131h274.361h2.408v-2.768v-103.786v-2.075h-2.408h-255.677
				c-132.171,0-204.816,57.767-204.816,162.597c0,53.976,24.926,95.481,76.798,128.011c44.979,27.679,103.799,44.28,155.685,59.511
				c76.119,21.438,141.498,40.475,141.498,84.41c0,37.367-21.078,53.975-67.802,53.975h-303.742h-2.437v2.768v103.778v2.421h2.437
				h303.742c54.336,0,100.34-14.172,132.863-41.158c34.944-29.064,53.615-73.006,53.615-126.628
				C13513.681-6507.282,13381.178-6544.297,13274.958-6574.038"/>
		</g>
		<g id="g52207" transform="matrix(6.50024e-2,0,0,-6.50024e-2,663.37006,100.42352)">
			<path id="path52209" fill="#FFFFFF" d="M9983.905-6583.018v363.275v2.761h2.423h101.016h2.09v-2.761v-363.275
				c0-67.456,21.092-144.958,182.658-144.958h2.781v-2.422v-100.685v-2.408h-2.781
				C10021.604-6833.49,9983.905-6676.422,9983.905-6583.018"/>
		</g>
		<g id="g52211" transform="matrix(6.50024e-2,0,0,-6.50024e-2,661.26764,100.00179)">
			<path id="path52213" fill="#FFFFFF" d="M9207.713-6427.248l-2.062-1.03l-1.385,2.076c-15.915,31.125-40.826,58.112-71.261,77.495
				c-96.187,60.543-223.168,31.832-283.716-63.663c-29.064-46.364-38.738-101.37-26.602-154.985
				c12.084-53.637,43.901-99.295,90.277-128.357c68.495-43.25,154.979-41.865,222.781,2.422l-181.607,148.756l-1.743,1.385
				l1.384,2.076l62.279,76.811l1.369,2.076l2.091-1.385l265.71-218.655l2.062-1.39l-1.383-2.076l-2.05-2.076
				c-43.623-69.178-112.476-117.611-193.064-135.957c-80.618-17.998-163.31-3.798-232.842,40.476
				c-69.53,43.596-117.984,112.089-136.309,193.065c-18.338,80.25-3.806,163.282,39.79,233.174
				c91.314,143.919,282.305,186.816,426.917,96.172c45.325-29.064,82.68-69.192,107.951-116.933l1.37-2.415l-2.409-1.044
				L9207.713-6427.248z"/>
		</g>
		<g id="g52215" transform="matrix(6.50024e-2,0,0,-6.50024e-2,668.82994,100.00179)">
			<path id="path52217" fill="#FFFFFF" d="M11999.591-6427.248l-2.076-1.03l-1.397,2.076
				c-15.916,31.125-40.799,58.112-71.262,77.495c-96.173,60.197-223.14,31.832-283.688-63.663
				c-29.064-46.364-38.738-101.715-26.297-154.985c11.75-53.637,43.956-99.295,89.945-128.357
				c68.493-43.25,155.007-41.865,222.448,2.422l-181.274,148.756l-1.744,1.385l1.411,2.076l62.279,76.811l1.37,2.076l2.062-1.385
				l265.697-218.655l2.089-1.39l-1.369-2.076l-2.075-2.076h0.346c-90.983-143.914-282.305-186.803-426.254-95.481
				c-69.53,43.596-117.971,112.089-136.308,192.712c-18.339,80.603-4.152,163.635,39.789,233.527
				c91.357,143.919,282.679,186.816,426.917,96.172c45.354-29.064,83.039-69.192,107.951-116.933l1.37-2.415l-2.408-1.044
				L11999.591-6427.248z"/>
		</g>
	</g>
</g>
</svg>
