<?xml version="1.0" encoding="utf-8"?>
<!-- Generator: Adobe Illustrator 22.1.0, SVG Export Plug-In . SVG Version: 6.00 Build 0)  -->
<svg version="1.2" baseProfile="tiny" id="Layer_1" xmlns="http://www.w3.org/2000/svg" xmlns:xlink="http://www.w3.org/1999/xlink"
	 x="0px" y="0px" viewBox="0 0 1600 900" xml:space="preserve">
<g>
	<g id="XMLID_119_">
		<path id="XMLID_121_" fill="#E40038" d="M1314.993,509.42h-113.066c-0.839,0-1.519-0.68-1.519-1.519V391.101
			c0-0.839,0.68-1.519,1.519-1.519h113.066c0.839,0,1.519,0.68,1.519,1.519V507.9C1316.512,508.74,1315.832,509.42,1314.993,509.42z
			"/>
		<path id="XMLID_120_" fill="#FFFFFF" d="M1232.267,485.959v2.372c0,1.469,1.064,2.663,2.531,2.663h50.304h0.043
			c1.467,0,2.531-1.195,2.531-2.663v-11.635c0-1.344-1.105-2.644-2.636-2.644h-23.566l14.669-19.651
			c8.746-11.274,10.661-23.884,5.885-33.525c-4.003-8.084-12.422-12.719-23.118-12.719c-16.675,0.122-26.062,9.218-26.432,25.612
			l-0.075,3.891c0,1.578,1.144,2.569,2.729,2.569l11.32,0.004c1.47,0,2.571-1.153,2.652-2.649l0.169-3.563
			c0.245-4.387,2.04-9.615,9.22-9.615c5.817,0,8.73,3.705,8.88,7.485c0.163,4.172-0.865,7.304-4.508,12.07l-29.303,38.604
			C1232.707,483.604,1232.267,484.458,1232.267,485.959"/>
	</g>
	<g id="XMLID_19_">
		<g id="XMLID_63_">
			<g id="XMLID_64_">
				<polygon id="XMLID_84_" fill="#D6D9DC" points="226.838,507.318 188.043,481.825 128.079,507.241 163.39,465.794 
					124.191,440.075 185.324,440.075 226.838,391.418 226.838,440.075 286.089,440.075 226.838,465.317 				"/>
				<path id="XMLID_83_" fill="#D6D9DC" d="M300.427,415.16c2.076,0,3.761-1.688,3.761-3.764l0.007-16.295
					c0-2.075-1.688-3.763-3.763-3.763h-63.529v23.826L300.427,415.16z"/>
				<path id="XMLID_82_" fill="#D6D9DC" d="M300.427,507.539c2.076,0,3.761-1.687,3.761-3.763l0.007-16.295
					c0-2.076-1.688-3.763-3.763-3.763h-63.529v23.826L300.427,507.539z"/>
				<path id="XMLID_81_" fill="#D6D9DC" d="M1153.031,391.294h-79.369c-2.081,0-3.775,1.694-3.775,3.775v16.319
					c0,2.081,1.694,3.775,3.775,3.775h27.749v88.719c0,2.081,1.694,3.774,3.776,3.774h16.32c2.082,0,3.775-1.692,3.775-3.774
					v-88.719h27.749c2.081,0,3.772-1.694,3.772-3.775v-16.319C1156.803,392.987,1155.113,391.294,1153.031,391.294z"/>
				<path id="XMLID_78_" fill="#D6D9DC" d="M836.662,417.378c-1.88-5.122-4.69-9.663-8.349-13.499
					c-3.648-3.815-8.135-6.897-13.337-9.159c-5.219-2.268-11.159-3.419-17.653-3.419h-43.177c-2.081,0-3.775,1.694-3.775,3.774
					v108.699c0,2.084,1.694,3.776,3.775,3.776h16.313c2.083,0,3.775-1.692,3.775-3.776l-0.004-27.847h23.093
					c6.487,0,12.395-1.122,17.561-3.336c5.158-2.213,9.624-5.271,13.278-9.092c3.641-3.812,6.466-8.28,8.4-13.281
					c1.919-4.968,2.892-11.27,2.892-16.788C839.453,427.839,838.513,422.438,836.662,417.378z M814.159,441.044
					c-0.86,2.275-2.069,4.266-3.594,5.916c-1.505,1.633-3.226,2.663-5.286,3.587c-2.029,0.911-5.654,1.46-12.72,1.46h-18.33v-36.835
					h24.05c2.569,0,4.93,0.467,7.021,1.388c2.113,0.932,3.95,2.208,5.456,3.797c1.494,1.576,2.656,3.51,3.458,5.745
					c0.834,2.323,1.256,4.846,1.256,7.502C815.469,436.229,815.028,438.734,814.159,441.044z"/>
				<path id="XMLID_77_" fill="#D6D9DC" d="M674.326,424.674c-0.105,2.406,0.519,3.868,1.433,5.159
					c1.028,1.466,2.484,2.696,4.324,3.656c2.047,1.064,4.461,1.906,7.177,2.498c2.976,0.647,6.022,1.249,9.06,1.789
					c5.511,0.868,10.951,1.964,16.163,3.255c5.446,1.351,10.275,3.375,14.368,6.021c4.248,2.752,7.629,6.413,10.054,10.882
					c2.444,4.508,3.534,10.253,3.235,17.071c-0.29,6.621-1.987,12.275-5.048,16.816c-2.998,4.444-6.863,8.068-11.499,10.782
					c-4.542,2.658-9.024,4.621-14.577,5.656c-5.446,1.01-11.542,1.32-16.865,1.088c-13.216-0.58-32.726-8.168-42.515-21.562
					c-0.779-1.071-1.734-2.903,0.369-5.044c2.102-2.137,12.16-12.368,12.16-12.368c2.03-2.142,4.001-0.625,4.841,0.603
					c5.727,8.374,17.133,14.621,26.095,15.014c4.711,0.207,5.272,0.019,8.217-0.368c2.672-0.348,5.041-1.044,7.256-2.055
					c2.035-0.925,3.742-2.159,5.082-3.872c1.242-1.59,1.964-3.843,2.141-6.447c0.17-2.511-0.527-4.527-1.684-6.149
					c-1.262-1.769-3.005-3.128-5.093-4.212c-2.352-1.222-5.046-2-8.026-2.559c-3.194-0.598-6.375-1.129-9.456-1.574
					c-5.09-0.649-10.161-1.687-15.045-3.083c-5.05-1.441-9.569-3.478-13.429-6.057c-4.008-2.675-7.246-6.145-9.616-10.31
					c-2.425-4.265-3.536-9.103-3.271-15.214c0.269-6.153,1.8-11.56,4.547-16.08c2.715-4.469,6.28-8.149,10.6-10.951
					c4.218-2.736,9.081-4.745,14.446-5.964c10.429-2.366,20.864-1.971,31.206,1.303c11.148,3.529,20.095,12.087,24.223,18.148
					c0.758,1.112,1.509,2.869-0.102,4.686c-1.615,1.816-11.456,11.446-11.456,11.446c-2.124,2.03-4.295,1.558-5.499-0.215
					c-6.039-8.875-13.811-12.854-22.828-13.451C685.64,412.371,674.769,414.538,674.326,424.674z"/>
				<path id="XMLID_73_" fill="#D6D9DC" d="M624.496,405.36c-5.375-5.124-11.709-9.072-18.828-11.738
					c-7.068-2.645-14.644-3.986-22.516-3.986c-7.769,0-15.315,1.342-22.429,3.985c-7.172,2.661-13.558,6.609-18.98,11.728
					c-5.426,5.125-9.797,11.486-12.99,18.909c-3.194,7.417-4.813,15.91-4.813,25.243c0,9.433,1.591,17.949,4.73,25.31
					c3.137,7.373,7.453,13.708,12.825,18.831c5.366,5.12,11.702,9.068,18.831,11.737c7.067,2.647,14.643,3.986,22.515,3.986
					c8.618,0,16.661-1.455,23.903-4.326c7.288-2.885,13.629-7.039,18.847-12.342c5.193-5.275,9.309-11.662,12.232-18.983
					c2.908-7.295,4.385-15.441,4.385-24.214c0-9.326-1.619-17.82-4.812-25.245C634.2,416.838,629.861,410.48,624.496,405.36z
					 M614.975,465.608c-1.829,4.483-4.348,8.279-7.489,11.281c-3.147,3.01-6.843,5.31-10.988,6.836
					c-4.208,1.553-8.769,2.34-13.55,2.34c-4.889,0-9.502-0.788-13.711-2.34c-4.127-1.521-7.756-3.807-10.784-6.794
					c-3.055-3.01-5.533-6.82-7.368-11.324c-1.851-4.533-2.788-9.899-2.788-15.952c0-6.051,0.937-11.419,2.788-15.952
					c1.83-4.494,4.331-8.298,7.43-11.306c3.088-3.002,6.762-5.325,10.921-6.905c4.202-1.598,8.803-2.407,13.676-2.407
					c4.765,0,9.311,0.809,13.511,2.409c4.143,1.574,7.811,3.917,10.901,6.965c3.107,3.067,5.615,6.905,7.452,11.406
					c1.85,4.537,2.787,9.851,2.787,15.79C617.762,455.705,616.825,461.072,614.975,465.608z"/>
				<path id="XMLID_70_" fill="#D6D9DC" d="M948.195,405.36c-5.375-5.124-11.709-9.072-18.828-11.738
					c-7.068-2.645-14.645-3.986-22.516-3.986c-7.77,0-15.315,1.342-22.429,3.985c-7.172,2.661-13.558,6.609-18.98,11.728
					c-5.426,5.125-9.797,11.486-12.99,18.909c-3.194,7.417-4.813,15.91-4.813,25.243c0,9.433,1.591,17.949,4.73,25.31
					c3.137,7.373,7.453,13.708,12.825,18.831c5.367,5.12,11.702,9.068,18.831,11.737c7.067,2.647,14.643,3.986,22.515,3.986
					c8.618,0,16.661-1.455,23.903-4.326c7.288-2.885,13.629-7.039,18.847-12.342c5.193-5.275,9.309-11.662,12.232-18.983
					c2.908-7.295,4.385-15.441,4.385-24.214c0-9.326-1.619-17.82-4.812-25.245C957.899,416.838,953.56,410.48,948.195,405.36z
					 M938.674,465.608c-1.829,4.483-4.348,8.279-7.489,11.281c-3.147,3.01-6.843,5.31-10.988,6.836
					c-4.208,1.553-8.769,2.34-13.55,2.34c-4.889,0-9.502-0.788-13.711-2.34c-4.127-1.521-7.756-3.807-10.784-6.794
					c-3.054-3.01-5.533-6.82-7.368-11.324c-1.851-4.533-2.788-9.899-2.788-15.952c0-6.051,0.937-11.419,2.788-15.952
					c1.83-4.494,4.331-8.298,7.43-11.306c3.088-3.002,6.762-5.325,10.92-6.905c4.202-1.598,8.803-2.407,13.676-2.407
					c4.765,0,9.311,0.809,13.511,2.409c4.143,1.574,7.811,3.917,10.901,6.965c3.107,3.067,5.615,6.905,7.452,11.406
					c1.85,4.537,2.787,9.851,2.787,15.79C941.46,455.705,940.523,461.072,938.674,465.608z"/>
				<path id="XMLID_69_" fill="#D6D9DC" d="M404.957,391.299h-16.37c-2.081,0-3.775,1.694-3.775,3.775v71.953
					c0,3.068-0.513,5.757-1.527,7.994c-1.008,2.224-2.4,4.109-4.142,5.601c-1.794,1.538-3.957,2.734-6.425,3.557
					c-2.548,0.849-6.848,1.279-9.843,1.279c-3.008,0-7.551-0.433-10.156-1.288c-2.527-0.825-4.744-2.028-6.592-3.576
					c-1.778-1.488-3.186-3.361-4.188-5.572c-1.013-2.24-1.527-4.929-1.527-7.994v-71.953c0-2.081-1.694-3.775-3.775-3.775h-16.312
					c-2.081,0-3.775,1.694-3.775,3.775v72.527c0,6.653,1.246,12.635,3.706,17.777c2.449,5.121,5.861,9.543,10.142,13.142
					c4.243,3.564,9.215,6.283,14.777,8.08c5.484,1.769,11.438,2.667,17.699,2.667c6.156,0,12.058-0.897,17.543-2.667
					c5.578-1.803,10.509-4.533,14.658-8.113c4.16-3.591,7.507-8.002,9.948-13.109c2.46-5.15,3.706-11.131,3.706-17.777v-72.527
					C408.731,392.993,407.038,391.299,404.957,391.299z"/>
				<path id="XMLID_67_" fill="#D6D9DC" d="M519.668,501.234l-26.502-32.876c0,0,21.398-7.786,21.398-34.927
					c0-5.591-0.94-10.992-2.791-16.052c-1.88-5.122-4.69-9.663-8.349-13.499c-3.648-3.815-8.135-6.897-13.337-9.159
					c-5.219-2.268-11.159-3.419-17.654-3.419h-43.132c-2.081,0-3.775,1.694-3.775,3.774v108.699c0,2.084,1.694,3.776,3.775,3.776
					h16.268c2.083,0,3.775-1.692,3.775-3.776l-0.004-88.601h24.156c2.569,0,4.93,0.467,7.021,1.388
					c2.113,0.932,3.95,2.208,5.456,3.797c1.494,1.576,2.656,3.51,3.458,5.745c0.834,2.323,1.256,4.846,1.256,7.502
					c0,2.625-0.442,5.13-1.31,7.44c-0.86,2.275-2.069,4.266-3.594,5.916c-1.505,1.633-3.226,2.663-5.286,3.587
					c-2.029,0.911-5.654,1.46-12.72,1.46c0,0-8.103,0-10.105,0c-2.001,0-3.535,1.8-2.003,4.273l37.779,49.691
					c0.703,0.988,1.851,1.582,3.071,1.582h20.861C520.452,507.552,522.501,504.728,519.668,501.234z"/>
				<path id="XMLID_65_" fill="#D6D9DC" d="M1071.286,501.234l-26.502-32.876c0,0,21.398-7.786,21.398-34.927
					c0-5.591-0.94-10.992-2.791-16.052c-1.88-5.122-4.69-9.663-8.349-13.499c-3.648-3.815-8.135-6.897-13.337-9.159
					c-5.219-2.268-11.159-3.419-17.653-3.419h-43.132c-2.081,0-3.775,1.694-3.775,3.774v108.699c0,2.084,1.694,3.776,3.775,3.776
					h16.268c2.083,0,3.775-1.692,3.775-3.776l-0.004-88.601h24.156c2.569,0,4.93,0.467,7.021,1.388
					c2.113,0.932,3.95,2.208,5.456,3.797c1.493,1.576,2.656,3.51,3.457,5.745c0.834,2.323,1.256,4.846,1.256,7.502
					c0,2.625-0.442,5.13-1.31,7.44c-0.86,2.275-2.069,4.266-3.594,5.916c-1.505,1.633-3.226,2.663-5.286,3.587
					c-2.029,0.911-5.654,1.46-12.72,1.46c0,0-8.103,0-10.105,0c-2.001,0-3.535,1.8-2.003,4.273l37.779,49.691
					c0.703,0.988,1.851,1.582,3.071,1.582h20.861C1072.07,507.552,1074.118,504.728,1071.286,501.234z"/>
			</g>
		</g>
		<g id="XMLID_2_">
			<g id="XMLID_174_">
				<polygon id="XMLID_193_" fill="#D6D9DC" points="226.838,507.318 188.043,481.825 128.079,507.241 163.39,465.794 
					124.191,440.075 185.324,440.075 226.838,391.418 226.838,440.075 286.089,440.075 226.838,465.317 				"/>
				<path id="XMLID_192_" fill="#D6D9DC" d="M300.427,415.16c2.076,0,3.761-1.688,3.761-3.764l0.007-16.295
					c0-2.075-1.688-3.763-3.763-3.763h-63.529v23.826L300.427,415.16z"/>
				<path id="XMLID_191_" fill="#D6D9DC" d="M300.427,507.539c2.076,0,3.761-1.687,3.761-3.763l0.007-16.295
					c0-2.076-1.688-3.763-3.763-3.763h-63.529v23.826L300.427,507.539z"/>
				<path id="XMLID_190_" fill="#D6D9DC" d="M1153.031,391.294h-79.369c-2.081,0-3.775,1.694-3.775,3.775v16.319
					c0,2.081,1.694,3.775,3.775,3.775h27.749v88.719c0,2.081,1.694,3.774,3.776,3.774h16.32c2.082,0,3.775-1.692,3.775-3.774
					v-88.719h27.749c2.081,0,3.772-1.694,3.772-3.775v-16.319C1156.803,392.987,1155.113,391.294,1153.031,391.294z"/>
				<path id="XMLID_187_" fill="#D6D9DC" d="M836.662,417.378c-1.88-5.122-4.69-9.663-8.349-13.499
					c-3.648-3.815-8.135-6.897-13.337-9.159c-5.219-2.268-11.159-3.419-17.653-3.419h-43.177c-2.081,0-3.775,1.694-3.775,3.774
					v108.699c0,2.084,1.694,3.776,3.775,3.776h16.313c2.083,0,3.775-1.692,3.775-3.776l-0.004-27.847h23.093
					c6.487,0,12.395-1.122,17.561-3.336c5.158-2.213,9.624-5.271,13.278-9.092c3.641-3.812,6.466-8.28,8.4-13.281
					c1.919-4.968,2.892-11.27,2.892-16.788C839.453,427.839,838.513,422.438,836.662,417.378z M814.159,441.044
					c-0.86,2.275-2.069,4.266-3.594,5.916c-1.505,1.633-3.226,2.663-5.286,3.587c-2.029,0.911-5.654,1.46-12.72,1.46h-18.33v-36.835
					h24.05c2.569,0,4.93,0.467,7.021,1.388c2.113,0.932,3.95,2.208,5.456,3.797c1.494,1.576,2.656,3.51,3.458,5.745
					c0.834,2.323,1.256,4.846,1.256,7.502C815.469,436.229,815.028,438.734,814.159,441.044z"/>
				<path id="XMLID_186_" fill="#D6D9DC" d="M674.326,424.674c-0.105,2.406,0.519,3.868,1.433,5.159
					c1.028,1.466,2.484,2.696,4.324,3.656c2.047,1.064,4.461,1.906,7.177,2.498c2.976,0.647,6.022,1.249,9.06,1.789
					c5.511,0.868,10.951,1.964,16.163,3.255c5.446,1.351,10.275,3.375,14.368,6.021c4.248,2.752,7.629,6.413,10.054,10.882
					c2.444,4.508,3.534,10.253,3.235,17.071c-0.29,6.621-1.987,12.275-5.048,16.816c-2.998,4.444-6.863,8.068-11.499,10.782
					c-4.542,2.658-9.024,4.621-14.577,5.656c-5.446,1.01-11.542,1.32-16.865,1.088c-13.216-0.58-32.726-8.168-42.515-21.562
					c-0.779-1.071-1.734-2.903,0.369-5.044c2.102-2.137,12.16-12.368,12.16-12.368c2.03-2.142,4.001-0.625,4.841,0.603
					c5.727,8.374,17.133,14.621,26.095,15.014c4.711,0.207,5.272,0.019,8.217-0.368c2.672-0.348,5.041-1.044,7.256-2.055
					c2.035-0.925,3.742-2.159,5.082-3.872c1.242-1.59,1.964-3.843,2.141-6.447c0.17-2.511-0.527-4.527-1.684-6.149
					c-1.262-1.769-3.005-3.128-5.093-4.212c-2.352-1.222-5.046-2-8.026-2.559c-3.194-0.598-6.375-1.129-9.456-1.574
					c-5.09-0.649-10.161-1.687-15.045-3.083c-5.05-1.441-9.569-3.478-13.429-6.057c-4.008-2.675-7.246-6.145-9.616-10.31
					c-2.425-4.265-3.536-9.103-3.271-15.214c0.269-6.153,1.8-11.56,4.547-16.08c2.715-4.469,6.28-8.149,10.6-10.951
					c4.218-2.736,9.081-4.745,14.446-5.964c10.429-2.366,20.864-1.971,31.206,1.303c11.148,3.529,20.095,12.087,24.223,18.148
					c0.758,1.112,1.509,2.869-0.102,4.686c-1.615,1.816-11.456,11.446-11.456,11.446c-2.124,2.03-4.295,1.558-5.499-0.215
					c-6.039-8.875-13.811-12.854-22.828-13.451C685.64,412.371,674.769,414.538,674.326,424.674z"/>
				<path id="XMLID_183_" fill="#D6D9DC" d="M624.496,405.36c-5.375-5.124-11.709-9.072-18.828-11.738
					c-7.068-2.645-14.644-3.986-22.516-3.986c-7.769,0-15.315,1.342-22.429,3.985c-7.172,2.661-13.558,6.609-18.98,11.728
					c-5.426,5.125-9.797,11.486-12.99,18.909c-3.194,7.417-4.813,15.91-4.813,25.243c0,9.433,1.591,17.949,4.73,25.31
					c3.137,7.373,7.453,13.708,12.825,18.831c5.366,5.12,11.702,9.068,18.831,11.737c7.067,2.647,14.643,3.986,22.515,3.986
					c8.618,0,16.661-1.455,23.903-4.326c7.288-2.885,13.629-7.039,18.847-12.342c5.193-5.275,9.309-11.662,12.232-18.983
					c2.908-7.295,4.385-15.441,4.385-24.214c0-9.326-1.619-17.82-4.812-25.245C634.2,416.838,629.861,410.48,624.496,405.36z
					 M614.975,465.608c-1.829,4.483-4.348,8.279-7.489,11.281c-3.147,3.01-6.843,5.31-10.988,6.836
					c-4.208,1.553-8.769,2.34-13.55,2.34c-4.889,0-9.502-0.788-13.711-2.34c-4.127-1.521-7.756-3.807-10.784-6.794
					c-3.055-3.01-5.533-6.82-7.368-11.324c-1.851-4.533-2.788-9.899-2.788-15.952c0-6.051,0.937-11.419,2.788-15.952
					c1.83-4.494,4.331-8.298,7.43-11.306c3.088-3.002,6.762-5.325,10.921-6.905c4.202-1.598,8.803-2.407,13.676-2.407
					c4.765,0,9.311,0.809,13.511,2.409c4.143,1.574,7.811,3.917,10.901,6.965c3.107,3.067,5.615,6.905,7.452,11.406
					c1.85,4.537,2.787,9.851,2.787,15.79C617.762,455.705,616.825,461.072,614.975,465.608z"/>
				<path id="XMLID_180_" fill="#D6D9DC" d="M948.195,405.36c-5.375-5.124-11.709-9.072-18.828-11.738
					c-7.068-2.645-14.645-3.986-22.516-3.986c-7.77,0-15.315,1.342-22.429,3.985c-7.172,2.661-13.558,6.609-18.98,11.728
					c-5.426,5.125-9.797,11.486-12.99,18.909c-3.194,7.417-4.813,15.91-4.813,25.243c0,9.433,1.591,17.949,4.73,25.31
					c3.137,7.373,7.453,13.708,12.825,18.831c5.367,5.12,11.702,9.068,18.831,11.737c7.067,2.647,14.643,3.986,22.515,3.986
					c8.618,0,16.661-1.455,23.903-4.326c7.288-2.885,13.629-7.039,18.847-12.342c5.193-5.275,9.309-11.662,12.232-18.983
					c2.908-7.295,4.385-15.441,4.385-24.214c0-9.326-1.619-17.82-4.812-25.245C957.899,416.838,953.56,410.48,948.195,405.36z
					 M938.674,465.608c-1.829,4.483-4.348,8.279-7.489,11.281c-3.147,3.01-6.843,5.31-10.988,6.836
					c-4.208,1.553-8.769,2.34-13.55,2.34c-4.889,0-9.502-0.788-13.711-2.34c-4.127-1.521-7.756-3.807-10.784-6.794
					c-3.054-3.01-5.533-6.82-7.368-11.324c-1.851-4.533-2.788-9.899-2.788-15.952c0-6.051,0.937-11.419,2.788-15.952
					c1.83-4.494,4.331-8.298,7.43-11.306c3.088-3.002,6.762-5.325,10.92-6.905c4.202-1.598,8.803-2.407,13.676-2.407
					c4.765,0,9.311,0.809,13.511,2.409c4.143,1.574,7.811,3.917,10.901,6.965c3.107,3.067,5.615,6.905,7.452,11.406
					c1.85,4.537,2.787,9.851,2.787,15.79C941.46,455.705,940.523,461.072,938.674,465.608z"/>
				<path id="XMLID_179_" fill="#D6D9DC" d="M404.957,391.299h-16.37c-2.081,0-3.775,1.694-3.775,3.775v71.953
					c0,3.068-0.513,5.757-1.527,7.994c-1.008,2.224-2.4,4.109-4.142,5.601c-1.794,1.538-3.957,2.734-6.425,3.557
					c-2.548,0.849-6.848,1.279-9.843,1.279c-3.008,0-7.551-0.433-10.156-1.288c-2.527-0.825-4.744-2.028-6.592-3.576
					c-1.778-1.488-3.186-3.361-4.188-5.572c-1.013-2.24-1.527-4.929-1.527-7.994v-71.953c0-2.081-1.694-3.775-3.775-3.775h-16.312
					c-2.081,0-3.775,1.694-3.775,3.775v72.527c0,6.653,1.246,12.635,3.706,17.777c2.449,5.121,5.861,9.543,10.142,13.142
					c4.243,3.564,9.215,6.283,14.777,8.08c5.484,1.769,11.438,2.667,17.699,2.667c6.156,0,12.058-0.897,17.543-2.667
					c5.578-1.803,10.509-4.533,14.658-8.113c4.16-3.591,7.507-8.002,9.948-13.109c2.46-5.15,3.706-11.131,3.706-17.777v-72.527
					C408.731,392.993,407.038,391.299,404.957,391.299z"/>
				<path id="XMLID_177_" fill="#D6D9DC" d="M519.668,501.234l-26.502-32.876c0,0,21.398-7.786,21.398-34.927
					c0-5.591-0.94-10.992-2.791-16.052c-1.88-5.122-4.69-9.663-8.349-13.499c-3.648-3.815-8.135-6.897-13.337-9.159
					c-5.219-2.268-11.159-3.419-17.654-3.419h-43.132c-2.081,0-3.775,1.694-3.775,3.774v108.699c0,2.084,1.694,3.776,3.775,3.776
					h16.268c2.083,0,3.775-1.692,3.775-3.776l-0.004-88.601h24.156c2.569,0,4.93,0.467,7.021,1.388
					c2.113,0.932,3.95,2.208,5.456,3.797c1.494,1.576,2.656,3.51,3.458,5.745c0.834,2.323,1.256,4.846,1.256,7.502
					c0,2.625-0.442,5.13-1.31,7.44c-0.86,2.275-2.069,4.266-3.594,5.916c-1.505,1.633-3.226,2.663-5.286,3.587
					c-2.029,0.911-5.654,1.46-12.72,1.46c0,0-8.103,0-10.105,0c-2.001,0-3.535,1.8-2.003,4.273l37.779,49.691
					c0.703,0.988,1.851,1.582,3.071,1.582h20.861C520.452,507.552,522.501,504.728,519.668,501.234z"/>
				<path id="XMLID_175_" fill="#D6D9DC" d="M1071.286,501.234l-26.502-32.876c0,0,21.398-7.786,21.398-34.927
					c0-5.591-0.94-10.992-2.791-16.052c-1.88-5.122-4.69-9.663-8.349-13.499c-3.648-3.815-8.135-6.897-13.337-9.159
					c-5.219-2.268-11.159-3.419-17.653-3.419h-43.132c-2.081,0-3.775,1.694-3.775,3.774v108.699c0,2.084,1.694,3.776,3.775,3.776
					h16.268c2.083,0,3.775-1.692,3.775-3.776l-0.004-88.601h24.156c2.569,0,4.93,0.467,7.021,1.388
					c2.113,0.932,3.95,2.208,5.456,3.797c1.493,1.576,2.656,3.51,3.457,5.745c0.834,2.323,1.256,4.846,1.256,7.502
					c0,2.625-0.442,5.13-1.31,7.44c-0.86,2.275-2.069,4.266-3.594,5.916c-1.505,1.633-3.226,2.663-5.286,3.587
					c-2.029,0.911-5.654,1.46-12.72,1.46c0,0-8.103,0-10.105,0c-2.001,0-3.535,1.8-2.003,4.273l37.779,49.691
					c0.703,0.988,1.851,1.582,3.071,1.582h20.861C1072.07,507.552,1074.118,504.728,1071.286,501.234z"/>
			</g>
		</g>
	</g>
	<g id="XMLID_12_">
		<path id="XMLID_24_" fill="#D6D9DC" d="M1407.415,393.179c0-1.089-0.884-1.879-1.971-1.879h-8.513
			c-1.089,0-1.974,0.79-1.974,1.879v20.886h-22.531v-20.905c0-1.089-0.884-1.86-1.974-1.86h-8.51c-1.092,0-1.974,0.772-1.974,1.86
			v56.93l0,0c0,1.09,0.881,1.952,1.974,1.952h8.51c1.089,0,1.974-0.861,1.974-1.952v-23.568h22.531v23.568l0,0
			c0,1.09,0.884,1.952,1.974,1.952h8.513c1.087,0,1.971-0.861,1.971-1.952V393.179z"/>
		<path id="XMLID_13_" fill="#D6D9DC" d="M1434.083,439.646h11.021c11.516,0,16.759-9.366,16.759-18.07
			c0-8.701-5.218-17.863-16.678-17.863h-11.101V439.646z M1444.355,391.301c19.586,0,29.836,15.128,29.836,30.196
			c0,8.142-2.74,15.686-7.715,21.239c-5.467,6.105-13.118,9.307-22.121,9.307h-20.678c-1.089,0-1.972-0.899-1.972-1.988v-0.001
			v-56.86c0-1.089,0.883-1.892,1.972-1.892H1444.355z"/>
	</g>
</g>
</svg>
