<?xml version="1.0" encoding="utf-8"?>
<!-- Generator: Adobe Illustrator 22.1.0, SVG Export Plug-In . SVG Version: 6.00 Build 0)  -->
<svg version="1.2" baseProfile="tiny" xmlns="http://www.w3.org/2000/svg" xmlns:xlink="http://www.w3.org/1999/xlink" x="0px"
	 y="0px" viewBox="0 0 1600 900" xml:space="preserve">
<g id="Layer_1">
	<g>
		<g id="XMLID_19_">
			<g id="XMLID_63_">
				<g id="XMLID_64_">
					<polygon id="XMLID_84_" fill="#FFFFFF" points="232.3,506.2 193.5,480.8 133.5,506.2 168.8,464.7 129.6,439 190.7,439 
						232.3,390.3 232.3,439 291.5,439 232.3,464.2 					"/>
					<path id="XMLID_83_" fill="#FFFFFF" d="M305.8,414.1c2.1,0,3.8-1.7,3.8-3.8l0-16.3c0-2.1-1.7-3.8-3.8-3.8h-63.5v23.8
						L305.8,414.1z"/>
					<path id="XMLID_82_" fill="#FFFFFF" d="M305.8,506.5c2.1,0,3.8-1.7,3.8-3.8l0-16.3c0-2.1-1.7-3.8-3.8-3.8h-63.5v23.8
						L305.8,506.5z"/>
					<path id="XMLID_81_" fill="#FFFFFF" d="M1158.4,390.2h-79.4c-2.1,0-3.8,1.7-3.8,3.8v16.3c0,2.1,1.7,3.8,3.8,3.8h27.7v88.7
						c0,2.1,1.7,3.8,3.8,3.8h16.3c2.1,0,3.8-1.7,3.8-3.8v-88.7h27.7c2.1,0,3.8-1.7,3.8-3.8V394
						C1162.2,391.9,1160.5,390.2,1158.4,390.2z"/>
					<path id="XMLID_78_" fill="#FFFFFF" d="M842.1,416.3c-1.9-5.1-4.7-9.7-8.3-13.5c-3.6-3.8-8.1-6.9-13.3-9.2
						c-5.2-2.3-11.2-3.4-17.7-3.4h-43.2c-2.1,0-3.8,1.7-3.8,3.8v108.7c0,2.1,1.7,3.8,3.8,3.8h16.3c2.1,0,3.8-1.7,3.8-3.8l0-27.8
						h23.1c6.5,0,12.4-1.1,17.6-3.3c5.2-2.2,9.6-5.3,13.3-9.1c3.6-3.8,6.5-8.3,8.4-13.3c1.9-5,2.9-11.3,2.9-16.8
						C844.9,426.8,843.9,421.4,842.1,416.3z M819.6,440c-0.9,2.3-2.1,4.3-3.6,5.9c-1.5,1.6-3.2,2.7-5.3,3.6c-2,0.9-5.7,1.5-12.7,1.5
						h-18.3v-36.8h24c2.6,0,4.9,0.5,7,1.4c2.1,0.9,4,2.2,5.5,3.8c1.5,1.6,2.7,3.5,3.5,5.7c0.8,2.3,1.3,4.8,1.3,7.5
						C820.9,435.2,820.4,437.7,819.6,440z"/>
					<path id="XMLID_77_" fill="#FFFFFF" d="M679.7,423.6c-0.1,2.4,0.5,3.9,1.4,5.2c1,1.5,2.5,2.7,4.3,3.7c2,1.1,4.5,1.9,7.2,2.5
						c3,0.6,6,1.2,9.1,1.8c5.5,0.9,11,2,16.2,3.3c5.4,1.4,10.3,3.4,14.4,6c4.2,2.8,7.6,6.4,10.1,10.9c2.4,4.5,3.5,10.3,3.2,17.1
						c-0.3,6.6-2,12.3-5,16.8c-3,4.4-6.9,8.1-11.5,10.8c-4.5,2.7-9,4.6-14.6,5.7c-5.4,1-11.5,1.3-16.9,1.1
						c-13.2-0.6-32.7-8.2-42.5-21.6c-0.8-1.1-1.7-2.9,0.4-5c2.1-2.1,12.2-12.4,12.2-12.4c2-2.1,4-0.6,4.8,0.6
						c5.7,8.4,17.1,14.6,26.1,15c4.7,0.2,5.3,0,8.2-0.4c2.7-0.3,5-1,7.3-2.1c2-0.9,3.7-2.2,5.1-3.9c1.2-1.6,2-3.8,2.1-6.4
						c0.2-2.5-0.5-4.5-1.7-6.1c-1.3-1.8-3-3.1-5.1-4.2c-2.4-1.2-5-2-8-2.6c-3.2-0.6-6.4-1.1-9.5-1.6c-5.1-0.6-10.2-1.7-15-3.1
						c-5.1-1.4-9.6-3.5-13.4-6.1c-4-2.7-7.2-6.1-9.6-10.3c-2.4-4.3-3.5-9.1-3.3-15.2c0.3-6.2,1.8-11.6,4.5-16.1
						c2.7-4.5,6.3-8.1,10.6-11c4.2-2.7,9.1-4.7,14.4-6c10.4-2.4,20.9-2,31.2,1.3c11.1,3.5,20.1,12.1,24.2,18.1
						c0.8,1.1,1.5,2.9-0.1,4.7c-1.6,1.8-11.5,11.4-11.5,11.4c-2.1,2-4.3,1.6-5.5-0.2c-6-8.9-13.8-12.9-22.8-13.5
						C691.1,411.3,680.2,413.5,679.7,423.6z"/>
					<path id="XMLID_73_" fill="#FFFFFF" d="M629.9,404.3c-5.4-5.1-11.7-9.1-18.8-11.7c-7.1-2.6-14.6-4-22.5-4
						c-7.8,0-15.3,1.3-22.4,4c-7.2,2.7-13.6,6.6-19,11.7c-5.4,5.1-9.8,11.5-13,18.9c-3.2,7.4-4.8,15.9-4.8,25.2
						c0,9.4,1.6,17.9,4.7,25.3c3.1,7.4,7.5,13.7,12.8,18.8c5.4,5.1,11.7,9.1,18.8,11.7c7.1,2.6,14.6,4,22.5,4
						c8.6,0,16.7-1.5,23.9-4.3c7.3-2.9,13.6-7,18.8-12.3c5.2-5.3,9.3-11.7,12.2-19c2.9-7.3,4.4-15.4,4.4-24.2
						c0-9.3-1.6-17.8-4.8-25.2C639.6,415.8,635.3,409.4,629.9,404.3z M620.4,464.5c-1.8,4.5-4.3,8.3-7.5,11.3c-3.1,3-6.8,5.3-11,6.8
						c-4.2,1.6-8.8,2.3-13.5,2.3c-4.9,0-9.5-0.8-13.7-2.3c-4.1-1.5-7.8-3.8-10.8-6.8c-3.1-3-5.5-6.8-7.4-11.3
						c-1.9-4.5-2.8-9.9-2.8-16c0-6.1,0.9-11.4,2.8-16c1.8-4.5,4.3-8.3,7.4-11.3c3.1-3,6.8-5.3,10.9-6.9c4.2-1.6,8.8-2.4,13.7-2.4
						c4.8,0,9.3,0.8,13.5,2.4c4.1,1.6,7.8,3.9,10.9,7c3.1,3.1,5.6,6.9,7.5,11.4c1.8,4.5,2.8,9.9,2.8,15.8
						C623.2,454.6,622.2,460,620.4,464.5z"/>
					<path id="XMLID_70_" fill="#FFFFFF" d="M953.6,404.3c-5.4-5.1-11.7-9.1-18.8-11.7c-7.1-2.6-14.6-4-22.5-4
						c-7.8,0-15.3,1.3-22.4,4c-7.2,2.7-13.6,6.6-19,11.7c-5.4,5.1-9.8,11.5-13,18.9c-3.2,7.4-4.8,15.9-4.8,25.2
						c0,9.4,1.6,17.9,4.7,25.3c3.1,7.4,7.5,13.7,12.8,18.8c5.4,5.1,11.7,9.1,18.8,11.7c7.1,2.6,14.6,4,22.5,4
						c8.6,0,16.7-1.5,23.9-4.3c7.3-2.9,13.6-7,18.8-12.3c5.2-5.3,9.3-11.7,12.2-19c2.9-7.3,4.4-15.4,4.4-24.2
						c0-9.3-1.6-17.8-4.8-25.2C963.3,415.8,959,409.4,953.6,404.3z M944.1,464.5c-1.8,4.5-4.3,8.3-7.5,11.3c-3.1,3-6.8,5.3-11,6.8
						c-4.2,1.6-8.8,2.3-13.5,2.3c-4.9,0-9.5-0.8-13.7-2.3c-4.1-1.5-7.8-3.8-10.8-6.8c-3.1-3-5.5-6.8-7.4-11.3
						c-1.9-4.5-2.8-9.9-2.8-16c0-6.1,0.9-11.4,2.8-16c1.8-4.5,4.3-8.3,7.4-11.3c3.1-3,6.8-5.3,10.9-6.9c4.2-1.6,8.8-2.4,13.7-2.4
						c4.8,0,9.3,0.8,13.5,2.4c4.1,1.6,7.8,3.9,10.9,7c3.1,3.1,5.6,6.9,7.5,11.4c1.8,4.5,2.8,9.9,2.8,15.8
						C946.9,454.6,945.9,460,944.1,464.5z"/>
					<path id="XMLID_69_" fill="#FFFFFF" d="M410.4,390.2H394c-2.1,0-3.8,1.7-3.8,3.8v72c0,3.1-0.5,5.8-1.5,8
						c-1,2.2-2.4,4.1-4.1,5.6c-1.8,1.5-4,2.7-6.4,3.6c-2.5,0.8-6.8,1.3-9.8,1.3c-3,0-7.6-0.4-10.2-1.3c-2.5-0.8-4.7-2-6.6-3.6
						c-1.8-1.5-3.2-3.4-4.2-5.6c-1-2.2-1.5-4.9-1.5-8v-72c0-2.1-1.7-3.8-3.8-3.8h-16.3c-2.1,0-3.8,1.7-3.8,3.8v72.5
						c0,6.7,1.2,12.6,3.7,17.8c2.4,5.1,5.9,9.5,10.1,13.1c4.2,3.6,9.2,6.3,14.8,8.1c5.5,1.8,11.4,2.7,17.7,2.7
						c6.2,0,12.1-0.9,17.5-2.7c5.6-1.8,10.5-4.5,14.7-8.1c4.2-3.6,7.5-8,9.9-13.1c2.5-5.2,3.7-11.1,3.7-17.8V394
						C414.1,391.9,412.5,390.2,410.4,390.2z"/>
					<path id="XMLID_67_" fill="#FFFFFF" d="M525.1,500.2l-26.5-32.9c0,0,21.4-7.8,21.4-34.9c0-5.6-0.9-11-2.8-16.1
						c-1.9-5.1-4.7-9.7-8.3-13.5c-3.6-3.8-8.1-6.9-13.3-9.2c-5.2-2.3-11.2-3.4-17.7-3.4h-43.1c-2.1,0-3.8,1.7-3.8,3.8v108.7
						c0,2.1,1.7,3.8,3.8,3.8H451c2.1,0,3.8-1.7,3.8-3.8l0-88.6h24.2c2.6,0,4.9,0.5,7,1.4c2.1,0.9,4,2.2,5.5,3.8
						c1.5,1.6,2.7,3.5,3.5,5.7c0.8,2.3,1.3,4.8,1.3,7.5c0,2.6-0.4,5.1-1.3,7.4c-0.9,2.3-2.1,4.3-3.6,5.9c-1.5,1.6-3.2,2.7-5.3,3.6
						c-2,0.9-5.7,1.5-12.7,1.5c0,0-8.1,0-10.1,0s-3.5,1.8-2,4.3l37.8,49.7c0.7,1,1.9,1.6,3.1,1.6h20.9
						C525.9,506.5,527.9,503.7,525.1,500.2z"/>
					<path id="XMLID_65_" fill="#FFFFFF" d="M1076.7,500.2l-26.5-32.9c0,0,21.4-7.8,21.4-34.9c0-5.6-0.9-11-2.8-16.1
						c-1.9-5.1-4.7-9.7-8.3-13.5c-3.6-3.8-8.1-6.9-13.3-9.2c-5.2-2.3-11.2-3.4-17.7-3.4h-43.1c-2.1,0-3.8,1.7-3.8,3.8v108.7
						c0,2.1,1.7,3.8,3.8,3.8h16.3c2.1,0,3.8-1.7,3.8-3.8l0-88.6h24.2c2.6,0,4.9,0.5,7,1.4c2.1,0.9,4,2.2,5.5,3.8
						c1.5,1.6,2.7,3.5,3.5,5.7c0.8,2.3,1.3,4.8,1.3,7.5c0,2.6-0.4,5.1-1.3,7.4c-0.9,2.3-2.1,4.3-3.6,5.9c-1.5,1.6-3.2,2.7-5.3,3.6
						c-2,0.9-5.7,1.5-12.7,1.5c0,0-8.1,0-10.1,0c-2,0-3.5,1.8-2,4.3l37.8,49.7c0.7,1,1.9,1.6,3.1,1.6h20.9
						C1077.5,506.5,1079.5,503.7,1076.7,500.2z"/>
				</g>
			</g>
			<g id="XMLID_2_">
				<g id="XMLID_174_">
					<polygon id="XMLID_193_" fill="#FFFFFF" points="232.3,506.2 193.5,480.8 133.5,506.2 168.8,464.7 129.6,439 190.7,439 
						232.3,390.3 232.3,439 291.5,439 232.3,464.2 					"/>
					<path id="XMLID_192_" fill="#FFFFFF" d="M305.8,414.1c2.1,0,3.8-1.7,3.8-3.8l0-16.3c0-2.1-1.7-3.8-3.8-3.8h-63.5v23.8
						L305.8,414.1z"/>
					<path id="XMLID_191_" fill="#FFFFFF" d="M305.8,506.5c2.1,0,3.8-1.7,3.8-3.8l0-16.3c0-2.1-1.7-3.8-3.8-3.8h-63.5v23.8
						L305.8,506.5z"/>
					<path id="XMLID_190_" fill="#FFFFFF" d="M1158.4,390.2h-79.4c-2.1,0-3.8,1.7-3.8,3.8v16.3c0,2.1,1.7,3.8,3.8,3.8h27.7v88.7
						c0,2.1,1.7,3.8,3.8,3.8h16.3c2.1,0,3.8-1.7,3.8-3.8v-88.7h27.7c2.1,0,3.8-1.7,3.8-3.8V394
						C1162.2,391.9,1160.5,390.2,1158.4,390.2z"/>
					<path id="XMLID_187_" fill="#FFFFFF" d="M842.1,416.3c-1.9-5.1-4.7-9.7-8.3-13.5c-3.6-3.8-8.1-6.9-13.3-9.2
						c-5.2-2.3-11.2-3.4-17.7-3.4h-43.2c-2.1,0-3.8,1.7-3.8,3.8v108.7c0,2.1,1.7,3.8,3.8,3.8h16.3c2.1,0,3.8-1.7,3.8-3.8l0-27.8
						h23.1c6.5,0,12.4-1.1,17.6-3.3c5.2-2.2,9.6-5.3,13.3-9.1c3.6-3.8,6.5-8.3,8.4-13.3c1.9-5,2.9-11.3,2.9-16.8
						C844.9,426.8,843.9,421.4,842.1,416.3z M819.6,440c-0.9,2.3-2.1,4.3-3.6,5.9c-1.5,1.6-3.2,2.7-5.3,3.6c-2,0.9-5.7,1.5-12.7,1.5
						h-18.3v-36.8h24c2.6,0,4.9,0.5,7,1.4c2.1,0.9,4,2.2,5.5,3.8c1.5,1.6,2.7,3.5,3.5,5.7c0.8,2.3,1.3,4.8,1.3,7.5
						C820.9,435.2,820.4,437.7,819.6,440z"/>
					<path id="XMLID_186_" fill="#FFFFFF" d="M679.7,423.6c-0.1,2.4,0.5,3.9,1.4,5.2c1,1.5,2.5,2.7,4.3,3.7c2,1.1,4.5,1.9,7.2,2.5
						c3,0.6,6,1.2,9.1,1.8c5.5,0.9,11,2,16.2,3.3c5.4,1.4,10.3,3.4,14.4,6c4.2,2.8,7.6,6.4,10.1,10.9c2.4,4.5,3.5,10.3,3.2,17.1
						c-0.3,6.6-2,12.3-5,16.8c-3,4.4-6.9,8.1-11.5,10.8c-4.5,2.7-9,4.6-14.6,5.7c-5.4,1-11.5,1.3-16.9,1.1
						c-13.2-0.6-32.7-8.2-42.5-21.6c-0.8-1.1-1.7-2.9,0.4-5c2.1-2.1,12.2-12.4,12.2-12.4c2-2.1,4-0.6,4.8,0.6
						c5.7,8.4,17.1,14.6,26.1,15c4.7,0.2,5.3,0,8.2-0.4c2.7-0.3,5-1,7.3-2.1c2-0.9,3.7-2.2,5.1-3.9c1.2-1.6,2-3.8,2.1-6.4
						c0.2-2.5-0.5-4.5-1.7-6.1c-1.3-1.8-3-3.1-5.1-4.2c-2.4-1.2-5-2-8-2.6c-3.2-0.6-6.4-1.1-9.5-1.6c-5.1-0.6-10.2-1.7-15-3.1
						c-5.1-1.4-9.6-3.5-13.4-6.1c-4-2.7-7.2-6.1-9.6-10.3c-2.4-4.3-3.5-9.1-3.3-15.2c0.3-6.2,1.8-11.6,4.5-16.1
						c2.7-4.5,6.3-8.1,10.6-11c4.2-2.7,9.1-4.7,14.4-6c10.4-2.4,20.9-2,31.2,1.3c11.1,3.5,20.1,12.1,24.2,18.1
						c0.8,1.1,1.5,2.9-0.1,4.7c-1.6,1.8-11.5,11.4-11.5,11.4c-2.1,2-4.3,1.6-5.5-0.2c-6-8.9-13.8-12.9-22.8-13.5
						C691.1,411.3,680.2,413.5,679.7,423.6z"/>
					<path id="XMLID_183_" fill="#FFFFFF" d="M629.9,404.3c-5.4-5.1-11.7-9.1-18.8-11.7c-7.1-2.6-14.6-4-22.5-4
						c-7.8,0-15.3,1.3-22.4,4c-7.2,2.7-13.6,6.6-19,11.7c-5.4,5.1-9.8,11.5-13,18.9c-3.2,7.4-4.8,15.9-4.8,25.2
						c0,9.4,1.6,17.9,4.7,25.3c3.1,7.4,7.5,13.7,12.8,18.8c5.4,5.1,11.7,9.1,18.8,11.7c7.1,2.6,14.6,4,22.5,4
						c8.6,0,16.7-1.5,23.9-4.3c7.3-2.9,13.6-7,18.8-12.3c5.2-5.3,9.3-11.7,12.2-19c2.9-7.3,4.4-15.4,4.4-24.2
						c0-9.3-1.6-17.8-4.8-25.2C639.6,415.8,635.3,409.4,629.9,404.3z M620.4,464.5c-1.8,4.5-4.3,8.3-7.5,11.3c-3.1,3-6.8,5.3-11,6.8
						c-4.2,1.6-8.8,2.3-13.5,2.3c-4.9,0-9.5-0.8-13.7-2.3c-4.1-1.5-7.8-3.8-10.8-6.8c-3.1-3-5.5-6.8-7.4-11.3
						c-1.9-4.5-2.8-9.9-2.8-16c0-6.1,0.9-11.4,2.8-16c1.8-4.5,4.3-8.3,7.4-11.3c3.1-3,6.8-5.3,10.9-6.9c4.2-1.6,8.8-2.4,13.7-2.4
						c4.8,0,9.3,0.8,13.5,2.4c4.1,1.6,7.8,3.9,10.9,7c3.1,3.1,5.6,6.9,7.5,11.4c1.8,4.5,2.8,9.9,2.8,15.8
						C623.2,454.6,622.2,460,620.4,464.5z"/>
					<path id="XMLID_180_" fill="#FFFFFF" d="M953.6,404.3c-5.4-5.1-11.7-9.1-18.8-11.7c-7.1-2.6-14.6-4-22.5-4
						c-7.8,0-15.3,1.3-22.4,4c-7.2,2.7-13.6,6.6-19,11.7c-5.4,5.1-9.8,11.5-13,18.9c-3.2,7.4-4.8,15.9-4.8,25.2
						c0,9.4,1.6,17.9,4.7,25.3c3.1,7.4,7.5,13.7,12.8,18.8c5.4,5.1,11.7,9.1,18.8,11.7c7.1,2.6,14.6,4,22.5,4
						c8.6,0,16.7-1.5,23.9-4.3c7.3-2.9,13.6-7,18.8-12.3c5.2-5.3,9.3-11.7,12.2-19c2.9-7.3,4.4-15.4,4.4-24.2
						c0-9.3-1.6-17.8-4.8-25.2C963.3,415.8,959,409.4,953.6,404.3z M944.1,464.5c-1.8,4.5-4.3,8.3-7.5,11.3c-3.1,3-6.8,5.3-11,6.8
						c-4.2,1.6-8.8,2.3-13.5,2.3c-4.9,0-9.5-0.8-13.7-2.3c-4.1-1.5-7.8-3.8-10.8-6.8c-3.1-3-5.5-6.8-7.4-11.3
						c-1.9-4.5-2.8-9.9-2.8-16c0-6.1,0.9-11.4,2.8-16c1.8-4.5,4.3-8.3,7.4-11.3c3.1-3,6.8-5.3,10.9-6.9c4.2-1.6,8.8-2.4,13.7-2.4
						c4.8,0,9.3,0.8,13.5,2.4c4.1,1.6,7.8,3.9,10.9,7c3.1,3.1,5.6,6.9,7.5,11.4c1.8,4.5,2.8,9.9,2.8,15.8
						C946.9,454.6,945.9,460,944.1,464.5z"/>
					<path id="XMLID_179_" fill="#FFFFFF" d="M410.4,390.2H394c-2.1,0-3.8,1.7-3.8,3.8v72c0,3.1-0.5,5.8-1.5,8
						c-1,2.2-2.4,4.1-4.1,5.6c-1.8,1.5-4,2.7-6.4,3.6c-2.5,0.8-6.8,1.3-9.8,1.3c-3,0-7.6-0.4-10.2-1.3c-2.5-0.8-4.7-2-6.6-3.6
						c-1.8-1.5-3.2-3.4-4.2-5.6c-1-2.2-1.5-4.9-1.5-8v-72c0-2.1-1.7-3.8-3.8-3.8h-16.3c-2.1,0-3.8,1.7-3.8,3.8v72.5
						c0,6.7,1.2,12.6,3.7,17.8c2.4,5.1,5.9,9.5,10.1,13.1c4.2,3.6,9.2,6.3,14.8,8.1c5.5,1.8,11.4,2.7,17.7,2.7
						c6.2,0,12.1-0.9,17.5-2.7c5.6-1.8,10.5-4.5,14.7-8.1c4.2-3.6,7.5-8,9.9-13.1c2.5-5.2,3.7-11.1,3.7-17.8V394
						C414.1,391.9,412.5,390.2,410.4,390.2z"/>
					<path id="XMLID_177_" fill="#FFFFFF" d="M525.1,500.2l-26.5-32.9c0,0,21.4-7.8,21.4-34.9c0-5.6-0.9-11-2.8-16.1
						c-1.9-5.1-4.7-9.7-8.3-13.5c-3.6-3.8-8.1-6.9-13.3-9.2c-5.2-2.3-11.2-3.4-17.7-3.4h-43.1c-2.1,0-3.8,1.7-3.8,3.8v108.7
						c0,2.1,1.7,3.8,3.8,3.8H451c2.1,0,3.8-1.7,3.8-3.8l0-88.6h24.2c2.6,0,4.9,0.5,7,1.4c2.1,0.9,4,2.2,5.5,3.8
						c1.5,1.6,2.7,3.5,3.5,5.7c0.8,2.3,1.3,4.8,1.3,7.5c0,2.6-0.4,5.1-1.3,7.4c-0.9,2.3-2.1,4.3-3.6,5.9c-1.5,1.6-3.2,2.7-5.3,3.6
						c-2,0.9-5.7,1.5-12.7,1.5c0,0-8.1,0-10.1,0s-3.5,1.8-2,4.3l37.8,49.7c0.7,1,1.9,1.6,3.1,1.6h20.9
						C525.9,506.5,527.9,503.7,525.1,500.2z"/>
					<path id="XMLID_175_" fill="#FFFFFF" d="M1076.7,500.2l-26.5-32.9c0,0,21.4-7.8,21.4-34.9c0-5.6-0.9-11-2.8-16.1
						c-1.9-5.1-4.7-9.7-8.3-13.5c-3.6-3.8-8.1-6.9-13.3-9.2c-5.2-2.3-11.2-3.4-17.7-3.4h-43.1c-2.1,0-3.8,1.7-3.8,3.8v108.7
						c0,2.1,1.7,3.8,3.8,3.8h16.3c2.1,0,3.8-1.7,3.8-3.8l0-88.6h24.2c2.6,0,4.9,0.5,7,1.4c2.1,0.9,4,2.2,5.5,3.8
						c1.5,1.6,2.7,3.5,3.5,5.7c0.8,2.3,1.3,4.8,1.3,7.5c0,2.6-0.4,5.1-1.3,7.4c-0.9,2.3-2.1,4.3-3.6,5.9c-1.5,1.6-3.2,2.7-5.3,3.6
						c-2,0.9-5.7,1.5-12.7,1.5c0,0-8.1,0-10.1,0c-2,0-3.5,1.8-2,4.3l37.8,49.7c0.7,1,1.9,1.6,3.1,1.6h20.9
						C1077.5,506.5,1079.5,503.7,1076.7,500.2z"/>
				</g>
			</g>
		</g>
		<g id="XMLID_16_">
			<g id="XMLID_18_">
				<g id="XMLID_20_">
					<g id="XMLID_21_">
						<path id="XMLID_22_" fill="#E40038" d="M1320.4,508.3h-113.1c-0.8,0-1.5-0.7-1.5-1.5V390c0-0.8,0.7-1.5,1.5-1.5h113.1
							c0.8,0,1.5,0.7,1.5,1.5v116.8C1321.9,507.7,1321.2,508.3,1320.4,508.3z"/>
					</g>
				</g>
			</g>
			<path id="XMLID_17_" fill="#FFFFFF" d="M1277.1,409.7c0-1.5-1.2-2.7-2.7-2.7h-27.1c-1.5,0-2.7,1.2-2.7,2.7l0,11.7
				c0,1.6,1,2.8,2.6,2.8h11.6l0,63c0,1.5,1.1,2.7,2.6,2.7h13.2c1.5,0,2.6-1.2,2.6-2.7L1277.1,409.7z"/>
		</g>
		<g id="XMLID_12_">
			<path id="XMLID_24_" fill="#FFFFFF" d="M1412.8,392.1c0-1.1-0.9-1.9-2-1.9h-8.5c-1.1,0-2,0.8-2,1.9V413h-22.5v-20.9
				c0-1.1-0.9-1.9-2-1.9h-8.5c-1.1,0-2,0.8-2,1.9V449l0,0c0,1.1,0.9,2,2,2h8.5c1.1,0,2-0.9,2-2v-23.6h22.5V449l0,0c0,1.1,0.9,2,2,2
				h8.5c1.1,0,2-0.9,2-2V392.1z"/>
			<path id="XMLID_13_" fill="#FFFFFF" d="M1439.5,438.6h11c11.5,0,16.8-9.4,16.8-18.1c0-8.7-5.2-17.9-16.7-17.9h-11.1V438.6z
				 M1449.8,390.2c19.6,0,29.8,15.1,29.8,30.2c0,8.1-2.7,15.7-7.7,21.2c-5.5,6.1-13.1,9.3-22.1,9.3h-20.7c-1.1,0-2-0.9-2-2v0v-56.9
				c0-1.1,0.9-1.9,2-1.9H1449.8z"/>
		</g>
	</g>
</g>
<g id="Laag_2" display="none">
</g>
</svg>
