<?xml version="1.0" encoding="utf-8"?>
<!-- Generator: Adobe Illustrator 22.1.0, SVG Export Plug-In . SVG Version: 6.00 Build 0)  -->
<svg version="1.1" xmlns="http://www.w3.org/2000/svg" xmlns:xlink="http://www.w3.org/1999/xlink" x="0px" y="0px"
	 viewBox="0 0 1599.999 900" enable-background="new 0 0 1599.999 900" xml:space="preserve">
<g id="Layer_1">
	<g>
		<path fill="#9F086F" d="M692.486,102.453c26.177,21.555,53.451,41.73,79.957,62.861c3.907,3.156,7.908,6.172,11.987,9.111
			c-4.517,9.832-6.579,20.553-10.19,30.727c-4.141,11.676-7.971,23.443-11.471,35.32c-3.987-1.498-8.019-2.846-12.098-4.002
			c-0.469-0.266-1.422-0.781-1.891-1.047c-17.316-5.736-34.993-10.314-52.044-16.801c-1.282-14.111-0.595-28.287-1.359-42.414
			C693.721,151.654,694.315,127.007,692.486,102.453L692.486,102.453z"/>
		<path fill="#9F086F" d="M822.846,174.41c30.695-23.959,61.719-47.527,91.976-72.033c-1.265,17.91-1.828,35.852-1.844,53.795
			c-1.86,20.785-1.095,41.697-2.454,62.5c-21.803,7.859-44.292,13.66-66.047,21.691c-3.301-10.611-6.47-21.27-10.284-31.709
			C830.082,197.353,827.676,185.461,822.846,174.41L822.846,174.41z"/>
		<path fill="#A6062C" d="M618.109,199.572c17.754,6.316,35.742,11.893,53.778,17.332c3.032,1.047,6.079,2.125,9.143,3.111
			c16.41,5.453,33.07,10.098,49.402,15.783c10.268,3.502,20.896,5.861,30.96,9.943c-4.203,10.014-7.142,20.488-10.533,30.787
			c-4.454,15.473-10.486,30.43-14.847,45.918c-2.735,8.969-6.049,17.738-8.924,26.66c-36.259-0.311-72.534-0.201-108.809-0.061
			C618.062,299.22,618.406,249.398,618.109,199.572L618.109,199.572z"/>
		<path fill="#9509B4" d="M918.48,222.515c23.427-8.08,47.369-14.533,70.688-22.943c-0.296,49.811,0.017,99.633-0.171,149.459
			c-36.275-0.141-72.534-0.234-108.807,0.047c-11.754-34.539-22.459-69.408-34.166-103.947
			C870.342,238.129,894.207,229.687,918.48,222.515L918.48,222.515z"/>
		<path fill="#DA2A2C" d="M503.394,239.816c36.181,13.645,72.548,26.74,108.808,40.164c-0.047,22.961-0.031,45.92,0,68.877
			c-23.007-0.016-46.027-0.232-69.034,0.125C529.869,312.615,517.068,276.043,503.394,239.816L503.394,239.816z"/>
		<path fill="#7909B3" d="M1076.674,249.914c9.064-3.486,18.066-7.207,27.35-10.082c-7.456,17.365-12.598,35.586-19.708,53.076
			c-6.189,18.895-13.768,37.289-20.067,56.154c-23.083-0.297-46.184-0.094-69.268-0.094c-0.077-22.99,0.173-45.98-0.14-68.953
			c4.252-1.549,8.455-3.268,12.723-4.799C1030.6,266.791,1053.527,258.039,1076.674,249.914L1076.674,249.914z"/>
		<path fill="#DA2A2C" d="M530.946,386.963c15.177,10.783,30.181,21.785,45.323,32.6c3.564,2.705,7.721,4.799,10.644,8.236
			c-13.285,18.678-27.085,37.012-40.323,55.732c-7.329-3.047-15.144-4.594-22.739-6.799c-29.79-8.75-59.686-17.096-89.537-25.631
			c6.141-3.125,11.862-7,17.52-10.906C478.012,422.158,504.847,405.105,530.946,386.963L530.946,386.963z"/>
		<path fill="#7909B3" d="M1076.345,387.429c22.959,15.256,45.856,30.602,68.813,45.873c9.145,6.127,18.022,12.69,27.649,18.065
			c-21.317,6.426-42.729,12.502-64.219,18.303c-0.439,0.219-1.329,0.672-1.766,0.891c-15.254,4.625-30.961,7.799-45.917,13.285
			c-14.021-18.443-27.163-37.539-41.089-56.078C1038.712,414.408,1057.169,400.418,1076.345,387.429L1076.345,387.429z"/>
		<path fill="#EC5003" d="M591.711,430.517c29.68,21.225,59.016,42.934,88.819,63.988c-1.438,4.779-2.86,9.562-4.58,14.236
			c-5.423,14.191-8.985,29.023-14.284,43.26c-5.72,15.379-9.252,31.523-15.565,46.686c-2.563-1.096-5.142-2.174-7.752-3.16
			c-16.161-5.641-32.774-9.875-48.794-15.939c-14.3-4.549-28.71-8.736-42.885-13.676c-11.786-4.158-23.882-7.328-35.682-11.426
			c-2.453-0.812-4.859-1.719-7.252-2.656c7.424-8.393,13.051-18.162,19.99-26.943C546.311,493.379,569.378,462.214,591.711,430.517
			L591.711,430.517z"/>
		<path fill="#5D0AB4" d="M939.733,485.705c24.912-18.568,50.592-36.072,75.315-54.873c29.821,40.09,58.453,81.098,88.194,121.264
			c-16.628,6.502-34.039,10.691-50.84,16.723c-9.925,3.611-20.13,6.361-30.227,9.393c-19.957,7.973-41.057,12.566-60.982,20.631
			c-7.128-17.957-11.691-36.822-18.443-54.92c-4.969-16.316-10.58-32.461-15.8-48.684
			C930.623,491.33,935.529,488.955,939.733,485.705L939.733,485.705z"/>
		<path fill="#F68702" d="M506.863,672.453c24.35-30.006,47.933-60.672,72.44-90.553c10.486,4.219,21.567,6.705,32.147,10.691
			c11.097,4.141,22.662,6.828,33.726,11.016c-7.766,21.6-14.518,43.605-21.801,65.375c-9.752,0.096-19.488,0.705-29.21,1.252
			C565.033,670.234,535.964,672.078,506.863,672.453L506.863,672.453z"/>
		<path fill="#343DB4" d="M962.522,603.515c22.176-6.518,44.041-14.035,66.016-21.178c23.459,30.586,47.934,60.391,71.688,90.758
			c-16.439-2-33.068-0.547-49.557-1.955c-22.114-0.672-44.261-1.266-66.376-1.781C976.775,647.511,969.725,625.488,962.522,603.515
			L962.522,603.515z"/>
		<path fill="#0970B3" d="M715.258,646.947c29.758-20.725,58.732-42.559,88.411-63.391c29.368,20.6,58.124,42.09,87.396,62.812
			c0.063,0.438,0.204,1.314,0.282,1.75c-4.205,7.174-9.783,13.426-14.583,20.191c-24.458,33.322-49.199,66.44-73.532,99.854
			c-14.16-19.395-28.118-38.932-42.479-58.17C745.78,688.849,729.839,668.375,715.258,646.947L715.258,646.947z"/>
		<path fill="#0A92E8" d="M687.454,802.187c-6.907-19.269-11.081-39.383-17.63-58.777c-5.048-17.428-9.815-34.916-15.176-52.248l0,0
			c18.458-13.754,37.463-26.742,55.827-40.604c14.128,18.238,27.194,37.273,41.135,55.652
			C730.449,738.359,708.662,770.088,687.454,802.187"/>
		<path fill="#343DB4" d="M921.057,802.377c-21.629-32.088-43.337-64.096-65.156-96.057l0,0
			c13.801-18.488,27.351-37.148,41.058-55.717c18.191,14.24,37.416,27.07,55.78,41.09c-4.563,13.442-7.987,27.195-11.848,40.836
			C933.936,755.707,927.467,779.041,921.057,802.377"/>
	</g>
</g>
<g id="Laag_2">
</g>
</svg>
