<?xml version="1.0" encoding="utf-8"?>
<!-- Generator: Adobe Illustrator 22.1.0, SVG Export Plug-In . SVG Version: 6.00 Build 0)  -->
<svg version="1.1" xmlns="http://www.w3.org/2000/svg" xmlns:xlink="http://www.w3.org/1999/xlink" x="0px" y="0px"
	 viewBox="0 0 1599.999 900" enable-background="new 0 0 1599.999 900" xml:space="preserve">
<g id="Layer_1">
	<g>
		
			<linearGradient id="SVGID_1_" gradientUnits="userSpaceOnUse" x1="487.3175" y1="807.3502" x2="487.3175" y2="1353.3296" gradientTransform="matrix(1 0 0 1 566.1851 -636.0664)">
			<stop  offset="0" style="stop-color:#EEEEEE"/>
			<stop  offset="0.1818" style="stop-color:#C7C7C7"/>
			<stop  offset="0.2121" style="stop-color:#F0F0F0"/>
			<stop  offset="0.3333" style="stop-color:#E7E7E7"/>
			<stop  offset="0.4545" style="stop-color:#C7C7C7"/>
			<stop  offset="0.5212" style="stop-color:#908F8F"/>
			<stop  offset="0.5758" style="stop-color:#BDBDBD"/>
			<stop  offset="0.6303" style="stop-color:#B1B0B1"/>
			<stop  offset="0.697" style="stop-color:#F1F1F1"/>
			<stop  offset="0.8909" style="stop-color:#969696"/>
			<stop  offset="1" style="stop-color:#F1F1F1"/>
		</linearGradient>
		<path fill="url(#SVGID_1_)" d="M880.929,171.308c-2.102,0-18.13-0.037-20.225-0.02l41.192,131.684
			c55.523,23.83,101.864,58.217,106.915,144.484c5.109,87.164-72.69,141.777-137.597,140.418
			c-5.782-0.117-33.489-4.816-39.128-5.432l88.593,134.82h8.738c211.889-30.652,330.592-112.646,344.777-265.186
			C1288.198,301.39,1097.688,171.308,880.929,171.308z"/>
		
			<radialGradient id="SVGID_2_" cx="75.5671" cy="1656.1569" r="111.0416" fx="81.7555" fy="1656.6268" gradientTransform="matrix(0.8484 -0.5349 0.5705 0.8974 -105.4461 -1028.2745)" gradientUnits="userSpaceOnUse">
			<stop  offset="0" style="stop-color:#FCFDFD"/>
			<stop  offset="0.4182" style="stop-color:#94C3E6"/>
			<stop  offset="0.6485" style="stop-color:#6893C8"/>
			<stop  offset="1" style="stop-color:#094391"/>
		</radialGradient>
		<path fill="url(#SVGID_2_)" d="M970.944,428.337c10.607,54.795-25.405,107.781-80.433,118.344
			c-55.026,10.561-108.231-25.301-118.839-80.103c-10.603-54.791,25.407-107.781,80.435-118.344
			C907.132,337.673,960.34,373.535,970.944,428.337z"/>
		
			<linearGradient id="SVGID_3_" gradientUnits="userSpaceOnUse" x1="487.6226" y1="821.2397" x2="487.6226" y2="1339.4624" gradientTransform="matrix(1 0 0 1 566.1851 -636.0664)">
			<stop  offset="0" style="stop-color:#C7C7C7"/>
			<stop  offset="0.3939" style="stop-color:#F0F0F0"/>
			<stop  offset="0.7212" style="stop-color:#A4A4A5"/>
			<stop  offset="1" style="stop-color:#EFEFEF"/>
		</linearGradient>
		<path fill="url(#SVGID_3_)" d="M878.879,185.181c-1.992,0-0.005-0.018-1.992,0l33.796,110.248
			c67.547,27.451,112.984,68.285,112.984,150.52c0,82.877-69.445,152.027-152.661,152.027c-5.487,0-10.91-0.318-16.261-0.904
			l70.16,106.324l0,0c201.136-29.104,313.813-106.924,327.272-251.713C1265.476,308.652,1084.642,185.181,878.879,185.181z"/>
		<path fill="#1C468E" d="M523.087,544.681c76.474,0,70.809-75.834,70.809-92.617V347.263h-38.522v96.02
			c0,31.543-1.481,65.287-32.288,65.287c-30.808,0-32.29-33.744-32.29-65.287v-96.02h-38.521v104.801
			C452.276,468.847,446.611,544.681,523.087,544.681z"/>
		<polygon fill="#1C468E" points="419.42,385.787 419.42,347.263 365.604,347.263 327.084,347.263 327.084,385.787 327.084,424.021 
			327.084,462.544 327.084,500.779 327.084,539.302 365.604,539.302 419.42,539.302 419.42,500.779 365.604,500.779 
			365.604,462.544 416.021,462.544 416.021,424.021 365.604,424.021 365.604,385.787 		"/>
		<g>
			<path fill="#1C468E" d="M703.438,460.279c0,0,35.662-3.408,35.688-56.648c0.027-54.006-43.392-56.314-76.119-56.361v-0.006
				h-38.521v192.039h38.521v-75.061h4.177l34.554,75.061h44.753L703.438,460.279z M680.434,436.962c-6.04,0-15.252,0-15.252,0
				V381.82c0,0,12.077,0,16.183,0c4.105,0,19.08,7.08,19.08,25.676C700.445,429.855,686.472,436.962,680.434,436.962z"/>
		</g>
		<polygon fill="#A4A3A4" points="819.777,164.007 819.777,185.251 835.076,198.849 813.405,204.796 802.359,225.191 
			791.74,205.644 767.097,205.222 784.941,191.197 784.515,171.656 804.057,174.203 		"/>
		<polygon fill="#A4A3A4" points="694.445,206.07 711.014,194.599 711.014,214.142 728.01,229.863 708.891,233.685 700.818,256.63 
			687.648,240.482 664.704,240.058 677.451,221.363 672.353,204.796 		"/>
		<polygon fill="#A4A3A4" points="590.355,280.845 610.323,283.82 626.468,268.949 626.468,291.039 643.462,304.638 
			623.919,309.312 614.997,333.101 603.101,314.832 580.582,315.685 599.278,297.837 		"/>
		<polygon fill="#A4A3A4" points="590.779,587.595 604.375,574.423 607.775,594.814 626.892,606.71 606.076,615.21 597.153,640.277 
			583.133,619.458 561.465,620.734 573.36,600.337 570.386,584.193 		"/>
		<polygon fill="#A4A3A4" points="695.295,672.99 711.865,658.968 714.413,680.638 733.532,692.96 710.165,698.056 702.093,723.972 
			690.622,704.003 669.803,703.582 681.7,691.47 680.425,671.291 		"/>
		<polygon fill="#A4A3A4" points="805.758,688.283 825.301,691.47 843.57,672.564 845.697,696.357 866.088,706.13 844.844,714.199 
			838.899,737.992 825.301,721.849 803.209,723.972 817.228,705.279 		"/>
	</g>
</g>
<g id="Laag_2">
</g>
</svg>
