<?xml version="1.0" encoding="utf-8"?>
<!-- Generator: Adobe Illustrator 22.1.0, SVG Export Plug-In . SVG Version: 6.00 Build 0)  -->
<svg version="1.1" xmlns="http://www.w3.org/2000/svg" xmlns:xlink="http://www.w3.org/1999/xlink" x="0px" y="0px"
	 viewBox="0 0 1600 900" enable-background="new 0 0 1600 900" xml:space="preserve">
<g id="Layer_1">
	<g>
		<g>
			<g>
				<path fill="#EB222B" d="M411.651,665.207l-18.702,36.23c-1.464,2.807-2.629,4.915-2.629,5.613c0,1.638,1.467,2.807,2.337,3.747
					h-32.725c2.337-1.175,4.092-2.807,5.261-4.915l88.241-165.263h0.584l92.629,161.046c2.924,4.687,4.677,6.795,7.309,9.132
					h-33.312c0.877-0.941,2.34-2.109,2.34-3.747c0-0.698-1.174-2.806-2.635-5.613l-18.695-36.23H411.651z M492.588,649.321
					l-37.691-70.834h-0.581l-36.531,70.834H492.588z"/>
				<path fill="#EB222B" d="M601.29,702.605c0,3.277,1.46,6.083,3.505,8.192h-29.22c2.047-2.109,3.511-4.915,3.511-8.192V535.476
					h0.581l123.893,129.966h-0.292h0.584V552.543c0-3.277-1.457-6.083-3.508-8.178h29.22c-2.041,2.095-3.504,4.901-3.504,8.178
					V714.53h-0.588L601.871,585.503l-0.581,0.463V702.605z"/>
				<path fill="#EB222B" d="M922.712,567.965c-14.321-6.774-34.189-9.588-50.84-9.588c-48.51,0-87.953,31.557-87.953,69.197
					c0,40.91,40.899,69.189,91.753,69.189c15.771,0,30.381-3.035,44.703-7.708v-53.767h-50.558c-3.793,0-8.178,0.705-11.401,1.867
					v-19.633c3.223,1.169,7.608,1.874,11.401,1.874h72.756v64.745c0,4.68,0,10.75,1.181,14.731
					c-21.338,9.118-45.307,15.657-70.13,15.657c-65.457,0-111.915-38.801-111.915-89.527c0-50.49,55.221-84.384,115.125-84.384
					c5.258,0,13.153,0.933,20.74,1.874c7.312,0.933,14.624,1.873,18.706,1.873c2.041,0,4.968-0.477,6.432-0.94V567.965z"/>
				<path fill="#EB222B" d="M982.589,710.79c2.047-2.102,3.504-4.908,3.504-8.185V552.543c0-3.277-1.457-6.083-3.504-8.178h115.712
					v17.525c-5.258-1.169-10.521-1.638-15.772-1.638h-74.225v59.138h46.751c7.016,0,14.321-0.234,19.586-2.793v21.505
					c-5.265-2.585-12.57-2.813-19.586-2.813h-46.751v59.602h74.225c5.251,0,10.514-0.463,15.772-1.632v17.531H982.589z"/>
				<path fill="#EB222B" d="M1127.528,710.79c2.048-2.102,3.498-4.908,3.498-8.185V552.543c0-3.277-1.45-6.083-3.498-8.178h29.214
					c-2.041,2.095-3.505,4.901-3.505,8.178v142.348h63.409c6.721,0,14.328-1.403,20.169-3.498v19.397H1127.528z"/>
			</g>
		</g>
		<g>
			<path fill="#F1F2F3" d="M530.439,254.279c-5.938,2.474-16.325,13.355-16.325,29.67v126.593c0,27.195-22.744,43.014-51.918,54.388
				l-4.451-9.386c6.425-2.478,14.835-9.89,14.835-21.761v-61.811h-9.89c-22.748,0-30.16,2.965-34.612,19.287h-8.903
				c0-32.641,6.923-57.859,33.131-57.859h20.77l-0.497-35.105c0-26.699,33.628-40.06,54.398-49.953L530.439,254.279z
				 M626.868,465.923c-24.231-4.941-47.969-7.412-71.214-7.412V340.815c6.922-4.445,14.341-7.909,22.254-7.909
				c17.896,0,44.082,15.221,49.377,37.385l8.48-5.24l59.837-39.067l-6.923-8.409l-20.767,14.338
				c-14.842-16.805-30.663-25.705-53.411-25.705c-21.758,0-41.534,10.87-58.847,23.727v-59.83c0-39.56,25.222-49.45,42.527-49.45
				c31.161,0,41.048,11.37,63.302,30.661l59.34-43.518l-5.445-6.426l-16.312,10.38C677.798,200.871,660.489,189,635.765,189
				c-46.483,0-88.514,32.144-89.01,81.104v188.407c-51.925,0-126.983,29.757-134.794,90.514l4.401-1.33
				c9.034-47.066,58.199-57.54,96.768-57.54c71.701,0,116.213,34.121,120.658,37.089h12.858l56.379-41.051l-5.939-6.916
				l-17.806,12.354c-13.841-8.89-28.18-16.799-43.515-22.244L626.868,465.923z M561.099,192.958
				c-21.76,33.628-45.495,46.485-85.055,46.485c-11.377,0-23.241-3.458-35.115-6.922c-11.37-3.461-22.741-6.922-32.137-6.922
				c-12.861,0-23.245,9.889-23.245,23.237c0,13.355,8.406,24.235,18.796,31.654l-4.952,6.426
				c-14.832-12.367-22.744-22.251-22.744-42.037c0-32.631,42.527-55.879,70.71-55.879c13.351,0,28.193,3.958,42.038,7.916
				c13.351,3.461,25.215,6.926,31.644,6.926c13.362,0,24.732-5.935,35.112-14.348L561.099,192.958z"/>
			<path fill="#F1F2F3" d="M818.346,366.644l20.619-8.514l35.605,16.806v108.303c-12.864,1.477-22.747,4.941-34.618,8.903
				l-40.05-22.264l0.134-92.736l-2.245-10.112c-31.302-15.309-36.609-11.905-41.48-23.241c-9.195-21.402,19.283-33.219,21.67-33.601
				l-1.578-1.884c-9.336,4.24-42.088,15.188-36.193,44.25c2.125,10.488,9.256,15.956,22.103,27.33v92.961l-31.151,21.27l5.935,6.426
				c4.945-3.962,11.871-6.426,17.309-6.426c15.332,0,31.647,16.812,45.002,28.186h9.397c19.283-22.251,53.398-31.154,113.235-34.618
				v-7.909l-9.883-4.458V370.984l26.702-20.273l-7.419-8.409c-5.438,6.425-8.903,9.887-14.838,9.887s-36.324-16.225-45.227-24.141
				l-55.996,32.665L818.346,366.644z"/>
			<path fill="#F1F2F3" d="M1006.532,329.444h4.445c6.929,5.931,23.741,21.267,31.16,21.267c5.432,0,13.348-6.428,17.806-9.89
				l6.412,7.416l-35.599,27.195v90.987c0,12.858,12.858,22.741,20.767,25.709l16.819-10.864l4.942,6.419l-47.469,34.618h-11.871
				c-7.412-5.942-20.767-16.812-20.767-29.677V374.443l-14.831-12.858l-14.838,9.399l-7.412-5.935L1006.532,329.444z
				 M1009.996,235.492h5.935l23.728,19.28l13.838-10.383l5.452,6.428l-42.534,36.102h-6.419l-23.251-20.77l-13.838,10.877
				l-6.929-5.929L1009.996,235.492z"/>
			<path fill="#F1F2F3" d="M1135.505,222.138l11.381,24.231c12.367-14.835,24.224-30.166,39.553-43.521l5.445,7.419
				c-16.316,17.802-21.271,47.476-21.271,70.22V476.31l22.257,14.838l12.865-8.406l5.432,5.935l-44.005,33.625h-9.4
				c-11.381-13.354-24.722-23.244-34.122-23.244c-6.916,0-14.341,5.438-19.78,8.903l-6.923-6.929l36.102-18.786V264.165
				c0-12.357-1.981-27.686-4.458-37.579L1135.505,222.138z"/>
		</g>
	</g>
</g>
<g id="Laag_2">
</g>
</svg>
