<?xml version="1.0" encoding="utf-8"?>
<!-- Generator: Adobe Illustrator 22.1.0, SVG Export Plug-In . SVG Version: 6.00 Build 0)  -->
<svg version="1.2" baseProfile="tiny" id="Layer_1" xmlns="http://www.w3.org/2000/svg" xmlns:xlink="http://www.w3.org/1999/xlink"
	 x="0px" y="0px" viewBox="0 0 1600 900" xml:space="preserve">
<g>
	<path id="path7196" fill="#D6D9DC" d="M370.546,824.95c-6.614,0-12.109-0.772-16.586-3.86l6.817-4.477
		c2.34,1.467,6.309,2.007,9.768,2.007c4.274,0,6.309-0.927,6.309-2.625c0-0.695-0.203-1.312-0.814-1.698
		c-0.509-0.386-1.526-0.618-2.951-0.849l-5.291-0.463c-3.765-0.386-6.716-1.235-8.649-2.547c-2.035-1.389-3.052-3.319-3.052-5.867
		c0-5.249,6.004-9.186,15.975-9.186c6.207,0,10.887,1.003,14.653,3.551l-6.818,4.4c-2.646-1.776-6.309-1.698-8.14-1.698
		c-3.765,0-5.291,1.467-5.291,2.702c0,0.386,0.203,0.849,0.814,1.39c0.509,0.309,1.526,0.695,2.951,0.849l5.393,0.463
		c3.765,0.386,6.614,1.158,8.547,2.393c2.34,1.544,3.256,3.628,3.256,6.407C387.437,821.708,379.704,824.95,370.546,824.95"/>
	<path id="path7199" fill="#D6D9DC" d="M441.876,805.034c0,1.467-1.73,2.933-4.782,2.933h-5.902v-5.944h5.902
		C440.146,802.023,441.876,803.567,441.876,805.034z M452.56,805.034c0-4.786-5.189-9.34-14.856-9.34h-17.298v29.102h10.786v-10.421
		h6.512C447.371,814.374,452.56,809.742,452.56,805.034"/>
	<path id="path7201" fill="#D6D9DC" d="M505.88,810.206c0,5.249-0.712,6.253-1.628,7.102c-0.814,0.695-2.34,1.312-4.274,1.312
		c-1.933,0-3.46-0.618-4.274-1.312c-1.018-0.849-1.628-1.853-1.628-7.102c0-5.404,0.61-6.253,1.628-7.102
		c0.814-0.695,2.34-1.312,4.274-1.312c1.933,0,3.46,0.618,4.274,1.312C505.168,803.953,505.88,804.802,505.88,810.206z
		 M516.564,810.206c0-4.4,0.204-8.414-4.376-11.502c-3.256-2.084-6.919-3.319-12.211-3.319c-5.292,0-9.056,1.235-12.211,3.319
		c-4.579,3.088-4.477,7.102-4.477,11.502s-0.102,8.414,4.477,11.502c3.154,2.084,6.919,3.242,12.211,3.242
		c5.291,0,8.954-1.158,12.211-3.242C516.768,818.62,516.564,814.606,516.564,810.206"/>
	<path id="path7203" fill="#D6D9DC" d="M1114.068,824.795v-29.102h29.611v6.33h-18.927v4.863h16.179v6.407h-16.179v5.017h18.927
		v6.484"/>
	<path id="path7205" fill="#D6D9DC" d="M1177.156,824.795v-29.102h10.888v22.617h18.112v6.484"/>
	<path id="path7207" fill="#D6D9DC" d="M781.839,86.905c-265.58,0-480.79,111.544-480.79,256.822
		c0,145.278,215.211,256.821,480.79,256.821c265.58,0,480.893-111.544,480.893-256.821
		C1262.731,198.449,1047.418,86.905,781.839,86.905z M782.347,577.005c-208.8,0-377.204-101.432-377.204-234.436
		c0-132.927,168.404-230.885,377.204-230.885c208.801,0,376.289,97.958,376.289,230.885
		C1158.636,475.573,991.148,577.005,782.347,577.005"/>
	<path id="path7209" fill="#D6D9DC" d="M781.839,367.812l276.569-84.141v77.425l-148.155,42.843l135.639,32.343l-17.298,64.379
		L781.94,443.538l-246.45,56.274l-17.705-63.607l135.944-32.266l-148.053-43.537v-76.73"/>
	<path id="path7211" fill="#D6D9DC" d="M716.817,202.232h126.685c16.383,0,19.944-5.017,7.835-11.039
		c0,0-25.642-12.891-68.99-12.891c-47.011,0-73.263,12.969-73.263,12.969C696.772,197.292,700.232,202.232,716.817,202.232z
		 M579.754,233.572c0-46.239,101.551-95.179,201.474-92.786c100.33,2.393,182.446,51.874,186.109,97.032
		c0.102,1.081,0.204,3.397,0.204,3.474l-258.966,0.231c-18.112,0-24.726,8.877-11.091,16.828c0,0,34.088,18.835,81.404,18.835
		c31.544,0,54.948-7.333,67.972-13.123l119.155-0.077l-3.663,3.782c-32.969,33.579-103.79,56.737-179.19,56.737
		C683.238,324.506,579.754,284.829,579.754,233.572"/>
	<path id="path7213" fill="#D6D9DC" d="M571.41,805.034c0,1.467-1.73,2.933-4.681,2.933h-6.105v-5.944h6.105
		C569.68,802.023,571.41,803.567,571.41,805.034z M584.434,824.795l-9.463-12.274c3.46-1.081,7.123-3.551,7.123-7.488
		c0-4.786-5.19-9.34-14.958-9.34h-17.095v29.102h10.583v-10.884h3.663l7.733,10.884"/>
	<path id="path7215" fill="#D6D9DC" d="M634.701,802.023v22.772h-10.684v-22.772h-10.786v-6.33h32.154v6.33"/>
	<path id="path7217" fill="#D6D9DC" d="M690.056,824.95c-6.716,0-12.211-0.772-16.484-3.86l6.817-4.477
		c2.239,1.467,6.207,2.007,9.768,2.007c4.172,0,6.207-0.927,6.207-2.625c0-0.695-0.204-1.312-0.814-1.698
		c-0.611-0.386-1.526-0.618-2.951-0.849l-5.189-0.463c-3.867-0.386-6.818-1.235-8.853-2.547c-1.933-1.389-2.951-3.319-2.951-5.867
		c0-5.249,6.003-9.186,15.975-9.186c6.207,0,10.887,1.003,14.653,3.551l-6.716,4.4c-2.747-1.776-6.411-1.698-8.344-1.698
		c-3.663,0-5.189,1.467-5.189,2.702c0,0.386,0.203,0.849,0.916,1.39c0.509,0.309,1.424,0.695,2.849,0.849l5.291,0.463
		c3.969,0.386,6.818,1.158,8.649,2.393c2.34,1.544,3.256,3.628,3.256,6.407C706.947,821.708,699.316,824.95,690.056,824.95"/>
	<path id="path7219" fill="#D6D9DC" d="M794.558,824.95c-4.986,0-8.852-1.158-12.109-3.242c-4.579-3.088-4.376-7.102-4.376-11.502
		s-0.204-8.414,4.376-11.502c3.256-2.084,7.123-3.319,12.109-3.319c8.344,0,14.958,3.088,16.586,9.417h-10.888
		c-0.712-1.544-2.035-3.011-5.596-3.011c-1.933,0-3.46,0.541-4.172,1.235c-0.916,0.849-1.73,1.775-1.73,7.179
		c0,5.249,0.814,6.33,1.73,7.179c0.712,0.695,2.239,1.235,4.172,1.235c3.561,0,4.884-1.544,5.596-3.165h10.888
		C809.516,821.939,802.902,824.95,794.558,824.95"/>
	<path id="path7221" fill="#D6D9DC" d="M864.871,824.795v-11.579h-11.397v11.579h-10.684v-29.102h10.684v11.116h11.397v-11.116
		h10.684v29.102"/>
	<path id="path7223" fill="#D6D9DC" d="M929.892,814.374h-7.632l3.968-7.719L929.892,814.374z M945.969,824.795l-15.874-29.102
		h-8.344l-15.874,29.102h11.193l2.239-4.4h13.33l2.137,4.4"/>
	<path id="path7225" fill="#D6D9DC" d="M1001.018,824.795l-13.94-14.667v14.667h-10.786v-29.102h9.361l13.94,14.59v-14.59h10.786
		v29.102"/>
	<path id="path7227" fill="#D6D9DC" d="M1069.906,824.795l-13.94-14.667v14.667h-10.786v-29.102h9.361l14.042,14.59v-14.59h10.582
		v29.102"/>
	<path id="path7229" fill="#D6D9DC" d="M355.995,672.725v89.158h70.007v-20.379c0,0-42.737,0-43.958,0c0-1.158,0-13.2,0-14.358
		c1.221,0,37.547,0,37.547,0V706.69c0,0-36.326,0-37.547,0c0-1.158,0-12.12,0-13.278c1.221,0,43.958,0,43.958,0v-20.687h-0.61"/>
	<path id="path7231" fill="#D6D9DC" d="M560.115,672.725h-1.221h-28.593c0,0-13.431,22.463-14.449,24.238
		c-1.017-1.775-14.347-24.238-14.347-24.238h-29.916c0,0,29.407,42.765,30.018,43.537c-0.611,0.695-32.053,45.621-32.053,45.621
		h30.018c0,0,15.263-24.702,16.281-26.4c1.018,1.698,16.281,26.4,16.281,26.4h30.018c0,0-31.544-44.926-32.053-45.621
		C530.606,715.49,560.115,672.725,560.115,672.725"/>
	<path id="path7233" fill="#D6D9DC" d="M602.445,672.725v20.687c0,0,23.607,0,24.828,0c0,1.235,0,68.47,0,68.47h25.948
		c0,0,0-67.235,0-68.47c1.323,0,25.031,0,25.031,0v-20.687h-0.712"/>
	<path id="path7235" fill="#D6D9DC" d="M805.446,701.749c0-7.874-3.053-14.59-8.955-19.993c-6.614-5.944-15.365-9.031-26.151-9.031
		h-39.99h-0.712v89.158h26.151c0,0,0-31.417,0-32.575c0.916,0,6.716,0,7.326,0c0.305,0.618,17.909,32.575,17.909,32.575h30.323
		c0,0-21.267-35.818-22.081-36.976C799.951,720.044,805.446,712.325,805.446,701.749z M755.789,693.412c1.119,0,13.432,0,13.432,0
		c2.951,0,5.495,0.849,7.428,2.393c1.832,1.698,2.748,3.551,2.748,5.944c0,2.162-0.916,4.014-2.748,5.635
		c-1.933,1.621-4.274,2.393-7.428,2.393c0,0-12.312,0-13.432,0C755.789,708.696,755.789,694.57,755.789,693.412"/>
	<path id="path7237" fill="#D6D9DC" d="M860.292,672.725v89.158H930.4v-20.379c0,0-42.839,0-44.06,0c0-1.158,0-13.2,0-14.358
		c1.221,0,37.649,0,37.649,0V706.69c0,0-36.428,0-37.649,0c0-1.158,0-12.12,0-13.278c1.221,0,44.06,0,44.06,0v-20.687h-0.712"/>
	<path id="path7239" fill="#D6D9DC" d="M1054.846,672.725c0,0-21.267,36.358-22.386,38.133
		c-1.017-1.775-22.284-38.133-22.284-38.133h-25.438v89.158h26.049c0,0,0-36.512,0-40.372c2.035,3.165,21.572,33.193,21.572,33.193
		s19.741-30.028,21.877-33.27c0,3.783,0,40.449,0,40.449h26.151v-89.158h-0.713"/>
	<path id="path7242" fill="#D6D9DC" d="M1207.071,693.412v-20.687h-0.61h-69.397v89.158h70.007v-20.379c0,0-42.737,0-43.958,0
		c0-1.158,0-13.2,0-14.358c1.221,0,37.649,0,37.649,0V706.69c0,0-36.428,0-37.649,0c0-1.158,0-12.12,0-13.278
		C1164.334,693.412,1207.071,693.412,1207.071,693.412"/>
</g>
</svg>
