<?xml version="1.0" encoding="utf-8"?>
<!-- Generator: Adobe Illustrator 22.1.0, SVG Export Plug-In . SVG Version: 6.00 Build 0)  -->
<svg version="1.1" id="Layer_1" xmlns="http://www.w3.org/2000/svg" xmlns:xlink="http://www.w3.org/1999/xlink" x="0px" y="0px"
	 viewBox="0 0 1600 900" enable-background="new 0 0 1600 900" xml:space="preserve">
<g>
	<g>
		<path id="path6062" fill="#008E35" d="M1105.845,172.168c118.877,0,174.062,63.688,174.062,63.688l-10.188,20.375H962.821v43.301
			h-67.548C895.281,299.539,963.201,172.168,1105.845,172.168"/>
	</g>
	<g>
		<path id="path6064" fill="#E60004" d="M800.493,552.637c21.168,54.867,56.473,101.777,103.6,135.438l166.878-333.471H962.821
			l-0.015-55.998H816.522H281.042c0,0-127.824,6.76-127.824,124.457c0,133.119,125.433,129.574,125.433,129.574H800.493z"/>
	</g>
	<g>
		<path id="path6066" fill="#FFFFFF" d="M341.891,426.928h-53.68v77.531h-46.824V332.385H347.56v34.594h-59.646v36.09h53.977
			V426.928z M487.763,486.125l-27.476,21.918c-4.21-1.281-7.885-3.371-11.028-6.275c-3.134-2.906-5.209-6.225-6.197-9.975
			l-21.643,12.002c-0.84,0.482-2.282,0.959-4.316,1.447c-2.041,0.469-3.751,0.711-5.119,0.711c-16.657,0-30.416-5.561-41.278-16.676
			c-10.86-11.125-16.289-26.609-16.289-46.455c0-18.801,5.629-34.301,16.901-46.508c11.264-12.188,25.633-18.299,43.103-18.299
			c6.982,0,13.482,1.328,19.545,3.971c6.057,2.662,10.039,5.012,11.955,7.061l20.123-7.152l6.759,2.09v76.902
			c0,6.738,1.194,12.08,3.616,16.049C478.834,480.908,482.617,483.967,487.763,486.125 M436.864,466.238v-47.885
			c-2.012-2.565-4.642-4.74-7.878-6.527c-3.246-1.801-7.21-2.701-11.892-2.701c-6.761,0-12.363,2.498-16.804,7.486
			c-4.46,4.979-6.682,13.262-6.682,24.832c0,9.188,2.073,16.531,6.214,22.065c4.147,5.533,9.982,8.297,17.471,8.297
			c4.281,0,8.287-0.68,12.04-2.035C433.079,468.424,435.589,467.246,436.864,466.238 M687.995,504.459h-32.582v-75.617
			c0-4.488-1.434-8.414-4.307-11.779c-2.866-3.363-7.379-5.047-13.538-5.047c-5.033,0-9.53,1.02-13.496,3.062
			c-3.966,2.031-7.299,4.693-9.982,7.969v81.412h-32.584v-75.617c0-4.488-1.434-8.414-4.289-11.779
			c-2.858-3.363-7.354-5.047-13.489-5.047c-5.779,0-10.655,1.273-14.606,3.811c-3.949,2.551-6.839,5.062-8.676,7.516v81.117h-32.585
			V383.984l32.585-2.385v11.922l12.657-8.209c4.189-2.73,8.307-4.576,12.351-5.551c4.044-0.967,8.153-1.449,12.341-1.449
			c7.527,0,13.94,1.615,19.268,4.848c5.318,3.238,9.402,7.676,12.238,13.344l17.599-11.246c3.547-2.312,7.425-4.055,11.63-5.203
			c4.194-1.154,8.565-1.742,13.116-1.742c11.304,0,20.186,3.682,26.647,11.045c6.475,7.363,9.719,17.043,9.719,29.043v86.059
			H687.995z M760.643,369.068h-37.278v-32.203h37.278V369.068z M760.643,504.459h-37.278V383.984l37.278-2.09V504.459z
			 M846.454,484.479l-25.529,22.373c-9.277-5.281-16.648-11.387-22.078-18.312c-5.438-6.918-8.164-15.271-8.164-25.041V332.385
			h36.685V451.23c0,8.24,1.521,14.725,4.561,19.443C834.975,475.398,839.813,479.998,846.454,484.479 M901.421,498.506
			L848.613,393.84l33.884-14.631l35.977,78.998l37.492-78.998l32.212,14.631l-53.221,107.435c0,0-11.526,35.062-59.245,67.266
			c0,0-15.511-17.891-15.511-31.018C860.21,537.523,888.948,515.559,901.421,498.506"/>
	</g>
	<g>
		<path id="path6098" fill="#FFFFFF" d="M962.821,256.23v98.373h108.143L904.084,688.106
			c36.731,26.814,79.731,45.551,126.391,53.602l239.25-485.471H962.821V256.23z"/>
	</g>
	<g>
		<path id="path6100" fill="#2F2373" d="M1123.608,552.725h298.045c4.821-11.59,96.595-240.209-103.74-394.434L1123.61,552.725
			H1123.608z"/>
	</g>
	<g>
		<path id="path6102" fill="#008E35" d="M1330,552.568l-206.401,0.156l-58.024,117.746
			C1085.475,674.023,1244.146,696.578,1330,552.568"/>
	</g>
</g>
</svg>
