<?xml version="1.0" encoding="utf-8"?>
<!-- Generator: Adobe Illustrator 22.1.0, SVG Export Plug-In . SVG Version: 6.00 Build 0)  -->
<svg version="1.1" id="Layer_1" xmlns="http://www.w3.org/2000/svg" xmlns:xlink="http://www.w3.org/1999/xlink" x="0px" y="0px"
	 viewBox="0 0 1600 900" enable-background="new 0 0 1600 900" xml:space="preserve">
<path fill="#4BA0E0" d="M760.172,161.692c3.348,0,6.061,2.713,6.066,6.063l0.003,400.289c0,3.348-2.715,6.063-6.068,6.066h-48.516
	c-3.447,0-6.24-2.718-6.24-6.071V222.344c0-3.353-2.715-6.071-6.066-6.071v0.008l-55.606-0.003
	c-3.345-0.003-6.056-2.718-6.058-6.068l-0.003-42.448c0-3.348,2.713-6.061,6.061-6.068L760.172,161.692"/>
<path fill="#FFFFFF" d="M546.107,209.494c0,3.353-2.715,6.068-6.066,6.068h-48.518c-12.129,0-24.26,6.061-24.26,24.26v39.879
	c0,3.353,2.715,6.073,6.066,6.073l164.499-0.013c3.35,0,6.068,2.715,6.068,6.066l-0.003,275.497h0.003
	c0,3.353-2.72,6.068-6.073,6.068h-48.513c-3.35,0-6.066-2.718-6.068-6.068c0-0.003,0-0.003,0-0.005l0.005-220.908
	c0-3.35-2.715-6.066-6.066-6.066l-103.857,0.003c-3.348,0.008-6.058,2.715-6.061,6.061l-0.003,220.918
	c0,3.35-2.718,6.066-6.068,6.066l-48.511-0.003c-3.35,0-6.066-2.715-6.066-6.066V346.42v-0.008l-0.003-0.003
	c-0.005-3.348-2.718-6.063-6.066-6.063l-42.455-0.003c-3.348-0.003-6.061-2.713-6.063-6.061v-42.455c0-3.35,2.715-6.066,6.066-6.066
	h42.453c3.35,0,6.068-2.713,6.068-6.061v-39.879c0-54.587,42.453-78.847,84.908-78.847h48.516c3.35,0,6.066,2.715,6.066,6.063
	L546.107,209.494z M1148.923,264.077c84.913,0,103.105,54.582,103.105,121.3v181.942c0,3.35-2.715,6.068-6.066,6.068h-48.521
	c-3.348-0.003-6.063-2.718-6.063-6.068V385.377c0-36.394-6.061-66.718-54.582-66.718c-42.458,0-66.718,30.324-66.718,78.842
	l0.008,169.818c0,3.35-2.718,6.068-6.068,6.068H1015.5c-3.35,0-6.068-2.718-6.068-6.068V385.377
	c0-36.394-6.066-66.718-54.587-66.718c-30.321,0-66.711,18.197-66.711,78.842l0.005,169.818c0,3.35-2.72,6.068-6.073,6.068
	l-48.516,0.005c-3.35,0-6.068-2.718-6.068-6.073V276.204c0-3.348,2.715-6.058,6.063-6.063l42.458-0.003c0,0,4.55,0.013,6.063,6.066
	l6.068,24.258c0.633,2.538,2.156,2.847,3.333,2.619c1.207-0.233,2.73-2.619,2.73-2.619c12.129-18.192,36.387-36.384,78.845-36.384
	c48.521,0,66.716,24.26,78.842,42.453c0,0,1.473,2.174,2.956,2.174c1.425,0,3.113-2.174,3.113-2.174
	C1076.145,282.27,1106.471,264.077,1148.923,264.077 M438.494,635.518H408.2c-0.781,0-1.414,0.632-1.415,1.413l-0.17,98.054
	c-0.001,0.783,0.633,1.418,1.415,1.418h30.463c36.031,0,47.56-20.176,47.56-50.442C486.054,655.695,474.525,635.518,438.494,635.518
	z M437.051,723.431h-14.436c-0.782,0-1.415-0.634-1.415-1.415v-72.113c0-0.782,0.634-1.415,1.415-1.415h14.436
	c27.384,0,34.591,12.972,34.591,37.473C471.642,710.462,464.435,723.431,437.051,723.431z M648.875,693.165
	c-0.758-1.191,0-1.44,0-1.44c12.905-2.867,21.529-11.44,21.618-27.138c0.092-16.19-13.7-29.069-29.891-29.069H592.72
	c-0.823,0-1.491,0.668-1.491,1.491v97.916c0,0.816,0.662,1.478,1.477,1.478h11.457c0.816,0,1.478-0.662,1.478-1.478v-40.302
	c0-0.806,0.653-1.459,1.459-1.459h23.805c0.741,0,1.432,0.377,1.833,1l26.529,41.266c0.389,0.605,1.06,0.971,1.779,0.971h6.582
	c0.787,0,1.425-0.638,1.425-1.425v-8.705c0-0.914-0.261-1.809-0.751-2.58L648.875,693.165z M607.096,680.196
	c-0.804,0-1.455-0.652-1.455-1.456v-28.798c0-0.804,0.652-1.455,1.455-1.455h30.25c12.972,0,18.737,4.325,18.737,15.854
	s-5.765,15.854-18.737,15.854H607.096z M804.754,636.467l-34.66,88.145c-0.034,0.18-0.067,0.354-0.101,0.534v9.813
	c0,0.797,0.646,1.443,1.443,1.443h8.643c0.932,0,1.443-1.443,1.443-1.443l8.812-22.135c0.222-0.557,0.761-0.923,1.361-0.923h41.565
	c0.585,0,1.111,0.356,1.329,0.898l8.904,22.16l0,0c0,0.001,0.51,1.434,1.437,1.44l0.002,0.002h8.647l0.004-0.004v0.004
	c0.816,0,1.439-0.627,1.439-1.443v-9.822c-0.033-0.174-0.065-0.343-0.098-0.517l-34.699-88.154c-0.226-0.574-0.78-0.952-1.397-0.952
	h-12.677C805.535,635.515,804.98,635.893,804.754,636.467z M795.732,697.967l16.25-41.327c0.188-0.477,0.863-0.477,1.051,0
	l16.239,41.336c0.18,0.458-0.158,0.953-0.65,0.953h-32.234C795.891,698.929,795.55,698.429,795.732,697.967z M1050.802,736.403
	c-0.825,0-1.495-0.669-1.495-1.495v-70.154c0-0.53-0.728-0.675-0.932-0.186l-29.384,70.523c-0.331,0.795-1.107,1.312-1.968,1.312
	h-11.811c-0.861,0-1.637-0.518-1.968-1.312l-29.387-70.528c-0.204-0.489-0.932-0.343-0.932,0.186v70.159
	c0,0.825-0.669,1.495-1.495,1.495h-11.423c-0.825,0-1.495-0.669-1.495-1.495v-97.899c0-0.823,0.668-1.491,1.491-1.491h15.778
	c0.887,0,1.685,0.539,2.017,1.361l32.42,80.358c0.326,0.809,1.471,0.809,1.798,0l32.42-80.358c0.332-0.823,1.13-1.361,2.017-1.361
	h15.778c0.823,0,1.491,0.668,1.491,1.491v97.899c0,0.825-0.669,1.495-1.495,1.495H1050.802z M1201.76,636.467l-34.66,88.145
	c-0.034,0.18-0.067,0.354-0.101,0.534v9.813c0,0.797,0.646,1.443,1.443,1.443h8.643c0.932,0,1.443-1.443,1.443-1.443l8.812-22.135
	c0.222-0.557,0.761-0.923,1.361-0.923h41.565c0.585,0,1.111,0.356,1.329,0.898l8.904,22.16l0,0c0,0.001,0.51,1.434,1.437,1.44
	l0.002,0.002h8.647l0.004-0.004v0.004c0.816,0,1.439-0.627,1.439-1.443v-9.822c-0.033-0.174-0.065-0.343-0.098-0.517l-34.699-88.154
	c-0.226-0.574-0.78-0.952-1.397-0.952h-12.677C1202.54,635.515,1201.986,635.893,1201.76,636.467z M1192.738,697.967l16.25-41.327
	c0.188-0.477,0.863-0.477,1.051,0l16.239,41.336c0.18,0.458-0.158,0.953-0.65,0.953h-32.234
	C1192.897,698.929,1192.556,698.429,1192.738,697.967z"/>
</svg>
