<?xml version="1.0" encoding="utf-8"?>
<!-- Generator: Adobe Illustrator 22.1.0, SVG Export Plug-In . SVG Version: 6.00 Build 0)  -->
<svg version="1.1" id="Layer_1" xmlns="http://www.w3.org/2000/svg" xmlns:xlink="http://www.w3.org/1999/xlink" x="0px" y="0px"
	 viewBox="0 0 1600 900" enable-background="new 0 0 1600 900" xml:space="preserve">
<g>
	<path fill="#FFFFFF" d="M544.364,209.284c0,3.353-2.715,6.068-6.066,6.068h-48.518c-12.129,0-24.26,6.061-24.26,24.26v39.879
		c0,3.353,2.715,6.073,6.066,6.073l164.499-0.013c3.35,0,6.068,2.715,6.068,6.066l-0.003,275.497h0.003
		c0,3.353-2.72,6.068-6.073,6.068h-48.513c-3.351,0-6.066-2.718-6.068-6.068c0-0.003,0-0.003,0-0.005l0.005-220.908
		c0-3.35-2.715-6.066-6.066-6.066l-103.857,0.003c-3.348,0.008-6.058,2.715-6.061,6.061l-0.003,220.918
		c0,3.35-2.718,6.066-6.068,6.066l-48.511-0.003c-3.35,0-6.066-2.715-6.066-6.066V346.21v-0.008l-0.003-0.003
		c-0.005-3.348-2.718-6.063-6.066-6.063l-42.455-0.003c-3.348-0.003-6.061-2.713-6.063-6.061v-42.455
		c0-3.35,2.715-6.066,6.066-6.066h42.453c3.35,0,6.068-2.713,6.068-6.061v-39.879c0-54.587,42.453-78.847,84.908-78.847h48.516
		c3.35,0,6.066,2.715,6.066,6.063L544.364,209.284z"/>
	<path fill="#FA4B14" d="M758.429,161.482c3.348,0,6.061,2.713,6.066,6.063l0.003,400.289c0,3.348-2.715,6.063-6.068,6.066h-48.516
		c-3.447,0-6.24-2.718-6.24-6.071V222.135c0-3.353-2.715-6.071-6.066-6.071v0.008L642,216.069c-3.345-0.003-6.056-2.718-6.058-6.068
		l-0.003-42.448c0-3.348,2.713-6.061,6.061-6.068L758.429,161.482"/>
	<path fill="#FFFFFF" d="M1147.18,263.868c84.913,0,103.105,54.582,103.105,121.3V567.11c0,3.35-2.715,6.068-6.066,6.068h-48.521
		c-3.348-0.003-6.063-2.718-6.063-6.068V385.168c0-36.395-6.061-66.718-54.582-66.718c-42.458,0-66.718,30.324-66.718,78.842
		l0.008,169.818c0,3.35-2.718,6.068-6.068,6.068h-48.518c-3.35,0-6.068-2.718-6.068-6.068V385.168
		c0-36.395-6.066-66.718-54.587-66.718c-30.321,0-66.711,18.197-66.711,78.842l0.005,169.818c0,3.35-2.72,6.068-6.073,6.068
		l-48.516,0.005c-3.35,0-6.068-2.718-6.068-6.073V275.995c0-3.348,2.715-6.058,6.063-6.063l42.458-0.003c0,0,4.55,0.013,6.063,6.066
		l6.068,24.258c0.633,2.538,2.156,2.847,3.333,2.619c1.207-0.233,2.73-2.619,2.73-2.619c12.129-18.192,36.387-36.384,78.845-36.384
		c48.521,0,66.716,24.26,78.842,42.453c0,0,1.473,2.174,2.956,2.174c1.425,0,3.113-2.174,3.113-2.174
		C1074.401,282.06,1104.727,263.868,1147.18,263.868"/>
	<path fill="#FFFFFF" d="M909.519,736.193c0.816,0,1.477-0.661,1.477-1.477v-97.794c0-0.822-0.667-1.489-1.489-1.489h-11.415
		c-0.822,0-1.489,0.667-1.489,1.489v97.794c0,0.816,0.661,1.477,1.477,1.477H909.519z"/>
	<path fill="#FFFFFF" d="M850.627,736.193c0.824,0,1.493-0.668,1.493-1.493v-97.779c0-0.822-0.667-1.489-1.489-1.489h-15.759
		c-0.886,0-1.683,0.538-2.014,1.359l-32.38,80.259c-0.326,0.808-1.469,0.808-1.795,0l-32.38-80.259
		c-0.331-0.821-1.128-1.359-2.014-1.359h-15.759c-0.822,0-1.489,0.667-1.489,1.489v97.779c0,0.824,0.668,1.493,1.493,1.493h11.409
		c0.824,0,1.493-0.668,1.493-1.493v-70.073c0-0.529,0.727-0.675,0.931-0.186l29.351,70.442c0.331,0.794,1.106,1.31,1.966,1.31
		h11.797c0.86,0,1.635-0.517,1.966-1.311l29.348-70.436c0.203-0.488,0.931-0.343,0.931,0.186v70.068
		c0,0.824,0.668,1.493,1.493,1.493H850.627z"/>
	<path fill="#FFFFFF" d="M703.943,736.193c0.824,0,1.493-0.668,1.493-1.493v-9.979c0-0.82-0.665-1.484-1.484-1.484h-50.347
		c-0.789,0-1.428-0.639-1.428-1.428v-28.81c0-0.789,0.639-1.428,1.428-1.428h47.468c0.82,0,1.484-0.665,1.484-1.484v-9.987
		c0-0.82-0.665-1.484-1.484-1.484h-47.468c-0.789,0-1.428-0.639-1.428-1.428v-27.373c0-0.789,0.639-1.428,1.428-1.428h50.347
		c0.82,0,1.484-0.665,1.484-1.484v-9.979c0-0.822-0.667-1.489-1.489-1.489h-64.674c-0.822,0-1.489,0.667-1.489,1.489v97.779
		c0,0.824,0.668,1.493,1.493,1.493H703.943z"/>
	<path fill="#FFFFFF" d="M454.303,635.433h-47.942c-0.823,0-1.489,0.667-1.489,1.489v97.779c0,0.824,0.668,1.493,1.493,1.493h11.408
		c0.824,0,1.493-0.668,1.493-1.493v-40.225c0-0.81,0.657-1.467,1.467-1.467h30.2c18.664,0,33.03-8.59,33.107-28.626
		C484.101,648.264,470.421,635.433,454.303,635.433z M450.932,680.056h-30.2c-0.81,0-1.467-0.657-1.467-1.467v-28.747
		c0-0.804,0.652-1.456,1.456-1.456h30.211c12.956,0,18.714,4.32,18.714,15.835C469.646,675.736,463.888,680.056,450.932,680.056z"/>
	<path fill="#FFFFFF" d="M1021.639,736.193c0.824,0,1.493-0.668,1.493-1.493v-9.979c0-0.82-0.665-1.484-1.484-1.484h-50.347
		c-0.789,0-1.428-0.639-1.428-1.428v-28.81c0-0.789,0.639-1.428,1.428-1.428h47.468c0.82,0,1.484-0.665,1.484-1.484v-9.987
		c0-0.82-0.665-1.484-1.484-1.484h-47.468c-0.789,0-1.428-0.639-1.428-1.428v-27.373c0-0.789,0.639-1.428,1.428-1.428h50.347
		c0.82,0,1.484-0.665,1.484-1.484v-9.979c0-0.822-0.667-1.489-1.489-1.489h-64.674c-0.823,0-1.489,0.667-1.489,1.489v97.779
		c0,0.824,0.668,1.493,1.493,1.493H1021.639z"/>
	<path fill="#FFFFFF" d="M577.462,693.008c-0.757-1.189,0-1.438,0-1.438c12.889-2.864,21.503-11.426,21.592-27.104
		c0.092-16.17-13.683-29.033-29.854-29.033h-47.824c-0.822,0-1.489,0.667-1.489,1.489v97.796c0,0.815,0.661,1.476,1.476,1.476
		h11.443c0.815,0,1.476-0.661,1.476-1.476v-40.252c0-0.805,0.652-1.457,1.457-1.457h23.776c0.74,0,1.43,0.376,1.83,0.999
		l26.496,41.215c0.389,0.605,1.058,0.97,1.777,0.97h6.573c0.786,0,1.423-0.637,1.423-1.423v-8.695c0-0.913-0.26-1.807-0.75-2.577
		L577.462,693.008z M535.734,680.056c-0.803,0-1.454-0.651-1.454-1.454v-28.763c0-0.803,0.651-1.454,1.454-1.454h30.213
		c12.956,0,18.714,4.32,18.714,15.835c0,11.515-5.757,15.835-18.714,15.835H535.734z"/>
	<path fill="#FFFFFF" d="M1122.315,693.008c-0.757-1.189,0-1.438,0-1.438c12.889-2.864,21.503-11.426,21.592-27.104
		c0.092-16.17-13.684-29.033-29.854-29.033h-47.824c-0.823,0-1.489,0.667-1.489,1.489v97.796c0,0.815,0.661,1.476,1.476,1.476
		h11.443c0.815,0,1.476-0.661,1.476-1.476v-40.252c0-0.805,0.652-1.457,1.457-1.457h23.776c0.74,0,1.43,0.376,1.83,0.999
		l26.496,41.215c0.389,0.605,1.058,0.97,1.777,0.97h6.573c0.786,0,1.423-0.637,1.423-1.423v-8.695c0-0.913-0.26-1.807-0.75-2.577
		L1122.315,693.008z M1080.587,680.056c-0.803,0-1.454-0.651-1.454-1.454v-28.763c0-0.803,0.651-1.454,1.454-1.454h30.213
		c12.956,0,18.714,4.32,18.714,15.835c0,11.515-5.757,15.835-18.714,15.835H1080.587z"/>
	<path fill="#FFFFFF" d="M1248.792,736.193c0.824,0,1.493-0.668,1.493-1.493v-9.979c0-0.82-0.665-1.484-1.484-1.484h-50.347
		c-0.789,0-1.428-0.639-1.428-1.428v-28.81c0-0.789,0.639-1.428,1.428-1.428h47.468c0.82,0,1.484-0.665,1.484-1.484v-9.987
		c0-0.82-0.665-1.484-1.484-1.484h-47.468c-0.789,0-1.428-0.639-1.428-1.428v-27.373c0-0.789,0.639-1.428,1.428-1.428h50.347
		c0.82,0,1.484-0.665,1.484-1.484v-9.979c0-0.822-0.667-1.489-1.489-1.489h-64.674c-0.823,0-1.489,0.667-1.489,1.489v97.779
		c0,0.824,0.668,1.493,1.493,1.493H1248.792z"/>
</g>
</svg>
