<?xml version="1.0" encoding="utf-8"?>
<!-- Generator: Adobe Illustrator 22.1.0, SVG Export Plug-In . SVG Version: 6.00 Build 0)  -->
<svg version="1.1" id="Layer_1" xmlns="http://www.w3.org/2000/svg" xmlns:xlink="http://www.w3.org/1999/xlink" x="0px" y="0px"
	 viewBox="0 0 1600 900" enable-background="new 0 0 1600 900" xml:space="preserve">
<path fill="#FFFFFF" d="M545.109,210.007c0,3.353-2.715,6.068-6.066,6.068h-48.518c-12.129,0-24.26,6.061-24.26,24.26v39.879
	c0,3.353,2.715,6.073,6.066,6.073l164.499-0.013c3.35,0,6.068,2.715,6.068,6.066l-0.003,275.497h0.003
	c0,3.353-2.72,6.068-6.073,6.068h-48.513c-3.35,0-6.066-2.718-6.068-6.068c0-0.003,0-0.003,0-0.005l0.005-220.908
	c0-3.35-2.715-6.066-6.066-6.066l-103.857,0.003c-3.348,0.008-6.058,2.715-6.061,6.061l-0.003,220.918
	c0,3.35-2.718,6.066-6.068,6.066l-48.511-0.003c-3.35,0-6.066-2.715-6.066-6.066V346.933v-0.008l-0.003-0.003
	c-0.005-3.348-2.718-6.063-6.066-6.063l-42.455-0.003c-3.348-0.003-6.061-2.713-6.063-6.061v-42.455c0-3.35,2.715-6.066,6.066-6.066
	h42.453c3.35,0,6.068-2.713,6.068-6.061v-39.879c0-54.587,42.453-78.847,84.908-78.847h48.516c3.35,0,6.066,2.715,6.066,6.063
	L545.109,210.007z"/>
<path fill="#FFAF00" d="M759.174,162.205c3.348,0,6.061,2.713,6.066,6.063l0.003,400.289c0,3.348-2.715,6.063-6.068,6.066h-48.516
	c-3.447,0-6.24-2.718-6.24-6.071V222.858c0-3.353-2.715-6.071-6.066-6.071v0.008l-55.607-0.003
	c-3.345-0.003-6.056-2.718-6.058-6.068l-0.003-42.448c0-3.348,2.713-6.061,6.061-6.068L759.174,162.205"/>
<path fill="#FFFFFF" d="M1147.925,264.591c84.913,0,103.105,54.582,103.105,121.3v181.942c0,3.35-2.715,6.068-6.066,6.068h-48.521
	c-3.348-0.003-6.063-2.718-6.063-6.068V385.891c0-36.394-6.061-66.718-54.582-66.718c-42.458,0-66.718,30.324-66.718,78.842
	l0.008,169.818c0,3.35-2.718,6.068-6.068,6.068h-48.518c-3.35,0-6.068-2.718-6.068-6.068V385.891
	c0-36.394-6.066-66.718-54.587-66.718c-30.321,0-66.711,18.197-66.711,78.842l0.005,169.818c0,3.35-2.72,6.068-6.073,6.068
	l-48.516,0.005c-3.35,0-6.068-2.718-6.068-6.073V276.717c0-3.348,2.715-6.058,6.063-6.063l42.458-0.003c0,0,4.55,0.013,6.063,6.066
	l6.068,24.258c0.633,2.538,2.156,2.847,3.333,2.619c1.207-0.233,2.73-2.619,2.73-2.619c12.129-18.192,36.387-36.384,78.845-36.384
	c48.521,0,66.716,24.26,78.842,42.453c0,0,1.473,2.174,2.956,2.174c1.425,0,3.113-2.174,3.113-2.174
	C1075.146,282.783,1105.473,264.591,1147.925,264.591"/>
<path fill="#FFFFFF" d="M1251.03,735.426v-97.814c0-0.81-0.657-1.467-1.467-1.467h-11.458c-0.81,0-1.467,0.657-1.467,1.467
	l0.002,74.695c0,0.69-0.897,0.957-1.275,0.38l-49.218-75.21c-0.544-0.831-1.47-1.331-2.462-1.331h-13.271
	c-0.81,0-1.467,0.657-1.467,1.468l0.045,97.82c0,0.81,0.657,1.466,1.467,1.466h11.458c0.81,0,1.467-0.657,1.467-1.468l-0.04-74.75
	c0-0.689,0.896-0.957,1.274-0.38l49.175,75.207c0.54,0.826,1.46,1.326,2.447,1.33l13.318,0.054
	C1250.37,736.897,1251.03,736.239,1251.03,735.426z"/>
<path fill="#FFFFFF" d="M806.443,647.643v-10.039c0-0.805-0.653-1.458-1.458-1.458H727.3c-0.805,0-1.458,0.653-1.458,1.458v10.039
	c0,0.805,0.653,1.458,1.458,1.458h30.147c0.805,0,1.457,0.652,1.458,1.457l0.04,84.884c0,0.805,0.653,1.457,1.458,1.457h11.477
	c0.805,0,1.458-0.653,1.458-1.459l-0.04-84.882c0-0.805,0.652-1.459,1.458-1.459h30.23
	C805.79,649.101,806.443,648.448,806.443,647.643z"/>
<path fill="#FFFFFF" d="M1035.845,634.708c-30.226,0-47.496,21.59-47.496,51.813c0,30.226,17.271,51.816,47.496,51.816
	c30.226,0,47.497-21.59,47.497-51.816C1083.342,656.298,1066.071,634.708,1035.845,634.708z M1035.845,725.382
	c-21.59,0-33.104-15.83-33.104-38.861c0-23.028,11.514-38.858,33.104-38.858c21.59,0,33.104,15.83,33.104,38.858
	C1068.949,709.552,1057.436,725.382,1035.845,725.382z"/>
<path fill="#FFFFFF" d="M901.267,736.898c0.816,0,1.477-0.661,1.477-1.477v-97.784c0-0.822-0.667-1.489-1.489-1.489h-11.414
	c-0.822,0-1.489,0.667-1.489,1.489v97.784c0,0.816,0.661,1.477,1.477,1.477H901.267z"/>
<path fill="#FFFFFF" d="M440.332,637.097l-34.614,88.028c-0.034,0.179-0.067,0.354-0.101,0.533v9.8c0,0.796,0.645,1.441,1.441,1.441
	h8.632c0.93,0,1.441-1.441,1.441-1.441l8.801-22.106c0.222-0.557,0.76-0.922,1.359-0.922h41.51c0.584,0,1.11,0.355,1.328,0.897
	l8.892,22.13l0,0c0,0,0.509,1.432,1.435,1.438l0.002,0.002h8.635l0.004-0.004v0.004c0.815,0,1.437-0.626,1.437-1.441v-9.809
	c-0.033-0.174-0.065-0.343-0.098-0.516l-34.652-88.037c-0.226-0.573-0.779-0.95-1.395-0.95h-12.66
	C441.112,636.146,440.558,636.523,440.332,637.097z M431.322,698.515l16.228-41.272c0.187-0.477,0.862-0.477,1.05,0l16.217,41.281
	c0.18,0.457-0.158,0.952-0.649,0.952h-32.192C431.481,699.476,431.141,698.976,431.322,698.515z"/>
<path fill="#FFFFFF" d="M651.049,705.235l-0.003-0.003h-11.514l-0.003,0.003h-0.016c-1.099,0-1.441,1.438-1.441,1.438h0.019
	c-2.879,10.073-10.073,18.708-25.906,18.708c-21.59,0-33.104-15.83-33.104-38.861c0-23.028,11.514-38.858,33.104-38.858
	c14.392,0,23.028,7.194,25.906,17.271c0,0,0.342,1.438,1.441,1.438h11.51l0.004,0.003c0.815,0,1.589-0.334,1.437-1.441
	c-2.879-17.271-17.271-30.226-40.299-30.226c-30.226,0-47.496,21.59-47.496,51.813c0,30.226,17.271,51.816,47.496,51.816
	c24.469,0,37.42-14.393,40.299-31.663l-0.021-0.021C652.599,705.575,651.85,705.241,651.049,705.235z"/>
</svg>
