<?xml version="1.0" encoding="utf-8"?>
<!-- Generator: Adobe Illustrator 22.1.0, SVG Export Plug-In . SVG Version: 6.00 Build 0)  -->
<svg version="1.1" id="Layer_1" xmlns="http://www.w3.org/2000/svg" xmlns:xlink="http://www.w3.org/1999/xlink" x="0px" y="0px"
	 viewBox="0 0 1600 900" enable-background="new 0 0 1600 900" xml:space="preserve">
<g>
	<path fill="#AA3C96" d="M757.173,163.692c3.348,0,6.061,2.713,6.066,6.063l0.003,400.289c0,3.348-2.715,6.063-6.068,6.066h-48.516
		c-3.447,0-6.24-2.718-6.24-6.071V224.344c0-3.353-2.715-6.071-6.066-6.071v0.008l-55.607-0.003
		c-3.345-0.003-6.056-2.718-6.058-6.068l-0.003-42.448c0-3.348,2.713-6.061,6.061-6.068L757.173,163.692"/>
	<path fill="#FFFFFF" d="M1248.818,649.489l-29.58,47.892c-0.287,0.465-0.44,1.002-0.44,1.549v38.051
		c0,0.783-0.635,1.418-1.418,1.418h-11.558c-0.783,0-1.418-0.635-1.418-1.418V698.93c0-0.547-0.152-1.083-0.44-1.549l-29.58-47.892
		c-0.138-0.224-0.212-0.482-0.212-0.745v-9.695c0-0.783,0.635-1.418,1.418-1.418h6.994c0.498,0,0.96,0.261,1.216,0.689
		l27.253,45.425c0.248,0.413,0.846,0.413,1.094,0l27.253-45.425c0.256-0.427,0.718-0.689,1.216-0.689h6.994
		c0.783,0,1.418,0.635,1.418,1.418v9.695C1249.029,649.007,1248.956,649.265,1248.818,649.489z M1103.331,736.924l-0.033-10.016
		c-0.003-0.81-0.66-1.466-1.471-1.466h-47.447c-0.813,0-1.471-0.659-1.471-1.472l0.042-84.869c0-0.813-0.658-1.472-1.471-1.472
		h-11.453c-0.812,0-1.471,0.659-1.471,1.471v97.828c0,0.812,0.658,1.471,1.471,1.471h61.833
		C1102.675,738.399,1103.334,737.738,1103.331,736.924z M464.041,682.257h-44.597c-0.791,0-1.432-0.641-1.432-1.432v-28.809
		c0-0.79,0.639-1.43,1.429-1.432l47.527-0.104c0.79-0.002,1.429-0.642,1.429-1.432v-9.986c0-0.791-0.641-1.432-1.432-1.432h-61.916
		c-0.791,0-1.432,0.641-1.432,1.432v97.906c0,0.791,0.641,1.432,1.432,1.432h11.53c0.791,0,1.433-0.642,1.432-1.433l-0.042-40.322
		c-0.001-0.791,0.641-1.433,1.432-1.433h44.641c0.791,0,1.432-0.641,1.432-1.432v-10.09
		C465.472,682.898,464.831,682.257,464.041,682.257z M543.106,169.038c0-3.348-2.715-6.063-6.066-6.063h-48.516
		c-42.455,0-84.908,24.26-84.908,78.847v39.879c0,3.348-2.718,6.061-6.068,6.061h-42.453c-3.35,0-6.066,2.715-6.066,6.066v42.455
		c0.003,3.348,2.715,6.058,6.063,6.061l42.455,0.003c3.348,0,6.061,2.715,6.066,6.063l0.003,0.003v0.008v220.905
		c0,3.35,2.715,6.066,6.066,6.066l48.511,0.003c3.35,0,6.068-2.715,6.068-6.066l0.003-220.918c0.003-3.345,2.713-6.053,6.061-6.061
		l103.857-0.003c3.35,0,6.066,2.715,6.066,6.066l-0.005,220.908c0,0.003,0,0.003,0,0.005c0.003,3.35,2.718,6.068,6.068,6.068h48.513
		c3.353,0,6.073-2.715,6.073-6.068h-0.003l0.003-275.497c0-3.35-2.718-6.066-6.068-6.066l-164.499,0.013
		c-3.35,0-6.066-2.72-6.066-6.073v-39.879c0-18.2,12.132-24.26,24.26-24.26h48.518c3.35,0,6.066-2.715,6.066-6.068L543.106,169.038z
		 M1145.924,266.077c-42.453,0-72.779,18.192-90.971,42.453c0,0-1.688,2.174-3.113,2.174c-1.483,0-2.956-2.174-2.956-2.174
		c-12.126-18.192-30.321-42.453-78.842-42.453c-42.458,0-66.716,18.192-78.845,36.384c0,0-1.523,2.386-2.73,2.619
		c-1.177,0.228-2.7-0.081-3.333-2.619l-6.068-24.258c-1.513-6.053-6.063-6.066-6.063-6.066l-42.458,0.003
		c-3.348,0.005-6.063,2.715-6.063,6.063v291.115c0,3.356,2.718,6.073,6.068,6.073l48.516-0.005c3.353,0,6.073-2.718,6.073-6.068
		l-0.005-169.818c0-60.645,36.389-78.842,66.711-78.842c48.521,0,54.587,30.324,54.587,66.718v181.942
		c0,3.35,2.718,6.068,6.068,6.068h48.518c3.35,0,6.068-2.718,6.068-6.068l-0.008-169.818c0-48.518,24.26-78.842,66.718-78.842
		c48.521,0,54.582,30.324,54.582,66.718v181.942c0,3.35,2.715,6.066,6.063,6.068h48.521c3.351,0,6.066-2.718,6.066-6.068V387.377
		C1249.029,320.659,1230.837,266.077,1145.924,266.077 M583.363,637.63h12.663c0.616,0,1.17,0.377,1.396,0.95l34.659,88.054
		c0.033,0.174,0.065,0.343,0.098,0.516v9.811c0,0.815-0.623,1.441-1.438,1.441v-0.004l-0.004,0.004H622.1l-0.002-0.002
		c-0.926-0.007-1.435-1.438-1.435-1.438l-0.001-0.002l-8.894-22.135c-0.218-0.542-0.743-0.898-1.328-0.898h-41.518
		c-0.599,0-1.138,0.365-1.359,0.922l-8.802,22.11c0,0-0.511,1.441-1.441,1.441h-8.634c-0.796,0-1.441-0.645-1.441-1.441v-9.802
		c0.034-0.179,0.067-0.354,0.101-0.533l34.621-88.045C582.193,638.007,582.747,637.63,583.363,637.63z M573.611,700.972h32.198
		c0.491,0,0.829-0.495,0.649-0.952l-16.22-41.289c-0.187-0.477-0.862-0.477-1.05,0l-16.232,41.28
		C572.774,700.473,573.115,700.972,573.611,700.972z M939.407,738.401c0.816,0,1.477-0.661,1.477-1.477v-97.803
		c0-0.823-0.667-1.489-1.489-1.489h-11.417c-0.823,0-1.489,0.667-1.489,1.489v97.803c0,0.816,0.661,1.477,1.477,1.477H939.407z
		 M826.449,738.401c0.824,0,1.493-0.668,1.493-1.493v-97.787c0-0.823-0.667-1.489-1.489-1.489h-15.76
		c-0.886,0-1.683,0.538-2.014,1.36l-32.383,80.267c-0.326,0.808-1.47,0.808-1.796,0l-32.383-80.267
		c-0.331-0.822-1.129-1.359-2.014-1.359h-15.76c-0.823,0-1.489,0.667-1.489,1.489v97.787c0,0.824,0.668,1.493,1.493,1.493h11.41
		c0.824,0,1.493-0.668,1.493-1.493v-70.08c0-0.529,0.727-0.675,0.931-0.186l29.354,70.448c0.331,0.794,1.106,1.311,1.966,1.311
		h11.798c0.86,0,1.635-0.517,1.966-1.311l29.351-70.443c0.203-0.488,0.931-0.343,0.931,0.186v70.074
		c0,0.824,0.668,1.493,1.493,1.493H826.449z"/>
</g>
</svg>
