<?xml version="1.0" encoding="utf-8"?>
<!-- Generator: Adobe Illustrator 22.1.0, SVG Export Plug-In . SVG Version: 6.00 Build 0)  -->
<svg version="1.2" baseProfile="tiny" id="Layer_1" xmlns="http://www.w3.org/2000/svg" xmlns:xlink="http://www.w3.org/1999/xlink"
	 x="0px" y="0px" viewBox="0 0 1600 900" xml:space="preserve">
<g>
	<path fill="#D6D9DC" d="M827.584,551.527c0,15.4,56.725-1.385,56.725,30.885c0,13.039-14.1,23.719-36.923,23.719
		c-23.793,0-39.039-10.348-39.039-29.751h17.686c0,8.803,8.153,14.265,22.983,14.265c11.985,0,17.361-3.506,17.361-7.743
		c0-14.836-56.56,1.631-56.56-30.971c0-15.075,14.505-24.528,35.698-24.528c24.368,0,37.163,13.444,37.163,28.685h-18.091
		c0-8.883-7.093-13.199-19.072-13.199C833.451,542.889,827.584,545.979,827.584,551.527 M754.732,605.216v-59.808h-28.836v-16.02
		h75.828v16.02h-28.836v59.808H754.732z M403.308,551.527c0,15.4,56.725-1.385,56.725,30.885c0,13.039-14.094,23.719-36.918,23.719
		c-23.798,0-39.039-10.348-39.039-29.751h17.686c0,8.803,8.148,14.265,22.983,14.265c11.979,0,17.361-3.506,17.361-7.743
		c0-14.836-56.565,1.631-56.565-30.971c0-15.075,14.511-24.528,35.698-24.528c24.369,0,37.163,13.444,37.163,28.685h-18.091
		c0-8.883-7.087-13.199-19.072-13.199C409.181,542.889,403.308,545.979,403.308,551.527 M516.773,529.388
		c19.249,0,30.947,11.857,30.947,28.339c0,16.078-11.698,28.265-30.947,28.265h-29.039v19.224h-17.088v-75.828H516.773z
		 M487.734,545.408v24.564h29.441c8.846,0,13.728-5.126,13.728-12.241c0-7.278-5.212-12.322-13.728-12.322H487.734z
		 M634.147,567.177c0,21.846-15.389,39.525-39.531,39.525c-24.136,0-39.525-17.679-39.525-39.525
		c0-21.852,15.389-39.525,39.525-39.525C618.759,527.652,634.147,545.325,634.147,567.177 M616.308,567.177
		c0-12.52-7.614-22.585-21.692-22.585c-14.072,0-21.686,10.064-21.686,22.585c0,12.521,7.614,22.585,21.686,22.585
		C608.694,589.762,616.308,579.698,616.308,567.177 M689.56,529.388c19.285,0,31.005,11.879,31.005,28.391
		c0,11.72-6.187,21.316-16.843,25.71l18.471,21.726h-22.988l-16.202-19.224h-21.187v19.224h-17.088v-75.828H689.56z
		 M661.817,545.408v24.564h28.035c8.846,0,13.728-5.126,13.728-12.241c0-7.278-5.212-12.322-13.728-12.322H661.817z
		 M515.669,404.657c0,57.719,45.84,104.498,102.391,104.498c56.574,0,102.425-46.779,102.425-104.498
		c0-57.685-45.851-104.48-102.425-104.48C561.509,300.177,515.669,346.973,515.669,404.657 M636.185,447.24
		c0,9.742-8.463,17.363-18,17.363c-9.509,0-17.244-7.883-17.244-17.602l0.023-84.992c0-9.708,7.713-18.426,17.221-18.426
		c9.537,0,18,8.719,18,18.426V447.24z M884.223,511.233l-64.529-111.151l58.623-102.448h-64.616l-26.921,46.339l-26.451-46.339
		h-67.116l60.026,103.614L689.66,512.301h65.198l31.069-54.991l31.407,53.923H884.223z M445.014,512.301v-69.42h58.74v-58.74h-58.74
		v-28.836h72.37l-3.969-58.74H384.138v215.735H445.014z M990.257,456.765c-2.708,89.263-67.36,167.443-164.26,212.791l1.918,7.162
		c136.574-41.243,230.824-123.997,234.483-219.953H990.257z M989.691,438.609h72.299c-7.431-93.282-100.559-173.357-234.139-213.672
		l-1.924,7.162c94.639,44.26,158.535,119.863,164.008,206.511 M271.999,456.765h-72.198c3.653,95.853,97.702,178.533,234.019,219.81
		l1.929-7.242c-96.643-45.376-161.106-123.441-163.802-212.568 M200.161,438.609c7.431-93.174,100.324-173.168,233.658-213.524
		l1.929,7.231C341.396,276.627,277.7,352.105,272.216,438.609H200.161z"/>
	<path fill="#D6D9DC" d="M1035.443,298.702c19.617,19.612,36.42,41.322,48.437,65.127c24.388,48.312,27.486,98.809,9.212,150.084
		c-12.703,35.948-33.871,66.088-59.258,91.304h365.967V298.702H1035.443z M1331.449,535.796h-171.947v-37.38h65.148v-94.195
		l-65.148,25.69v-40.371l65.148-25.691h40.583v134.567h66.216V535.796z"/>
</g>
</svg>
