<?xml version="1.0" encoding="utf-8"?>
<!-- Generator: Adobe Illustrator 22.1.0, SVG Export Plug-In . SVG Version: 6.00 Build 0)  -->
<svg version="1.2" baseProfile="tiny" id="Layer_1" xmlns="http://www.w3.org/2000/svg" xmlns:xlink="http://www.w3.org/1999/xlink"
	 x="0px" y="0px" viewBox="0 0 1600 900" xml:space="preserve">
<g>
	<path fill="#D6D9DC" d="M826.508,551.735c0,15.463,56.958-1.391,56.958,31.012c0,13.093-14.158,23.816-37.075,23.816
		c-23.89,0-39.199-10.391-39.199-29.873h17.759c0,8.839,8.187,14.324,23.077,14.324c12.034,0,17.432-3.521,17.432-7.774
		c0-14.896-56.792,1.637-56.792-31.098c0-15.137,14.564-24.629,35.844-24.629c24.468,0,37.315,13.499,37.315,28.802h-18.165
		c0-8.919-7.122-13.253-19.15-13.253C832.399,543.061,826.508,546.164,826.508,551.735 M753.955,605.171v-59.906h-28.968v-16.362
		h76.274v16.362h-29.3v59.906H753.955z M402.231,551.735c0,15.463,56.958-1.391,56.958,31.012c0,13.093-14.152,23.816-37.069,23.816
		c-23.896,0-39.199-10.391-39.199-29.873h17.759c0,8.839,8.181,14.324,23.077,14.324c12.028,0,17.432-3.521,17.432-7.774
		c0-14.896-56.797,1.637-56.797-31.098c0-15.137,14.57-24.629,35.844-24.629c24.468,0,37.315,13.499,37.315,28.802h-18.165
		c0-8.919-7.116-13.253-19.15-13.253C408.128,543.061,402.231,546.164,402.231,551.735 M516.146,528.903
		c19.396,0,31.184,11.948,31.184,28.556c0,16.202-11.788,28.482-31.184,28.482h-29.295v19.23h-17.186v-76.268H516.146z
		 M486.852,545.265v24.308h29.134c8.753,0,13.585-5.072,13.585-12.114c0-7.202-5.158-12.194-13.585-12.194H486.852z
		 M633.147,567.037c0,21.846-15.389,39.525-39.531,39.525c-24.136,0-39.525-17.679-39.525-39.525
		c0-21.852,15.389-39.525,39.525-39.525C617.759,527.512,633.147,545.185,633.147,567.037 M615.308,567.037
		c0-12.521-7.614-22.585-21.692-22.585c-14.072,0-21.686,10.064-21.686,22.585c0,12.52,7.614,22.585,21.686,22.585
		C607.694,589.622,615.308,579.558,615.308,567.037 M688.244,528.903c19.396,0,31.184,11.948,31.184,28.556
		c0,11.788-6.223,21.44-16.94,25.86l18.578,21.852h-23.323l-16.207-19.23h-21.194v19.23h-17.186v-76.268H688.244z M660.341,545.265
		v24.308h27.743c8.753,0,13.585-5.072,13.585-12.114c0-7.202-5.158-12.194-13.585-12.194H660.341z M514.669,404.517
		c0,57.719,45.84,104.498,102.391,104.498c56.574,0,102.425-46.779,102.425-104.498c0-57.685-45.851-104.48-102.425-104.48
		C560.509,300.037,514.669,346.833,514.669,404.517 M635.477,447.414c0,9.813-8.524,17.49-18.131,17.49
		c-9.578,0-17.369-7.94-17.369-17.73L600,361.563c0-9.778,7.769-18.56,17.347-18.56c9.607,0,18.131,8.782,18.131,18.56V447.414z
		 M883.328,511.385L818.59,399.874l58.812-102.78H812.63l-26.89,46.286l-26.421-46.286H692.28l59.957,103.496l-63.507,110.927
		l65.127-0.029l31.069-54.318l31.407,54.215H883.328z M443.439,511.7v-69.472h59.454v-58.646h-59.03v-28.035h72.449l-3.973-58.755
		H382.921V511.7H443.439z M989.257,456.717c-2.708,89.263-67.36,167.443-164.26,212.791l1.918,7.162
		c136.574-41.243,230.824-123.997,234.483-219.953H989.257z M988.936,438.873h72.054c-7.431-93.282-100.559-173.357-234.139-213.672
		l-1.924,7.162C919.567,276.622,983.463,352.226,988.936,438.873 M270.947,456.717h-72.146
		c3.653,95.853,97.702,178.533,234.019,219.81l1.929-7.242C338.106,623.909,273.643,545.844,270.947,456.717 M199.161,438.867
		c7.431-93.174,100.324-173.168,233.658-213.524l1.929,7.231C340.396,276.885,276.7,352.363,271.216,438.867H199.161z"/>
	<path fill="#D6D9DC" d="M1033.975,297.943c19.643,19.639,36.467,41.375,48.499,65.211c24.42,48.374,27.521,98.936,9.224,150.277
		c-12.719,35.994-33.914,66.172-59.334,91.42h366.438V297.943H1033.975z M1330.855,535.809h-171.856v-33.883l82.983-38.053
		c30.931-14.236,41.982-23.812,41.982-39.034s-14.979-27.252-36.341-27.252c-30.443,0-45.174,18.414-43.451,38.791h-41.982
		c-5.402-39.772,26.757-75.618,85.682-75.618c52.54,0,80.038,30.2,80.038,61.135c0,29.948-17.436,46.89-63.831,67.511l-29.71,13.262
		h96.486V535.809z"/>
</g>
</svg>
