<?xml version="1.0" encoding="utf-8"?>
<!-- Generator: Adobe Illustrator 22.1.0, SVG Export Plug-In . SVG Version: 6.00 Build 0)  -->
<svg version="1.2" baseProfile="tiny" id="Layer_1" xmlns="http://www.w3.org/2000/svg" xmlns:xlink="http://www.w3.org/1999/xlink"
	 x="0px" y="0px" viewBox="0 0 1600 900" xml:space="preserve">
<g>
	<path fill="#D6D9DC" d="M826.707,551.42c0,15.463,56.958-1.391,56.958,31.012c0,13.093-14.158,23.816-37.075,23.816
		c-23.89,0-39.199-10.391-39.199-29.873h17.759c0,8.839,8.187,14.324,23.077,14.324c12.034,0,17.432-3.521,17.432-7.774
		c0-14.896-56.792,1.637-56.792-31.098c0-15.137,14.564-24.629,35.844-24.629c24.468,0,37.315,13.499,37.315,28.802h-18.165
		c0-8.919-7.122-13.253-19.15-13.253C832.598,542.747,826.707,545.85,826.707,551.42 M754.154,604.857v-59.906h-28.968v-16.362
		h76.274v16.362h-29.3v59.906H754.154z M402.431,551.42c0,15.463,56.958-1.391,56.958,31.012c0,13.093-14.152,23.816-37.069,23.816
		c-23.896,0-39.199-10.391-39.199-29.873h17.759c0,8.839,8.181,14.324,23.077,14.324c12.028,0,17.432-3.521,17.432-7.774
		c0-14.896-56.797,1.637-56.797-31.098c0-15.137,14.57-24.629,35.844-24.629c24.468,0,37.315,13.499,37.315,28.802h-18.165
		c0-8.919-7.116-13.253-19.15-13.253C408.327,542.747,402.431,545.85,402.431,551.42 M516.346,528.589
		c19.396,0,31.184,11.948,31.184,28.556c0,16.202-11.788,28.482-31.184,28.482h-29.295v19.23h-17.186v-76.268H516.346z
		 M487.051,544.951v24.308h29.134c8.753,0,13.585-5.072,13.585-12.114c0-7.202-5.158-12.194-13.585-12.194H487.051z
		 M633.346,566.723c0,21.846-15.389,39.525-39.531,39.525c-24.136,0-39.525-17.679-39.525-39.525
		c0-21.852,15.389-39.525,39.525-39.525C617.958,527.198,633.346,544.871,633.346,566.723 M615.508,566.723
		c0-12.52-7.614-22.585-21.692-22.585c-14.072,0-21.686,10.064-21.686,22.585c0,12.521,7.614,22.585,21.686,22.585
		C607.893,589.308,615.508,579.243,615.508,566.723 M688.443,528.589c19.396,0,31.184,11.948,31.184,28.556
		c0,11.788-6.223,21.44-16.94,25.86l18.578,21.852h-23.323l-16.207-19.23H660.54v19.23h-17.186v-76.268H688.443z M660.54,544.951
		v24.308h27.743c8.753,0,13.585-5.072,13.585-12.114c0-7.202-5.158-12.194-13.585-12.194H660.54z M514.869,404.203
		c0,57.719,45.84,104.498,102.391,104.498c56.574,0,102.425-46.779,102.425-104.498c0-57.685-45.851-104.48-102.425-104.48
		C560.708,299.723,514.869,346.518,514.869,404.203 M635.677,447.1c0,9.813-8.524,17.49-18.131,17.49
		c-9.578,0-17.369-7.94-17.369-17.73l0.023-85.611c0-9.778,7.769-18.56,17.347-18.56c9.607,0,18.131,8.782,18.131,18.56V447.1z
		 M883.527,511.071L818.789,399.56l58.812-102.78H812.83l-26.89,46.286l-26.421-46.286H692.48l59.957,103.496L688.93,511.202
		l65.127-0.029l31.069-54.318l31.407,54.215H883.527z M443.639,511.386v-69.472h59.454v-58.646h-59.03v-28.035h72.449l-3.973-58.755
		H383.12v214.909H443.639z M989.456,456.403c-2.708,89.264-67.36,167.443-164.26,212.791l1.918,7.162
		c136.574-41.243,230.824-123.997,234.483-219.953H989.456z M989.135,438.558h72.054c-7.431-93.282-100.559-173.357-234.139-213.672
		l-1.924,7.162C919.766,276.307,983.662,351.911,989.135,438.558 M271.146,456.403H199c3.653,95.853,97.702,178.533,234.019,219.81
		l1.929-7.242C338.305,623.595,273.842,545.529,271.146,456.403 M199.361,438.553c7.431-93.174,100.324-173.168,233.658-213.524
		l1.929,7.231c-94.353,44.311-158.049,119.789-163.533,206.293H199.361z"/>
	<g>
		<path fill="#D6D9DC" d="M1034.174,297.628c19.643,19.639,36.467,41.376,48.499,65.211c24.42,48.374,27.521,98.936,9.224,150.277
			c-12.719,35.994-33.914,66.172-59.334,91.42H1399V297.628H1034.174z M1247.584,538.686c-60.4,0-91.578-37.561-91.578-89.12
			c0-52.293,36.58-89.12,93.047-89.12c50.824,0,79.791,29.709,82.002,53.521h-44.688c-4.174-10.801-19.145-18.166-37.562-18.166
			c-31.913,0-55.485,21.358-57.936,49.591c11.292-13.011,32.646-23.078,64.566-23.078c44.927,0,78.562,20.377,78.562,55.979
			C1333.999,514.626,1296.19,538.686,1247.584,538.686z"/>
		<path fill="#D6D9DC" d="M1247.09,456.931c-26.518,0-44.193,8.595-44.193,23.078c0,14.484,17.436,23.078,43.459,23.078
			c26.022,0,45.414-8.594,45.414-23.325C1291.769,465.526,1273.359,456.931,1247.09,456.931z"/>
	</g>
</g>
</svg>
