<?xml version="1.0" encoding="utf-8"?>
<!-- Generator: Adobe Illustrator 22.1.0, SVG Export Plug-In . SVG Version: 6.00 Build 0)  -->
<svg version="1.2" baseProfile="tiny" id="Layer_1" xmlns="http://www.w3.org/2000/svg" xmlns:xlink="http://www.w3.org/1999/xlink"
	 x="0px" y="0px" viewBox="0 0 1600 900" xml:space="preserve">
<g>
	<path fill="#D6D9DC" d="M827.707,550.42c0,15.463,56.958-1.391,56.958,31.012c0,13.093-14.158,23.816-37.075,23.816
		c-23.89,0-39.199-10.391-39.199-29.873h17.759c0,8.839,8.187,14.324,23.077,14.324c12.034,0,17.432-3.521,17.432-7.774
		c0-14.896-56.792,1.637-56.792-31.098c0-15.137,14.564-24.629,35.844-24.629c24.468,0,37.315,13.499,37.315,28.802h-18.165
		c0-8.919-7.122-13.253-19.15-13.253C833.598,541.747,827.707,544.85,827.707,550.42 M755.154,603.857v-59.906h-28.968v-16.362
		h76.274v16.362h-29.3v59.906H755.154z M403.431,550.42c0,15.463,56.958-1.391,56.958,31.012c0,13.093-14.152,23.816-37.069,23.816
		c-23.896,0-39.199-10.391-39.199-29.873h17.759c0,8.839,8.181,14.324,23.077,14.324c12.028,0,17.432-3.521,17.432-7.774
		c0-14.896-56.797,1.637-56.797-31.098c0-15.137,14.57-24.629,35.844-24.629c24.468,0,37.315,13.499,37.315,28.802h-18.165
		c0-8.919-7.116-13.253-19.15-13.253C409.327,541.747,403.431,544.85,403.431,550.42 M517.346,527.589
		c19.396,0,31.184,11.948,31.184,28.556c0,16.202-11.788,28.482-31.184,28.482h-29.295v19.23h-17.186v-76.268H517.346z
		 M488.051,543.951v24.308h29.134c8.753,0,13.585-5.072,13.585-12.114c0-7.202-5.158-12.194-13.585-12.194H488.051z
		 M634.346,565.723c0,21.846-15.389,39.525-39.531,39.525c-24.136,0-39.525-17.679-39.525-39.525
		c0-21.852,15.389-39.525,39.525-39.525C618.958,526.198,634.346,543.871,634.346,565.723 M616.508,565.723
		c0-12.52-7.614-22.585-21.692-22.585c-14.072,0-21.686,10.064-21.686,22.585c0,12.521,7.614,22.585,21.686,22.585
		C608.893,588.308,616.508,578.243,616.508,565.723 M689.443,527.589c19.396,0,31.184,11.948,31.184,28.556
		c0,11.788-6.223,21.44-16.94,25.86l18.578,21.852h-23.323l-16.207-19.23H661.54v19.23h-17.186v-76.268H689.443z M661.54,543.951
		v24.308h27.743c8.753,0,13.585-5.072,13.585-12.114c0-7.202-5.158-12.194-13.585-12.194H661.54z M515.869,403.203
		c0,57.719,45.84,104.498,102.391,104.498c56.574,0,102.425-46.779,102.425-104.498c0-57.685-45.851-104.48-102.425-104.48
		C561.708,298.723,515.869,345.518,515.869,403.203 M636.677,446.1c0,9.813-8.524,17.49-18.131,17.49
		c-9.578,0-17.369-7.94-17.369-17.73l0.023-85.611c0-9.778,7.769-18.56,17.347-18.56c9.607,0,18.131,8.782,18.131,18.56V446.1z
		 M884.527,510.071L819.789,398.56l58.812-102.78H813.83l-26.89,46.286l-26.421-46.286H693.48l59.957,103.496L689.93,510.202
		l65.127-0.029l31.069-54.318l31.407,54.215H884.527z M444.639,510.386v-69.472h59.454v-58.646h-59.03v-28.035h72.449l-3.973-58.755
		H384.12v214.909H444.639z M990.456,455.403c-2.708,89.264-67.36,167.443-164.26,212.791l1.918,7.162
		c136.574-41.243,230.824-123.997,234.483-219.953H990.456z M990.135,437.558h72.054c-7.431-93.282-100.559-173.357-234.139-213.672
		l-1.924,7.162C920.766,275.307,984.662,350.911,990.135,437.558 M272.146,455.403H200c3.653,95.853,97.702,178.533,234.019,219.81
		l1.929-7.242C339.305,622.595,274.842,544.529,272.146,455.403 M200.361,437.553c7.431-93.174,100.324-173.168,233.658-213.524
		l1.929,7.231c-94.353,44.311-158.049,119.789-163.533,206.293H200.361z"/>
	<g>
		<polygon fill="#D6D9DC" points="1262.573,463.05 1262.573,401.428 1206.841,463.05 		"/>
		<path fill="#D6D9DC" d="M1035.173,296.628c19.643,19.639,36.467,41.376,48.5,65.211c24.419,48.374,27.521,98.936,9.224,150.277
			c-12.719,35.994-33.915,66.172-59.334,91.42H1400V296.628H1035.173z M1332.055,494.228h-30.691v40.267h-38.791v-40.267h-102.375
			v-28.721l92.065-102.869h49.101V463.05h30.691V494.228z"/>
	</g>
</g>
</svg>
