<?xml version="1.0" encoding="utf-8"?>
<!-- Generator: Adobe Illustrator 23.0.1, SVG Export Plug-In . SVG Version: 6.00 Build 0)  -->
<svg version="1.2" baseProfile="tiny" xmlns="http://www.w3.org/2000/svg" xmlns:xlink="http://www.w3.org/1999/xlink" x="0px"
	 y="0px" viewBox="0 0 1600 900" xml:space="preserve">
<g id="Layer_1">
	<path fill="#FF5027" d="M586.4,255.3l7.6,106.2l-130.8,0.4l0.1,50.7l106.7-0.2l0.1,105.9l-107.3,0.2l0.8,125.6L354,644.4L353.1,256
		L586.4,255.3z M1116.6,254.8l-45.3,83.6l-45.1-83.4l-124,0.3L1011.1,442L897.2,642.3l120,0.1l53.3-98.4l54.2,97.7l123.5-0.3
		l-117.3-201.2l105.8-185.8L1116.6,254.8z M772.2,260.9c101.6-0.5,184.9,84,185.2,188.4c0.2,104.1-82.5,189-184.2,189.1
		c-102.3,0.1-185.2-84-185.4-188.1C587.5,345.8,669.9,260.9,772.2,260.9 M773.3,558.6c17.3,0,32.4-13.9,32.4-31.6l-0.4-155.2
		c0-17.6-15.2-33.4-32.6-33.4c-17.3,0.1-31.5,16-31.3,33.6l0.5,154.8C741.9,544.5,755.9,558.7,773.3,558.6"/>
</g>
<g id="Laag_2" display="none">
</g>
</svg>
