<?xml version="1.0" encoding="utf-8"?>
<!-- Generator: Adobe Illustrator 22.1.0, SVG Export Plug-In . SVG Version: 6.00 Build 0)  -->
<svg version="1.1" xmlns="http://www.w3.org/2000/svg" xmlns:xlink="http://www.w3.org/1999/xlink" x="0px" y="0px"
	 viewBox="0 0 1599.999 900" enable-background="new 0 0 1599.999 900" xml:space="preserve">
<g id="Layer_1">
	<g>
		<polygon fill-rule="evenodd" clip-rule="evenodd" fill="#E20613" points="241.592,183.865 307.463,183.865 307.463,258.48 
			379.441,258.48 379.441,183.865 445.607,183.865 445.607,397.07 379.441,397.07 379.441,310.828 307.463,310.828 307.463,397.07 
			241.592,397.07 		"/>
		<path fill-rule="evenodd" clip-rule="evenodd" fill="#E20613" d="M601.598,315.781l-23.561-76.65l-23.407,76.65H601.598z
			 M615.415,361.882h-75.033l-10.33,35.188h-67.322l80.122-213.205h71.834l80.121,213.205h-68.925L615.415,361.882z"/>
		<path fill-rule="evenodd" clip-rule="evenodd" fill="#E20613" d="M777.365,351.257h33.593c11.341,0,19.342-1.984,23.992-5.957
			c4.651-4.074,6.977-9.506,6.977-16.293c0-6.299-2.326-11.342-6.977-15.125c-4.557-3.871-12.602-5.809-24.138-5.82h-33.447V351.257
			z M777.365,267.492h28.651c10.271,0,17.399-1.746,21.372-5.24c4.075-3.584,6.11-8.713,6.11-15.416
			c0-6.195-2.035-11.049-6.11-14.543c-3.973-3.484-10.956-5.23-20.938-5.23h-29.085V267.492z M710.911,183.865h123.31
			c20.549,0,36.308,5.092,47.264,15.275c11.051,10.182,16.576,22.779,16.576,37.816c0,12.598-3.929,23.408-11.779,32.422
			c-5.235,6.021-12.899,10.762-22.976,14.258c15.312,3.682,26.559,10.031,33.737,19.045c7.272,8.926,10.904,20.178,10.904,33.742
			c0,11.051-2.576,20.994-7.705,29.82c-5.143,8.826-12.169,15.803-21.09,20.932c-5.525,3.207-13.86,5.533-25.012,6.99
			c-14.828,1.935-24.672,2.904-29.518,2.904H710.911V183.865z"/>
		<polygon fill-rule="evenodd" clip-rule="evenodd" fill="#E20613" points="937.141,183.865 1113.67,183.865 1113.67,229.388 
			1003.155,229.388 1003.155,263.267 1105.674,263.267 1105.674,306.755 1003.155,306.755 1003.155,348.794 1116.867,348.794 
			1116.867,397.07 937.141,397.07 		"/>
		<path fill-rule="evenodd" clip-rule="evenodd" fill="#E20613" d="M1214.262,270.257h27.771c3.004,0,8.817-0.967,17.449-2.916
			c4.362-0.867,7.901-3.094,10.616-6.688c2.81-3.584,4.211-7.707,4.219-12.359c0-6.875-2.182-12.168-6.545-15.854
			c-4.361-3.682-12.552-5.518-24.576-5.531h-28.935V270.257z M1148.096,397.07V183.865h109.789c20.354,0,35.918,1.748,46.681,5.242
			c10.761,3.482,19.43,9.982,26.024,19.486c6.593,9.404,9.887,20.895,9.893,34.459c0,11.832-2.527,22.064-7.567,30.689
			c-5.042,8.535-11.969,15.475-20.795,20.807c-5.62,3.393-13.332,6.195-23.119,8.436c7.851,2.613,13.571,5.228,17.16,7.844
			c2.419,1.748,5.909,5.48,10.472,11.201c4.652,5.721,7.752,10.133,9.304,13.238l31.845,61.803h-74.45l-35.188-65.147
			c-4.463-8.436-8.435-13.916-11.924-16.445c-4.752-3.293-10.134-4.94-16.144-4.94h-5.813v86.531H1148.096z"/>
		<polygon fill-rule="evenodd" clip-rule="evenodd" fill="#E20613" points="241.592,499.14 442.094,499.14 442.094,551.792 
			374.82,551.792 374.82,712.347 308.863,712.347 308.863,551.792 241.592,551.792 		"/>
		<path fill-rule="evenodd" clip-rule="evenodd" fill="#E20613" d="M670.492,499.14h65.814v127.103
			c0,12.607-1.993,24.539-5.972,35.779c-3.884,11.15-10.045,20.943-18.492,29.379c-8.349,8.336-17.136,14.207-26.352,17.602
			c-12.816,4.752-28.204,7.115-46.163,7.129c-10.385,0-21.743-0.73-34.069-2.189c-12.233-1.459-22.473-4.311-30.727-8.572
			c-8.247-4.377-15.821-10.523-22.71-18.482c-6.796-7.943-11.459-16.129-13.979-24.578c-4.081-13.565-6.116-25.582-6.116-36.066
			V499.14h65.812v130.158c0,11.641,3.205,20.756,9.611,27.342c6.506,6.5,15.482,9.744,26.942,9.744
			c11.357,0,20.233-3.193,26.644-9.592c6.5-6.5,9.75-15.664,9.756-27.494V499.14z"/>
		<path fill-rule="evenodd" clip-rule="evenodd" fill="#E20613" d="M906.756,585.523h27.808c3.004,0,8.832-0.969,17.469-2.904
			c4.369-0.867,7.914-3.094,10.636-6.688c2.81-3.584,4.218-7.707,4.218-12.359c0-6.889-2.181-12.168-6.55-15.854
			c-4.368-3.682-12.571-5.531-24.609-5.531h-28.971V585.523z M840.501,712.347V499.14h109.935c20.386,0,35.962,1.748,46.737,5.23
			c10.779,3.494,19.46,9.994,26.066,19.5c6.594,9.404,9.894,20.895,9.9,34.459c0,11.83-2.527,22.065-7.574,30.688
			c-5.048,8.537-11.986,15.465-20.819,20.795c-5.632,3.395-13.352,6.209-23.151,8.436c7.864,2.627,13.584,5.242,17.18,7.857
			c2.426,1.746,5.921,5.48,10.485,11.201c4.657,5.721,7.763,10.131,9.321,13.225l31.884,61.816h-74.553l-35.232-65.16
			c-4.469-8.435-8.447-13.904-11.942-16.432c-4.759-3.293-10.146-4.941-16.162-4.941h-5.819v86.533H840.501z"/>
		<polygon fill-rule="evenodd" clip-rule="evenodd" fill="#E20613" points="1131.509,499.14 1197.472,499.14 1197.472,579.714 
			1266.636,499.14 1354.287,499.14 1276.537,579.564 1357.782,712.347 1276.537,712.347 1231.542,624.646 1197.472,660.273 
			1197.472,712.347 1131.509,712.347 		"/>
		<rect x="241.592" y="422.464" fill="#F1F2F3" width="1116.19" height="48.742"/>
	</g>
</g>
<g id="Laag_2">
</g>
</svg>
