<?xml version="1.0" encoding="utf-8"?>
<!-- Generator: Adobe Illustrator 22.1.0, SVG Export Plug-In . SVG Version: 6.00 Build 0)  -->
<svg version="1.1" id="Layer_1" xmlns="http://www.w3.org/2000/svg" xmlns:xlink="http://www.w3.org/1999/xlink" x="0px" y="0px"
	 viewBox="0 0 1600 900" enable-background="new 0 0 1600 900" xml:space="preserve">
<path fill="#E79300" d="M1315.328,538.1l-94.37-86.504c-7.268-6.505-18.714-6.649-26.469-0.92l-0.384,0.248l-1.321,0.735
	l-9.535,4.474c-1.886,0.858-3.615,1.907-5.584,2.65l-0.338,0.145l-0.008-0.054c-11.247,4.144-23.473,6.53-36.384,6.53
	c-52.799,0-95.621-38.352-95.621-85.657c0-47.243,42.822-85.595,95.621-85.595c18.5,0,35.645,4.891,50.293,13.111l0.404,0.068
	l1.028,0.605l1.333,0.79c7.739,5.147,18.623,4.92,25.698-1.395l94.3-82.452c7.719-6.951,7.719-18.272-0.091-25.213l-5.291-4.718
	c-40.168-28.223-79.64-57.075-178.757-57.075c-87.799,0-177.778,48.981-223.441,117.992l-0.078-0.097
	c-0.566,0.549-1.341,0.925-2.225,0.925c-0.937,0-1.795-0.376-2.415-1.011l-0.041,0.087c-5.671-7.142-19.581-19.502-27.324-26.432
	c-9.84-8.828-55.762-36.966-101.317-6.567c-20.947,13.988-24.459,29.429-24.459,45.119c0,12.312,5.993,27.231,12.626,35.215
	c4.196,5.042,101.932,129.958,140.574,177.238c0.59,0.557,1.37,0.921,2.258,0.921c1.766,0,2.563-0.908,3.033-2.159
	c4.714-16.106,6.27-29.813,6.311-35.756v-17.443c0-3.617,2.926-6.534,6.555-6.534h64.813c3.641,0,6.563,2.916,6.563,6.534v17.494
	c0,7.44-4.573,55.946-29.78,98.826c-0.355,0.541-0.611,1.094-0.611,1.779c0,1.024,0.508,1.907,1.226,2.493v0.02
	c6.422,6.035,13.146,12.003,20.06,17.579c26.019,20.377,84.811,57.661,162.862,57.661c0,0,91.993,3.764,162.573-51.597l7.714-6.959
	C1323.059,556.335,1323.059,545.055,1315.328,538.1 M856.63,547.622c-13.959,8.548-31.133,14.116-52.683,14.116
	c-21.798,0-43.384-9.291-61.537-24.934c-17.492-16.25-26.203-34.147-26.203-53.661c0-19.696,15.785-36.8,15.785-36.8
	s1.521-2.192,0.21-4.082c0,0-40.612-51.538-41.242-52.38c-0.751-0.951-2.714-1.702-4.497-0.046
	c-30.647,27.013-46.521,58.616-46.521,95.264c0,39.43,13.769,68.982,44.251,99.46c10.085,10.087,22.012,16.357,34.658,22.334
	l-0.048,0.029c4.231,2.262,5.38,8.251-7.227,8.251H586.761c-10.77,0.008-19.498-7.789-19.525-17.443l-0.021-124.08
	c0-4.582-3.696-8.271-8.259-8.271H438.41c-4.563,0-8.28,3.69-8.28,8.247v124.641c0.029,9.675-8.696,17.533-19.469,17.533H279.428
	c-10.785,0.029-19.527-9.992-19.535-19.63l-0.031-434.231c-0.023-9.646,8.724-17.482,19.475-17.521H410.57
	c10.806,0,19.527,7.817,19.552,17.434l0.008,124.134c0,4.561,3.717,8.288,8.27,8.288h120.528c4.592,0,8.288-3.727,8.288-8.27
	V161.918c0-9.665,8.693-17.461,19.48-17.501h67.86h84.725c10.824,0,11.336,6.21,5.671,8.703c0,0-20.041,8.53-32.849,20.33
	c-48.626,44.859-53.36,100.329-35.203,141.752c2.173,4.916,10.158,18.107,19.482,29.349
	c35.636,44.841,138.737,174.48,160.104,199.126C856.485,543.676,858.991,545.831,856.63,547.622"/>
<polygon points="290.619,726.077 290.619,755.696 272.434,755.696 272.434,683.924 290.619,683.924 290.619,710.983 
	323.128,710.983 323.128,683.924 341.317,683.924 341.317,755.696 323.128,755.696 323.128,726.077 290.619,726.077 "/>
<path d="M409.612,719.717c0-13.971-7.89-21.075-19.075-21.075c-11.21,0-18.916,7.104-18.916,21.075
	c0,14.042,7.598,21.269,19.094,21.269C402.109,740.986,409.612,733.511,409.612,719.717 M352.802,719.812
	c0-21.459,17.154-37.218,37.833-37.218c20.644,0,37.812,14.351,37.812,36.669c0,21.632-15.426,38.158-38.284,38.158
	C367.456,757.421,352.802,741.279,352.802,719.812"/>
<path d="M477.92,714.97c7.235,0,9.926-3.013,9.926-8.358c0-5.123-2.788-7.421-9.834-7.421H458.1v15.779H477.92L477.92,714.97z
	 M458.1,755.696h-18.188v-71.764h39.39c18.541,0,26.525,7.483,26.525,21.248c0,11.02-5.737,15.66-12.605,17.769
	c4.057,1.04,7.609,3.814,8.812,7.016c1.93,5.333,1.93,12.919,2.691,19.284c0.351,3.137,0.924,5.118,1.655,5.783v0.664h-18.535
	c-0.549-2.179-1.026-5.3-1.387-14.429c-0.271-8.449-3.715-11.388-12.508-11.388H458.1V755.696L458.1,755.696z"/>
<path d="M517.147,743.549l11.968-10.905c4.899,5.878,12.774,9.956,23.721,9.956c9.914,0,13.817-2.064,13.817-6.74
	c0-5.122-3.638-5.989-16.326-7.801c-13.798-1.981-30.589-5.011-30.589-22.965c0-15.375,12.038-22.499,30.205-22.499
	c15.773,0,25.225,4.355,32.541,12.341l-11.2,10.925c-3.172-4.185-9.642-8.825-20.677-8.825c-9.652,0-13.449,1.886-13.449,6.435
	c0,4.846,3.797,5.915,17.156,7.512c14.458,1.8,30.211,5.708,30.211,23.085c0,15.643-9.939,23.353-31.424,23.353
	C535.502,757.421,524.719,752.01,517.147,743.549"/>
<polygon points="595.363,683.932 655.882,683.932 655.882,698.064 613.524,698.064 613.524,711.735 645.227,711.735 
	645.227,725.887 613.524,725.887 613.524,741.267 657.556,741.267 657.556,755.696 595.363,755.696 595.363,683.932 "/>
<path d="M772.766,719.828c0-21.475,14.84-37.234,36.621-37.234c16.947,0,26.122,7.487,31.682,18.598l-15.003,9.308
	c-3.162-7.978-8.251-11.772-16.423-11.772c-10.843,0-18.07,7.008-18.07,20.988c0,14.05,7.421,21.467,18.26,21.467
	c8.445,0,13.976-5.221,16.952-12.44l15.486,9.394c-5.832,10.715-15.011,19.275-32.438,19.275
	C785.639,757.413,772.766,741.279,772.766,719.828"/>
<path d="M903.914,719.717c0-13.98-7.871-21.083-19.11-21.083c-11.177,0-18.887,7.103-18.887,21.083
	c0,14.05,7.59,21.261,19.102,21.261C896.398,740.977,903.914,733.511,903.914,719.717 M847.104,719.828
	c0-21.475,17.145-37.234,37.8-37.234c20.674,0,37.811,14.343,37.811,36.648c0,21.653-15.358,38.171-38.253,38.171
	C861.748,757.413,847.104,741.279,847.104,719.828"/>
<path d="M933.756,726.172v-42.241h18.182v41.209c0,11.392,3.224,15.846,15.379,15.846c11.945,0,15.276-4.454,15.276-15.846v-41.209
	h18.169v42.241c0,21.834-13.064,31.249-33.544,31.249C945.346,757.421,933.756,746.954,933.756,726.172"/>
<polygon points="1015.856,683.932 1038.866,683.932 1067.052,731.951 1066.396,683.932 1083.463,683.932 1083.463,755.696 
	1062.219,755.696 1032.183,704.994 1032.902,755.696 1015.856,755.696 1015.856,683.932 "/>
<polygon points="1094.731,698.729 1094.731,683.932 1157.308,683.932 1157.308,698.729 1135.713,698.729 1135.713,755.709 
	1117.54,755.709 1117.54,698.729 1094.731,698.729 "/>
<path d="M1206.631,714.97c7.199,0,9.898-3.038,9.898-8.366c0-5.093-2.773-7.413-9.831-7.413h-19.923v15.779H1206.631
	L1206.631,714.97z M1186.774,755.696h-18.153v-71.764h39.393c18.524,0,26.502,7.483,26.502,21.248
	c0,11.012-5.758,15.66-12.601,17.769c4.082,1.04,7.598,3.814,8.804,7.016c1.948,5.333,1.948,12.919,2.67,19.284
	c0.372,3.12,0.933,5.118,1.688,5.783v0.664h-18.549c-0.557-2.179-1.007-5.3-1.382-14.429c-0.273-8.449-3.719-11.388-12.523-11.388
	h-15.849V755.696L1186.774,755.696z"/>
<polygon points="1236.65,683.932 1257.321,683.932 1274.078,710.319 1289.841,683.932 1308.935,683.932 1282.333,725.693 
	1282.333,755.696 1264.164,755.696 1264.164,725.5 1236.65,683.932 "/>
<path d="M713.183,745.559c-2.961,0-6.364-0.339-9.192-2.674c-2.751-2.485-3.795-4.338-3.795-6.893c0-1.123,0.367-2.254,1.005-3.331
	c0.778-1.143,2.249-2.617,4.862-4.648c6.3,7.603,12.746,15.391,13.459,16.258C717.821,745.146,716.139,745.559,713.183,745.559
	 M737.449,746.554l0.126-0.144l1.214-1.858c3.601-6.298,4.4-13.423,4.4-14.846v-10.744l-12.975-0.103
	c0,15.263-2.063,16.605-2.063,16.605c-1.74-2.126-23.368-28.252-23.368-28.252c-0.326-0.582-1.013-1.994-1.013-3.921
	c0-3.079,1.065-5.213,3.347-6.728c6.538-4.197,13.257-0.347,14.713,0.904l5.172,5.824l7.985-8.779l-0.516-0.595l-4.505-5.419
	l-4.889-3.013l-1.506-0.636c-3.085-1.251-6.268-1.869-9.53-1.869c-8.034,0-14.886,4.449-15.829,5.258
	c-5.257,4.565-7.384,9.993-7.384,15.036c0,3.55,1.052,6.91,2.786,9.683c0,0,1.795,2.146,4.392,5.296
	c-0.96,0.751-3.707,2.79-3.707,2.79c-5.118,4.334-7.731,9.472-7.731,15.272c0,6.286,2.65,11.582,7.836,15.825l3.133,2.146
	l1.657,0.789c4.154,1.894,9.047,2.798,14.774,2.798c3.956,0,7.593-0.574,10.855-1.688l2.501-1.003l0.997-0.495l1.797,2.146h15.988
	C746.104,756.831,738.277,747.536,737.449,746.554"/>
</svg>
