<?xml version="1.0" encoding="utf-8"?>
<!-- Generator: Adobe Illustrator 22.1.0, SVG Export Plug-In . SVG Version: 6.00 Build 0)  -->
<svg version="1.1" id="Layer_1" xmlns="http://www.w3.org/2000/svg" xmlns:xlink="http://www.w3.org/1999/xlink" x="0px" y="0px"
	 viewBox="0 0 1600 900" enable-background="new 0 0 1600 900" xml:space="preserve">
<g>
	<path fill="#FFFFFF" d="M573.14,754.05l9.812-2.579l11.671,44.408l-9.812,2.579L573.14,754.05z M591.482,747.391l36.901,19.113
		l-6.631-25.231l9.684-2.545l12.124,46.129l-36.884-19.052l6.614,25.166l-9.684,2.546L591.482,747.391z M636.533,737.39
		l10.449-2.747l19.21,22.811l5.574-29.325l10.449-2.746l-10.632,52.585L636.533,737.39z M687.313,724.043l30.327-7.97l2.344,8.92
		l-20.517,5.392l2.194,8.347l19.178-5.04l2.295,8.728l-19.178,5.04l2.494,9.493l20.962-5.509l2.344,8.92l-30.773,8.088
		L687.313,724.043z M732.131,745.3c4.308,2.138,9.561,3.209,16.377,1.417c5.033-1.322,7.288-3.89,6.618-6.44
		c-0.804-3.059-3.989-3.514-11.731-4.205c-7.454-0.63-13.585-2.967-15.46-10.104c-2.093-7.964,3.917-14.38,12.582-16.658
		c4.969-1.306,9.429-1.183,13.502,0.061l2.562,9.749c-3.744-1.809-7.842-2.365-13.321-0.925c-4.205,1.105-5.985,3.139-5.467,5.114
		c0.87,3.312,6.637,3.227,11.918,3.883c9.217,1.121,13.434,3.69,15.227,10.507c1.959,7.454-2.06,14.709-13.656,17.756
		c-6.244,1.642-11.696,1.372-16.474,0.039L732.131,745.3z M771.717,711.397l-12.042,3.165l-2.344-8.92l33.704-8.858l2.344,8.92
		l-11.851,3.115l9.327,35.488l-9.812,2.578L771.717,711.397z M796.449,695.361l9.812-2.578l11.671,44.408l-9.812,2.578
		L796.449,695.361z M836.851,683.994c5.097-1.34,10.018-1.27,14.494,0.208l2.529,9.621c-4.304-1.865-9.391-2.299-14.68-0.909
		c-7.901,2.076-12.506,9.691-10.397,17.718c2.111,8.028,9.848,12.329,17.749,10.253c3.822-1.004,6.882-3.103,8.78-5.985
		l-1.574-5.989l-11.659,3.064l-2.278-8.665l20.835-5.475l4.722,17.967c-2.656,6.486-8.582,11.927-16.482,14.003
		c-13.189,3.466-26.422-3.341-29.905-16.593C815.503,699.959,823.662,687.461,836.851,683.994z M881.027,670.409l35.469,40.877
		l-10.449,2.746l-5.299-6.167l-18.54,4.873l-1.582,7.976l-10.386,2.729L881.027,670.409z M894.924,700.473l-8.735-10.169
		l-2.542,13.133L894.924,700.473z M915.134,673.705l-12.042,3.165l-2.344-8.92l33.704-8.858l2.344,8.92l-11.851,3.115l9.327,35.488
		l-9.812,2.578L915.134,673.705z M939.867,657.669l9.811-2.578l11.671,44.408l-9.811,2.578L939.867,657.669z M980.076,646.352
		c13.189-3.466,26.364,3.903,29.746,16.771c3.4,12.934-4.468,25.762-17.656,29.229c-13.125,3.45-26.347-3.836-29.747-16.77
		C959.037,662.713,966.951,649.802,980.076,646.352z M989.822,683.434c7.772-2.042,12.247-9.895,10.189-17.732
		c-2.026-7.709-9.754-12.49-17.59-10.43s-12.232,9.958-10.19,17.731C974.325,680.968,981.985,685.494,989.822,683.434z
		 M1010.071,637.38l36.901,19.115l-6.631-25.231l9.685-2.545l12.122,46.129l-36.883-19.052l6.613,25.166l-9.684,2.545
		L1010.071,637.38z M718.143,784.598l16.819-4.421c15.483-4.069,26.052,3.234,29.434,16.102c3.433,13.063-2.217,24.219-17.7,28.289
		l-16.883,4.437L718.143,784.598z M743.715,815.815c11.214-2.948,12.731-9.613,10.806-16.94c-1.975-7.518-6.574-12.576-17.851-9.612
		l-6.372,1.674l6.982,26.568L743.715,815.815z M765.416,772.173l9.812-2.578l11.671,44.408l-9.812,2.578L765.416,772.173z
		 M790.422,798.635c4.308,2.138,9.561,3.21,16.379,1.419c5.034-1.324,7.288-3.89,6.617-6.44c-0.804-3.058-3.989-3.516-11.731-4.206
		c-7.453-0.63-13.586-2.967-15.461-10.103c-2.093-7.965,3.919-14.381,12.584-16.658c4.969-1.307,9.429-1.183,13.502,0.062
		l2.563,9.748c-3.745-1.809-7.842-2.366-13.322-0.926c-4.204,1.105-5.985,3.139-5.467,5.115c0.87,3.314,6.637,3.228,11.918,3.884
		c9.217,1.119,13.434,3.687,15.227,10.505c1.959,7.456-2.06,14.709-13.656,17.757c-6.244,1.641-11.695,1.372-16.472,0.038
		L790.422,798.635z M842.514,751.16c5.224-1.372,10.278-1.064,14.968,0.973l2.696,10.257c-4.665-2.723-9.966-3.715-15.319-2.309
		c-7.901,2.077-12.506,9.691-10.396,17.717c2.109,8.028,9.847,12.33,17.747,10.253c5.351-1.405,9.481-4.875,12.204-9.542
		l2.696,10.257c-3.082,4.08-7.333,6.831-12.557,8.203c-13.188,3.466-26.421-3.341-29.903-16.593
		C821.167,767.124,829.326,754.626,842.514,751.16z M885.458,739.874c13.189-3.466,26.364,3.903,29.746,16.771
		c3.399,12.935-4.468,25.764-17.656,29.23c-13.125,3.45-26.347-3.837-29.746-16.773
		C864.419,756.234,872.333,743.324,885.458,739.874z M895.203,776.956c7.772-2.043,12.248-9.893,10.189-17.732
		c-2.026-7.708-9.754-12.489-17.59-10.429s-12.232,9.957-10.19,17.729C879.706,774.49,887.366,779.015,895.203,776.956z
		 M908.896,734.464l10.45-2.746l19.208,22.81l5.575-29.323l10.449-2.746l-10.633,52.584L908.896,734.464z M959.675,721.119
		l30.328-7.97l2.344,8.918l-20.516,5.392l2.194,8.347l19.178-5.04l2.293,8.729l-19.178,5.04l2.495,9.492l20.961-5.509l2.344,8.921
		l-30.773,8.088L959.675,721.119z M997.711,711.123l18.605-4.89c8.283-2.176,16.774,2.403,18.951,10.686
		c1.523,5.796-0.406,11.413-4.585,14.69l15.335,14.294l-11.086,2.913l-13.123-12.355l-0.127,0.033l-6.436,1.692l3.885,14.783
		l-9.748,2.562L997.711,711.123z M1020.742,727.479c3.823-1.004,5.735-4.096,4.747-7.855c-0.905-3.44-3.963-5.226-7.085-4.405
		l-8.601,2.26l3.165,12.043L1020.742,727.479z M1056.381,725.469l-23.628-23.555l10.641-2.796l15.432,15.696l5.72-21.255
		l10.641-2.797l-8.994,32.128l4.354,16.566l-9.811,2.578L1056.381,725.469z M999.768,440.054
		c-7.248,53.927-41.721,93.259-98.332,108.3c0,0-133.068,35.401-143.495,38.1c-2.437,0.633-4.504,0.941-6.292,0.932
		c-0.412-0.002-0.825-0.004-1.241-0.051c-0.685-0.048-1.28-0.19-1.831-0.377l-0.044,0c-0.55-0.186-1.056-0.417-1.561-0.693
		l-0.044-0.049c-0.505-0.276-0.916-0.601-1.326-0.97c-0.044-0.045-0.044-0.045-0.089-0.09c-0.366-0.369-0.775-0.828-1.096-1.292
		c-0.045-0.045-0.094-0.09-0.094-0.09c-0.183-0.279-0.316-0.508-0.498-0.782c-0.138-0.279-0.32-0.553-0.457-0.831
		c-0.045-0.045-0.044-0.09-0.089-0.184c-0.138-0.274-0.275-0.552-0.408-0.871c-0.137-0.323-0.274-0.647-0.407-1.01
		c-0.049-0.05-0.049-0.139-0.093-0.234c-0.137-0.319-0.225-0.642-0.362-1.01c-0.137-0.368-0.225-0.781-0.362-1.149
		c-0.044-0.09-0.044-0.184-0.088-0.274c-0.092-0.417-0.225-0.781-0.317-1.198c-0.629-2.342-4.909-18.379-11.169-41.721
		c-6.264-23.337-14.459-53.986-22.883-85.461c-0.049-0.092-0.048-0.184-0.093-0.276c-18.739-69.931-38.556-144-40.54-151.397
		c-2.973-11.258-0.98-14.553,10.507-17.569c11.532-3.017,141.108-37.469,141.108-37.469c57.386-15.221,108.64,4.031,142.685,50.18
		l-45.66-173.218L436,246.135L565.853,730.92l476.783-128.232L999.768,440.054z M698.931,595.018
		c-0.001,0.134-0.046,0.273-0.047,0.412l-0.001,0.229c-0.045,0.139-0.046,0.278-0.091,0.367c0,0.089-0.001,0.184-0.051,0.228
		c-0.001,0.139-0.046,0.278-0.092,0.412c0,0.095-0.001,0.139-0.045,0.184c-0.05,0.183-0.096,0.367-0.187,0.55
		c0,0.045,0,0.045-0.05,0.094c-0.046,0.134-0.136,0.273-0.186,0.456c-0.045,0.045-0.09,0.094-0.09,0.139
		c-0.046,0.139-0.14,0.228-0.185,0.367c-0.045,0.044-0.09,0.089-0.14,0.183c-0.09,0.089-0.135,0.183-0.23,0.272
		c-0.045,0.094-0.09,0.139-0.14,0.183c-0.09,0.139-0.185,0.228-0.275,0.321c-0.045,0.045-0.095,0.089-0.139,0.134
		c-0.135,0.138-0.275,0.277-0.415,0.415c0,0,0,0.044-0.045,0.044c-1.936,1.689-5.11,3.004-9.934,4.261
		c-15.44,4.054-34.139,9.145-45.308,12.118c-2.019,0.541-3.813,0.9-5.418,1.075c-0.413,0.043-0.78,0.041-1.193,0.084l-0.139-0.001
		c-0.78,0.041-1.47,0.037-2.155-0.056l-0.045,0c-0.322-0.047-0.645-0.093-0.918-0.144c-0.044,0-0.094,0-0.138-0.045
		c-0.596-0.093-1.146-0.279-1.651-0.515c0,0-0.045-0.045-0.089-0.045c-0.228-0.091-0.456-0.231-0.688-0.371
		c-0.045-0.045-0.045-0.045-0.089-0.045c-0.46-0.325-0.871-0.645-1.281-1.064c0,0-0.045-0.045-0.044-0.09
		c-0.183-0.185-0.365-0.414-0.548-0.599c0-0.045-0.045-0.045-0.045-0.094c-0.182-0.229-0.32-0.459-0.503-0.688
		c0,0,0-0.045-0.045-0.045c-0.138-0.278-0.275-0.552-0.408-0.831c-0.049-0.045-0.094-0.09-0.093-0.135
		c-0.133-0.279-0.271-0.552-0.408-0.876l0-0.044c-0.137-0.323-0.27-0.647-0.407-0.921c0-0.094,0.001-0.139-0.044-0.184
		c-0.092-0.323-0.23-0.642-0.318-1.01c-0.045-0.094-0.044-0.139-0.088-0.234c-0.092-0.363-0.18-0.731-0.317-1.099
		c-0.044-0.229-0.136-0.646-0.317-1.198c-0.088-0.363-0.18-0.781-0.316-1.238c-0.087-0.457-0.268-0.965-0.404-1.561
		c-0.224-0.92-0.492-1.974-0.853-3.217c-0.044-0.184-0.092-0.368-0.136-0.552c-4.771-18.284-17.203-65.474-30.393-115.784
		c-0.045-0.092-0.089-0.231-0.137-0.368c-19-72.321-39.624-150.843-41.651-158.608c-3.105-11.807-0.844-13.909,10.549-16.926
		c7.902-2.071,32.488-8.739,45.307-12.068c0.458-0.137,0.871-0.226,1.283-0.317c0.094-0.044,0.234-0.091,0.323-0.09
		c0.323-0.09,0.597-0.134,0.875-0.224c0.134,0.001,0.229-0.046,0.368-0.09c0.274-0.044,0.502-0.089,0.781-0.133
		c0.09-0.046,0.229-0.046,0.368-0.09c0.229-0.046,0.458-0.089,0.731-0.135c0.094,0,0.184-0.044,0.323-0.043
		c0.229-0.046,0.507-0.09,0.736-0.135l0.229,0.001c0.323-0.043,0.596-0.089,0.919-0.132c0.641-0.044,1.192-0.086,1.744-0.083
		c0.044,0,0.044,0,0.044,0l0.735,0.004c0.044,0,0.094,0.045,0.094,0.045c0.229,0.001,0.457,0.002,0.64,0.05c0.045,0,0.09,0,0.09,0
		c0.233,0.046,0.416,0.094,0.644,0.14l0.045,0c3.76,0.89,5.302,4.248,7.012,10.819c1.53,5.79,22.11,84.037,41.203,156.771
		c0.044,0.092,0.044,0.184,0.088,0.321c8.241,31.382,16.208,61.705,22.246,84.728c6.033,22.973,10.175,38.687,10.716,40.706
		c0.088,0.323,0.181,0.597,0.224,0.875c0.044,0.09,0.044,0.184,0.044,0.273c0.044,0.229,0.137,0.413,0.136,0.597
		c0.044,0.094,0.044,0.184,0.088,0.323c-0.001,0.184,0.048,0.323,0.092,0.507c0,0.089,0.044,0.229,0.043,0.318
		c0.044,0.139,0.043,0.323,0.091,0.507c0,0.094-0.001,0.184,0.044,0.273c-0.001,0.184,0.043,0.368,0.042,0.601l-0.001,0.134
		c0.044,0.233,0.043,0.462,0.042,0.69L698.931,595.018z M912.758,377.349c-0.136-0.46-0.269-0.873-0.405-1.333
		c-2.257-7.443-4.84-14.294-8.063-21.285c-17.938-37.578-47.542-54.246-83.66-44.654c0,0-48.888,13.016-55.457,14.727
		c-5.241,1.397-7.637,3.862-7.612,7.672c0.041,0.78,0.176,1.652,0.4,2.572c0.765,2.849,11.758,43.879,22.478,83.855
		c7.342,27.429,14.551,54.356,18.241,68.233c0.181,0.597,0.317,1.149,0.498,1.698c0.36,1.335,0.673,2.529,0.945,3.583
		c0.541,2.069,0.901,3.446,1.082,4.047c1.394,5.237,5.004,8.418,11.438,6.757c4.271-1.126,48.151-12.794,48.151-12.794
		c51.19-13.599,68.991-49.714,53.269-108.343c-0.273-1.104-0.585-2.205-0.902-3.262
		C913.026,378.313,912.894,377.809,912.758,377.349z"/>
	<g>
		<path fill="#FFFFFF" d="M974.473,210.719l-26.826-100.113l22.118-5.927l9.97,37.203l43.378-11.624l-9.97-37.203l22.12-5.927
			l26.826,100.113l-22.12,5.927l-11.468-42.804l-43.378,11.624l11.468,42.804L974.473,210.719z"/>
		<path fill="#FFFFFF" d="M1081.622,182.009l-26.826-100.113l37.918-10.161c16.949-4.541,31.28-3.429,42.999,3.335
			c11.715,6.765,19.589,17.667,23.616,32.698c4.055,15.13,2.72,28.444-3.999,39.944c-6.721,11.498-18.605,19.532-35.647,24.098
			L1081.622,182.009z M1098.352,155.974l14.508-3.887c11.775-3.156,19.37-8.039,22.783-14.649
			c3.409-6.609,3.886-14.513,1.422-23.705c-2.514-9.383-6.91-16.107-13.18-20.176c-6.275-4.066-15.347-4.508-27.22-1.328
			l-14.363,3.849L1098.352,155.974z"/>
	</g>
</g>
</svg>
