<?xml version="1.0" encoding="utf-8"?>
<!-- Generator: Adobe Illustrator 22.1.0, SVG Export Plug-In . SVG Version: 6.00 Build 0)  -->
<svg version="1.2" baseProfile="tiny" xmlns="http://www.w3.org/2000/svg" xmlns:xlink="http://www.w3.org/1999/xlink" x="0px"
	 y="0px" viewBox="0 0 1600 900" xml:space="preserve">
<g id="Layer_1">
	<g>
		<path fill="#602376" d="M1123.1,449.1c0,180.9-146.6,327.5-327.5,327.5S468,630,468,449.1s146.6-327.5,327.5-327.5
			S1123.1,268.2,1123.1,449.1"/>
		<path fill="#FFE22B" d="M745.7,461.9v-23.7v-30v-71.8v0v-59.3c0-15.7-6.1-30.5-17.3-41.7c-11.2-11.2-26-17.3-41.7-17.3
			c-15.7,0-30.5,6.2-41.7,17.3c-11.2,11.2-17.3,26-17.3,41.7v59.3v0v71.8v154c0,32.5,26.5,59,59,59c32.5,0,59-26.5,59-59V461.9
			L745.7,461.9z"/>
		<path fill="#FFE22B" d="M845.7,479.1l41.7,41.7l58.7-58.7c11.1-11.1,17.2-25.9,17.2-41.7c0-15.8-6.1-30.6-17.2-41.7
			c-11.1-11.1-25.9-17.2-41.7-17.2c-15.8,0-30.6,6.1-41.7,17.2L762.3,479.1c11.1-11.1,25.9-17.2,41.7-17.2
			C819.8,461.9,834.6,468,845.7,479.1"/>
		<path fill="#E62645" d="M946.2,579.5l-58.7-58.7l-41.7-41.7c-11.1-11.1-25.9-17.2-41.7-17.2c-15.8,0-30.6,6.1-41.7,17.2l0,0
			c-6.9,6.9-11.9,15.3-14.7,24.5c-1.1,3.7-1.9,7.5-2.2,11.3c-0.2,1.9-0.3,3.9-0.3,5.9c0,15.8,6.1,30.6,17.2,41.7L862.7,663
			c11.1,11.1,25.9,17.2,41.7,17.2c15.8,0,30.6-6.1,41.7-17.2c11.1-11.1,17.3-25.9,17.3-41.7C963.4,605.5,957.3,590.7,946.2,579.5"/>
		<path fill="#FFE22B" d="M904.4,680.2c-32.5,0-59-26.5-59-59c0-32.5,26.5-59,59-59c32.5,0,59,26.5,59,59
			C963.4,653.7,937,680.2,904.4,680.2"/>
	</g>
</g>
<g id="Laag_2" display="none">
</g>
</svg>
