<?xml version="1.0" encoding="utf-8"?>
<!-- Generator: Adobe Illustrator 23.0.1, SVG Export Plug-In . SVG Version: 6.00 Build 0)  -->
<svg version="1.1" id="Layer_1" xmlns="http://www.w3.org/2000/svg" xmlns:xlink="http://www.w3.org/1999/xlink" x="0px" y="0px"
	 viewBox="0 0 1600 900" enable-background="new 0 0 1600 900" xml:space="preserve">
<g>
	<path fill="#FFFFFF" d="M453.609,232.005c5.588,0.989,11.239,1.714,16.755,3.01c33.238,7.812,59.592,24.888,74.296,56.796
		c8.114,17.607,10.387,36.295,8.545,55.594c-1.951,20.445-8.545,39.1-20.785,55.608c-14.837,20.01-34.752,32.378-58.929,37.788
		c-28.407,6.357-56.49,4.786-83.437-6.31c-34.098-14.041-54.123-39.861-60.125-76.265c-3.781-22.932-2.099-45.435,7.725-66.766
		c13.993-30.381,38.503-47.831,70.376-55.696c6.794-1.676,13.791-2.528,20.694-3.759
		C437.02,232.005,445.315,232.005,453.609,232.005z M485.266,335.151c-0.522-3.862-1.025-10.804-2.468-17.543
		c-2.55-11.909-7.54-22.632-17.634-30.199c-16.499-12.368-48.132-10.592-61.312,16.494c-4.834,9.935-6.806,20.487-6.995,31.401
		c-0.228,13.15,1.332,26.021,7.775,37.789c7.497,13.693,18.981,21.08,34.77,21.599c15.921,0.524,27.98-5.993,36.3-19.501
		C482.684,363.855,484.886,351.284,485.266,335.151z"/>
	<path fill="#FFFFFF" d="M872.261,232.005c6.207,0.983,12.463,1.724,18.612,2.987c39.838,8.182,65.154,35.958,72.786,74.048
		c2.419,12.074,3.724,24.301,2.296,36.656c-0.04,0.347-0.158,0.685-0.32,1.365c-47.469,0-94.963,0-143.62,0
		c1.723,5.868,2.968,11.227,4.859,16.347c6.878,18.625,20.007,30.006,39.904,32.373c15.216,1.81,28.955-2.139,40.28-13.005
		c2.635-2.528,5.205-5.158,8.07-7.404c5.387-4.223,11.578-5.179,17.898-2.735c10.182,3.937,20.208,8.275,31.229,12.828
		c-4.462,6.925-8.323,13.937-13.143,20.212c-16.747,21.801-38.97,34.48-66.245,37.831c-24.269,2.982-48.1,0.602-71.044-8.062
		c-28.348-10.705-46.754-30.866-55.045-60c-7.309-25.683-7.494-51.543,1.121-76.858c11.975-35.186,37.357-55.658,73.244-63.587
		c6.129-1.354,12.412-2.015,18.624-2.996C858.599,232.005,865.43,232.005,872.261,232.005z M821.36,338.829
		c2.934-2.56,5.108-4.311,7.118-6.234c8.519-8.149,18.322-14.118,29.813-16.878c7.776-1.868,15.659-3.406,23.57-4.573
		c11.073-1.633,17.153-8.154,15.969-18.221c-0.699-5.944-3.881-10.677-8.39-14.511c-13.501-11.48-36.939-11.773-50.742-0.003
		C820.035,294.324,820.184,315.94,821.36,338.829z"/>
	<path fill="#FFFFFF" d="M1408.749,573.075c-2.673,0.058-5.345,0.167-8.018,0.167c-44.146,0.005-88.293-0.004-132.439-0.01
		c-0.837,0-1.674,0-3.144,0c0.341,2.418,0.243,4.651,0.995,6.545c2.856,7.196,5.275,14.701,9.163,21.324
		c8.185,13.942,21.435,19.939,37.12,21.04c15.828,1.111,28.955-4.502,39.904-15.953c9.209-9.631,15.655-10.687,27.84-5.565
		c8.495,3.571,17.016,7.08,26.454,11.002c-4.154,6.566-7.744,13.161-12.194,19.113c-16.982,22.713-39.769,35.966-67.896,39.023
		c-29.059,3.158-57.357-0.122-83.488-14.312c-19.084-10.363-32.257-26.172-39.428-46.634c-9.932-28.338-10.464-57.008-0.699-85.455
		c10.223-29.782,31.067-49.369,60.781-58.991c27.125-8.783,54.738-8.849,81.806,0.149c33.259,11.055,52.503,35.078,60.24,68.781
		c1.292,5.629,2.016,11.388,3.002,17.087C1408.749,557.948,1408.749,565.511,1408.749,573.075z M1264.096,564.905
		c1.565-1.408,2.738-2.414,3.855-3.477c9.374-8.916,19.578-16.516,32.49-19.428c8.039-1.813,16.13-3.496,24.276-4.719
		c14.303-2.148,20.176-14.42,12.418-26.658c-3.796-5.988-9.312-9.903-15.94-12.195c-22.877-7.909-45.334,2.885-53.672,25.706
		C1262.768,537.15,1262.618,550.566,1264.096,564.905z"/>
	<path fill="#FFFFFF" d="M393.116,669.642c-13.567,0-26.733,0.036-39.898-0.071c-1.005-0.008-2.276-0.787-2.963-1.598
		c-25.125-29.691-50.197-59.428-75.274-89.159c-6.36-7.54-12.718-15.082-19.765-23.439c0,38.579,0,76.231,0,114.077
		c-20.265,0-39.981,0-60.08,0c0-69.069,0-138.132,0-207.599c1.204-0.06,2.488-0.18,3.773-0.181
		c14.027-0.007,28.055,0.083,42.081-0.056c2.734-0.027,4.408,0.848,6.102,2.958c27.709,34.505,55.504,68.941,83.285,103.389
		c0.608,0.754,1.278,1.457,2.496,2.84c0-36.642,0-72.591,0-108.847c20.331,0,40.136,0,60.242,0
		C393.116,531.056,393.116,600.134,393.116,669.642z"/>
	<path fill="#FFFFFF" d="M536.768,539.278c1.685-14.665-7.768-27.66-22.752-31.356c-14.422-3.557-28.738-2.167-43.021,1.027
		c-5.21,1.165-10.444,2.326-15.729,3.027c-7.015,0.931-13.488-0.852-17.055-7.309c-5.022-9.092-9.263-18.615-14.171-28.636
		c12.64-3.657,24.195-7.309,35.914-10.322c20.95-5.386,42.248-8.26,63.944-7.5c14.031,0.492,28.075,1.456,41.02,7.391
		c23.592,10.815,37.911,29.022,39.262,55.253c1.215,23.601,0.653,47.296,0.798,70.95c0.109,17.687-0.014,35.375,0.195,53.06
		c0.078,6.566,0.719,13.132,1.271,19.684c0.373,4.426,0.167,4.809-4.362,4.81c-19.639,0.006-39.278-0.063-58.916,0.058
		c-3.457,0.021-4.688-1.038-4.724-4.596c-0.08-7.99-0.61-15.976-0.986-24.636c-2.768,2.692-5.152,5.038-7.566,7.352
		c-7.926,7.598-15.68,15.59-26.696,18.594c-25.504,6.953-50.255,6.3-71.511-11.373c-16.386-13.624-25.046-31.732-23.147-53.47
		c1.908-21.839,13.611-37.805,32.085-49.094c12.91-7.888,27.148-11.594,41.984-13.526c14.573-1.898,29.164-1.885,43.774-0.646
		C529.765,538.308,533.134,538.832,536.768,539.278z M537.094,571.732c-10.674,5.637-22.182,7.18-33.618,9.246
		c-5.494,0.992-11.151,2.77-15.952,5.544c-8.551,4.94-12.212,13.136-11.037,22.924c1.24,10.331,7.985,16.081,17.639,18.511
		c14.217,3.579,27.971,1.298,41.33-4.097c0.904-0.365,1.903-1.884,1.911-2.874c0.114-15.841,0.076-31.684,0.058-47.526
		C537.424,573.008,537.257,572.556,537.094,571.732z"/>
	<path fill="#FFFFFF" d="M1010.841,461.754c1.403,0,2.6-0.001,3.797,0c34.631,0.024,69.262,0.007,103.892,0.094
		c14.517,0.036,28.663,2.129,41.41,9.621c16.413,9.646,25.011,24.461,26.991,43.122c2.772,26.123-11.339,46.694-30.455,57.748
		c19.735,32.022,39.464,64.034,59.471,96.495c-1.777,0.086-2.941,0.191-4.106,0.191c-21.462,0.01-42.923-0.042-64.384,0.069
		c-2.648,0.014-4.103-0.793-5.466-3.089c-14.351-24.165-28.794-48.275-43.315-72.338c-1.68-2.783-3.743-5.433-6.053-7.715
		c-3.806-3.76-8.647-4.731-13.863-3.96c-2.476,0.366-3.646,1.461-3.597,4.333c0.194,11.459,0.088,22.924,0.088,34.386
		c0.001,14.633-0.003,29.266-0.004,43.899c0,1.319,0,2.639,0,4.185c-21.599,0-42.877,0-64.404,0
		C1010.841,599.962,1010.841,531.132,1010.841,461.754z M1075.399,575.761c0.196,0.095,0.392,0.19,0.589,0.285
		c0.949-1.517,1.887-3.041,2.849-4.55c6.477-10.158,13.637-19.618,25.099-24.724c3.215-1.432,6.378-2.981,9.587-4.424
		c7.779-3.498,12.216-11.156,11.225-19.436c-0.906-7.566-5.98-13.356-14.755-14.223c-11.216-1.108-22.568-0.85-33.861-1.159
		c-0.184-0.005-0.376,0.26-0.732,0.522C1075.399,530.544,1075.399,553.152,1075.399,575.761z"/>
	<path fill="#FFFFFF" d="M788.998,523.305c15.318,0,30.213-0.67,45.018,0.199c13.348,0.784,20.481,9.744,20.648,23.205
		c0.185,14.876,0.423,29.751,0.779,44.624c0.393,16.431,8.544,28.548,22.356,32.414c11.48,3.213,23.02,3.295,33.373-3.666
		c9.4-6.32,13.665-15.859,13.72-26.884c0.21-42.203,0.102-84.408,0.112-126.612c0-1.437,0-2.875,0-4.534c21.971,0,43.63,0,65.884,0
		c0,1.073-0.002,2.225,0,3.378c0.092,39.641,0.227,79.282,0.253,118.923c0.009,12.932-0.861,25.805-4.996,38.191
		c-7.604,22.777-24.083,36.199-46.287,43.453c-12.574,4.108-25.57,5.979-38.717,6.501c-19.167,0.762-38.236-0.066-56.756-5.801
		c-17.541-5.432-32.774-14.266-43.303-29.881c-8.22-12.192-11.775-25.939-12.045-40.354c-0.449-24.021-0.173-48.056-0.192-72.085
		C788.845,523.914,788.976,523.453,788.998,523.305z"/>
	<path fill="#FFFFFF" d="M768.138,234.538c-3.523,8.666-6.868,16.984-10.28,25.274c-24.544,59.631-49.128,119.246-73.581,178.915
		c-1.214,2.963-2.64,3.936-5.82,3.904c-16.952-0.172-33.907-0.133-50.86-0.029c-2.44,0.015-3.644-0.694-4.583-3.014
		c-27.272-67.431-54.622-134.83-81.951-202.238c-0.352-0.869-0.593-1.784-0.967-2.926c1.361-0.062,2.426-0.152,3.491-0.152
		c21.833-0.008,43.666,0.063,65.497-0.087c2.933-0.02,3.928,1.142,4.768,3.626c13.604,40.243,27.284,80.46,40.95,120.681
		c0.31,0.911,0.65,1.811,1.214,3.377c3.655-10.511,7.115-20.418,10.546-30.336c10.832-31.309,21.653-62.621,32.479-93.932
		c0.63-1.823,1.001-3.447,3.784-3.427c21.222,0.15,42.445,0.088,63.668,0.1C766.852,234.274,767.208,234.384,768.138,234.538z"/>
	<path fill="#FFFFFF" d="M853.729,522.842c-5.858-8.99-15.001-10.991-24.297-11.106c-29.392-0.365-58.792-0.138-88.188-0.131
		c-0.344,0-0.689,0.129-1.353,0.261c0,51.757,0,103.519,0,155.489c-22.226,0-44.124,0-66.505,0c0-51.853,0-103.618,0-155.731
		c-19.08,0-37.681,0-56.54,0c0-16.86,0-33.37,0-50.38c1.414,0,2.713,0,4.013,0c63.429,0.006,126.858-0.049,190.287,0.107
		c6.897,0.017,13.879,0.767,20.667,2.016c14.244,2.619,21.038,10.066,21.946,24.549c0.701,11.182,0.357,22.43,0.457,33.649
		C854.217,521.869,853.992,522.174,853.729,522.842z"/>
	<path fill="#FFFFFF" d="M259.253,391.6c1.533,0,2.842,0,4.151,0c13.78,0,27.562-0.109,41.34,0.041
		c8.651,0.094,16.873,2.041,24.2,6.943c8.022,5.367,12.48,12.99,13.2,22.472c0.515,6.777,0.1,13.624,0.1,20.711
		c-49.167,0-98.227,0-147.508,0c0-69.002,0-137.963,0-207.217c21.458,0,42.84,0,64.517,0
		C259.253,286.784,259.253,339.004,259.253,391.6z"/>
</g>
</svg>
