<?xml version="1.0" encoding="utf-8"?>
<!-- Generator: Adobe Illustrator 22.1.0, SVG Export Plug-In . SVG Version: 6.00 Build 0)  -->
<svg version="1.2" baseProfile="tiny" xmlns="http://www.w3.org/2000/svg" xmlns:xlink="http://www.w3.org/1999/xlink" x="0px"
	 y="0px" viewBox="0 0 1600 900" xml:space="preserve">
<g id="Layer_1">
	<g>
		<polygon fill="#A7A5A5" points="761.9,378.5 735.3,378.5 695.6,468.8 676.6,378.5 649.2,378.5 610.9,522 636.1,522 662.6,422.3 
			663,422.3 683.7,522 695.6,522 739.3,425.1 739.6,425.1 743.2,522 767.4,522 		"/>
		<polygon fill="#A7A5A5" points="874,378.5 800.5,378.5 783.9,522 870,522 872.8,498.1 811.7,498.1 816,460.4 858.6,460.4 
			861.4,436.4 818.8,436.4 822.8,402.5 871.2,402.5 		"/>
		<path fill="#A7A5A5" d="M939.9,379h-39.2l-16.4,143h60.7c31.4,0,55.5-30.7,55.5-73.4C1000.6,417.5,986.8,379,939.9,379z
			 M935.6,498h-23.5l10.9-95h12.1c25.9,0,39.7,20,39.7,45.2C974.8,473,963.4,498,935.6,498z"/>
		<polygon fill="#A7A5A5" points="1056,378.5 1031,378.5 1014.4,522 1039.5,522 		"/>
		<path fill="#A7A5A5" d="M1138.3,377h-26.6l-57.6,145h27.6l11.4-31h36.6l3.6,31h25.7L1138.3,377z M1100.4,470l20.7-63h0.4l6.2,63
			H1100.4z"/>
		<path fill="#A7A5A5" d="M1254.4,388c-10.2-7.4-22.3-11.4-33.6-11.4c-23.8,0-41.4,18.5-41.4,43.3c0,37.7,43.3,40.4,43.3,64.2
			c0,9.5-6.7,15.8-16.9,15.8c-9.8,0-23.8-6.3-33.3-14.7l-3.8,25c10.5,8.4,22.9,13.7,40,13.7c26.4,0,39.9-20.8,39.9-44
			c0-40.2-43.3-42.9-43.3-63.5c0-9.5,7.4-15.8,16.6-15.8c9,0,21.6,5.9,29.2,12.6L1254.4,388z"/>
		<polygon fill="#A7A5A5" points="1353.8,378.5 1280.3,378.5 1263.8,522 1349.9,522 1352.6,498.1 1291.5,498.1 1295.8,460.4 
			1338.5,460.4 1341.2,436.4 1298.6,436.4 1302.6,402.5 1351.1,402.5 		"/>
		<polygon fill="#A7A5A5" points="1472,378.5 1371.4,378.5 1368.6,402.5 1405.9,402.5 1392.1,522 1417.1,522 1430.9,402.5 
			1469.2,402.5 		"/>
		<path id="path3121" fill="#1478C7" d="M215.7,462.7c13.9,0,25.2-11.3,25.2-25.2c0-13.9-11.3-25.2-25.2-25.2
			c-13.9,0-25.2,11.3-25.2,25.2C190.5,451.5,201.8,462.7,215.7,462.7 M192,494.8l-2.2,0.5c-9,8.1-22.7,7.7-31.2-0.7
			c-8.5-8.6-8.8-22.2-0.7-31.1l0.5-2.2l-1.9-1.2c-12.1-0.6-21.5-10.6-21.5-22.5c0-12.1,9.5-21.9,21.5-22.5l1.9-1.2l-0.5-2.2
			c-8.1-9-7.7-22.7,0.7-31.2c8.6-8.6,22.2-8.8,31.1-0.7l2.2,0.5c0.7-0.4,1.1-1.1,1.2-1.9c0.6-12.1,10.6-21.5,22.5-21.5
			c12.1,0,21.9,9.5,22.5,21.5l1.2,1.9l2.2-0.5c9-8.1,22.7-7.7,31.2,0.7c8.6,8.6,8.8,22.2,0.7,31.1l-0.5,2.2c0.4,0.7,1.1,1.1,1.9,1.2
			c12.1,0.6,21.5,10.6,21.5,22.5c0,12.1-9.5,21.9-21.5,22.5l-1.9,1.2l0.5,2.2c8.1,9,7.7,22.7-0.7,31.2c-8.6,8.6-22.2,8.8-31.1,0.7
			l-2.2-0.5c-0.7,0.4-1.1,1.1-1.2,1.9c-0.6,12.1-10.6,21.5-22.5,21.5c-12.1,0-21.9-9.5-22.5-21.5L192,494.8"/>
		<path id="path3125" fill="#A7A5A5" d="M220.7,517.6L220.7,517.6c4.3-1,8.2-3.2,11.2-6.3c22.2,42.9,67,72.2,118.5,72.2
			c46.3,0,87.1-23.7,111-59.6l-151.7-0.1c0-37.4,30.3-65.4,67.6-65.4l173.6,0.1c0,37.4-30.3,65.4-67.6,65.4h-6.8
			c-25.4,43.3-72.4,72.4-126.1,72.4C294,596.3,245.1,564.3,220.7,517.6"/>
		<path id="path3129" fill="#A7A5A5" d="M295.9,433.1h77l3.7-33.2h63.9c12.1,0,22.8-0.8,32.3-2.2c-20.4-47.5-67.6-80.8-122.5-80.8
			c-47,0-88.4,24.5-112.1,61.3c-0.3-5.4-2.5-10.3-5.9-14c26.6-36.4,69.6-60.1,118-60.1c61.2,0,113.7,37.8,135.4,91.3
			c51.2-11.4,61.9-40.5,61.9-40.5h3.7v90.9H371.4h-76.7c1-2.5,1.6-5.3,1.6-8.2C296.3,436,296.2,434.5,295.9,433.1"/>
	</g>
</g>
<g id="Laag_2" display="none">
</g>
</svg>
