<?xml version="1.0" encoding="utf-8"?>
<!-- Generator: Adobe Illustrator 22.1.0, SVG Export Plug-In . SVG Version: 6.00 Build 0)  -->
<svg version="1.1" id="Layer_1" xmlns="http://www.w3.org/2000/svg" xmlns:xlink="http://www.w3.org/1999/xlink" x="0px" y="0px"
	 viewBox="0 0 1600 900" enable-background="new 0 0 1600 900" xml:space="preserve">
<g>
	<path id="path9889_1_" fill="#F03120" d="M732.733,422.486c0.762-5.378,1.165-10.352,1.165-14.924v-14.386
		c0-13.042-1.255-23.752-3.765-32.223c-2.464-8.425-5.915-15.103-10.352-20.122c-4.391-4.975-9.769-8.515-16.088-10.622
		c-6.32-2.107-13.132-3.182-20.391-3.182c-13.042,0-23.799,2.599-32.223,7.799c-8.426,5.153-15.148,12.144-20.123,20.973
		c-4.974,8.83-8.739,18.958-11.204,30.476c-2.51,11.518-4.123,23.574-4.885,36.213H732.733z M614.283,430.553
		c0,3.809-0.09,7.753-0.269,11.786c-0.224,4.035-0.314,9.098-0.314,15.24c0,12.636,0.762,25.859,2.286,39.661
		c1.569,13.804,4.93,26.263,10.084,37.378c5.154,11.114,12.818,20.303,22.991,27.608c10.174,7.305,23.663,10.889,40.559,10.889
		c16.852,0,30.745-2.465,41.681-7.44c10.934-4.973,19.54-11.024,25.859-18.106c6.319-7.082,11.025-14.297,14.117-21.601
		c3.047-7.259,5.333-13.177,6.902-17.792l8.605,1.705c-1.165,4.258-3.361,10.262-6.587,18.104
		c-3.273,7.888-8.426,15.732-15.552,23.62c-7.126,7.842-16.672,14.742-28.772,20.661c-12.056,5.958-27.652,8.917-46.833,8.917
		s-36.884-3.048-53.198-9.187c-16.313-6.139-30.385-14.968-42.261-26.442c-11.876-11.519-21.064-25.232-27.607-41.141
		c-6.499-15.911-9.771-33.615-9.771-53.153c0-16.896,3.361-33.255,10.084-49.164c6.722-15.91,15.864-29.982,27.562-42.261
		c11.697-12.28,25.411-22.14,41.141-29.624c15.686-7.484,32.582-11.204,50.599-11.204c10.71,0,22.229,1.883,34.508,5.736
		c12.28,3.809,23.663,10.084,34.195,18.689c10.533,8.65,19.361,20.033,26.442,34.195c7.125,14.206,10.666,31.863,10.666,52.928
		H614.283z"/>
	<path id="path9893_1_" fill="#F03120" d="M820.453,326.454h182.268L859.531,565.1h81.075c11.112,0,20.21-2.195,27.336-6.631
		c7.082-4.392,12.819-9.948,17.253-16.672c4.395-6.678,7.844-13.893,10.355-21.555c2.465-7.665,4.885-14.97,7.17-21.827h4.616
		l-7.484,74.709H799.747L942.89,334.52h-49.43c-9.593,0-17.927,0.268-25.009,0.851c-7.082,0.583-13.49,2.599-19.227,6.051
		c-5.781,3.451-11.159,9.008-16.134,16.672c-4.973,7.664-10.352,18.598-16.087,32.761h-4.618L820.453,326.454z"/>
	<path id="path9899_1_" fill="#F03120" d="M1038.094,326.454h182.27L1077.22,565.1h81.073c11.07,0,20.213-2.195,27.292-6.631
		c7.082-4.392,12.817-9.948,17.256-16.672c4.39-6.678,7.842-13.893,10.352-21.555c2.464-7.665,4.885-14.97,7.17-21.827h4.615
		l-7.484,74.709h-200.107l143.19-238.603H1111.1c-9.589,0-17.881,0.268-25.007,0.851c-7.08,0.583-13.49,2.599-19.272,6.051
		c-5.735,3.451-11.114,9.008-16.087,16.672c-4.975,7.664-10.353,18.598-16.09,32.761h-4.615L1038.094,326.454z"/>
	<path id="path9903_1_" fill="#F03120" d="M1290.541,450.088c0,27.204,2.107,48.896,6.32,64.986
		c4.213,16.087,9.769,28.456,16.673,37.108c6.901,8.604,14.968,14.25,24.154,16.94c9.189,2.687,18.958,3.988,29.311,3.988
		c10.352,0,20.122-1.301,29.355-3.988c9.187-2.69,17.255-8.336,24.156-16.94c6.901-8.652,12.413-21.021,16.67-37.108
		c4.169-16.09,6.32-37.782,6.32-64.986c0-22.991-1.524-42.261-4.615-57.768c-3.048-15.552-7.754-28.19-14.074-37.959
		c-6.318-9.771-14.296-16.762-23.887-20.974c-9.591-4.258-20.884-6.364-33.926-6.364c-13.042,0-24.335,2.107-33.926,6.364
		c-9.591,4.212-17.523,11.204-23.843,20.974c-6.318,9.769-11.024,22.408-14.071,37.959
		C1292.065,407.827,1290.541,427.097,1290.541,450.088 M1233.042,450.088c0-18.777,4.123-36.212,12.371-52.3
		c8.246-16.135,18.777-30.027,31.64-41.725c12.817-11.652,27.158-20.75,43.113-27.293c15.911-6.498,31.506-9.769,46.833-9.769
		c15.328,0,30.969,3.272,46.878,9.769c15.911,6.543,30.295,15.641,43.115,27.293c12.861,11.697,23.392,25.59,31.64,41.725
		c8.246,16.088,12.369,33.523,12.369,52.3c0,18.017-3.854,35.001-11.518,50.912c-7.663,15.867-17.746,29.803-30.161,41.679
		c-12.503,11.876-26.756,21.242-42.845,28.189c-16.087,6.859-32.581,10.308-49.477,10.308c-16.851,0-33.343-3.449-49.432-10.308
		c-16.09-6.945-30.386-16.313-42.845-28.189c-12.459-11.876-22.498-25.813-30.161-41.679
		C1236.851,485.089,1233.042,468.105,1233.042,450.088"/>
	<path id="path9907_1_" fill="#F03120" d="M192.756,437.441c0-19.943,2.779-36.795,8.335-50.598
		c5.558-13.804,12.459-25.008,20.706-33.612c8.246-8.65,17.164-14.969,26.756-19.002c9.545-4.033,18.374-6.006,26.441-6.006
		c11.473,0,20.661,3.988,27.563,12.055c6.902,8.023,10.398,20.482,10.398,37.378V568.26c-49.658,14.297-90.395,7.038-120.198-5.333
		V437.441z M362.388,418.484c0-15.328,2.375-28.773,7.17-40.245c4.795-11.519,11.025-20.93,18.689-28.19
		c7.663-7.305,16.313-12.728,25.903-16.403c9.546-3.629,19.137-5.423,28.728-5.423c12.279,0,21.96,3.63,29.041,10.89
		c7.081,7.305,10.622,17.433,10.622,30.476v149.687c-36.437-0.627-77.264,7.351-120.153,28.728V418.484z M143.324,532.81
		c23.574,23.216,101.24,84.882,215.164,26.04c63.102-32.537,124.948-28.862,173.53-15.284V405.801
		c0-57.096-28.01-85.644-83.986-85.644c-11.876,0-22.498,1.524-31.91,4.571c-9.366,3.093-17.523,7.216-24.425,12.37
		c-6.857,5.198-12.638,11.025-17.255,17.523c-4.571,6.543-8.246,13.221-10.935,20.167h-1.12
		c-4.616-19.584-14.297-33.567-29.041-41.993s-31.731-12.638-50.912-12.638c-21.467,0-39.752,5.333-54.9,16.09
		c-15.148,10.755-26.71,27.606-34.777,50.597h-1.165v-60.368H99v8.021h44.324V532.81z"/>
</g>
</svg>
