<?xml version="1.0" encoding="utf-8"?>
<!-- Generator: Adobe Illustrator 22.1.0, SVG Export Plug-In . SVG Version: 6.00 Build 0)  -->
<svg version="1.1" id="Layer_1" xmlns="http://www.w3.org/2000/svg" xmlns:xlink="http://www.w3.org/1999/xlink" x="0px" y="0px"
	 viewBox="0 0 1600 900" enable-background="new 0 0 1600 900" xml:space="preserve">
<g>
	<path fill="#D6D9DC" d="M710.265,465.293l34.366,28.93v56.891h-34.366V465.293z M824.488,498.435l7.764-6.557v-24.225
		l-36.548,30.781H824.488z M795.831,135.38l-6.234-6.592L710.58,94.084l62.259,65.504L795.831,135.38z M1134.687,551.113h38.12
		V297.423c-9.973,13.164-27.92,41.092-38.12,60.73V551.113z M1134.687,96.191v162.229c10.94-15.135,28.997-36.896,38.12-46.408
		v-92.94L1134.687,96.191z M1000.138,271.109c-31.376,18.992-37.585,23.715-48.958,31.053c0,19.639,0,229.279,0,248.951h155.894
		v-130.99c-7.509,21.285-15.331,47.039-20.385,64.314c-7.636,26.076-14.073,32.922-32.667,32.922
		c-14.507,0-23.842-4.842-30.543-22.559c-3.678-9.615-29.082-76.273-33.891-88.912c-12.111-32.022-19.212-56.381-19.212-70.397
		c0-24.734,17.335-33.771,33.847-33.771c22.348,0,26.315,21.133,29.346,41.127c1.563,10.363,4.927,38.426,6.524,53.443
		c0.739,6.896,1.402,14.607,9.199,14.607c7.117,0,9.598-10.123,15.008-24.139c13.327-34.604,31.877-68.662,42.774-87.01V93.999
		H873.549L772.634,199.66L672.595,93.999H433.183v457.113h249.35V406.142l90.102,75.51l87.29-73.217v142.678h38.06
		c-0.373-7.525,0-102.213,0-180.627c0-23.426-4.935-29.133-12.511-29.133c-8.443,0-22.882,11.652-38.612,22.848
		c-25.261,17.955-38.858,32.242-55.2,32.242c-9.641,0-15.128-4.248-21.261-12.078c-1.154-1.461-4.391-7.916-4.391-13.098
		c0-5.809,2.327-12.469,11.203-17.82c9.614-5.809,20.267-4.705,43.071-18.465c27.053-16.342,52.482-30.85,57.682-34.162
		c9.309-4.857,7.074-12.367,7.074-19.365c0-15.17,13.624-20.435,25.261-20.435c11.229,0,18.159,4.145,19.858,4.926
		c4.188-2.344,15.017-8.51,35.453-20.996c13.394-8.205,20.613-24.24,36.607-24.24c6.668,0,12.588,1.307,18.1,5.707
		c7.883,6.473,9.352,10.09,9.352,15.662C1029.671,254.582,1010.271,264.976,1000.138,271.109z"/>
	<g>
		<path fill="#CF4B41" d="M1172.815,772.884c0,11.619-9.504,21.115-21.123,21.115H454.334c-11.638,0-21.15-9.496-21.15-21.115
			V603.961c0-11.602,9.513-21.133,21.15-21.133h697.358c11.619,0,21.123,9.531,21.123,21.133V772.884z"/>
		<g>
			<path fill="#23141E" d="M540.214,710.115c0,4.144-0.782,8.053-2.379,11.67c-1.571,3.619-3.746,6.762-6.473,9.43
				c-2.717,2.684-5.886,4.807-9.479,6.387c-3.618,1.613-7.5,2.395-11.662,2.395h-24.496c-1.868,0-3.457-0.645-4.73-1.935
				c-1.283-1.275-1.928-2.871-1.928-4.758v-89.506c0-1.885,0.645-3.465,1.928-4.756c1.273-1.291,2.862-1.938,4.73-1.938h23.154
				c3.975,0,7.729,0.766,11.27,2.225c3.567,1.496,6.634,3.551,9.225,6.184c2.565,2.617,4.62,5.709,6.149,9.225
				c1.546,3.518,2.302,7.254,2.302,11.213c0,6.846-2.021,12.74-6.09,17.699c-0.807,0.986-1.197,1.971-1.197,2.973
				c0,1.105,0.433,2.09,1.333,2.957c2.693,2.582,4.748,5.639,6.184,9.156C539.491,702.25,540.214,706.039,540.214,710.115z
				 M522.214,665.201c0-1.869-0.373-3.652-1.13-5.316c-0.764-1.699-1.766-3.195-2.98-4.502c-1.266-1.275-2.727-2.293-4.426-3.041
				c-1.69-0.73-3.482-1.121-5.394-1.121h-9.249c-1.215,0-2.26,0.408-3.092,1.205c-0.842,0.799-1.266,1.785-1.266,2.957v20.826
				c0,1.19,0.424,2.209,1.266,3.041c0.832,0.85,1.877,1.273,3.092,1.273h9.249c1.911,0,3.703-0.391,5.394-1.104
				c1.699-0.766,3.16-1.768,4.426-2.99c1.215-1.223,2.217-2.701,2.98-4.383c0.757-1.682,1.13-3.516,1.13-5.486V665.201z
				 M524.592,709.521c0-4.18-1.452-7.695-4.34-10.549c-2.897-2.889-6.422-4.332-10.635-4.332h-10.591
				c-1.206,0-2.251,0.391-3.083,1.189c-0.842,0.797-1.266,1.799-1.266,2.988v22.9c0,1.172,0.424,2.156,1.266,2.973
				c0.832,0.797,1.877,1.189,3.083,1.189h10.591c4.213,0,7.738-1.445,10.635-4.332c2.888-2.871,4.34-6.389,4.34-10.551V709.521z"/>
			<path fill="#23141E" d="M598.267,702.386c-0.79,0.492-1.172,1.02-1.172,1.631c0,0.186,0.187,0.695,0.586,1.477l12.494,23.646
				c0.688,1.41,1.045,2.617,1.045,3.721c0,2.072-0.747,3.789-2.233,5.113c-1.487,1.359-3.186,2.021-5.071,2.021
				c-3.262,0-5.589-1.426-6.99-4.297l-14.66-27.537c-0.391-0.68-0.951-1.189-1.631-1.547c-0.705-0.338-1.47-0.525-2.251-0.525
				h-5.538c-1.188,0-2.226,0.441-3.066,1.359c-0.85,0.865-1.266,1.902-1.266,3.107v22.746c0,1.887-0.62,3.482-1.919,4.758
				c-1.283,1.291-2.854,1.935-4.714,1.935h-2.352c-1.878,0-3.449-0.645-4.74-1.935c-1.274-1.275-1.894-2.871-1.894-4.758v-89.506
				c0-1.885,0.628-3.465,1.919-4.756c1.3-1.291,2.871-1.938,4.757-1.938h23.893c3.465,0,6.76,0.527,9.886,1.58
				c3.109,1.02,5.911,2.514,8.442,4.434c2.54,1.953,4.723,4.213,6.608,6.846c1.868,2.65,3.321,5.486,4.307,8.545
				c0.501,1.393,0.858,3.041,1.112,4.91c0.246,1.885,0.382,4.619,0.382,8.205c0,3.549-0.136,6.285-0.382,8.152
				c-0.254,1.887-0.594,3.518-1.112,4.928c-1.173,3.838-3.015,7.27-5.52,10.242C604.679,697.902,601.708,700.38,598.267,702.386z
				 M583.464,691.972c3.185,0,6.004-0.865,8.459-2.531c2.446-1.682,4.205-3.906,5.291-6.693c0.408-0.9,0.73-2.055,0.978-3.498
				c0.246-1.428,0.382-3.688,0.382-6.762v-1.783c0-3.074-0.136-5.334-0.382-6.762c-0.247-1.443-0.569-2.598-0.978-3.498
				c-1.086-2.752-2.845-4.996-5.291-6.678c-2.455-1.682-5.274-2.547-8.459-2.547h-10.627c-1.18,0-2.217,0.408-3.058,1.205
				c-0.85,0.799-1.266,1.785-1.266,2.957v32.275c0,1.088,0.416,2.09,1.266,2.973c0.841,0.883,1.878,1.342,3.058,1.342H583.464z"/>
			<path fill="#23141E" d="M670.557,722.583c-0.213-1.172-0.696-2.207-1.495-3.125c-0.781-0.883-1.835-1.309-3.117-1.309h-23.816
				c-1.282,0-2.318,0.426-3.126,1.309c-0.773,0.918-1.282,1.953-1.478,3.125l-2.387,12.061c-0.399,1.988-1.188,3.535-2.37,4.621
				c-1.197,1.088-2.734,1.631-4.611,1.631h-0.45c-1.792,0-3.415-0.492-4.825-1.426c-1.452-0.935-2.174-2.531-2.174-4.826
				c0-0.492,0.042-0.951,0.076-1.342c0.06-0.406,0.137-0.832,0.229-1.342l17.421-86.074c0.568-2.871,1.869-5.385,3.848-7.51
				c1.996-2.139,4.561-3.209,7.746-3.209h8.018c3.185,0,5.776,1.07,7.746,3.209c1.979,2.125,3.271,4.639,3.865,7.51l17.42,86.074
				c0.103,0.51,0.17,0.935,0.213,1.342c0.06,0.391,0.094,0.85,0.094,1.342c0,2.295-0.739,3.891-2.158,4.826
				c-1.451,0.934-3.065,1.426-4.841,1.426h-0.45c-1.895,0-3.423-0.543-4.621-1.631c-1.197-1.086-1.979-2.633-2.369-4.621
				L670.557,722.583z M655.982,649.894c-0.195-1.291-0.858-1.918-1.937-1.918c-1.104,0-1.741,0.627-1.945,1.918l-10.125,50.42
				c-0.186,0.984-0.279,1.732-0.279,2.207c0,0.596,0.187,1.121,0.586,1.547c0.408,0.459,1.087,0.695,2.089,0.695h19.341
				c0.977,0,1.689-0.236,2.08-0.695c0.4-0.426,0.604-0.951,0.604-1.547c0-0.475-0.102-1.223-0.306-2.207L655.982,649.894z"/>
			<path fill="#23141E" d="M722.25,689.578c-1.384-3.363-2.31-5.895-2.752-7.561c-0.449-1.697-1.069-2.547-1.86-2.547
				c-0.908,0-1.333,0.746-1.333,2.242c0,0.713,0.042,1.596,0.136,2.734c0.119,1.156,0.152,3.16,0.152,6.031v42.824
				c0,1.887-0.645,3.482-1.936,4.758c-1.3,1.291-2.88,1.935-4.757,1.935h-2.242c-1.86,0-3.466-0.645-4.757-1.935
				c-1.291-1.275-1.92-2.871-1.92-4.758v-89.506c0-1.885,0.629-3.465,1.92-4.756c1.291-1.291,2.896-1.938,4.757-1.938h1.358
				c1.775,0,3.457,0.408,5.062,1.189c1.58,0.799,2.803,2.275,3.712,4.467l19.179,44.729c1.401,3.398,2.311,5.912,2.761,7.611
				c0.441,1.682,1.078,2.529,1.86,2.529c0.9,0,1.333-0.746,1.333-2.242c0-0.695-0.042-1.596-0.136-2.752
				c-0.119-1.137-0.152-3.143-0.152-6.014v-42.824c0-1.885,0.645-3.465,1.944-4.756c1.282-1.291,2.871-1.938,4.748-1.938h2.242
				c1.886,0,3.466,0.646,4.757,1.938c1.291,1.291,1.937,2.871,1.937,4.756v89.506c0,1.887-0.646,3.482-1.937,4.758
				c-1.291,1.291-2.871,1.935-4.757,1.935h-1.351c-1.783,0-3.474-0.408-5.045-1.172c-1.597-0.799-2.829-2.293-3.721-4.467
				L722.25,689.578z"/>
			<path fill="#23141E" d="M784.696,739.996c-1.877,0-3.466-0.645-4.749-1.935c-1.282-1.275-1.927-2.871-1.927-4.758v-89.506
				c0-1.885,0.644-3.465,1.927-4.756c1.283-1.291,2.872-1.938,4.749-1.938h23.884c3.482,0,6.77,0.527,9.887,1.58
				c3.117,1.02,5.937,2.514,8.477,4.434c2.505,1.953,4.705,4.213,6.599,6.846c1.868,2.65,3.312,5.486,4.307,8.545
				c0.186,0.713,0.374,1.461,0.568,2.328c0.213,0.832,0.374,1.852,0.544,3.039c0.137,1.207,0.221,2.65,0.289,4.383
				c0.042,1.734,0.068,3.891,0.068,6.473v27.656c0,2.564-0.026,4.723-0.068,6.473c-0.068,1.732-0.152,3.176-0.289,4.383
				c-0.17,1.172-0.331,2.191-0.544,3.039c-0.194,0.85-0.382,1.615-0.568,2.295c-0.994,3.193-2.439,6.047-4.307,8.629
				c-1.893,2.582-4.094,4.824-6.599,6.762c-2.541,1.936-5.36,3.43-8.477,4.467s-6.404,1.562-9.887,1.562H784.696z M808.58,725.88
				c3.211,0,6.03-0.867,8.46-2.531c2.438-1.682,4.221-3.926,5.291-6.678c0.231-0.424,0.399-0.916,0.535-1.512
				c0.17-0.594,0.306-1.393,0.459-2.377c0.137-0.986,0.255-2.242,0.297-3.789c0.061-1.545,0.094-3.447,0.094-5.725v-29.422
				c0-2.293-0.033-4.195-0.094-5.742c-0.042-1.529-0.16-2.803-0.297-3.787c-0.153-0.986-0.289-1.75-0.459-2.31
				c-0.136-0.561-0.305-1.055-0.535-1.562c-1.07-2.752-2.854-4.996-5.291-6.678c-2.43-1.682-5.249-2.547-8.46-2.547h-10.601
				c-1.197,0-2.217,0.408-3.065,1.205c-0.85,0.799-1.274,1.785-1.274,2.957v66.336c0,1.172,0.425,2.156,1.274,2.973
				c0.849,0.797,1.868,1.189,3.065,1.189H808.58z"/>
			<path fill="#23141E" d="M902.392,689.578c-1.401-3.363-2.318-5.895-2.751-7.561c-0.459-1.697-1.079-2.547-1.869-2.547
				c-0.884,0-1.334,0.746-1.334,2.242c0,0.713,0.052,1.596,0.145,2.734c0.111,1.156,0.144,3.16,0.144,6.031v42.824
				c0,1.887-0.629,3.482-1.92,4.758c-1.282,1.291-2.887,1.935-4.756,1.935h-2.234c-1.894,0-3.49-0.645-4.756-1.935
				c-1.291-1.275-1.937-2.871-1.937-4.758v-89.506c0-1.885,0.646-3.465,1.937-4.756c1.266-1.291,2.862-1.938,4.756-1.938h1.334
				c1.783,0,3.482,0.408,5.062,1.189c1.579,0.799,2.828,2.275,3.72,4.467l19.196,44.729c1.384,3.398,2.302,5.912,2.752,7.611
				c0.434,1.682,1.044,2.529,1.852,2.529c0.9,0,1.342-0.746,1.342-2.242c0-0.695-0.059-1.596-0.161-2.752
				c-0.094-1.137-0.153-3.143-0.153-6.014v-42.824c0-1.885,0.637-3.465,1.954-4.756c1.282-1.291,2.88-1.938,4.756-1.938h2.243
				c1.877,0,3.457,0.646,4.765,1.938c1.274,1.291,1.928,2.871,1.928,4.756v89.506c0,1.887-0.653,3.482-1.928,4.758
				c-1.308,1.291-2.888,1.935-4.765,1.935h-1.343c-1.792,0-3.474-0.408-5.062-1.172c-1.571-0.799-2.845-2.293-3.72-4.467
				L902.392,689.578z"/>
			<path fill="#23141E" d="M978.105,694.181c-1.206,0-2.217,0.408-3.057,1.205c-0.858,0.799-1.267,1.785-1.267,2.973v23.359
				c0,1.172,0.408,2.156,1.267,2.973c0.84,0.797,1.851,1.189,3.057,1.189h29.159c1.877,0,3.432,0.645,4.69,1.936
				c1.23,1.291,1.852,2.854,1.852,4.756v0.731c0,1.887-0.621,3.482-1.852,4.758c-1.258,1.291-2.812,1.935-4.69,1.935h-42.469
				c-1.877,0-3.44-0.645-4.73-1.935c-1.248-1.275-1.895-2.871-1.895-4.758v-89.506c0-1.885,0.646-3.465,1.895-4.756
				c1.291-1.291,2.853-1.938,4.73-1.938h42.469c1.877,0,3.432,0.646,4.69,1.938c1.23,1.291,1.852,2.871,1.852,4.756v0.731
				c0,1.988-0.621,3.602-1.852,4.842c-1.258,1.24-2.812,1.852-4.69,1.852h-29.159c-1.206,0-2.217,0.408-3.057,1.205
				c-0.858,0.799-1.267,1.785-1.267,2.957v21.131c0,1.174,0.408,2.191,1.267,3.059c0.84,0.832,1.851,1.24,3.057,1.24h16.657
				c1.893,0,3.474,0.662,4.773,1.936c1.266,1.309,1.928,2.871,1.928,4.74c0,1.92-0.662,3.482-1.928,4.773
				c-1.3,1.291-2.88,1.92-4.773,1.92H978.105z"/>
			<path fill="#23141E" d="M1076.208,637.103c1.996,0,3.533,0.662,4.68,2.021c1.139,1.326,1.861,2.889,2.158,4.672l13.556,83.408
				c0.195,1.291,0.841,1.936,1.928,1.936c1.079,0,1.724-0.645,1.938-1.936l13.682-84.75c0.307-1.971,1.07-3.518,2.293-4.586
				c1.24-1.123,2.804-1.648,4.715-1.648h0.434c1.783,0,3.396,0.459,4.832,1.41c1.444,0.934,2.149,2.547,2.149,4.824
				c0,0.492-0.017,0.951-0.051,1.342c-0.067,0.391-0.144,0.85-0.246,1.342l-13.818,86.076c-0.493,2.887-1.776,5.385-3.789,7.525
				c-2.047,2.123-4.647,3.193-7.831,3.193h-7.423c-3.194,0-5.785-1.07-7.807-3.193c-2.047-2.141-3.312-4.639-3.813-7.525
				l-5.359-35.08c-0.288-1.783-0.535-3.84-0.739-6.184c-0.195-2.326-0.407-4.553-0.586-6.676c-0.212-2.141-0.348-4.043-0.45-5.742
				c-0.11-1.664-0.136-2.803-0.136-3.414c0-0.68-0.365-1.035-1.053-1.035c-0.705,0-1.045,0.356-1.045,1.035
				c0,0.611-0.043,1.75-0.162,3.414c-0.076,1.699-0.229,3.602-0.433,5.742c-0.195,2.123-0.4,4.35-0.586,6.676
				c-0.222,2.344-0.468,4.4-0.756,6.184l-5.368,35.08c-0.492,2.887-1.758,5.385-3.771,7.525c-2.047,2.123-4.654,3.193-7.822,3.193
				h-7.441c-3.184,0-5.775-1.07-7.797-3.193c-2.038-2.141-3.312-4.639-3.821-7.525l-13.819-86.076
				c-0.102-0.492-0.188-0.951-0.221-1.342c-0.06-0.391-0.077-0.85-0.077-1.342c0-2.277,0.713-3.891,2.166-4.824
				c1.427-0.951,3.032-1.41,4.824-1.41h0.459c1.868,0,3.431,0.525,4.671,1.648c1.24,1.068,1.997,2.615,2.303,4.586l13.709,84.75
				c0.203,1.291,0.84,1.936,1.919,1.936c1.087,0,1.733-0.645,1.954-1.936l13.514-83.408c0.313-1.783,1.019-3.346,2.174-4.672
				c1.129-1.359,2.701-2.021,4.688-2.021H1076.208z"/>
		</g>
	</g>
</g>
</svg>
