<?xml version="1.0" encoding="utf-8"?>
<!-- Generator: Adobe Illustrator 22.1.0, SVG Export Plug-In . SVG Version: 6.00 Build 0)  -->
<svg version="1.1" id="Layer_1" xmlns="http://www.w3.org/2000/svg" xmlns:xlink="http://www.w3.org/1999/xlink" x="0px" y="0px"
	 viewBox="0 0 1600 900" enable-background="new 0 0 1600 900" xml:space="preserve">
<g>
	<g>
		<path fill="#D6D9DC" d="M706.265,474.293l34.366,28.93v56.891h-34.366V474.293z M820.489,507.435l7.763-6.557v-24.225
			l-36.549,30.781H820.489z M791.831,144.38l-6.234-6.592l-79.017-34.705l62.259,65.504L791.831,144.38z M1130.687,560.113h38.12
			V306.423c-9.971,13.164-27.919,41.092-38.12,60.73V560.113z M1130.687,105.191v162.229c10.94-15.135,28.998-36.896,38.12-46.408
			v-92.94L1130.687,105.191z M996.138,280.109c-31.375,18.992-37.584,23.715-48.957,31.053c0,19.639,0,229.279,0,248.951h155.893
			v-130.99c-7.508,21.285-15.331,47.039-20.385,64.314c-7.636,26.076-14.073,32.922-32.666,32.922
			c-14.508,0-23.842-4.842-30.544-22.559c-3.678-9.615-29.082-76.273-33.89-88.912c-12.112-32.022-19.213-56.381-19.213-70.397
			c0-24.734,17.335-33.771,33.848-33.771c22.346,0,26.313,21.133,29.346,41.127c1.562,10.363,4.926,38.426,6.523,53.443
			c0.739,6.896,1.402,14.607,9.199,14.607c7.117,0,9.598-10.123,15.009-24.139c13.326-34.604,31.876-68.662,42.774-87.01v-205.75
			H869.548L768.635,208.66l-100.039-105.66H429.184v457.113h249.35V415.142l90.102,75.51l87.289-73.217v142.678h38.06
			c-0.373-7.525,0-102.213,0-180.627c0-23.426-4.934-29.133-12.511-29.133c-8.442,0-22.882,11.652-38.612,22.848
			c-25.26,17.955-38.86,32.242-55.201,32.242c-9.64,0-15.127-4.248-21.26-12.078c-1.154-1.461-4.391-7.916-4.391-13.098
			c0-5.809,2.327-12.469,11.203-17.82c9.615-5.809,20.267-4.705,43.073-18.465c27.052-16.342,52.482-30.85,57.681-34.162
			c9.308-4.857,7.075-12.367,7.075-19.365c0-15.17,13.624-20.435,25.26-20.435c11.229,0,18.159,4.145,19.858,4.926
			c4.188-2.344,15.017-8.51,35.453-20.996c13.394-8.205,20.614-24.24,36.607-24.24c6.667,0,12.588,1.307,18.101,5.707
			c7.882,6.473,9.351,10.09,9.351,15.662C1025.672,263.582,1006.271,273.976,996.138,280.109z"/>
		<g>
			<path fill="#D8BFD7" d="M1168.816,781.884c0,11.619-9.505,21.115-21.124,21.115H450.333c-11.637,0-21.15-9.496-21.15-21.115
				V612.961c0-11.602,9.513-21.133,21.15-21.133h697.359c11.619,0,21.124,9.531,21.124,21.133V781.884z"/>
		</g>
	</g>
	<path fill="#23141D" d="M930.363,757.711c0,3.771-4.536,6.846-10.124,6.846l0,0c-5.589,0-10.125-3.074-10.125-6.846V638.458
		c0-3.771,4.536-6.846,10.125-6.846l0,0c5.588,0,10.124,3.074,10.124,6.846V757.711z"/>
	<path fill="#23141D" d="M759.776,730.785v-92.326c0-3.771-4.536-6.846-10.125-6.846l0,0c-5.593,0-10.128,3.074-10.128,6.846v92.055
		c0,12.486-9.446,14.711-17.778,14.711c-8.332,0-17.505-4.162-17.505-15.543v-91.223c0-3.771-4.536-6.846-10.125-6.846l0,0
		c-5.593,0-10.128,3.074-10.128,6.846v92.055c0,14.711,13.599,34.043,37.895,34.043
		C746.181,764.556,759.776,749.115,759.776,730.785z"/>
	<path fill="#23141D" d="M630.323,631.613c-0.068,0-0.127,0.033-0.195,0.033c-0.06,0-0.106-0.033-0.17-0.033
		c-9.495,0-14.312,7.322-16.392,12.248c-2.081,4.943-12.311,25.6-13.968,29.201c-1.665,3.635-3.198,6.932-5.19,6.932
		c-1.997,0-3.525-3.297-5.189-6.932c-1.657-3.602-11.891-24.258-13.964-29.201c-2.09-4.926-6.897-12.248-16.393-12.248
		c-0.03,0-0.055,0.018-0.085,0.018c-0.034,0-0.064-0.018-0.097-0.018c-5.589,0-10.124,8.104-10.124,11.875v114.223
		c0,3.771,4.536,6.846,10.124,6.846c5.593,0,10.128-3.074,10.128-6.846v-79.875c4.821,8.783,9.462,17.158,10.881,19.469
		c3.882,6.318,10.142,9.818,14.72,9.818c4.582,0,10.838-3.5,14.724-9.818c1.435-2.346,6.179-10.906,11.067-19.826v80.232
		c0,3.771,4.536,6.846,10.124,6.846c5.594,0,10.129-3.074,10.129-6.846V641.669C640.452,637.898,637.105,631.613,630.323,631.613z"
		/>
	<path fill="#23141D" d="M862.6,653.238c3.126-4.994-0.203-9.377-5.521-13.166c-3.414-2.445-11.764-8.34-26.976-8.34
		c-10.617,0-32.272,11.518-32.272,32.344c0,20.826,25.205,35.811,33.325,40.397c8.12,4.586,18.737,13.539,18.737,21.658
		c0,8.121-2.284,19.162-18.108,19.162c-15.832,0-21.879-15-28.954-9.359c-7.08,5.623,0.208,23.73,28.53,23.73
		c28.327,0,34.366-22.49,34.366-34.365c0-11.873-13.946-27.078-26.866-34.568c-12.91-7.492-23.74-13.947-23.74-26.025
		c0-12.096,9.954-17.939,18.278-17.734C844.067,647.207,856.995,662.207,862.6,653.238z"/>
	<path fill="#23141D" d="M1035.55,738.701c6.879,7.695-12.232,24.514-31.316,24.514c-19.085,0-32.149-20.215-32.149-38.119
		c0-12.078,0-34.434,0-56.094c0-26.924,20.691-38.322,37.491-37.27c15.391,0.984,37.628,11.857,28.191,23.256
		c-9.446,11.381-16.521-7.084-29.159-7.084s-20.546,10.686-20.546,28.607c0,17.904,0,36.641,0,43.725s2.318,26.383,17.896,26.383
		C1021.518,746.619,1026.104,728.152,1035.55,738.701z"/>
</g>
</svg>
