<?xml version="1.0" encoding="utf-8"?>
<!-- Generator: Adobe Illustrator 22.1.0, SVG Export Plug-In . SVG Version: 6.00 Build 0)  -->
<svg version="1.1" id="Layer_1" xmlns="http://www.w3.org/2000/svg" xmlns:xlink="http://www.w3.org/1999/xlink" x="0px" y="0px"
	 viewBox="0 0 1600 900" enable-background="new 0 0 1600 900" xml:space="preserve">
<g>
	<g id="_x23_fffdfeff">
		<path fill="#FFFDFE" d="M659.293,636.775c2.319-3.074,6.825-3.691,10.333-2.672c3.076,0.904,4.786,3.951,5.325,6.92
			c3.546,17.504,6.959,35.037,10.457,52.559c2.99,14.504,5.729,29.066,8.788,43.56c-0.013,2.779,4.102,2.674,4.045-0.027
			c3.047-14.496,5.776-29.059,8.794-43.562c3.316-17.225,6.959-34.391,10.218-51.625c0.548-3.211,2.095-6.729,5.411-7.854
			c3.422-0.863,7.632-0.49,10.14,2.248c1.827,2.453,1.355,5.701,0.827,8.508c-3.277,16.119-6.545,32.248-9.755,48.377
			c-3.336,16.234-6.547,32.488-9.882,48.713c-1.124,5.508-5.092,11.188-11.044,11.889c-4.45,0.404-8.948,0.377-13.389,0.031
			c-5.979-0.666-9.9-6.383-11.122-11.852c-3.325-16.275-6.564-32.557-9.881-48.83c-2.941-14.803-5.969-29.594-8.959-44.387
			C658.919,644.859,657.246,640.533,659.293,636.775z"/>
		<path fill="#FFFDFE" d="M523.467,639.273c3.095-7.457,17.438-6.006,17.282,2.816c0.086,17.023,0,34.057,0.038,51.088
			c0.019,12.457-0.058,24.914,0.019,37.381c-0.259,2.594,1.99,4.834,4.538,4.912c10.149,0.355,20.339-0.201,30.488,0.24
			c6.209,1.221,7.824,10.188,3.326,14.176c-2.115,1.924-5.114,1.99-7.814,2.01c-12.812-0.027-25.635-0.027-38.457,0
			c-2.471-0.066-5.229-0.037-7.22-1.729c-2.239-1.605-2.883-4.498-2.89-7.103c0-16.648,0.017-33.307-0.013-49.955
			c0-16.041,0.048-32.082-0.027-48.125C522.778,643.062,522.738,641.082,523.467,639.273z"/>
		<path fill="#FFFDFE" d="M609.148,641.216c0.548-6.498,8.843-7.941,13.811-5.701c3.22,1.453,4.192,5.24,4.047,8.479
			c0.029,16.398-0.019,32.787,0.021,49.174c-0.051,16.947,0.094,33.883-0.06,50.818c0.124,3.441-2.231,6.949-5.72,7.574
			c-2.854,0.557-5.998,0.5-8.638-0.799c-2.29-1.451-3.742-4.113-3.569-6.832c0.02-16.926,0.01-33.854,0.01-50.779
			C609.148,675.837,608.927,658.517,609.148,641.216z"/>
		<path fill="#FFFDFE" d="M768.301,637.246c1.855-2.238,4.949-2.643,7.679-2.615c14.765,0.041,29.538,0.031,44.312,0.01
			c2.287,0.039,4.815,0.107,6.699,1.607c5.164,3.932,3.268,14.492-3.884,14.637c-11.217,0.232-22.452-0.076-33.68,0.107
			c-2.537-0.135-5.084,1.865-4.949,4.545c-0.174,7.68-0.021,15.379-0.067,23.068c-0.289,2.549,1.298,5.412,4.037,5.625
			c7.063,0.566,14.177-0.213,21.241,0.326c4.299,0.5,6.633,5.057,6.017,9.055c-0.691,2.902-2.873,5.604-5.978,5.977
			c-7.104,0.453-14.235-0.219-21.339,0.289c-2.259,0.223-4.065,2.336-3.922,4.615c-0.077,8.688-0.065,17.377-0.01,26.066
			c-0.316,2.834,2.289,5.133,5.037,4.961c11.439,0.221,22.896-0.164,34.334,0.162c6.439,0.98,8.083,10.43,3.384,14.369
			c-2.096,1.981-5.22,1.721-7.882,1.846c-15.042-0.096-30.106,0.098-45.147-0.086c-4.22,0.154-8.016-3.574-7.709-7.834
			c-0.066-16.935,0-33.883-0.028-50.826c0.028-16.391,0.028-32.787,0-49.176C766.466,641.63,766.612,639.042,768.301,637.246z"/>
		<path fill="#FFFDFE" d="M900.611,636.91c2.573-2.596,6.571-2.557,9.926-2.039c3.287,0.578,5.806,3.74,5.742,7.076
			c0.17,12.234-0.052,24.481,0.074,36.717c-0.317,2.787,1.835,5.586,4.709,5.662c5.479,0.25,10.977-0.019,16.468,0.115
			c2.132-0.164,4.669,0.27,6.408-1.289c1.34-1.115,1.51-2.961,1.55-4.574c0.094-12.391-0.185-24.779,0.094-37.16
			c0.695-8.438,14.658-9.353,17.407-1.836c0.51,1.74,0.423,3.576,0.472,5.373c-0.067,16.062-0.029,32.123-0.01,48.176
			c-0.067,17.311,0.114,34.621-0.087,51.914c-0.605,9.34-17.337,9.227-17.82-0.154c-0.231-13.467,0.049-26.932-0.115-40.398
			c0.201-2.732-2.354-4.873-4.959-4.719c-6.143-0.137-12.285-0.068-18.427-0.041c-2.739-0.258-5.815,1.836-5.652,4.779
			c-0.144,13.148,0.029,26.307-0.057,39.465c0.183,3.145-1.739,6.354-4.765,7.373c-2.664,0.73-5.56,0.768-8.212-0.02
			c-3.066-1.049-5.036-4.201-4.969-7.393c-0.058-16.916,0-33.832-0.021-50.75c0.021-16.406,0.029-32.814-0.006-49.213
			C898.292,641.457,898.705,638.726,900.611,636.91z"/>
		<path fill="#FFFDFE" d="M1004.56,636.15c3.172-2.113,7.171-1.383,10.766-1.51c8.612,0.223,17.263-0.441,25.855,0.424
			c15.542,1.684,28.548,15.504,29.701,31.018c0.557,9.018,0.48,18.06,0.48,27.086c-0.009,9.275,0.115,18.57-0.51,27.828
			c-1.114,12.156-9.477,23.154-20.607,27.988c-8.853,3.959-18.773,2.672-28.182,2.893c-4.815-0.123-9.659,0.318-14.447-0.268
			c-3.643-0.49-6.286-4.086-6.142-7.68c-0.058-16.898-0.01-33.797-0.019-50.703c0.01-16.408,0.032-32.816-0.019-49.215
			C1001.331,641.119,1002.051,637.89,1004.56,636.15 M1019.478,655.568c-0.067,12.523-0.028,25.057-0.01,37.59
			c-0.019,12.459-0.028,24.914-0.01,37.373c-0.298,2.613,2.038,4.947,4.604,4.969c4.786,0.086,9.611,0.25,14.389-0.135
			c7.786-0.713,14.139-7.785,14.523-15.506c0.722-8.879,0.25-17.791,0.365-26.691c-0.145-9.016,0.413-18.068-0.422-27.066
			c-0.606-7.873-7.439-14.783-15.398-15.08c-4.534-0.115-9.084-0.154-13.618,0C1021.477,650.953,1019.411,653.183,1019.478,655.568z
			"/>
	</g>
	<path fill="#61596E" d="M1124.279,98.999h0.421c0.999,0.963,2.095,1.836,3.288,2.566c12.802,7.566,25.489,15.332,38.292,22.896
		v93.1c-15.215,16.207-29.037,33.719-42.022,51.75C1124.228,212.546,1124.19,155.769,1124.279,98.999z"/>
	<path fill="#61596E" d="M427.907,99.789c83.026-0.346,166.055,0.01,249.091-0.172c1.951-0.174,3.941,0.258,5.154,1.932
		c28.093,29.709,56.361,59.248,84.39,89.014c1.395-1.219,2.787-2.449,3.988-3.873c27.116-28.635,54.327-57.172,81.424-85.812
		c0.873-1.291,2.492-1.242,3.873-1.252c83.69,0.147,167.381-0.144,251.071,0.147c0.068,64.467-0.01,128.932,0.038,193.408
		c0.029,1.213-0.308,2.316-1.028,3.307c-18.531,30.142-34.651,61.805-47.646,94.725c-2.942,7.103-4.816,14.766-9.035,21.281
		c-2.336,4.076-8.382,4.961-11.832,1.826c-2.259-2.238-2.922-5.535-3.364-8.565c-2.509-21.549-4.682-43.156-8.129-64.58
		c-1.914-10.047-4.079-21.082-11.884-28.355c-7.064-6.565-17.724-6.701-26.558-4.402c-8.708,2.15-16.657,8.062-20.155,16.473
		c-5.104,11.275-2.951,24.061-0.222,35.66c5.238,21.715,13.362,42.59,21.262,63.449c9.853,25.779,19.627,51.578,29.489,77.346
		c3.194,8.084,8.584,16.264,17.263,19.041c7.872,2.453,16.58,2.471,24.501,0.232c5.324-1.674,9.573-5.709,12.307-10.496
		c5.071-8.797,7.457-18.762,10.367-28.395c7.315-24.395,14.812-48.781,24.021-72.541c0.769,1.258,0.605,2.768,0.653,4.191
		c-0.125,47.647,0.135,95.301-0.125,142.947c-52.73-0.115-105.459,0.01-158.191-0.057c-1.548-14.609-3.009-29.26-2.961-43.967
		c0.471-21.463,1.076-42.926,1.221-64.398c0.587-35.352-5.469-70.426-5.286-105.768c0.259-5.432,0.278-10.863,0.24-16.303
		c-0.087-6.172,0.374-12.391-0.712-18.504c15.254-9.572,31.211-17.963,46.541-27.412c9.605-5.998,19.944-11.102,28.201-18.992
		c4.018-3.875,7.795-8.959,7.199-14.871c-0.045-5.268-3.787-9.449-7.543-12.688c-7.566-7.17-19.602-9.17-29.107-5.018
		c-10.467,5.123-16.695,15.734-26.528,21.762c-11.89,7.238-23.771,14.514-35.929,21.289c-9.313-4.815-20.52-6.506-30.614-3.275
		c-5.978,1.834-11.563,6.189-13.351,12.379c-2.201,6.152,0.576,12.84-1.577,18.992c-1.075,3.01-3.546,5.172-6.267,6.672
		c-19.205,11.391-38.562,22.531-57.662,34.111c-8.419,5.133-17.378,9.42-26.807,12.332c-7.199,2.307-14.946,4.115-20.694,9.354
		c-5.248,4.488-8.122,11.996-6.123,18.762c1.586,7.094,6.45,12.986,12.266,17.129c7.092,4.873,16.56,4.432,24.23,1.201
		c10.718-4.576,19.66-12.246,28.932-19.117c8.882-6.854,18.109-13.266,27.163-19.889c6.345-4.44,12.65-9.111,19.791-12.205
		c3.951-1.691,9.112-2.25,12.611,0.73c3.681,3.191,4.71,8.246,5.517,12.83c1.788,13.062,0.577,26.279,0.732,39.41
		c-0.327,23.75-1.567,47.482-3.105,71.195c-1.727,28.047-1.941,56.191-0.701,84.266c-13.956,0.029-27.903-0.018-41.851,0.02
		c-0.077-42.629,0.097-85.266-0.086-127.895c-26.789,22.068-52.99,44.859-79.77,66.936c-16.167-13.793-32.478-27.422-48.703-41.147
		c-10.391-8.545-20.377-17.59-30.989-25.838c-0.134,42.658,0.164,85.324-0.153,127.982c-86.225-0.096-172.456-0.059-258.683-0.018
		c-0.318-2.807-0.434-5.625-0.3-8.441c0.029-137.459-0.058-274.918,0-412.367C427.907,123.597,427.571,111.689,427.907,99.789z"/>
	<path fill="#61596E" d="M704.661,99.904c25.385,10.736,50.481,22.156,75.761,33.113c4.009,1.434,6.747,4.979,9.256,8.238
		c-7.43,8.217-15.33,16.023-22.779,24.24c-12.985-13.141-25.491-26.789-38.304-40.109
		C720.665,116.849,712.362,108.642,704.661,99.904z"/>
	<path fill="#61596E" d="M1139.339,342.988c8.458-13.918,17.149-27.721,26.941-40.734v254.041c-14.014-0.02-28.037-0.01-42.052-0.01
		c-0.009-59.516,0.018-119.043-0.009-178.559c0.105-3.037-0.51-6.297,0.98-9.094C1129.488,359.857,1134.38,351.398,1139.339,342.988
		z"/>
	<path fill="#61596E" d="M704.516,465.742c8.846,7.113,17.379,14.609,26.115,21.838c2.75,2.479,5.856,4.576,8.362,7.307
		c0.154,20.414-0.106,40.85,0.125,61.266c-11.524,0.346-23.059-0.039-34.59,0.201C704.353,526.152,704.372,495.943,704.516,465.742z
		"/>
	<path fill="#61596E" d="M792.311,496.701c12.094-10.533,24.453-20.779,36.766-31.064c0.125,8.199,0.058,16.396,0.038,24.598
		c-2.794,1.969-5.065,4.707-8.044,6.381C811.488,496.818,801.895,496.625,792.311,496.701z"/>
	<path fill="#080000" d="M434.509,699.396c4.02-4.248,9.958-6.035,15.677-6.094c24.193-0.162,48.396,0.211,72.579-0.193
		c0.029,16.648,0.013,33.307,0.013,49.955c0.007,2.605,0.65,5.498,2.89,7.103c1.99,1.691,4.749,1.662,7.22,1.729
		c12.822-0.027,25.645-0.027,38.457,0c2.7-0.019,5.699-0.086,7.814-2.01c4.498-3.988,2.883-12.955-3.326-14.176
		c-10.149-0.441-20.339,0.115-30.488-0.24c-2.548-0.078-4.797-2.318-4.538-4.912c-0.076-12.467,0-24.924-0.019-37.381
		c22.751,0.164,45.512,0.193,68.264-0.027c0,16.926,0.01,33.854-0.01,50.779c-0.173,2.719,1.279,5.381,3.569,6.832
		c2.64,1.299,5.783,1.355,8.638,0.799c3.489-0.625,5.844-4.133,5.72-7.574c0.153-16.936,0.009-33.871,0.06-50.818
		c13.839,0.127,27.689,0.213,41.53-0.01c3.316,16.273,6.556,32.555,9.881,48.83c1.222,5.469,5.144,11.186,11.122,11.852
		c4.44,0.346,8.938,0.373,13.389-0.031c5.952-0.701,9.92-6.381,11.044-11.889c3.335-16.225,6.546-32.479,9.882-48.713
		c14.187,0.088,28.383,0.191,42.57-0.057c0.028,16.943-0.038,33.891,0.028,50.826c-0.307,4.26,3.489,7.988,7.709,7.834
		c15.042,0.184,30.105-0.01,45.147,0.086c2.662-0.125,5.786,0.135,7.882-1.846c4.699-3.939,3.056-13.389-3.384-14.369
		c-11.438-0.326-22.895,0.059-34.334-0.162c-2.748,0.172-5.354-2.127-5.037-4.961c-0.056-8.689-0.067-17.379,0.01-26.066
		c-0.143-2.279,1.663-4.393,3.922-4.615c7.103-0.508,14.235,0.164,21.339-0.289c3.104-0.373,5.286-3.074,5.978-5.977
		c5.037-0.615,10.115-0.262,15.168-0.326c22.502-0.068,44.994,0.133,67.494-0.098c0.021,16.918-0.037,33.834,0.021,50.75
		c-0.067,3.191,1.902,6.344,4.969,7.393c2.652,0.787,5.548,0.75,8.212,0.02c3.025-1.02,4.947-4.229,4.765-7.373
		c0.086-13.158-0.087-26.316,0.057-39.465c-0.163-2.943,2.913-5.037,5.652-4.779c6.142-0.027,12.284-0.096,18.427,0.041
		c2.604-0.154,5.16,1.986,4.959,4.719c0.164,13.467-0.115,26.932,0.115,40.398c0.483,9.381,17.215,9.494,17.82,0.154
		c0.201-17.293,0.02-34.604,0.087-51.914c12.661,0.277,25.337,0.164,38.005,0.096c0.01,16.906-0.038,33.805,0.019,50.703
		c-0.144,3.594,2.499,7.19,6.142,7.68c4.788,0.586,9.632,0.145,14.447,0.268c9.409-0.221,19.329,1.066,28.182-2.893
		c11.131-4.834,19.493-15.832,20.607-27.988c0.625-9.258,0.501-18.553,0.51-27.828c24.279,0.272,48.569,0.02,72.858,0.135
		c5.248,0.047,10.572,1.691,14.504,5.277c4.777,3.863,6.971,9.94,7.555,15.898v64.842c-0.768,11.092-11.015,20.223-22.116,19.656
		c-231.319,0.018-462.636,0.008-693.949,0c-8.274,0.356-16.464-4.336-20.117-11.785c-3.258-6.209-2.018-13.428-2.249-20.146
		c0.202-19.127-0.413-38.273,0.336-57.393C429.723,705.933,431.549,702.203,434.509,699.396z"/>
	<path fill="#080000" d="M685.408,693.582c7.189-0.5,14.428-0.473,21.627-0.029c-3.018,14.504-5.747,29.066-8.794,43.562
		c0.057,2.701-4.058,2.807-4.045,0.027C691.136,722.648,688.398,708.086,685.408,693.582z"/>
	<path fill="#080000" d="M1019.468,693.158c11.284,0.223,22.578,0.174,33.872,0.01c-0.115,8.9,0.356,17.812-0.365,26.691
		c-0.385,7.721-6.737,14.793-14.523,15.506c-4.777,0.385-9.602,0.221-14.389,0.135c-2.566-0.021-4.902-2.355-4.604-4.969
		C1019.44,718.072,1019.45,705.617,1019.468,693.158z"/>
	<g id="_x23_61596eff">
		<path fill="#61596E" d="M430.213,599.068c3.739-7.305,11.816-11.891,20.002-11.535c230.983-0.02,461.977,0.01,692.959-0.01
			c5.181-0.066,10.573,1.029,14.667,4.385c4.787,3.527,7.7,9.102,8.439,14.955v107.615c-0.584-5.959-2.777-12.035-7.555-15.898
			c-3.932-3.586-9.256-5.23-14.504-5.277c-24.289-0.115-48.579,0.137-72.858-0.135c0-9.025,0.077-18.068-0.48-27.086
			c-1.153-15.514-14.159-29.334-29.701-31.018c-8.593-0.865-17.243-0.201-25.855-0.424c-3.595,0.127-7.594-0.604-10.766,1.51
			c-2.509,1.74-3.229,4.969-3.123,7.861c0.051,16.398,0.028,32.807,0.019,49.215c-12.668,0.068-25.344,0.182-38.005-0.096
			c-0.019-16.053-0.058-32.113,0.01-48.176c-0.049-1.797,0.038-3.633-0.472-5.373c-2.749-7.518-16.712-6.602-17.407,1.836
			c-0.278,12.381,0,24.77-0.094,37.16c-0.04,1.613-0.21,3.459-1.55,4.574c-1.739,1.559-4.276,1.125-6.408,1.289
			c-5.491-0.135-10.989,0.135-16.468-0.115c-2.874-0.076-5.026-2.875-4.709-5.662c-0.126-12.236,0.096-24.482-0.074-36.717
			c0.063-3.336-2.455-6.498-5.742-7.076c-3.354-0.518-7.353-0.557-9.926,2.039c-1.906,1.816-2.319,4.547-2.249,7.064
			c0.035,16.398,0.026,32.807,0.006,49.213c-22.5,0.23-44.992,0.029-67.494,0.098c-5.053,0.064-10.131-0.289-15.168,0.326
			c0.616-3.998-1.718-8.555-6.017-9.055c-7.064-0.539-14.178,0.24-21.241-0.326c-2.739-0.213-4.326-3.076-4.037-5.625
			c0.047-7.689-0.107-15.389,0.067-23.068c-0.135-2.68,2.412-4.68,4.949-4.545c11.227-0.184,22.463,0.125,33.68-0.107
			c7.152-0.144,9.048-10.705,3.884-14.637c-1.884-1.5-4.412-1.568-6.699-1.607c-14.773,0.021-29.547,0.031-44.312-0.01
			c-2.729-0.027-5.824,0.377-7.679,2.615c-1.689,1.797-1.836,4.385-1.855,6.729c0.028,16.389,0.028,32.785,0,49.176
			c-14.188,0.248-28.384,0.145-42.57,0.057c3.21-16.129,6.478-32.258,9.755-48.377c0.528-2.807,1-6.055-0.827-8.508
			c-2.508-2.738-6.718-3.111-10.14-2.248c-3.316,1.125-4.863,4.643-5.411,7.854c-3.259,17.234-6.901,34.4-10.218,51.625
			c-7.199-0.443-14.438-0.471-21.627,0.029c-3.498-17.521-6.911-35.055-10.457-52.559c-0.539-2.969-2.249-6.016-5.325-6.92
			c-3.508-1.02-8.014-0.402-10.333,2.672c-2.047,3.758-0.374,8.084,0.307,11.996c2.99,14.793,6.018,29.584,8.959,44.387
			c-13.841,0.223-27.692,0.137-41.53,0.01c-0.04-16.387,0.008-32.775-0.021-49.174c0.146-3.238-0.827-7.025-4.047-8.479
			c-4.969-2.24-13.264-0.797-13.811,5.701c-0.221,17.301,0,34.621-0.097,51.934c-22.752,0.221-45.513,0.191-68.264,0.027
			c-0.038-17.031,0.048-34.065-0.038-51.088c0.155-8.822-14.188-10.273-17.282-2.816c-0.729,1.809-0.689,3.789-0.729,5.711
			c0.075,16.043,0.027,32.084,0.027,48.125c-24.184,0.404-48.386,0.031-72.579,0.193c-5.719,0.059-11.656,1.846-15.677,6.094
			c-2.961,2.807-4.786,6.537-6.325,10.256c-0.384-4.258-0.413-8.523-0.336-12.793c-0.009-27.24,0.013-54.48-0.009-81.721
			C427.8,609.726,427.493,603.958,430.213,599.068z"/>
		<path fill="#61596E" d="M1019.478,655.568c-0.067-2.385,1.999-4.615,4.424-4.547c4.534-0.154,9.084-0.115,13.618,0
			c7.959,0.297,14.792,7.207,15.398,15.08c0.835,8.998,0.277,18.051,0.422,27.066c-11.294,0.164-22.588,0.213-33.872-0.01
			C1019.45,680.625,1019.411,668.091,1019.478,655.568z"/>
	</g>
</g>
</svg>
