<?xml version="1.0" encoding="utf-8"?>
<!-- Generator: Adobe Illustrator 22.1.0, SVG Export Plug-In . SVG Version: 6.00 Build 0)  -->
<svg version="1.2" baseProfile="tiny" xmlns="http://www.w3.org/2000/svg" xmlns:xlink="http://www.w3.org/1999/xlink" x="0px"
	 y="0px" viewBox="0 0 1600 900" xml:space="preserve">
<g id="Layer_1">
	<g>
		<path fill="#AA96AA" d="M960.3,724.3c-1.6-13.7-3.6-33.4-3.6-50.8c0-10.8,1.4-54.2,1.4-89.1c0-29.5-6.4-81.9-6.4-110.3
			c0-17.1,1.3-40.3-0.6-48.5c13.6-8.8,25.6-14.5,63.2-37.3c12.2-7.4,35.5-19.9,35.5-34.9c0-6.7-1.8-11-11.2-18.8
			c-6.6-5.3-13.7-6.8-21.7-6.8c-19.2,0-27.9,19.2-43.9,29.1c-24.5,15-37.5,22.4-42.5,25.2c-2-0.9-10.4-5.9-23.8-5.9
			c-14,0-30.3,6.3-30.3,24.5c0,8.4,2.7,17.4-8.5,23.3c-6.2,4-36.8,21.4-69.2,41c-27.4,16.5-40.1,15.2-51.7,22.1
			c-10.7,6.4-13.5,14.5-13.5,21.4c0,6.2,3.9,14,5.3,15.7c7.3,9.4,13.9,14.5,25.5,14.5c19.6,0,35.9-17.2,66.2-38.7
			c18.9-13.5,36.2-27.4,46.4-27.4c9.1,0,15.4,6.8,15.4,35c0,94.1-5.7,109-5.7,174.3c0,11.7,0.4,33.4,0.8,42.5h-49.9V570.2
			l-96.1,80.9l-96.1-80.9v154.1H333.9V175.7H637l104.3,109.8l104.3-109.8h304.7v234.6c-9.6,14.9-39.1,65.3-58.9,116.8
			c-6.5,16.8-9.5,29-18,29c-9.4,0-10.2-9.2-11-17.6c-1.9-18-6-51.7-7.8-64.1c-3.6-24-8.4-49.4-35.2-49.4
			c-19.8,0-40.7,10.9-40.7,40.6c0,16.8,8.5,46,23.1,84.5c5.7,15.2,36.3,95.2,40.6,106.7c8.1,21.3,19.2,27,36.7,27
			c22.3,0,30-8.2,39.2-39.5c7.8-26.7,21.1-70.1,32-97.4c0,0,0,0,0,0v177.4H960.3z M1221.6,419.8v304.5h-50.1V501.5
			C1182.2,478.4,1208,437.7,1221.6,419.8 M1171.5,379.2V175.7l50.1,30.1v111.5C1209.3,330.1,1183.6,361.4,1171.5,379.2 M768.9,225.6
			l-27.6,29.1l-74.7-78.6l94.8,41.7L768.9,225.6z M772.3,652.8h34.5l9.3-7.8v-29.1L772.3,652.8z M666.5,724.3h41.3v-73.7l-41.3-34.7
			V724.3z"/>
		<polygon fill="#AA96AA" points="1227.5,704.6 1243.4,704.6 1243.4,707.6 1237.2,707.6 1237.2,724.3 1233.7,724.3 1233.7,707.6 
			1227.5,707.6 		"/>
		<polygon fill="#AA96AA" points="1245.7,704.6 1250.5,704.6 1255.9,720 1256,720 1261.3,704.6 1266.1,704.6 1266.1,724.3 
			1262.8,724.3 1262.8,709.1 1262.8,709.1 1257.3,724.3 1254.5,724.3 1249,709.1 1248.9,709.1 1248.9,724.3 1245.7,724.3 		"/>
	</g>
</g>
<g id="Laag_2" display="none">
</g>
</svg>
