<?xml version="1.0" encoding="utf-8"?>
<!-- Generator: Adobe Illustrator 23.0.1, SVG Export Plug-In . SVG Version: 6.00 Build 0)  -->
<svg version="1.1" id="Layer_1" xmlns="http://www.w3.org/2000/svg" xmlns:xlink="http://www.w3.org/1999/xlink" x="0px" y="0px"
	 viewBox="0 0 1600 900" enable-background="new 0 0 1600 900" xml:space="preserve">
<g>
	<path fill="#FCD800" d="M400.644,361.619H287.611V180.792h113.033V361.619z M265.001,384.212h158.253v-226.03H265.001V384.212z"/>
	<path fill="#FFFFFF" d="M536.305,260.345h-9.82c-12.862-18.163-25.599-36.201-38.354-56.604h-0.107v56.604H477.19v-78.93h9.82
		c12.862,18.038,25.599,35.969,38.23,56.249h0.231v-56.249h10.834V260.345z"/>
	<path fill="#FFFFFF" d="M567.204,181.398l-27.307,78.949h11.742l6.866-21.543h23.802l6.208,21.543h15.12l-25.154-78.949H567.204z
		 M562.01,229.107c3.148-10.37,6.315-19.959,9.143-32.144h0.213c3.167,12.186,5.978,21.774,8.913,32.144H562.01z"/>
	<polygon fill="#FFFFFF" points="616.392,260.345 616.392,191.999 595.631,191.999 595.631,181.415 650.689,181.415 
		650.689,191.999 629.929,191.999 629.929,260.345 	"/>
	<polygon fill="#FFFFFF" points="655.083,181.415 655.083,220.89 655.083,260.346 668.496,260.346 668.496,220.89 668.496,181.415 	
		"/>
	<path fill="#FFFFFF" d="M710.248,261.698c20.635,0,33.497-18.394,33.497-41.948c0-22.129-14.214-39.706-33.497-39.706
		c-19.284,0-33.498,17.576-33.498,39.706C676.75,243.304,689.595,261.698,710.248,261.698 M710.248,250.419
		c-14.107,0-19.07-15.566-19.07-30.669c0-14.551,5.639-28.427,19.07-28.427c13.43,0,19.052,13.875,19.052,28.427
		C729.3,234.853,724.337,250.419,710.248,250.419"/>
	<path fill="#FFFFFF" d="M811.078,260.345h-9.82c-12.845-18.163-25.599-36.201-38.354-56.604h-0.107v56.604h-10.834v-78.93h9.82
		c12.862,18.038,25.599,35.969,38.247,56.249h0.214v-56.249h10.834V260.345z"/>
	<path fill="#FFFFFF" d="M841.996,181.398l-27.307,78.949h11.742l6.884-21.543h23.802l6.191,21.543h15.12l-25.154-78.949H841.996z
		 M836.801,229.107c3.166-10.37,6.315-19.959,9.143-32.144h0.213c3.167,12.186,5.996,21.774,8.913,32.144H836.801z"/>
	<polygon fill="#FFFFFF" points="882.378,181.397 895.807,181.397 895.807,249.744 922.527,249.744 922.527,260.328 
		882.378,260.328 	"/>
	<path fill="#FFFFFF" d="M527.961,326.379v32.59c-7.223,2.828-14.784,4.857-22.45,4.857c-23.233,0-37.909-18.039-37.909-41.289
		c0-21.525,14.675-40.365,38.353-40.365c7.347,0,14.676,2.705,19.177,6.085l-4.393,9.375c-3.611-2.259-9.251-4.18-14.428-4.18
		c-14.445,0-24.265,11.403-24.265,29.317c0,18.732,11.279,29.778,22.896,29.778c3.611,0,6.671-0.444,9.481-1.903v-24.265H527.961z"
		/>
	<polygon fill="#FFFFFF" points="576.366,294.145 553.809,294.145 553.809,315.795 575.921,315.795 575.921,326.379 
		553.809,326.379 553.809,351.872 580.422,351.872 580.422,362.492 540.271,362.492 540.271,283.525 576.366,283.525 	"/>
	<path fill="#FFFFFF" d="M618.1,363.809c20.652,0,33.497-18.377,33.497-41.93c0-22.112-14.214-39.706-33.497-39.706
		c-19.284,0-33.498,17.594-33.498,39.706C584.602,345.433,597.464,363.809,618.1,363.809 M618.1,352.548
		c-14.107,0-19.07-15.566-19.07-30.669c0-14.551,5.64-28.427,19.07-28.427c13.43,0,19.069,13.875,19.069,28.427
		C637.169,336.982,632.206,352.548,618.1,352.548"/>
	<path fill="#FFFFFF" d="M716.581,326.379v32.59c-7.223,2.828-14.765,4.857-22.45,4.857c-23.233,0-37.909-18.039-37.909-41.289
		c0-21.525,14.675-40.365,38.371-40.365c7.329,0,14.658,2.705,19.177,6.085l-4.411,9.375c-3.611-2.259-9.251-4.18-14.445-4.18
		c-14.428,0-24.247,11.403-24.247,29.317c0,18.732,11.279,29.778,22.913,29.778c3.594,0,6.654-0.444,9.464-1.903v-24.265H716.581z"
		/>
	<path fill="#FFFFFF" d="M776.797,362.492l-15.885-32.714c8.681-4.625,13.644-13.983,13.644-23.446
		c0-15.353-9.357-22.807-24.478-22.807H728.98v78.967h13.538v-29.779h5.87h0.214l12.755,29.779H776.797z M742.518,294.145h5.977
		c8.004,0,12.523,4.625,12.523,12.737c0,10.603-6.422,15.334-12.862,15.673c-1.352,0.124-4.518,0.231-5.638,0.338V294.145z"/>
	<path fill="#FFFFFF" d="M804.336,283.526l-27.307,78.949h11.742l6.866-21.525h23.82l6.191,21.525h15.12l-25.154-78.949H804.336z
		 M799.141,331.236c3.148-10.37,6.315-19.959,9.143-32.127h0.213c3.167,12.168,5.996,21.757,8.913,32.127H799.141z"/>
	<path fill="#FFFFFF" d="M864.232,322.538c-1.388,0.106-4.679,0.231-5.639,0.338v-28.729h6.102c7.899,0,12.4,4.607,12.4,12.737
		C877.094,317.467,870.672,322.218,864.232,322.538 M866.154,283.525h-21.099v78.95h13.537v-29.779h6.102
		c16.135,0,25.937-13.075,25.937-26.382C890.632,290.962,881.274,283.525,866.154,283.525"/>
	<polygon fill="#FFFFFF" points="953.357,362.474 939.818,362.474 939.818,324.459 911.729,324.459 911.729,362.474 
		898.298,362.474 898.298,283.525 911.729,283.525 911.729,313.874 939.818,313.874 939.818,283.756 953.357,283.756 	"/>
	<polygon fill="#FFFFFF" points="966.325,283.543 966.325,323.018 966.325,362.492 979.755,362.492 979.755,323.018 
		979.755,283.543 	"/>
	<path fill="#FFFFFF" d="M1040.667,297.845c-3.274-2.027-8.682-4.393-13.876-4.393c-13.751,0-23.802,11.384-23.802,29.316
		c0,18.733,11.065,29.779,24.14,29.779c5.194,0,10.034-1.689,13.538-3.949l3.735,9.82c-4.074,2.811-11.296,5.39-17.843,5.39
		c-23.233,0-37.891-18.021-37.891-41.271c0-21.524,14.551-40.363,38.122-40.363c6.991,0,13.537,2.936,18.163,6.085L1040.667,297.845
		z"/>
	<polygon fill="#FFFFFF" points="398.95,741.005 274.624,451.205 341.416,451.205 406.29,607.928 478.103,443.575 550.299,607.928 
		615.173,451.205 678.495,451.205 554.553,741.005 476.551,567.887 	"/>
	<rect x="725.483" y="451.204" fill="#FFFFFF" width="61.387" height="278.366"/>
	<polygon fill="#FFFFFF" points="869.961,451.205 931.348,451.205 931.348,679.23 1050.422,679.23 1031.02,729.571 869.961,729.571 
			"/>
	<path fill="#FFFFFF" d="M1158.716,501.546V679.23h25.872c52.896,0,88.045-40.422,88.045-88.85c0-48.413-35.149-88.833-87.26-88.833
		H1158.716z M1189.227,451.205c80.704,0,145.177,59.865,145.177,139.175c0,79.326-64.473,139.191-145.177,139.191h-91.898V451.205
		H1189.227z"/>
</g>
</svg>
