<?xml version="1.0" encoding="utf-8"?>
<!-- Generator: Adobe Illustrator 22.1.0, SVG Export Plug-In . SVG Version: 6.00 Build 0)  -->
<svg version="1.2" baseProfile="tiny" xmlns="http://www.w3.org/2000/svg" xmlns:xlink="http://www.w3.org/1999/xlink" x="0px"
	 y="0px" viewBox="0 0 1600 900" xml:space="preserve">
<g id="Layer_1">
	<g>
		<g>
			<g>
				<g>
					<path fill="#FFD700" d="M130.9,649.6V249.9h279v399.7H130.9z M369.5,609.3V290.1H171.1v319.2H369.5z"/>
				</g>
			</g>
		</g>
		<g>
			<path fill="#FFFFFF" d="M593.9,430.8H577c-22.2-31.3-44.2-62.4-66.1-97.7h-0.2v97.7H492V294.6h16.9c22.2,31.1,44.2,62.1,66,97.1
				h0.4v-97.1h18.7V430.8z"/>
			<path fill="#FFFFFF" d="M638.3,376.9c5.4-17.9,10.9-34.4,15.7-55.5h0.4c5.5,21,10.3,37.6,15.4,55.5H638.3z M647.2,294.6
				l-47.1,136.2h20.2l11.9-37.2h41.1l10.7,37.2h26.1l-43.4-136.2H647.2z"/>
			<path fill="#FFFFFF" d="M732.1,430.8V312.9h-35.8v-18.3h94.9v18.3h-35.8v117.9H732.1z"/>
			<path fill="#FFFFFF" d="M798.8,430.8V294.6h23.2v136.2H798.8z"/>
			<path fill="#FFFFFF" d="M893.9,413.7c-24.3,0-32.9-26.9-32.9-52.9c0-25.1,9.7-49,32.9-49c23.2,0,32.9,23.9,32.9,49
				C926.8,386.8,918.3,413.7,893.9,413.7z M893.9,433.1c35.6,0,57.8-31.7,57.8-72.4c0-38.2-24.5-68.5-57.8-68.5
				c-33.3,0-57.8,30.3-57.8,68.5C836.1,401.4,858.3,433.1,893.9,433.1z"/>
			<path fill="#FFFFFF" d="M1067.9,430.8h-16.9c-22.2-31.3-44.2-62.4-66.1-97.7h-0.2v97.7h-18.7V294.6h16.9
				c22.2,31.1,44.2,62.1,66,97.1h0.4v-97.1h18.7V430.8z"/>
			<path fill="#FFFFFF" d="M1112.2,376.9c5.4-17.9,10.9-34.4,15.8-55.5h0.4c5.5,21,10.3,37.6,15.4,55.5H1112.2z M1121.2,294.6
				l-47.1,136.2h20.2l11.9-37.2h41l10.7,37.2h26.1l-43.4-136.2H1121.2z"/>
			<path fill="#FFFFFF" d="M1190.8,294.6h23.2v117.9h46.1v18.3h-69.3V294.6z"/>
			<g>
				<path fill="#FFFFFF" d="M579.6,544.7V601c-12.5,4.9-25.5,8.4-38.7,8.4c-40.1,0-65.4-31.1-65.4-71.2c0-37.1,25.3-69.6,66.1-69.6
					c12.6,0,25.3,4.7,33.1,10.5l-7.6,16.2c-6.2-3.9-15.9-7.2-24.9-7.2c-24.9,0-41.8,19.6-41.8,50.6c0,32.3,19.5,51.4,39.5,51.4
					c6.2,0,11.5-0.8,16.3-3.3v-41.8H579.6z"/>
				<path fill="#FFFFFF" d="M663,489.1h-38.9v37.4h38.1v18.3h-38.1v44H670V607h-69.3V470.8H663V489.1z"/>
				<path fill="#FFFFFF" d="M735,589.9c-24.3,0-32.9-26.8-32.9-52.9c0-25.1,9.7-49,32.9-49c23.2,0,32.9,23.9,32.9,49
					C767.9,563,759.3,589.9,735,589.9z M735,609.3c35.6,0,57.8-31.7,57.8-72.4c0-38.1-24.5-68.5-57.8-68.5
					c-33.3,0-57.8,30.4-57.8,68.5C677.2,577.6,699.4,609.3,735,609.3z"/>
				<path fill="#FFFFFF" d="M904.9,544.7V601c-12.4,4.9-25.5,8.4-38.7,8.4c-40.1,0-65.4-31.1-65.4-71.2c0-37.1,25.3-69.6,66.1-69.6
					c12.7,0,25.3,4.7,33.1,10.5l-7.6,16.2c-6.2-3.9-16-7.2-24.9-7.2c-24.9,0-41.8,19.6-41.8,50.6c0,32.3,19.5,51.4,39.5,51.4
					c6.2,0,11.5-0.8,16.4-3.3v-41.8H904.9z"/>
				<path fill="#FFFFFF" d="M949.6,489.1h10.3c13.8,0,21.6,8,21.6,22c0,18.3-11.1,26.4-22.2,27c-2.3,0.2-7.8,0.4-9.7,0.6V489.1z
					 M1008.7,607l-27.4-56.4c15-8,23.5-24.1,23.5-40.4c0-26.5-16.2-39.3-42.2-39.3h-36.4V607h23.3v-51.3h10.1h0.4l22,51.3H1008.7z"
					/>
				<path fill="#FFFFFF" d="M1047.3,553.1c5.5-17.9,10.9-34.4,15.8-55.4h0.4c5.4,21,10.3,37.5,15.4,55.4H1047.3z M1056.2,470.8
					L1009.1,607h20.2l11.9-37.2h41.1L1093,607h26.1l-43.4-136.2H1056.2z"/>
				<path fill="#FFFFFF" d="M1149.8,607h-23.3V470.8h36.4c26.1,0,42.2,12.8,42.2,39.3c0,22.9-16.9,45.5-44.7,45.5h-10.9v-16.9
					c1.2-0.2,7.6-0.4,10.1-0.6c11.1-0.6,22.2-8.7,22.2-27c0-14-7.8-22-21.4-22h-10.5V607z"/>
				<path fill="#FFFFFF" d="M1313.2,607h-23.4v-65.5h-48.5V607h-23.1V470.8h23.1v52.3h48.5v-51.9h23.4V607z"/>
				<path fill="#FFFFFF" d="M1335.6,607V470.8h23.1V607H1335.6z"/>
				<path fill="#FFFFFF" d="M1463.8,495.5c-5.6-3.5-15-7.6-23.9-7.6c-23.7,0-41.1,19.6-41.1,50.6c0,32.3,19.1,51.4,41.6,51.4
					c9,0,17.3-2.9,23.3-6.8l6.4,16.9c-7,4.9-19.5,9.3-30.7,9.3c-40.1,0-65.4-31.1-65.4-71.2c0-37.1,25.1-69.6,65.8-69.6
					c12.1,0,23.3,5.1,31.3,10.5L1463.8,495.5z"/>
			</g>
		</g>
	</g>
</g>
<g id="Laag_2" display="none">
</g>
</svg>
