<?xml version="1.0" encoding="utf-8"?>
<!-- Generator: Adobe Illustrator 22.1.0, SVG Export Plug-In . SVG Version: 6.00 Build 0)  -->
<svg version="1.2" baseProfile="tiny" xmlns="http://www.w3.org/2000/svg" xmlns:xlink="http://www.w3.org/1999/xlink" x="0px"
	 y="0px" viewBox="0 0 1600 900" xml:space="preserve">
<g id="Layer_1">
	<g>
		<rect x="664.2" y="675.6" fill="#004281" width="34" height="125.4"/>
		<path fill="#004281" d="M435.7,379.1l65.5,0.7c33.7,60.1,64.6,121.8,99.1,181.4l1.3-182.1h61.4v295.1h-69
			c-32-56-61.6-113.5-94.4-169.1l-1.2,169.1h-62.7V379.1z"/>
		<path fill="#004281" d="M913.3,520.2c-0.5-55.3-0.5-55.6-4-68.6c-12.1-45.1-38.8-66.5-89.1-71.1c-40.2-2.3-80.6-0.9-120.8-1.3
			v295.1l131.2-1.4c48.6-6.9,73.4-32.6,81.1-83.8C913.5,578.2,913.7,565.5,913.3,520.2z M844.4,595.6c-4.7,9.6-11.9,16.2-22,20.2
			c-6.3,2.5-10.6,2.9-31.8,3.4l-24.5,0.6V435.1l24.5,0.5c21.7,0.5,25.4,0.9,32.3,3.6c10.9,4.2,20.1,13.8,24.2,25
			c3,8.1,3.1,10,3.6,56.4C851.2,574,850.5,583,844.4,595.6z"/>
		<path fill="#004281" d="M1106.9,550.8c0-0.6,4-3.2,8.8-5.7c10.6-5.5,24.3-18.7,29.4-28.3c6.6-12.4,9.1-25.1,9.1-45.5
			c0-22.3-2.3-33.9-9.5-48.5c-9.5-19.3-27.4-32.4-52.6-38.4c-16.9-4-38.1-5.2-95.4-5.2l-51.9,0v295.1h65.3V560.6l35.5,0.7l52.5,113
			l70-0.5C1148.5,632.5,1126.5,592.2,1106.9,550.8z M1072,503.5l-8.7,4.3l-27.1,0.4l-27.1,0.4v-77.5l29.1,0.6
			c31.4,0.6,35.6,1.4,43.4,7.8c6.9,5.7,10.1,13,10.8,24.6C1093.4,483.4,1086.8,496.2,1072,503.5z"/>
		<rect x="664.2" y="101" fill="#004281" width="34" height="278.2"/>
	</g>
</g>
<g id="Laag_2" display="none">
</g>
</svg>
