<?xml version="1.0" encoding="utf-8"?>
<!-- Generator: Adobe Illustrator 23.0.6, SVG Export Plug-In . SVG Version: 6.00 Build 0)  -->
<svg version="1.1" xmlns="http://www.w3.org/2000/svg" xmlns:xlink="http://www.w3.org/1999/xlink" x="0px" y="0px"
	 viewBox="0 0 1600 900" enable-background="new 0 0 1600 900" xml:space="preserve">
<g id="Layer_1">
	<path fill="#FFFFFF" d="M799.1,102.3c-193.3,0-350,156.7-350,350c0,193.3,156.7,350,350,350s350-156.7,350-350
		C1149.1,259,992.4,102.3,799.1,102.3z M680.4,528.5h-44.2l-61-94.8v94.8h-39V370.3h44.2l61,95.1v-95.1h39V528.5z M796.4,406.9
		h-70.5v23.5h64.2V467h-64.2v24.9h70.5v36.6H687.5V370.3h108.9V406.9z M884.3,528.5h-38.4V406.9H803v-36.6h124.5v36.6h-43.1V528.5z
		 M981.6,533.1c-33.4,0-59.5-19.5-63.3-50.8h42c2.2,9.3,10.5,16.2,20.4,16.2c11.6,0,21-9.4,21-21c0-11.6-9.4-21-21-21
		c-7.8,0-14.5,4.2-18.2,10.5l-35.4-4.1l8.2-92.6h95.3l0.1,36.6h-60.7l-1.8,19c5.4-1.4,11.3-2.3,16.8-2.3c35.2,0,55.6,20.9,55.6,52.9
		C1040.6,509.5,1015.4,533.1,981.6,533.1z M1062,533.1c-13,0-23.6-10.6-23.6-23.6c0-13,10.6-23.6,23.6-23.6s23.6,10.6,23.6,23.6
		C1085.6,522.5,1075,533.1,1062,533.1z"/>
</g>
<g id="Laag_2" display="none">
</g>
</svg>
