<?xml version="1.0" encoding="utf-8"?>
<!-- Generator: Adobe Illustrator 23.0.3, SVG Export Plug-In . SVG Version: 6.00 Build 0)  -->
<svg version="1.1" xmlns="http://www.w3.org/2000/svg" xmlns:xlink="http://www.w3.org/1999/xlink" x="0px" y="0px"
	 viewBox="0 0 1599.999 900" enable-background="new 0 0 1599.999 900" xml:space="preserve">
<g id="Layer_1">
	<g>
		<linearGradient id="SVGID_1_" gradientUnits="userSpaceOnUse" x1="73.9621" y1="466.992" x2="325.8726" y2="718.9025">
			<stop  offset="0.25" style="stop-color:#04BAEE"/>
			<stop  offset="1" style="stop-color:#164193"/>
		</linearGradient>
		<polygon fill="url(#SVGID_1_)" points="20.866,636.769 349.983,694.792 349.983,520.139 20.866,520.088 		"/>
		<linearGradient id="SVGID_2_" gradientUnits="userSpaceOnUse" x1="20.866" y1="460.163" x2="607.9017" y2="460.163">
			<stop  offset="0.25" style="stop-color:#04BAEE"/>
			<stop  offset="0.4369" style="stop-color:#0087C5"/>
			<stop  offset="0.75" style="stop-color:#164193"/>
		</linearGradient>
		<rect x="20.866" y="283.557" fill="url(#SVGID_2_)" width="587.036" height="353.213"/>
		<g id="N_2_">
			<linearGradient id="SVGID_3_" gradientUnits="userSpaceOnUse" x1="81.175" y1="460.3905" x2="295.4439" y2="460.3905">
				<stop  offset="0.6679" style="stop-color:#FFFFFF"/>
				<stop  offset="1" style="stop-color:#C0C6C9"/>
			</linearGradient>
			<path fill="url(#SVGID_3_)" d="M246.518,582.005c-17.4-37.778-88.896-135.25-109.984-159.353v159.353H81.175V338.776h48.668
				c7.91,7.725,103.076,124.809,109.88,143.551V338.776h55.722v243.228H246.518z"/>
		</g>
		<linearGradient id="Vlak_1_" gradientUnits="userSpaceOnUse" x1="265.0647" y1="399.0024" x2="638.2244" y2="464.8005">
			<stop  offset="0.25" style="stop-color:#04BAEE"/>
			<stop  offset="0.75" style="stop-color:#164193"/>
		</linearGradient>
		<polygon id="Vlak" fill="url(#Vlak_1_)" points="607.902,636.769 295.444,582.005 295.444,226.713 607.902,281.82 		"/>
		<path id="H_1_" fill="#FFFFFF" d="M499.685,317.936l55.847,9.848v243.746l-55.847-9.847V454.755h-93.837l0.002,90.383
			l-55.863-9.839l-0.004-243.759l55.865,9.85v100.504h93.837V317.936z"/>
		<g>
			<path fill="#FFFFFF" d="M783.122,544.917c-10.49-18.627-21.837-37.019-34.047-55.181c-12.211-18.157-25.206-35.299-38.979-51.423
				v106.604h-36.161V382.193h29.821c5.165,5.166,10.878,11.507,17.141,19.02c6.259,7.514,12.639,15.538,19.137,24.068
				c6.494,8.534,12.952,17.376,19.372,26.534c6.417,9.158,12.445,17.963,18.081,26.416v-96.038h36.395v162.724H783.122z"/>
			<path fill="#FFFFFF" d="M851.451,382.193h36.631v162.724h-36.631V382.193z"/>
			<path fill="#FFFFFF" d="M925.65,544.917V382.193h109.891v30.761h-73.26v31.934h65.042v30.056h-65.042v39.213h78.662v30.76H925.65
				z"/>
			<path fill="#FFFFFF" d="M1131.576,548.204c-11.428,0-21.29-1.607-29.586-4.814c-8.299-3.207-15.145-7.668-20.545-13.384
				c-5.401-5.713-9.392-12.522-11.975-20.428c-2.584-7.903-3.875-16.632-3.875-26.181V382.193h36.63v98.151
				c0,6.575,0.742,12.173,2.231,16.79c1.486,4.619,3.523,8.376,6.105,11.271c2.583,2.898,5.713,4.971,9.392,6.222
				c3.676,1.254,7.708,1.878,12.092,1.878c8.923,0,16.162-2.737,21.72-8.219c5.555-5.478,8.336-14.793,8.336-27.943v-98.151h36.63
				v101.204c0,9.55-1.332,18.315-3.991,26.298c-2.664,7.984-6.732,14.834-12.21,20.546c-5.481,5.716-12.446,10.137-20.899,13.267
				C1153.179,546.638,1143.159,548.204,1131.576,548.204z"/>
			<path fill="#FFFFFF" d="M1343.303,399.569c1.875,6.421,3.944,13.66,6.211,21.72c2.267,8.064,4.688,16.4,7.268,25.007
				c2.575,8.61,5.195,17.222,7.851,25.83c2.656,8.61,5.236,16.594,7.738,23.95c2.043-7.984,4.128-16.672,6.252-26.064
				c2.12-9.392,4.128-19.096,6.013-29.117c1.886-10.016,3.735-19.995,5.544-29.938c1.809-9.94,3.5-19.526,5.074-28.765h38.05
				c-5.511,27.238-11.85,54.869-19.016,82.889c-7.165,28.023-14.922,54.634-23.264,79.836h-33.504
				c-5.471-15.028-10.783-30.797-15.938-47.314c-5.158-16.514-10.236-33.069-15.233-49.663
				c-5.016,16.594-10.031,33.149-15.047,49.663c-5.016,16.517-10.266,32.286-15.75,47.314h-33.479
				c-8.336-25.202-16.078-51.813-23.229-79.836c-7.154-28.019-13.48-55.65-18.983-82.889h39.684
				c1.569,9.239,3.302,18.825,5.191,28.765c1.886,9.942,3.853,19.922,5.9,29.938c2.044,10.02,4.127,19.724,6.252,29.117
				c2.124,9.392,4.289,18.081,6.49,26.064c2.822-7.668,5.566-15.809,8.233-24.42c2.664-8.608,5.254-17.219,7.764-25.83
				c2.51-8.608,4.821-16.907,6.938-24.89c2.118-7.983,4.04-15.105,5.765-21.368H1343.303z"/>
			<path fill="#FFFFFF" d="M1500.929,516.974c5.166,0,9.43-0.429,12.797-1.291c3.365-0.859,6.065-2.033,8.102-3.523
				c2.032-1.485,3.441-3.247,4.226-5.283c0.781-2.033,1.174-4.304,1.174-6.81c0-5.32-2.506-9.744-7.514-13.266
				c-5.011-3.523-13.619-7.316-25.829-11.389c-5.323-1.878-10.648-4.029-15.968-6.457c-5.323-2.426-10.097-5.478-14.323-9.158
				c-4.227-3.676-7.672-8.138-10.332-13.385c-2.664-5.242-3.992-11.623-3.992-19.137s1.409-14.283,4.227-20.312
				c2.818-6.024,6.809-11.153,11.975-15.38c5.165-4.226,11.425-7.473,18.785-9.744c7.356-2.267,15.651-3.405,24.889-3.405
				c10.956,0,20.428,1.174,28.412,3.522c7.984,2.349,14.559,4.931,19.724,7.749l-10.567,28.882
				c-4.542-2.348-9.591-4.421-15.145-6.222c-5.558-1.798-12.25-2.701-20.076-2.701c-8.769,0-15.068,1.214-18.903,3.64
				c-3.838,2.429-5.753,6.146-5.753,11.154c0,2.976,0.704,5.481,2.113,7.513c1.409,2.036,3.405,3.874,5.988,5.519
				c2.583,1.644,5.555,3.133,8.923,4.461c3.365,1.332,7.081,2.701,11.154,4.109c8.453,3.134,15.809,6.222,22.072,9.275
				c6.259,3.053,11.465,6.615,15.615,10.684c4.146,4.073,7.239,8.846,9.276,14.323c2.033,5.481,3.052,12.133,3.052,19.959
				c0,15.186-5.323,26.967-15.968,35.34c-10.647,8.376-26.691,12.562-48.136,12.562c-7.202,0-13.699-0.433-19.489-1.291
				c-5.793-0.862-10.918-1.919-15.38-3.17c-4.461-1.252-8.299-2.583-11.506-3.992c-3.21-1.409-5.911-2.736-8.101-3.991
				l10.332-29.117c4.85,2.664,10.838,5.048,17.963,7.162C1481.869,515.918,1490.598,516.974,1500.929,516.974z"/>
		</g>
	</g>
</g>
<g id="Laag_2">
</g>
</svg>
