<?xml version="1.0" encoding="utf-8"?>
<!-- Generator: Adobe Illustrator 22.1.0, SVG Export Plug-In . SVG Version: 6.00 Build 0)  -->
<svg version="1.1" id="Layer_1" xmlns="http://www.w3.org/2000/svg" xmlns:xlink="http://www.w3.org/1999/xlink" x="0px" y="0px"
	 viewBox="0 0 1600 900" enable-background="new 0 0 1600 900" xml:space="preserve">
<g>
	<g>
		<path fill="#00BED6" d="M1155.343,368.334c26.596,0,48.153-21.568,48.153-48.158c0-26.605-21.557-48.158-48.153-48.158
			c-26.595,0-48.158,21.553-48.158,48.158C1107.185,346.766,1128.749,368.334,1155.343,368.334 M1203.844,540.586
			c0,59.35-28.883,97.705-98.318,97.705h-2.665c-24.265,0-49.673-6.434-65.523-16.645c-27.551-17.74-45.524-46.889-27.379-77.693
			c16.813-28.553,75.688-33.812,84.414,15.887c3.053,17.389,12.271,15.119,12.271-0.924l0.021-118.229
			c0.011-35.338,21.801-57.086,48.678-57.07c26.869,0.022,48.638,21.781,48.634,48.623L1203.844,540.586z"/>
		<path fill="#00BED6" d="M1325.164,629.127v-130.98c0-9.459,5.911-25.395,16.874-29.672c11.189-4.285,21.399,0.674,33.637,5.252
			c40.395,15.398,71.808-4.973,76.676-31.383c4.901-26.391-12.535-51.756-38.947-56.648c-32.422-6.07-55.286,4.111-81.781,24.568
			c-0.032,0.016-0.046,0.029-0.071,0.051c-1.867,1.439-6.883,5.789-8.645,7.266c-6.241-19.689-24.642-33.963-46.371-33.963
			c-26.862,0-48.619,21.768-48.619,48.623v196.887H1325.164z"/>
		<path fill="#00BED6" d="M1408.198,631.785c26.594,0,48.148-21.566,48.148-48.15c0-26.611-21.554-48.137-48.148-48.137
			c-26.586,0-48.157,21.525-48.157,48.137C1360.041,610.219,1381.612,631.785,1408.198,631.785"/>
		<path fill="#FF5100" d="M228.272,383.609c-35.268-0.029-67.648,14.432-90.712,37.568c-23.13,23.057-37.59,55.43-37.561,90.719
			v117.166h97.38v-51.268v-63.92c0.031-14.023,3.378-26.025,9.046-35.31c5.744-9.172,13.171-14.59,21.847-14.633
			c8.69,0.043,16.103,5.461,21.842,14.633c5.666,9.285,9.019,21.287,9.048,35.31v115.188h97.393V511.897
			c0.024-35.289-14.444-67.662-37.575-90.719C295.915,398.041,263.548,383.58,228.272,383.609"/>
		<path fill="#FF5100" d="M461.354,352.076c9.801-9.795,15.856-23.324,15.856-38.277c0-14.961-6.055-28.49-15.856-38.285
			c-9.798-9.801-23.333-15.842-38.285-15.842c-14.943,0-28.471,6.041-38.263,15.842c-9.81,9.795-15.862,23.324-15.862,38.285
			c0,14.953,6.053,28.482,15.862,38.277l11.946,11.965c19.963,19.963,21.378,25.244,2.392,44.217l-10.859,10.877
			c-8.922,8.914-14.416,21.217-14.416,34.809v175.105h98.421V453.943c0-13.592-5.509-25.895-14.412-34.809l-10.869-10.869
			c-18.982-18.967-17.566-24.262,2.389-44.232L461.354,352.076z"/>
		<g>
			<path fill="#FF5100" d="M635.809,552.824c-5.761,10.59-13.174,16.875-21.855,16.889c-8.693-0.014-16.096-6.299-21.85-16.889
				c-5.658-10.727-9.022-24.576-9.037-40.799c0.014-16.215,3.379-30.064,9.037-40.799c5.754-10.584,13.174-16.846,21.85-16.902
				c8.682,0.057,16.094,6.318,21.855,16.902c4.188,7.967,7.115,17.641,8.356,28.732h97.491
				c-2.874-30.531-16.52-58.238-36.989-78.639c-23.076-23.145-55.446-37.596-90.714-37.582
				c-35.264-0.014-67.649,14.438-90.707,37.582c-23.139,23.059-37.602,55.438-37.566,90.705
				c-0.035,35.268,14.428,67.646,37.566,90.713c17.761,17.762,48.693,37.588,90.714,37.588c31.577,0,60.803-11.6,83.132-30.631
				c16.297-13.807,40.43-41.572,44.564-85.611h-97.491C642.924,535.184,639.997,544.879,635.809,552.824z"/>
		</g>
		<path fill="#FF5100" d="M999.295,612.045c0-3.26-0.975-6.275-2.565-8.869l-53.331-80.652l36.909-67.039
			c13.657-23.158,5.969-53.008-17.2-66.672c-23.165-13.658-53.019-5.955-66.676,17.217l-44.102,78.811v-52.543
			c0-26.883-21.804-48.695-48.696-48.695c-26.874,0-48.691,21.812-48.691,48.695v196.766h97.387v-77.041l51.382,77.02l78.613-0.027
			l0,0C991.699,629.014,999.295,621.418,999.295,612.045z"/>
	</g>
	<g>
		<path fill="#00BED6" d="M1465.55,398.635h-6.052v-3.088h15.718v3.088h-6.041v16.854h-3.625V398.635z M1479.514,395.203h0.602
			l9.67,10.812l9.601-10.812h0.613v20.285h-3.633v-12.561l-6.245,7.459h-0.666l-6.312-7.459v12.561h-3.629V395.203z"/>
	</g>
</g>
</svg>
