<?xml version="1.0" encoding="utf-8"?>
<!-- Generator: Adobe Illustrator 22.1.0, SVG Export Plug-In . SVG Version: 6.00 Build 0)  -->
<svg version="1.2" baseProfile="tiny" xmlns="http://www.w3.org/2000/svg" xmlns:xlink="http://www.w3.org/1999/xlink" x="0px"
	 y="0px" viewBox="0 0 1600 900" xml:space="preserve">
<g id="Layer_1">
	<g>
		<g>
			<path fill="#F08700" d="M1470.5,529.3h-5.2v-2.6h13.5v2.6h-5.2v14.4h-3.1V529.3z M1482.4,526.4h0.5l8.3,9.3l8.2-9.3h0.5v17.4
				h-3.1V533l-5.4,6.4h-0.6l-5.4-6.4v10.8h-3.1V526.4z"/>
		</g>
		<g>
			<path fill="#F08700" d="M167.1,415.4c-18.4,0-35.4,7.5-47.4,19.6c-12.1,12.1-19.7,29-19.6,47.4v61.3h50.9l0-26.8v-33.4
				c0-7.3,1.8-13.6,4.7-18.5c3-4.8,6.9-7.6,11.4-7.7c4.5,0,8.4,2.9,11.4,7.7c3,4.9,4.7,11.1,4.7,18.5v60.2h50.9v-61.3
				c0-18.5-7.5-35.4-19.6-47.4C202.5,423,185.5,415.4,167.1,415.4"/>
			<path fill="#F08700" d="M1386.1,415.4c-18.4,0-35.4,7.5-47.4,19.6c-12.1,12.1-19.7,29-19.6,47.4v61.3h50.9l0-26.8v-33.4
				c0-7.3,1.8-13.6,4.7-18.5c3-4.8,6.9-7.6,11.4-7.7c4.5,0,8.4,2.9,11.4,7.7c3,4.9,4.7,11.1,4.7,18.5v60.2h50.9v-61.3
				c0-18.5-7.6-35.4-19.7-47.4C1421.5,423,1404.6,415.4,1386.1,415.4"/>
			<path fill="#F08700" d="M289,398.9c5.1-5.1,8.3-12.2,8.3-20c0-7.8-3.2-14.9-8.3-20c-5.1-5.1-12.2-8.3-20-8.3
				c-7.8,0-14.9,3.2-20,8.3c-5.1,5.1-8.3,12.2-8.3,20c0,7.8,3.2,14.9,8.3,20l6.3,6.3c10.4,10.4,11.2,13.2,1.2,23.1l-5.7,5.7
				c-4.7,4.7-7.5,11.1-7.5,18.2v91.6h51.5v-91.6c0-7.1-2.9-13.5-7.5-18.2l-5.7-5.7c-9.9-9.9-9.2-12.7,1.2-23.1L289,398.9z"/>
			<g>
				<path fill="#F08700" d="M380.2,503.9c-3,5.5-6.9,8.8-11.4,8.8c-4.5,0-8.4-3.3-11.4-8.8c-3-5.6-4.7-12.9-4.7-21.3
					c0-8.5,1.8-15.7,4.7-21.3c3-5.5,6.9-8.8,11.4-8.8c4.5,0,8.4,3.3,11.4,8.8c2.2,4.2,3.7,9.2,4.4,15h51c-1.5-16-8.6-30.5-19.3-41.1
					c-12.1-12.1-29-19.7-47.4-19.7c-18.4,0-35.4,7.5-47.4,19.7c-12.1,12.1-19.7,29-19.6,47.4c0,18.4,7.5,35.4,19.6,47.4
					c9.3,9.3,25.5,19.7,47.4,19.7c16.5,0,31.8-6.1,43.5-16c8.5-7.2,21.1-21.7,23.3-44.8h-51C383.9,494.7,382.4,499.7,380.2,503.9z"
					/>
			</g>
			<g>
				<path fill="#F08700" d="M630.9,415.4c-18.4,0-35.4,7.5-47.4,19.6c-12.1,12.1-19.7,29-19.7,47.4c0,18.4,7.6,35.4,19.7,47.4
					c11.8,11.8,28.4,19.6,47.7,19.6c19.9,0,36.4-8.9,47.5-20.1c14-16.1,14.7-33.3,14.7-33.3h-45.4c0,0-6.3,15.8-17.1,15.8
					c-4.5,0-8.4-3.3-11.4-8.8c-2-3.8-3.5-8.5-4.2-13.7h79c0,0,5.4-32.3-16.2-54.1C665.6,422.7,649.6,415.4,630.9,415.4z
					 M616.2,470.5c0.9-3.9,2.2-7.4,3.4-9.9c2.3-4.9,6.9-8.8,11.4-8.8c4.6,0,8.3,3.3,11.5,9c1.4,2.5,2.6,6.8,3.2,9.7L616.2,470.5z"/>
			</g>
			<g>
				<path fill="#F08700" d="M1107.6,415.4c-18.4,0-35.4,7.5-47.4,19.6c-12.1,12.1-19.7,29-19.7,47.4c0,18.4,7.6,35.4,19.7,47.4
					c11.8,11.8,28.4,19.6,47.7,19.6c19.9,0,36.4-8.9,47.5-20.1c14-16.1,14.7-33.3,14.7-33.3h-45.4c0,0-6.3,15.8-17.1,15.8
					c-4.5,0-8.4-3.3-11.4-8.8c-2-3.8-3.5-8.5-4.2-13.7h79c0,0,5.4-32.3-16.2-54.1C1142.3,422.7,1126.3,415.4,1107.6,415.4z
					 M1092.9,470.5c0.9-3.9,2.2-7.4,3.4-9.9c2.3-4.9,6.9-8.8,11.4-8.8c4.6,0,8.3,3.3,11.5,9c1.4,2.5,2.6,6.8,3.2,9.7L1092.9,470.5z"
					/>
			</g>
			<path fill="#F08700" d="M727.1,350.3c-14.1,0-25.5,11.4-25.4,25.5l0.1,167.9l50.9,0l-0.1-167.9
				C752.5,361.7,741.1,350.3,727.1,350.3"/>
			<path fill="#F08700" d="M826.7,415.4c-37,0-67.1,30-67.1,67.1s30,67.1,67.1,67.1c37,0,67.1-30,67.1-67.1S863.8,415.4,826.7,415.4
				z M826.7,512.7c-8.9,0-16.2-13.5-16.2-30.2c0-16.7,7.2-30.2,16.2-30.2c8.9,0,16.2,13.5,16.2,30.2
				C842.9,499.2,835.7,512.7,826.7,512.7z"/>
			<path fill="#F08700" d="M1245.7,415.4c-37,0-67.1,30-67.1,67.1s30,67.1,67.1,67.1c37,0,67.1-30,67.1-67.1
				S1282.7,415.4,1245.7,415.4z M1245.7,512.7c-8.9,0-16.2-13.5-16.2-30.2c0-16.7,7.2-30.2,16.2-30.2c8.9,0,16.2,13.5,16.2,30.2
				C1261.8,499.2,1254.6,512.7,1245.7,512.7z"/>
			<path fill="#F08700" d="M1034.1,482.5L1034.1,482.5l0-106.7c0-14.1-11.4-25.5-25.5-25.5c-14.1,0-25.5,11.4-25.4,25.5l0,41.6
				c-5.2-1.3-10.6-2-16.2-2c-18.4,0-35.4,7.6-47.4,19.6c-12.1,12.1-19.7,29-19.6,47.4c0,18.4,7.5,35.4,19.6,47.4l0,0
				c7.7,7.8,24.3,19.7,47.4,19.7c23.1,0,39.7-11.9,47.4-19.7h0C1026.5,517.9,1034.1,501,1034.1,482.5
				C1034.1,482.5,1034.1,482.5,1034.1,482.5z M967,512.7c-8.9,0-16.2-13.5-16.2-30.2c0-16.7,7.2-30.2,16.2-30.2
				c8.9,0,16.2,13.5,16.2,30.2C983.2,499.2,975.9,512.7,967,512.7z"/>
		</g>
		<path fill="#F08700" d="M571.2,534.9c0-1.7-0.5-3.3-1.3-4.6L542,488l19.3-35.1c7.1-12.1,3.1-27.7-9-34.9
			c-12.1-7.1-27.7-3.1-34.9,9l-23.1,41.2v-27.5c0-14.1-11.4-25.5-25.5-25.5c-14.1,0-25.5,11.4-25.5,25.5v102.9h50.9v-40.3l26.9,40.3
			l41.1,0l0,0C567.3,543.7,571.2,539.8,571.2,534.9z"/>
	</g>
</g>
<g id="Laag_2" display="none">
</g>
</svg>
