<?xml version="1.0" encoding="utf-8"?>
<!-- Generator: Adobe Illustrator 22.1.0, SVG Export Plug-In . SVG Version: 6.00 Build 0)  -->
<svg version="1.1" id="Layer_1" xmlns="http://www.w3.org/2000/svg" xmlns:xlink="http://www.w3.org/1999/xlink" x="0px" y="0px"
	 viewBox="0 0 1600 900" enable-background="new 0 0 1600 900" xml:space="preserve">
<g>
	<g>
		<path fill="#E94E5A" d="M788.416,407.422h-95.229c-16.762,0.021-30.347,13.615-30.335,30.387
			c0.01,16.762,13.614,30.348,30.381,30.326h17.187l0.06,92.629l60.716-0.021l-0.063-92.607h17.239
			c16.772,0.022,30.378-13.564,30.378-30.326C818.768,421.037,805.179,407.443,788.416,407.422"/>
		<path fill="#E94E5A" d="M1407.541,475.906c-22.855-10.135-34.894-13.926-35.291-22.207c-0.353-7.355,7.599-8.697,10.394-8.697
			c16.116,0,17.348,16.314,17.348,20.066h49.153c0-27.943-25.187-56.734-68.234-56.713c-36.98-0.021-62.037,25.205-62.037,49.066
			c0,9.037,4.093,27.094,44.086,44.846c22.844,10.135,34.889,13.928,35.285,22.203c0.358,7.363-7.593,9.447-10.389,9.447
			c-16.116,0-17.348-17.064-17.348-20.811h-49.153c0,27.939,25.188,56.732,68.218,56.717c36.99,0.016,62.049-25.209,62.049-49.072
			C1451.623,511.715,1447.524,493.658,1407.541,475.906"/>
		<path fill="#F08700" d="M434.072,512.957c-3.596,6.594-8.22,10.508-13.625,10.529c-5.416-0.021-10.039-3.936-13.624-10.529
			c-3.529-6.693-5.626-15.328-5.631-25.455c0.005-10.102,2.102-18.744,5.631-25.42c3.585-6.6,8.215-10.502,13.624-10.543
			c5.405,0.041,10.029,3.943,13.625,10.543c2.611,4.959,4.434,10.996,5.211,17.918h60.789c-1.789-19.049-10.303-36.33-23.064-49.045
			c-14.391-14.422-34.569-23.43-56.561-23.422c-21.989-0.008-42.169,9-56.555,23.422c-14.434,14.379-23.445,34.564-23.426,56.547
			c-0.02,22,8.992,42.176,23.426,56.572c0.034,0.035,0,0.098,0,0.098c14.386,14.422,34.565,23.436,56.555,23.426
			c21.991,0.01,42.17-9.004,56.561-23.426c0,0-0.041-0.062,0-0.098c12.762-12.74,21.275-30,23.064-49.033h-60.789
			C438.505,501.941,436.683,507.98,434.072,512.957"/>
		<path fill="#F08700" d="M179.975,407.447c-21.98-0.004-42.174,9.004-56.552,23.424C109,445.25,99.989,465.438,100,487.426v73.488
			h60.723l-0.01-32.395v-39.842c0.021-8.76,2.115-16.228,5.65-22.031c3.575-5.717,8.199-9.094,13.612-9.121
			c5.428,0.027,10.044,3.404,13.62,9.121c3.532,5.803,5.625,13.271,5.644,22.031v72.236h60.713v-73.488
			c0.02-21.988-8.994-42.176-23.419-56.555C222.153,416.451,201.973,407.443,179.975,407.447"/>
		<path fill="#F08700" d="M648.865,452.26c8.514-14.432,3.715-33.047-10.724-41.557c-14.443-8.518-33.054-3.721-41.569,10.725
			l-27.498,49.133v-32.752c0-16.76-13.594-30.361-30.358-30.361c-16.766,0-30.365,13.602-30.365,30.361V560.91h60.724v-48.451
			l32.163,49.463c0,0,39.006-0.016,50.146-0.016c8.883,0,12.985-8.91,5.717-19.842l-31.26-48.016L648.865,452.26z"/>
		<path fill="#F08700" d="M325.302,387.787c6.111-6.108,9.879-14.545,9.879-23.863c0-9.328-3.768-17.756-9.879-23.883
			c-6.105-6.094-14.551-9.865-23.871-9.865c-9.316,0-17.751,3.771-23.859,9.883c-6.105,6.109-9.893,14.537-9.893,23.865
			c0,9.318,3.788,17.756,9.893,23.863l7.456,7.459c12.44,12.445,13.326,15.74,1.496,27.568l-6.782,6.787
			c-5.558,5.553-8.98,13.227-8.98,21.697V560.91h61.359V451.299c0-8.471-3.432-16.145-8.989-21.697l-6.779-6.771
			c-11.837-11.826-10.954-15.143,1.496-27.584L325.302,387.787z"/>
		<path fill="#E94E5A" d="M1285.412,431.078c-14.395-14.455-34.621-23.484-56.648-23.465c-22.032-0.02-42.247,9.01-56.658,23.465
			c-14.449,14.398-23.471,34.617-23.465,56.652v73.184h60.835v-32.022v-39.914c0.014-8.768,2.11-16.262,5.643-22.068
			c3.591-5.721,8.221-9.109,13.645-9.133c5.424,0.023,10.059,3.412,13.645,9.133c3.545,5.807,5.637,13.301,5.646,22.068v71.936
			h60.821V487.73C1308.903,465.695,1299.872,445.477,1285.412,431.078"/>
		<path fill="#E94E5A" d="M1117.653,431.164c-14.396-14.457-34.63-23.477-56.649-23.473c-22.034-0.004-42.256,9.016-56.654,23.473
			c-14.443,14.398-23.481,34.623-23.458,56.652c-0.023,22.02,9.015,42.248,23.458,56.648c0,0.004,0.018,0.004,0.018,0.004h-0.018
			c1.326,1.338,4.496,4.154,4.671,4.301c13.945,11.912,32.231,19.18,51.983,19.17c19.717,0.01,37.974-7.238,51.92-19.121
			c0.218-0.184,3.412-3.027,4.729-4.35c14.46-14.404,23.495-34.633,23.483-56.652
			C1141.148,465.787,1132.113,445.562,1117.653,431.164 M1074.635,513.293c-3.591,6.621-8.208,10.523-13.632,10.559
			c-5.432-0.035-10.056-3.938-13.635-10.559c-3.556-6.699-5.637-15.334-5.659-25.477c0.022-10.131,2.104-18.793,5.659-25.482
			c3.579-6.611,8.203-10.522,13.635-10.559c5.424,0.037,10.041,3.947,13.632,10.562c3.534,6.69,5.638,15.348,5.659,25.479
			C1080.273,497.947,1078.17,506.594,1074.635,513.293"/>
		<path fill="#E94E5A" d="M952.74,431.164c-14.399-14.457-34.625-23.477-56.647-23.473c-22.038-0.004-42.253,9.016-56.646,23.473
			c-14.449,14.398-23.486,34.623-23.476,56.652c-0.011,22.02,9.026,42.248,23.476,56.648c0,0.004,0.011,0.004,0.011,0.004h-0.011
			c1.318,1.338,4.494,4.154,4.666,4.301c13.942,11.912,32.23,19.18,51.98,19.17c19.713,0.01,37.969-7.238,51.923-19.121
			c0.221-0.184,3.415-3.027,4.724-4.35c14.457-14.404,23.499-34.633,23.486-56.652C976.239,465.787,967.197,445.562,952.74,431.164
			 M909.728,513.293c-3.585,6.621-8.215,10.523-13.635,10.559c-5.423-0.035-10.054-3.938-13.638-10.559
			c-3.54-6.699-5.631-15.334-5.655-25.477c0.024-10.131,2.115-18.793,5.655-25.482c3.584-6.611,8.215-10.522,13.638-10.559
			c5.42,0.037,10.05,3.947,13.635,10.562c3.539,6.69,5.641,15.348,5.653,25.479C915.369,497.947,913.267,506.594,909.728,513.293"/>
	</g>
	<g>
		<path fill="#E94E5A" d="M1464.747,416.004h-6.185v-3.162h16.082v3.162h-6.185v17.25h-3.712V416.004z M1479.04,412.5h0.62
			l9.894,11.062l9.83-11.062H1500v20.754h-3.715v-12.852l-6.386,7.629h-0.688l-6.459-7.629v12.852h-3.713V412.5z"/>
	</g>
</g>
</svg>
