<?xml version="1.0" encoding="utf-8"?>
<!-- Generator: Adobe Illustrator 22.1.0, SVG Export Plug-In . SVG Version: 6.00 Build 0)  -->
<svg version="1.1" id="Layer_1" xmlns="http://www.w3.org/2000/svg" xmlns:xlink="http://www.w3.org/1999/xlink" x="0px" y="0px"
	 viewBox="0 0 1600 900" enable-background="new 0 0 1600 900" xml:space="preserve">
<g>
	<g>
		<path id="C_12_" fill="#E65C00" d="M443.898,516.474c-3.624,6.657-8.299,10.606-13.757,10.636
			c-5.473-0.036-10.133-3.979-13.757-10.636c-3.565-6.76-5.68-15.473-5.695-25.695c0.012-10.207,2.13-18.935,5.695-25.68
			c3.624-6.657,8.299-10.606,13.757-10.636c5.458,0.035,10.133,3.979,13.757,10.636c2.633,5.015,4.482,11.109,5.266,18.091h61.375
			c-1.805-19.23-10.399-36.671-23.283-49.526c-14.542-14.556-34.911-23.654-57.115-23.654s-42.588,9.097-57.115,23.654
			c-14.571,14.526-23.668,34.911-23.653,57.115c-0.012,22.204,9.082,42.588,23.653,57.114v0.106
			c14.527,14.571,34.911,23.668,57.115,23.654c22.204,0.012,42.573-9.083,57.115-23.654v-0.106
			c12.884-12.855,21.479-30.295,23.283-49.511h-61.375C448.38,505.349,446.531,511.443,443.898,516.474"/>
		<path id="I_12_" fill="#E65C00" d="M334.061,390.243c6.168-6.168,9.985-14.69,9.985-24.098c0-9.423-3.816-17.929-9.985-24.112
			c-6.168-6.154-14.689-9.971-24.097-9.971s-17.929,3.816-24.097,9.985s-10,14.674-10,24.098c0,9.408,3.831,17.929,10,24.098
			l7.53,7.529c12.559,12.574,13.461,15.902,1.509,27.84l-6.849,6.849c-5.606,5.607-9.068,13.358-9.068,21.908v110.694h61.966
			V454.369c0-8.55-3.476-16.301-9.082-21.908l-6.849-6.834c-11.952-11.937-11.065-15.281,1.509-27.855l7.53-7.53L334.061,390.243z"
			/>
		<path id="K_6_" fill="#E65C00" d="M660.787,455.36c8.595-14.571,3.757-33.372-10.828-41.967
			c-14.586-8.609-33.372-3.758-41.982,10.828l-27.766,49.615V440.76c0-16.923-13.727-30.651-30.65-30.651
			c-16.937,0-30.665,13.727-30.665,30.651v124.303h61.315v-48.919l32.485,49.955c0,0,39.378-0.024,50.635-0.024
			c8.964,0,13.106-8.994,5.769-20.03l-31.568-48.476l23.254-42.203L660.787,455.36z"/>
		<path id="N_6_" fill="#E65C00" d="M187.308,410.094c-22.204,0-42.588,9.097-57.114,23.654
			c-14.556,14.512-23.654,34.911-23.654,57.1v74.215h61.316v-32.707V492.12c0.012-8.846,2.13-16.39,5.71-22.248
			c3.609-5.769,8.269-9.186,13.742-9.216c5.473,0.036,10.148,3.447,13.757,9.216c3.565,5.858,5.68,13.403,5.695,22.248v72.943
			h61.301v-74.215c0.024-22.189-9.082-42.588-23.639-57.1C229.897,419.192,209.512,410.094,187.308,410.094"/>
	</g>
	<g>
		<path id="C_11_" fill="#70319A" d="M1428.786,516.574c-3.606,6.643-8.293,10.603-13.732,10.612
			c-5.478-0.009-10.136-3.969-13.783-10.612c-3.534-6.775-5.691-15.473-5.691-25.722c0-10.207,2.157-18.917,5.691-25.692
			c3.647-6.655,8.305-10.614,13.783-10.644c5.439,0.03,10.126,3.99,13.732,10.644c2.642,5.023,4.507,11.118,5.286,18.105h61.399
			c-1.794-19.229-10.39-36.689-23.292-49.529c-14.511-14.583-34.947-23.706-57.125-23.685c-22.259-0.021-42.653,9.102-57.155,23.685
			c-14.592,14.493-23.688,34.907-23.657,57.116c-0.03,22.229,9.065,42.623,23.657,57.146c11.199,11.199,30.673,23.655,57.155,23.655
			c19.878,0,38.28-7.302,52.356-19.27c10.237-8.7,25.467-26.179,28.061-53.905h-61.399
			C1433.293,505.453,1431.428,511.56,1428.786,516.574"/>
		<path id="I_11_" fill="#70319A" d="M1318.838,390.08c6.168-6.168,9.985-14.69,9.985-24.098c0-9.423-3.816-17.929-9.985-24.112
			c-6.168-6.154-14.689-9.971-24.097-9.971s-17.929,3.816-24.098,9.985c-6.168,6.168-10,14.674-10,24.098
			c0,9.408,3.831,17.929,10,24.098l7.53,7.529c12.559,12.574,13.461,15.902,1.509,27.84l-6.849,6.849
			c-5.606,5.607-9.068,13.358-9.068,21.908v110.694h61.966V454.205c0-8.55-3.477-16.301-9.083-21.908l-6.849-6.834
			c-11.953-11.937-11.065-15.281,1.509-27.855l7.53-7.53L1318.838,390.08z"/>
		<path id="S_6_" fill="#70319A" d="M1208.144,477.746c-23.127-10.259-35.314-14.098-35.714-22.475
			c-0.356-7.442,7.694-8.806,10.526-8.806c16.307,0,17.553,16.515,17.553,20.311h49.739c0-28.272-25.484-57.404-69.041-57.388
			c-37.434-0.012-62.785,25.5-62.785,49.65c0,9.147,4.136,27.426,44.609,45.395c23.113,10.244,35.314,14.084,35.714,22.46
			c0.356,7.457-7.694,9.563-10.526,9.563c-16.308,0-17.553-17.257-17.553-21.052h-49.739c0,28.271,25.484,56.422,69.041,56.406
			c37.433,0.012,62.784-24.533,62.784-48.683C1252.753,513.98,1248.617,495.715,1208.144,477.746"/>
		<path id="U_6_" fill="#70319A" d="M1028.175,571.81c22.199,0.009,42.584-6.213,57.125-20.756
			c14.574-14.55,22.236-32.763,22.206-54.971v-80.277l-59.857-0.082v31.657v41.703c-0.051,8.82-2.147,19.276-5.721,25.119
			c-3.636,5.772-8.305,9.186-13.753,9.206c-5.469-0.021-10.147-3.435-13.742-9.206c-3.606-5.843-5.691-16.299-5.712-25.119v-73.371
			h-59.907v80.369c-0.012,22.208,7.644,40.421,22.224,54.971C985.571,565.597,1005.958,571.819,1028.175,571.81"/>
		<path fill="#70319A" d="M913.398,433.507c-14.559-14.588-34.663-24.186-56.915-24.186c-18.883,0-31.979,6.949-45.755,17.852
			c-13.834-10.95-26.707-17.702-45.671-17.702c-22.347,0-43.716,9.157-58.337,23.807c-14.65,14.606-23.644,35.136-23.644,57.469
			v75.056h60.091v-73.775c0-8.903,1.945-16.496,5.532-22.392c3.633-5.806,11.039-9.24,16.548-9.275
			c5.509,0.03,11.845,3.469,15.477,9.275c3.603,5.896,4.045,13.489,4.045,22.392v73.775h48.535v-73.795
			c0-8.865,2.699-16.427,6.286-22.297c3.617-5.781,11.45-9.207,16.935-9.236c5.485,0.036,12.209,3.455,15.826,9.236
			c3.572,5.871,4.865,13.432,4.865,22.297v73.795h57.78v-75.07C934.998,468.495,927.986,448.051,913.398,433.507z"/>
	</g>
</g>
</svg>
