<?xml version="1.0" encoding="utf-8"?>
<!-- Generator: Adobe Illustrator 22.1.0, SVG Export Plug-In . SVG Version: 6.00 Build 0)  -->
<svg version="1.1" id="Layer_1" xmlns="http://www.w3.org/2000/svg" xmlns:xlink="http://www.w3.org/1999/xlink" x="0px" y="0px"
	 viewBox="0 0 1599.999 900" enable-background="new 0 0 1599.999 900" xml:space="preserve">
<g>
	<g>
		<path fill="#E6E6E6" d="M530.845,291.39c7.404,7.393,7.172,14.379-1.14,22.656l-15.598,15.619
			c-8.337,8.312-15.249,8.54-22.674,1.112l-17.858-17.865c-7.407-7.385-7.196-14.365,1.105-22.655l15.591-15.612
			c8.348-8.326,15.291-8.526,22.72-1.126L530.845,291.39z M605.969,180.543c-7.428-7.407-14.386-7.186-22.691,1.14l-15.612,15.612
			c-8.291,8.291-8.534,15.27-1.098,22.655l17.829,17.865c7.421,7.428,14.358,7.2,22.691-1.126l15.605-15.612
			c8.276-8.284,8.518-15.284,1.119-22.663L605.969,180.543z M878.955,437.724L634.47,682.188c-24.609,24.624-52.846,24.624-77.441,0
			L312.577,437.739c-24.619-24.616-24.619-52.832,0-77.448l244.46-244.435c24.624-24.637,52.832-24.637,77.434,0L878.934,360.29
			C903.558,384.886,903.558,413.115,878.955,437.724z M476.612,388.036l-39.415-39.394c-18.421-18.421-40.506-18.763-61.18,1.897
			l-14.717,14.693c-20.659,20.66-20.335,42.78-1.907,61.202l39.391,39.437c6.893,6.865,14.6,5.839,19.893,0.585
			c5.261-5.304,6.177-12.96-0.713-19.79l-39.048-39.094c-7.403-7.385-7.182-14.358,1.141-22.663l15.612-15.598
			c8.288-8.32,15.277-8.562,22.674-1.134l39.063,39.052c6.836,6.88,14.486,5.96,19.768,0.691
			C482.465,402.622,483.478,394.908,476.612,388.036z M550.393,272.499l-18.575-18.5c-18.4-18.421-40.506-18.763-61.151,1.91
			l-14.717,14.721c-20.663,20.638-20.339,42.73-1.936,61.173l59.519,59.483c6.876,6.844,14.611,5.839,19.893,0.564
			c5.279-5.283,6.171-12.882-0.68-19.768l-13.698-13.659c3.725-0.785,8.312-3.629,13.702-9.004l15.704-15.734
			C569.142,313.041,568.785,290.941,550.393,272.499z M643.353,179.538l-18.557-18.514c-18.378-18.421-40.52-18.749-61.166,1.911
			l-14.699,14.721c-20.671,20.652-20.328,42.752-1.946,61.172l18.557,18.507c18.4,18.464,40.527,18.784,61.172-1.868l14.7-14.735
			C662.088,220.08,661.753,197.966,643.353,179.538z"/>
		<path fill="#009CDD" d="M476.612,388.036c6.866,6.872,5.853,14.585,0.56,19.882c-5.282,5.268-12.932,6.188-19.768-0.691
			l-39.063-39.052c-7.396-7.428-14.386-7.186-22.674,1.134l-15.612,15.598c-8.323,8.305-8.544,15.277-1.141,22.663l39.048,39.094
			c6.89,6.83,5.974,14.486,0.713,19.79c-5.293,5.254-13,6.28-19.893-0.585l-39.391-39.437
			c-18.428-18.421-18.752-40.542,1.907-61.202l14.717-14.693c20.674-20.66,42.76-20.317,61.18-1.897L476.612,388.036z
			 M643.353,179.538c18.4,18.428,18.735,40.542-1.939,61.194l-14.7,14.735c-20.645,20.652-42.773,20.332-61.172,1.868
			l-18.557-18.507c-18.382-18.421-18.724-40.52,1.946-61.172l14.699-14.721c20.646-20.66,42.788-20.332,61.166-1.911
			L643.353,179.538z M623.813,198.415l-17.844-17.872c-7.428-7.407-14.386-7.186-22.691,1.14l-15.612,15.612
			c-8.291,8.291-8.534,15.27-1.098,22.655l17.829,17.865c7.421,7.428,14.358,7.2,22.691-1.126l15.605-15.612
			C630.97,212.794,631.213,205.794,623.813,198.415z M550.393,272.499c18.392,18.442,18.748,40.542-1.94,61.187l-15.704,15.734
			c-5.39,5.375-9.977,8.219-13.702,9.004l13.698,13.659c6.851,6.886,5.96,14.485,0.68,19.768c-5.282,5.275-13.017,6.28-19.893-0.564
			l-59.519-59.483c-18.403-18.443-18.727-40.535,1.936-61.173l14.717-14.721c20.645-20.674,42.752-20.332,61.151-1.91
			L550.393,272.499z M530.845,291.39l-17.854-17.872c-7.428-7.4-14.371-7.2-22.72,1.126l-15.591,15.612
			c-8.302,8.291-8.512,15.27-1.105,22.655l17.858,17.865c7.425,7.428,14.336,7.201,22.674-1.112l15.598-15.619
			C538.017,305.769,538.249,298.782,530.845,291.39z"/>
	</g>
	<path fill="#009CDD" d="M609.776,360.287c-24.609,24.609-24.609,52.826,0,77.434l244.456,244.463
		c24.624,24.624,52.832,24.624,77.463,0l244.456-244.463c24.609-24.609,24.58-52.839,0-77.434L931.695,115.845
		c-24.631-24.63-52.839-24.63-77.441,0L609.776,360.287z"/>
	<g>
		<path fill="#FFFFFF" d="M994.351,432.724c25.45,0,38.481-15.898,38.481-35.595V284.258c0-19.704-13.031-35.602-38.481-35.609
			l-203.729,0.007c-24.809,0-37.527,15.569-37.534,34.661c0.007,19.077,12.725,34.654,37.534,34.654l157.976-0.007
			c5.403,0.007,8.583,2.859,8.583,9.21v27.033c0,6.352-3.18,9.204-8.583,9.204l-157.021,0.007
			c-25.436,0-38.488,15.898-38.482,35.602v112.85c-0.007,19.718,13.046,35.595,38.468,35.587l203.758,0.007
			c24.78-0.007,37.512-15.577,37.512-34.654c0-19.062-12.732-34.633-37.512-34.633H837.33c-5.403,0-8.583-2.865-8.583-9.224v-27.019
			c0-6.352,3.194-9.21,8.583-9.21H994.351z"/>
	</g>
	<g>
		<path fill="#009CDD" d="M1052.668,744.668c1.492,0.681,2.716,1.358,3.667,2.31c2.308,2.308,2.581,5.571,0.95,9.102
			c-4.076,8.964-10.596,16.842-17.524,23.769c-23.635,23.636-48.356,23.091-71.446,0c-25.13-25.129-20.918-50.528-3.531-67.915
			c19.152-19.152,43.193-19.56,66.149,3.397c3.939,3.939,3.124,7.739,0.542,10.32l-42.109,42.109
			c10.188,9.645,23.502,11.003,38.442-3.937c5.025-5.025,8.558-10.732,11.138-15.758c0.815-1.631,1.494-2.852,2.447-3.805
			c2.173-2.173,4.889-2.173,8.967-0.542L1052.668,744.668z M1008.793,725.516c-11.138-9.78-22.82-10.596-32.194-1.221
			c-9.372,9.372-8.283,20.782,1.36,32.056L1008.793,725.516z"/>
		<path fill="#009CDD" d="M1060.544,685.448l-47.813-6.793c-1.902-0.271-3.668-0.948-4.754-2.034
			c-1.495-1.495-1.495-3.668,0.952-6.115l6.52-6.52c4.754-4.754,8.42-5.704,14.398-4.889l28.661,4.481l-4.755-28.387
			c-1.089-5.978,0.134-9.643,4.889-14.398l5.706-5.707c2.445-2.444,4.618-2.444,6.112-0.95c1.087,1.087,1.764,2.852,2.037,4.752
			l6.791,47.816l52.023,6.925c1.905,0.274,3.667,0.953,4.755,2.039c1.494,1.494,1.494,3.668-0.95,6.112l-6.52,6.52
			c-4.755,4.754-8.42,5.704-14.398,4.889l-32.873-4.889l5.299,32.463c1.086,5.976-0.137,9.646-4.892,14.4l-5.704,5.705
			c-2.444,2.444-4.618,2.444-6.112,0.95c-1.086-1.087-1.765-2.85-2.039-4.755L1060.544,685.448z"/>
		<path fill="#009CDD" d="M1097.08,610.065l-5.025,5.026c-4.211,4.21-7.744,4.208-11.954-0.002l-1.902-1.902
			c-4.21-4.21-4.21-7.742,0-11.951l5.026-5.025l-11.14-11.14c-4.21-4.21-4.21-7.742,0.002-11.954l4.347-4.346
			c4.21-4.21,7.741-4.21,11.951,0l11.14,11.14l16.845-16.845c4.21-4.21,7.741-4.21,11.951,0l1.902,1.902
			c4.21,4.21,4.213,7.744,0.002,11.954l-16.844,16.844l27.98,27.98c11.411,11.411,18.883,9.643,26.761,1.766
			c1.221-1.221,2.444-2.718,3.397-3.939c0.679-0.952,1.763-2.31,2.307-2.854c2.173-2.173,4.347-2.443,7.472-0.406l3.124,2.039
			c0.815,0.542,2.444,1.629,3.123,2.308c2.581,2.581,2.716,5.704,0.274,9.235c-2.447,3.531-5.028,6.928-8.151,10.051
			c-16.979,16.979-34.231,18.476-52.976-0.269L1097.08,610.065z"/>
		<path fill="#009CDD" d="M1143.399,554.238c-4.076-4.076-4.62-8.151-1.768-13.177c5.163-9.235,11.819-17.792,18.476-24.448
			c3.124-3.124,6.655-6.386,10.322-9.238c3.802-2.986,7.47-2.85,10.322,0.002c0.542,0.542,1.766,2.035,2.31,2.852l1.086,1.629
			c2.987,4.617,3.531,7.335,0.271,10.595c-1.9,1.9-5.841,4.752-9.646,8.557c-3.259,3.259-7.604,8.42-9.641,12.361l48.219,48.219
			c4.212,4.212,4.212,7.744,0,11.956l-4.346,4.346c-4.211,4.21-7.742,4.21-11.954-0.002L1143.399,554.238z"/>
		<path fill="#009CDD" d="M1195.693,503.028c-1.494-0.679-2.581-1.492-3.397-2.308c-2.581-2.581-2.037-5.841-0.95-8.559
			c2.581-6.655,10.461-17.25,18.067-24.857c19.016-19.015,36.944-20.373,56.912-0.405l33.821,33.821
			c4.891,4.892,3.804,8.694,1.226,12.903c-3.533,5.707-13.858,18.473-21.599,26.214c-18.881,18.881-37.626,23.228-52.702,8.151
			c-15.213-15.213-10.324-33.957,7.199-51.481c6.925-6.925,13.04-10.867,16.434-12.903l-2.037-2.037
			c-8.423-8.422-17.524-9.103-28.527,1.9c-5.433,5.433-8.42,10.867-11.135,16.029c-0.818,1.629-1.631,2.989-2.581,3.938
			c-2.173,2.173-4.62,2.173-8.832,0.408L1195.693,503.028z M1262.388,495.286c-4.076,2.171-8.83,5.841-13.177,10.188
			c-10.729,10.73-12.632,19.152-5.57,26.215c6.928,6.928,15.079,5.027,26.219-6.112c3.938-3.939,7.877-8.694,10.048-12.769
			L1262.388,495.286z"/>
	</g>
</g>
</svg>
