<?xml version="1.0" encoding="utf-8"?>
<!-- Generator: Adobe Illustrator 22.1.0, SVG Export Plug-In . SVG Version: 6.00 Build 0)  -->
<svg version="1.2" baseProfile="tiny" xmlns="http://www.w3.org/2000/svg" xmlns:xlink="http://www.w3.org/1999/xlink" x="0px"
	 y="0px" viewBox="0 0 1600 900" xml:space="preserve">
<g id="Layer_1">
	<g>
		<g>
			<path fill="#DCDDDE" d="M550.7,326.3c8.6,8.5,8.3,16.6-1.3,26.2l-18,18.1c-9.6,9.6-17.6,9.9-26.2,1.3l-20.7-20.7
				c-8.6-8.5-8.3-16.6,1.3-26.2l18-18.1c9.7-9.6,17.7-9.9,26.3-1.3L550.7,326.3z M637.6,198.1c-8.6-8.6-16.6-8.3-26.2,1.3
				l-18.1,18.1c-9.6,9.6-9.9,17.7-1.3,26.2l20.6,20.7c8.6,8.6,16.6,8.3,26.2-1.3l18-18.1c9.6-9.6,9.9-17.7,1.3-26.2L637.6,198.1z
				 M953.3,495.6L670.5,778.3c-28.5,28.5-61.1,28.5-89.6,0L298.2,495.6c-28.5-28.5-28.5-61.1,0-89.6L581,123.3
				c28.5-28.5,61.1-28.5,89.6,0L953.2,406C981.7,434.5,981.7,467.1,953.3,495.6z M488,438.1l-45.6-45.6
				c-21.3-21.3-46.8-21.7-70.8,2.2l-17,17c-23.9,23.9-23.5,49.5-2.2,70.8l45.6,45.6c8,7.9,16.9,6.8,23,0.7c6.1-6.1,7.1-15-0.8-22.9
				L375,460.7c-8.6-8.5-8.3-16.6,1.3-26.2l18.1-18c9.6-9.6,17.7-9.9,26.2-1.3l45.2,45.2c7.9,8,16.8,6.9,22.9,0.8
				C494.7,455,495.9,446.1,488,438.1z M573.3,304.5l-21.5-21.4c-21.3-21.3-46.8-21.7-70.7,2.2l-17,17c-23.9,23.9-23.5,49.4-2.2,70.7
				l68.8,68.8c8,7.9,16.9,6.8,23,0.7c6.1-6.1,7.1-14.9-0.8-22.9L537,403.9c4.3-0.9,9.6-4.2,15.8-10.4l18.2-18.2
				C595,351.4,594.6,325.8,573.3,304.5z M680.8,197l-21.5-21.4c-21.3-21.3-46.9-21.7-70.7,2.2l-17,17c-23.9,23.9-23.5,49.4-2.3,70.7
				l21.5,21.4c21.3,21.4,46.9,21.7,70.7-2.2l17-17C702.5,243.9,702.1,218.3,680.8,197z"/>
			<path fill="#109CD8" d="M488,438.1c7.9,7.9,6.8,16.9,0.6,23c-6.1,6.1-15,7.2-22.9-0.8l-45.2-45.2c-8.6-8.6-16.6-8.3-26.2,1.3
				l-18.1,18c-9.6,9.6-9.9,17.7-1.3,26.2l45.2,45.2c8,7.9,6.9,16.8,0.8,22.9c-6.1,6.1-15,7.3-23-0.7l-45.6-45.6
				c-21.3-21.3-21.7-46.9,2.2-70.8l17-17c23.9-23.9,49.5-23.5,70.8-2.2L488,438.1z M680.8,197c21.3,21.3,21.7,46.9-2.2,70.8l-17,17
				c-23.9,23.9-49.5,23.5-70.7,2.2l-21.5-21.4c-21.3-21.3-21.7-46.9,2.3-70.7l17-17c23.9-23.9,49.5-23.5,70.7-2.2L680.8,197z
				 M658.2,218.8l-20.6-20.7c-8.6-8.6-16.6-8.3-26.2,1.3l-18.1,18.1c-9.6,9.6-9.9,17.7-1.3,26.2l20.6,20.7
				c8.6,8.6,16.6,8.3,26.2-1.3l18-18.1C666.5,235.4,666.8,227.3,658.2,218.8z M573.3,304.5c21.3,21.3,21.7,46.9-2.2,70.8l-18.2,18.2
				c-6.2,6.2-11.5,9.5-15.8,10.4l15.8,15.8c7.9,8,6.9,16.8,0.8,22.9c-6.1,6.1-15.1,7.3-23-0.7l-68.8-68.8
				c-21.3-21.3-21.7-46.9,2.2-70.7l17-17c23.9-23.9,49.4-23.5,70.7-2.2L573.3,304.5z M550.7,326.3L530,305.7
				c-8.6-8.6-16.6-8.3-26.3,1.3l-18,18.1c-9.6,9.6-9.8,17.7-1.3,26.2l20.7,20.7c8.6,8.6,16.6,8.3,26.2-1.3l18-18.1
				C559,343,559.2,334.9,550.7,326.3z"/>
		</g>
		<path fill="#109CD8" d="M642,406c-28.5,28.5-28.5,61.1,0,89.6l282.7,282.7c28.5,28.5,61.1,28.5,89.6,0L1297,495.6
			c28.5-28.5,28.4-61.1,0-89.6l-282.7-282.7c-28.5-28.5-61.1-28.5-89.6,0L642,406z"/>
		<rect x="7.9" y="-75.7" fill="none" width="1579.5" height="1053"/>
		<g>
			<path fill="#FFFFFF" d="M1086.7,489.8c29.4,0,44.5-18.4,44.5-41.2V318.1c0-22.8-15.1-41.2-44.5-41.2l-235.6,0
				c-28.7,0-43.4,18-43.4,40.1c0,22.1,14.7,40.1,43.4,40.1l182.7,0c6.2,0,9.9,3.3,9.9,10.7V399c0,7.3-3.7,10.6-9.9,10.6l-181.6,0
				c-29.4,0-44.5,18.4-44.5,41.2v130.5c0,22.8,15.1,41.2,44.5,41.2l235.7,0c28.7,0,43.4-18,43.4-40.1c0-22-14.7-40.1-43.4-40.1
				H905.1c-6.2,0-9.9-3.3-9.9-10.7v-31.2c0-7.3,3.7-10.7,9.9-10.7H1086.7z"/>
		</g>
	</g>
</g>
<g id="Laag_2" display="none">
</g>
</svg>
