<?xml version="1.0" encoding="utf-8"?>
<!-- Generator: Adobe Illustrator 22.1.0, SVG Export Plug-In . SVG Version: 6.00 Build 0)  -->
<svg version="1.1" id="Layer_1" xmlns="http://www.w3.org/2000/svg" xmlns:xlink="http://www.w3.org/1999/xlink" x="0px" y="0px"
	 viewBox="0 0 1600 900" enable-background="new 0 0 1600 900" xml:space="preserve">
<g>
	<path fill="#E6E6E5" d="M663.15,223.106c8.584,8.554,8.302,16.674-1.301,26.292l-18.106,18.12
		c-9.67,9.654-17.718,9.924-26.325,1.301l-20.695-20.723c-8.627-8.574-8.339-16.673,1.28-26.294l18.114-18.11
		c9.639-9.666,17.702-9.918,26.325-1.334L663.15,223.106z M534.555,310.248c-8.609-8.588-16.67-8.364-26.349,1.304l-18.104,18.118
		c-9.629,9.611-9.875,17.717-1.27,26.283l20.713,20.737c8.617,8.611,16.639,8.352,26.309-1.297l18.098-18.12
		c9.639-9.602,9.913-17.709,1.321-26.292L534.555,310.248z M959.186,500.779L675.514,784.432c-28.554,28.569-61.315,28.569-89.851,0
		L302.031,500.795c-28.573-28.561-28.573-61.297,0-89.862l283.641-283.632c28.571-28.589,61.295-28.589,89.843,0l283.653,283.632
		C987.738,439.467,987.738,472.226,959.186,500.779z M492.354,443.124l-45.741-45.708c-21.378-21.377-46.989-21.778-70.979,2.205
		l-17.085,17.04c-23.973,23.975-23.59,49.641-2.215,71.013l45.709,45.764c7.998,7.967,16.935,6.772,23.076,0.672
		c6.107-6.15,7.164-15.032-0.813-22.955l-45.326-45.366c-8.586-8.572-8.316-16.658,1.333-26.292l18.106-18.101
		c9.629-9.658,17.735-9.937,26.315-1.314l45.319,45.309c7.943,7.986,16.819,6.918,22.937,0.805
		C499.145,460.049,500.309,451.103,492.354,443.124z M577.961,309.062l-21.555-21.465c-21.346-21.379-47.003-21.766-70.958,2.22
		l-17.071,17.078c-23.975,23.943-23.608,49.585-2.252,70.981l69.06,69.025c7.982,7.933,16.957,6.772,23.085,0.653
		c6.131-6.132,7.164-14.951-0.797-22.939l-15.884-15.85c4.315-0.911,9.633-4.211,15.898-10.448l18.224-18.257
		C599.713,356.108,599.297,330.457,577.961,309.062z M685.823,201.201l-21.533-21.478c-21.324-21.381-47.021-21.761-70.973,2.211
		l-17.055,17.08c-23.99,23.965-23.584,49.608-2.254,70.985l21.528,21.467c21.346,21.423,47.024,21.798,70.977-2.164l17.053-17.095
		C707.562,248.235,707.173,222.581,685.823,201.201z"/>
	<path fill="#D9151B" d="M492.354,443.124c7.955,7.978,6.791,16.925,0.637,23.072c-6.119,6.113-14.995,7.182-22.937-0.805
		l-45.319-45.309c-8.58-8.623-16.686-8.344-26.315,1.314l-18.106,18.101c-9.649,9.634-9.919,17.72-1.333,26.292l45.326,45.366
		c7.976,7.923,6.92,16.805,0.813,22.955c-6.141,6.099-15.077,7.294-23.076-0.672l-45.709-45.764
		c-21.376-21.372-21.758-47.038,2.215-71.013l17.085-17.04c23.99-23.983,49.602-23.581,70.979-2.205L492.354,443.124z
		 M685.823,201.201c21.35,21.38,21.739,47.034-2.258,71.007l-17.053,17.095c-23.953,23.962-49.631,23.587-70.977,2.164L574.007,270
		c-21.33-21.378-21.736-47.02,2.254-70.985l17.055-17.08c23.953-23.973,49.649-23.592,70.973-2.211L685.823,201.201z
		 M663.15,223.106l-20.709-20.748c-8.623-8.584-16.686-8.332-26.325,1.334l-18.114,18.11c-9.619,9.621-9.907,17.72-1.28,26.294
		l20.695,20.723c8.607,8.622,16.655,8.352,24.523,0.503l18.106-18.12C671.452,239.78,671.734,231.66,663.15,223.106
		 M577.961,309.062c21.336,21.394,21.752,47.046-2.248,70.996l-18.224,18.257c-6.265,6.237-11.583,9.537-15.898,10.448l15.884,15.85
		c7.961,7.988,6.927,16.808,0.797,22.939c-6.129,6.119-15.103,7.28-23.085-0.653l-69.06-69.025
		c-21.356-21.396-21.723-47.038,2.252-70.981l17.071-17.078c23.955-23.986,49.611-23.598,70.958-2.22L577.961,309.062z
		 M555.274,330.982l-20.719-20.734c-8.609-8.588-16.67-8.364-26.349,1.304l-18.104,18.118c-9.629,9.611-9.875,17.717-1.27,26.283
		l20.713,20.737c8.617,8.611,16.639,8.352,26.309-1.297l18.098-18.12C563.592,347.671,563.866,339.565,555.274,330.982"/>
	<path fill="#D9151B" d="M646.86,410.919c-28.551,28.554-28.551,61.297,0,89.851L930.515,784.43
		c28.565,28.569,61.301,28.569,89.88,0l283.647-283.661c28.553-28.554,28.514-61.309,0-89.851l-283.647-283.626
		c-28.579-28.578-61.315-28.578-89.864,0L646.86,410.919z"/>
	<g>
		<path fill="#FFFFFF" d="M706.234,419.851c0-5.364,2.597-7.475,6.661-8.774c5.364-1.789,16.416-2.924,24.051-2.924
			c29.251,0,44.526,16.249,44.526,42.411c0,26.649-15.927,43.066-41.927,43.066c-5.851,0-10.562-0.814-13.811-1.792v22.267
			c0,5.038-2.112,7.148-7.152,7.148h-5.2c-5.038,0-7.148-2.11-7.148-7.148V419.851z M725.735,475.265
			c2.924,0.972,7.472,1.627,11.538,1.627c17.063,0,24.375-10.4,24.375-26.001c0-15.603-7.312-26.003-24.375-26.003
			c-4.066,0-8.613,0.652-11.538,1.626V475.265z"/>
		<path fill="#FFFFFF" d="M795.233,450.891c0-27.79,16.087-42.738,40.789-42.738c24.702,0,40.789,14.948,40.789,42.738
			c0,27.949-16.087,42.738-40.789,42.738C811.32,493.629,795.233,478.84,795.233,450.891z M856.984,450.891
			c0-16.577-7.476-26.003-20.962-26.003c-13.49,0-20.965,9.426-20.965,26.003c0,16.739,7.476,26.001,20.965,26.001
			C849.508,476.891,856.984,467.629,856.984,450.891z"/>
		<path fill="#FFFFFF" d="M892.482,383.774c0-5.036,2.112-7.151,7.148-7.151h5.2c5.038,0,7.152,2.115,7.152,7.151V484.85
			c0,5.038-2.114,7.154-7.152,7.154h-5.2c-5.036,0-7.148-2.116-7.148-7.154V383.774z"/>
		<path fill="#FFFFFF" d="M945.318,374.997c7.154,0,12.027,4.715,12.027,11.702c0,6.987-4.873,11.702-12.027,11.702
			c-7.148,0-12.023-4.715-12.023-11.702C933.295,379.712,938.17,374.997,945.318,374.997z M935.571,416.926
			c0-5.039,2.11-7.151,7.15-7.151h5.2c5.036,0,7.148,2.112,7.148,7.151v67.924c0,5.038-2.112,7.154-7.148,7.154h-5.2
			c-5.04,0-7.15-2.116-7.15-7.154V416.926z"/>
		<path fill="#FFFFFF" d="M982.42,426.35h-6.012c-5.038,0-7.148-2.112-7.148-7.148v-2.276c0-5.039,2.11-7.151,7.148-7.151h6.012
			v-13.327c0-5.034,2.112-7.148,7.152-7.148h5.2c5.036,0,7.148,2.114,7.148,7.148v13.327h20.151c5.04,0,7.15,2.112,7.15,7.151v2.276
			c0,5.036-2.11,7.148-7.15,7.148h-20.151v33.476c0,13.652,5.527,17.065,14.951,17.065c1.465,0,3.088-0.166,4.39-0.328
			c0.972-0.162,2.437-0.327,3.086-0.327c2.599,0,4.062,1.138,4.713,4.228l0.649,3.086c0.164,0.816,0.487,2.437,0.487,3.254
			c0,3.084-1.787,5.032-5.36,5.687c-3.575,0.651-7.152,1.138-10.889,1.138c-20.313,0-31.527-9.428-31.527-31.854V426.35z"/>
		<path fill="#FFFFFF" d="M1056.209,374.997c7.15,0,12.025,4.715,12.025,11.702c0,6.987-4.875,11.702-12.025,11.702
			s-12.023-4.715-12.023-11.702C1044.186,379.712,1049.059,374.997,1056.209,374.997z M1046.46,416.926
			c0-5.039,2.11-7.151,7.15-7.151h5.2c5.038,0,7.15,2.112,7.15,7.151v67.924c0,5.038-2.112,7.154-7.15,7.154h-5.2
			c-5.04,0-7.15-2.116-7.15-7.154V416.926z"/>
		<path fill="#FFFFFF" d="M1154.635,480.305c0.487,1.298,0.808,2.435,0.808,3.573c0,2.759-1.787,4.875-4.873,6.01
			c-7.803,2.926-16.416,3.741-24.702,3.741c-28.275,0-42.739-15.117-42.739-42.738c0-30.066,17.716-42.738,38.516-42.738
			c22.912,0,37.539,14.136,37.539,41.601c0,4.712-2.763,6.5-5.851,6.5h-50.379c0.327,11.86,7.475,20.639,25.351,20.639
			c6.016,0,11.538-1.304,16.089-2.765c1.463-0.487,2.601-0.814,3.737-0.814c2.601,0,4.228,1.625,5.687,5.038L1154.635,480.305z
			 M1139.844,442.6c-0.811-12.512-7.312-19.985-18.524-19.985s-17.388,7.473-18.364,19.985H1139.844z"/>
		<path fill="#FFFFFF" d="M1176.206,383.774c0-5.036,2.11-7.151,7.148-7.151h5.2c5.04,0,7.152,2.115,7.152,7.151v60.94
			l26.163-29.576c3.413-3.901,6.661-5.364,11.699-5.364h7.314c2.926,0,4.386,1.462,4.386,3.41c0,1.302-0.81,2.927-2.924,5.201
			l-27.788,30.715l28.437,34.449c1.787,2.276,2.276,3.741,2.276,5.04c0,1.948-1.459,3.413-3.899,3.413h-9.915
			c-3.899,0-6.987-1.465-10.236-5.689l-25.513-32.338v30.873c0,5.038-2.112,7.154-7.152,7.154h-5.2
			c-5.038,0-7.148-2.116-7.148-7.154V383.774z"/>
	</g>
</g>
</svg>
