<?xml version="1.0" encoding="utf-8"?>
<!-- Generator: Adobe Illustrator 22.1.0, SVG Export Plug-In . SVG Version: 6.00 Build 0)  -->
<svg version="1.1" id="Layer_1" xmlns="http://www.w3.org/2000/svg" xmlns:xlink="http://www.w3.org/1999/xlink" x="0px" y="0px"
	 viewBox="0 0 1600 900" enable-background="new 0 0 1600 900" xml:space="preserve">
<g>
	<path fill="#E6E6E5" d="M664.548,223.106c8.584,8.554,8.302,16.674-1.301,26.291l-18.106,18.12
		c-9.67,9.654-17.718,9.924-26.325,1.302l-20.695-20.723c-8.627-8.574-8.339-16.672,1.28-26.293l18.114-18.11
		c9.639-9.666,17.702-9.918,26.325-1.334L664.548,223.106z M535.953,310.247c-8.609-8.588-16.671-8.364-26.349,1.304L491.5,329.669
		c-9.629,9.611-9.875,17.717-1.27,26.283l20.713,20.737c8.617,8.611,16.639,8.352,26.309-1.297l18.098-18.12
		c9.639-9.602,9.913-17.709,1.321-26.292L535.953,310.247z M960.584,500.778L676.912,784.431c-28.554,28.569-61.315,28.569-89.851,0
		L303.429,500.794c-28.573-28.561-28.573-61.297,0-89.862L587.07,127.3c28.571-28.589,61.295-28.589,89.843,0l283.652,283.632
		C989.136,439.466,989.136,472.225,960.584,500.778z M493.752,443.123l-45.741-45.708c-21.377-21.377-46.988-21.778-70.978,2.205
		l-17.085,17.04c-23.973,23.975-23.59,49.641-2.215,71.013l45.709,45.764c7.998,7.967,16.935,6.772,23.075,0.672
		c6.106-6.15,7.163-15.032-0.812-22.955l-45.327-45.366c-8.586-8.572-8.315-16.658,1.333-26.292l18.106-18.101
		c9.629-9.658,17.735-9.938,26.315-1.314l45.318,45.309c7.943,7.986,16.819,6.918,22.937,0.804
		C500.543,460.048,501.707,451.101,493.752,443.123z M579.359,309.061l-21.555-21.465c-21.346-21.379-47.003-21.766-70.958,2.219
		l-17.071,17.078c-23.975,23.943-23.608,49.585-2.252,70.981l69.061,69.025c7.982,7.933,16.957,6.772,23.085,0.653
		c6.131-6.132,7.164-14.951-0.797-22.939l-15.884-15.85c4.315-0.911,9.633-4.211,15.898-10.448l18.224-18.257
		C601.112,356.107,600.695,330.455,579.359,309.061z M687.221,201.2l-21.533-21.478c-21.324-21.381-47.021-21.761-70.974,2.211
		l-17.055,17.08c-23.99,23.965-23.584,49.608-2.254,70.984l21.528,21.467c21.346,21.423,47.024,21.798,70.977-2.164l17.053-17.095
		C708.96,248.235,708.572,222.58,687.221,201.2z"/>
	<path fill="#D9151B" d="M493.752,443.123c7.955,7.978,6.791,16.925,0.637,23.072c-6.119,6.113-14.995,7.182-22.937-0.804
		l-45.318-45.309c-8.58-8.623-16.686-8.344-26.315,1.314l-18.106,18.101c-9.649,9.634-9.919,17.72-1.333,26.292l45.327,45.366
		c7.975,7.923,6.919,16.805,0.812,22.955c-6.141,6.099-15.077,7.294-23.075-0.672l-45.709-45.764
		c-21.376-21.372-21.758-47.038,2.215-71.013l17.085-17.04c23.991-23.982,49.602-23.581,70.978-2.205L493.752,443.123z
		 M687.221,201.2c21.35,21.38,21.738,47.034-2.258,71.006l-17.053,17.095c-23.953,23.962-49.631,23.587-70.977,2.164l-21.528-21.467
		c-21.33-21.377-21.736-47.019,2.254-70.984l17.055-17.08c23.953-23.973,49.649-23.592,70.974-2.211L687.221,201.2z
		 M664.548,223.106l-20.709-20.748c-8.623-8.584-16.686-8.332-26.325,1.334l-18.114,18.11c-9.619,9.621-9.907,17.719-1.28,26.293
		l20.695,20.723c8.607,8.622,16.655,8.352,24.523,0.503l18.106-18.12C672.85,239.779,673.132,231.66,664.548,223.106
		 M579.359,309.061c21.336,21.394,21.752,47.046-2.248,70.996l-18.224,18.257c-6.265,6.237-11.583,9.537-15.898,10.448l15.884,15.85
		c7.961,7.988,6.927,16.808,0.797,22.939c-6.129,6.119-15.103,7.28-23.085-0.653l-69.061-69.025
		c-21.356-21.396-21.723-47.038,2.252-70.981l17.071-17.078c23.955-23.985,49.612-23.598,70.958-2.219L579.359,309.061z
		 M556.672,330.981l-20.719-20.734c-8.609-8.588-16.671-8.364-26.349,1.304L491.5,329.669c-9.629,9.611-9.875,17.717-1.27,26.283
		l20.713,20.737c8.617,8.611,16.639,8.352,26.309-1.297l18.098-18.12C564.99,347.67,565.264,339.563,556.672,330.981"/>
	<path fill="#D9151B" d="M648.258,410.917c-28.551,28.554-28.551,61.297,0,89.851l283.654,283.661
		c28.565,28.569,61.301,28.569,89.88,0l283.645-283.661c28.554-28.553,28.514-61.309,0-89.851l-283.645-283.626
		c-28.579-28.578-61.315-28.578-89.865,0L648.258,410.917z"/>
	<g>
		<path fill="#FFFFFF" d="M717.426,419.693c0-2.166,0.434-3.925,1.302-5.282c0.866-1.353,2.76-2.462,5.687-3.332
			c1.625-0.431,3.628-0.837,6.014-1.218c2.38-0.379,4.873-0.703,7.475-0.975c2.597-0.269,5.141-0.46,7.637-0.569
			c2.489-0.106,4.711-0.163,6.659-0.163c12.784,0,22.316,2.819,28.601,8.45c6.283,5.635,9.426,15.168,9.426,28.6v39.649
			c0,4.768-2.384,7.148-7.15,7.148h-5.2c-4.768,0-7.15-2.38-7.15-7.148v-33.636c0-4.227-0.191-7.962-0.568-11.212
			c-0.381-3.251-1.274-5.985-2.682-8.207c-1.41-2.219-3.441-3.899-6.093-5.037c-2.654-1.138-6.312-1.706-10.97-1.706
			c-2.169,0-4.551,0.108-7.148,0.324c-2.601,0.219-4.713,0.543-6.338,0.976v58.498c0,4.768-2.384,7.148-7.148,7.148h-5.202
			c-4.77,0-7.152-2.38-7.152-7.148V419.693z"/>
		<path fill="#FFFFFF" d="M811.674,386.705c0-3.466,1.11-6.281,3.333-8.45c2.218-2.165,5.119-3.249,8.694-3.249
			c3.573,0,6.472,1.084,8.692,3.249c2.22,2.168,3.333,4.984,3.333,8.45c0,3.47-1.112,6.285-3.333,8.45
			c-2.22,2.169-5.119,3.251-8.692,3.251c-3.575,0-6.476-1.082-8.694-3.251C812.785,392.99,811.674,390.175,811.674,386.705z
			 M813.95,416.931c0-4.766,2.382-7.15,7.15-7.15h5.2c4.766,0,7.15,2.384,7.15,7.15v67.924c0,4.768-2.384,7.148-7.15,7.148h-5.2
			c-4.768,0-7.15-2.38-7.15-7.148V416.931z"/>
		<path fill="#FFFFFF" d="M925.748,480.305c0.54,1.41,0.812,2.599,0.812,3.573c0,2.82-1.625,4.825-4.874,6.015
			c-3.899,1.518-7.963,2.518-12.189,3.005c-4.226,0.487-8.394,0.732-12.512,0.732c-14.194,0-24.862-3.658-32.012-10.966
			c-7.15-7.316-10.727-17.901-10.727-31.771c0-7.476,1.031-13.919,3.094-19.338c2.062-5.415,4.857-9.857,8.387-13.324
			c3.53-3.467,7.627-6.013,12.297-7.638c4.666-1.625,9.607-2.437,14.817-2.437c11.508,0,20.656,3.493,27.441,10.481
			c6.781,6.987,10.179,17.362,10.179,31.119c0,2.383-0.599,4.063-1.792,5.039c-1.197,0.972-2.558,1.46-4.076,1.46h-50.519
			c0.104,2.927,0.649,5.66,1.623,8.204c0.976,2.549,2.463,4.742,4.47,6.582c2.005,1.846,4.602,3.279,7.801,4.307
			c3.193,1.031,7.01,1.544,11.455,1.544c3.033,0,5.904-0.268,8.613-0.811c2.705-0.542,5.2-1.191,7.476-1.952
			c1.623-0.538,2.869-0.812,3.735-0.812c2.382,0,4.279,1.68,5.689,5.04L925.748,480.305z M910.961,442.606
			c-0.434-6.282-2.222-11.186-5.362-14.707c-3.143-3.52-7.531-5.281-13.165-5.281c-5.634,0-9.968,1.761-12.997,5.281
			c-3.037,3.521-4.825,8.425-5.364,14.707H910.961z"/>
		<path fill="#FFFFFF" d="M949.959,416.931c0-4.766,2.38-7.15,7.148-7.15h5.2c4.766,0,7.148,2.384,7.148,7.15v33.802
			c0,4.116,0.191,7.797,0.572,11.047c0.377,3.252,1.219,5.987,2.52,8.207c1.3,2.222,3.248,3.926,5.849,5.117
			c2.599,1.195,6.174,1.789,10.723,1.789c2.382,0,4.794-0.132,7.231-0.406c2.439-0.268,4.522-0.621,6.257-1.055v-58.5
			c0-4.766,2.38-7.15,7.152-7.15h5.2c4.766,0,7.148,2.384,7.148,7.15v65.325c0,2.599-0.515,4.47-1.544,5.604
			c-1.029,1.138-2.844,2.088-5.444,2.846c-1.842,0.542-3.901,0.976-6.174,1.298c-2.273,0.327-4.63,0.625-7.067,0.895
			c-2.439,0.27-4.876,0.462-7.314,0.57c-2.437,0.106-4.63,0.162-6.582,0.162c-6.391,0-11.97-0.678-16.736-2.031
			c-4.768-1.353-8.724-3.494-11.863-6.419c-3.145-2.924-5.498-6.716-7.069-11.374c-1.57-4.658-2.354-10.345-2.354-17.063V416.931z"
			/>
		<path fill="#FFFFFF" d="M1039.982,419.043c-0.217-0.649-0.462-1.406-0.73-2.275c-0.274-0.866-0.408-1.569-0.408-2.112
			c0-1.407,0.459-2.572,1.378-3.494c0.921-0.919,2.414-1.381,4.47-1.381h6.338c2.276,0,4.117,0.516,5.526,1.544
			c1.406,1.03,2.49,2.79,3.25,5.281l15.6,52.65l16.738-52.65c0.755-2.491,1.788-4.251,3.09-5.281
			c1.299-1.028,3.029-1.544,5.198-1.544h6.823c2.059,0,3.741,0.516,5.038,1.544c1.3,1.03,2.331,2.79,3.088,5.281l16.738,52.65
			l15.6-52.65c0.757-2.491,1.842-4.251,3.252-5.281c1.406-1.028,3.248-1.544,5.523-1.544h5.689c2.055,0,3.546,0.462,4.466,1.381
			c0.921,0.922,1.382,2.087,1.382,3.494c0,0.543-0.136,1.246-0.406,2.112c-0.272,0.869-0.516,1.626-0.732,2.275l-22.91,66.137
			c-0.87,2.492-1.98,4.253-3.333,5.281c-1.355,1.029-3.226,1.542-5.608,1.542h-6.338c-2.49,0-4.415-0.513-5.766-1.542
			c-1.359-1.027-2.414-2.788-3.169-5.281l-16.412-51.35l-16.251,51.35c-0.761,2.492-1.816,4.253-3.167,5.281
			c-1.359,1.029-3.171,1.542-5.444,1.542h-6.501c-2.493,0-4.417-0.513-5.77-1.542c-1.355-1.027-2.465-2.788-3.331-5.281
			L1039.982,419.043z"/>
		<path fill="#FFFFFF" d="M1180.385,477.868c1.406-3.356,3.299-5.038,5.685-5.038c0.868,0,2.112,0.272,3.739,0.812
			c3.031,1.087,6.227,1.98,9.587,2.684c3.356,0.702,6.823,1.053,10.4,1.053c5.738,0,9.938-0.732,12.593-2.191
			c2.654-1.465,3.981-3.603,3.981-6.422c0-3.139-1.382-5.281-4.145-6.415c-2.761-1.138-6.364-2.199-10.806-3.169
			c-4.443-0.977-8.586-2.005-12.431-3.088c-3.845-1.085-7.178-2.52-9.994-4.307c-2.82-1.788-5.066-4.087-6.742-6.907
			c-1.682-2.817-2.52-6.444-2.52-10.888c0-8.125,3.005-14.463,9.012-19.012c6.009-4.549,14.813-6.825,26.414-6.825
			c3.575,0,7.312,0.272,11.212,0.812c3.902,0.543,7.691,1.519,11.374,2.925c3.143,1.193,4.715,3.143,4.715,5.85
			c0,0.975-0.274,2.168-0.816,3.575l-0.808,1.949c-1.412,3.36-3.307,5.038-5.689,5.038c-0.87,0-2.112-0.27-3.739-0.814
			c-2.818-0.974-5.685-1.73-8.611-2.274c-2.924-0.541-5.634-0.813-8.124-0.813c-4.985,0-8.803,0.706-11.457,2.113
			c-2.656,1.409-3.981,3.522-3.981,6.337c0,2.819,1.161,4.769,3.496,5.851c2.325,1.085,6.093,2.222,11.293,3.413
			c4.33,0.975,8.448,2.031,12.348,3.17c3.902,1.138,7.286,2.598,10.157,4.385c2.867,1.789,5.143,4.121,6.825,6.987
			c1.678,2.873,2.518,6.531,2.518,10.968c0,8.126-2.962,14.494-8.879,19.098c-5.918,4.604-15.016,6.904-27.282,6.904
			c-4.565,0-9.126-0.298-13.685-0.893c-4.561-0.596-8.797-1.651-12.705-3.169c-3.149-1.191-4.725-3.139-4.725-5.851
			c0-0.976,0.27-2.165,0.812-3.573L1180.385,477.868z"/>
	</g>
</g>
</svg>
