<?xml version="1.0" encoding="utf-8"?>
<!-- Generator: Adobe Illustrator 22.1.0, SVG Export Plug-In . SVG Version: 6.00 Build 0)  -->
<svg version="1.2" baseProfile="tiny" xmlns="http://www.w3.org/2000/svg" xmlns:xlink="http://www.w3.org/1999/xlink" x="0px"
	 y="0px" viewBox="0 0 1600 900" xml:space="preserve">
<g id="Layer_1">
	<g>
		<g>
			<path fill="#DCDDDE" d="M552.7,326.1c8.6,8.6,8.3,16.6-1.3,26.2l-18.1,18.1c-9.6,9.6-17.6,9.9-26.2,1.3L486.4,351
				c-8.6-8.5-8.3-16.6,1.3-26.2l18-18.1c9.7-9.6,17.7-9.9,26.3-1.3L552.7,326.1z M639.6,197.8c-8.6-8.6-16.6-8.3-26.3,1.3
				l-18.1,18.1c-9.6,9.6-9.9,17.7-1.3,26.2l20.6,20.7c8.6,8.6,16.6,8.3,26.3-1.3l18.1-18.1c9.6-9.6,9.9-17.7,1.3-26.2L639.6,197.8z
				 M955.5,495.5l-283,282.9c-28.5,28.5-61.2,28.5-89.6,0L300.1,495.5c-28.5-28.5-28.5-61.1,0-89.6L583,123
				c28.5-28.5,61.1-28.5,89.6,0l282.9,282.9C984,434.3,984,467,955.5,495.5z M489.9,438l-45.6-45.6c-21.3-21.3-46.9-21.7-70.8,2.2
				l-17,17c-23.9,23.9-23.5,49.5-2.2,70.8l45.6,45.6c8,7.9,16.9,6.8,23,0.7c6.1-6.1,7.1-15-0.8-22.9l-45.2-45.2
				c-8.6-8.5-8.3-16.6,1.3-26.2l18.1-18.1c9.6-9.6,17.7-9.9,26.2-1.3l45.2,45.2c7.9,8,16.8,6.9,22.9,0.8
				C496.7,454.9,497.9,445.9,489.9,438z M575.3,304.3l-21.5-21.4c-21.3-21.3-46.9-21.7-70.8,2.2l-17,17
				c-23.9,23.9-23.5,49.5-2.2,70.8l68.9,68.8c8,7.9,16.9,6.8,23,0.7c6.1-6.1,7.1-14.9-0.8-22.9L539,403.7c4.3-0.9,9.6-4.2,15.9-10.4
				l18.2-18.2C597,351.2,596.6,325.6,575.3,304.3z M682.9,196.7l-21.5-21.4c-21.3-21.3-46.9-21.7-70.8,2.2l-17,17
				c-23.9,23.9-23.5,49.5-2.3,70.8l21.5,21.4c21.3,21.4,46.9,21.7,70.8-2.2l17-17.1C704.6,243.6,704.2,218,682.9,196.7z"/>
			<path fill="#D9151B" d="M489.9,438c7.9,8,6.8,16.9,0.6,23c-6.1,6.1-15,7.2-22.9-0.8L422.5,415c-8.6-8.6-16.6-8.3-26.2,1.3
				l-18.1,18.1c-9.6,9.6-9.9,17.7-1.3,26.2l45.2,45.2c8,7.9,6.9,16.8,0.8,22.9c-6.1,6.1-15,7.3-23-0.7l-45.6-45.6
				c-21.3-21.3-21.7-46.9,2.2-70.8l17-17c23.9-23.9,49.5-23.5,70.8-2.2L489.9,438z M682.9,196.7c21.3,21.3,21.7,46.9-2.2,70.8
				l-17,17.1c-23.9,23.9-49.5,23.5-70.8,2.2l-21.5-21.4c-21.3-21.3-21.7-46.9,2.3-70.8l17-17c23.9-23.9,49.5-23.5,70.8-2.2
				L682.9,196.7z M660.3,218.5l-20.7-20.7c-8.6-8.6-16.6-8.3-26.3,1.3l-18.1,18.1c-9.6,9.6-9.9,17.7-1.3,26.2l20.6,20.7
				c8.6,8.6,16.6,8.3,26.3-1.3l18.1-18.1C668.5,235.2,668.8,227.1,660.3,218.5z M575.3,304.3c21.3,21.3,21.7,46.9-2.2,70.8
				l-18.2,18.2c-6.2,6.2-11.5,9.5-15.9,10.4l15.9,15.8c7.9,8,6.9,16.8,0.8,22.9c-6.1,6.1-15.1,7.3-23-0.7l-68.9-68.8
				c-21.3-21.3-21.7-46.9,2.2-70.8l17-17c23.9-23.9,49.5-23.5,70.8-2.2L575.3,304.3z M552.7,326.1L532,305.4
				c-8.6-8.6-16.6-8.3-26.3,1.3l-18,18.1c-9.6,9.6-9.9,17.7-1.3,26.2l20.7,20.7c8.6,8.6,16.6,8.3,26.2-1.3l18.1-18.1
				C561,342.8,561.2,334.7,552.7,326.1z"/>
		</g>
		<path fill="#D9151B" d="M644,405.9c-28.5,28.5-28.5,61.1,0,89.6l282.9,282.9c28.5,28.5,61.1,28.5,89.7,0l282.9-282.9
			c28.5-28.5,28.4-61.2,0-89.6L1016.6,123c-28.5-28.5-61.2-28.5-89.6,0L644,405.9z"/>
		<g>
			<path fill="#FFFFFF" d="M1018.5,322.3c0-33.5-21-50-46.7-50c-25.7,0-46.7,16.5-46.7,50v256.8c0,33.5,21,50.1,46.7,50.1
				c25.8,0,46.7-16.6,46.7-50.1V322.3z"/>
		</g>
	</g>
</g>
<g id="Laag_2" display="none">
</g>
</svg>
