<?xml version="1.0" encoding="utf-8"?>
<!-- Generator: Adobe Illustrator 22.1.0, SVG Export Plug-In . SVG Version: 6.00 Build 0)  -->
<svg version="1.2" baseProfile="tiny" xmlns="http://www.w3.org/2000/svg" xmlns:xlink="http://www.w3.org/1999/xlink" x="0px"
	 y="0px" viewBox="0 0 1600 900" xml:space="preserve">
<g id="Layer_1">
	<g>
		<g>
			<path fill="#DCDDDE" d="M550.7,332c8.6,8.5,8.3,16.6-1.3,26.2l-18,18.1c-9.6,9.6-17.6,9.9-26.2,1.3l-20.7-20.7
				c-8.6-8.5-8.3-16.6,1.3-26.2l18-18.1c9.7-9.6,17.7-9.9,26.3-1.3L550.7,332z M637.6,203.8c-8.6-8.6-16.6-8.3-26.2,1.3l-18.1,18.1
				c-9.6,9.6-9.9,17.7-1.3,26.2l20.6,20.7c8.6,8.6,16.6,8.3,26.2-1.3l18-18.1c9.6-9.6,9.9-17.7,1.3-26.2L637.6,203.8z M953.3,501.3
				L670.6,784c-28.5,28.5-61.1,28.5-89.6,0L298.3,501.3c-28.5-28.5-28.5-61.1,0-89.6L581,129c28.5-28.5,61.1-28.5,89.6,0
				l282.7,282.7C981.8,440.2,981.8,472.8,953.3,501.3z M488,443.8l-45.6-45.6c-21.3-21.3-46.8-21.7-70.8,2.2l-17,17
				c-23.9,23.9-23.5,49.5-2.2,70.8l45.6,45.6c8,7.9,16.9,6.8,23,0.7c6.1-6.1,7.1-15-0.8-22.9L375,466.4c-8.6-8.5-8.3-16.6,1.3-26.2
				l18.1-18c9.6-9.6,17.7-9.9,26.2-1.3l45.2,45.2c7.9,8,16.8,6.9,22.9,0.8C494.8,460.7,496,451.8,488,443.8z M573.3,310.2
				l-21.5-21.4c-21.3-21.3-46.8-21.7-70.7,2.2l-17,17c-23.9,23.9-23.5,49.4-2.2,70.7l68.8,68.8c8,7.9,16.9,6.8,23,0.7
				c6.1-6.1,7.1-14.9-0.8-22.9l-15.8-15.8c4.3-0.9,9.6-4.2,15.8-10.4l18.2-18.2C595,357.1,594.6,331.5,573.3,310.2z M680.9,202.7
				l-21.5-21.4c-21.3-21.3-46.9-21.7-70.7,2.2l-17,17c-23.9,23.9-23.5,49.4-2.3,70.7l21.5,21.4c21.3,21.4,46.9,21.7,70.7-2.2l17-17
				C702.5,249.6,702.1,224,680.9,202.7z"/>
			<path fill="#80C342" d="M488,443.8c7.9,7.9,6.8,16.9,0.6,23c-6.1,6.1-15,7.2-22.9-0.8l-45.2-45.2c-8.6-8.6-16.6-8.3-26.2,1.3
				l-18.1,18c-9.6,9.6-9.9,17.7-1.3,26.2l45.2,45.2c8,7.9,6.9,16.8,0.8,22.9c-6.1,6.1-15,7.3-23-0.7l-45.6-45.6
				c-21.3-21.3-21.7-46.9,2.2-70.8l17-17c23.9-23.9,49.5-23.5,70.8-2.2L488,443.8z M680.9,202.7c21.3,21.3,21.7,46.9-2.2,70.8
				l-17,17c-23.9,23.9-49.5,23.5-70.7,2.2l-21.5-21.4c-21.3-21.3-21.7-46.9,2.3-70.7l17-17c23.9-23.9,49.5-23.5,70.7-2.2
				L680.9,202.7z M658.3,224.5l-20.6-20.7c-8.6-8.6-16.6-8.3-26.2,1.3l-18.1,18.1c-9.6,9.6-9.9,17.7-1.3,26.2l20.6,20.7
				c8.6,8.6,16.6,8.3,26.2-1.3l18-18.1C666.5,241.1,666.8,233,658.3,224.5z M573.3,310.2c21.3,21.3,21.7,46.9-2.2,70.8l-18.2,18.2
				c-6.2,6.2-11.5,9.5-15.8,10.4l15.8,15.8c7.9,8,6.9,16.8,0.8,22.9c-6.1,6.1-15.1,7.3-23-0.7l-68.8-68.8
				c-21.3-21.3-21.7-46.9,2.2-70.7l17-17c23.9-23.9,49.4-23.5,70.7-2.2L573.3,310.2z M550.7,332l-20.6-20.7
				c-8.6-8.6-16.6-8.3-26.3,1.3l-18,18.1c-9.6,9.6-9.8,17.7-1.3,26.2l20.7,20.7c8.6,8.6,16.6,8.3,26.2-1.3l18-18.1
				C559,348.7,559.3,340.6,550.7,332z"/>
		</g>
		<path fill="#80C342" d="M642,411.7c-28.5,28.5-28.5,61.1,0,89.6L924.7,784c28.5,28.5,61.1,28.5,89.6,0L1297,501.3
			c28.5-28.5,28.4-61.1,0-89.6L1014.3,129c-28.5-28.5-61.1-28.5-89.6,0L642,411.7z"/>
		<rect x="7.9" y="-70" fill="none" width="1579.5" height="1053"/>
		<g>
			<path fill="#FFFFFF" d="M1131.3,324.9c0-22.8-15.1-41.2-44.5-41.2l-235.6,0c-28.7,0-43.4,18-43.4,40.1
				c0,22.1,14.7,40.1,43.4,40.1h182.7c6.3,0,9.9,3.3,9.9,10.7l0,31.3c0,7.4-3.6,10.6-9.9,10.7l-182.7,0c-28.7,0-43.4,18-43.4,40.1
				c0,22.1,14.7,40.1,43.4,40.1h182.7c6.3,0,9.9,3.3,9.9,10.7v31.2c0,7.4-3.7,10.7-9.9,10.7H851.2c-28.7,0-43.4,18-43.4,40.1
				c0,22.1,14.7,40.1,43.4,40.1h235.7c29.4,0,44.5-18.4,44.5-41.2L1131.3,324.9z"/>
		</g>
	</g>
</g>
<g id="Laag_2" display="none">
</g>
</svg>
