<?xml version="1.0" encoding="utf-8"?>
<!-- Generator: Adobe Illustrator 23.0.1, SVG Export Plug-In . SVG Version: 6.00 Build 0)  -->
<svg version="1.1" id="Layer_1" xmlns="http://www.w3.org/2000/svg" xmlns:xlink="http://www.w3.org/1999/xlink" x="0px" y="0px"
	 viewBox="0 0 1600 900" enable-background="new 0 0 1600 900" xml:space="preserve">
<g>
	<g>
		<path fill="#E6E6E6" d="M532.064,294.977c7.404,7.393,7.172,14.379-1.14,22.656l-15.598,15.619
			c-8.337,8.312-15.249,8.54-22.674,1.112L474.794,316.5c-7.407-7.385-7.196-14.365,1.105-22.655l15.591-15.612
			c8.348-8.326,15.291-8.526,22.72-1.126L532.064,294.977z M607.188,184.131c-7.428-7.407-14.386-7.186-22.691,1.14l-15.612,15.612
			c-8.291,8.291-8.534,15.27-1.098,22.655l17.829,17.865c7.421,7.428,14.358,7.2,22.691-1.126l15.605-15.612
			c8.276-8.284,8.518-15.284,1.119-22.663L607.188,184.131z M880.174,441.312L635.689,685.776
			c-24.609,24.624-52.846,24.624-77.441,0L313.795,441.327c-24.619-24.616-24.619-52.832,0-77.448l244.46-244.435
			c24.624-24.637,52.832-24.637,77.434,0l244.464,244.435C904.776,388.473,904.776,416.703,880.174,441.312z M477.831,391.624
			l-39.415-39.394c-18.421-18.421-40.506-18.763-61.18,1.897l-14.717,14.693c-20.659,20.66-20.335,42.78-1.907,61.202l39.391,39.437
			c6.893,6.865,14.6,5.839,19.893,0.585c5.261-5.304,6.177-12.96-0.713-19.79l-39.048-39.094
			c-7.403-7.385-7.182-14.358,1.141-22.663l15.612-15.598c8.288-8.32,15.277-8.562,22.674-1.134l39.063,39.052
			c6.836,6.88,14.486,5.96,19.768,0.691C483.684,406.209,484.696,398.496,477.831,391.624z M551.612,276.086l-18.575-18.5
			c-18.4-18.421-40.506-18.763-61.151,1.91l-14.717,14.721c-20.663,20.638-20.339,42.73-1.936,61.173l59.519,59.483
			c6.876,6.844,14.611,5.839,19.893,0.564c5.279-5.283,6.171-12.882-0.68-19.768l-13.698-13.659
			c3.725-0.785,8.312-3.629,13.702-9.004l15.704-15.734C570.36,316.628,570.004,294.528,551.612,276.086z M644.572,183.126
			l-18.557-18.514c-18.378-18.421-40.52-18.749-61.166,1.911l-14.699,14.721c-20.671,20.652-20.328,42.752-1.946,61.172
			l18.557,18.507c18.4,18.464,40.527,18.784,61.172-1.868l14.7-14.735C663.306,223.668,662.971,201.554,644.572,183.126z"/>
		<path fill="#D9151B" d="M477.831,391.624c6.866,6.872,5.853,14.585,0.56,19.882c-5.282,5.268-12.932,6.188-19.768-0.691
			l-39.063-39.052c-7.396-7.428-14.386-7.186-22.674,1.134l-15.612,15.598c-8.323,8.305-8.544,15.277-1.141,22.663l39.048,39.094
			c6.89,6.83,5.974,14.486,0.713,19.79c-5.293,5.254-13,6.28-19.893-0.585l-39.391-39.437
			c-18.428-18.421-18.752-40.542,1.907-61.202l14.717-14.693c20.674-20.66,42.76-20.317,61.18-1.897L477.831,391.624z
			 M644.572,183.126c18.4,18.428,18.735,40.542-1.939,61.194l-14.7,14.735c-20.645,20.652-42.773,20.332-61.172,1.868
			l-18.557-18.507c-18.382-18.421-18.724-40.52,1.946-61.172l14.699-14.721c20.646-20.66,42.788-20.332,61.166-1.911
			L644.572,183.126z M625.032,202.003l-17.844-17.872c-7.428-7.407-14.386-7.186-22.691,1.14l-15.612,15.612
			c-8.291,8.291-8.534,15.27-1.098,22.655l17.829,17.865c7.421,7.428,14.358,7.2,22.691-1.126l15.605-15.612
			C632.189,216.381,632.431,209.382,625.032,202.003z M551.612,276.086c18.392,18.442,18.749,40.542-1.94,61.187l-15.704,15.734
			c-5.39,5.375-9.977,8.219-13.702,9.004l13.698,13.659c6.851,6.886,5.96,14.485,0.68,19.768c-5.282,5.275-13.017,6.28-19.893-0.564
			l-59.519-59.483c-18.403-18.443-18.727-40.535,1.936-61.173l14.717-14.721c20.645-20.674,42.752-20.332,61.151-1.91
			L551.612,276.086z M532.064,294.977l-17.854-17.872c-7.428-7.4-14.371-7.2-22.72,1.126l-15.591,15.612
			c-8.302,8.291-8.512,15.27-1.105,22.655l17.858,17.864c7.425,7.428,14.336,7.201,22.674-1.112l15.598-15.619
			C539.235,309.357,539.467,302.37,532.064,294.977z"/>
	</g>
	<path fill="#D9151B" d="M610.995,363.875c-24.609,24.609-24.609,52.826,0,77.434l244.456,244.463
		c24.624,24.624,52.832,24.624,77.463,0l244.456-244.463c24.609-24.609,24.58-52.839,0-77.434L932.914,119.433
		c-24.631-24.63-52.839-24.63-77.441,0L610.995,363.875z"/>
	<g>
		<path fill="#FFFFFF" d="M934.56,291.652c-0.007-28.936-18.129-43.237-40.385-43.23c-22.249-0.007-40.349,14.293-40.349,43.222
			v221.886c0,28.922,18.107,43.251,40.349,43.251c22.256,0,40.385-14.329,40.385-43.251V291.652z"/>
	</g>
	<g>
		<path fill="#D9151B" d="M1053.886,748.256c1.492,0.681,2.716,1.358,3.667,2.31c2.308,2.308,2.581,5.571,0.95,9.102
			c-4.075,8.964-10.596,16.842-17.524,23.769c-23.635,23.636-48.356,23.091-71.446,0c-25.13-25.129-20.918-50.528-3.531-67.915
			c19.152-19.152,43.193-19.56,66.149,3.397c3.939,3.939,3.124,7.739,0.542,10.32l-42.109,42.109
			c10.188,9.645,23.502,11.003,38.442-3.937c5.025-5.025,8.559-10.732,11.138-15.758c0.815-1.631,1.494-2.852,2.447-3.805
			c2.173-2.173,4.889-2.173,8.967-0.542L1053.886,748.256z M1010.012,729.104c-11.138-9.78-22.82-10.596-32.194-1.221
			c-9.372,9.372-8.283,20.782,1.36,32.056L1010.012,729.104z"/>
		<path fill="#D9151B" d="M1061.762,689.036l-47.813-6.793c-1.902-0.271-3.668-0.948-4.754-2.034
			c-1.495-1.495-1.495-3.668,0.952-6.114l6.52-6.52c4.754-4.754,8.42-5.704,14.398-4.889l28.661,4.481l-4.754-28.387
			c-1.089-5.978,0.134-9.643,4.889-14.398l5.706-5.707c2.445-2.444,4.618-2.444,6.112-0.95c1.087,1.087,1.764,2.852,2.037,4.752
			l6.791,47.816l52.023,6.925c1.905,0.274,3.668,0.953,4.755,2.039c1.494,1.494,1.494,3.668-0.95,6.112l-6.52,6.52
			c-4.754,4.754-8.42,5.704-14.398,4.889l-32.873-4.889l5.299,32.463c1.086,5.976-0.137,9.646-4.892,14.4l-5.704,5.705
			c-2.444,2.444-4.618,2.444-6.112,0.95c-1.086-1.087-1.765-2.85-2.039-4.755L1061.762,689.036z"/>
		<path fill="#D9151B" d="M1098.299,613.653l-5.025,5.026c-4.211,4.21-7.744,4.208-11.954-0.002l-1.902-1.902
			c-4.21-4.21-4.21-7.742,0-11.951l5.026-5.025l-11.141-11.14c-4.21-4.21-4.21-7.742,0.002-11.954l4.347-4.346
			c4.21-4.21,7.741-4.21,11.951,0l11.14,11.14l16.845-16.845c4.21-4.21,7.741-4.21,11.952,0l1.902,1.902
			c4.21,4.21,4.213,7.744,0.002,11.954l-16.844,16.844l27.98,27.98c11.411,11.411,18.883,9.643,26.761,1.766
			c1.221-1.221,2.444-2.718,3.397-3.939c0.679-0.952,1.763-2.31,2.308-2.854c2.173-2.173,4.347-2.443,7.472-0.406l3.124,2.039
			c0.815,0.542,2.444,1.629,3.123,2.308c2.581,2.581,2.716,5.704,0.274,9.235c-2.447,3.531-5.028,6.928-8.151,10.051
			c-16.979,16.979-34.231,18.476-52.976-0.269L1098.299,613.653z"/>
		<path fill="#D9151B" d="M1144.618,557.825c-4.076-4.076-4.62-8.151-1.768-13.177c5.162-9.235,11.819-17.792,18.475-24.448
			c3.124-3.124,6.655-6.386,10.322-9.238c3.803-2.986,7.47-2.85,10.322,0.002c0.542,0.542,1.766,2.034,2.31,2.852l1.086,1.629
			c2.987,4.617,3.531,7.335,0.271,10.595c-1.9,1.9-5.841,4.752-9.646,8.557c-3.259,3.259-7.604,8.42-9.641,12.361l48.219,48.219
			c4.212,4.212,4.212,7.744,0,11.956l-4.346,4.346c-4.211,4.21-7.742,4.21-11.954-0.002L1144.618,557.825z"/>
		<path fill="#D9151B" d="M1196.912,506.615c-1.494-0.679-2.581-1.492-3.397-2.308c-2.581-2.581-2.037-5.841-0.95-8.558
			c2.581-6.655,10.461-17.25,18.067-24.857c19.016-19.015,36.944-20.373,56.912-0.405l33.822,33.821
			c4.891,4.892,3.804,8.694,1.226,12.903c-3.533,5.707-13.858,18.473-21.599,26.214c-18.881,18.881-37.625,23.228-52.702,8.151
			c-15.213-15.213-10.324-33.957,7.199-51.481c6.926-6.925,13.04-10.867,16.434-12.903l-2.037-2.037
			c-8.423-8.422-17.524-9.103-28.527,1.9c-5.433,5.433-8.42,10.867-11.135,16.029c-0.818,1.629-1.631,2.989-2.581,3.938
			c-2.173,2.173-4.62,2.173-8.832,0.408L1196.912,506.615z M1263.606,498.874c-4.076,2.171-8.83,5.841-13.177,10.188
			c-10.73,10.73-12.632,19.152-5.57,26.215c6.928,6.928,15.079,5.027,26.219-6.112c3.938-3.939,7.877-8.694,10.048-12.769
			L1263.606,498.874z"/>
	</g>
</g>
</svg>
