<?xml version="1.0" encoding="utf-8"?>
<!-- Generator: Adobe Illustrator 23.0.1, SVG Export Plug-In . SVG Version: 6.00 Build 0)  -->
<svg version="1.1" id="Layer_1" xmlns="http://www.w3.org/2000/svg" xmlns:xlink="http://www.w3.org/1999/xlink" x="0px" y="0px"
	 viewBox="0 0 1600 900" enable-background="new 0 0 1600 900" xml:space="preserve">
<g>
	<g>
		<path fill="#E6E6E6" d="M879.214,438.145L634.16,683.177c-24.666,24.681-52.969,24.681-77.621,0L311.517,438.159
			c-24.676-24.674-24.676-52.955,0-77.629l245.029-245.004c24.681-24.695,52.955-24.695,77.614,0l245.033,245.004
			C903.874,385.183,903.874,413.478,879.214,438.145z"/>
		<path fill="#5ECE18" d="M475.934,388.341c6.882,6.888,5.867,14.619,0.561,19.928c-5.295,5.281-12.962,6.203-19.814-0.693
			l-39.154-39.143c-7.414-7.446-14.42-7.203-22.726,1.136l-15.648,15.634c-8.343,8.324-8.564,15.313-1.144,22.716l39.139,39.185
			c6.906,6.846,5.988,14.52,0.715,19.836c-5.306,5.266-13.03,6.295-19.939-0.586l-39.482-39.528
			c-18.471-18.464-18.796-40.636,1.911-61.344l14.752-14.727c20.722-20.708,42.859-20.365,61.323-1.901L475.934,388.341z
			 M643.063,179.357c18.442,18.471,18.778,40.636-1.943,61.337l-14.734,14.769c-20.693,20.7-42.872,20.379-61.315,1.872l-18.6-18.55
			c-18.425-18.464-18.768-40.614,1.951-61.315l14.733-14.755c20.694-20.708,42.888-20.379,61.308-1.916L643.063,179.357z
			 M623.478,198.278l-17.886-17.913c-7.445-7.425-14.419-7.203-22.744,1.143L567.2,197.157c-8.311,8.31-8.554,15.306-1.1,22.708
			l17.871,17.907c7.438,7.446,14.391,7.217,22.744-1.129l15.641-15.649C630.652,212.691,630.895,205.674,623.478,198.278z
			 M549.887,272.535c18.435,18.485,18.792,40.636-1.944,61.329l-15.741,15.77c-5.402,5.387-10,8.238-13.734,9.025l13.73,13.691
			c6.867,6.902,5.974,14.519,0.682,19.814c-5.295,5.287-13.048,6.295-19.939-0.565l-59.657-59.622
			c-18.446-18.486-18.771-40.63,1.94-61.315l14.752-14.755c20.693-20.722,42.851-20.379,61.293-1.915L549.887,272.535z
			 M530.294,291.469l-17.896-17.913c-7.446-7.417-14.405-7.217-22.773,1.129l-15.627,15.649c-8.321,8.31-8.532,15.306-1.108,22.708
			l17.9,17.906c7.442,7.446,14.37,7.217,22.726-1.114l15.634-15.655C537.482,305.882,537.715,298.879,530.294,291.469z"/>
		<path fill="#5ECE18" d="M609.53,360.538c-24.616,24.619-24.616,52.851,0,77.475l244.526,244.525
			c24.616,24.634,52.862,24.634,77.485,0l244.532-244.525c24.63-24.624,24.602-52.858,0-77.475L931.541,116.016
			c-24.623-24.63-52.869-24.63-77.471,0L609.53,360.538z"/>
	</g>
	<path fill="#FFF00A" d="M1093.708,345.373L923.913,175.578c-23.051-23.051-60.772-23.051-83.823,0L670.294,345.373
		c-23.051,23.051-23.051,60.772,0,83.823l169.795,169.795c23.051,23.051,60.772,23.051,83.823,0l169.795-169.795
		C1116.76,406.145,1116.76,368.425,1093.708,345.373z"/>
	<path fill="#3EA100" d="M1163.668,327.002c-9.837,0-16.694,3.737-21.738,3.827c-2.6,0.046-15.258,0.145-16.183-7.753
		c-2.363-20.189-17.601-29.851-30.662-29.84c-5.981,0.005-10.653,2.389-14.57,1.519c-4.426-1.03-11.487-14.093-28.355-14.33
		c-16.794-0.236-29.905,10.526-29.905,27.308c0,0,0.181,18.178,0.181,21.774c0,5.225-9.987-2.067-27.06-2.067
		c-27.226,0-36.515,13.677-42.756,13.096c-8.166-0.243-10.143-14.206-41.274-13.561c-7.394,0.153-16.568,3.901-22.374,3.815
		c-5.806-0.086-9.816-2.069-13.989-1.902c-14.14,0.565-17.019,6.934-21.399,6.867c-2.877,0.317-9.898-9.031-33.253-9.031
		c-7.396,0-15.834,3.92-21.639,3.834c-5.806-0.086-10.449-2.017-14.625-1.963c-8.6,0.111-16.874,6.788-20.477,6.926
		c-3.089,0.055-3.569-0.512-6.284-1.812c-8.621-4.127-18.845-6.27-30.183-6.27c-13.962,0-23.27,4.36-25.807,4.007
		c-7.451-1.851-4.448-14.207-28.978-16.021h-57.98c-16.643,0-32.059,12.628-31.267,31.174c1.236,28.94,24.78,26.72,26.084,32.697
		c0.549,2.517-3.721,6.734-8.152,12.266c-6.288,7.852-19.59,21.092-19.59,38.893c0,16.757,17.645,27.052,30.668,27.429h61.501
		c9.649,0,12.776-4.114,17.589-4.141c7.655,0.062,8.335,6.267,29.082,6.975h7.149c8.899-0.327,15.165-1.999,21.806-3.76
		c2.035-0.54,5.024-1.439,5.024,8.559c0,15.107,10.038,30.835,29.815,30.887c14.841-0.052,28.921-13.914,30.958-30.847
		c0,0,1-5.354,4.422-5.408c14.295-0.224,23.128-5.671,25.028-3.835c2.354,2.276,1.064,9.203,1.064,9.203
		c1.329,16.756,10.038,30.835,29.815,30.887c19.416,0,29.478-11.751,29.478-31.137c0-2.815,2.629-5.118,5.901-5.118
		c9.678,0,17.249-2.4,24.412-5.385s12.382-9.926,17.251-9.926s17.993,14.723,44.721,15.34c27.585,0,30.234-11.045,38.457-10.59
		s6.568,8.625,23.514,9.498c11.016,0,15.235-2.528,20.938-2.528c5.703,0,9.088,2.231,14.206,2.231
		c5.118,0,10.558-3.584,16.601-3.584s8.622,3.923,19.869,3.923c15.119,0,18.036-14.581,26.726-14.581
		c8.691,0,10.13,14.642,29.174,14.642s28.702-13.019,28.702-30.586v-48.552C1216.863,348.049,1198.633,327.002,1163.668,327.002z"/>
	<path fill="#FFFFFF" d="M673.601,416.035h-39.319l46.558-62.103c1.38-1.835,2.656-4.015,2.656-7.506
		c0-5.85-4.812-9.937-11.701-9.937h-57.98c-6.077,0-11.023,4.989-11.023,11.122c0,6.133,4.946,11.122,11.023,11.122h36.356
		l-47.428,61.486c-1.4,1.862-2.658,3.823-2.658,7.279c0,6.088,5.153,11.23,11.25,11.23h62.267c6.097,0,11.247-5.195,11.247-11.346
		C684.849,421.23,679.698,416.035,673.601,416.035z"/>
	<path fill="#FFFFFF" d="M727.122,346.6c-17.273,0-27.111,6.862-32.322,12.618c-1.765,1.956-2.737,4.422-2.737,6.943
		c0,5.473,4.464,9.926,9.951,9.926c2.411,0,4.116-0.563,6.301-2.091c4.823-3.461,10.651-7.158,18.807-7.158
		c10.46,0,16.707,5.077,16.707,13.58v2.598h-24.433c-8.784,0-16.77,2.506-22.488,7.055c-6.328,5.034-9.673,12.291-9.673,20.985
		c0,17.923,13.002,29.965,32.354,29.965h7.149c28.431,0,39.499-19.258,39.499-37.874V379.65
		C766.237,358.954,751.616,346.6,727.122,346.6z M743.829,406.05c0,9.946-8.396,15.889-16.512,15.889h-5.588
		c-7.67,0-11.891-3.865-11.891-10.882c0-6.521,4.354-10.112,12.261-10.112h21.73V406.05z"/>
	<path fill="#FFFFFF" d="M817.288,346.6c-9.888,0-18.248,3.656-22.167,8.342c0-2.788-5.63-7.187-11.055-7.187
		c-6.232,0-11.301,5.058-11.301,11.277v106.938c0,6.218,5.07,11.277,11.301,11.277c6.232,0,11.301-5.058,11.301-11.277v-32.008
		c4.996,4.453,12.997,7.059,21.921,7.059c26.221,0,40.079-16.358,40.079-47.307C857.367,362.451,843.883,346.6,817.288,346.6z
		 M814.583,419.119c-11.968,0-18.036-8.486-18.036-25.22c0-16.851,6.068-25.393,18.036-25.393c11.97,0,18.038,8.542,18.038,25.393
		C832.62,410.633,826.552,419.119,814.583,419.119z"/>
	<path fill="#FFFFFF" d="M907.537,346.6c-9.89,0-18.249,3.656-22.168,8.342c0-3.262-5.63-7.187-11.055-7.187
		c-6.231,0-11.301,5.058-11.301,11.277v106.938c0,6.218,5.07,11.277,11.301,11.277c6.229,0,11.299-5.058,11.299-11.277v-32.008
		c4.996,4.453,12.999,7.059,21.923,7.059c26.219,0,40.079-16.358,40.079-47.307C947.616,362.451,934.132,346.6,907.537,346.6z
		 M904.831,419.119c-11.967,0-18.038-8.486-18.038-25.22c0-16.851,6.07-25.393,18.038-25.393c11.968,0,18.035,8.542,18.035,25.393
		C922.867,410.633,916.799,419.119,904.831,419.119z"/>
	<g>
		<path fill="#FFFFFF" d="M1093.983,336.479c6.732,0,12.19-5.455,12.19-12.187c0-6.734-5.458-12.19-12.19-12.19
			s-12.19,5.456-12.19,12.19C1081.794,331.024,1087.251,336.479,1093.983,336.479z"/>
		<path fill="#FFFFFF" d="M1093.983,347.756c-6.232,0-11.301,5.058-11.301,11.277v69.75c0,6.218,5.07,11.277,11.301,11.277
			s11.301-5.058,11.301-11.277v-69.75C1105.285,352.814,1100.215,347.756,1093.983,347.756z"/>
	</g>
	<path fill="#FFFFFF" d="M1163.328,346.6c-13.65,0-20.976,4.65-24.09,8.385c0-3.867-5.624-7.23-11.063-7.23
		c-6.232,0-11.301,5.058-11.301,11.277v70.136c0,6.209,4.859,10.891,11.301,10.891c6.443,0,11.301-4.682,11.301-10.891V386.2
		c0-12.768,6.032-18.975,18.444-18.975c10.85,0,16.127,5.767,16.127,17.627v44.317c0,6.31,4.753,10.891,11.301,10.891
		c6.337,0,11.301-4.785,11.301-10.891v-48.171C1196.648,358.173,1185.437,346.6,1163.328,346.6z"/>
	<path fill="#FFFFFF" d="M1034.877,385.814c0-4.323-0.704-15.384-7.234-24.657c-6.797-9.659-17.654-14.556-32.266-14.556
		c-27.069,0-42.592,17.102-42.592,46.921c0,31.075,15.328,47.5,44.33,47.5c13.659,0,23.904-4.962,27.439-8.28
		c2.272-2.017,3.576-4.852,3.576-7.782c0-5.473-4.464-9.928-9.948-9.928c-2.867,0-4.635,0.978-6.665,2.266
		c-4.57,3.042-9.422,3.293-14.401,3.293c-13.278,0-21.333-6.891-21.714-18.491h46.823
		C1034.877,402.1,1034.877,398.327,1034.877,385.814z M976.051,383.017c1.202-10.635,8.365-16.95,19.325-16.95
		c12.172,0,16.766,8.937,17.073,16.95H976.051z"/>
	<path fill="#FFFFFF" d="M1067.756,418.026c-4.226,0-4.354,0-4.354,0l0.061-107.165c0-6.218-5.07-11.277-11.301-11.277
		c-6.232,0-11.301,5.058-11.301,11.277v103.663c0,15.947,6.286,25.274,19.058,25.274c1.965,0,5.016,0.26,7.214,0.26
		c5.904,0,10.53-5.487,10.53-11.375C1077.661,422.793,1072.628,418.026,1067.756,418.026z"/>
	<path fill="#3EA100" d="M868.932,283.985c-4.868,14.875-12.404,21.404-26.365,19.76c-12.592-1.48-24.491-16.137-19.33-35.732
		c4.683-17.781,13.907-24.898,26.65-23.097C869.245,247.652,874.039,268.378,868.932,283.985z"/>
	<path fill="#3EA100" d="M946.872,532.977c-9.098,20.381-39.712,42.861-74.943,33.009c-30.364-8.488-44.004-29.969-50.771-53.583
		c-4.435-15.477,11.044-19.535,17.494-8.419c7.663,13.212,23.274,27.15,44.965,29.366c17.298,1.766,34.973-4.624,45.987-14.421
		C937.524,511.885,953.033,519.176,946.872,532.977z"/>
	<path fill="#3EA100" d="M938.371,255.232c-6.526-21.551-15.636-37.34-32.889-35.177c-0.94,0.118-1.868,0.311-2.777,0.584h0
		c0,0-20.797,3.874-14.594,42.201c0.482,4.235,1.415,8.567,2.765,12.741c0.001,0.005,0.003,0.011,0.004,0.016l0.001-0.002
		c4.928,15.231,15.347,28.336,29.209,26.738C940.532,299.979,944.322,274.883,938.371,255.232z"/>
	<g>
		<path fill="#5ECE18" d="M1054.52,752.187c1.495,0.683,2.722,1.361,3.676,2.315c2.313,2.313,2.587,5.583,0.953,9.121
			c-4.084,8.984-10.619,16.878-17.562,23.821c-23.687,23.687-48.461,23.141-71.602,0c-25.185-25.184-20.964-50.638-3.539-68.063
			c19.194-19.194,43.287-19.602,66.293,3.404c3.948,3.948,3.13,7.756,0.544,10.342l-42.201,42.201
			c10.21,9.666,23.553,11.027,38.525-3.945c5.036-5.036,8.577-10.756,11.162-15.792c0.817-1.634,1.497-2.858,2.452-3.813
			c2.178-2.178,4.899-2.178,8.986-0.543L1054.52,752.187z M1010.55,732.993c-11.162-9.801-22.869-10.619-32.264-1.224
			c-9.393,9.393-8.301,20.827,1.363,32.125L1010.55,732.993z"/>
		<path fill="#5ECE18" d="M1062.413,692.838l-47.917-6.808c-1.906-0.271-3.676-0.95-4.765-2.038
			c-1.498-1.498-1.498-3.676,0.954-6.128l6.534-6.534c4.765-4.765,8.438-5.717,14.429-4.899l28.724,4.49l-4.765-28.449
			c-1.091-5.991,0.135-9.664,4.899-14.429l5.719-5.72c2.45-2.449,4.628-2.449,6.125-0.952c1.089,1.089,1.768,2.858,2.041,4.763
			l6.806,47.919l52.136,6.941c1.909,0.274,3.675,0.955,4.765,2.043c1.498,1.498,1.498,3.676-0.952,6.126l-6.535,6.535
			c-4.765,4.765-8.438,5.717-14.429,4.899l-32.945-4.899l5.311,32.534c1.089,5.989-0.138,9.666-4.902,14.431l-5.717,5.717
			c-2.449,2.449-4.628,2.449-6.126,0.952c-1.089-1.089-1.769-2.856-2.043-4.765L1062.413,692.838z"/>
		<path fill="#5ECE18" d="M1099.029,617.291l-5.036,5.037c-4.22,4.219-7.761,4.217-11.98-0.002l-1.906-1.906
			c-4.219-4.219-4.219-7.758,0-11.977l5.037-5.036l-11.165-11.164c-4.219-4.219-4.219-7.758,0.002-11.98l4.357-4.356
			c4.219-4.219,7.758-4.219,11.977,0l11.164,11.164l16.881-16.881c4.219-4.219,7.758-4.219,11.978,0l1.906,1.906
			c4.219,4.219,4.222,7.761,0.002,11.98l-16.881,16.881l28.041,28.041c11.435,11.436,18.924,9.664,26.819,1.77
			c1.224-1.224,2.449-2.724,3.404-3.948c0.68-0.954,1.767-2.315,2.313-2.861c2.178-2.178,4.357-2.448,7.488-0.407l3.13,2.043
			c0.817,0.544,2.449,1.633,3.13,2.313c2.587,2.587,2.721,5.717,0.274,9.255c-2.452,3.539-5.039,6.943-8.169,10.073
			c-17.016,17.016-34.305,18.516-53.091-0.269L1099.029,617.291z"/>
		<path fill="#5ECE18" d="M1145.449,561.342c-4.084-4.084-4.63-8.169-1.772-13.206c5.174-9.255,11.844-17.831,18.516-24.501
			c3.13-3.13,6.669-6.4,10.345-9.258c3.811-2.993,7.486-2.856,10.345,0.002c0.544,0.544,1.77,2.039,2.315,2.858l1.089,1.633
			c2.994,4.627,3.539,7.351,0.272,10.618c-1.904,1.904-5.854,4.763-9.667,8.576c-3.266,3.266-7.621,8.438-9.662,12.388
			l48.324,48.323c4.221,4.221,4.221,7.761,0,11.982l-4.356,4.356c-4.22,4.219-7.758,4.219-11.98-0.002L1145.449,561.342z"/>
		<path fill="#5ECE18" d="M1197.856,510.021c-1.498-0.68-2.587-1.495-3.404-2.313c-2.587-2.586-2.041-5.853-0.952-8.577
			c2.587-6.669,10.484-17.287,18.107-24.911c19.057-19.056,37.025-20.417,57.036-0.406l33.895,33.894
			c4.902,4.902,3.812,8.712,1.228,12.931c-3.541,5.72-13.888,18.513-21.646,26.271c-18.922,18.922-37.707,23.278-52.817,8.169
			c-15.246-15.246-10.347-34.031,7.215-51.593c6.941-6.941,13.068-10.89,16.47-12.931l-2.041-2.041
			c-8.441-8.44-17.562-9.123-28.589,1.904c-5.445,5.445-8.438,10.89-11.16,16.064c-0.82,1.632-1.635,2.995-2.587,3.947
			c-2.178,2.178-4.63,2.178-8.851,0.409L1197.856,510.021z M1264.696,502.263c-4.084,2.176-8.849,5.854-13.206,10.21
			c-10.753,10.754-12.659,19.194-5.582,26.272c6.943,6.943,15.112,5.038,26.276-6.126c3.947-3.948,7.895-8.712,10.07-12.797
			L1264.696,502.263z"/>
	</g>
</g>
</svg>
