<?xml version="1.0" encoding="utf-8"?>
<!-- Generator: Adobe Illustrator 22.1.0, SVG Export Plug-In . SVG Version: 6.00 Build 0)  -->
<svg version="1.1" xmlns="http://www.w3.org/2000/svg" xmlns:xlink="http://www.w3.org/1999/xlink" x="0px" y="0px"
	 viewBox="0 0 1599.999 900" enable-background="new 0 0 1599.999 900" xml:space="preserve">
<g id="Layer_1">
	<g>
		<g>
			<path fill="#CF3339" d="M217.984,458.297c-2.499-0.856-4.125-1.559-4.125-1.559c-7.237-3.709-12.649-10.137-17.308-17.404
				c4.001-5.127,10.492-12.14,25.091-12.208c1.199,0,2.467,0.026,3.795,0.146c6.755,0.537,13.304,1.146,19.634,1.146
				c8.59,0.005,16.879-1.118,24.703-5.128c3.963-2.041,23.225-12.326,33.137-33.502c1.58,5.531,2.218,10.512,2.218,14.952
				c-0.013,15.212-7.436,24.312-10.631,27.856c-9.729,10.928-30.255,13.79-49.226,15.307
				C229.59,449.149,221.875,455.07,217.984,458.297 M251.006,482.087c1.416,1.966,1.977,4.102,1.977,6.43
				c0.02,3.858-1.671,8.123-3.431,11.372c-0.614,1.121-1.229,2.122-1.769,2.931c-4.682-5.71-13.501-6.659-20.699-6.731
				c-3.444,0-6.635,0.265-8.996,0.544c-18.149,2.142-34.245,13.642-47.653,24.293c-4.248,3.429-16.041,16.129-23.206,26.349
				c-3.764,6.301-14.758,21.567-24.57,23.431l-0.121,0.026l-0.119,0.066c-1.633,0.564-4.228,0.895-7.168,0.882
				c-5.233,0-11.614-0.975-16.527-2.554c-2.444-0.782-4.529-1.731-5.841-2.646c-1.381-0.948-1.7-1.738-1.656-1.943
				c-0.098-0.199,0.532-1.671,4.016-3.329c16.517-8.157,38.91-22.078,46.922-34.593c6.06-9.57,9.154-20.082,9.154-30.435
				c0-12.752-4.687-25.26-14.136-35.452c-5.916-6.357-14.466-11.755-23.728-16.519c-24.102-12.609-53.804-27.972-60.695-55.167
				c-1.26-4.876-1.835-9.932-1.835-15.047c-0.017-10.938,2.661-22.125,7-32.121c9.925,19.671,29.72,37.375,48.242,47.628
				c20.232,11.047,45.085,12.626,60.401,28.632c15.417,15.816,20.754,36.559,44.357,46.955
				C225.468,471.241,242.265,469.818,251.006,482.087 M304.005,363.093c0.013-0.013-16.174,43.337-43.573,50.666
				c-16.207,5.123-35.263-0.71-44.455-0.834c-8.504-0.12-17.817,4.312-26.513,14.131c-3.505-6.47-6.869-12.83-10.734-17.951
				c-13.026-17.265-31.591-16.209-50.21-22.736c-25.092-8.806-61.617-40.696-68.71-68.211l-1.504,1.29
				c-15.665,15.31-22.271,39.147-19.225,60.463c5.528,38.839,38.299,52.211,68.383,70.36c21.403,12.91,46.433,48.234,16.457,81.878
				c-9.786,11.812-30.473,21.647-37.208,25.514c-6.73,3.86-7.804,11.142,0.124,16.918c7.947,5.763,29.906,7.255,33.384,7.255
				c3.465-0.006,11.432,0.517,17.476-6.141c4.768-5.259,7.758-9.822,11.666-16.826c1.046-1.857,19.363-29.625,43.641-42.465
				c17.885-8.655,41.144-18.57,52.999,1.313l1.406,2.388l1.905-2.01c14.483-15.095,23.99-41.369-0.007-52.392
				c0,0-5.226-2.336-11.57-3.614c2.815-1.703,7.533-3.89,13.783-4.294C260.789,456.69,344.094,452.905,304.005,363.093"/>
		</g>
		<path fill="#E26E66" d="M865.283,493.29c-0.65,3.223-1.744,6.049-3.296,8.456c-1.565,2.408-3.601,4.384-6.128,5.876
			c-2.52,1.506-5.664,2.268-9.424,2.268c-3.648,0-6.758-0.763-9.338-2.268c-2.573-1.492-4.643-3.468-6.208-5.876
			c-1.545-2.408-2.686-5.233-3.369-8.456c-0.703-3.221-1.048-6.484-1.048-9.827c0-3.425,0.312-6.758,0.962-9.981
			c0.65-3.217,1.744-6.055,3.303-8.536c1.559-2.467,3.595-4.485,6.115-6.05c2.527-1.545,5.657-2.329,9.431-2.329
			c3.648,0,6.725,0.784,9.252,2.329c2.533,1.565,4.602,3.607,6.214,6.123c1.605,2.53,2.752,5.412,3.462,8.632
			c0.683,3.216,1.035,6.489,1.035,9.812C866.245,486.806,865.926,490.069,865.283,493.29 M886.864,467.116
			c-1.505-5.41-3.8-10.167-6.917-14.251c-3.124-4.084-7.043-7.35-11.772-9.829c-4.709-2.462-10.346-3.701-16.898-3.701
			c-5.153,0-9.875,1.03-14.179,3.071c-4.304,2.036-7.839,5.298-10.625,9.809h-0.318v-10.622h-21.748v112.421h22.856v-39.461h0.338
			c2.785,4.092,6.354,7.162,10.711,9.258c4.338,2.096,9.092,3.137,14.246,3.137c6.115,0,11.46-1.167,16.023-3.542
			c4.57-2.355,8.383-5.511,11.44-9.49c3.077-3.979,5.339-8.542,6.844-13.702c1.512-5.146,2.262-10.517,2.262-16.101
			C889.126,478.218,888.376,472.54,886.864,467.116 M734.099,474.291c0.101-1.612,0.454-3.445,1.038-5.468
			c0.599-2.053,1.61-3.979,3.071-5.81c1.442-1.819,3.386-3.349,5.793-4.583c2.424-1.238,5.453-1.845,9.106-1.845
			c5.576,0,9.739,1.489,12.477,4.496c2.739,3.009,4.663,7.423,5.719,13.209H734.099z M785.24,454.478
			c-3.389-4.616-7.715-8.292-12.979-11.034c-5.256-2.743-11.419-4.109-18.51-4.109c-6.336,0-12.109,1.131-17.32,3.377
			c-5.219,2.267-9.701,5.362-13.447,9.262c-3.76,3.936-6.654,8.577-8.693,13.934c-2.041,5.372-3.074,11.182-3.074,17.403
			c0,6.446,1.008,12.347,2.999,17.719c1.98,5.359,4.8,9.975,8.454,13.841c3.641,3.86,8.091,6.851,13.366,8.947
			c5.252,2.089,11.158,3.13,17.714,3.13c9.451,0,17.499-2.149,24.151-6.453c6.652-4.278,11.596-11.414,14.824-21.415h-20.132
			c-0.745,2.586-2.799,5.034-6.126,7.335c-3.331,2.308-7.3,3.475-11.918,3.475c-6.438,0-11.372-1.678-14.813-4.994
			c-3.449-3.343-5.324-8.708-5.639-16.107h60.085c0.415-6.453-0.113-12.618-1.63-18.523
			C791.063,464.357,788.611,459.096,785.24,454.478 M680.699,493.052c-0.648,3.177-1.756,6.022-3.311,8.542
			c-1.559,2.513-3.636,4.529-6.279,6.035c-2.638,1.499-5.871,2.262-9.734,2.262c-3.868,0-7.091-0.763-9.678-2.262
			c-2.578-1.506-4.646-3.522-6.208-6.035c-1.545-2.52-2.645-5.365-3.29-8.542c-0.65-3.155-0.962-6.415-0.962-9.747
			c0-3.323,0.312-6.599,0.962-9.815c0.645-3.223,1.744-6.068,3.29-8.542c1.562-2.472,3.629-4.48,6.208-6.044
			c2.586-1.549,5.81-2.323,9.678-2.323c3.863,0,7.096,0.774,9.734,2.323c2.643,1.563,4.72,3.572,6.279,6.044
			c1.555,2.474,2.663,5.319,3.311,8.542c0.635,3.217,0.963,6.493,0.963,9.815C681.662,486.637,681.334,489.897,680.699,493.052
			 M692.769,451.331c-3.752-3.805-8.295-6.76-13.606-8.849c-5.314-2.091-11.249-3.144-17.789-3.144
			c-6.561,0-12.474,1.053-17.733,3.144c-5.263,2.089-9.762,5.044-13.531,8.849c-3.752,3.82-6.655,8.438-8.7,13.861
			c-2.038,5.425-3.056,11.46-3.056,18.112c0,6.665,1.018,12.679,3.056,18.038c2.044,5.372,4.948,9.955,8.7,13.768
			c3.769,3.827,8.269,6.732,13.531,8.788c5.259,2.03,11.172,3.051,17.733,3.051c6.539,0,12.475-1.021,17.789-3.051
			c5.311-2.056,9.854-4.961,13.606-8.788c3.767-3.813,6.655-8.396,8.703-13.768c2.038-5.359,3.054-11.372,3.054-18.038
			c0-6.652-1.016-12.687-3.054-18.112C699.425,459.769,696.537,455.151,692.769,451.331 M602.124,440.632
			c-2.693,0.859-5.21,2.063-7.566,3.62c-2.359,1.562-4.455,3.438-6.282,5.637c-1.824,2.194-3.283,4.59-4.346,7.164h-0.33v-15.46
			h-21.738v83.273h22.862V487.33c0-3.75,0.381-7.242,1.128-10.462c0.751-3.216,2.021-6.052,3.8-8.452
			c1.773-2.421,4.092-4.324,6.992-5.722c2.906-1.393,6.445-2.099,10.645-2.099c1.396,0,2.842,0.082,4.332,0.249
			c1.509,0.154,2.792,0.358,3.868,0.559v-21.264c-1.824-0.536-3.48-0.799-4.981-0.799
			C607.605,439.339,604.797,439.763,602.124,440.632 M539.719,446.105c-2.659-2.356-5.891-4.081-9.646-5.158
			c-3.77-1.066-7.851-1.608-12.249-1.608c-5.8,0-10.817,1.396-15.051,4.188c-4.251,2.799-7.6,6.017-10.072,9.654
			c-2.255-5.146-5.558-8.736-9.905-10.789c-4.349-2.031-9.151-3.054-14.418-3.054c-5.476,0-10.336,1.185-14.584,3.545
			c-4.235,2.361-7.857,5.689-10.862,9.981h-0.323v-11.271h-21.583v83.273h22.869v-48.32c0-4.085,0.592-7.385,1.766-9.902
			c1.186-2.533,2.605-4.47,4.283-5.801c1.659-1.348,3.385-2.255,5.161-2.741c1.759-0.486,3.178-0.72,4.261-0.72
			c3.651,0,6.411,0.604,8.292,1.854c1.872,1.222,3.216,2.872,4.031,4.901c0.802,2.043,1.26,4.278,1.369,6.679
			c0.105,2.421,0.156,4.871,0.156,7.335v46.715h22.879v-46.383c0-2.58,0.191-5.133,0.554-7.667c0.376-2.513,1.131-4.762,2.252-6.752
			c1.134-1.991,2.683-3.606,4.669-4.828c1.993-1.25,4.601-1.854,7.827-1.854c3.218,0,5.758,0.549,7.647,1.605
			c1.877,1.071,3.293,2.528,4.258,4.354c0.978,1.831,1.562,3.966,1.779,6.436c0.214,2.477,0.33,5.104,0.33,7.896v47.192h22.859
			v-55.734c0-5.365-0.741-9.96-2.258-13.767C544.504,451.555,542.412,448.464,539.719,446.105 M386.991,493.052
			c-0.645,3.177-1.749,6.022-3.298,8.542c-1.562,2.513-3.649,4.529-6.292,6.035c-2.621,1.499-5.868,2.262-9.734,2.262
			c-3.868,0-7.093-0.763-9.665-2.262c-2.577-1.506-4.637-3.522-6.203-6.035c-1.559-2.52-2.646-5.365-3.294-8.542
			c-0.645-3.155-0.975-6.415-0.975-9.747c0-3.323,0.33-6.599,0.975-9.815c0.648-3.223,1.736-6.068,3.294-8.542
			c1.565-2.472,3.626-4.48,6.203-6.044c2.572-1.549,5.796-2.323,9.665-2.323c3.867,0,7.113,0.774,9.734,2.323
			c2.643,1.563,4.73,3.572,6.292,6.044c1.549,2.474,2.653,5.319,3.298,8.542c0.645,3.217,0.978,6.493,0.978,9.815
			C387.969,486.637,387.635,489.897,386.991,493.052 M399.076,451.331c-3.771-3.805-8.297-6.76-13.603-8.849
			c-5.332-2.091-11.251-3.144-17.807-3.144c-6.558,0-12.455,1.053-17.716,3.144c-5.263,2.089-9.762,5.044-13.534,8.849
			c-3.749,3.82-6.652,8.438-8.697,13.861c-2.041,5.425-3.059,11.46-3.059,18.112c0,6.665,1.018,12.679,3.059,18.038
			c2.045,5.372,4.948,9.955,8.697,13.768c3.772,3.827,8.272,6.732,13.534,8.788c5.261,2.03,11.158,3.051,17.716,3.051
			c6.556,0,12.475-1.021,17.807-3.051c5.306-2.056,9.832-4.961,13.603-8.788c3.755-3.813,6.655-8.396,8.7-13.768
			c2.026-5.359,3.052-11.372,3.052-18.038c0-6.652-1.026-12.687-3.052-18.112C405.731,459.769,402.831,455.151,399.076,451.331"/>
		<path fill="#CF3339" d="M1543.745,492.972c-0.643,3.223-1.718,6.102-3.23,8.615c-1.499,2.527-3.515,4.536-6.042,6.035
			c-2.52,1.506-5.67,2.255-9.424,2.255c-3.528,0-6.572-0.776-9.106-2.328c-2.507-1.545-4.596-3.601-6.267-6.122
			c-1.671-2.527-2.885-5.398-3.615-8.621c-0.763-3.215-1.147-6.438-1.147-9.661c0-3.436,0.358-6.732,1.048-9.908
			c0.703-3.17,1.837-5.979,3.389-8.449c1.552-2.474,3.628-4.455,6.201-5.957c2.573-1.501,5.75-2.245,9.497-2.245
			c3.754,0,6.884,0.744,9.351,2.245c2.474,1.502,4.477,3.459,6.035,5.871c1.559,2.414,2.666,5.206,3.31,8.376
			c0.63,3.177,0.962,6.483,0.962,9.912C1544.707,486.418,1544.375,489.751,1543.745,492.972 M1543.898,409.866v41.871h-0.318
			c-2.586-4.07-6.095-7.162-10.545-9.258c-4.464-2.091-9.159-3.144-14.093-3.144c-6.122,0-11.493,1.207-16.103,3.629
			c-4.622,2.419-8.456,5.609-11.52,9.583c-3.064,3.968-5.379,8.562-6.93,13.775c-1.565,5.199-2.335,10.601-2.335,16.179
			c0,5.793,0.77,11.386,2.335,16.751c1.552,5.372,3.867,10.121,6.93,14.252c3.064,4.132,6.937,7.408,11.666,9.822
			c4.735,2.414,10.2,3.615,16.434,3.615c5.485,0,10.386-0.988,14.743-2.964c4.344-1.996,7.866-5.239,10.545-9.756h0.318v10.645
			h21.753v-115H1543.898z M1465.772,448.76c-2.261-2.945-5.332-5.258-9.259-6.924c-3.926-1.659-8.94-2.499-15.061-2.499
			c-4.835,0-9.557,1.099-14.179,3.293c-4.609,2.214-8.376,5.727-11.261,10.55h-0.484v-11.586h-21.747v83.273h22.867v-43.641
			c0-8.492,1.393-14.58,4.191-18.293c2.786-3.697,7.289-5.549,13.53-5.549c5.478,0,9.285,1.682,11.427,5.075
			c2.155,3.364,3.223,8.504,3.223,15.382v47.026h22.867v-51.215c0-5.163-0.464-9.852-1.359-14.102
			C1469.618,455.309,1468.026,451.724,1465.772,448.76 M1356.727,492.647c0,1.287-0.139,3.011-0.398,5.153
			c-0.265,2.149-0.988,4.264-2.175,6.36c-1.181,2.103-2.998,3.9-5.478,5.399c-2.467,1.505-5.949,2.261-10.465,2.261
			c-1.824,0-3.595-0.172-5.319-0.484c-1.718-0.332-3.21-0.882-4.503-1.698c-1.287-0.802-2.308-1.903-3.064-3.296
			c-0.756-1.399-1.127-3.11-1.127-5.153c0-2.149,0.371-3.92,1.127-5.325c0.756-1.386,1.738-2.527,2.984-3.462
			c1.227-0.895,2.68-1.625,4.344-2.167c1.658-0.537,3.356-0.962,5.08-1.287c1.817-0.325,3.648-0.59,5.472-0.809
			c1.83-0.206,3.568-0.481,5.226-0.809c1.671-0.315,3.223-0.72,4.676-1.204c1.452-0.481,2.653-1.144,3.621-2.013V492.647z
			 M1379.601,506.343v-43.328c0-5.055-1.127-9.099-3.369-12.165c-2.268-3.059-5.16-5.44-8.701-7.166
			c-3.548-1.71-7.474-2.867-11.772-3.46c-4.291-0.585-8.529-0.887-12.714-0.887c-4.616,0-9.205,0.469-13.781,1.364
			c-4.549,0.919-8.668,2.454-12.322,4.593c-3.647,2.152-6.652,4.996-9.006,8.536c-2.381,3.55-3.714,8.005-4.032,13.365h22.874
			c0.431-4.502,1.93-7.721,4.51-9.656c2.573-1.935,6.128-2.906,10.625-2.906c2.049,0,3.946,0.134,5.724,0.413
			c1.777,0.264,3.336,0.802,4.675,1.597c1.333,0.814,2.414,1.945,3.21,3.396c0.809,1.449,1.207,3.415,1.207,5.871
			c0.113,2.361-0.59,4.165-2.076,5.405c-1.519,1.227-3.562,2.175-6.128,2.819c-2.58,0.63-5.531,1.124-8.867,1.446
			c-3.329,0.325-6.711,0.766-10.147,1.29c-3.429,0.534-6.844,1.263-10.233,2.172c-3.369,0.908-6.387,2.281-9.013,4.108
			c-2.626,1.834-4.782,4.268-6.446,7.332c-1.658,3.063-2.487,6.949-2.487,11.671c0,4.284,0.73,7.998,2.169,11.116
			c1.459,3.117,3.469,5.684,6.042,7.726c2.58,2.043,5.584,3.542,9.02,4.503c3.442,0.968,7.143,1.453,11.122,1.453
			c5.14,0,10.187-0.749,15.128-2.249c4.941-1.512,9.245-4.138,12.893-7.892c0.106,1.393,0.292,2.766,0.571,4.105
			c0.252,1.34,0.617,2.659,1.041,3.953h23.199c-1.081-1.724-1.844-4.304-2.268-7.726
			C1379.82,513.698,1379.601,510.096,1379.601,506.343 M1267.652,524.853h22.88v-114.99h-22.88V524.853z M1232.8,493.052
			c-0.65,3.177-1.764,6.022-3.303,8.542c-1.558,2.513-3.654,4.529-6.274,6.035c-2.64,1.499-5.889,2.262-9.756,2.262
			c-3.866,0-7.09-0.763-9.663-2.262c-2.573-1.506-4.636-3.522-6.201-6.035c-1.545-2.52-2.666-5.365-3.296-8.542
			c-0.643-3.155-0.982-6.415-0.982-9.747c0-3.323,0.338-6.599,0.982-9.815c0.63-3.223,1.751-6.065,3.296-8.542
			c1.565-2.474,3.628-4.48,6.201-6.045c2.573-1.548,5.797-2.321,9.663-2.321c3.867,0,7.116,0.773,9.756,2.321
			c2.62,1.565,4.716,3.572,6.274,6.045c1.539,2.477,2.653,5.319,3.303,8.542c0.637,3.217,0.955,6.493,0.955,9.815
			C1233.755,486.637,1233.437,489.897,1232.8,493.052 M1244.877,451.333c-3.767-3.807-8.29-6.761-13.615-8.85
			c-5.319-2.091-11.235-3.145-17.794-3.145c-6.539,0-12.462,1.054-17.714,3.145c-5.259,2.089-9.776,5.044-13.529,8.85
			c-3.754,3.818-6.646,8.434-8.701,13.859c-2.043,5.425-3.057,11.46-3.057,18.112c0,6.665,1.015,12.679,3.057,18.038
			c2.056,5.372,4.948,9.955,8.701,13.768c3.754,3.827,8.27,6.732,13.529,8.788c5.253,2.03,11.175,3.051,17.714,3.051
			c6.559,0,12.475-1.021,17.794-3.051c5.325-2.056,9.849-4.961,13.615-8.788c3.747-3.813,6.659-8.396,8.695-13.768
			c2.036-5.359,3.057-11.372,3.057-18.038c0-6.652-1.021-12.687-3.057-18.112C1251.536,459.767,1248.624,455.151,1244.877,451.333
			 M1147.989,441.595l-17.568,56.849h-0.312l-17.555-56.849h-24.008l28.505,83.271h25.454l28.186-83.271H1147.989z M1029.48,474.291
			c0.099-1.612,0.451-3.442,1.041-5.471c0.597-2.049,1.605-3.979,3.051-5.805c1.466-1.82,3.389-3.351,5.81-4.584
			c2.407-1.238,5.445-1.845,9.092-1.845c5.578,0,9.749,1.489,12.488,4.495c2.739,3.008,4.642,7.425,5.724,13.211H1029.48z
			 M1080.613,454.478c-3.389-4.618-7.713-8.292-12.965-11.034c-5.266-2.743-11.434-4.109-18.53-4.109
			c-6.32,0-12.103,1.129-17.323,3.381c-5.206,2.263-9.689,5.36-13.45,9.257c-3.74,3.938-6.652,8.578-8.688,13.936
			c-2.043,5.372-3.064,11.182-3.064,17.403c0,6.44,1.001,12.347,2.971,17.719c2.01,5.359,4.815,9.975,8.469,13.841
			c3.661,3.86,8.111,6.851,13.364,8.947c5.259,2.089,11.175,3.13,17.721,3.13c9.444,0,17.496-2.149,24.167-6.453
			c6.652-4.278,11.593-11.414,14.816-21.415h-20.135c-0.749,2.586-2.792,5.034-6.128,7.335c-3.316,2.308-7.288,3.475-11.904,3.475
			c-6.44,0-11.387-1.678-14.823-4.994c-3.435-3.343-5.319-8.708-5.631-16.107h60.067c0.431-6.453-0.113-12.618-1.612-18.523
			C1086.423,464.357,1083.996,459.096,1080.613,454.478 M973.393,524.853h22.88v-114.99h-22.88V524.853z M955.294,409.862
			c-9.331,0-16.308,2.359-20.931,7.09c-4.622,4.729-6.917,10.794-6.917,18.192v6.45H913.75V456.9h13.695v67.966h22.868V456.9h15.784
			v-15.307h-15.784v-4.999c0-3.434,0.67-5.869,2.01-7.327c1.346-1.449,3.575-2.172,6.692-2.172c2.891,0,5.684,0.166,8.376,0.488
			v-17.073c-1.95-0.116-3.926-0.249-5.956-0.404C959.392,409.939,957.35,409.862,955.294,409.862"/>
	</g>
</g>
<g id="Laag_2">
</g>
</svg>
