<?xml version="1.0" encoding="utf-8"?>
<!-- Generator: Adobe Illustrator 22.1.0, SVG Export Plug-In . SVG Version: 6.00 Build 0)  -->
<svg version="1.1" xmlns="http://www.w3.org/2000/svg" xmlns:xlink="http://www.w3.org/1999/xlink" x="0px" y="0px"
	 viewBox="0 0 1599.999 900" enable-background="new 0 0 1599.999 900" xml:space="preserve">
<g id="Layer_1">
	<g>
		<path fill="#36499B" d="M796.045,97.18c-158.631,0-287.229,128.593-287.229,287.222c0,158.622,128.598,287.22,287.229,287.22
			c158.624,0,287.212-128.598,287.212-287.22C1083.257,225.773,954.669,97.18,796.045,97.18z M1023.521,537.799
			c-9.816,14.524-21.078,28.186-33.493,40.592c-12.406,12.411-26.059,23.678-40.583,33.488c-14.67,9.908-30.348,18.424-46.61,25.299
			c-33.834,14.314-69.762,21.574-106.792,21.574c-37.028,0-72.961-7.26-106.799-21.574c-16.26-6.875-31.943-15.391-46.612-25.299
			c-14.52-9.81-28.177-21.077-40.588-33.488c-12.408-12.406-23.675-26.068-33.488-40.592c-9.908-14.665-18.421-30.345-25.299-46.602
			c-14.312-33.834-21.567-69.767-21.567-106.79c0-37.028,7.255-72.961,21.567-106.799c6.877-16.257,15.391-31.94,25.299-46.605
			c9.813-14.524,21.08-28.182,33.488-40.592c12.411-12.406,26.068-23.678,40.588-33.488c14.67-9.908,30.352-18.419,46.612-25.299
			c33.839-14.31,69.769-21.564,106.799-21.564c37.03,0,72.958,7.254,106.792,21.564c16.262,6.88,31.94,15.391,46.61,25.299
			c14.524,9.81,28.177,21.082,40.583,33.488c12.416,12.411,23.677,26.068,33.493,40.592c9.908,14.665,18.419,30.348,25.294,46.605
			c14.315,33.839,21.569,69.772,21.569,106.799c0,37.023-7.255,72.951-21.569,106.79
			C1041.94,507.454,1033.429,523.134,1023.521,537.799z"/>
		<radialGradient id="SVGID_1_" cx="843.7297" cy="462.8261" r="182.7429" gradientUnits="userSpaceOnUse">
			<stop  offset="0" style="stop-color:#9D9ECC"/>
			<stop  offset="0.2135" style="stop-color:#848AC1"/>
			<stop  offset="0.7438" style="stop-color:#4C5BA6"/>
			<stop  offset="1" style="stop-color:#36499B"/>
		</radialGradient>
		<path fill="url(#SVGID_1_)" d="M796.043,130.8c-140.066,0-253.607,113.543-253.607,253.607
			c0,140.052,113.54,253.604,253.607,253.604c140.056,0,253.599-113.552,253.599-253.604
			C1049.642,244.343,936.099,130.8,796.043,130.8z M815.998,556.886c-113.679,0-205.831-92.161-205.831-205.841
			c0-113.669,92.151-205.838,205.831-205.838c113.684,0,205.823,92.168,205.823,205.838
			C1021.821,464.725,929.682,556.886,815.998,556.886z"/>
		<path fill="#FFFFFF" d="M1048.814,277.608c-6.875-16.257-15.386-31.94-25.294-46.605c-9.816-14.524-21.078-28.182-33.493-40.592
			c-12.406-12.406-26.059-23.678-40.583-33.488c-14.67-9.908-30.348-18.419-46.61-25.299
			c-33.834-14.31-69.762-21.564-106.792-21.564c-37.031,0-72.961,7.254-106.799,21.564c-16.26,6.88-31.943,15.391-46.612,25.299
			c-14.52,9.81-28.177,21.082-40.588,33.488c-12.408,12.411-23.675,26.068-33.488,40.592c-9.908,14.665-18.421,30.348-25.299,46.605
			c-14.312,33.839-21.567,69.772-21.567,106.799c0,37.023,7.255,72.956,21.567,106.79c6.877,16.257,15.391,31.937,25.299,46.602
			c9.813,14.524,21.08,28.186,33.488,40.592c12.411,12.411,26.068,23.678,40.588,33.488c14.67,9.908,30.352,18.424,46.612,25.299
			c33.839,14.314,69.771,21.574,106.799,21.574c37.03,0,72.958-7.26,106.792-21.574c16.262-6.875,31.94-15.391,46.61-25.299
			c14.524-9.81,28.177-21.077,40.583-33.488c12.416-12.406,23.677-26.068,33.493-40.592c9.908-14.665,18.419-30.345,25.294-46.602
			c14.315-33.839,21.569-69.767,21.569-106.79C1070.384,347.379,1063.129,311.446,1048.814,277.608z M796.043,638.011
			c-140.066,0-253.607-113.552-253.607-253.604c0-140.064,113.54-253.607,253.607-253.607
			c140.056,0,253.599,113.543,253.599,253.607C1049.642,524.459,936.099,638.011,796.043,638.011z"/>
		<path fill="#FFFFFF" d="M815.998,145.208c-113.679,0-205.831,92.168-205.831,205.838c0,113.679,92.151,205.841,205.831,205.841
			c113.684,0,205.823-92.161,205.823-205.841C1021.821,237.376,929.682,145.208,815.998,145.208z M904.924,469.33
			c-32.778,25.791-94.481,57.349-157.86,22.085c-65.643-36.561-89.442-92.237-76.288-157.884c8.817-34.9,26.26-58.996,52.497-69.952
			c21.951-10.979,43.681-8.817,65.669,4.339c21.734,13.107,28.39,39.37,19.778,81.125c-2.386,6.447-2.386,10.746,1.957,13.088
			c2.347,2.162,8.813,0,13.336-4.494c32.705-28.391,58.958-34.886,78.745-24.106c21.929,13.117,34.9,30.762,37.218,54.848
			C942.142,418.962,931.172,445.239,904.924,469.33z"/>
		<path fill="#FFFFFF" d="M902.757,333.532c-19.787-10.78-46.04-4.285-78.745,24.106c-4.523,4.494-10.989,6.656-13.336,4.494
			c-4.343-2.342-4.343-6.641-1.957-13.088c8.613-41.756,1.957-68.018-19.778-81.125c-21.988-13.156-43.718-15.318-65.669-4.339
			c-26.236,10.955-43.679,35.051-52.497,69.952c-13.153,65.647,10.646,121.323,76.288,157.884
			c63.379,35.263,125.082,3.705,157.86-22.085c26.248-24.091,37.218-50.369,35.051-80.95
			C937.657,364.293,924.686,346.649,902.757,333.532z"/>
		<radialGradient id="SVGID_2_" cx="736.1611" cy="307.621" r="105.1784" gradientUnits="userSpaceOnUse">
			<stop  offset="0" style="stop-color:#FFA59F"/>
			<stop  offset="1" style="stop-color:#FB5058"/>
		</radialGradient>
		<path fill="url(#SVGID_2_)" d="M902.757,333.532c-19.787-10.78-46.04-4.285-78.745,24.106c-4.523,4.494-10.989,6.656-13.336,4.494
			c-4.343-2.342-4.343-6.641-1.957-13.088c8.613-41.756,1.957-68.018-19.778-81.125c-21.988-13.156-43.718-15.318-65.669-4.339
			c-26.236,10.955-43.679,35.051-52.497,69.952c-13.153,65.647,10.646,121.323,76.288,157.884
			c63.379,35.263,125.082,3.705,157.86-22.085c26.248-24.091,37.218-50.369,35.051-80.95
			C937.657,364.293,924.686,346.649,902.757,333.532z"/>
		<g>
			<path fill="#36499B" d="M592.535,754.427c0,8.082-2.201,14.567-6.612,19.461c-4.528,5.034-10.697,7.551-18.512,7.551
				c-7.839,0-14.022-2.517-18.551-7.551c-4.382-4.894-6.573-11.379-6.573-19.461c0-7.907,2.203-14.33,6.61-19.271
				c4.576-5.137,10.748-7.698,18.514-7.698c7.742,0,13.916,2.561,18.512,7.698C590.334,740.098,592.535,746.52,592.535,754.427z
				 M584.628,754.427c0-5.692-1.436-10.41-4.314-14.149c-3.145-4.158-7.444-6.242-12.903-6.242c-5.482,0-9.796,2.084-12.939,6.242
				c-2.851,3.739-4.277,8.457-4.277,14.149c0,5.692,1.364,10.4,4.095,14.12c3.07,4.183,7.445,6.276,13.122,6.276
				c5.653,0,10.03-2.094,13.122-6.276C583.264,764.827,584.628,760.119,584.628,754.427z"/>
			<path fill="#36499B" d="M657.135,780.543h-7.05v-22.752c0-7.06-2.264-10.59-6.788-10.59c-3.359,0-5.925,1.461-7.703,4.382
				c-1.534,2.552-2.298,5.804-2.298,9.748v19.213h-7.05v-22.752c0-7.06-2.264-10.59-6.787-10.59c-3.359,0-5.931,1.461-7.703,4.382
				c-1.558,2.556-2.337,5.814-2.337,9.758v19.203h-7.011v-38.128h6.583v5.511h0.146c2.629-4.275,6.665-6.412,12.114-6.412
				c5.302,0,8.915,2.468,10.838,7.401c1.193-2.473,3.053-4.397,5.585-5.755c2.07-1.095,4.139-1.646,6.208-1.646
				c8.837,0,13.253,4.854,13.253,14.573V780.543z"/>
			<path fill="#36499B" d="M690.292,748.326c-1.095-0.438-2.395-0.652-3.9-0.652c-3.165,0-5.687,1.393-7.571,4.197
				c-1.884,2.789-2.824,6.578-2.824,11.344v17.328h-7.011v-38.128h6.583v5.882h0.146c0.944-1.992,2.337-3.618,4.173-4.884
				c1.836-1.266,3.759-1.899,5.775-1.899c1.339,0,2.882,0.175,4.63,0.511V748.326z"/>
			<path fill="#36499B" d="M734.356,761.477c0,5.546-1.801,10.234-5.405,14.057c-3.681,3.939-8.331,5.906-13.959,5.906
				c-5.672,0-10.361-1.967-14.066-5.906c-3.603-3.823-5.404-8.511-5.404-14.057c0-5.838,1.796-10.624,5.39-14.358
				c3.588-3.734,8.287-5.604,14.081-5.604c5.75,0,10.415,1.87,13.994,5.604C732.564,750.853,734.356,755.639,734.356,761.477z
				 M726.878,761.477c0-3.846-1.047-7.133-3.145-9.854c-2.24-2.946-5.156-4.421-8.74-4.421c-3.632,0-6.583,1.475-8.847,4.421
				c-2.099,2.722-3.145,6.008-3.145,9.854c0,3.798,0.964,7.021,2.887,9.674c2.196,3.073,5.229,4.606,9.104,4.606
				c3.827,0,6.841-1.534,9.032-4.606C725.928,768.498,726.878,765.275,726.878,761.477z"/>
			<path fill="#36499B" d="M780.036,760.785c0,5.77-1.29,10.512-3.87,14.232c-2.946,4.28-7.109,6.422-12.489,6.422
				c-5.964,0-10.215-2.04-12.747-6.125h-0.146v20.931h-7.011v-53.83h6.738v5.37h0.146c2.751-4.182,7.07-6.271,12.957-6.271
				c5.253,0,9.377,1.938,12.372,5.808C778.688,750.843,780.036,755.337,780.036,760.785z M772.557,761.331
				c0-3.89-0.794-7.113-2.376-9.669c-1.85-2.97-4.543-4.46-8.073-4.46c-3.603,0-6.442,1.495-8.511,4.489
				c-1.88,2.678-2.814,5.969-2.814,9.864c0,3.652,0.886,6.812,2.668,9.49c2.069,3.14,4.932,4.713,8.584,4.713
				c3.432,0,6.139-1.656,8.111-4.971C771.754,768.035,772.557,764.89,772.557,761.331z"/>
			<path fill="#36499B" d="M810.311,780.543v-52.229h29.019v8.253h-18.541v12.854h17.645v8.224h-17.645v22.898H810.311z"/>
			<path fill="#36499B" d="M847.003,780.543v-38.518h8.905v8.764h0.146c0.268-2.118,1.339-4.173,3.213-6.169
				c2.167-2.327,4.611-3.491,7.338-3.491c1.339,0,2.361,0.092,3.067,0.292v10.093c-0.949-0.536-2.444-0.808-4.484-0.808
				c-3.53,0-5.896,1.928-7.113,5.774c-0.682,2.162-1.023,5.472-1.023,9.932v14.13H847.003z"/>
			<path fill="#36499B" d="M882.654,742.026l9.27,28.128h0.156l9.271-28.128h10.166l-14.431,38.245
				c-2.288,6.062-4.056,9.948-5.297,11.652c-2.532,3.505-6.096,5.258-10.697,5.258c-2.337,0-4.713-0.355-7.123-1.061l0.657-7.43
				c1.29,0.472,3.014,0.701,5.181,0.701c1.996,0,3.578-0.628,4.747-1.884c1.164-1.251,1.748-2.916,1.748-5.015l-14.709-40.466
				H882.654z"/>
			<path fill="#36499B" d="M940.992,742.552l-0.657,7.537c-3.209-1.085-6.203-1.641-8.973-1.641c-3.944,0-5.911,1.422-5.911,4.255
				c0,1.558,1.51,2.839,4.528,3.837c4.45,1.46,7.25,2.566,8.394,3.316c3.019,2.001,4.528,5.005,4.528,9.027
				c0,4.182-1.68,7.4-5.039,9.64c-2.897,1.947-6.612,2.916-11.14,2.916c-3.433,0-7.22-0.545-11.359-1.641l0.584-8.233
				c3.408,1.704,6.709,2.556,9.898,2.556c1.631,0,3.048-0.316,4.241-0.959c1.558-0.833,2.337-2.094,2.337-3.774
				c0-1.996-1.51-3.496-4.528-4.489c-4.961-1.685-7.761-2.712-8.394-3.101c-2.994-1.826-4.489-4.733-4.489-8.725
				c0-3.9,1.534-6.934,4.596-9.096c2.726-1.899,6.217-2.848,10.473-2.848C932.954,741.13,936.591,741.607,940.992,742.552z"/>
			<path fill="#36499B" d="M950.896,780.543v-56.09h10.049v56.09H950.896z"/>
			<path fill="#36499B" d="M973.468,752.66l-0.312-8.598c4.211-1.953,8.681-2.931,13.409-2.931c5.867,0,10.108,1.275,12.713,3.832
				c2.605,2.561,3.909,6.685,3.909,12.387v4.932c0,2.61,0.049,5.818,0.146,9.64c0.073,2.678,0.219,5.556,0.438,8.623h-8.842
				c-0.073-0.482-0.219-2.41-0.438-5.765h-0.146c-1.12,2.064-2.824,3.705-5.117,4.927c-2.142,1.159-4.406,1.733-6.792,1.733
				c-3.632,0-6.724-0.998-9.28-2.994c-2.78-2.142-4.168-4.966-4.168-8.477c0-5.156,2.196-8.827,6.583-10.994
				c3.048-1.48,7.362-2.225,12.942-2.225h5.56c0-3.033-0.706-5.19-2.123-6.476c-1.344-1.212-3.539-1.826-6.588-1.826
				C981.117,748.448,977.154,749.855,973.468,752.66z M983.493,725.9h7.561l7.849,10.906h-6.646l-5.078-6.432l-5.258,6.432h-6.641
				L983.493,725.9z M978.571,769.404c0,3.14,2.123,4.718,6.364,4.718c3.998,0,6.739-1.855,8.224-5.565
				c0.609-1.534,0.915-3.472,0.915-5.813h-4.353C982.286,762.743,978.571,764.963,978.571,769.404z"/>
			<path fill="#36499B" d="M1013.033,780.543v-38.518h9.499v5.244h0.185c2.897-4.095,7.114-6.139,12.645-6.139
				c4.358,0,7.683,1.421,9.972,4.27c2.069,2.629,3.106,6.242,3.106,10.814v24.329h-10.01v-20.556c0-3.389-0.282-5.823-0.842-7.304
				c-0.95-2.512-2.848-3.763-5.697-3.763c-3.218,0-5.594,1.504-7.128,4.528c-1.12,2.235-1.68,4.99-1.68,8.248v18.847H1013.033z"/>
		</g>
	</g>
</g>
<g id="Laag_2">
</g>
</svg>
