<?xml version="1.0" encoding="utf-8"?>
<!-- Generator: Adobe Illustrator 22.1.0, SVG Export Plug-In . SVG Version: 6.00 Build 0)  -->
<svg version="1.1" xmlns="http://www.w3.org/2000/svg" xmlns:xlink="http://www.w3.org/1999/xlink" x="0px" y="0px"
	 viewBox="0 0 1599.999 900" enable-background="new 0 0 1599.999 900" xml:space="preserve">
<g id="Layer_1">
	<g>
		<g>
			<path fill="#009FD1" d="M483.155,175.181c-152.889,0-276.83,123.94-276.83,276.83c0,152.888,123.941,276.828,276.83,276.828
				c152.889,0,276.83-123.94,276.83-276.828C759.984,299.121,636.044,175.181,483.155,175.181z M483.155,668.919
				c-119.77,0-216.862-97.092-216.862-216.862c0-119.769,97.092-216.862,216.862-216.862c119.77,0,216.862,97.093,216.862,216.862
				C700.017,571.827,602.925,668.919,483.155,668.919z"/>
			<path fill="#009FD1" d="M558.102,525.927H455.899L568.64,390.975c10.104-12.492,13.73-25.792,10.787-39.507
				c-3.961-18.857-16.944-29.669-35.625-29.669H416.407c-14.48,0-24.593,11.592-24.593,28.195c0,16.832,9.654,27.707,24.593,27.707
				h94.995l-115.39,138.277l-0.138,0.173c-6.573,8.697-10.343,19.196-10.343,28.798c0,21.999,15.612,37.365,37.966,37.365h134.604
				c14.26,0,22.77-10.541,22.77-28.195C580.871,536.201,572.572,525.927,558.102,525.927z"/>
			<path fill="#009FD1" d="M862.516,414.723c24.814,0,40.09-14.703,40.09-46.01c0-31.315-15.276-45.822-40.09-45.822
				c-24.633,0-40.098,14.507-40.098,45.822C822.418,400.02,837.883,414.723,862.516,414.723z M862.516,333.963
				c17.559,0,27.678,10.69,27.678,34.75c0,24.436-10.119,34.935-27.678,34.935c-17.569,0-27.692-10.5-27.692-34.935
				C834.824,344.652,844.947,333.963,862.516,333.963z"/>
			<path fill="#009FD1" d="M993.094,407.658v-50.974c0-14.129,7.45-22.911,23.867-22.911c18.52,0,23.867,10.309,23.867,25.392
				v48.494c0,3.44,2.669,6.111,6.109,6.111c3.435,0,6.108-2.671,6.108-6.111v-50.974c0-16.23-6.684-33.793-36.084-33.793
				c-14.705,0-23.102,5.918-27.878,13.365c-4.581-7.64-14.695-13.365-30.352-13.365c-12.412,0-21.574,6.301-24.824,13.365v-6.113
				c0-3.435-2.674-6.106-6.104-6.106c-3.44,0-6.113,2.671-6.113,6.106v77.515c0,3.44,2.674,6.111,6.113,6.111
				c3.43,0,6.104-2.671,6.104-6.111v-47.154c0-16.042,5.733-26.731,23.482-26.731c18.715,0,23.492,10.309,23.492,25.392v48.494
				c0,3.44,2.669,6.111,6.099,6.111C990.426,413.769,993.094,411.098,993.094,407.658z"/>
			<path fill="#009FD1" d="M1114.71,323.268c-13.183,0-22.721,6.496-26.541,15.281v-8.406c0-3.435-2.674-6.106-6.108-6.106
				c-3.44,0-6.113,2.671-6.113,6.106v77.515c0,3.44,2.674,6.111,6.113,6.111c3.435,0,6.108-2.671,6.108-6.111V364.89
				c0-17.564,8.972-29.78,26.541-29.78c3.24,0,5.913-2.674,5.913-5.918C1120.623,325.942,1117.95,323.268,1114.71,323.268z"/>
			<path fill="#009FD1" d="M1168.353,322.89c-24.629,0-40.09,14.507-40.09,45.822c0,31.308,15.461,46.01,40.09,46.01
				c24.819,0,40.1-14.703,40.1-46.01C1208.453,337.397,1193.172,322.89,1168.353,322.89z M1168.353,403.648
				c-17.564,0-27.688-10.5-27.688-34.935c0-24.06,10.124-34.75,27.688-34.75c17.569,0,27.683,10.69,27.683,34.75
				C1196.036,393.148,1185.922,403.648,1168.353,403.648z"/>
			<path fill="#009FD1" d="M1261.135,322.89c-24.814,0-39.328,16.42-39.328,45.822c0,32.071,15.846,46.01,41.236,46.01
				c16.993,0,26.927-7.826,29.785-10.69c1.151-1.147,2.098-2.293,2.098-4.393c0-3.052-2.478-5.535-5.527-5.535
				c-1.527,0-2.293,0.381-3.445,1.147c-5.342,4.006-11.836,8.206-22.911,8.206c-17.944,0-28.824-12.219-28.824-31.12h55.751
				c7.635,0,7.635-6.682,7.635-12.219C1297.604,347.135,1291.681,322.89,1261.135,322.89z M1234.218,361.645
				c1.147-16.993,10.304-27.683,26.917-27.683c19.667,0,24.438,13.936,24.438,27.683H1234.218z"/>
			<path fill="#009FD1" d="M1322.609,450.616c3.244,0,6.113-2.864,6.113-6.108v-43.149c4.006,6.492,13.168,13.363,25.96,13.363
				c24.819,0,39.904-14.703,39.904-46.01c0-31.315-15.085-45.822-39.904-45.822c-12.792,0-22.335,6.874-25.96,13.365v-6.113
				c0-3.435-2.869-6.106-6.113-6.106c-3.245,0-6.108,2.671-6.108,6.106v114.366C1316.5,447.752,1319.364,450.616,1322.609,450.616z
				 M1354.302,333.963c17.559,0,27.873,10.882,27.873,34.75c0,23.862-9.924,34.935-27.493,34.935
				c-14.89,0-26.346-10.309-26.346-34.935C1328.336,343.891,1340.172,333.963,1354.302,333.963z"/>
			<path fill="#009FD1" d="M886.959,565.899h-38.977l44.5-61.125c0.854-1.132,1.864-2.981,1.864-5.384
				c0-4.674-3.659-8.336-8.338-8.336h-52.311c-4.673,0-8.332,3.662-8.332,8.336s3.659,8.333,8.332,8.333h35.909l-45.006,61.442
				c-1.285,1.61-1.91,3.388-1.91,5.445c0,4.676,3.659,8.338,8.334,8.338h55.936c4.708,0,8.528-3.825,8.528-8.526
				C895.488,569.722,891.667,565.899,886.959,565.899z"/>
			<path fill="#009FD1" d="M983.122,528.22c0-6.652-1.888-39.831-39.075-39.831c-26.653,0-41.934,17.649-41.934,48.423
				c0,40.182,23.843,48.618,43.846,48.618c19.213,0,29.713-9.543,31.625-11.456c1-1,2.859-2.864,2.859-6.23
				c0-4.491-3.649-8.145-8.138-8.145c-2.317,0-3.586,0.717-4.996,1.664c-5.196,3.891-11.119,7.689-21.35,7.689
				c-15.359,0-25.199-9.851-26.146-25.907h53.063C983.122,543.044,983.122,533.401,983.122,528.22z M944.047,504.669
				c13.914,0,21.052,7.357,21.769,22.472h-45.818C921.853,512.62,930.318,504.669,944.047,504.669z"/>
			<path fill="#009FD1" d="M1072.078,528.22c0-6.652-1.878-39.831-39.065-39.831c-26.653,0-41.939,17.649-41.939,48.423
				c0,40.182,23.843,48.618,43.841,48.618c19.228,0,29.722-9.543,31.635-11.458c1-1.002,2.859-2.866,2.859-6.228
				c0-4.491-3.649-8.145-8.143-8.145c-2.318,0-3.581,0.717-4.996,1.664c-5.191,3.891-11.114,7.689-21.355,7.689
				c-15.354,0-25.19-9.851-26.146-25.907h53.072C1072.078,543.044,1072.078,533.401,1072.078,528.22z M1033.013,504.669
				c13.915,0,21.052,7.357,21.77,22.472h-45.822C1010.819,512.62,1019.284,504.669,1033.013,504.669z"/>
			<path fill="#009FD1" d="M1108.226,567.807c-2,0-5.025,0-5.025-8.28V450.514c0-4.806-3.913-8.714-8.724-8.714
				c-4.723,0-8.709,3.989-8.709,8.714v109.013c0,16.088,7.972,24.948,22.457,24.948c4.596,0,8.333-3.74,8.333-8.336
				C1116.559,571.546,1112.822,567.807,1108.226,567.807z"/>
			<path fill="#009FD1" d="M1162.064,488.389c-20.467,0-30.02,10.199-33.932,16.344c-0.615,1.034-1.317,2.49-1.317,4.586
				c0,4.491,3.65,8.143,8.138,8.143c2.61,0,4.61-1.02,6.923-3.554c5.713-6.455,11.182-8.855,20.189-8.855
				c12.48,0,19.925,6.877,19.925,18.393v2.551h-24.311c-22.223,0-36.026,11.312-36.026,29.522c0,18.73,13.324,29.91,35.64,29.91
				c9.958,0,18.813-3.249,24.726-8.801c0.346,4.386,4.025,7.848,8.494,7.848c4.698,0,8.528-3.825,8.528-8.526v-52.504
				C1199.041,501.822,1184.873,488.389,1162.064,488.389z M1157.678,541.9h24.311v5.411c0,15.081-11.827,21.833-23.55,21.833
				c-12.715,0-19.155-4.586-19.155-13.624C1139.285,543.669,1150.809,541.9,1157.678,541.9z"/>
			<path fill="#009FD1" d="M1256.953,488.389c-9.084,0-17.369,3.142-22.911,8.379c-0.678-4.159-4.211-7.24-8.597-7.24
				c-4.889,0-8.714,3.83-8.714,8.716v77.513c0,4.889,3.825,8.719,8.714,8.719s8.714-3.83,8.714-8.719v-47.154
				c0-16.232,7.46-24.126,22.794-24.126c16.852,0,20.306,9.111,20.306,22.789v48.491c0,4.889,3.83,8.719,8.714,8.719
				c4.889,0,8.709-3.83,8.709-8.719v-50.972C1294.682,500.632,1281.992,488.389,1256.953,488.389z"/>
			<path fill="#009FD1" d="M1381.082,441.603c-4.728,0-8.719,3.991-8.719,8.716v46.227c-5.22-4.791-13.183-8.86-23.36-8.86
				c-27.414,0-42.51,17.266-42.51,48.616c0,31.23,15.095,48.433,42.51,48.433c9.982,0,18.13-3.844,23.433-8.735
				c0.556,4.276,4.22,7.589,8.646,7.589c4.801,0,8.709-3.91,8.709-8.716V450.319C1389.79,445.593,1385.804,441.603,1381.082,441.603
				z M1349.389,568.446c-16.774,0-25.273-10.817-25.273-32.145c0-21.755,8.143-32.33,24.887-32.33
				c15.31,0,23.745,11.482,23.745,32.33C1372.748,556.729,1364.235,568.446,1349.389,568.446z"/>
		</g>
		<g>
			<path fill="#0093C9" stroke="#0093C9" stroke-width="0.6" stroke-miterlimit="10" d="M483.155,175.181
				c-152.889,0-276.83,123.94-276.83,276.83c0,152.888,123.941,276.828,276.83,276.828c152.889,0,276.83-123.94,276.83-276.828
				C759.984,299.121,636.044,175.181,483.155,175.181z M483.155,668.919c-119.77,0-216.862-97.092-216.862-216.862
				c0-119.769,97.092-216.862,216.862-216.862c119.77,0,216.862,97.093,216.862,216.862
				C700.017,571.827,602.925,668.919,483.155,668.919z"/>
			<path fill="#0093C9" stroke="#0093C9" stroke-width="0.6" stroke-miterlimit="10" d="M558.102,525.927H455.899L568.64,390.975
				c10.104-12.492,13.73-25.792,10.787-39.507c-3.961-18.857-16.944-29.669-35.625-29.669H416.407
				c-14.48,0-24.593,11.592-24.593,28.195c0,16.832,9.654,27.707,24.593,27.707h94.995l-115.39,138.277l-0.138,0.173
				c-6.573,8.697-10.343,19.196-10.343,28.798c0,21.999,15.612,37.365,37.966,37.365h134.604c14.26,0,22.77-10.541,22.77-28.195
				C580.871,536.201,572.572,525.927,558.102,525.927z"/>
			<path fill="#0093C9" stroke="#0093C9" stroke-width="0.6" stroke-miterlimit="10" d="M862.516,414.723
				c24.814,0,40.09-14.703,40.09-46.01c0-31.315-15.276-45.822-40.09-45.822c-24.633,0-40.098,14.507-40.098,45.822
				C822.418,400.02,837.883,414.723,862.516,414.723z M862.516,333.963c17.559,0,27.678,10.69,27.678,34.75
				c0,24.436-10.119,34.935-27.678,34.935c-17.569,0-27.692-10.5-27.692-34.935C834.824,344.652,844.947,333.963,862.516,333.963z"
				/>
			<path fill="#0093C9" stroke="#0093C9" stroke-width="0.6" stroke-miterlimit="10" d="M993.094,407.658v-50.974
				c0-14.129,7.45-22.911,23.867-22.911c18.52,0,23.867,10.309,23.867,25.392v48.494c0,3.44,2.669,6.111,6.109,6.111
				c3.435,0,6.108-2.671,6.108-6.111v-50.974c0-16.23-6.684-33.793-36.084-33.793c-14.705,0-23.102,5.918-27.878,13.365
				c-4.581-7.64-14.695-13.365-30.352-13.365c-12.412,0-21.574,6.301-24.824,13.365v-6.113c0-3.435-2.674-6.106-6.104-6.106
				c-3.44,0-6.113,2.671-6.113,6.106v77.515c0,3.44,2.674,6.111,6.113,6.111c3.43,0,6.104-2.671,6.104-6.111v-47.154
				c0-16.042,5.733-26.731,23.482-26.731c18.715,0,23.492,10.309,23.492,25.392v48.494c0,3.44,2.669,6.111,6.099,6.111
				C990.426,413.769,993.094,411.098,993.094,407.658z"/>
			<path fill="#0093C9" stroke="#0093C9" stroke-width="0.6" stroke-miterlimit="10" d="M1114.71,323.268
				c-13.183,0-22.721,6.496-26.541,15.281v-8.406c0-3.435-2.674-6.106-6.108-6.106c-3.44,0-6.113,2.671-6.113,6.106v77.515
				c0,3.44,2.674,6.111,6.113,6.111c3.435,0,6.108-2.671,6.108-6.111V364.89c0-17.564,8.972-29.78,26.541-29.78
				c3.24,0,5.913-2.674,5.913-5.918C1120.623,325.942,1117.95,323.268,1114.71,323.268z"/>
			<path fill="#0093C9" stroke="#0093C9" stroke-width="0.6" stroke-miterlimit="10" d="M1168.353,322.89
				c-24.629,0-40.09,14.507-40.09,45.822c0,31.308,15.461,46.01,40.09,46.01c24.819,0,40.1-14.703,40.1-46.01
				C1208.453,337.397,1193.172,322.89,1168.353,322.89z M1168.353,403.648c-17.564,0-27.688-10.5-27.688-34.935
				c0-24.06,10.124-34.75,27.688-34.75c17.569,0,27.683,10.69,27.683,34.75C1196.036,393.148,1185.922,403.648,1168.353,403.648z"/>
			<path fill="#0093C9" stroke="#0093C9" stroke-width="0.6" stroke-miterlimit="10" d="M1261.135,322.89
				c-24.814,0-39.328,16.42-39.328,45.822c0,32.071,15.846,46.01,41.236,46.01c16.993,0,26.927-7.826,29.785-10.69
				c1.151-1.147,2.098-2.293,2.098-4.393c0-3.052-2.478-5.535-5.527-5.535c-1.527,0-2.293,0.381-3.445,1.147
				c-5.342,4.006-11.836,8.206-22.911,8.206c-17.944,0-28.824-12.219-28.824-31.12h55.751c7.635,0,7.635-6.682,7.635-12.219
				C1297.604,347.135,1291.681,322.89,1261.135,322.89z M1234.218,361.645c1.147-16.993,10.304-27.683,26.917-27.683
				c19.667,0,24.438,13.936,24.438,27.683H1234.218z"/>
			<path fill="#0093C9" stroke="#0093C9" stroke-width="0.6" stroke-miterlimit="10" d="M1322.609,450.616
				c3.244,0,6.113-2.864,6.113-6.108v-43.149c4.006,6.492,13.168,13.363,25.96,13.363c24.819,0,39.904-14.703,39.904-46.01
				c0-31.315-15.085-45.822-39.904-45.822c-12.792,0-22.335,6.874-25.96,13.365v-6.113c0-3.435-2.869-6.106-6.113-6.106
				c-3.245,0-6.108,2.671-6.108,6.106v114.366C1316.5,447.752,1319.364,450.616,1322.609,450.616z M1354.302,333.963
				c17.559,0,27.873,10.882,27.873,34.75c0,23.862-9.924,34.935-27.493,34.935c-14.89,0-26.346-10.309-26.346-34.935
				C1328.336,343.891,1340.172,333.963,1354.302,333.963z"/>
			<path fill="#0093C9" stroke="#0093C9" stroke-width="0.6" stroke-miterlimit="10" d="M886.959,565.899h-38.977l44.5-61.125
				c0.854-1.132,1.864-2.981,1.864-5.384c0-4.674-3.659-8.336-8.338-8.336h-52.311c-4.673,0-8.332,3.662-8.332,8.336
				s3.659,8.333,8.332,8.333h35.909l-45.006,61.442c-1.285,1.61-1.91,3.388-1.91,5.445c0,4.676,3.659,8.338,8.334,8.338h55.936
				c4.708,0,8.528-3.825,8.528-8.526C895.488,569.722,891.667,565.899,886.959,565.899z"/>
			<path fill="#0093C9" stroke="#0093C9" stroke-width="0.6" stroke-miterlimit="10" d="M983.122,528.22
				c0-6.652-1.888-39.831-39.075-39.831c-26.653,0-41.934,17.649-41.934,48.423c0,40.182,23.843,48.618,43.846,48.618
				c19.213,0,29.713-9.543,31.625-11.456c1-1,2.859-2.864,2.859-6.23c0-4.491-3.649-8.145-8.138-8.145
				c-2.317,0-3.586,0.717-4.996,1.664c-5.196,3.891-11.119,7.689-21.35,7.689c-15.359,0-25.199-9.851-26.146-25.907h53.063
				C983.122,543.044,983.122,533.401,983.122,528.22z M944.047,504.669c13.914,0,21.052,7.357,21.769,22.472h-45.818
				C921.853,512.62,930.318,504.669,944.047,504.669z"/>
			<path fill="#0093C9" stroke="#0093C9" stroke-width="0.6" stroke-miterlimit="10" d="M1072.078,528.22
				c0-6.652-1.878-39.831-39.065-39.831c-26.653,0-41.939,17.649-41.939,48.423c0,40.182,23.843,48.618,43.841,48.618
				c19.228,0,29.722-9.543,31.635-11.458c1-1.002,2.859-2.866,2.859-6.228c0-4.491-3.649-8.145-8.143-8.145
				c-2.318,0-3.581,0.717-4.996,1.664c-5.191,3.891-11.114,7.689-21.355,7.689c-15.354,0-25.19-9.851-26.146-25.907h53.072
				C1072.078,543.044,1072.078,533.401,1072.078,528.22z M1033.013,504.669c13.915,0,21.052,7.357,21.77,22.472h-45.822
				C1010.819,512.62,1019.284,504.669,1033.013,504.669z"/>
			<path fill="#0093C9" stroke="#0093C9" stroke-width="0.6" stroke-miterlimit="10" d="M1108.226,567.807c-2,0-5.025,0-5.025-8.28
				V450.514c0-4.806-3.913-8.714-8.724-8.714c-4.723,0-8.709,3.989-8.709,8.714v109.013c0,16.088,7.972,24.948,22.457,24.948
				c4.596,0,8.333-3.74,8.333-8.336C1116.559,571.546,1112.822,567.807,1108.226,567.807z"/>
			<path fill="#0093C9" stroke="#0093C9" stroke-width="0.6" stroke-miterlimit="10" d="M1162.064,488.389
				c-20.467,0-30.02,10.199-33.932,16.344c-0.615,1.034-1.317,2.49-1.317,4.586c0,4.491,3.65,8.143,8.138,8.143
				c2.61,0,4.61-1.02,6.923-3.554c5.713-6.455,11.182-8.855,20.189-8.855c12.48,0,19.925,6.877,19.925,18.393v2.551h-24.311
				c-22.223,0-36.026,11.312-36.026,29.522c0,18.73,13.324,29.91,35.64,29.91c9.958,0,18.813-3.249,24.726-8.801
				c0.346,4.386,4.025,7.848,8.494,7.848c4.698,0,8.528-3.825,8.528-8.526v-52.504
				C1199.041,501.822,1184.873,488.389,1162.064,488.389z M1157.678,541.9h24.311v5.411c0,15.081-11.827,21.833-23.55,21.833
				c-12.715,0-19.155-4.586-19.155-13.624C1139.285,543.669,1150.809,541.9,1157.678,541.9z"/>
			<path fill="#0093C9" stroke="#0093C9" stroke-width="0.6" stroke-miterlimit="10" d="M1256.953,488.389
				c-9.084,0-17.369,3.142-22.911,8.379c-0.678-4.159-4.211-7.24-8.597-7.24c-4.889,0-8.714,3.83-8.714,8.716v77.513
				c0,4.889,3.825,8.719,8.714,8.719s8.714-3.83,8.714-8.719v-47.154c0-16.232,7.46-24.126,22.794-24.126
				c16.852,0,20.306,9.111,20.306,22.789v48.491c0,4.889,3.83,8.719,8.714,8.719c4.889,0,8.709-3.83,8.709-8.719v-50.972
				C1294.682,500.632,1281.992,488.389,1256.953,488.389z"/>
			<path fill="#0093C9" stroke="#0093C9" stroke-width="0.6" stroke-miterlimit="10" d="M1381.082,441.603
				c-4.728,0-8.719,3.991-8.719,8.716v46.227c-5.22-4.791-13.183-8.86-23.36-8.86c-27.414,0-42.51,17.266-42.51,48.616
				c0,31.23,15.095,48.433,42.51,48.433c9.982,0,18.13-3.844,23.433-8.735c0.556,4.276,4.22,7.589,8.646,7.589
				c4.801,0,8.709-3.91,8.709-8.716V450.319C1389.79,445.593,1385.804,441.603,1381.082,441.603z M1349.389,568.446
				c-16.774,0-25.273-10.817-25.273-32.145c0-21.755,8.143-32.33,24.887-32.33c15.31,0,23.745,11.482,23.745,32.33
				C1372.748,556.729,1364.235,568.446,1349.389,568.446z"/>
		</g>
	</g>
</g>
<g id="Laag_2">
</g>
</svg>
