<?xml version="1.0" encoding="utf-8"?>
<!-- Generator: Adobe Illustrator 22.1.0, SVG Export Plug-In . SVG Version: 6.00 Build 0)  -->
<svg version="1.1" xmlns="http://www.w3.org/2000/svg" xmlns:xlink="http://www.w3.org/1999/xlink" x="0px" y="0px"
	 viewBox="0 0 1599.999 900" enable-background="new 0 0 1599.999 900" xml:space="preserve">
<g id="Layer_1">
	<g>
		<path fill="#E2001A" d="M573.525,618.989c0,12.367-10.027,22.394-22.395,22.394H213.96c-12.369,0-22.395-10.027-22.395-22.394
			V281.815c0-12.367,10.026-22.395,22.395-22.395h337.17c12.368,0,22.395,10.028,22.395,22.395V618.989z"/>
		<g>
			<path fill="#F1F2F3" d="M694.734,305.733c9.798,0,18.224,1.666,25.278,4.997c7.055,3.331,12.866,7.906,17.441,13.718
				c4.571,5.814,7.936,12.608,10.092,20.379c2.155,7.773,3.233,16.102,3.233,24.983c0,10.583-1.308,20.12-3.919,28.61
				c-2.615,8.495-6.436,15.745-11.464,21.752c-5.03,6.011-11.268,10.616-18.714,13.815c-7.447,3.2-16.004,4.801-25.67,4.801
				c-9.798,0-18.258-1.568-25.377-4.702c-7.122-3.135-13.031-7.511-17.734-13.129c-4.703-5.615-8.199-12.375-10.484-20.281
				c-2.287-7.902-3.429-16.623-3.429-26.16c0-9.798,1.207-18.876,3.625-27.237c2.416-8.36,6.105-15.643,11.072-21.85
				c4.963-6.204,11.268-11.037,18.91-14.5C675.237,307.466,684.281,305.733,694.734,305.733z M693.559,324.742
				c-6.27,0-11.727,1.243-16.363,3.723c-4.638,2.482-8.493,5.912-11.561,10.288c-3.071,4.378-5.324,9.472-6.761,15.284
				c-1.439,5.814-2.155,12.052-2.155,18.714c0,14.894,3.067,26.425,9.209,34.588c6.139,8.165,14.826,12.247,26.063,12.247
				c6.139,0,11.464-1.177,15.97-3.528c4.507-2.351,8.262-5.648,11.268-9.896c3.004-4.243,5.224-9.308,6.663-15.185
				c1.435-5.879,2.155-12.278,2.155-19.204c0-7.055-0.686-13.454-2.058-19.204c-1.372-5.748-3.496-10.68-6.369-14.795
				c-2.875-4.115-6.466-7.316-10.777-9.603C704.532,325.887,699.437,324.742,693.559,324.742z"/>
			<path fill="#F1F2F3" d="M769.392,436.437l10.777-128.351h29.981l31.745,104.053l31.354-104.053h29.784l10.778,128.351h-22.534
				l-6.468-103.464l-31.353,103.464h-24.691l-31.353-103.464l-6.663,103.464H769.392z"/>
			<path fill="#F1F2F3" d="M1032.17,436.437h-25.278l-23.018-49.773c-1.042,0.131-2.313,0.264-3.807,0.392
				c-1.495,0.131-3.155,0.197-4.974,0.197h-11.901v49.184h-21.553V308.086h46.048c12.934,0,22.927,3.3,29.982,9.894
				c7.055,6.599,10.581,15.451,10.581,26.552c0,7.839-1.944,15.025-5.83,21.557c-3.886,6.534-9.975,11.628-18.273,15.284
				L1032.17,436.437z M963.191,368.636h15.604c3.641,0,7.086-0.488,10.337-1.469s6.111-2.417,8.58-4.312
				c2.471-1.892,4.392-4.243,5.757-7.053c1.365-2.809,2.049-6.105,2.049-9.896c0-6.138-2.049-10.875-6.146-14.207
				c-4.095-3.331-9.264-4.997-15.504-4.997h-20.678V368.636z"/>
			<path fill="#F1F2F3" d="M1104.281,305.733c9.798,0,18.223,1.666,25.278,4.997c7.053,3.331,12.865,7.906,17.44,13.718
				c4.571,5.814,7.937,12.608,10.091,20.379c2.156,7.773,3.233,16.102,3.233,24.983c0,10.583-1.307,20.12-3.918,28.61
				c-2.615,8.495-6.435,15.745-11.464,21.752c-5.03,6.011-11.267,10.616-18.714,13.815c-7.447,3.2-16.004,4.801-25.67,4.801
				c-9.798,0-18.258-1.568-25.377-4.702c-7.122-3.135-13.031-7.511-17.733-13.129c-4.704-5.615-8.201-12.375-10.485-20.281
				c-2.287-7.902-3.428-16.623-3.428-26.16c0-9.798,1.207-18.876,3.623-27.237c2.417-8.36,6.105-15.643,11.074-21.85
				c4.961-6.204,11.267-11.037,18.909-14.5C1084.782,307.466,1093.827,305.733,1104.281,305.733z M1103.106,324.742
				c-6.271,0-11.728,1.243-16.363,3.723c-4.64,2.482-8.495,5.912-11.562,10.288c-3.071,4.378-5.325,9.472-6.761,15.284
				c-1.438,5.814-2.154,12.052-2.154,18.714c0,14.894,3.067,26.425,9.209,34.588c6.14,8.165,14.826,12.247,26.062,12.247
				c6.14,0,11.464-1.177,15.971-3.528c4.507-2.351,8.261-5.648,11.269-9.896c3.004-4.243,5.223-9.308,6.661-15.185
				c1.436-5.879,2.156-12.278,2.156-19.204c0-7.055-0.685-13.454-2.058-19.204c-1.372-5.748-3.495-10.68-6.368-14.795
				c-2.876-4.115-6.466-7.316-10.778-9.603C1114.079,325.887,1108.983,324.742,1103.106,324.742z"/>
			<path fill="#F1F2F3" d="M1183.052,308.086h76.032v19.007h-54.477v34.489h50.948v18.615h-50.948v37.035h54.477v19.204h-76.032
				V308.086z"/>
			<path fill="#F1F2F3" d="M1306.898,391.76v44.677h-21.555V308.086h44.677c7.055,0,13.16,0.948,18.323,2.841
				c5.158,1.896,9.47,4.575,12.933,8.034c3.459,3.463,6.007,7.642,7.642,12.541c1.633,4.899,2.449,10.355,2.449,16.362
				c0,6.403-0.979,12.282-2.94,17.637c-1.959,5.358-4.899,9.995-8.817,13.913c-3.919,3.918-8.852,6.956-14.795,9.113
				c-5.945,2.154-12.834,3.233-20.673,3.233H1306.898z M1306.898,373.143h16.384c7.8,0,13.977-2.032,18.526-6.098
				c4.551-4.066,6.829-10.102,6.829-18.105c0-7.213-1.921-12.725-5.754-16.53c-3.836-3.804-9.069-5.708-15.701-5.708h-20.285
				V373.143z"/>
			<path fill="#F1F2F3" d="M688.072,466.716c5.487,0,10.45,0.621,14.893,1.863c4.44,1.243,8.294,3.104,11.561,5.584
				c3.264,2.484,5.781,5.619,7.544,9.406c1.764,3.791,2.645,8.23,2.645,13.324c0,7.972-1.763,14.241-5.291,18.812
				c-3.526,4.575-8.425,7.97-14.697,10.19v0.589c4.18,0.656,7.771,1.861,10.778,3.625c3.004,1.764,5.487,3.986,7.446,6.663
				c1.959,2.679,3.429,5.652,4.409,8.916c0.98,3.268,1.47,6.663,1.47,10.19c0,13.066-4.051,22.864-12.149,29.394
				c-8.102,6.534-19.14,9.798-33.117,9.798h-40.367V466.716H688.072z M664.753,484.745v35.273h16.264
				c5.616,0,10.45-1.598,14.501-4.8c4.048-3.2,6.075-7.87,6.075-14.012c0-5.223-1.568-9.275-4.703-12.149
				c-3.136-2.872-7.447-4.312-12.934-4.312H664.753z M664.753,576.454h18.812c6.791,0,12.18-1.633,16.167-4.899
				c3.983-3.264,5.977-8.622,5.977-16.069c0-5.615-1.832-9.995-5.488-13.129c-3.659-3.135-8.622-4.702-14.893-4.702h-20.575V576.454
				z"/>
			<path fill="#F1F2F3" d="M843.661,595.069h-25.278l-23.018-49.773c-1.042,0.131-2.312,0.262-3.806,0.392
				c-1.495,0.131-3.154,0.195-4.973,0.195h-11.901v49.186H753.13V466.716h46.05c12.934,0,22.927,3.301,29.981,9.896
				c7.055,6.599,10.581,15.45,10.581,26.552c0,7.839-1.943,15.025-5.828,21.555c-3.886,6.534-9.976,11.629-18.273,15.285
				L843.661,595.069z M774.684,527.268h15.603c3.641,0,7.085-0.49,10.336-1.469c3.251-0.981,6.112-2.417,8.582-4.312
				c2.471-1.892,4.391-4.243,5.756-7.053c1.366-2.809,2.049-6.105,2.049-9.896c0-6.14-2.049-10.877-6.146-14.207
				c-4.096-3.331-9.265-4.997-15.505-4.997h-20.676V527.268z"/>
			<path fill="#F1F2F3" d="M878.933,564.303l-9.209,30.766h-23.906l43.502-128.353h24.886l43.699,128.353h-24.3l-9.404-30.766
				H878.933z M901.273,489.84l-17.048,56.436h34.487L901.273,489.84z"/>
			<path fill="#F1F2F3" d="M1016.297,466.716c5.488,0,10.451,0.621,14.892,1.863c4.44,1.243,8.296,3.104,11.562,5.584
				c3.264,2.484,5.781,5.619,7.545,9.406c1.764,3.791,2.645,8.23,2.645,13.324c0,7.972-1.762,14.241-5.291,18.812
				c-3.527,4.575-8.426,7.97-14.697,10.19v0.589c4.181,0.656,7.771,1.861,10.778,3.625c3.004,1.764,5.486,3.986,7.447,6.663
				c1.957,2.679,3.428,5.652,4.407,8.916c0.98,3.268,1.471,6.663,1.471,10.19c0,13.066-4.051,22.864-12.149,29.394
				c-8.101,6.534-19.14,9.798-33.117,9.798h-40.367V466.716H1016.297z M992.978,484.745v35.273h16.264c5.617,0,10.45-1.598,14.5-4.8
				c4.05-3.2,6.076-7.87,6.076-14.012c0-5.223-1.568-9.275-4.702-12.149c-3.136-2.872-7.447-4.312-12.934-4.312H992.978z
				 M992.978,576.454h18.812c6.791,0,12.18-1.633,16.166-4.899c3.984-3.264,5.978-8.622,5.978-16.069
				c0-5.615-1.832-9.995-5.488-13.129c-3.658-3.135-8.622-4.702-14.892-4.702h-20.576V576.454z"/>
			<path fill="#F1F2F3" d="M1096.051,564.303l-9.209,30.766h-23.908l43.504-128.353h24.886l43.699,128.353h-24.3l-9.404-30.766
				H1096.051z M1118.391,489.84l-17.05,56.436h34.489L1118.391,489.84z"/>
			<path fill="#F1F2F3" d="M1213.623,466.716l59.179,97.392v-97.392h20.381v128.353h-25.672l-58.59-96.411v96.411h-20.379V466.716
				H1213.623z"/>
			<path fill="#F1F2F3" d="M1369.017,595.069h-21.555V485.92h-37.624v-19.204h96.803v19.204h-37.624V595.069z"/>
		</g>
		<g>
			<path fill="#FFD300" d="M382.337,616.79c-91.749,0-166.39-74.638-166.39-166.383c0-91.749,74.641-166.394,166.39-166.394
				c91.748,0,166.394,74.645,166.394,166.394C548.731,542.152,474.086,616.79,382.337,616.79L382.337,616.79z"/>
			<path fill="#FFFFFF" d="M382.338,270.947c99.11,0,179.456,80.347,179.456,179.46c0,99.109-80.346,179.449-179.456,179.449
				c-99.11,0-179.456-80.34-179.456-179.449C202.882,351.294,283.228,270.947,382.338,270.947 M382.338,297.075
				c-84.546,0-153.328,68.784-153.328,153.332c0,84.541,68.783,153.321,153.328,153.321c84.546,0,153.328-68.78,153.328-153.321
				C535.667,365.859,466.884,297.075,382.338,297.075L382.338,297.075z"/>
		</g>
		<g>
			<path d="M399.939,352.609c8.361,0,15.923,0.947,22.693,2.837c6.765,1.894,12.639,4.73,17.617,8.509
				c4.974,3.784,8.809,8.613,11.497,14.483c2.687,5.874,4.031,12.793,4.031,20.753c0,11.944-2.687,21.35-8.063,28.217
				c-5.375,6.868-12.84,11.996-22.395,15.378v0.896c6.569,0.999,12.192,2.837,16.871,5.524c4.675,2.687,8.459,6.023,11.347,10.003
				c2.883,3.985,5.025,8.413,6.42,13.288c1.391,4.881,2.09,9.807,2.09,14.781c0,20.306-6.322,35.534-18.962,45.686
				c-12.644,10.152-30.606,15.229-53.897,15.229h-63.9V352.609H399.939z M364.406,384.559v47.478h22.395
				c7.362,0,13.632-2.239,18.811-6.718c5.175-4.48,7.764-10.498,7.764-18.066c0-6.966-2.043-12.49-6.121-16.572
				c-4.082-4.078-9.808-6.122-17.17-6.122H364.406z M364.406,515.347h26.575c8.959,0,16.022-2.3,21.201-6.905
				c5.174-4.606,7.764-11.716,7.764-21.327c0-7.003-2.342-12.756-7.017-17.263c-4.68-4.507-11.496-6.761-20.454-6.761h-28.069
				V515.347z"/>
		</g>
	</g>
</g>
<g id="Laag_2">
</g>
</svg>
