<?xml version="1.0" encoding="utf-8"?>
<!-- Generator: Adobe Illustrator 22.1.0, SVG Export Plug-In . SVG Version: 6.00 Build 0)  -->
<svg version="1.1" id="Layer_1" xmlns="http://www.w3.org/2000/svg" xmlns:xlink="http://www.w3.org/1999/xlink" x="0px" y="0px"
	 viewBox="0 0 1600 900" enable-background="new 0 0 1600 900" xml:space="preserve">
<g>
	<path fill="#FEFEFE" d="M1058.323,427.388c-0.391-4.69,0.365-9.411-0.476-14.098c-0.36-2.006-1.421-3.091-3.31-3.641
		c-2.061-0.6-4.15-0.353-6.222-0.335c-4.067,0.035-5.987,1.619-6.722,5.595c-0.697,3.767-1.291,7.557-1.796,11.354
		c-0.149,1.12-0.54,1.604-1.619,1.821c-2.194,0.441-4.363,1.004-6.543,1.511c-2.611,0.607-4.335,2.313-4.725,4.84
		c-0.369,2.39-0.391,4.881,0.148,7.317c0.372,1.681,1.397,2.689,2.967,3.239c2.479,0.868,5.04,0.35,7.556,0.364
		c1.632,0.009,2.085,0.501,2.071,2.111c-0.072,8.664-0.033,17.328-0.035,25.992c0,3.237,0.173,6.437,0.978,9.61
		c2.068,8.153,6.874,13.628,15.026,16.135c4.802,1.477,9.695,1.524,14.623,1.441c3.406-0.057,6.744-0.576,9.955-1.73
		c2.638-0.948,4.337-2.853,4.466-5.651c0.105-2.27,0.51-4.502,0.14-6.864c-0.634-4.043-1.856-5.23-5.885-4.516
		c-3.959,0.702-7.925,1.259-11.97,1.179c-5.578-0.11-8.647-3.014-8.689-8.624c-0.067-9.05,0.018-18.102-0.053-27.153
		c-0.012-1.573,0.517-1.934,1.988-1.911c5.182,0.08,10.366,0.023,15.549,0.04c3.861,0.013,5.391-1.221,6.297-4.876
		c0.609-2.454,0.431-4.924,0.21-7.355c-0.187-2.052-0.725-4.232-3.216-4.806c-1.405-0.324-2.823-0.617-4.313-0.603
		c-5.336,0.052-10.673-0.016-16.01-0.038C1058.584,427.621,1058.453,427.504,1058.323,427.388z"/>
	<path fill="#FEFEFE" d="M1126.07,500.637c1.622,0,3.255,0.12,4.866-0.02c10.35-0.896,15.101-4.809,18.012-14.742
		c0.13-0.444,0.256-0.891,0.361-1.342c2.154-9.249,4.321-18.496,6.452-27.75c1.785-7.751,3.604-15.494,5.256-23.274
		c0.781-3.678-0.702-5.452-4.448-5.632c-2.546-0.122-5.104-0.08-7.653-0.011c-3.386,0.091-5.708,1.698-6.688,5.027
		c-0.326,1.11-0.649,2.225-0.897,3.355c-3.121,14.257-6.214,28.52-9.348,42.774c-0.917,4.172-2.104,5.397-5.098,5.557
		c-4.002,0.214-5.502-0.851-6.455-5.026c-1.923-8.432-3.718-16.893-5.585-25.337c-1.517-6.86-2.947-13.743-4.638-20.561
		c-1.048-4.227-3.139-5.671-7.511-5.819c-2.009-0.068-4.022-0.065-6.032-0.019c-4.889,0.111-6.205,1.738-5.366,6.561
		c0.066,0.38,0.19,0.749,0.276,1.126c2.42,10.535,4.789,21.083,7.276,31.602c1.705,7.21,2.95,14.538,5.326,21.581
		c2.076,6.156,6.253,9.937,12.683,11.243C1119.911,500.551,1122.973,500.799,1126.07,500.637z"/>
	<g>
		<linearGradient id="SVGID_1_" gradientUnits="userSpaceOnUse" x1="589.8441" y1="669.0726" x2="1126.7976" y2="669.0726">
			<stop  offset="0" style="stop-color:#DAEACF"/>
			<stop  offset="0.9988" style="stop-color:#F0F3CF"/>
		</linearGradient>
		<path fill="url(#SVGID_1_)" d="M1125.15,538.242c-2.703,0.888-5.432,1.717-8.193,2.399c-8.772,2.167-17.68,2.932-26.7,2.341
			c-3.446,11.295-7.647,22.311-12.382,33.122c-3.531,8.063-7.388,15.966-11.57,23.721c-7.849,14.555-16.822,28.366-26.804,41.54
			c-4.14,5.463-8.361,10.865-12.941,15.956c-7.108,7.903-14.181,15.855-21.989,23.091c-14.438,13.379-29.801,25.591-46.402,36.191
			c-19.113,12.206-39.287,22.28-60.531,30.278c-16.626,6.26-33.708,10.75-51.096,14.189c-3.688,0.729-7.409,1.286-11.115,1.922
			c-4.114,0.491-8.227,0.99-12.343,1.471c-3.885,0.454-7.762,1.124-11.659,1.287c-9.313,0.387-18.62,1.316-27.946,0.938
			c-9.443-0.382-18.88-0.78-28.308-1.702c-17.251-1.686-34.188-4.899-50.898-9.385c-14.077-3.779-27.781-8.643-41.178-14.408
			c-18.48-7.952-35.974-17.656-52.514-29.086c-4.998-3.454-9.852-7.119-14.754-10.712c-0.545-0.4-1.13-0.838-1.249-1.602
			l-0.052,0.053c-0.424,0.038-0.785-0.043-0.947-0.5c-0.757-0.366-1.514-0.733-2.271-1.098c-0.488-0.071-0.977-0.143-1.465-0.214
			c-0.022,0.595,0.351,0.981,0.692,1.412c6.538,8.288,13.486,16.235,20.752,23.872c9.892,10.397,20.272,20.297,31.24,29.588
			c12.174,10.313,24.847,19.935,38.143,28.741c2.568,1.7,5.021,3.877,7.863,4.8c8.032,2.607,16.271,4.552,24.545,6.284
			c10.507,2.2,21.075,4.018,31.754,5.211c6.405,0.716,12.793,1.555,19.243,1.769c0.742,0.025,1.566-0.264,2.173,0.449
			c14.236,0,28.472,0,42.708,0c0.316-0.423,0.773-0.449,1.246-0.463c8.147-0.231,16.213-1.262,24.293-2.264
			c10.978-1.361,21.851-3.306,32.613-5.782c23.787-5.472,46.832-13.228,68.97-23.53c14.845-6.908,29.218-14.724,42.975-23.636
			c15.351-9.944,29.807-21.077,43.408-33.283c7.581-6.803,14.801-13.997,21.715-21.511c9.297-10.105,17.995-20.663,26.125-31.723
			c10.207-13.884,19.234-28.49,27.263-43.716c7.277-13.8,13.62-28.033,18.99-42.682c3.844-10.485,7.304-21.099,10.061-31.935
			C1127.06,537.897,1126.729,537.723,1125.15,538.242z"/>
		<linearGradient id="SVGID_2_" gradientUnits="userSpaceOnUse" x1="585.1988" y1="233.229" x2="1128.3458" y2="233.229">
			<stop  offset="0" style="stop-color:#DAEACF"/>
			<stop  offset="0.9988" style="stop-color:#F0F3CF"/>
		</linearGradient>
		<path fill="url(#SVGID_2_)" d="M1127.969,364.343c-2.943-12.218-6.781-24.15-11.168-35.926
			c-7.078-19.001-15.965-37.127-26.293-54.541c-8.1-13.659-17.105-26.71-26.889-39.242c-8.595-11.009-17.792-21.482-27.543-31.445
			c-6.896-7.046-14.202-13.692-21.723-20.104c-9.087-7.747-18.526-15.016-28.329-21.809c-16.451-11.4-33.714-21.383-51.93-29.737
			c-11.648-5.342-23.521-10.086-35.648-14.174c-13.994-4.718-28.292-8.34-42.778-11.217c-8.882-1.764-17.836-3.093-26.824-4.108
			c-7.626-0.862-15.295-1.711-22.956-1.827c-15.428-0.233-30.882-0.573-46.273,0.924c-2.422,0.235-4.948-0.051-7.302,0.856
			c-0.767,0.677-1.534,0.676-2.301,0.001c-0.315,0.159-0.629,0.319-0.944,0.478v0c-2.257-0.354-4.473,0.229-6.656,0.531
			c-12.313,1.7-24.537,3.944-36.61,6.915c-4.157,1.023-8.54,1.505-12.294,3.757c-10.202,6.116-19.484,13.527-28.749,20.928
			c-11.013,8.798-21.637,18.071-32.121,27.49c-8.72,7.834-17.373,15.746-25.878,23.821c-3.527,3.348-6.915,6.848-10.555,10.071
			c-3.877,3.433-7.531,7.075-11.01,10.902c0.969,0.162,1.543-0.458,2.212-1.013c3.018-2.505,6.043-5.006,9.13-7.424
			c10.818-8.472,22.232-16.051,34.12-22.945c11.307-6.557,23.011-12.288,35.055-17.334c11.102-4.651,22.441-8.648,34.008-11.977
			c12.496-3.596,25.178-6.384,38.014-8.457c4.082-0.659,8.176-1.249,12.264-1.87c4.504-0.438,9.003-0.915,13.512-1.298
			c2.68-0.227,5.391-0.429,8.054-0.457c7.174-0.076,14.332-0.976,21.505-0.535c10.501,0.646,21.035,0.726,31.491,2.189
			c4.399,0.616,8.841,0.914,13.176,1.958c7.056,0.645,13.944,2.228,20.849,3.718c11.451,2.472,22.709,5.664,33.773,9.487
			c19.234,6.645,37.682,15.017,55.308,25.232c12.702,7.362,24.875,15.489,36.337,24.636c7.346,5.862,14.504,11.965,21.182,18.624
			c2.724,2.716,5.65,5.253,8.351,8.008c13.363,13.623,25.444,28.291,36.243,44.036c9.1,13.269,17.211,27.108,24.135,41.615
			c7.317,15.332,13.578,31.095,18.199,47.474c3.304,0.177,6.606,0.11,9.923,0.346c8.361,0.595,16.407,2.37,24.288,5.103
			c0.541,0.187,1.213,0.729,1.725,0.276C1128.68,365.721,1128.128,365.002,1127.969,364.343z"/>
		<linearGradient id="SVGID_3_" gradientUnits="userSpaceOnUse" x1="587.9769" y1="695.2497" x2="588.0052" y2="695.2497">
			<stop  offset="0" style="stop-color:#DAEACF"/>
			<stop  offset="0.9988" style="stop-color:#F0F3CF"/>
		</linearGradient>
		<path fill="url(#SVGID_3_)" d="M587.977,695.237c0,0.003,0.002,0.004,0.002,0.006c0.009,0.007,0.017,0.013,0.026,0.02
			L587.977,695.237z"/>
		<linearGradient id="SVGID_4_" gradientUnits="userSpaceOnUse" x1="438.9391" y1="458.0429" x2="589.3071" y2="458.0429">
			<stop  offset="0" style="stop-color:#DAEACF"/>
			<stop  offset="0.9988" style="stop-color:#F0F3CF"/>
		</linearGradient>
		<path fill="url(#SVGID_4_)" d="M587.979,695.243c-0.218-0.165-0.435-0.33-0.653-0.495c-0.798-0.927-1.596-1.854-2.394-2.781
			c-0.211-0.155-0.421-0.31-0.632-0.466l0.022,0.013c-0.424-0.174-0.513-0.525-0.492-0.933l0.019-0.003
			c-2.713-0.18-3.904-2.616-5.628-4.091c-6.81-5.829-13.15-12.193-19.26-18.741c-7.348-7.875-14.296-16.106-20.825-24.702
			c-7.797-10.266-14.953-20.945-21.464-32.05c-8.365-14.267-15.475-29.152-21.541-44.546c-5.123-12.997-9.321-26.287-12.73-39.815
			c-2.457-9.75-4.355-19.624-5.904-29.577c-1.395-8.961-2.39-17.96-3.081-26.98c-0.903-11.787-0.847-23.63-0.442-35.433
			c0.299-8.736,1.166-17.48,2.292-26.154c1.969-15.168,4.936-30.156,9.178-44.879c3.29-11.419,7.081-22.665,11.712-33.6
			c4.935-11.655,10.524-23.005,16.808-34.009c4.821-8.441,9.89-16.724,15.437-24.705c6.107-8.785,12.576-17.292,19.456-25.501
			c7.394-8.822,15.243-17.199,23.449-25.256c0.589-0.578,1.385-1.052,1.365-2.05c-0.939,0.004-1.534,0.711-2.215,1.169
			c-10.426,7.018-20.827,14.073-31.234,21.119c-17.547,11.881-34.974,23.928-51.801,36.823c-3.711,2.844-6.683,6.106-8.819,10.413
			c-4.425,8.918-8.81,17.841-12.709,27.004c-6.194,14.555-11.271,29.49-15.324,44.772c-4.65,17.533-8.033,35.294-9.814,53.368
			c-0.852,8.651-1.803,17.296-1.737,25.985c0.077,10.267-0.385,20.533,0.326,30.809c0.356,5.135,0.621,10.297,1.127,15.411
			c0.85,8.614,2.082,17.193,3.578,25.731c2.549,14.548,5.946,28.896,10.326,42.989c6.698,21.552,15.19,42.375,25.885,62.286
			c6.175,11.496,12.834,22.684,20.201,33.453c0.397,0.581,0.824,1.057,1.414,1.475c15.387,10.888,31.537,20.513,48.261,29.187
			c8.843,4.587,17.907,8.712,27.088,12.564c3.963,1.663,7.856,3.567,12.084,4.549c-0.096-0.711-1.051-1.033-0.861-1.874
			C588.118,695.733,587.989,695.547,587.979,695.243z"/>
		<linearGradient id="SVGID_5_" gradientUnits="userSpaceOnUse" x1="588.4463" y1="695.7161" x2="588.4637" y2="695.7161">
			<stop  offset="0" style="stop-color:#DAEACF"/>
			<stop  offset="0.9988" style="stop-color:#F0F3CF"/>
		</linearGradient>
		<path fill="url(#SVGID_5_)" d="M588.448,695.704c-0.001,0.006,0,0.012-0.001,0.018c0.008,0,0.009,0.006,0.017,0.006
			L588.448,695.704z"/>
	</g>
	<path fill="#67B0E1" d="M576.824,215.62c4.438-1.733,8.869-3.482,13.315-5.195c17.588-6.777,35.704-11.665,54.218-15.121
		c2.869-0.535,5.71-1.272,8.649-1.378c-0.493,0.348-0.955,0.756-1.484,1.037c-31.884,16.911-58.443,40.241-81.656,67.628
		c-24.281,28.647-42.646,60.682-55.184,96.067c-0.208,0.586-0.288,1.212-0.949,1.491c0.131-4.083,1.503-7.918,2.475-11.818
		c8.02-32.179,19.648-62.997,35.224-92.289c6.744-12.683,14.148-24.978,22.4-36.75c0.522-0.745,1.217-1.423,1.328-2.405
		c0.001,0.002-0.039-0.131-0.04-0.132c0.39-0.026,0.635-0.237,0.761-0.601C576.194,215.977,576.509,215.799,576.824,215.62z"/>
	<path fill="#34A7DE" d="M1126.07,500.637c-3.098,0.162-6.16-0.086-9.21-0.706c-6.431-1.306-10.607-5.087-12.683-11.243
		c-2.375-7.043-3.621-14.371-5.326-21.581c-2.487-10.519-4.855-21.067-7.276-31.602c-0.086-0.377-0.21-0.746-0.276-1.126
		c-0.839-4.823,0.477-6.45,5.366-6.561c2.01-0.046,4.023-0.049,6.032,0.019c4.373,0.148,6.463,1.593,7.511,5.819
		c1.691,6.818,3.121,13.7,4.638,20.561c1.867,8.445,3.662,16.905,5.585,25.337c0.952,4.175,2.453,5.24,6.455,5.026
		c2.993-0.16,4.18-1.385,5.098-5.557c3.135-14.254,6.227-28.517,9.348-42.774c0.247-1.13,0.57-2.244,0.897-3.355
		c0.979-3.329,3.301-4.936,6.688-5.027c2.55-0.069,5.107-0.111,7.653,0.011c3.746,0.179,5.229,1.954,4.448,5.632
		c-1.651,7.779-3.471,15.523-5.256,23.274c-2.131,9.254-4.298,18.501-6.452,27.75c-0.105,0.451-0.231,0.897-0.361,1.342
		c-2.911,9.933-7.663,13.846-18.012,14.742C1129.326,500.757,1127.693,500.637,1126.07,500.637z"/>
	<path fill="#34A7DE" d="M1058.714,427.737c5.337,0.023,10.674,0.09,16.01,0.038c1.491-0.015,2.908,0.279,4.313,0.603
		c2.491,0.574,3.029,2.754,3.216,4.806c0.222,2.431,0.399,4.901-0.21,7.355c-0.906,3.655-2.437,4.889-6.297,4.876
		c-5.183-0.017-10.367,0.04-15.549-0.04c-1.472-0.023-2.001,0.338-1.988,1.911c0.072,9.05-0.014,18.102,0.053,27.153
		c0.042,5.609,3.11,8.513,8.689,8.624c4.045,0.08,8.01-0.477,11.97-1.179c4.029-0.715,5.251,0.473,5.885,4.516
		c0.37,2.363-0.035,4.594-0.14,6.864c-0.129,2.798-1.828,4.703-4.466,5.651c-3.212,1.154-6.549,1.673-9.955,1.73
		c-4.927,0.083-9.82,0.036-14.623-1.441c-8.152-2.507-12.958-7.982-15.026-16.135c-0.805-3.173-0.978-6.374-0.978-9.61
		c0.002-8.664-0.037-17.329,0.035-25.992c0.013-1.61-0.439-2.102-2.071-2.111c-2.516-0.014-5.077,0.503-7.556-0.364
		c-1.57-0.549-2.595-1.558-2.967-3.239c-0.539-2.436-0.517-4.927-0.148-7.317c0.39-2.527,2.114-4.233,4.725-4.84
		c2.18-0.507,4.349-1.07,6.543-1.511c1.079-0.217,1.47-0.701,1.619-1.821c0.504-3.798,1.099-7.587,1.796-11.354
		c0.735-3.976,2.656-5.56,6.722-5.595c2.072-0.018,4.161-0.265,6.222,0.335c1.889,0.55,2.95,1.635,3.31,3.641
		c0.84,4.687,0.085,9.409,0.475,14.098C1058.299,427.678,1058.412,427.813,1058.714,427.737z"/>
	<path fill="#79B945" d="M589.307,697.596c-0.097-0.717-1.069-1.036-0.859-1.892c1.299,0.461,2.304,1.251,2.863,2.545
		c-0.488-0.072-0.977-0.144-1.466-0.216C589.666,697.888,589.486,697.742,589.307,697.596z"/>
	<path fill="#DBEACE" d="M752.315,101.992c-0.767,0.677-1.534,0.676-2.301,0.001C750.781,101.993,751.548,101.993,752.315,101.992z"
		/>
	<path fill="#DCE7F6" d="M575.88,216.155c-0.125,0.363-0.371,0.574-0.761,0.601C575.142,216.264,575.496,216.191,575.88,216.155z"/>
	<path fill="#DBEACE" d="M573.226,218.487c-0.187,0.003-0.374,0.006-0.562,0.009C572.845,218.088,573.034,218.188,573.226,218.487z"
		/>
	<path fill="#DBEACE" d="M585.201,206.885c-0.156,0.156-0.311,0.311-0.467,0.467C584.89,207.196,585.046,207.041,585.201,206.885z"
		/>
	<path fill="#DBEACE" d="M582.883,209.203c-0.185,0.157-0.369,0.313-0.555,0.47C582.512,209.517,582.698,209.36,582.883,209.203z"/>
	<path fill="#DBEACE" d="M583.346,208.74c-0.157,0.157-0.314,0.314-0.471,0.471C583.032,209.054,583.189,208.897,583.346,208.74z"/>
	<path fill="#DBEACE" d="M584.737,207.349c-0.156,0.156-0.312,0.312-0.467,0.468C584.426,207.661,584.582,207.505,584.737,207.349z"
		/>
	<path fill="#DBEACE" d="M583.81,208.276c-0.156,0.156-0.313,0.313-0.469,0.469C583.497,208.589,583.653,208.433,583.81,208.276z"/>
	<path fill="#DBEACE" d="M584.273,207.813c-0.156,0.156-0.312,0.312-0.469,0.468C583.961,208.125,584.117,207.969,584.273,207.813z"
		/>
	<path fill="#DCE7F6" d="M1058.714,427.737c-0.302,0.076-0.415-0.059-0.391-0.349
		C1058.453,427.504,1058.584,427.621,1058.714,427.737z"/>
	<g>
		<linearGradient id="SVGID_6_" gradientUnits="userSpaceOnUse" x1="472.6935" y1="453.7256" x2="583.8497" y2="453.7256">
			<stop  offset="0" style="stop-color:#DFEBF9"/>
			<stop  offset="0.9988" style="stop-color:#C8C5E4"/>
		</linearGradient>
		<path fill="url(#SVGID_6_)" d="M526.222,582.67c-5.312-15.244-9.73-30.732-13.164-46.505c-0.185-0.847-0.314-1.664-0.188-2.518
			l-0.001,0.04c-0.671-0.331-0.486-0.905-0.412-1.448c-0.532-2.142-1.064-4.284-1.596-6.425c-0.374-0.306-0.395-0.697-0.273-1.124
			c0.04-0.102,0.021-0.193-0.057-0.271c-1.793-4.67-2.668-9.583-3.755-14.435c-2.083-9.296-3.627-18.682-4.709-28.154
			c-0.97-8.491-1.574-16.987-1.93-25.528c-0.189-4.549-0.508-9.112-0.253-13.633c0.467-8.284,0.746-16.576,1.645-24.849
			c1.505-13.864,4.024-27.507,7.572-40.972c0.502-1.906,0.715-3.934,1.867-5.634c0.85-3.252,1.668-6.513,2.583-9.747
			c0.129-0.456,0.149-0.875,0.18-1.317c0.13-4.083,1.503-7.918,2.474-11.817c8.019-32.179,19.647-62.997,35.224-92.289
			c6.744-12.683,14.148-24.978,22.4-36.75c0.522-0.745,1.217-1.423,1.328-2.405c-1.229-0.175-1.071,1.329-1.933,1.599
			c-0.186,0.003-0.372,0.006-0.557,0.009c0.015,0.993-0.776,1.467-1.364,2.044c-8.206,8.058-16.055,16.434-23.449,25.256
			c-6.88,8.208-13.349,16.715-19.456,25.501c-5.547,7.98-10.616,16.263-15.437,24.705c-6.284,11.003-11.873,22.353-16.808,34.009
			c-4.631,10.935-8.422,22.182-11.712,33.6c-4.242,14.723-7.208,29.711-9.178,44.879c-1.126,8.674-1.993,17.418-2.292,26.154
			c-0.404,11.803-0.46,23.646,0.442,35.433c0.691,9.02,1.686,18.019,3.081,26.98c1.549,9.952,3.448,19.827,5.904,29.577
			c3.409,13.528,7.608,26.818,12.73,39.815c6.067,15.394,13.176,30.279,21.541,44.546c6.511,11.104,13.666,21.783,21.464,32.05
			c6.528,8.596,13.476,16.827,20.825,24.702c6.11,6.548,12.45,12.912,19.26,18.741c1.724,1.475,2.915,3.91,5.628,4.091
			c-4.477-6.385-9.074-12.689-13.409-19.168C551.916,643.721,537.186,614.136,526.222,582.67z"/>
		<linearGradient id="SVGID_7_" gradientUnits="userSpaceOnUse" x1="572.6646" y1="218.4927" x2="572.6697" y2="218.4927">
			<stop  offset="0" style="stop-color:#DFEBF9"/>
			<stop  offset="0.9988" style="stop-color:#C8C5E4"/>
		</linearGradient>
		<polygon fill="url(#SVGID_7_)" points="572.665,218.496 572.669,218.496 572.67,218.49 		"/>
		<linearGradient id="SVGID_8_" gradientUnits="userSpaceOnUse" x1="576.8239" y1="247.2393" x2="1092.1161" y2="247.2393">
			<stop  offset="0" style="stop-color:#DFEBF9"/>
			<stop  offset="0.9988" style="stop-color:#C8C5E4"/>
		</linearGradient>
		<path fill="url(#SVGID_8_)" d="M1073.917,313.078c-6.924-14.506-15.035-28.345-24.135-41.615
			c-10.799-15.745-22.88-30.414-36.243-44.036c-2.702-2.754-5.627-5.292-8.351-8.008c-6.677-6.659-13.835-12.762-21.182-18.624
			c-11.462-9.146-23.634-17.274-36.337-24.636c-17.626-10.215-36.074-18.587-55.308-25.232c-11.065-3.823-22.322-7.015-33.773-9.487
			c-6.904-1.49-13.793-3.073-20.849-3.718c-4.336-1.043-8.778-1.342-13.176-1.958c-10.456-1.463-20.99-1.543-31.491-2.189
			c-7.173-0.441-14.331,0.458-21.505,0.535c-2.663,0.028-5.374,0.23-8.054,0.457c-4.508,0.383-9.008,0.86-13.512,1.298
			c-4.088,0.621-8.181,1.211-12.264,1.87c-12.836,2.072-25.518,4.86-38.014,8.457c-11.567,3.329-22.907,7.326-34.008,11.977
			c-12.044,5.046-23.748,10.776-35.055,17.334c-11.888,6.894-23.302,14.473-34.12,22.945c-3.088,2.418-6.112,4.919-9.13,7.424
			c-0.669,0.555-1.243,1.174-2.212,1.013l0.003,0c-0.156,0.156-0.312,0.312-0.468,0.467l0.003-0.003
			c-0.154,0.154-0.309,0.309-0.464,0.464c-0.156,0.156-0.312,0.312-0.468,0.468l0.005-0.005c-0.154,0.154-0.309,0.309-0.464,0.464
			c-0.155,0.155-0.311,0.31-0.466,0.466c-0.184,0.156-0.367,0.312-0.552,0.467c-1.918,1.906-4.208,3.466-5.504,5.947
			c4.438-1.733,8.869-3.482,13.314-5.195c17.588-6.777,35.704-11.665,54.218-15.121c2.869-0.536,5.71-1.272,8.648-1.378
			c0.607-0.18,1.214-0.361,1.82-0.541c7.925-4.505,16.259-8.139,24.709-11.517c13.747-5.496,27.837-9.908,42.289-13.126
			c9.589-2.135,19.229-3.974,29.01-5.074c7.717-0.867,15.439-1.448,23.191-1.919c7.878-0.479,15.749-0.492,23.596-0.226
			c7.274,0.247,14.566,0.681,21.818,1.624c4.865,0.633,9.747,1.149,14.593,1.942c10.202,1.475,20.255,3.673,30.217,6.301
			c15.983,4.218,31.506,9.716,46.577,16.526c20.342,9.19,39.338,20.609,57.002,34.235c11.753,9.067,22.664,19.104,32.736,29.985
			c14.285,15.432,26.713,32.281,37.113,50.585c1.35,2.375,3.194,4.514,3.757,7.3c0.403,0.042,0.417,0.19,0.097,0.429
			c2.582,2.264,5.169,4.52,7.743,6.792c14.211,12.54,27.079,26.312,38.205,41.678c0.43,0.594,1.125,1.126,0.825,2.035
			c1.32,0.324,2.508-0.603,3.814-0.403C1087.496,344.173,1081.235,328.41,1073.917,313.078z"/>
		<linearGradient id="SVGID_9_" gradientUnits="userSpaceOnUse" x1="1041.4115" y1="310.0377" x2="1041.4408" y2="310.0377">
			<stop  offset="0" style="stop-color:#DFEBF9"/>
			<stop  offset="0.9988" style="stop-color:#C8C5E4"/>
		</linearGradient>
		<path fill="url(#SVGID_9_)" d="M1041.441,310.058c-0.003-0.012-0.007-0.024-0.01-0.036c-0.008-0.001-0.011-0.003-0.02-0.004
			C1041.411,310.018,1041.44,310.059,1041.441,310.058z"/>
		<linearGradient id="SVGID_10_" gradientUnits="userSpaceOnUse" x1="594.5795" y1="654.8719" x2="1090.257" y2="654.8719">
			<stop  offset="0" style="stop-color:#DFEBF9"/>
			<stop  offset="0.9988" style="stop-color:#C8C5E4"/>
		</linearGradient>
		<path fill="url(#SVGID_10_)" d="M1068.256,563.76c-8.164,8.84-17.147,16.812-26.183,24.73c-0.056,2.579-1.824,4.435-2.962,6.485
			c-5.956,10.721-12.569,21.044-20.004,30.801c-6.067,7.962-12.538,15.59-19.345,22.957c-5.145,5.568-10.596,10.795-16.155,15.906
			c-7.711,7.088-15.912,13.611-24.413,19.731c-15.134,10.895-31.214,20.211-48.138,28.012c-18.31,8.439-37.316,14.93-56.956,19.547
			c-6.805,1.6-13.665,2.906-20.534,4.182v0c-5.177,0.661-10.349,1.359-15.531,1.97c-4.04,0.476-8.085,0.959-12.142,1.235
			c-10.951,0.745-21.927,0.71-32.884,0.403c-6.897-0.194-13.788-0.938-20.67-1.673c-12.481-1.334-24.769-3.636-36.945-6.586
			c-10.865-2.633-21.5-6.044-31.995-9.889c-0.424-0.156-0.799-0.446-1.197-0.674c-0.772-0.205-1.544-0.409-2.317-0.614
			c-6.621-0.381-13.107-1.726-19.606-2.892c-20.72-3.718-40.996-9.148-60.872-16.083c-1.588-0.554-3.077-1.467-4.828-1.511
			c0.119,0.764,0.704,1.202,1.249,1.601c4.902,3.592,9.755,7.258,14.754,10.712c16.539,11.43,34.034,21.134,52.514,29.086
			c13.397,5.765,27.101,10.629,41.178,14.408c16.71,4.485,33.646,7.698,50.898,9.385c9.427,0.922,18.865,1.32,28.308,1.702
			c9.325,0.377,18.633-0.551,27.946-0.938c3.897-0.162,7.775-0.833,11.659-1.287c4.115-0.481,8.229-0.98,12.342-1.471
			c3.706-0.637,7.428-1.193,11.115-1.922c17.388-3.439,34.47-7.929,51.096-14.189c21.244-7.998,41.417-18.072,60.531-30.278
			c16.601-10.601,31.964-22.812,46.402-36.191c7.808-7.236,14.881-15.187,21.989-23.091c4.58-5.091,8.801-10.494,12.941-15.956
			c9.982-13.173,18.955-26.984,26.804-41.54c4.182-7.755,8.039-15.658,11.57-23.721c4.735-10.811,8.936-21.826,12.382-33.122
			c-1.535-0.005-3.071-0.01-4.607-0.015C1080.293,550.267,1074.394,557.114,1068.256,563.76z"/>
	</g>
	<path fill="#67B0E1" d="M679.886,720.281c-6.621-0.381-13.106-1.725-19.606-2.891c-20.72-3.718-40.996-9.148-60.873-16.083
		c-1.588-0.554-3.077-1.467-4.828-1.511c0-0.001-0.052,0.052-0.052,0.052c-0.179-0.425-0.571-0.448-0.947-0.5
		c-0.757-0.367-1.514-0.733-2.271-1.098c-0.558-1.292-1.564-2.083-2.862-2.544l0.016,0.024c-0.012-0.312-0.194-0.456-0.487-0.491
		l0.028,0.026c-0.094-0.347-0.362-0.463-0.679-0.515c-0.798-0.927-1.596-1.854-2.396-2.782c-0.211-0.155-0.421-0.31-0.63-0.465
		l0.022,0.013c0.045-0.421-0.1-0.742-0.491-0.933l0.019-0.002c-4.476-6.385-9.073-12.689-13.408-19.169
		c-18.525-27.687-33.255-57.272-44.219-88.739c-5.312-15.245-9.73-30.732-13.164-46.505c-0.184-0.847-0.313-1.664-0.188-2.518
		c0.126,0.274,0.285,0.538,0.373,0.824c5.698,18.471,13.022,36.271,22.109,53.333c23.134,43.436,54.661,79.362,95.674,106.782
		C646.407,704.87,662.814,713.208,679.886,720.281z"/>
	<path fill="#DCE7F6" d="M593.581,699.346c0.376,0.053,0.768,0.075,0.947,0.5C594.104,699.885,593.743,699.803,593.581,699.346z"/>
	<path fill="#FDE8C9" d="M654.824,193.386c7.925-4.505,16.259-8.139,24.708-11.517c13.747-5.496,27.838-9.909,42.289-13.126
		c9.589-2.135,19.229-3.974,29.01-5.074c7.717-0.868,15.44-1.448,23.191-1.919c7.878-0.479,15.748-0.492,23.596-0.226
		c7.273,0.246,14.566,0.681,21.818,1.624c4.866,0.633,9.747,1.15,14.592,1.943c10.203,1.474,20.255,3.673,30.217,6.301
		c15.983,4.218,31.506,9.717,46.578,16.526c20.342,9.191,39.338,20.609,57.001,34.235c11.753,9.067,22.664,19.104,32.736,29.985
		c14.285,15.431,26.713,32.281,37.113,50.585c1.355,2.386,3.212,4.532,3.766,7.335c-2.733-1.322-4.802-3.538-7.153-5.366
		c-11.919-9.266-24.284-17.884-37.208-25.686c-6.975-4.21-14.027-8.292-21.251-12.067c-1-0.523-2.011-1.023-3.017-1.534
		c-0.174-0.407-0.527-0.478-0.913-0.487l0.003,0.004c-0.159-0.154-0.318-0.308-0.477-0.462l0.006,0.006
		c-0.591-2.344-2.919-3.048-4.355-4.595c-4.314-4.647-9.222-8.66-14.122-12.64c-12.775-10.377-26.469-19.405-41.007-27.13
		c-12.562-6.674-25.669-12.12-39.115-16.703c-7.498-2.556-15.156-4.619-22.874-6.489c-16.563-4.013-33.373-6.257-50.345-7.09
		c-10.248-0.503-20.541-0.233-30.804,0.372c-0.482,0.028-0.919,0.108-1.207,0.544c-1.789-0.016-3.578-0.032-5.368-0.049
		c-5.717-1.04-11.522-0.989-17.288-1.318c-11.881-0.679-23.782-0.793-35.68-0.553c-4.851,0.098-9.696,0.476-14.543,0.727
		c-7.923,0.177-15.801,0.929-23.664,1.875C665.647,192.066,660.236,192.729,654.824,193.386z"/>
	<path fill="#FDE8C9" d="M827.765,711.629c2.961-0.684,5.921-1.368,8.883-2.051c0.594,0.055,1.202,0.161,1.603-0.458
		c0,0,0.193-0.01,0.194-0.01c2.596,0.195,4.988-0.77,7.459-1.294c18.613-3.944,36.453-10.2,53.674-18.213
		c15.416-7.173,29.945-15.888,43.61-26.009c1.975-1.463,4.409-2.524,5.485-5.01l0.029-0.023c0.682,0.039,1.34,0.042,1.363-0.908
		l0.027-0.021c0.399,0.018,0.735-0.078,0.89-0.497l-0.009,0.019c0.16-0.156,0.32-0.311,0.479-0.466
		c2.639-1.944,5.278-3.889,7.917-5.834c0.297-0.217,0.593-0.433,0.889-0.649l0.026-0.021c0.154-0.141,0.309-0.283,0.463-0.424
		l0.014-0.013c0.525-0.079,0.996-0.215,0.941-0.901l0.001-0.002c0.377,0.07,0.599-0.017,0.467-0.461l-0.004,0.004
		c1.027,0.359,1.542-0.517,2.177-0.976c6.076-4.381,12.006-8.956,17.761-13.75c4.73-3.941,9.588-7.743,13.86-12.207
		c2.185-1.982,4.828-3.279,7.28-4.859c6.907-4.447,13.618-9.167,20.313-13.93c6.347-4.515,12.357-9.434,18.516-14.175
		c-0.056,2.578-1.823,4.435-2.962,6.485c-5.956,10.721-12.569,21.044-20.004,30.801c-6.067,7.962-12.538,15.59-19.345,22.957
		c-5.145,5.569-10.596,10.795-16.155,15.906c-7.71,7.088-15.912,13.611-24.413,19.731c-15.134,10.895-31.215,20.212-48.138,28.012
		c-18.309,8.439-37.315,14.931-56.956,19.547c-6.805,1.6-13.665,2.905-20.534,4.182c-5.176,0.661-10.349,1.359-15.531,1.97
		c-4.04,0.476-8.085,0.959-12.142,1.235c-10.951,0.745-21.927,0.71-32.883,0.403c-6.898-0.193-13.788-0.937-20.67-1.673
		c-12.482-1.334-24.769-3.636-36.945-6.586c-10.865-2.632-21.5-6.044-31.995-9.889c-0.424-0.156-0.799-0.446-1.197-0.674
		c0.692,0.022,1.389-0.001,2.076,0.072c8.033,0.851,16.04,1.883,24.132,2.203c14.976,0.592,29.941,0.828,44.915-0.014
		c13.502-0.76,26.931-2.191,40.274-4.356C805.094,716.936,816.524,714.72,827.765,711.629z"/>
	<path fill="#DBEACE" d="M957.669,257.379c-7.232-5.307-14.92-9.905-22.672-14.384c-33.868-19.569-69.802-33.96-107.922-42.822
		c-10.884-2.53-21.845-4.7-32.914-6.229c-8.461-1.169-16.925-2.381-25.464-2.898c-0.37-0.022-0.73-0.205-1.095-0.313
		c0.287-0.437,0.725-0.516,1.206-0.544c10.263-0.605,20.556-0.875,30.804-0.372c16.971,0.833,33.782,3.078,50.345,7.09
		c7.718,1.87,15.376,3.933,22.874,6.489c13.446,4.583,26.552,10.029,39.115,16.703c14.538,7.724,28.232,16.753,41.007,27.13
		c4.9,3.98,9.808,7.993,14.122,12.64c1.436,1.547,3.764,2.252,4.355,4.595C966.745,262.293,961.977,260.283,957.669,257.379z"/>
	<path fill="#79B945" d="M979.367,630.89c-0.383,0.403-0.597,1.11-1.391,0.777C978.195,630.971,978.736,630.85,979.367,630.89z"/>
	<path fill="#DBEACE" d="M971.898,264.917c0.386,0.009,0.739,0.081,0.913,0.487C972.475,265.303,972.006,265.448,971.898,264.917z"
		/>
	<path fill="#DBEACE" d="M971.423,264.459c0.159,0.154,0.318,0.308,0.477,0.462C971.742,264.767,971.583,264.613,971.423,264.459z"
		/>
	<path fill="#FDE8C9" d="M1041.411,310.018c0.429,0.038,0.443,0.189,0.118,0.433c-0.056-0.088-0.124-0.171-0.162-0.266
		C1041.35,310.141,1041.395,310.074,1041.411,310.018z"/>
	<path fill="#DCE7F6" d="M583.83,690.58c0.391,0.191,0.536,0.512,0.491,0.933C583.898,691.339,583.809,690.988,583.83,690.58z"/>
	<path fill="#DCE7F6" d="M584.3,691.5c0.21,0.155,0.419,0.31,0.63,0.465C584.721,691.811,584.51,691.656,584.3,691.5z"/>
	<path fill="#79B945" d="M587.326,694.747c0.317,0.052,0.586,0.168,0.679,0.515C587.779,695.091,587.552,694.919,587.326,694.747z"
		/>
	<path fill="#79B945" d="M587.977,695.237c0.292,0.035,0.474,0.179,0.487,0.491C588.115,695.749,587.985,695.553,587.977,695.237z"
		/>
	<path fill="#FDE8C9" d="M510.968,371.213c-0.812,5.325-1.604,10.654-2.439,15.975c-1.459,9.293-2.437,18.636-3.278,28.005
		c-1.494,16.64-1.739,33.31-1.155,49.979c0.669,19.121,2.695,38.121,6.223,56.944c0.141,0.754,0.144,1.534,0.211,2.303
		c-1.793-4.67-2.667-9.583-3.754-14.434c-2.083-9.296-3.627-18.682-4.709-28.154c-0.97-8.491-1.574-16.987-1.93-25.528
		c-0.189-4.549-0.508-9.113-0.253-13.633c0.467-8.284,0.747-16.576,1.645-24.849c1.506-13.864,4.024-27.506,7.572-40.972
		C509.603,374.941,509.816,372.914,510.968,371.213z"/>
	<path fill="#67B0E1" d="M512.455,532.239c0.137,0.483,0.274,0.965,0.412,1.448C512.197,533.357,512.382,532.782,512.455,532.239z"
		/>
	<path fill="#FDE8C9" d="M510.586,524.691c0.338,0.315,0.364,0.705,0.274,1.124C510.486,525.508,510.465,525.117,510.586,524.691z"
		/>
	<g>
		<linearGradient id="SVGID_11_" gradientUnits="userSpaceOnUse" x1="962.1666" y1="634.9612" x2="995.9647" y2="634.9612">
			<stop  offset="0" style="stop-color:#FFED00"/>
			<stop  offset="0.9988" style="stop-color:#F7A601"/>
		</linearGradient>
		<path fill="url(#SVGID_11_)" d="M992.214,623.404c-4.323,2.424-8.571,4.98-12.847,7.486c-0.383,0.403-0.597,1.109-1.392,0.777
			c0,0,0.021,0.086,0.02,0.086c-0.358,1.67-1.709,2.631-2.797,3.728c-4.304,4.341-8.681,8.61-13.031,12.905
			c1.027,0.359,1.541-0.517,2.177-0.976c6.076-4.381,12.006-8.956,17.761-13.75c4.73-3.941,9.588-7.743,13.86-12.207
			C994.36,621.408,993.436,622.719,992.214,623.404z"/>
		<linearGradient id="SVGID_12_" gradientUnits="userSpaceOnUse" x1="503.8035" y1="456.2015" x2="827.7665" y2="456.2015">
			<stop  offset="0" style="stop-color:#FFED00"/>
			<stop  offset="0.9988" style="stop-color:#F7A601"/>
		</linearGradient>
		<path fill="url(#SVGID_12_)" d="M819.788,712.434c-12.59,1.126-25.169,2.212-37.858,1.544c-8.165-0.43-16.3-0.947-24.418-1.927
			c-14.638-1.766-28.968-4.911-43.044-9.259c-16.189-5-31.718-11.565-46.612-19.637c-12.126-6.497-23.504-14.122-34.437-22.464
			c-10.931-8.339-21.251-17.358-30.796-27.235c-9.865-10.208-18.809-21.188-26.966-32.824c-9.247-13.188-17.21-27.106-23.966-41.701
			c-7.989-17.256-13.993-35.188-18.105-53.78c-2.211-9.996-3.773-20.079-4.941-30.221c-1.283-11.132-1.109-22.339-0.992-33.528
			c0.125-11.87,1.612-23.594,3.574-35.288c1.902-11.338,4.771-22.424,8.263-33.346c2.89-9.037,6.536-17.801,10.383-26.475
			c6.274-14.149,13.777-27.626,22.363-40.489c4.833-7.241,10.06-14.208,15.564-20.958c8.209-10.066,17.202-19.406,26.547-28.403
			c7.728-7.441,16.065-14.17,24.817-20.371c8.697-6.161,17.68-11.869,27.217-16.663c0.525-0.304,1.041-0.625,1.577-0.908
			c8.684-4.601,17.714-8.433,26.834-12.065c0.844-0.323,1.674-0.687,2.534-0.962c5.854-1.871,11.687-3.819,17.578-5.563
			c12.384-3.666,25.002-6.248,37.818-7.866c3.177-0.401,6.341-0.903,9.509-1.359c-5.716-1.04-11.522-0.989-17.288-1.318
			c-11.881-0.679-23.782-0.793-35.68-0.553c-4.851,0.098-9.696,0.476-14.544,0.727c-7.923,0.176-15.801,0.929-23.663,1.874
			c-5.412,0.651-10.823,1.313-16.234,1.97c-0.606,0.18-1.213,0.361-1.82,0.541c-0.493,0.349-0.955,0.757-1.484,1.037
			c-31.884,16.911-58.443,40.241-81.656,67.628c-24.281,28.647-42.646,60.682-55.184,96.067c-0.208,0.586-0.288,1.212-0.949,1.491
			c-0.032,0.442-0.051,0.861-0.18,1.317c-0.915,3.234-1.734,6.495-2.583,9.747c-0.811,5.325-1.604,10.654-2.439,15.975
			c-1.459,9.293-2.437,18.636-3.279,28.005c-1.494,16.64-1.738,33.31-1.155,49.979c0.669,19.121,2.695,38.121,6.223,56.944
			c0.142,0.754,0.144,1.535,0.212,2.303c0.077,0.078,0.096,0.169,0.057,0.271c0.338,0.314,0.364,0.705,0.273,1.124
			c0.532,2.142,1.064,4.283,1.596,6.425c0.137,0.483,0.274,0.965,0.412,1.448c0,0,0.002-0.04,0.002-0.04
			c0.126,0.275,0.285,0.538,0.373,0.824c5.698,18.471,13.022,36.271,22.11,53.333c23.134,43.436,54.661,79.362,95.674,106.782
			c15.381,10.284,31.789,18.622,48.861,25.694c0.773,0.205,1.545,0.41,2.317,0.614c0.692,0.022,1.389-0.001,2.076,0.072
			c8.033,0.851,16.04,1.883,24.132,2.203c14.976,0.592,29.941,0.829,44.915-0.014c13.502-0.76,26.931-2.191,40.274-4.356
			c11.494-1.865,22.924-4.08,34.166-7.172C825.046,711.318,822.447,712.197,819.788,712.434z"/>
	</g>
	<linearGradient id="SVGID_13_" gradientUnits="userSpaceOnUse" x1="527.574" y1="452.4342" x2="977.9951" y2="452.4342">
		<stop  offset="0" style="stop-color:#D3D800"/>
		<stop  offset="0.9988" style="stop-color:#019F61"/>
	</linearGradient>
	<path fill="url(#SVGID_13_)" d="M976.073,632.367c-7.573,3.747-15.024,7.738-22.741,11.194c-7.375,3.303-14.726,6.656-22.339,9.391
		c-8.331,3.473-16.867,6.372-25.445,9.17c-12.389,4.041-24.9,7.608-37.665,10.261c-17.718,4.011-35.621,6.717-53.778,7.63
		c-0.616,0.031-1.236-0.008-1.854-0.014c-2.108,0.632-4.277,0.325-6.418,0.385c-20.281,0.57-40.337-1.296-60.165-5.602
		c-0.289-0.063-0.552-0.243-0.827-0.368c-7.025-1.155-13.796-3.299-20.581-5.359c-10.301-3.128-20.364-6.97-30.076-11.563
		c-9.073-4.292-17.901-9.135-26.384-14.549c-11.917-7.548-23.15-16.018-33.498-25.594c-14.186-13.127-26.815-27.61-37.452-43.807
		c-10.762-16.388-19.345-33.822-25.61-52.388c-3.697-10.956-6.469-22.142-8.449-33.552c-1.592-9.17-2.723-18.393-3.026-27.655
		c-0.467-14.244-0.075-28.475,2.152-42.626c1.68-10.675,3.881-21.205,6.953-31.561c5.106-17.215,12.25-33.539,21.263-49.065
		c8.758-15.087,19.153-28.943,31.071-41.665c13.649-14.571,28.921-27.2,45.68-38.04c7.815-4.655,15.613-9.346,23.822-13.287
		c16.913-8.119,34.489-14.377,52.78-18.592c0.597-0.138,1.222-0.153,1.834-0.225c5.932-1.743,12.042-2.608,18.132-3.473
		c13.081-1.858,26.237-2.737,39.458-2.463c0.462,0.01,0.925,0.059,1.386,0.09c8.187-0.119,16.331,0.633,24.452,1.466
		c9.963,1.021,19.874,2.501,29.694,4.508c3.349,0.684,6.672,1.493,10.007,2.244c0.608,0.082,1.227,0.119,1.824,0.253
		c16.176,3.651,32.062,8.307,47.651,13.949c9.267,3.354,18.512,6.786,27.452,10.97c1.346,0.553,2.664,1.189,4.043,1.64
		c2.823,0.924,5.168,3.03,8.245,3.307c-7.232-5.307-14.92-9.905-22.672-14.384c-33.869-19.569-69.803-33.96-107.922-42.822
		c-10.884-2.53-21.845-4.7-32.914-6.229c-8.461-1.169-16.925-2.381-25.464-2.898c-0.37-0.022-0.73-0.205-1.095-0.313
		c-1.789-0.016-3.578-0.032-5.367-0.048c-3.17,0.456-6.333,0.958-9.511,1.359c-12.816,1.619-25.434,4.2-37.818,7.866
		c-5.892,1.744-11.724,3.691-17.578,5.563c-0.859,0.275-1.69,0.639-2.534,0.962c-9.12,3.632-18.15,7.464-26.834,12.065
		c-0.536,0.284-1.052,0.605-1.577,0.908v0c-9.538,4.793-18.52,10.501-27.217,16.662c-8.752,6.2-17.088,12.93-24.817,20.371
		c-9.346,8.998-18.339,18.338-26.547,28.403c-5.504,6.75-10.731,13.717-15.564,20.958c-8.586,12.863-16.089,26.341-22.363,40.489
		c-3.847,8.674-7.493,17.438-10.383,26.475c-3.492,10.922-6.361,22.008-8.263,33.346c-1.962,11.694-3.449,23.419-3.574,35.288
		c-0.118,11.19-0.291,22.396,0.992,33.528c1.168,10.141,2.73,20.224,4.941,30.221c4.112,18.592,10.116,36.524,18.105,53.78
		c6.756,14.595,14.72,28.513,23.966,41.701c8.157,11.636,17.101,22.615,26.966,32.824c9.545,9.878,19.865,18.896,30.796,27.235
		c10.933,8.342,22.312,15.968,34.437,22.464c14.894,8.072,30.424,14.637,46.612,19.637c14.076,4.348,28.406,7.493,43.044,9.259
		c8.118,0.979,16.253,1.497,24.418,1.927c12.689,0.668,25.268-0.418,37.858-1.544c2.659-0.238,5.258-1.117,7.978-0.806
		c2.959-0.684,5.919-1.367,8.88-2.051c0.45-0.45,1.029-0.446,1.604-0.458l0.193-0.009c3.905-1.687,8.077-2.538,12.096-3.877
		c11.125-3.707,22.13-7.697,32.96-12.228c13.477-5.639,26.581-11.994,39.358-19.051c8.171-4.513,16.166-9.319,24.001-14.393
		c0.575-0.372,1.209-0.653,1.815-0.976l0.029-0.023c0.292-0.547,0.767-0.817,1.362-0.909l0.028-0.021
		c0.167-0.397,0.493-0.509,0.889-0.497l-0.009,0.019c0.16-0.156,0.32-0.311,0.479-0.467c2.639-1.944,5.278-3.888,7.916-5.833
		c0.126-0.451,0.441-0.642,0.89-0.651l0.026-0.021c0.154-0.141,0.309-0.283,0.463-0.424l0.014-0.013
		c0.028-0.599,0.379-0.859,0.941-0.901l0.001-0.002c0.155-0.154,0.311-0.308,0.467-0.461l-0.004,0.004
		c4.35-4.296,8.727-8.564,13.031-12.906c1.088-1.097,2.439-2.057,2.797-3.728C977.224,631.544,976.677,632.068,976.073,632.367z"/>
	<path fill="#DBEACE" d="M948.673,658.585c-1.077,2.486-3.511,3.547-5.485,5.01c-13.665,10.121-28.194,18.836-43.61,26.009
		c-17.221,8.013-35.061,14.268-53.674,18.213c-2.471,0.523-4.863,1.489-7.459,1.294c3.904-1.687,8.077-2.538,12.095-3.877
		c11.125-3.707,22.13-7.697,32.96-12.228c13.477-5.639,26.581-11.994,39.359-19.051c8.171-4.513,16.166-9.319,24.001-14.393
		C947.433,659.189,948.067,658.908,948.673,658.585z"/>
	<path fill="#DBEACE" d="M950.065,657.654c-0.022,0.951-0.681,0.947-1.363,0.908C948.994,658.016,949.47,657.745,950.065,657.654z"
		/>
	<path fill="#C2D10C" d="M961.703,648.846c0.055,0.685-0.415,0.822-0.941,0.901C960.79,649.147,961.142,648.887,961.703,648.846z"/>
	<path fill="#DBEACE" d="M838.251,709.12c-0.401,0.619-1.009,0.512-1.603,0.458C837.097,709.128,837.676,709.131,838.251,709.12z"/>
	<path fill="#DBEACE" d="M950.982,657.136c-0.155,0.419-0.491,0.515-0.89,0.497C950.26,657.236,950.586,657.124,950.982,657.136z"/>
	<path fill="#C2D10C" d="M960.258,650.205c-0.296,0.216-0.593,0.432-0.889,0.649C959.494,650.405,959.809,650.214,960.258,650.205z"
		/>
	<path fill="#DBEACE" d="M951.453,656.688c-0.16,0.155-0.32,0.311-0.479,0.466C951.133,656.999,951.293,656.844,951.453,656.688z"/>
	<path fill="#C2D10C" d="M960.748,649.759c-0.154,0.141-0.309,0.283-0.463,0.424C960.439,650.042,960.594,649.901,960.748,649.759z"
		/>
	<path fill="#C2D10C" d="M962.17,648.382c0.132,0.445-0.09,0.532-0.467,0.461C961.859,648.69,962.015,648.536,962.17,648.382z"/>
	<g>
		<linearGradient id="SVGID_14_" gradientUnits="userSpaceOnUse" x1="971.8983" y1="264.9194" x2="971.9011" y2="264.9194">
			<stop  offset="0" style="stop-color:#82368C"/>
			<stop  offset="0.9988" style="stop-color:#E71D73"/>
		</linearGradient>
		<polygon fill="url(#SVGID_14_)" points="971.898,264.917 971.899,264.92 971.901,264.922 		"/>
		<linearGradient id="SVGID_15_" gradientUnits="userSpaceOnUse" x1="1088.3748" y1="449.6932" x2="559.5936" y2="449.6932">
			<stop  offset="0" style="stop-color:#82368C"/>
			<stop  offset="0.9988" style="stop-color:#E71D73"/>
		</linearGradient>
		<path fill="url(#SVGID_15_)" d="M1049.556,372.887c11.894-7.101,24.857-11.116,38.745-11.933c0.3-0.909-0.395-1.441-0.825-2.035
			c-11.127-15.366-23.995-29.138-38.205-41.678c-2.574-2.271-5.161-4.528-7.743-6.792c-0.056-0.088-0.125-0.171-0.162-0.266
			c-0.015-0.038,0.02-0.095,0.039-0.146c-2.714-1.325-4.778-3.527-7.118-5.347c-11.919-9.266-24.284-17.884-37.208-25.686
			c-6.975-4.21-14.027-8.292-21.251-12.067c-1-0.523-2.011-1.023-3.017-1.534c-0.336-0.102-0.802,0.042-0.912-0.484
			c-0.156-0.152-0.313-0.303-0.469-0.455c-0.002-0.002-0.004-0.004-0.007-0.006l0.006,0.006c-4.684-2.172-9.453-4.182-13.761-7.085
			c-3.077-0.278-5.422-2.383-8.245-3.307c-1.378-0.451-2.697-1.088-4.043-1.64c-0.144,0.6-0.249,1.201-0.319,1.808
			c0.07-0.607,0.176-1.208,0.319-1.809c-8.94-4.183-18.184-7.615-27.452-10.97c-15.589-5.642-31.476-10.299-47.651-13.949
			c-0.597-0.135-1.216-0.171-1.824-0.254c0,0,0,0,0,0c-3.335-0.751-6.658-1.56-10.007-2.244c-9.82-2.007-19.731-3.487-29.694-4.508
			c-8.121-0.833-16.265-1.585-24.452-1.466c-0.462-0.031-0.924-0.081-1.386-0.09c-13.221-0.273-26.378,0.606-39.458,2.463
			c-6.091,0.865-12.201,1.73-18.132,3.474c-0.612,0.072-1.237,0.086-1.834,0.224c-18.291,4.215-35.867,10.473-52.78,18.592
			c-8.21,3.941-16.007,8.632-23.822,13.287c-16.759,10.84-32.031,23.469-45.68,38.04c-11.918,12.722-22.313,26.577-31.071,41.665
			c-9.013,15.526-16.157,31.85-21.263,49.065c-3.072,10.356-5.272,20.886-6.953,31.561c-2.227,14.151-2.619,28.382-2.152,42.626
			c0.303,9.262,1.434,18.485,3.026,27.655c1.981,11.41,4.753,22.597,8.449,33.552c6.265,18.566,14.848,36,25.61,52.388
			c10.636,16.197,23.266,30.68,37.452,43.807c10.347,9.575,21.581,18.046,33.498,25.594c8.483,5.414,17.31,10.257,26.384,14.549
			c9.711,4.593,19.775,8.435,30.076,11.563c6.785,2.061,13.556,4.205,20.581,5.359c0.275,0.125,0.538,0.305,0.827,0.368
			c19.827,4.306,39.884,6.172,60.165,5.602c2.141-0.06,4.31,0.246,6.418-0.385c0.618,0.006,1.238,0.045,1.854,0.014
			c18.157-0.912,36.06-3.618,53.778-7.63c12.764-2.653,25.275-6.22,37.664-10.261c8.578-2.798,17.114-5.697,25.445-9.17v0
			c7.612-2.736,14.964-6.088,22.339-9.391c7.718-3.457,15.169-7.447,22.741-11.194c0.604-0.299,1.151-0.823,1.923-0.614
			l-0.021-0.086c0.22-0.697,0.76-0.817,1.392-0.777c4.276-2.506,8.525-5.062,12.847-7.486c1.222-0.685,2.145-1.996,3.75-1.951
			c2.185-1.982,4.828-3.279,7.28-4.858c6.907-4.447,13.618-9.167,20.313-13.93c6.348-4.515,12.357-9.434,18.516-14.175
			c9.036-7.918,18.019-15.891,26.183-24.73c6.138-6.646,12.036-13.493,17.394-20.792c-1.509-0.278-3.012-0.586-4.526-0.83
			c-23.525-3.794-42.779-15.055-57.484-33.705c-16.39-20.789-22.757-44.597-18.557-70.693
			C1009.658,409.317,1024.825,387.651,1049.556,372.887z M746.109,471.387c-0.038-1.157-0.093-2.313-0.138-3.47
			C746.016,469.073,746.071,470.23,746.109,471.387c0.305,2.977,0.717,5.926,1.298,8.833
			C746.826,477.313,746.414,474.363,746.109,471.387z"/>
		<linearGradient id="SVGID_16_" gradientUnits="userSpaceOnUse" x1="1041.4058" y1="310.0381" x2="1041.4398" y2="310.0381">
			<stop  offset="0" style="stop-color:#82368C"/>
			<stop  offset="0.9988" style="stop-color:#E71D73"/>
		</linearGradient>
		<path fill="url(#SVGID_16_)" d="M1041.411,310.018c-0.002,0.007-0.003,0.013-0.006,0.021c0.012,0.006,0.022,0.014,0.034,0.02
			L1041.411,310.018z"/>
	</g>
	<path fill="#FEFEFE" d="M944.976,376.151c10.978,0.036,21.956,0.077,32.934,0.108c4.562,0.013,9.125-0.021,13.687,0.013
		c4.293,0.032,6.744,2.5,6.756,6.757c0.014,4.562,0.006,9.125,0.002,13.687c-0.004,4.808-2.335,7.213-7.247,7.255
		c-7.5,0.064-15.002,0.022-22.503,0.025c-2.088,0.001-4.176-0.014-6.264,0.005c-4.342,0.039-6.687,2.411-6.688,6.782
		c-0.004,33.561-0.002,67.122-0.002,100.684c0,1.701,0.027,3.403-0.006,5.104c-0.085,4.403-2.577,6.883-6.966,6.915
		c-5.875,0.043-11.751,0.055-17.627,0.08c-5.139-0.403-7.044-2.491-7.044-7.729c-0.001-34.807,0.003-69.614-0.004-104.421
		c-0.001-5.077-2.324-7.409-7.334-7.41c-11.757-0.002-23.515,0.058-35.271-0.042c-2.058-0.017-2.573,0.533-2.565,2.575
		c0.08,19.801,0.067,39.602,0.025,59.404c-0.006,2.697-0.23,5.403-0.51,8.088c-1.163,11.135-4.832,21.334-11.542,30.369
		c-8.029,9.789-18.437,15.744-30.547,18.954c-7.883,2.09-15.963,2.589-24.058,2.954c-0.922-0.064-1.844-0.153-2.767-0.187
		c-7.492-0.281-14.914-1.072-22.147-3.149c-15.825-4.545-28.084-13.51-35.319-28.646c-3.468-7.255-5.051-15-5.862-22.938
		c-0.077-2.313-0.219-4.626-0.221-6.94c-0.016-26.735-0.005-53.47-0.024-80.205c-0.001-1.564,0.133-3.08,0.65-4.557
		c1.555-2.568,3.833-3.546,6.818-3.484c5.642,0.116,11.287,0.031,16.931,0.037c5.353,0.006,7.592,2.243,7.592,7.583
		c0.001,25.669,0.005,51.337-0.005,77.006c-0.001,3.015,0.113,6.014,0.411,9.022c1.448,14.575,11.514,25.271,26.055,27.581
		c4.201,0.927,8.466,0.898,12.696,0.505c10.646-0.99,19.503-5.189,25.064-14.805c3.583-6.196,4.659-13.007,4.654-20.068
		c-0.019-26.446-0.009-52.893-0.006-79.339c0.001-5.155,2.322-7.447,7.512-7.476c4.559-0.026,9.118-0.074,13.677-0.112
		c0.537,0.038,1.074,0.109,1.61,0.109c24.614,0.01,49.227,0.015,73.841,0.015C943.902,376.257,944.439,376.188,944.976,376.151z"/>
	<path fill="#FEFEFE" d="M583.393,450.788c-0.19-14.86,3.219-27.859,9.76-40.061c3.528-6.581,8.371-12.133,13.771-17.236
		c11.909-11.255,26.264-17.073,42.34-19.004c14.821-1.78,29.232-0.199,43.098,5.543c14.61,6.05,26.049,15.851,34.177,29.377
		c5.67,9.436,8.849,19.71,10.077,30.712c1.884,16.882-0.587,32.918-8.632,47.889c-7.726,14.376-19.258,24.769-34.247,31.325
		c-8.407,3.677-17.182,5.621-26.298,6.541c-10.394,1.049-20.461-0.266-30.499-2.817c-10.137-2.576-19.112-7.396-27.166-13.888
		c-6.636-5.35-11.894-11.934-16.269-19.306c-4.662-7.856-7.368-16.362-9.07-25.197C583.499,459.808,583.179,454.807,583.393,450.788
		z M615.852,449.711c0,1.314,0.031,2.629-0.008,3.943c-0.041,1.391,0.231,2.736,0.409,4.105
		c1.593,12.257,6.522,22.786,16.057,30.867c6.228,5.279,13.574,8.407,21.612,9.235c9.821,1.011,19.322-0.265,28.177-5.329
		c5.377-3.075,9.863-7.032,13.444-11.893c6.701-9.097,9.249-19.646,9.37-30.779c0.044-4.096-0.409-8.23-1.298-12.263
		c-3.065-13.918-10.426-24.788-23.286-31.29c-8.132-4.112-16.917-5.13-26.036-4.109c-11.39,1.275-20.695,6.227-27.847,15.063
		C618.815,426.684,615.907,437.765,615.852,449.711z"/>
</g>
</svg>
