<?xml version="1.0" encoding="utf-8"?>
<!-- Generator: Adobe Illustrator 22.1.0, SVG Export Plug-In . SVG Version: 6.00 Build 0)  -->
<svg version="1.1" xmlns="http://www.w3.org/2000/svg" xmlns:xlink="http://www.w3.org/1999/xlink" x="0px" y="0px"
	 viewBox="0 0 1600 900" enable-background="new 0 0 1600 900" xml:space="preserve">
<g id="Layer_1">
	<g>
		<g id="Layer_2">
			<path fill="#DA3331" d="M1235.119,640.492c0,27.416-22.226,49.643-49.645,49.643H353.081c-27.419,0-49.643-22.225-49.643-49.643
				V198.793c0-27.414,22.224-49.641,49.643-49.641h832.394c27.419,0,49.645,22.227,49.645,49.641V640.492L1235.119,640.492z"/>
			<g>
				<path stroke="#000000" stroke-width="26.2692" stroke-miterlimit="10" d="M521.181,287.344
					c-2.919-70.053-69.467-58.377-82.894-56.627c-13.424,1.75-107.412,16.928-107.412,16.928v216.4l60.713-9.164v-75.305
					c0,0,25.1-4.67,63.628-10.508C493.744,363.232,522.933,329.373,521.181,287.344z M431.573,325.869
					c-18.388,2.92-40.571,6.422-40.571,6.422v-46.703c0,0,25.099-4.082,36.777-5.545c7.005-0.875,25.392-2.92,25.684,13.426
					C453.757,309.814,449.962,322.949,431.573,325.869z"/>
			</g>
			<g>
				<path stroke="#000000" stroke-width="26.2692" stroke-miterlimit="10" d="M671.499,401.172
					c0.064-8.754-0.293-46.697-1.46-80.264c-1.165-33.564-27.437-39.111-66.256-35.027c-38.818,4.086-51.662,12.842-66.548,23.35
					c-14.886,10.508-15.981,34.736-15.981,34.736l51.004-8.172c-0.875-12.553,16.93-17.807,22.182-18.389
					c7.016-0.781,25.979-1.172,25.979,8.756c0,13.506-49.327,18.969-69.468,24.517c-20.14,5.545-37.652,13.426-37.945,49.617
					c-0.291,36.191,28.898,36.486,61.296,32.398c32.397-4.084,46.991-30.646,46.991-30.646c-0.293,2.336,3.503,19.266,3.503,19.266
					l51.079-7.883v-3.502C675.875,409.93,671.461,406.143,671.499,401.172z M614.874,381.912
					c-8.464,7.004-20.725,14.592-32.69,14.592c-11.967,0-14.594-7.004-14.594-10.799c0-8.465,5.547-13.719,18.681-15.762
					c13.135-2.045,28.311-4.086,35.61-11.969C621.881,357.975,623.339,374.906,614.874,381.912z"/>
			</g>
			<path stroke="#000000" stroke-width="26.2692" stroke-miterlimit="10" d="M674.419,370.527l59.543-9.629
				c0,0,0.875,13.424,17.22,11.672c16.346-1.752,18.927-9.346,19.558-14.592c0.875-7.299-17.821-5.457-35.902-4.963
				c-19.293,0.527-55.458,3.504-57.792-33.855c-2.533-40.547,48.451-54.875,76.764-57.211c28.313-2.336,65.382-7.006,69.175,34.736
				l-56.331,9.193c0,0,0.583-12.111-17.951-12.111c-15.325,0-19.702,8.754-19.702,12.111c0,3.355,1.164,8.318,16.637,8.318
				c8.756,0,62.727-4.645,70.929,4.959c10.215,11.969,19.556,34.15-0.295,58.086c-19.848,23.932-56.041,28.312-71.219,30.355
				C729.872,409.639,674.419,420.146,674.419,370.527z"/>
			<path stroke="#000000" stroke-width="26.2692" stroke-miterlimit="10" d="M823.862,347.469l59.545-9.633
				c0,0,0.873,13.428,17.218,11.678c16.347-1.75,18.926-9.346,19.559-14.596c0.876-7.295-17.823-5.455-35.903-4.959
				c-19.292,0.525-55.457,3.502-57.789-33.859c-2.535-40.541,48.449-54.871,76.762-57.207c28.314-2.336,65.382-7.006,69.175,34.73
				l-56.331,9.199c0,0,0.585-12.115-17.951-12.115c-15.323,0-19.7,8.758-19.7,12.115c0,3.353,1.161,8.314,16.636,8.314
				c8.757,0,62.724-4.645,70.927,4.963c10.217,11.965,19.555,34.15-0.291,58.082c-19.849,23.938-56.045,28.31-71.221,30.353
				C879.321,386.578,823.862,397.09,823.862,347.469z"/>
			<polygon stroke="#000000" stroke-width="26.2692" stroke-miterlimit="10" points="1033.541,357.49 983.63,366.246 
				985.853,231.008 1035.765,222.252 			"/>
			<polygon stroke="#000000" stroke-width="26.2692" stroke-miterlimit="10" points="1034.893,211.52 984.98,220.275 
				985.853,185.768 1035.765,177.01 			"/>
			<g>
				<path stroke="#000000" stroke-width="26.2692" stroke-miterlimit="10" d="M1145.513,300.768c0,0-7.59,14.887-29.19,14.887
					c-23.934,0-23.642-21.404-23.642-21.404l107.412-14.498c0,0,7.3-29.48-11.674-57.5c-15.084-22.273-76.475-37.068-121.714,7.299
					c-39.054,38.295-30.062,89.316-7.881,108.869c22.182,19.559,122.74,25.57,141.307-47.283L1145.513,300.768z M1126.54,237.445
					c19.657,0,23.352,21.584,23.352,21.584l-58.668,7.879C1091.224,266.908,1098.521,237.445,1126.54,237.445z"/>
			</g>
			<g>
				<path stroke="#000000" stroke-width="21.0154" stroke-miterlimit="10" d="M1201.407,498.078l88.731-141.27l-104.491,17.514
					l-33.274,61.875l-29.772-52.535l-193.225,30.939l-32.693,61.877l-31.52-51.955l-193.227,30.357l-32.106,64.797l-30.355-55.633
					l-103.909,18.271l82.31,113.834L487.47,750.848l107.996-16.928l41.446-77.643l38.528,65.963l175.712-29.77l40.863-76.473
					l40.279,65.965l175.129-28.604l41.445-78.225l40.279,65.381l107.413-17.514L1201.407,498.078z M764.318,677.584l-76.182-97.635
					l80.559-127.842l76.18,101.721L764.318,677.584z M1020.441,638.18l-75.743-98.51v-1.75l80.122-126.092L1101,512.965
					L1020.441,638.18z"/>
			</g>
		</g>
		<g id="Layer_3">
			<g>
				<path fill="#FFFFFF" d="M521.181,287.344c-2.919-70.053-69.467-58.377-82.894-56.627
					c-13.424,1.75-107.412,16.928-107.412,16.928v216.4l60.713-9.164v-75.305c0,0,25.1-4.67,63.628-10.508
					C493.744,363.232,522.933,329.373,521.181,287.344z M431.573,325.869c-18.388,2.92-40.571,6.422-40.571,6.422v-46.703
					c0,0,25.099-4.082,36.777-5.545c7.005-0.875,25.392-2.92,25.684,13.426C453.757,309.814,449.962,322.949,431.573,325.869z"/>
			</g>
			<g>
				<path fill="#FFFFFF" d="M671.499,401.172c0.064-8.754-0.293-46.697-1.46-80.264c-1.165-33.564-27.437-39.111-66.256-35.027
					c-38.818,4.086-51.662,12.842-66.548,23.35c-14.886,10.508-15.981,34.736-15.981,34.736l51.004-8.172
					c-0.875-12.553,16.93-17.807,22.182-18.389c7.016-0.781,25.979-1.172,25.979,8.756c0,13.506-49.327,18.969-69.468,24.517
					c-20.14,5.545-37.652,13.426-37.945,49.617c-0.291,36.191,28.898,36.486,61.296,32.398
					c32.397-4.084,46.991-30.646,46.991-30.646c-0.293,2.336,3.503,19.266,3.503,19.266l51.079-7.883v-3.502
					C675.875,409.93,671.461,406.143,671.499,401.172z M614.874,381.912c-8.464,7.004-20.725,14.592-32.69,14.592
					c-11.967,0-14.594-7.004-14.594-10.799c0-8.465,5.547-13.719,18.681-15.762c13.135-2.045,28.311-4.086,35.61-11.969
					C621.881,357.975,623.339,374.906,614.874,381.912z"/>
			</g>
			<path fill="#FFFFFF" d="M674.419,370.527l59.543-9.629c0,0,0.875,13.424,17.22,11.672c16.346-1.752,18.927-9.346,19.558-14.592
				c0.875-7.299-17.821-5.457-35.902-4.963c-19.293,0.527-55.458,3.504-57.792-33.855c-2.533-40.547,48.451-54.875,76.764-57.211
				c28.313-2.336,65.382-7.006,69.175,34.736l-56.331,9.193c0,0,0.583-12.111-17.951-12.111c-15.325,0-19.702,8.754-19.702,12.111
				c0,3.355,1.164,8.318,16.637,8.318c8.756,0,62.727-4.645,70.929,4.959c10.215,11.969,19.556,34.15-0.295,58.086
				c-19.848,23.932-56.041,28.312-71.219,30.355C729.872,409.639,674.419,420.146,674.419,370.527z"/>
			<path fill="#FFFFFF" d="M823.862,347.469l59.545-9.633c0,0,0.873,13.428,17.218,11.678c16.347-1.75,18.926-9.346,19.559-14.596
				c0.876-7.295-17.823-5.455-35.903-4.959c-19.292,0.525-55.457,3.502-57.789-33.859c-2.535-40.541,48.449-54.871,76.762-57.207
				c28.314-2.336,65.382-7.006,69.175,34.73l-56.331,9.199c0,0,0.585-12.115-17.951-12.115c-15.323,0-19.7,8.758-19.7,12.115
				c0,3.353,1.161,8.314,16.636,8.314c8.757,0,62.724-4.645,70.927,4.963c10.217,11.965,19.555,34.15-0.291,58.082
				c-19.849,23.938-56.045,28.31-71.221,30.353C879.321,386.578,823.862,397.09,823.862,347.469z"/>
			<polygon fill="#FFFFFF" points="1033.541,357.49 983.63,366.246 985.853,231.008 1035.765,222.252 			"/>
			<polygon fill="#FFFFFF" points="1034.893,211.52 984.98,220.275 985.853,185.768 1035.765,177.01 			"/>
			<g>
				<path fill="#FFFFFF" d="M1145.513,300.768c0,0-7.59,14.887-29.19,14.887c-23.934,0-23.642-21.404-23.642-21.404l107.412-14.498
					c0,0,7.3-29.48-11.674-57.5c-15.084-22.273-76.475-37.068-121.714,7.299c-39.054,38.295-30.062,89.316-7.881,108.869
					c22.182,19.559,122.74,25.57,141.307-47.283L1145.513,300.768z M1126.54,237.445c19.657,0,23.352,21.584,23.352,21.584
					l-58.668,7.879C1091.224,266.908,1098.521,237.445,1126.54,237.445z"/>
			</g>
			<g>
				<path fill="#979493" d="M1201.407,498.078l88.731-141.27l-104.491,17.514l-33.274,61.875l-29.772-52.535l-193.225,30.939
					l-32.693,61.877l-31.52-51.955l-193.227,30.357l-32.106,64.797l-30.355-55.633l-103.909,18.271l82.31,113.834L487.47,750.848
					l107.996-16.928l41.446-77.643l38.528,65.963l175.712-29.77l40.863-76.473l40.279,65.965l175.129-28.604l41.445-78.225
					l40.279,65.381l107.413-17.514L1201.407,498.078z M764.318,677.584l-76.182-97.635l80.559-127.842l76.18,101.721
					L764.318,677.584z M1020.441,638.18l-75.743-98.51v-1.75l80.122-126.092L1101,512.965L1020.441,638.18z"/>
			</g>
		</g>
	</g>
</g>
<g id="Laag_2">
</g>
</svg>
