<?xml version="1.0" encoding="utf-8"?>
<!-- Generator: Adobe Illustrator 22.1.0, SVG Export Plug-In . SVG Version: 6.00 Build 0)  -->
<svg version="1.1" id="Layer_1" xmlns="http://www.w3.org/2000/svg" xmlns:xlink="http://www.w3.org/1999/xlink" x="0px" y="0px"
	 viewBox="0 0 1600 900" enable-background="new 0 0 1600 900" xml:space="preserve">
<g>
	<polygon fill="#3F1829" points="1295.846,440.842 1290.479,440.312 1257.324,355.801 1258.587,346.113 1270.167,363.062 	"/>
	<polygon fill="#3F1829" points="1328.685,268.65 1323.278,270.895 1294.478,348.324 1299.845,354.01 	"/>
	<polygon fill="#C24876" points="1255.007,274.121 1269.745,269.914 1298.373,351.59 1328.685,268.65 1368.68,274.965 
		1295.846,440.842 1231.854,283.809 	"/>
	<path fill="#929497" d="M1237.04,564.693l-14.029-0.494c0,0-18.526,24.842-56.837,26.943l44.206,8.424L1237.04,564.693z"/>
	<path fill="#693B1F" d="M1164.069,486.312c0,0,22.313-2.103,30.312,5.895l-63.151,44.205l-0.422,10.525l23.157-7.154l63.573-48.84
		C1217.539,490.943,1192.698,474.525,1164.069,486.312z"/>
	<path fill="#693B1F" d="M1199.434,638.301c0,0-66.1,23.152-110.725-44.207c-19.029-28.725-15.579-92.621,9.682-126.303
		c27.58-36.777,82.939-31.582,82.939-31.582s-54.312,23.16-66.941,49.684c-12.631,26.523-26.945,98.934,11.367,124.195
		C1164.069,635.35,1199.434,638.301,1199.434,638.301z"/>
	<g>
		<path fill="#FCD635" d="M1155.324,575.529l122.904-87.541c0,0-69.155-95.244-158.192-33.129
			c-49.552,34.57-42.632,120.467-12.959,152.68c8.528,9.258,67.792,71.918,161.859,2.82l-31.896-45.666
			C1237.04,564.693,1186.557,605.307,1155.324,575.529z M1153.595,494.729c27.474-20.035,52.211-3.858,52.211-3.858l-69.771,48.455
			C1136.036,539.326,1128.223,513.225,1153.595,494.729z"/>
	</g>
	<polygon fill="#8D4B28" points="1017.137,337.273 1033.557,330.539 1033.979,692.606 1017.557,680.818 	"/>
	<polygon fill="#F7E738" points="1033.557,330.539 1110.181,322.541 1110.603,684.607 1033.977,693.873 	"/>
	<path fill="#774021" d="M887.571,388.24v134.826c0,0-6.5,24.309-6.5,35.617c0,11.303,8.765,46.07,46.356,46.07
		c42.557,0,59.398-57.816,31.611-83.916c-20.809-19.549-2.78-17.273-2.78-17.273l32.789,5.935l15.547,98.084l-76.034,43.529
		l-73.212-46.072l0.282-67.557l11.308-152.074l16.962-2.164L887.571,388.24z"/>
	<g>
		<path fill="#FDCF36" d="M932.892,454.1c-33.92,0-48.992,15.078-48.992,15.078v-85.932l-60.305,5.656
			c0,0-0.375,117.203-0.375,166.955c0,90.83,67.461,116.457,105.152,116.457c37.689,0,106.277-26.383,106.277-108.918
			C1034.65,480.854,966.814,454.1,932.892,454.1z M927.616,610.129c-27.06,0-48.992-21.938-48.992-48.992
			c0-27.062,21.933-49.002,48.992-49.002c27.061,0,48.996,21.939,48.996,49.002C976.612,588.191,954.677,610.129,927.616,610.129z"
			/>
	</g>
	<path fill="#5B361B" d="M622.227,655.559l1.579-5.684l-30.944-47.049c0,0-75.348,51.385-105.357-15.473
		c-33.261-74.094,52.205-85.461,52.205-85.461l-47.574,2.527l-47.153,45.469l42.523,88.83L622.227,655.559z"/>
	<g>
		<path fill="#FDC834" d="M494.661,610.514l146.092-95.572c0,0-71.152-112.408-182.299-39.998
			c-57.628,37.547-52.412,131.617-20.208,169.672c9.263,10.943,73.678,85.041,183.981,10.943l-34.102-53.467
			C588.126,602.092,528.763,645.879,494.661,610.514z M496.555,518.52c32.208-21.473,59.574-1.896,59.574-1.896l-81.677,51.785
			C474.453,568.408,466.808,538.354,496.555,518.52z"/>
	</g>
	<polygon fill="#3F1829" points="1214.59,384.006 1210.69,383.525 1210.69,248.902 1216.855,248.902 	"/>
	<polygon fill="#3F1829" points="1299.286,250.273 1169.112,250.273 1167.439,241.707 1297.954,238.959 1304.687,240.865 	"/>
	<path fill="#895129" d="M674.328,330.643V481.26c0,0-7.263,27.154-7.263,39.785c0,12.629,9.788,51.469,51.785,51.469
		c41.995,0,52.731-38.84,52.731-51.154c0-31.891-20.524-61.887-20.524-61.887l36.628,6.629l17.366,109.568l-84.938,48.629
		l-81.782-51.471l0.316-75.467l12.63-169.877l18.945-2.418L674.328,330.643z"/>
	<path fill="#8E4B28" d="M389.408,522.102c107.358,2.102,157.81-53.59,168.405-130.938c12.63-92.201-74.52-138.514-74.52-138.514
		l-26.103,218.93L389.408,522.102z"/>
	<g>
		<path fill="#8E4B28" d="M338.676,316.75c-69.783,17.365,1.578,6,1.578,6l27.472,11.365c0,0,43.575-5.051,70.414,9.789
			C438.14,343.904,408.46,299.383,338.676,316.75z"/>
		<polygon fill="#8E4B28" points="343.097,687.135 365.201,675.135 367.726,334.115 343.147,322.434 		"/>
	</g>
	<g>
		<path fill="#FBD236" d="M231.318,221.707v476.162l111.779-10.734V522.94c0,0,205.441,30.312,205.243-152.828
			C548.13,177.291,272.367,221.707,231.318,221.707z M345.624,425.055V324.012c0,0,91.569-15.156,91.569,47.363
			C437.193,433.895,345.624,425.055,345.624,425.055z"/>
	</g>
	<g>
		<path fill="#F8E336" d="M724.955,404.215c-37.891,0-54.732,16.844-54.732,16.844v-95.992l-67.361,6.316
			c0,0-0.42,130.932-0.42,186.504c0,101.469,75.359,130.094,117.462,130.094c42.102,0,118.726-29.471,118.726-121.67
			C838.629,434.109,762.845,404.215,724.955,404.215z M719.06,578.514c-30.227,0-54.73-24.506-54.73-54.73
			c0-30.229,24.503-54.734,54.73-54.734c30.229,0,54.732,24.506,54.732,54.734C773.792,554.008,749.289,578.514,719.06,578.514z"/>
	</g>
	<polygon fill="#E85589" points="1178.806,202.129 1304.687,202.129 1304.687,240.865 1259.64,240.865 1259.64,378.953 
		1214.59,384.006 1215.012,241.707 1167.439,241.707 	"/>
</g>
</svg>
