<?xml version="1.0" encoding="utf-8"?>
<!-- Generator: Adobe Illustrator 23.0.2, SVG Export Plug-In . SVG Version: 6.00 Build 0)  -->
<svg version="1.1" xmlns="http://www.w3.org/2000/svg" xmlns:xlink="http://www.w3.org/1999/xlink" x="0px" y="0px"
	 viewBox="0 0 1600 900" enable-background="new 0 0 1600 900" xml:space="preserve">
<g id="Layer_1">
	<g>
		<g>
			<g>
				<linearGradient id="SVGID_1_" gradientUnits="userSpaceOnUse" x1="768.3273" y1="202.5499" x2="822.3681" y2="587.0699">
					<stop  offset="0" style="stop-color:#815A24"/>
					<stop  offset="0.0195" style="stop-color:#936F32"/>
					<stop  offset="0.0691" style="stop-color:#BDA053"/>
					<stop  offset="0.1127" style="stop-color:#DCC46A"/>
					<stop  offset="0.1481" style="stop-color:#EEDA79"/>
					<stop  offset="0.171" style="stop-color:#F5E27E"/>
					<stop  offset="0.2011" style="stop-color:#E6D072"/>
					<stop  offset="0.2898" style="stop-color:#BFA252"/>
					<stop  offset="0.3685" style="stop-color:#A3803A"/>
					<stop  offset="0.4334" style="stop-color:#916B2C"/>
					<stop  offset="0.4765" style="stop-color:#8B6427"/>
					<stop  offset="0.5805" style="stop-color:#AF8D3F"/>
					<stop  offset="0.7403" style="stop-color:#EDD268"/>
					<stop  offset="0.7937" style="stop-color:#E8CB62"/>
					<stop  offset="0.8732" style="stop-color:#D9B653"/>
					<stop  offset="0.9686" style="stop-color:#C2953A"/>
					<stop  offset="1" style="stop-color:#B98930"/>
				</linearGradient>
				<path fill="url(#SVGID_1_)" d="M1510.23,467.48h-115.451v-63.992h104.797v-22.931h-104.797v-58.658h113.587v-22.933h-139.44
					v191.432h141.303V467.48z M1355.314,354.963c-1.068-21.064-7.734-61.056-74.647-61.056c-46.4,0-65.861,29.321-65.861,59.193
					c0,33.33,28.267,42.12,40.804,45.053l39.195,9.064c31.463,7.459,40.792,13.867,40.792,33.863
					c0,27.474-31.463,32.258-50.133,32.258c-24.536,0-52.785-10.12-52.785-44.793h-24.264c0,17.87,3.198,33.861,19.461,48.538
					c8.533,7.732,22.399,18.391,57.848,18.391c32.809,0,74.941-12.522,74.941-57.865c0-30.393-18.666-45.312-43.462-51.181
					l-54.669-12.539c-11.19-2.661-22.671-8.013-22.671-24.28c0-29.044,27.488-33.585,43.753-33.585
					c21.587,0,46.107,9.341,47.439,38.936H1355.314z M1175.349,298.966v121.048c0,41.597-26.662,52.527-50.387,52.527
					c-23.208,0-48.524-11.463-48.524-53.046v-120.53h-25.867v127.729c0,35.712,22.136,68.78,73.593,68.78
					c52.531,0,77.051-33.068,77.051-72.267V298.966H1175.349z M1043.639,394.682c0-41.322-21.878-100.776-93.318-100.776
					c-71.467,0-93.312,59.453-93.312,100.776c0,41.335,21.845,100.792,93.312,100.792
					C1021.762,495.475,1043.639,436.017,1043.639,394.682 M1016.979,394.682c0,45.067-25.069,77.859-66.658,77.859
					c-41.611,0-66.652-32.791-66.652-77.859c0-45.071,25.041-77.861,66.652-77.861
					C991.91,316.822,1016.979,349.611,1016.979,394.682 M824.475,378.157h-99.988v-79.191H698.62v191.432h25.867v-89.311h99.988
					v89.311h25.851V298.966h-25.851V378.157z M536.618,321.899h64.799v168.498h25.859V321.899h64.797v-22.933H536.618V321.899z
					 M505.178,453.617h-0.535l-95.725-154.651h-30.667v191.432h25.063V335.764h0.529l97.329,154.633h29.071V298.966h-25.064V453.617
					z M371.381,467.48H257.744v-63.992h104.789v-22.931H257.744v-58.658h113.59v-22.933H231.886v191.432h139.494V467.48z
					 M108.162,409.617h60.247c41.598,0,56.796-30.13,56.796-56.79c0-30.928-21.32-53.861-56.796-53.861H82.293v191.432h25.869
					V409.617z M108.162,321.104h52.519c21.335,0,37.869,7.734,37.869,31.996c0,25.855-15.739,34.382-38.939,34.382h-51.449V321.104z
					"/>
			</g>
		</g>
		<linearGradient id="SVGID_2_" gradientUnits="userSpaceOnUse" x1="779.1353" y1="418.6005" x2="812.3896" y2="689.4356">
			<stop  offset="0" style="stop-color:#815A24"/>
			<stop  offset="0.0195" style="stop-color:#936F32"/>
			<stop  offset="0.0691" style="stop-color:#BDA053"/>
			<stop  offset="0.1127" style="stop-color:#DCC46A"/>
			<stop  offset="0.1481" style="stop-color:#EEDA79"/>
			<stop  offset="0.171" style="stop-color:#F5E27E"/>
			<stop  offset="0.2011" style="stop-color:#E6D072"/>
			<stop  offset="0.2898" style="stop-color:#BFA252"/>
			<stop  offset="0.3685" style="stop-color:#A3803A"/>
			<stop  offset="0.4334" style="stop-color:#916B2C"/>
			<stop  offset="0.4765" style="stop-color:#8B6427"/>
			<stop  offset="0.5805" style="stop-color:#AF8D3F"/>
			<stop  offset="0.7403" style="stop-color:#EDD268"/>
			<stop  offset="0.7937" style="stop-color:#E8CB62"/>
			<stop  offset="0.8732" style="stop-color:#D9B653"/>
			<stop  offset="0.9686" style="stop-color:#C2953A"/>
			<stop  offset="1" style="stop-color:#B98930"/>
		</linearGradient>
		<rect x="81.479" y="504.262" fill="url(#SVGID_2_)" width="1428.567" height="99.512"/>
		<g>
			<path fill="#FFFFFF" d="M1260.396,581.761c-1.125,1.853-3.107,3.505-5.948,4.958c-2.843,1.454-6.181,2.183-10.014,2.183
				c-4.361,0-8.428-0.812-12.195-2.429c-3.767-1.62-7.055-3.95-9.865-6.991c-2.81-3.039-5.024-6.707-6.643-11.005
				c-1.62-4.295-2.427-9.121-2.427-14.475c0-5.42,0.858-10.362,2.577-14.822c1.719-4.463,3.998-8.294,6.841-11.502
				c2.841-3.204,6.08-5.699,9.715-7.484c3.635-1.785,7.402-2.678,11.304-2.678c3.569,0,6.509,0.365,8.824,1.091
				c2.313,0.728,4.179,1.554,5.6,2.478c1.422,0.926,2.495,1.851,3.224,2.777c0.726,0.926,1.287,1.587,1.686,1.983l2.082-7.138
				h14.772v29.247h-17.747c-0.066-1.983-0.414-3.767-1.041-5.354c-0.629-1.587-1.472-2.907-2.528-3.965
				c-1.058-1.056-2.247-1.866-3.569-2.429c-1.323-0.561-2.711-0.843-4.163-0.843c-1.983,0-3.818,0.513-5.503,1.538
				c-1.686,1.025-3.122,2.379-4.313,4.064c-1.188,1.686-2.115,3.668-2.775,5.948c-0.662,2.282-0.992,4.645-0.992,7.09
				c0,2.513,0.297,4.874,0.893,7.088c0.594,2.216,1.47,4.15,2.627,5.8c1.155,1.653,2.577,2.96,4.262,3.917
				c1.686,0.959,3.62,1.437,5.8,1.437c2.841,0,4.958-0.477,6.344-1.437c1.389-0.957,2.445-2.097,3.173-3.422v-4.163h-6.047v-10.609
				h32.915v10.609h-3.965v24.786h-19.828L1260.396,581.761z"/>
			<path fill="#FFFFFF" d="M1325.733,589.793c-5.156,0-9.915-0.761-14.277-2.28c-4.364-1.521-8.115-3.8-11.253-6.841
				c-3.14-3.039-5.587-6.857-7.336-11.451c-1.754-4.592-2.627-9.997-2.627-16.211c0-5.354,0.843-10.243,2.528-14.673
				c1.683-4.427,4.064-8.245,7.138-11.451c3.072-3.206,6.74-5.684,11.005-7.435c4.262-1.752,8.971-2.627,14.127-2.627
				c6.08,0,11.352,0.876,15.815,2.627c4.46,1.752,8.162,4.229,11.104,7.435c2.94,3.206,5.12,7.088,6.544,11.649
				c1.419,4.562,2.13,9.616,2.13,15.17c0,5.618-0.759,10.657-2.28,15.12c-1.521,4.46-3.767,8.245-6.742,11.352
				c-2.973,3.107-6.626,5.486-10.954,7.138C1336.324,588.965,1331.349,589.793,1325.733,589.793z M1325.733,574.226
				c1.587,0,2.988-0.495,4.214-1.488c1.221-0.99,2.28-2.379,3.171-4.163c0.893-1.785,1.569-3.932,2.033-6.445
				c0.462-2.511,0.693-5.319,0.693-8.426c0-3.041-0.216-5.866-0.645-8.478c-0.429-2.61-1.089-4.889-1.983-6.841
				c-0.891-1.947-2.031-3.486-3.419-4.61c-1.389-1.122-3.041-1.686-4.958-1.686c-1.521,0-2.891,0.513-4.115,1.538
				c-1.224,1.025-2.28,2.462-3.171,4.313c-0.893,1.851-1.587,4.064-2.084,6.641c-0.495,2.579-0.744,5.389-0.744,8.428
				c0,3.239,0.282,6.164,0.843,8.776c0.561,2.612,1.323,4.841,2.282,6.692c0.957,1.851,2.115,3.272,3.47,4.262
				C1322.674,573.731,1324.146,574.226,1325.733,574.226z"/>
			<path fill="#FFFFFF" d="M1364.596,518.706h31.33v13.086h-5.255v43.03h12.789v-12.593h16.658v25.779h-55.522v-13.185h5.453v-43.03
				h-5.453V518.706z"/>
			<path fill="#FFFFFF" d="M1425.074,588.008v-13.185h6.146v-43.03h-6.146v-13.086h30.239c6.014,0,11.35,0.876,16.011,2.627
				c4.661,1.752,8.591,4.13,11.799,7.138c3.204,3.008,5.651,6.56,7.336,10.657c1.686,4.1,2.531,8.527,2.531,13.287
				c0,11.37-3.274,20.143-9.819,26.322c-6.54,6.181-15.962,9.271-28.254,9.271H1425.074z M1470.184,552.415
				c0-2.643-0.282-5.206-0.841-7.684c-0.563-2.478-1.439-4.676-2.627-6.593c-1.193-1.917-2.729-3.453-4.612-4.61
				c-1.884-1.155-4.148-1.736-6.791-1.736h-3.767v43.03h3.767c2.643,0,4.907-0.596,6.791-1.785c1.884-1.19,3.42-2.792,4.612-4.81
				c1.188-2.016,2.064-4.377,2.627-7.088C1469.902,558.431,1470.184,555.522,1470.184,552.415z"/>
		</g>
		<path fill="#FFFFFF" d="M293.494,540.934l-114.007,0.012v-24.761h-6.486l0.008,24.749h-21.544
			c-1.608-13.927-13.435-24.749-27.797-24.753c-15.451,0.004-27.989,12.538-27.984,28.005
			c-0.005,15.454,12.525,27.998,27.984,27.991c14.368,0,26.198-10.826,27.797-24.764l21.544,0.006v24.758h6.478V547.42
			l114.014-0.006L293.494,540.934z M123.669,565.858c-11.972,0-21.685-9.705-21.685-21.68c0.005-11.973,9.71-21.68,21.685-21.689
			c11.982,0,21.682,9.716,21.693,21.689C145.351,556.154,135.651,565.858,123.669,565.858z M270.406,568.089
			c-3.147,0-5.707,2.566-5.714,5.723c0.007,3.149,2.567,5.698,5.719,5.698c3.158,0,5.716-2.548,5.704-5.698
			C276.127,570.655,273.57,568.089,270.406,568.089z M293.509,583.853v-33.246h-38.126l-0.014,33.246h-4.223v4.86l48.236-0.004
			l0.007-4.856H293.509z M288.643,574.148h-4.466l0.299-10.678l-4.543,4.531c1.036,1.687,1.642,3.679,1.642,5.811
			c0,6.152-5.002,11.156-11.169,11.156c-6.155-0.012-11.158-5.003-11.158-11.156c0-6.179,5.003-11.177,11.163-11.17
			c2.064,0,3.986,0.568,5.653,1.552l4.473-4.499l-10.068,0.344v-4.59h18.173V574.148z"/>
	</g>
</g>
<g id="Laag_2">
</g>
</svg>
