<?xml version="1.0" encoding="utf-8"?>
<!-- Generator: Adobe Illustrator 23.0.6, SVG Export Plug-In . SVG Version: 6.00 Build 0)  -->
<svg version="1.1" id="Layer_1" xmlns="http://www.w3.org/2000/svg" xmlns:xlink="http://www.w3.org/1999/xlink" x="0px" y="0px"
	 viewBox="0 0 1600 900" enable-background="new 0 0 1600 900" xml:space="preserve">
<g>
	<path fill="#DC0000" d="M1438.817,375.981h-63.977v194.787h-45.698V375.981h-63.982v-44.39h173.657V375.981L1438.817,375.981z
		 M1240.102,570.768h-137.977V331.59h45.698v192.134h92.278V570.768L1240.102,570.768z M929.356,575.072
		c-64.564,0-93.753-43.73-93.753-123.564c0-84.14,33.314-124.885,93.458-124.885c59.849,0,93.158,40.745,93.158,124.885
		C1022.219,531.342,993.33,575.072,929.356,575.072L929.356,575.072z M712.065,570.768h-49.826L591.777,331.59h49.531l45.99,178.221
		l48.057-178.221h47.465L712.065,570.768L712.065,570.768z M538.702,570.768H400.139V331.59h137.384v41.739h-91.691v53.995h79.897
		v39.421h-79.897v62.276h92.871V570.768L538.702,570.768z M278.962,570.768l-42.163-90.772h-33.017v90.772h-45.699V331.59h79.604
		c63.681,0,79.897,31.801,79.897,71.552c0,33.79-12.087,53.664-38.032,64.597l52.476,103.028H278.962L278.962,570.768z
		 M106.325,279.802v342.753h1384.511V279.802H106.325L106.325,279.802z"/>
	<path fill="#DC0000" d="M929.061,370.68c-33.904,0-44.224,16.232-44.224,80.166c0,58.302,10.32,79.832,44.519,79.832
		c33.609,0,43.929-21.531,43.929-79.832C973.285,386.912,962.965,370.68,929.061,370.68L929.061,370.68z"/>
	<path fill="#DC0000" d="M232.674,373.33h-28.892v66.917h28.008c28.007,0,34.787-9.939,34.787-34.783
		C266.577,381.612,259.504,373.33,232.674,373.33L232.674,373.33z"/>
</g>
</svg>
