<?xml version="1.0" encoding="utf-8"?>
<!-- Generator: Adobe Illustrator 22.1.0, SVG Export Plug-In . SVG Version: 6.00 Build 0)  -->
<svg version="1.1" id="Layer_1" xmlns="http://www.w3.org/2000/svg" xmlns:xlink="http://www.w3.org/1999/xlink" x="0px" y="0px"
	 viewBox="0 0 1600 900" enable-background="new 0 0 1600 900" xml:space="preserve">
<g>
	<polygon fill-rule="evenodd" clip-rule="evenodd" fill="#80BA27" points="1125.388,784.401 469.002,784.401 469.002,128.007 
		1125.402,128 	"/>
	<g>
		<path fill-rule="evenodd" clip-rule="evenodd" fill="#1D1D1B" d="M706.182,447.714c8.142-0.474,15.505-3.944,20.975-9.427
			c5.809-5.866,9.399-13.909,9.399-22.813l0,0l0,0l0,0l0,0c-0.008-8.841-3.576-16.909-9.414-22.769
			c-5.469-5.484-12.833-8.996-20.974-9.456l-1.711,0.008l0,0l0,0l0,0l-37.54,0.007v64.427L706.182,447.714L706.182,447.714z
			 M787.609,359.67c1.909-0.015,3.618,0.028,5.498,0.07c14.551,0.537,27.64,6.657,37.234,16.267
			c10.022,10.126,16.171,24.02,16.171,39.461l0.097,0.007l0,0l0,0l-0.097-0.007c-0.016,15.455-6.135,29.404-16.171,39.468
			c-6.162,6.206-13.751,10.942-22.331,13.669l63.094,84.193l-115.82-0.013l-56.197-81.466l-32.169,0.007v81.502l-110.061-0.013
			l-0.014-193.158l68.068,0.015l0,0H787.609L787.609,359.67z"/>
		<polygon fill-rule="evenodd" clip-rule="evenodd" fill="#1D1D1B" points="927.938,383.265 835.699,383.25 835.699,359.662 
			1125.375,359.585 1125.359,383.28 1037.899,383.265 1037.899,552.826 927.951,552.813 927.938,383.265 		"/>
	</g>
</g>
</svg>
