<?xml version="1.0" encoding="utf-8"?>
<!-- Generator: Adobe Illustrator 22.1.0, SVG Export Plug-In . SVG Version: 6.00 Build 0)  -->
<svg version="1.1" id="Layer_1" xmlns="http://www.w3.org/2000/svg" xmlns:xlink="http://www.w3.org/1999/xlink" x="0px" y="0px"
	 viewBox="0 0 1600 900" enable-background="new 0 0 1600 900" xml:space="preserve">
<g>
	<g id="XMLID_416_">
		<g id="XMLID_418_">
			<path id="XMLID_313_" fill="#424445" d="M345.248,472.851c-0.012,11.511-9.438,20.917-20.943,20.906l-98.734-0.092
				c-11.512-0.006-20.921-9.435-20.914-20.941l0.182-195.964c0.014-11.503,9.442-20.912,20.946-20.903l98.736,0.084
				c11.51,0.011,20.921,9.441,20.906,20.949L345.248,472.851z"/>
		</g>
	</g>
	<g id="XMLID_409_">
		<path id="XMLID_312_" fill="#221E20" d="M1439.454,578.682l-12.175-195.583c-0.715-11.482-10.698-20.301-22.186-19.582
			l-98.533,6.134c-1.569,0.098-3.08,0.383-4.533,0.807c-2.555-1.831-5.542-3.129-8.841-3.651l-97.523-15.462
			c-11.367-1.802-22.141,6.021-23.946,17.391l-20.271,127.853l3.477-119.713c0.329-11.506-8.806-21.191-20.312-21.523l-98.682-2.866
			c-11.506-0.335-21.189,8.806-21.523,20.312l-1.869,64.399l-10.635-82.768c-1.47-11.416-12.007-19.554-23.42-18.092l-97.924,12.587
			c-5.81,0.747-10.761,3.85-14.04,8.215c-2.333-1.07-4.893-1.739-7.601-1.874l-98.602-4.977c-11.491-0.582-21.37,8.351-21.95,19.845
			l-4.827,95.687l-18.876-92.878c-2.293-11.281-13.394-18.634-24.675-16.338l-96.753,19.66c-0.698,0.141-1.381,0.32-2.049,0.528
			l-0.121-1.618c-0.862-11.477-10.958-20.156-22.436-19.297l-98.449,7.399c-3.628,0.274-6.974,1.473-9.83,3.345
			c-3.44-3.429-8.06-5.707-13.257-6.073l-98.491-6.955c-11.477-0.813-21.535,7.918-22.347,19.395l-8.721,123.395L300.08,381.481
			c-1.727-11.382-12.453-19.277-23.833-17.55l-97.601,14.825c-11.38,1.73-19.277,12.454-17.547,23.83l29.429,193.743
			c1.727,11.379,12.451,19.274,23.829,17.544l97.606-14.822c6.158-0.934,11.276-4.516,14.421-9.398
			c1.724,0.608,3.547,1.021,5.456,1.156l98.488,6.955c11.477,0.813,21.538-7.913,22.347-19.395l6.154-87.041l6.755,89.792
			c0.862,11.477,10.961,20.162,22.436,19.297l98.452-7.399c11.478-0.865,20.159-10.958,19.297-22.44l-3.294-43.79l13.45,66.184
			c2.293,11.281,13.395,18.634,24.675,16.344l96.75-19.666c2.385-0.484,4.579-1.384,6.56-2.572c1.421,0.387,2.901,0.64,4.429,0.715
			l98.602,4.977c11.494,0.577,21.37-8.351,21.953-19.845l5.453-108.17l13.103,101.947c1.471,11.419,12.007,19.557,23.426,18.092
			l97.916-12.578c0.052-0.006,0.098-0.02,0.15-0.026c1.402,9.897,9.787,17.708,20.093,18.008l98.683,2.86
			c8.651,0.251,16.269-4.85,19.66-12.29c2.958,2.794,6.747,4.764,11.044,5.444l97.529,15.467c11.367,1.805,22.14-6.021,23.94-17.388
			l13.697-86.372l5.571,89.498c0.715,11.485,10.698,20.298,22.181,19.579l98.533-6.131
			C1431.357,600.151,1440.169,590.17,1439.454,578.682z"/>
	</g>
	<path id="XMLID_311_" fill="#424445" d="M1461.557,586.165l-12.175-195.585c-1.41-22.649-20.289-40.392-42.98-40.392
		c-0.894,0-1.788,0.028-2.685,0.084l-97.814,6.089c-2.982-1.203-6.093-2.069-9.248-2.569l-97.523-15.461
		c-2.226-0.353-4.493-0.532-6.739-0.532c-12.186,0-23.47,5.274-31.428,13.759c-7.065-5.688-15.966-9.203-25.71-9.483l-98.683-2.866
		c-6.75-0.229-13.178,1.207-18.957,3.861c-7.691-12.196-21.284-20.19-36.477-20.19c-1.82,0-3.659,0.118-5.479,0.35l-97.924,12.587
		c-6.278,0.808-12.169,2.934-17.371,6.207c-0.11-0.006-0.219-0.013-0.332-0.017l-98.596-4.977
		c-15.319-0.783-29.092,6.514-37.302,18.069c-7.839-7.597-18.497-12.202-29.994-12.202c-2.868,0-5.75,0.291-8.564,0.864
		l-80.695,16.396c-8.494-11.51-22.455-18.66-37.914-17.505l-98.458,7.401c-1.887,0.141-3.759,0.411-5.604,0.8
		c-4.487-1.978-9.304-3.188-14.255-3.537l-98.485-6.955c-17.357-1.222-32.973,8.09-40.805,22.309
		c-7.841-7.607-18.496-12.264-29.982-12.264c-2.151,0-4.323,0.164-6.459,0.489l-97.604,14.825
		c-11.35,1.726-21.363,7.786-28.194,17.062c-6.833,9.279-9.644,20.641-7.919,31.989l29.429,193.742
		c3.168,20.866,21.476,36.602,42.587,36.602c2.154,0,4.33-0.164,6.462-0.487l97.603-14.821c6.879-1.044,13.328-3.743,18.849-7.775
		l94.628,6.684c10.73,0.758,20.795-2.515,28.765-8.475c8.436,7.67,19.934,12.065,32.15,11.119l98.456-7.399
		c4.305-0.323,8.417-1.275,12.252-2.754c7.793,11.866,21.229,19.534,36.067,19.534c2.861,0,5.737-0.288,8.557-0.862l96.748-19.666
		c1.804-0.366,3.582-0.851,5.323-1.447c0.048,0.003,0.094,0.003,0.141,0.006l98.607,4.977c14.738,0.764,27.939-5.935,36.238-16.656
		c7.298,5.586,16.393,8.879,26.146,8.879c1.822,0,3.665-0.118,5.485-0.352l82.298-10.571c7.667,9.611,19.331,15.767,32.394,16.148
		l98.683,2.861c9.311,0.271,18.198-2.492,25.566-7.541c0.764,0.164,1.537,0.309,2.313,0.43l97.526,15.468
		c2.226,0.354,4.496,0.533,6.745,0.533c10.447,0,20.228-3.876,27.821-10.326c8.466,10.084,21.506,16.246,35.67,15.341l98.538-6.13
		C1444.951,630.347,1463.034,609.862,1461.557,586.165z"/>
	<path id="XMLID_310_" fill="#3CB4E5" d="M329.507,575.222c1.727,11.379-6.165,22.1-17.545,23.83l-97.606,14.822
		c-11.377,1.73-22.101-6.165-23.829-17.544l-29.429-193.743c-1.73-11.376,6.167-22.1,17.547-23.83l97.601-14.825
		c11.38-1.727,22.106,6.168,23.833,17.55L329.507,575.222z"/>
	<path id="XMLID_309_" fill="#DF1683" d="M753.688,564.973c2.29,11.281-5.061,22.383-16.341,24.678l-96.75,19.666
		c-11.281,2.29-22.383-5.064-24.675-16.344l-39.027-192.03c-2.291-11.281,5.058-22.383,16.338-24.678l96.753-19.66
		c11.281-2.296,22.383,5.058,24.675,16.338L753.688,564.973z"/>
	<path id="XMLID_397_" fill="#FFFFFF" d="M714.529,505.485l1.349,28.628c-7.979,1.09-15.698,2.394-23.161,3.91l-3.835,0.779
		c-17.584,3.576-32.91,7.273-45.973,11.102l-23.253-114.41c24.248-6.419,48.211-12.14,71.891-17.169l1.482,22.218
		c-2.662,0.539-5.779,1.174-9.357,1.9c-7.872,1.6-17.463,3.925-28.767,6.967l3.991,19.631c3.515-1.038,8.902-2.29,16.16-3.766
		l7.365-1.494c3.576-0.727,6.142-1.194,7.699-1.407l1.546,24.119l-7.82,1.592c-6.851,1.39-13.547,3.022-20.087,4.879l4.77,23.467
		C684.37,512.146,699.705,508.495,714.529,505.485z"/>
	<g id="XMLID_394_">
		<g>
			<path id="XMLID_14_" fill="#F5333F" d="M868.891,572.927c-0.582,11.494-10.459,20.422-21.953,19.845l-98.602-4.977
				c-11.494-0.577-20.424-10.456-19.845-21.95l9.873-195.71c0.58-11.494,10.459-20.427,21.95-19.845l98.602,4.977
				c11.494,0.58,20.424,10.461,19.842,21.956L868.891,572.927z"/>
		</g>
	</g>
	<path id="XMLID_391_" fill="#FFFFFF" d="M848.051,513.328l-18.406,23.201c-18.242-13.242-32.605-29.851-43.09-49.806l-2.174,43.139
		l-3.437-0.173c-5.315-0.271-13.259-0.202-23.83,0.208l5.854-115.981c10.196-1.364,19.323-2.102,27.374-2.22l-2.301,45.639
		c11.151-18.135,27.726-32.968,49.725-44.5l11.125,21.716c-16.111,8.801-30.125,20.419-42.028,34.86
		c3.951,6.575,9.839,14.078,17.668,22.515C832.745,500.911,840.586,508.045,848.051,513.328z"/>
	<g id="XMLID_389_">
		<g>
			<path id="XMLID_13_" fill="#E87200" d="M1026.877,548.791c1.468,11.419-6.672,21.956-18.089,23.426l-97.919,12.578
				c-11.416,1.465-21.956-6.673-23.423-18.092l-24.978-194.354c-1.468-11.419,6.673-21.956,18.089-23.423l97.921-12.587
				c11.413-1.462,21.953,6.676,23.421,18.092L1026.877,548.791z"/>
		</g>
	</g>
	<path id="XMLID_386_" fill="#FFFFFF" d="M969.413,516.979c-7.76,0.998-17.999,2.785-30.71,5.363l-15.021-116.884
		c10.744-2.324,20.298-4.129,28.651-5.415c1.548,16.947,3.258,32.717,5.133,47.308C960.261,469.082,964.243,492.295,969.413,516.979
		z"/>
	<g id="XMLID_384_">
		<g>
			<path id="XMLID_12_" fill="#EBA900" d="M1149.234,572.753c-0.332,11.505-10.017,20.641-21.523,20.306l-98.68-2.86
				c-11.503-0.335-20.644-10.018-20.312-21.523l5.687-195.877c0.332-11.506,10.018-20.647,21.523-20.312l98.679,2.866
				c11.506,0.332,20.644,10.017,20.312,21.523L1149.234,572.753z"/>
		</g>
	</g>
	<path id="XMLID_380_" fill="#FFFFFF" d="M1133.444,471.868c-0.6,20.653-9.305,36.368-26.108,47.153
		c-14.787,9.591-33.496,14.055-56.126,13.397c-8.864-0.254-16.413-0.946-22.642-2.065l3.241-111.693
		c14.294-3.449,27.959-4.983,40.999-4.602c15.226,0.439,27.659,3.463,37.314,9.066
		C1126.333,432.677,1134.107,448.926,1133.444,471.868z M1103.535,471.937c0.306-10.427-2.97-18.247-9.81-23.455
		c-5.615-4.337-13.115-6.644-22.498-6.915c-3.965-0.115-7.209,0.052-9.724,0.502l-1.788,61.634
		c12.1,0.144,22.146-2.492,30.131-7.895C1098.679,490.011,1103.241,482.053,1103.535,471.937z"/>
	<g id="XMLID_378_">
		<g>
			<path id="XMLID_11_" fill="#3DAE2B" d="M1279.887,584.294c-1.802,11.367-12.575,19.193-23.943,17.388l-97.526-15.467
				c-11.367-1.799-19.193-12.573-17.388-23.94l30.687-193.538c1.805-11.37,12.578-19.193,23.946-17.391l97.52,15.462
				c11.367,1.802,19.193,12.572,17.391,23.943L1279.887,584.294z"/>
		</g>
	</g>
	<path id="XMLID_376_" fill="#FFFFFF" d="M1271.029,506.517c-1.895,11.955-9.626,20.399-23.187,25.324
		c-12.792,4.735-28.311,5.652-46.547,2.762c-13.706-2.174-25.606-5.75-35.693-10.733l13.726-27.613
		c4.02,2.647,9.689,5.185,17.013,7.613c6.52,2.197,12.509,3.726,17.97,4.591c17.518,2.78,26.702,1.488,27.553-3.87
		c0.588-3.708-5.436-7.359-18.072-10.946c-17.071-4.925-28.671-9.406-34.791-13.443c-11.981-7.705-16.878-18.467-14.689-32.276
		c1.681-10.612,7.021-18.64,16.018-24.078c12.019-7.18,29.932-8.884,53.733-5.11c10.51,1.667,21.777,4.248,33.793,7.734
		l-13.746,28.724c-12.696-5.185-24.767-8.683-36.206-10.496c-15.762-2.5-24.176-0.401-25.237,6.298
		c-0.738,4.637,5.24,8.91,17.93,12.826c18.449,5.565,30.186,9.804,35.22,12.717C1267.987,483.748,1273.056,493.743,1271.029,506.517
		z"/>
	<path id="XMLID_374_" fill="#FFFFFF" d="M285.543,412.382l0.141,25.601c-5.413,1.147-14.306,3.229-26.688,6.249l10.606,91.546
		c-9.323,1.793-19.903,4.256-31.728,7.376l-9.617-91.381c-10.744,2.705-21.97,5.929-33.68,9.672l-1.606-28.231
		c24.828-6.788,53.021-13.218,84.576-19.291L285.543,412.382z"/>
	<g id="XMLID_332_">
		<g>
			<path id="XMLID_10_" fill="#3D7CC9" d="M452.672,578.371c-0.809,11.483-10.87,20.208-22.347,19.395l-98.488-6.955
				c-11.481-0.813-20.213-10.871-19.401-22.348l13.817-195.473c0.812-11.477,10.87-20.208,22.347-19.395l98.491,6.955
				c11.481,0.813,20.21,10.871,19.401,22.348L452.672,578.371z"/>
		</g>
	</g>
	<path id="XMLID_330_" fill="#FFFFFF" d="M427.996,510.041l-6.369,27.948c-7.979-1.09-15.766-1.897-23.361-2.439l-3.903-0.271
		c-17.901-1.269-33.657-1.805-47.266-1.615l8.231-116.46c25.08,0.308,49.7,1.211,73.861,2.707l-4.522,21.806
		c-2.708-0.19-5.881-0.415-9.522-0.675c-8.016-0.565-17.878-0.894-29.583-0.992l-1.413,19.983c3.664-0.058,9.191,0.179,16.581,0.698
		l7.495,0.53c3.641,0.26,6.239,0.496,7.794,0.71l-4.968,23.651l-7.96-0.559c-6.974-0.496-13.861-0.721-20.663-0.681l-1.688,23.888
		C397.152,508.386,412.905,508.974,427.996,510.041z"/>
	<g id="XMLID_328_">
		<g>
			<path id="XMLID_9_" fill="#9D1D96" d="M605.766,570.579c0.862,11.483-7.819,21.575-19.297,22.44l-98.452,7.399
				c-11.475,0.865-21.573-7.82-22.436-19.297l-14.699-195.404c-0.862-11.477,7.822-21.575,19.297-22.44l98.449-7.399
				c11.478-0.859,21.574,7.82,22.436,19.297L605.766,570.579z"/>
		</g>
	</g>
	<path id="XMLID_326_" fill="#FFFFFF" d="M569.588,502.826l-4.83,31.749c-22.89,1.724-43.813,3.818-62.773,6.292l-8.746-116.261
		c8.42-2.099,18.063-3.974,28.922-5.629l6.727,89.42C540.438,506.171,554.005,504.308,569.588,502.826z"/>
	<path id="XMLID_276_" fill="#3CB4E5" d="M1439.454,578.682c0.715,11.488-8.097,21.468-19.585,22.186l-98.533,6.131
		c-11.483,0.718-21.465-8.094-22.181-19.579l-12.18-195.583c-0.715-11.488,8.097-21.468,19.585-22.186l98.533-6.134
		c11.488-0.718,21.468,8.1,22.186,19.582L1439.454,578.682z"/>
	<g id="RTL_1_">
		<path id="XMLID_275_" fill="#FFFFFF" d="M221.711,289.179v32.815h8.629v-33.215h24.18v-7.81h-24.611
			C221.711,280.969,221.711,289.179,221.711,289.179z"/>
		<path id="XMLID_274_" fill="#FFFFFF" d="M304.165,314.184v-33.215h-8.629v32.817c0,0,0,8.208,8.199,8.208h24.614v-7.81H304.165z"
			/>
		<path id="XMLID_272_" fill="#FFFFFF" d="M267.255,272.777h-8.629v41.009c0,8.208,8.093,8.208,8.093,8.208h24.707v-7.81h-24.17
			v-25.406h24.17v-7.81h-24.17V272.777z"/>
	</g>
	<g id="XMLID_316_">
		<path id="XMLID_317_" fill="#FFFFFF" d="M1380.315,539.486c0,5.721-3.771,10.952-11.319,15.699
			c-6.691,4.136-12.841,6.206-18.434,6.206c-13.264,0-19.896-4.505-19.896-13.508c0-4.626,2.309-8.946,6.937-12.961
			c5.716-4.867,13.441-7.302,23.18-7.302c5.352,0,9.793,0.852,13.328,2.555C1378.243,532.366,1380.315,535.468,1380.315,539.486z
			 M1391.999,416.087c-10.467,32.129-17.341,64.134-20.63,96.016c-2.555,0.246-12.535,2.619-29.935,7.119
			c0.241-37.357,2.861-71.738,7.848-103.136H1391.999z"/>
	</g>
</g>
</svg>
