<?xml version="1.0" encoding="utf-8"?>
<!-- Generator: Adobe Illustrator 22.1.0, SVG Export Plug-In . SVG Version: 6.00 Build 0)  -->
<svg version="1.2" baseProfile="tiny" xmlns="http://www.w3.org/2000/svg" xmlns:xlink="http://www.w3.org/1999/xlink" x="0px"
	 y="0px" viewBox="0 0 1600 900" xml:space="preserve">
<g id="Layer_1">
	<polygon fill-rule="evenodd" fill="#FFC61E" points="145.3,645.5 1454.8,645.5 1454.8,279 145.3,279 145.3,645.5 	"/>
	<polygon points="1204.6,582.3 1281.3,582.3 1390.1,342.2 1313.4,342.2 1204.6,582.3 	"/>
	<polygon points="1076.7,582.3 1127.8,582.3 1236.7,342.2 1185.5,342.2 1076.7,582.3 	"/>
	<polygon points="948.8,582.3 974.3,582.3 1083.2,342.2 1057.6,342.2 948.8,582.3 	"/>
	<path d="M210,422.2v160H252v-162H370v-38.1h-120C210,382.2,210,422.2,210,422.2L210,422.2z"/>
	<path d="M612.1,544.2v-162H570v160.1c0,0,0,40,40,40h120v-38.1H612.1L612.1,544.2z"/>
	<path d="M432.1,342.2H390v200c0,40,39.5,40,39.5,40H550v-38.1H432.1V420.3H550v-38.1H432.1V342.2L432.1,342.2z"/>
	<polygon points="791.3,582.3 846.8,582.3 955.7,342.2 789.3,342.2 767.7,390 878.6,389.9 791.3,582.3 	"/>
</g>
<g id="Laag_2" display="none">
</g>
</svg>
