<?xml version="1.0" encoding="utf-8"?>
<!-- Generator: Adobe Illustrator 22.1.0, SVG Export Plug-In . SVG Version: 6.00 Build 0)  -->
<svg version="1.2" baseProfile="tiny" xmlns="http://www.w3.org/2000/svg" xmlns:xlink="http://www.w3.org/1999/xlink" x="0px"
	 y="0px" viewBox="0 0 1600 900" xml:space="preserve">
<g id="Layer_1">
	<g>
		<path fill="#009B8F" d="M1140.6,427c0-29.2,2-41,50.4-41h28.8l50.8-56.5h-190.2v112.4h60.2V427z"/>
		<polygon fill="#009B8F" points="1359.7,386 1359.7,329.5 1294.5,329.5 1073.7,576.3 1073.7,635.8 1135.8,635.8 		"/>
		<path fill="#009B8F" d="M1298,533.1c0,35.8-5.2,43.1-55.8,43.1l-28.7,0l-53.8,59.6h200V518H1298V533.1z"/>
	</g>
	<path fill="#FFFFFF" d="M245.9,635.8V390.9c0-45.3,28.5-61.4,60.1-61.4h184.8v58.3H310.3v248H245.9z"/>
	<path fill="#FFFFFF" d="M586.3,387.8v189.7h180.4v58.3H581.9c-31.6,0-60.1-16.1-60.1-61.4V268.1h64.5v61.4h180.4v58.3H586.3z"/>
	<path fill="#FFFFFF" d="M862.2,577.5h180.4v58.3H857.9c-31.6,0-60.1-16.1-60.1-61.4V329.5h64.5V577.5z"/>
</g>
<g id="Laag_2" display="none">
</g>
</svg>
