<?xml version="1.0" encoding="utf-8"?>
<!-- Generator: Adobe Illustrator 22.1.0, SVG Export Plug-In . SVG Version: 6.00 Build 0)  -->
<svg version="1.1" id="Layer_1" xmlns="http://www.w3.org/2000/svg" xmlns:xlink="http://www.w3.org/1999/xlink" x="0px" y="0px"
	 viewBox="0 0 1600 900" enable-background="new 0 0 1600 900" xml:space="preserve">
<g>
	<path fill="#FFFFFF" d="M870.791,542.413c-6.175,16.025-17.366,23.584-22.558,20.748c-10.796-5.897,5.235-133.568,10.234-181.044
		c1.667-15.997-39.362,2.298-42.734,32.29c-3.086,23.548-6.066,59.225-6.577,86.662c-5.674,38.514-15.713,57.761-27.68,58.014
		c-12.954,0.263-10.435-57.895,11.603-174.049c-4.221-10.881-40.502,8.489-47.695,46.542
		c-10.799,56.575-25.792,181.655,29.324,181.655c17.405,0,28.805-23.773,37.239-49.878c5.102,17.989,9.935,28.094,15.909,34.066
		C845.724,615.285,889.636,548.284,870.791,542.413z"/>
	<path fill="#FFFFFF" d="M385.997,519.192c9.337,9.337,27.642,16.516,40.112,17.73l-2.92-73.916
		c-3.665-151.886,20.069-289.657,70.97-295.3c70.133-7.769,151.478,372.778-21.861,388.471
		c-0.955,27.586-5.996,58.142-11.781,78.246c94.514,45.53,144.979,57.85,218.04,30.277c29.433-11.104,12.234,61.824-43.104,68.993
		c-64.898,8.408-124.827-25.998-188.092-64.792c-14.338,25.637-34.388,41.025-58.147,43.66
		c-84.262,9.337-140.718-122.963-71.149-130.668c23.19-2.568,62.783,16.821,108.143,38.697c0.632-14.952,0.583-43.611-0.098-65.297
		c-10.032-2.657-19.715-7.503-26.453-11.323C385.152,535.752,381.646,524.512,385.997,519.192z M420.28,651.864
		c-38.138-23.824-69.363-42.124-85.762-40.305c-26.019,2.882,18.324,72.399,51.129,68.762
		C404.31,678.256,414.804,669.644,420.28,651.864z M472.056,537.806c115.303-25.464,41.374-335.318,23.712-333.363
		c-22.624,2.504-30.879,123.411-24.95,249.276C471.568,475.966,471.871,515.499,472.056,537.806z"/>
	<path fill="#FFFFFF" d="M682.775,538.107c-25.377-11.512-23.48-61.311-0.894-64.118c16.524-1.696,27.205,8.946,30.562,30.978
		c6.061-2.093,22.015-6.082,34.706-25.662c5.791-7.372,4.6,6.688,2.9,13.054c-10.153,14.141-20.305,26.469-35.346,36.359
		c-3.731,50.708-25.235,115.346-68.578,114.645c-95.344-1.541-84.144-223.524,9.648-232.224
		c58.699-5.448,56.302,64.93,23.206,51.245c-0.016-6.617-5.836-25.162-17.405-25.14c-42.096,0.107-50.388,167.376-11.603,167.28
		C663.202,604.488,675.724,582.206,682.775,538.107z"/>
	<path fill="#FFFFFF" d="M978.007,350.466c20.607-1.148,34.942,5.739,31.055,50.071c-5.675,58.208-14.888,115.851-4.482,126.717
		c11.35,10.768,33.014-25.103,34.587-29.093c13.657-3.625-13.053,70.589-47.863,63.82c-40.668-7.905-26.917-93.705-19.192-151.876
		c1.765-12.274-0.907-14.088-3.439-14.127c-6.607-0.102-26.539,32.814-39.631,78.368c-2.374,8.266-6.498,27.312-9.629,52.895
		c-0.782,5.315-0.291,16.855-2.665,30.199c-2.592,14.569-7.782,23.963-13.435,23.878c-20.627-0.31-21.162-38.076-20.976-79.371
		c0.228-49.997,2.734-82.518,8.716-120.279c3.912-24.156,44.49-41.733,43.201-32.416c-5.333,40.56-13.243,69.516-14.505,100.562
		C931.89,406.119,941.22,358.856,978.007,350.466z"/>
	<path fill="#FFFFFF" d="M1148.105,528.078c0.105,90.906-9.476,192.849-51.593,194.074
		c-71.043,2.065-133.221-162.856,15.871-170.745l-1.547-52.632c-6.918,24.077-22.799,43.212-39.545,43.699
		c-63.432,1.844-44.386-232.551,34.27-234.84c58.864-1.71,51.671,88.869,12.663,74.767c4.946-21.982-4.611-44.612-14.249-44.328
		c-26.394,0.762-46.883,163.789-25.574,163.171c14.213-0.418,28.042-56.895,33.219-105.801c12.014-5.934,34.008-0.481,35.59,18.774
		c1.199,23.834-0.586,57.613,0.255,86.54c6.887-1.873,16.314-4.773,27.917-27.98c5.541-0.294,5.439,11.24,1.45,21.03
		C1170.669,507.951,1163.876,517.229,1148.105,528.078z M1112.546,574.763c-90.147,8.714-43.312,129.89-19.931,130.223
		C1106.831,705.077,1112.696,649.423,1112.546,574.763z"/>
	<path fill="#FFFFFF" d="M1217.601,415.638c1.526,32.964,10.298,57.472,31.093,56.503c23.831-1.104,41.752-30.921,54.453-74.71
		c7.108-1.802,11.289,9.181,7.47,27.568c-9.79,47.14-40.446,77.816-72.903,79.321c-41.079,1.911-58.711-44.199-58.117-97.079
		c0.264-59.982,23.454-131.475,65.042-133.41C1303.465,271.095,1280.846,409.651,1217.601,415.638z M1217.788,397.844
		c33.06-21.359,40.362-93.869,24.641-93.135C1231.27,305.23,1219.241,352.543,1217.788,397.844z"/>
	<path fill="#FFFFFF" d="M663.374,284.559c-1.174-3.532-1.96-5.691-1.96-16.873V246.1c0-12.752-4.319-17.459-14.127-17.459h-7.456
		v55.918h-21.584V147.207h32.573c22.369,0,31.984,10.403,31.984,31.593v10.792c0,14.127-4.515,23.351-14.129,27.864
		c10.79,4.513,14.323,14.912,14.323,29.234v21.192c0,6.672,0.199,11.579,2.356,16.677L663.374,284.559L663.374,284.559z
		 M639.83,166.831v42.188h8.437c8.045,0,12.95-3.534,12.95-14.518v-13.539c0-9.813-3.336-14.131-10.987-14.131H639.83z"/>
	<path fill="#FFFFFF" d="M694.572,147.207h66.717v19.623h-22.567v117.729h-21.582V166.831h-22.567L694.572,147.207L694.572,147.207z
		"/>
	<path fill="#FFFFFF" d="M774.02,147.207h21.585V264.94h35.513v19.62H774.02V147.207z"/>
</g>
</svg>
