<?xml version="1.0" encoding="utf-8"?>
<!-- Generator: Adobe Illustrator 22.1.0, SVG Export Plug-In . SVG Version: 6.00 Build 0)  -->
<svg version="1.2" baseProfile="tiny" xmlns="http://www.w3.org/2000/svg" xmlns:xlink="http://www.w3.org/1999/xlink" x="0px"
	 y="0px" viewBox="0 0 1600 900" xml:space="preserve">
<g id="Layer_1">
	<g>
		<rect x="203.7" y="359.3" fill="#D3093E" width="399.3" height="207.5"/>
		<rect x="1002.4" y="359.3" fill="#004E9B" width="399.3" height="207.5"/>
		<rect x="603" y="359.3" fill="#FAB600" width="399.3" height="207.5"/>
		<polygon fill="#FFFFFF" points="1182.5,395.1 1182.5,499.5 1330.8,499.5 1330.8,530.9 1067,530.9 1067,395.1 1182.5,395.1 		"/>
		<polygon fill="#FFFFFF" points="928.9,427 853.5,427 853.4,530.9 745.6,530.9 745.7,427 669.2,427 669.2,395.1 928.9,395.1 		"/>
		<path fill-rule="evenodd" fill="#FFFFFF" d="M411.2,426.2c9.2,0,14.5,7.8,14.5,14.8c0,8.3-5.5,14.7-13.4,15.5l-47.5,0l0.1-30.3
			L411.2,426.2L411.2,426.2z M475.1,395c22.2,0,46.6,13.4,46.6,46c0,24.2-20.5,43.1-41.9,42.6l-2.8,0.2l66.4,47.1H437.8l-52.2-44.5
			l-20.7,0l0,44.4H264l0.1-135.8H475.1L475.1,395z"/>
	</g>
</g>
<g id="Laag_2" display="none">
</g>
</svg>
