<?xml version="1.0" encoding="utf-8"?>
<!-- Generator: Adobe Illustrator 22.1.0, SVG Export Plug-In . SVG Version: 6.00 Build 0)  -->
<svg version="1.1" xmlns="http://www.w3.org/2000/svg" xmlns:xlink="http://www.w3.org/1999/xlink" x="0px" y="0px"
	 viewBox="0 0 1600 900" enable-background="new 0 0 1600 900" xml:space="preserve">
<g id="Layer_1">
	<g>
		<path fill="#DF3035" d="M398.564,285.875H296v-101.2h102.564V285.875z M398.564,322.672H296v101.203h102.564V322.672z
			 M398.564,460.675H296v101.198h102.564V460.675z M398.564,598.672H296v101.197h102.564V598.672z"/>
		<path fill="#7C7B7B" d="M503.509,221.689c15.777,0,18.644,0.36,23.305,2.152c9.681,4.301,15.053,15.413,15.053,31.549
			c0,20.077-11.469,32.265-31.186,32.265c-1.078,0-4.304-0.36-7.172-0.715V221.689z M456.188,184.405v239.128h47.321V313.109
			l41.944,110.424h49.836l-41.591-108.99c22.945-13.983,34.063-32.983,34.063-59.154c0-26.173-10.4-48.04-28.322-59.87
			c-11.831-7.887-27.249-11.114-51.985-11.114H456.188z M736.221,184.405v43.737h-37.287v195.392h-47.326V228.142h-36.924v-43.737
			H736.221z M805.805,184.405l25.452,92.495c6.45,23.303,7.535,30.113,11.114,58.794c0,0.718,0.36,3.227,0.719,6.093
			c1.073-9.32,0.36-3.941,1.792-17.565c2.152-19.719,5.023-35.494,8.608-47.323l26.166-92.495h49.475l-66.319,239.128h-38.718
			l-69.196-239.128H805.805z M503.509,460.753v158.456c0,31.908,5.738,41.946,23.305,41.946c19.358,0,23.661-7.889,23.661-41.946
			V460.753h47.326V638.93c0,43.732-22.951,64.889-70.987,64.889c-35.494,0-58.794-13.985-67.04-39.434
			c-3.23-9.684-3.586-12.906-3.586-32.271V460.753H503.509z M685.274,495.523v44.101h18.283v36.926h-18.283v123.329H640.46V576.55
			h-15.417v-36.926h15.417v-44.101H685.274z M768.805,539.624v19.353c11.469-16.847,20.078-22.938,36.923-25.093v43.382
			c-3.219-0.716-4.658-0.716-6.45-0.716c-11.831,0-21.153,4.304-26.168,11.824c-3.23,5.023-4.304,10.757-4.304,27.967v83.538
			h-44.814V539.624H768.805z M900.019,604.154h-32.268c-0.354-2.149-0.354-3.947-0.354-4.66c0-17.929,6.09-29.04,16.491-29.04
			c10.041,0,16.131,11.111,16.131,29.04V604.154z M898.227,650.404c-0.36,13.619-5.017,19.353-14.339,19.353
			c-11.833,0-16.491-10.031-16.856-37.998h70.635c0.714-8.245,1.073-15.061,1.073-18.646c0-47.676-20.441-76.716-54.132-76.716
			c-37.651,0-60.591,33.338-60.591,87.116c0,49.829,22.941,79.588,61.305,79.588c18.999,0,35.136-9.319,42.665-24.373
			c3.585-7.889,5.377-13.631,7.889-28.323H898.227z M1047.364,580.128c-4.304-3.935-7.529-5.017-12.906-5.017
			c-16.491,0-25.812,16.137-25.812,44.461c0,26.528,9.321,41.583,25.458,41.583c4.658,0,7.883-1.073,13.26-4.661v40.873
			c-10.394,4.298-16.131,5.734-25.452,5.734c-35.853,0-58.799-32.262-58.799-82.093c0-52.349,23.666-84.611,61.664-84.611
			c8.608,0,13.625,1.073,22.587,4.658V580.128z M1122.294,444.262v120.454c9.681-19.359,21.868-28.32,38.004-28.32
			c11.114,0,21.154,5.733,25.093,14.698c3.585,8.245,4.663,17.564,4.663,41.589v107.195h-44.814v-91.427
			c0-22.227-2.152-27.242-10.76-27.242c-9.675,0-12.187,5.377-12.187,27.242v91.427h-44.814V444.262H1122.294z M1273.227,495.523
			v44.101h18.283v36.926h-18.283v123.329h-44.814V576.55h-15.418v-36.926h15.418v-44.101H1273.227z"/>
	</g>
</g>
<g id="Laag_2">
</g>
</svg>
