<?xml version="1.0" encoding="utf-8"?>
<!-- Generator: Adobe Illustrator 22.1.0, SVG Export Plug-In . SVG Version: 6.00 Build 0)  -->
<svg version="1.2" baseProfile="tiny" xmlns="http://www.w3.org/2000/svg" xmlns:xlink="http://www.w3.org/1999/xlink" x="0px"
	 y="0px" viewBox="0 0 1600 900" xml:space="preserve">
<g id="Layer_1">
	<g>
		<path fill="#FFFFFF" d="M954.7,599.4c-8.5,0-14-1.9-16.2-2.4c-21.1-4.2-37.9-15.2-50.8-32.5c-32.5-43.7-65.1-87.4-97.7-131.1
			c-9.6-12.9-19.3-25.9-29-38.8c-0.5-0.7-0.9-1.4-1.8-2.6c2.1,0,3.5,0,4.9,0c21.9,0,43.9,0.1,65.8-0.1c3.5,0,5.6,1.2,7.6,3.9
			c33,44.3,66.2,88.5,99.3,132.7c6.2,8.3,13.8,11.1,22.4,8.5c4.9-1.5,8.2-5,11.2-9c33-44.1,66.1-88.2,99-132.4
			c2-2.6,3.9-3.7,7.3-3.7c21.9,0.2,43.9,0.1,65.8,0.1c1.4,0,2.8,0,4.3,0c0.1,1.9-1.1,2.7-1.9,3.7c-42.1,56.5-84.3,113-126.4,169.6
			c-12.8,17.2-29.7,27.6-50.6,32C965.6,597.8,960,599.4,954.7,599.4z"/>
		<path fill="#BF563D" d="M1290.1,392c-3.6,3.8-6,8.4-8.8,12.7c-40.2,60.8-80.3,121.6-120.5,182.5c-0.7,1.1-1.5,2.1-2.6,3.7
			c-4.9-14.4-9.6-28.2-14.4-42c-10.3-30-20.5-59.9-30.9-89.9c-0.8-2.2-1-3.9,0.5-6.1c41.4-60,82.7-120.1,124-180.1
			c0.2-0.2,0.4-0.4,0.6-0.7c1.7,0.7,1.6,2.3,2.2,3.6c15.8,36.7,31.5,73.5,47.3,110.2c0.7,1.5,0.7,3.5,2.6,4.4
			C1290.1,390.8,1290.1,391.4,1290.1,392z"/>
		<path fill="#FFFFFF" d="M305.8,492.2c0.3-10.5,1.2-14.5,1.5-16.1c8.6-48.8,50.1-84,99.5-84.1c35.4-0.1,70.9,0.1,106.3-0.1
			c3.8,0,4.5,1.2,4.5,4.7c-0.2,17.6-0.2,35.3,0,52.9c0,3.9-1.2,4.5-4.7,4.5c-34.7-0.1-69.4-0.1-104.1-0.1
			c-24.7,0-41.3,16.6-41.3,41.2c0,31.6-0.1,63.2,0.1,94.7c0,4.2-1.3,4.8-5,4.7c-17.5-0.2-35-0.1-52.5-0.1c-1.5,0-2.9,0.2-4.4,0.3
			C305.8,556.9,305.8,530.2,305.8,492.2z"/>
		<path fill="#BF563D" d="M1229.3,270c0.2,2.1-1.1,3.7-1.9,4.9c-24.5,35.7-49,71.3-73.4,107c-2.1,3-4.2,4.2-7.9,4.2
			c-26.1-0.2-52.2-0.1-78.3,0c-2.8,0-4.5-0.7-6-3.3c-21.8-36.3-43.8-72.5-65.7-108.7c-0.7-1.2-2.1-2.2-1.5-3.9"/>
		<path fill="#FFFFFF" d="M530.1,416.8c0-27.4,0.1-54.9-0.1-82.3c0-3.2,0.6-4.2,4-4.2c17.9,0.2,35.9,0.2,53.8,0
			c3.1,0,3.9,0.8,3.9,3.9c-0.2,17.9,0,35.9-0.2,53.8c0,3.4,0.9,4.1,4.2,4.1c51.5-0.1,102.9,0,154.4-0.2c4.1,0,5.5,0.7,5.4,5.2
			c-0.3,17.3-0.3,34.7,0,52.1c0,3.8-0.8,4.9-4.8,4.9c-51.3-0.2-102.6,0-153.9-0.2c-4.3,0-5.4,1-5.2,5.3c0.5,13.2-0.8,26.4,0.6,39.6
			c2.1,19.2,18.5,33.6,37.9,33.9c16.9,0.2,33.8,0.1,50.7,0.1c34.1,0,68.2,0,102.3-0.1c3.2,0,4.3,0.6,4.2,4
			c-0.2,18.1-0.2,36.2,0,54.3c0,2.9-0.7,3.7-3.7,3.7c-51.3-0.1-102.6,0.3-153.9-0.2c-55.7-0.5-99.6-45.5-99.7-101.2
			C530.1,467.8,530.1,442.3,530.1,416.8z"/>
		<path fill="#BF563D" d="M1106.8,460c7.2,20.5,14.2,40.3,21.1,60.1c8.1,23.2,16.2,46.4,24.4,69.6c1.1,3.2,1,4.3-2.8,4.3
			c-43.4,0-86.9,0.2-130.3,0.3c-1.3,0-2.9,0.6-3.8-0.5c-0.9-1.2,0.6-2.1,1.3-3c29.5-43,59.1-86,88.6-128.9
			C1105.6,461.4,1106,461,1106.8,460z"/>
	</g>
</g>
<g id="Laag_2" display="none">
</g>
</svg>
