<?xml version="1.0" encoding="utf-8"?>
<!-- Generator: Adobe Illustrator 22.1.0, SVG Export Plug-In . SVG Version: 6.00 Build 0)  -->
<svg version="1.2" baseProfile="tiny" xmlns="http://www.w3.org/2000/svg" xmlns:xlink="http://www.w3.org/1999/xlink" x="0px"
	 y="0px" viewBox="0 0 1600 900" xml:space="preserve">
<g id="Layer_1">
	<g id="g3836" transform="matrix(0.99630166,0,0,0.99630166,630.83313,274.71902)">
		<path id="path3817" fill="#D5307F" d="M291.5,90.6c25.6-3,51.4,0.1,76.4,5.6c-1.2,10.7-2.4,21.5-3.6,32.3
			c-14.2-1.3-28.5-2.7-42.6-4.2c-7.1-0.7-14.7-1.5-21.5,1.4c-5,2-8.2,6.7-9.7,11.8c-1.4,5.6-2.5,12,0.7,17.2
			c3.5,5.4,9.8,7.9,15.7,9.9c16.8,5.4,35.4,6.9,50.4,17.1c5.9,4.1,11,9.6,13.8,16.3c5.4,12.1,4.6,25.7,2.3,38.5
			c-1.2,4.4-2.1,9-4.4,13.1c-5.1,12.1-15.9,21.3-28.2,25.7c-14.3,5.2-30,5.3-44.9,3.3c-15.8-2.4-31.7-4.8-47.5-7.2
			c2.1-12,4.3-23.9,6.4-36c19.5,3.6,39.1,6.7,59,7.6c4.5,0,9.6-0.5,12.9-3.8c4-3.8,5-9.6,5.7-14.8c0.7-5.1-0.8-10.5-4.9-13.7
			c-6.3-4.8-14.2-6.4-21.6-8.2c-15-3.3-30.9-6.6-42.7-16.9c-10.7-9.6-15.1-24.2-15.5-38.2c-1-11.9,2.7-23.8,9.4-33.7
			C264.7,101.7,277.2,92.6,291.5,90.6z"/>
		<path id="path3819" fill="#D5307F" d="M439.8,92.8c18.2,0,36.4,0,54.5,0c18.8,61.6,37.6,123.3,56.4,184.9
			c-14.4-0.1-28.9,0.1-43.4-0.1c-3.3-12.5-6.7-24.9-10-37.4c-20.1,0-40.3,0-60.5,0c-3.4,12.5-6.7,25-10.1,37.5
			c-14.4,0-28.8,0-43.3,0C402.3,216.2,421.1,154.5,439.8,92.8 M445.6,208c14.4,0,28.7,0,43.1,0c-7.2-26.6-14.3-53.3-21.5-79.9
			C459.8,154.7,452.9,181.4,445.6,208z"/>
		<path id="path3821" fill="#D5307F" d="M538.4,92.8c47.3,0,94.4,0,141.7,0c0,12.4,0,24.7,0,37.1c-16.6,0-33.2,0-49.7,0
			c-0.1,49.2,0,98.5,0,147.8c-14.1,0-28.1,0-42.1,0c0-49.3,0-98.6,0-147.8c-16.6,0-33.2,0-49.8,0
			C538.4,117.6,538.4,105.2,538.4,92.8L538.4,92.8z"/>
		<path id="path3823" fill="#D5307F" d="M775.8,99.6c1-0.7,2.1-0.7,3.3-0.7c12.8,0,25.4,0,38.2,0v178.9c-13.5,0-27,0.1-40.3-0.1
			c0-44.7,0-89.5,0-134.1c-9.7,5.9-19.3,11.9-29,17.8c-6.6-11-13.3-21.9-19.9-32.8C743.9,118.9,759.8,109.2,775.8,99.6z"/>
		<path id="path3825" fill="#D5307F" d="M684,230.9c14.1,0,28.2,0,42.3,0c0,15.6,0,31.3,0,46.9c-14.1,0-28.2,0-42.3,0
			C684,262.2,684,246.5,684,230.9z"/>
	</g>
	<path fill="#D5307F" d="M443.3,165.4c-157,0-284.2,127.1-284.2,283.9c0,46.1,11,89.6,30.5,128.1c0,0.1,0,0.3,0,0.4
		c0.4,0.3,0.9,0.5,1.4,0.8c1.6,4.7,3.7,9.6,6.3,14.5c7.6,14,17.5,28.4,25.5,37.6c17.8,20.5,38.5,39.4,56.6,50.8
		c-0.3-0.1,11.2,7.6,15.5,9.6h0.1c43.2,27,94,41.9,148.4,41.9c157,0,284.2-127,284.2-283.8S600.2,165.4,443.3,165.4z"/>
	<g>
		<path fill="#E6E6E6" d="M154.6,440.6c-0.6,35,5.4,86.9,25,127.7c14.9,25.1,82.4,22.9,94.3,23.3C221,561.7,156.4,507.9,154.6,440.6
			z"/>
		<path fill="#E6E6E6" d="M154.6,440.6c0.1-6.7,0.5-12.8,1.1-18C154.8,428.7,154.5,434.7,154.6,440.6z"/>
		<path fill="#E6E6E6" d="M725.4,383.8c0.1,0.2,0.1,0.5,0.1,0.7c-0.1-1.6-0.5-4.3-1.4-7.3C724.7,379.2,725.1,381.4,725.4,383.8z"/>
		<path fill="#E6E6E6" d="M724.2,377.3c-0.7-2.4-1.5-4.4-2.4-6.1C722.8,373.1,723.6,375.3,724.2,377.3z"/>
		<path fill="#E6E6E6" d="M725.6,384.5c0,0.2,0,0.5,0,0.7C724.2,465.4,441,585.2,274,591.6c112.7,67,321.1,93.9,410.3,10.9
			c1.7-1.6,3.4-3.4,5.2-5.5l0,0l0,0C714.4,568.3,748,490.3,725.6,384.5z"/>
		<path fill="#E6E6E6" d="M721.3,370.3c-1.4-2.5-3.3-4.7-5.6-6.2C717.3,365.2,719.4,367.1,721.3,370.3z"/>
		<path fill="#E6E6E6" d="M705.5,340.5c0.2-0.3,1.8-2.2,1.6-9.1c-0.3-12.8-47-91.5-111.4-127.3c-1.6-0.9-5.1-0.8-7.9-0.2
			c-27.3,5.8-76.5,44.3-132.9,110.3c-65.4,76.7-131.6,168.3-181,277.5C397.2,557,665,412.8,705.5,340.5z"/>
		<path fill="#E6E6E6" d="M430.2,740c0.3,0,0.6,0,1,0c-0.6,0-1.2,0-1.7,0C429.7,740,429.9,740,430.2,740z"/>
		<path fill="#E6E6E6" d="M535.9,684.4c-93,0.4-184.1-30.9-261.9-92.7c34.7,53.6,88.9,132.6,180.1,145.6c-7.5,1.7-15.1,2.6-22.9,2.7
			c4.2-0.1,8.4-0.3,12.3-0.8c4-0.5,7.6-1.1,10.6-1.9c3.8,0.5,7.8,1,11.7,1.3c34.4,2.7,99.3-21.7,127.9-39.9
			c48.8-31,89.5-72.6,95.8-101.5C673.7,643,627.3,684,535.9,684.4z"/>
		<path fill="#E6E6E6" d="M366.2,717.9C309,679.3,283.4,612.7,274,591.6c-7.1,49.7-3.9,93.9,21.1,108.2
			c21.1,12.1,53.5,28.4,90.8,35.2c8.9,1.6,19.3,4.1,33.2,4.8c6.8,0.3,2.3,0.2,10.5,0.2c-6.1,0-12.1-0.6-17-1.8
			C386.1,731.5,382.3,728.7,366.2,717.9z"/>
		<polygon fill="#E6E6E6" points="275.2,679.3 275.2,679.3 275.2,679.3 		"/>
		<path fill="#E6E6E6" d="M193.4,597.4C193.6,597.7,192.2,595.6,193.4,597.4c10.8,18.3,26.5,38.8,43,55.8
			c10.4,10.7,13.7,13.5,18.9,17.9c3,2.5,6.1,4.7,9.2,6.3c-2.1-1.1-4-2.5-5.1-4c-3.3-4.6-3.7-11.1-3.4-19c0.8-19.3,10.8-45.1,18-62.8
			C255,598,204.8,611.6,193.4,597.4z"/>
		<path fill="#E6E6E6" d="M272.1,679.6c1.2,0.1,2.2,0,3.1-0.3C274.2,679.6,273.2,679.6,272.1,679.6z"/>
		<path fill="#E6E6E6" d="M272.1,679.6c-2.2-0.1-4.9-0.9-7.2-2C267.4,678.8,269.8,679.5,272.1,679.6z"/>
		<path fill="#E6E6E6" d="M324.6,190.6c-45.1,3-155.7,102.7-165.1,213.6c0,0.3,0,0.5,0,0.8c-1.6,3.5-2.9,9.6-3.8,17.5
			c0.8-5.6,2.1-11.3,3.8-17c2.6,67.2,46,131.3,114.5,186.1C173.4,409.8,212.5,212.4,324.6,190.6z"/>
		<path fill="#E6E6E6" d="M551.2,181.1c-40.3-20.8-158.2-37.9-226.6,9.5c-113.2,91.4-90.2,303.7-50.6,401
			c16.1-103.6,73.2-222.4,128.8-299.4C460,213,516.6,166.3,551.2,181.1z"/>
		<path fill="#E6E6E6" d="M566.5,193.9c-1.3-1.8-2.7-3.5-4.2-4.9c0.3,0.3,0.6,0.7,0.8,1C564,191,562.5,189,566.5,193.9z"/>
		<path fill="#E6E6E6" d="M551.2,181.1c3.9,2,7.1,4.1,9.5,6.1C557.7,184.6,554.5,182.6,551.2,181.1z"/>
	</g>
</g>
<g id="Laag_2" display="none">
</g>
</svg>
