<?xml version="1.0" encoding="utf-8"?>
<!-- Generator: Adobe Illustrator 22.1.0, SVG Export Plug-In . SVG Version: 6.00 Build 0)  -->
<svg version="1.2" baseProfile="tiny" xmlns="http://www.w3.org/2000/svg" xmlns:xlink="http://www.w3.org/1999/xlink" x="0px"
	 y="0px" viewBox="0 0 1600 900" xml:space="preserve">
<g id="Layer_1">
	<path fill="#50B5F1" d="M764.6,827c-3.6-1.6-7.6-1-11.3-1.4c-48.4-4.5-93.5-19.2-135.2-43.9c-57.6-34.1-100.8-81.6-129.3-142.3
		c-14.1-30-23.3-61.4-27.7-94.3c-2.4-17.5-3.4-35.1-2.9-52.7c1.3-44.1,11.1-86.2,29.5-126.3c18.2-39.6,43.4-74.3,75.4-103.9
		c26.6-24.5,56.6-44,89.8-58.5c0.6-0.2,1.1-0.4,1.9-0.7c0.6,1.5-0.4,2.3-1,3.3c-31.8,55-63.7,109.9-95.5,164.9
		c-17.8,30.9-29.2,64-33.2,99.4c-7.7,68.6,8.7,131.1,49.8,186.4c39.5,53.1,92.5,86,157.3,99.6c17.9,3.8,36.1,5.6,54.4,5.1
		c63.5-1.6,119.9-22.4,167.8-64.2c46.2-40.3,75.3-91.1,85.3-151.5c13.3-80.3-6.8-152.4-59.5-214.5c-38.3-45.1-87.5-72.8-145.4-85.1
		c-2.7-0.6-3.5-0.9-1.9-3.7c10.5-18,20.9-36,31.3-54.1c1-1.7,1.9-1.8,3.7-1.3c44.8,12.2,85.2,32.9,121.2,62.2
		c36.6,29.7,65.3,65.8,86.1,108.1c15.7,31.9,26.1,65.6,30.6,100.9c0.9,7.3,1.8,14.5,2.2,21.8c0,0.7-0.1,1.6,0.7,2
		c0,12.4,0,24.7,0,37.1c-1.5,3.9-1,8.1-1.3,12.1c-2.3,24.9-7.3,49.3-15.4,72.9c-24.4,71-67.6,127.7-130.4,169
		c-45.2,29.7-94.9,46.8-148.8,51.9c-4.3,0.4-8.7-0.1-12.9,1.3C788.2,827,776.4,827,764.6,827z"/>
	<path fill="#FFFFFF" d="M758.1,286.3c37.7-4,73.6,0.5,107.9,14.9c47.6,20,84,52.5,108.6,98c16.1,29.8,24.6,61.6,25.6,95.5
		c1.6,56.8-16.4,106.7-53.4,149.5c-32.6,37.7-73.9,61.3-122.7,70.3c-65.9,12.1-125.7-3.1-177.9-45.1c-42.3-34-67.6-78.7-76.7-132.1
		c-7.4-43.3-1.8-85.2,16.4-125.3c9.1-19.9,21-38.3,31.9-57.2c36.2-62.8,72.6-125.5,108.9-188.2c18.6-32,37.1-64,55.6-96.1
		c1.1-2,2.4-2.6,4.6-2.5c29.5,0.2,58.7,3.6,87.6,9.5c3.4,0.7,3.3,1.6,1.8,4.3c-38.8,66.9-77.6,133.9-116.4,200.9
		C759.4,283.7,758.9,284.7,758.1,286.3z M783,631.7c71.9,0.1,130.3-57.6,130.6-129c0.3-72-56.9-130.5-129.5-131
		c-72-0.5-130.7,57.9-130.8,129.7C653.3,573.3,711.3,631.6,783,631.7z"/>
</g>
<g id="Laag_2" display="none">
</g>
</svg>
