<?xml version="1.0" encoding="utf-8"?>
<!-- Generator: Adobe Illustrator 22.1.0, SVG Export Plug-In . SVG Version: 6.00 Build 0)  -->
<svg version="1.1" xmlns="http://www.w3.org/2000/svg" xmlns:xlink="http://www.w3.org/1999/xlink" x="0px" y="0px"
	 viewBox="0 0 1600 900" enable-background="new 0 0 1600 900" xml:space="preserve">
<g id="Layer_1">
	<g>
		<path fill="#D6D9DC" d="M803.146,205.877C662.577,203.751,555.94,316.599,552.8,444.689
			c-3.435,140.088,110.034,252.309,245.691,252.317c136.541,0.008,246.496-110.221,246.659-245.549
			C1044.901,315.659,935.498,207.879,803.146,205.877z M799.009,687.062c-131.116-0.818-233.924-104.913-236.168-230.987
			c-2.403-135.016,106.567-238.504,232.587-240.152c132.73-1.736,239.779,105.779,239.637,235.701
			C1034.924,581.059,928.87,686.949,799.009,687.062z"/>
		<path fill="#D6D9DC" d="M929.477,575.455c-0.005-0.041-0.001-0.083,0.014-0.127c-7.492-3.262-15.27-5.995-22.427-9.876
			c-33.935-18.402-58.193-45.794-73.853-80.928c-9.297-20.859-15.263-42.734-19.08-65.185c-1.891-11.122-3.093-22.361-4.607-33.547
			c0.432-1.103,0.417-2.172-0.244-3.192c0.241-1.739,0.242-3.457-0.471-5.108c0.401-4.012,0.272-7.99-0.762-11.911
			c-0.05-1.92-0.1-3.841-0.15-5.761c0.005-12.278,0.01-24.556,0.015-36.834c0.426-1.397,0.36-2.806,0.102-4.22
			c0.034-0.507,0.069-1.015,0.103-1.522c1.234-9.724,1.639-19.485,1.685-29.27c0.857-4.639,1.899-12.515,1.138-14.761
			c0.159,2.169-1.327,9.615-1.758,14.31c-1.301,5.314-1.766,10.71-1.946,16.143c-0.06,1.065-0.119,2.129-0.179,3.194
			c-1.646,9.503-2.105,19.09-2.045,28.715c-0.718,13.108-0.585,26.219-0.099,39.33c0.081,8.798,0.29,17.586,2.134,26.24
			c2.517,31.012,9.472,60.897,22.309,89.352c12.743,28.245,31.228,51.617,57.509,68.415c10.436,6.67,21.513,12.068,33.467,15.519
			c1.82,1.09,3.764,1.788,5.904,1.865c1.05,0.879,2.371,0.75,3.599,0.967c6.766,2.893,13.932,3.498,21.217,3.514
			c-7.187-1.816-14.375-3.632-21.562-5.449C929.476,575.372,929.472,575.414,929.477,575.455z"/>
		<path fill="#D6D9DC" d="M791.306,312.716c-0.057-0.505-0.113-1.01-0.17-1.516c0.227-2.837,0.318-5.661-0.742-8.384
			c-0.054-0.817-0.108-1.633-0.163-2.45c-1.31-8.842-1.495-17.848-3.612-26.575c-0.137,2.533-0.108,5.045,0.258,7.507
			c1.261,8.479,0.169,17.169,2.337,25.559c-0.376,2.613-0.23,5.198,0.437,7.752c0.07,7.612,0.21,15.224,0.192,22.836
			c-0.025,10.256-0.171,20.512-0.265,30.768c-0.476,2.034-0.734,4.078-0.295,6.156c-0.841,2.383-1.127,4.818-0.695,7.321
			c-0.936,2.997-0.65,6.092-0.725,9.157c-1.079,4.995-1.685,10.049-1.906,15.151c-0.694,3.552-1.453,7.095-1.491,10.739
			c-1.252,2.71-1.652,5.581-1.605,8.535c-1.94,7.963-3.723,15.968-5.848,23.882c-6.611,24.62-16.309,47.873-31.491,68.535
			c-18.181,24.746-41.334,43.235-69.937,54.707c-1.607,0.333-3.149,0.808-4.381,1.973c-0.502,0.092-1.005,0.183-1.507,0.275
			c-4.535,1.342-9.069,2.683-13.604,4.025c7.562,0.734,14.429-1.422,21.152-4.222c0.69-0.087,1.423-0.052,2.064-0.278
			c32.872-11.587,58.721-32.029,77.326-61.53c15.752-24.975,24.659-52.528,30.148-81.301c3.823-20.04,5.75-40.304,6.367-60.694
			c0.455-15.055,0.268-30.098-0.86-45.123C792.58,321.208,792.221,316.941,791.306,312.716z"/>
		<path fill="#D6D9DC" d="M749.206,815.3c-2.39-3.052-2.316-4.347,1.25-6.411c6.433-3.723,9.22-9.901,8.718-17.285
			c-0.469-6.902-3.705-12.146-10.285-14.942c-8.436-3.584-17.151-3.06-25.864-1.483c-2.536,0.459-3.328,2.507-3.302,5.081
			c0.095,9.347,0.037,18.696,0.037,28.044c0,9.627,0.039,19.254-0.022,28.881c-0.021,3.308,1.743,4.451,4.719,4.376
			c2.897-0.073,4.195-1.466,4.131-4.48c-0.133-6.276-0.138-12.559,0.023-18.833c0.042-1.651-1.365-4.546,1.71-4.668
			c2.939-0.116,6.431-1.764,8.771,1.848c3.165,4.886,6.324,9.79,9.781,14.468c2.547,3.446,4.436,7.435,7.742,10.262
			c2.35,2.009,5.333,2.325,7.675,0.35c2.61-2.201,0.166-4.2-1.139-6.024C758.552,828.052,754.077,821.52,749.206,815.3z
			 M742.593,804.033c-0.503,0.23-1.022,0.426-1.537,0.627c-3.474,1.351-7.465,2.084-10.637,0.866
			c-4.09-1.571-1.057-6.049-1.844-9.137c-0.2-0.785-0.03-1.664-0.03-2.5c0-2.089,0-4.179,0-6.268
			c-0.002-5.73,0.231-6.081,6.129-5.813c5.187,0.236,10.55,0.72,13.511,5.845C751.659,793.665,748.963,801.114,742.593,804.033z"/>
		<path fill="#D6D9DC" d="M861.671,781.323c6.035-0.097,11.355,2.283,16.559,5.081c1.92,1.032,4.082,1.273,5.435-1.118
			c1.251-2.211,1.049-4.272-0.958-5.986c-0.527-0.45-1.092-0.873-1.693-1.215c-11.083-6.301-22.655-6.751-34.113-1.696
			c-13.139,5.797-17.861,17.053-18.077,30.699c-0.197,2.69,0.343,5.285,0.71,7.914c3.655,26.203,34.092,33.794,52.144,21.875
			c2.593-1.712,3.644-3.858,1.928-6.669c-1.892-3.1-4.23-1.662-6.45-0.354c-4.02,2.368-8.303,4.023-12.985,4.234
			c-15.482,0.7-26.564-11.408-25.839-28.125C838.991,790.728,847.635,781.55,861.671,781.323z"/>
		<path fill="#D6D9DC" d="M555.958,829.677c-4.118,2.474-8.504,4.215-13.332,4.41c-15.212,0.613-25.696-10.376-25.762-26.891
			c-0.054-13.441,5.905-22.085,17.482-25.109c7.615-1.989,14.595,0.033,21.257,3.736c2.276,1.265,4.741,2.392,6.533-0.566
			c1.845-3.045,0.297-5.234-2.284-6.991c-3.401-2.315-7.256-3.416-11.194-4.367c-14.087-3.403-29.357,2.401-36.524,14.081
			c-4.831,7.873-5.367,16.565-4.358,25.468c1.342,11.841,7.223,20.761,18.101,25.61c11.816,5.267,23.629,4.573,34.721-2.435
			c2.295-1.45,3.294-3.769,1.496-6.476C560.234,827.347,558.088,828.398,555.958,829.677z"/>
		<path fill="#D6D9DC" d="M1084.758,832.818c-6.003-0.033-12.008-0.076-18.009,0.041c-2.36,0.046-3.628-0.451-3.559-3.185
			c0.148-5.86,0.095-11.727,0.021-17.59c-0.027-2.113,0.691-2.962,2.908-2.887c4.323,0.145,8.655-0.007,12.982,0.062
			c2.728,0.044,4.737-0.65,4.752-3.847c0.015-3.294-1.972-4.291-4.903-4.264c-4.048,0.037-8.103-0.12-12.144,0.057
			c-2.581,0.113-3.816-0.463-3.633-3.389c0.244-3.894,0.243-7.826-0.002-11.72c-0.174-2.77,0.965-3.221,3.385-3.147
			c5.3,0.16,10.609,0.016,15.914,0.056c2.877,0.022,4.845-0.681,4.902-4.161c0.058-3.55-1.94-4.161-4.816-4.144
			c-7.539,0.044-15.078-0.001-22.617,0.017c-5.005,0.012-6.051,1.062-6.068,6.194c-0.029,8.935-0.008,17.87-0.01,26.806
			c-0.002,9.075-0.024,18.15,0.007,27.224c0.016,4.762,1.262,6.141,5.817,6.181c8.376,0.073,16.754,0.055,25.13-0.004
			c2.935-0.02,5.745-0.433,5.613-4.435C1090.301,832.82,1087.474,832.833,1084.758,832.818z"/>
		<path fill="#D6D9DC" d="M979.89,832.802c-5.727,0.03-11.465-0.202-17.177,0.099c-3.789,0.2-4.709-1.185-4.669-4.793
			c0.176-16.201,0.04-32.405,0.114-48.608c0.015-3.315-1.061-5.5-4.623-5.483c-3.431,0.016-4.757,1.822-4.68,5.372
			c0.203,9.354,0.069,18.716,0.07,28.075c0.001,9.359,0.166,18.722-0.075,28.074c-0.106,4.107,1.755,5.578,5.416,5.591
			c8.52,0.03,17.041,0.029,25.562-0.005c2.845-0.011,5.539-0.63,5.571-4.168C985.431,833.378,982.818,832.786,979.89,832.802z"/>
		<path fill="#D6D9DC" d="M638.082,774.019c-3.454,0.001-4.768,1.949-4.751,5.403c0.094,18.979,0.073,37.958,0.028,56.937
			c-0.007,3.148,1.032,5.138,4.466,5.204c3.526,0.067,4.924-1.671,4.884-5.173c-0.111-9.628-0.038-19.258-0.038-28.887h0.014
			c0-9.35-0.113-18.702,0.059-28.049C642.807,775.974,641.571,774.018,638.082,774.019z"/>
		<path fill="#D6D9DC" d="M825.096,95.513c0.003,9.493-0.01,18.986,0.01,28.479c0.007,3.172,1.533,4.993,4.825,5.005
			c3.376,0.012,4.612-1.817,4.544-5.064c-0.116-5.582-0.036-11.167-0.038-16.751c-0.002-6.506-0.001-6.431,6.382-6.454
			c1.867-0.007,2.874,0.472,3.919,2.176c2.753,4.488,5.864,8.76,8.898,13.073c2.636,3.748,5.237,7.531,8.09,11.111
			c1.815,2.277,6.617,2.691,8.395,0.948c2.597-2.546-0.02-4.433-1.2-6.141c-4.73-6.846-9.549-13.643-14.658-20.207
			c-1.931-2.481-1.734-3.103,1.01-4.696c12.201-7.081,13.238-24.598,1.696-31.652c-8.653-5.288-18.38-4.92-27.987-2.718
			c-3.038,0.696-3.93,3.129-3.911,6.089C825.13,77.644,825.093,86.579,825.096,95.513z M834.44,81.804
			c0-3.449,0.161-6.245-0.046-9.014c-0.199-2.666,0.952-3.446,3.391-3.303c4.121,0.241,8.323-0.499,12.194,1.826
			c4.215,2.532,5.683,6.267,5.276,10.9c-0.402,4.576-3.017,7.592-7.127,9.419c-0.126,0.056-0.263,0.092-0.397,0.13
			c-4.047,1.141-8.987,2.923-12.115,0.756C832.377,90.275,835.184,85.01,834.44,81.804z"/>
		<path fill="#D6D9DC" d="M740.031,129.404c1.395,0,2.804,0.129,4.182-0.023c5.745-0.632,11.179-2.076,15.822-5.826
			c2.142-1.729,2.498-3.722,1.149-5.818c-1.31-2.036-3.279-2.339-5.469-1.011c-1.543,0.935-3.204,1.677-4.824,2.483
			c-8.043,3.998-19.966,2.385-26.632-3.668c-9.212-8.364-9.605-19.092-7.245-30.075c1.888-8.788,7.876-14.079,16.773-16.035
			c8.011-1.761,15.158,0.44,21.923,4.48c2.312,1.381,3.984,0.766,5.352-1.224c1.359-1.977,1.303-3.937-0.596-5.581
			c-0.941-0.815-1.948-1.596-3.033-2.197c-16.013-8.869-43.998-4.987-49.987,19.185C701.899,106.487,713.537,129.78,740.031,129.404
			z"/>
		<path fill="#D6D9DC" d="M616.411,128.509c4.324-0.113,8.652-0.028,12.979-0.029c4.466-0.001,8.934-0.087,13.397,0.029
			c3.026,0.079,4.96-1.063,4.996-4.195c0.037-3.251-2.096-4.17-5.024-4.138c-6.28,0.069-12.565-0.109-18.839,0.091
			c-2.659,0.085-3.33-0.817-3.259-3.323c0.16-5.578,0.185-11.168-0.008-16.744c-0.093-2.676,0.894-3.311,3.371-3.201
			c4.039,0.18,8.098,0.164,12.138-0.011c2.635-0.114,5.057-0.883,5.035-4.299c-0.023-3.523-2.348-3.94-5.131-3.898
			c-4.046,0.061-8.098-0.087-12.14,0.06c-2.243,0.082-3.333-0.458-3.249-2.956c0.146-4.321,0.103-8.653,0.004-12.977
			c-0.049-2.143,0.709-2.924,2.909-2.87c5.44,0.131,10.886-0.023,16.327,0.07c2.692,0.046,4.809-0.496,4.907-3.664
			c0.098-3.177-1.858-4.501-4.753-4.522c-7.955-0.059-15.91-0.057-23.865-0.001c-2.932,0.021-4.721,1.4-4.72,4.581
			c0.01,19.12,0.01,38.24-0.001,57.361C611.484,127.197,613.116,128.595,616.411,128.509z"/>
		<path fill="#D6D9DC" d="M940.441,95.164c0,9.36,0.083,18.721-0.041,28.079c-0.05,3.777,1.562,5.301,5.258,5.264
			c8.66-0.088,17.323-0.051,25.984-0.019c2.795,0.01,5.058-0.493,5.165-3.961c0.114-3.688-2.185-4.357-5.187-4.339
			c-6.007,0.037-12.02-0.146-18.019,0.074c-3.039,0.112-4.255-0.649-4.092-3.909c0.259-5.156,0.2-10.339,0.018-15.501
			c-0.1-2.84,0.709-3.999,3.733-3.861c4.317,0.196,8.661,0.106,12.977-0.145c2.478-0.144,4.21-1.602,4.09-4.346
			c-0.123-2.82-1.923-3.741-4.536-3.706c-4.33,0.058-8.664-0.084-12.991,0.054c-2.377,0.076-3.275-0.866-3.237-3.163
			c0.068-4.05,0.129-8.107-0.023-12.152c-0.107-2.845,1.172-3.567,3.783-3.489c5.025,0.15,10.057,0.027,15.086,0.052
			c2.786,0.014,5.57,0.055,5.521-3.884c-0.045-3.615-2.563-4.273-5.425-4.29c-7.544-0.045-15.088-0.008-22.631-0.019
			c-3.757-0.006-5.555,1.607-5.485,5.6C940.551,76.722,940.441,85.944,940.441,95.164z"/>
		<path fill="#D6D9DC" d="M511.302,125.896c4.201,2.422,8.784,3.477,13.6,3.622c10.405,0.221,18.199-4.704,20.933-13.231
			c2.718-8.476-0.415-16.721-9.051-22.552c-4.125-2.785-8.803-4.738-13.022-7.398c-3.502-2.209-6.429-5.213-5.817-9.827
			c0.556-4.193,3.365-6.588,7.461-7.409c4.453-0.893,8.518,0.073,12.362,2.491c2.216,1.394,4.945,2.324,6.651-0.432
			c1.797-2.905,0.289-5.315-2.404-7.006c-3.655-2.295-7.765-2.972-11.959-3.344c-9.342-0.828-17.695,3.879-20.658,11.641
			c-2.812,7.368,0.141,15.037,8.437,20.666c4.229,2.87,8.985,4.954,13.311,7.696c7.388,4.682,8.306,13.705,2.064,18.511
			c-3.802,2.928-12.063,2.793-16.661-0.246c-1.388-0.917-2.785-1.835-4.247-2.623c-1.525-0.821-3.009-0.587-4.15,0.758
			c-1.02,1.202-1.749,2.525-1.057,4.212C507.931,123.464,509.471,124.84,511.302,125.896z"/>
		<path fill="#D6D9DC" d="M1087.925,62.219c-1.342-0.296-2.765-0.299-4.152-0.302c-11.306-0.022-22.612-0.013-33.918-0.012
			c-2.652,0-5.306-0.058-7.955,0.026c-2.731,0.086-5.003,0.853-5.08,4.209c-0.081,3.545,2.19,4.007,5.011,3.965
			c4.605-0.069,9.217,0.11,13.816-0.065c2.721-0.103,3.671,0.808,3.624,3.573c-0.143,8.372-0.052,16.749-0.05,25.123
			c0.001,8.375-0.055,16.75,0.025,25.124c0.041,4.229,2.704,6.083,6.582,4.834c3.038-0.978,2.723-3.534,2.727-5.864
			c0.027-16.052,0.119-32.104-0.066-48.154c-0.043-3.737,1.149-4.885,4.79-4.658c4.588,0.286,9.208,0.039,13.814,0.067
			c2.382,0.014,3.626-1.087,3.77-3.478C1090.997,64.379,1090.199,62.721,1087.925,62.219z"/>
	</g>
</g>
<g id="Laag_2">
</g>
</svg>
