<?xml version="1.0" encoding="utf-8"?>
<!-- Generator: Adobe Illustrator 22.1.0, SVG Export Plug-In . SVG Version: 6.00 Build 0)  -->
<svg version="1.1" xmlns="http://www.w3.org/2000/svg" xmlns:xlink="http://www.w3.org/1999/xlink" x="0px" y="0px"
	 viewBox="0 0 1600 900" enable-background="new 0 0 1600 900" xml:space="preserve">
<g id="Layer_1">
	<g>
		<rect x="496.763" y="101.988" fill="#231F20" width="608.845" height="582.406"/>
		<rect x="509.511" y="116.121" fill="#34B052" width="583.35" height="420.709"/>
		<g id="Layer_x0020_1_1_">
			<g id="_206921384">
				<g>
					<g>
						<g>
							<rect x="602.453" y="474.07" fill="#F5CD1C" width="215.852" height="62.76"/>
							<path fill="#3F3174" d="M619.54,116.121l0.171,0.166h-0.294c-2.173,2.984-33.324,47.232-32.018,127.889
								c1.69,37.723,14.546,79.508,41.614,107.25c26.389,27.236,62.421,46.352,98.284,59.039
								c62.761,22.16,182.696,48.211,238.014,80.352c6.259,3.725,12.349,9.812,15.562,16.072c4.57,8.797,6.091,18.775,4.06,29.941
								h107.927V332.818c-38.909-36.371-303.819-43.645-292.145-130.256c3.888-28.926,42.628-45.504,91.684-39.416
								c27.069,3.385,74.604,36.541,74.773,73.924h125.687V116.121H619.54z"/>
							<path fill="#FFFFFF" d="M610.586,116.29l-0.174-0.17c0,0-0.045,0.061-0.125,0.17H610.586z"/>
						</g>
						<polygon fill="#CD2027" points="602.623,474.07 818.475,474.07 818.475,536.829 602.623,536.829 						"/>
					</g>
					<g>
						<g>
							<path fill="#FFFFFF" d="M791.167,648.958v12.119h54.369v-13.332h-17.662v-51.771l69.608,65.279h19.912V583.16
								c0,0-0.172-3.635,2.771-3.635c2.942,0,15.237,0,15.237,0v-14.199h-54.717v14.025h15.239c0,0,3.463,0,3.463,3.637
								c0,3.635,0,41.729,0,41.729l-60.951-58.869h-46.922v12.984h16.621v69.953l-16.796,0.348L791.167,648.958z"/>
							<polygon fill="#FFFFFF" points="947.694,565.847 947.694,580.042 964.838,580.042 1004.316,625.931 1004.316,648.267 
								987.867,648.267 987.867,661.078 1050.895,661.078 1050.895,647.919 1032.71,647.919 1032.71,626.966 1074.787,580.218 
								1089.852,580.218 1089.852,565.152 1037.214,565.152 1037.214,580.218 1047.604,580.218 1025.092,608.265 1003.104,583.851 
								1003.104,580.042 1012.452,580.218 1012.628,565.326 							"/>
							<path fill="#FFFFFF" d="M627.712,565.847h-12.814v7.098c0,0-3.808-4.502-17.662-8.311
								c-22.855-6.236-48.48-6.236-69.261,6.924c-13.158,8.312-17.315,23.029-8.831,36.707c6.754,11.086,32.035,15.24,42.77,16.277
								c23.548,2.598,66.837,8.312,36.362,24.07c-8.486,3.809-16.796,6.75-43.116,0.346c-11.254-4.502-18.874-5.195-24.933-23.375
								c-5.543,0.348-14.374,0-14.374,0v37.4l16.104,0.346v-5.887h2.772c0,0,22.508,11.947,57.14,10.043
								c11.947-2.426,25.454-3.984,36.016-17.838c10.733-14.021,6.232-29.605-5.715-38.957
								c-10.735-8.482-33.247-10.561-44.501-12.293c-18.527-1.559-31.86-4.502-31.86-4.502s-9.522-5.367-1.556-12.812
								c5.886-5.367,19.738-5.713,26.664-5.367c7.446,0.689,22.164,0,35.323,7.965c4.851,4.154,8.138,8.311,8.831,14.717h12.642
								l-0.174-32.727L627.712,565.847z"/>
							<g>
								<path fill="#FFFFFF" d="M716.539,559.787c-38.268,0-69.261,24.41-69.261,54.541c0,30.129,30.993,54.543,69.261,54.543
									c38.265,0,69.261-24.414,69.261-54.543C785.8,584.197,754.804,559.787,716.539,559.787z M717.057,651.208
									c-22.338,0-40.343-16.621-40.343-37.053c0-20.432,18.005-37.055,40.343-37.055c22.336,0,40.346,16.623,40.346,37.055
									C757.402,634.587,739.393,651.208,717.057,651.208z"/>
							</g>
						</g>
					</g>
				</g>
			</g>
		</g>
		<path fill="#231F20" d="M496.826,702.163v7.062h6.101c0.833,0,1.607,0.652,1.607,1.479v24.43c0,0.826-0.774,1.479-1.607,1.479
			h-6.101v7.062h43.68v-0.137v-6.926v-10.25h-7.062c0,0,0.07,10.25-10.468,10.25h-5.555v-11.289c1.405,0.121,5.28,1.002,5.28,7.055
			h6.75v-7.074v-5.551v-7.072h-6.75c0,6.053-3.875,6.932-5.28,7.053v-10.508h5.555c10.539,0,10.468,10.25,10.468,10.25h7.062v-10.25
			v-6.924v-0.139H496.826z"/>
		<path fill="#231F20" d="M541.208,759.652v7.059h6.102c0.833,0,1.607,0.654,1.607,1.482v24.428c0,0.826-0.774,1.48-1.607,1.48
			h-6.102v7.061h43.681v-0.139v-6.922v-10.252h-7.062c0,0,0.071,10.252-10.467,10.252h-5.557v-11.289
			c1.405,0.119,5.281,0.998,5.281,7.053h6.75v-7.072v-5.555v-7.072h-6.75c0,6.055-3.876,6.934-5.281,7.053V766.71h5.557
			c10.538,0,10.467,10.252,10.467,10.252h7.062V766.71v-6.922v-0.137H541.208z"/>
		<path fill="#231F20" d="M630.776,759.652v7.059h6.102c0.833,0,1.608,0.654,1.608,1.482v24.428c0,0.826-0.775,1.48-1.608,1.48
			h-6.102v7.061h43.681v-0.139v-6.922v-10.252h-7.061c0,0,0.07,10.252-10.469,10.252h-5.556v-11.289
			c1.406,0.119,5.281,0.998,5.281,7.053h6.75v-7.072v-5.555v-7.072h-6.75c0,6.055-3.875,6.934-5.281,7.053V766.71h5.556
			c10.539,0,10.469,10.252,10.469,10.252h7.061V766.71v-6.922v-0.137H630.776z"/>
		<path fill="#231F20" d="M638.44,702.163v7.062h6.1c0.832,0,1.607,0.652,1.607,1.479v24.43c0,0.826-0.775,1.479-1.607,1.479h-6.1
			v7.062h26.149h10.468h7.062v-7.062v-10.111h-7.062c0,0,0.054,8.92-8.5,10.111h-7.523v-11.289c1.406,0.121,5.28,1.002,5.28,7.055
			h6.75v-7.074v-5.551v-7.072h-6.75c0,6.053-3.874,6.932-5.28,7.053v-10.508h5.555c10.539,0,10.468,10.25,10.468,10.25h7.062v-10.25
			v-6.924v-0.139H638.44z"/>
		<path fill="#231F20" d="M964.644,702.163v7.062h6.103c0.831,0,1.606,0.652,1.606,1.479v24.43c0,0.826-0.775,1.479-1.606,1.479
			h-6.103v7.062h43.679v-0.137v-6.926v-10.25h-7.06c0,0,0.068,10.25-10.469,10.25h-5.555v-11.289c1.408,0.121,5.28,1.002,5.28,7.055
			h6.75v-7.074v-5.551v-7.072h-6.75c0,6.053-3.872,6.932-5.28,7.053v-10.508h5.555c10.538,0,10.469,10.25,10.469,10.25h7.06v-10.25
			v-6.924v-0.139H964.644z"/>
		<polygon fill="#231F20" points="544.961,702.302 566.32,702.302 580.002,727.48 580.002,709.878 573.661,709.878 573.661,702.163 
			594.686,702.163 594.686,709.872 588.479,709.872 588.479,743.488 574.158,743.488 559.619,716.445 559.619,736.613 
			566.415,736.613 566.415,743.488 544.961,743.488 544.961,736.613 550.986,736.613 550.986,709.872 544.961,709.872 		"/>
		<polygon fill="#231F20" points="848.298,702.302 869.657,702.302 883.34,727.48 883.34,709.878 876.999,709.878 876.999,702.163 
			898.024,702.163 898.024,709.872 891.816,709.872 891.816,743.488 877.497,743.488 862.957,716.445 862.957,736.613 
			869.754,736.613 869.754,743.488 848.298,743.488 848.298,736.613 854.326,736.613 854.326,709.872 848.298,709.872 		"/>
		<polygon fill="#231F20" points="873.161,759.492 894.519,759.492 908.203,784.671 908.203,767.066 901.863,767.066 
			901.863,759.353 922.887,759.353 922.887,767.062 916.679,767.062 916.679,800.677 902.359,800.677 887.819,773.632 
			887.819,793.804 894.617,793.804 894.617,800.677 873.161,800.677 873.161,793.804 879.188,793.804 879.188,767.062 
			873.161,767.062 		"/>
		<polygon fill="#231F20" points="1040.838,702.163 1040.838,709.878 1047.179,709.878 1047.179,727.48 1033.496,702.302 
			1012.138,702.302 1012.138,709.872 1018.163,709.872 1018.163,736.613 1012.138,736.613 1012.138,743.488 1033.591,743.488 
			1033.591,736.613 1026.796,736.613 1026.796,716.445 1041.333,743.488 1055.656,743.488 1055.656,709.872 1061.862,709.872 
			1061.862,702.163 		"/>
		<path fill="#231F20" d="M629.681,702.302h-6.709h-3.757h-6.258h-3.759h-6.708h-7.062v17.174h7.062c0,0-0.036-7.609,6.708-9.707
			v26.844h-0.405h-6.025v6.875h26.637v-6.875h-6.432v-26.844c6.746,2.098,6.709,9.707,6.709,9.707h7.062v-17.174H629.681z"/>
		<path fill="#231F20" d="M531.018,759.976h-6.709h-3.761h-6.256h-3.759h-6.71h-7.06v17.174h7.06c0,0-0.034-7.611,6.71-9.709v26.848
			h-0.406h-6.025v6.873h26.637v-6.873h-6.43v-26.848c6.743,2.098,6.709,9.709,6.709,9.709h7.06v-17.174H531.018z"/>
		<path fill="#231F20" d="M766.519,702.302h-6.709h-3.759h-6.258h-3.759h-6.708h-7.063v17.174h7.063c0,0-0.036-7.609,6.708-9.707
			v26.844h-0.406h-6.024v6.875h26.637v-6.875h-6.431v-26.844c6.745,2.098,6.709,9.707,6.709,9.707h7.061v-17.174H766.519z"/>
		<path fill="#231F20" d="M1098.322,702.302h-6.709h-3.761h-6.257h-3.759h-6.708h-7.062v17.174h7.062c0,0-0.035-7.609,6.708-9.707
			v26.844h-0.406h-6.024v6.875h26.636v-6.875h-6.429v-26.844c6.743,2.098,6.709,9.707,6.709,9.707h7.06v-17.174H1098.322z"/>
		<g>
			<path fill="#231F20" d="M728.164,730.747c0,0,0,2.824,0,3.561c0,0.734-0.344,2.305-1.079,2.305c-0.736,0-0.736-1.064-0.736-2.26
				c0-1.191,0-5.51,0-6.106c0-0.598-0.642-5.281-3.856-5.281v-1.469c0,0,5.647-0.689,5.647-8.404c0-7.713-5.35-10.791-8.621-10.791
				c-3.272,0-34.084,0-34.084,0v7.57h6.566v26.74h-6.956v7.062h26.759v-7.062h-6.026v-11.307h5.372c0,0,1.55,0.207,1.55,1.551
				c0,1.342,0,6.922,0,8.092c0,1.172,2.514,9.23,10.848,9.23c8.334,0,9.712-7.232,9.712-13.432H728.164z M712.115,718.605h-6.336
				v-8.732c0,0,5.315,0,6.026,0c0.712,0,2.927,0.512,2.927,3.955C714.732,717.271,713.676,718.605,712.115,718.605z"/>
		</g>
		<g>
			<path fill="#231F20" d="M814.285,736.613l-11.526-34.311h-15.383l-11.936,34.311h-0.973h-3.393v6.875h19.746v-6.875h-5.192
				l1.312-6.047l10.866,0.096l1.671,5.951H797.7h-3.391v6.875h24.001v-6.875H814.285z M788.938,723.746l2.801-8.768h1.515
				l2.204,8.768H788.938z"/>
		</g>
		<g>
			<path fill="#231F20" d="M983.263,793.734l-11.528-34.31h-15.383l-11.936,34.31h-0.973h-3.392v6.873h19.743v-6.873h-5.191
				l1.312-6.047l10.832-0.023l1.705,6.07h-1.775h-3.392v6.873h24.003v-6.873H983.263z M957.914,780.867l2.8-8.77h1.516l2.204,8.77
				H957.914z"/>
		</g>
		<g>
			<path fill="#231F20" d="M1103.216,793.734l-11.528-34.31h-15.383l-11.936,34.31h-0.973h-3.392v6.873h19.744v-6.873h-5.192
				l1.313-6.047l10.831-0.023l1.706,6.07h-1.776h-3.39v6.873h24.001v-6.873H1103.216z M1077.867,780.867l2.8-8.77h1.516l2.204,8.77
				H1077.867z"/>
		</g>
		<polygon fill="#231F20" points="845.037,709.13 845.037,702.259 834.159,702.259 825.528,702.259 819.501,702.259 819.501,709.13 
			825.125,709.13 825.125,736.613 819.501,736.613 819.501,743.488 845.037,743.488 845.037,736.613 838.915,736.613 
			838.915,709.13 		"/>
		<polygon fill="#231F20" points="1057.141,766.275 1057.141,759.402 1046.263,759.402 1037.631,759.402 1031.604,759.402 
			1031.604,766.275 1037.228,766.275 1037.228,793.757 1031.604,793.757 1031.604,800.63 1057.141,800.63 1057.141,793.757 
			1051.02,793.757 1051.02,766.275 		"/>
		<polygon fill="#231F20" points="748.681,766.806 748.681,759.931 737.802,759.931 729.17,759.931 723.144,759.931 
			723.144,766.806 729.015,766.806 729.015,794.288 723.144,794.288 723.144,801.162 748.681,801.162 748.681,794.288 
			742.809,794.288 742.809,766.806 		"/>
		<polygon fill="#231F20" points="820.993,766.806 820.993,759.931 810.114,759.931 801.484,759.931 795.458,759.931 
			795.458,766.806 801.329,766.806 801.329,794.288 795.458,794.288 795.458,801.162 820.993,801.162 820.993,794.288 
			815.121,794.288 815.121,766.806 		"/>
		<polygon fill="#231F20" points="961.618,709.872 961.618,702.259 937.41,702.259 931.57,724.015 925.898,702.259 915.415,702.259 
			906.785,702.259 900.758,702.259 900.758,709.13 906.94,709.13 906.94,736.613 906.785,736.613 900.758,736.613 900.758,743.488 
			920.734,743.488 920.734,736.613 916.249,736.613 916.249,712.749 923.444,743.488 934.448,743.488 941.981,715.636 
			941.981,736.613 937.661,736.613 937.661,743.488 961.618,743.488 961.618,736.613 955.269,736.613 955.269,709.872 		"/>
		<rect x="926.83" y="751.777" fill="#231F20" width="0.254" height="0.086"/>
		<path fill="#231F20" d="M629.403,783.849h-7.061c0,0,0.069,10.252-10.469,10.252h-3.314V766.71h7.284v-7.059h-26.907v7.059h5.75
			v27.391h-5.75v7.061h39.247v-0.139h1.221V783.849z"/>
		<polygon fill="#231F20" points="721.269,759.652 701.713,759.652 701.713,766.71 707.019,766.71 701.172,788.574 695.145,766.71 
			699.727,766.71 699.727,759.652 675.887,759.652 675.887,766.71 680.933,766.71 691.79,801.162 705.778,801.162 717.04,766.71 
			721.269,766.71 		"/>
		<path fill="#231F20" d="M781.544,761.675c0,0-3.168-2.619-11.985-2.619s-17.357,5.787-17.357,13.225
			c0,7.44,7.576,11.711,14.671,12.812c7.095,1.102,12.329,3.168,12.329,5.51s-2.205,3.685-6.2,3.685
			c-10.882,0-13.192-9.609-13.192-9.609h-6.888v16.344h6.888v-2.43c0,0,7.041,3.395,15.49,3.395c8.448,0,16.301-5.6,16.301-12.762
			c0-7.164-4.546-12.537-12.674-14.051c-8.129-1.516-14.111-2.305-14.111-5.01c0-2.705,3.091-3.455,7.086-3.455
			c10.056,0,11.021,8.051,11.021,8.051h6.888v-15.109h-5.648C784.161,759.652,783.748,761.675,781.544,761.675z"/>
		<path fill="#231F20" d="M1017.967,761.675c0,0-3.169-2.619-11.985-2.619s-17.358,5.787-17.358,13.225
			c0,7.44,7.578,11.711,14.672,12.812c7.094,1.102,12.33,3.168,12.33,5.51s-2.204,3.685-6.199,3.685
			c-10.883,0-13.192-9.609-13.192-9.609h-6.888v16.344h6.888v-2.43c0,0,7.04,3.395,15.489,3.395c8.447,0,16.3-5.6,16.3-12.762
			c0-7.164-4.546-12.537-12.673-14.051c-8.127-1.516-14.111-2.305-14.111-5.01c0-2.705,3.091-3.455,7.085-3.455
			c10.057,0,11.021,8.051,11.021,8.051h6.888v-15.109h-5.648C1020.584,759.652,1020.17,761.675,1017.967,761.675z"/>
		<g>
			<path fill="#231F20" d="M847.588,759.652c-0.045,0-0.107,0-0.164-0.004c-0.056,0.004-0.118,0.004-0.164,0.004H847.588z"/>
			<path fill="#231F20" d="M869.577,778.755c0-19.355-19.01-19.119-22.153-19.107c0.057,0.004,0.119,0.004,0.164,0.004h-0.328
				c0.046,0,0.108,0,0.164-0.004c-3.142-0.012-22.152-0.248-22.152,19.107c0,20.773,15.857,23.193,22.162,23.231
				C853.748,801.949,869.577,799.783,869.577,778.755z M847.528,795.333h-0.209c-4.822,0-8.404-5.006-8.404-16.439
				c0-9.367,4.822-13.598,8.404-13.598h0.209c3.582,0,8.403,4.23,8.403,13.598C855.931,790.878,852.349,795.333,847.528,795.333z"/>
			<path fill="#231F20" d="M847.588,801.988c-0.049,0-0.107-0.002-0.155-0.002c-0.056,0-0.116,0.002-0.173,0.002H847.588z"/>
		</g>
	</g>
</g>
<g id="Laag_2">
</g>
</svg>
