<?xml version="1.0" encoding="utf-8"?>
<!-- Generator: Adobe Illustrator 22.1.0, SVG Export Plug-In . SVG Version: 6.00 Build 0)  -->
<svg version="1.1" id="Layer_1" xmlns="http://www.w3.org/2000/svg" xmlns:xlink="http://www.w3.org/1999/xlink" x="0px" y="0px"
	 viewBox="0 0 1600 900" enable-background="new 0 0 1600 900" xml:space="preserve">
<polygon fill="#FFFFFF" points="1181.054,372.14 1247.522,372.14 1247.528,546.186 1274.008,546.186 1274.007,372.14 
	1340.482,372.14 1340.482,348.419 1181.054,348.419 "/>
<path fill="#E22027" d="M1508.327,348.419c-15.998,58.2-33.927,115.295-58.751,171.288c-23.722-57.096-41.099-114.193-58.2-171.288
	h-29.238c20.687,65.922,42.753,131.845,71.99,197.768h29.514c29.514-65.647,51.58-131.57,72.266-197.768H1508.327z"/>
<path fill="#FFFFFF" d="M177.253,438.062l-53.786-13.24c-15.17-3.862-23.997-7.999-23.997-25.1
	c0-29.789,19.859-31.996,43.305-31.996c31.444,0,47.442,4.689,49.649,37.788h26.479c-0.827-29.789-12.688-61.509-74.473-61.509
	c-52.959,0-71.439,23.445-71.439,56.544c0,29.237,14.343,42.477,42.201,49.373l49.097,11.861
	c28.686,6.895,33.375,13.792,33.375,29.789c0,30.892-18.756,35.306-48.545,35.306c-35.581,0-54.889-6.62-56.268-44.408H66.371
	c0.828,52.959,34.478,68.13,80.541,68.13c43.029,0,77.231-13.24,77.231-59.303C224.144,461.232,209.249,445.785,177.253,438.062z"/>
<polyline fill="#FFFFFF" points="271.525,430.054 271.525,348.419 245.046,348.419 245.046,546.186 271.525,546.186 
	271.525,453.227 374.684,453.232 374.684,546.186 401.163,546.186 401.163,348.419 374.684,348.419 374.684,430.063 "/>
<path fill="#FFFFFF" d="M811.207,402.756c0-49.649-36.133-54.338-79.438-54.338h-77.783v197.768h26.479v-84.972l51.028,0.017
	l58.751,84.955h32.823l-60.406-86.61C792.727,455.991,811.207,443.027,811.207,402.756z M716.652,438.062v-0.008h-36.187v-66.467
	h61.51c26.479,0,41.925,3.31,41.925,31.444c0,30.341-12.688,35.03-42.477,35.03H716.652z"/>
<polygon fill="#FFFFFF" points="833.105,372.14 899.578,372.14 899.58,546.186 926.059,546.186 926.059,372.14 992.533,372.14 
	992.533,348.419 833.105,348.419 "/>
<path fill="#FFFFFF" d="M1118.323,438.062l-53.786-13.24c-15.17-3.862-23.997-7.999-23.997-25.1
	c0-29.789,19.859-31.996,43.305-31.996c31.443,0,47.442,4.689,49.648,37.788h26.479c-0.828-29.789-12.688-61.509-74.473-61.509
	c-52.959,0-71.439,23.445-71.439,56.544c0,29.237,14.343,42.477,42.201,49.373l49.097,11.861
	c28.686,6.895,33.375,13.792,33.375,29.789c0,30.892-18.757,35.306-48.545,35.306c-35.582,0-54.889-6.62-56.269-44.408h-26.479
	c0.828,52.959,34.478,68.13,80.542,68.13c43.028,0,77.231-13.24,77.231-59.303C1165.214,461.232,1150.319,445.785,1118.323,438.062z
	"/>
<polygon fill="#E22027" points="582.836,448.871 500.175,496.595 500.175,401.146 "/>
<circle fill="none" stroke="#FFFFFF" stroke-width="27" stroke-miterlimit="10" cx="527.892" cy="448.871" r="92.495"/>
</svg>
