<?xml version="1.0" encoding="utf-8"?>
<!-- Generator: Adobe Illustrator 22.1.0, SVG Export Plug-In . SVG Version: 6.00 Build 0)  -->
<svg version="1.1" xmlns="http://www.w3.org/2000/svg" xmlns:xlink="http://www.w3.org/1999/xlink" x="0px" y="0px"
	 viewBox="0 0 1599.999 900" enable-background="new 0 0 1599.999 900" xml:space="preserve">
<g id="Layer_1">
	<g id="layer1_4_" transform="translate(-1.87744,-1030.3929)">
		<g id="Petals">
			
				<linearGradient id="Petal_Orange_1_" gradientUnits="userSpaceOnUse" x1="608.4716" y1="2246.752" x2="613.5048" y2="2249.2686" gradientTransform="matrix(29.9422 0 0 -56.3922 -17554.9219 128036.2656)">
				<stop  offset="0" style="stop-color:#F67C13"/>
				<stop  offset="1" style="stop-color:#F1471C"/>
			</linearGradient>
			<path id="Petal_Orange" fill="url(#Petal_Orange_1_)" d="M705.547,1132.049c-16.559,4.482-47.386,11.805-55.771,35.652l0,0
				c-8.385,23.887-3.632,36.186,5.638,52.219l0,0c9.265,16.021,109.252,188.836,109.252,188.836l0,0l28.468-6.941l-25.126,7.402
				l28.114-8.219V1182.82c0-18.529-2.074-31.564-21.243-48.02l0,0c-8.242-7.078-19.163-9.408-30.228-9.408l0,0
				C729.994,1125.392,715.023,1129.512,705.547,1132.049"/>
			
				<linearGradient id="Petal_Red_1_" gradientUnits="userSpaceOnUse" x1="615.1737" y1="2245.6152" x2="617.6908" y2="2248.1321" gradientTransform="matrix(48.3318 0 0 -48.4189 -29145.9395 110114.5938)">
				<stop  offset="0" style="stop-color:#E62822"/>
				<stop  offset="1" style="stop-color:#F1471C"/>
			</linearGradient>
			<path id="Petal_Red" fill="url(#Petal_Red_1_)" d="M546.476,1223.644c-12.19,12.092-35.34,33.717-30.788,58.627l0,0
				c4.542,24.869,14.794,33.225,30.753,42.564l0,0c16.028,9.338,188.448,109.949,188.448,109.949l0,0l21.282-20.182l-18.176,18.914
				l20.357-21.096c0,0-98.855-173.441-108.013-189.543l0,0c-9.201-16.062-17.443-26.395-42.279-31.182l0,0
				c-2.15-0.393-4.335-0.6-6.448-0.6l0,0C579.033,1191.098,557.643,1212.586,546.476,1223.644"/>
			
				<linearGradient id="Petal_Purple_1_" gradientUnits="userSpaceOnUse" x1="616.1777" y1="2240.5813" x2="618.6937" y2="2245.613" gradientTransform="matrix(56.532 0 0 -29.8833 -34316.2734 68445.9688)">
				<stop  offset="0" style="stop-color:#A51B59"/>
				<stop  offset="1" style="stop-color:#E62822"/>
			</linearGradient>
			<path id="Petal_Purple" fill="url(#Petal_Purple_1_)" d="M490.813,1325.465c-23.853,8.424-32.552,42.072-36.956,58.695l0,0
				c-2.188,8.139-5.466,19.631-6.271,31.426l0,0v10.43c0.703,8.77,3.312,17.262,9.334,24.281l0,0
				c16.523,19.197,29.559,21.203,48.093,21.164l0,0c18.491-0.068,218.184-0.492,218.184-0.492l0,0l8.135-28.143l-6.124,25.469
				l6.9-28.506c0,0-173.054-99.561-189.082-108.83l0,0c-10.218-5.848-18.883-9.898-30.021-9.898l0,0
				C506.63,1321.06,499.478,1322.369,490.813,1325.465"/>
			
				<linearGradient id="Petal_Violet_1_" gradientUnits="userSpaceOnUse" x1="616.1799" y1="2242.6023" x2="618.6969" y2="2237.5684" gradientTransform="matrix(56.532 0 0 -29.8816 -34316.2734 68473.5469)">
				<stop  offset="0" style="stop-color:#A41B59"/>
				<stop  offset="1" style="stop-color:#5E2490"/>
			</linearGradient>
			<path id="Petal_Violet" fill="url(#Petal_Violet_1_)" d="M504.59,1479.394c-18.288,0-31.249,2.152-47.67,21.174l0,0
				c-6.021,6.979-8.631,15.502-9.334,24.309l0,0v10.391c0.806,11.836,4.084,23.287,6.271,31.428l0,0
				c4.404,16.633,13.104,50.24,36.956,58.695l0,0c23.814,8.424,36.18,3.734,52.212-5.535l0,0
				c16.028-9.23,189.082-108.828,189.082-108.828l0,0l-6.9-28.469l6.124,25.48l-8.135-28.115c0,0-199.692-0.5-218.184-0.529l0,0
				C504.871,1479.394,504.728,1479.394,504.59,1479.394"/>
			
				<linearGradient id="Petal_Indigo_1_" gradientUnits="userSpaceOnUse" x1="615.1719" y1="2243.1824" x2="617.6884" y2="2240.6658" gradientTransform="matrix(48.3318 0 0 -48.4215 -29145.9395 110184.6484)">
				<stop  offset="1" style="stop-color:#293D9B"/>
				<stop  offset="1" style="stop-color:#5E2591"/>
			</linearGradient>
			<path id="Petal_Indigo" fill="url(#Petal_Indigo_1_)" d="M546.441,1626.019c-15.959,9.338-26.211,17.693-30.753,42.564l0,0
				c-4.552,24.908,18.599,46.535,30.788,58.656l0,0c12.258,12.051,36.71,36.715,61.585,31.918l0,0
				c24.836-4.787,33.078-15.109,42.279-31.211l0,0c9.157-16.062,108.013-189.504,108.013-189.504l0,0l-20.357-21.105l18.176,18.883
				l-21.282-20.15C734.89,1516.07,562.47,1616.691,546.441,1626.019"/>
			
				<linearGradient id="Petal_Blue_1_" gradientUnits="userSpaceOnUse" x1="608.466" y1="2243.3113" x2="613.4994" y2="2240.7947" gradientTransform="matrix(29.9422 0 0 -56.3785 -17554.9219 128088.2812)">
				<stop  offset="0" style="stop-color:#293D9B"/>
				<stop  offset="1" style="stop-color:#2549A5"/>
			</linearGradient>
			<path id="Petal_Blue" fill="url(#Petal_Blue_1_)" d="M793.133,1549.08l-28.468-6.98c0,0-99.987,172.812-109.252,188.846l0,0
				c-9.269,16.023-14.022,28.32-5.638,52.207l0,0c8.386,23.889,39.213,31.221,55.771,35.693l0,0
				c8.769,2.32,22.196,6.025,35.757,6.547l0,0h6.625c9.899-0.451,19.479-2.959,26.949-9.328l0,0
				c19.169-16.455,21.243-29.49,21.243-47.99l0,0v-218.189l-28.114-8.236L793.133,1549.08z"/>
			
				<linearGradient id="Petal_CyanBlue_1_" gradientUnits="userSpaceOnUse" x1="611.5171" y1="2240.7915" x2="616.5502" y2="2243.3081" gradientTransform="matrix(29.944 0 0 -56.3785 -17524.4648 128088.2812)">
				<stop  offset="0" style="stop-color:#293D9B"/>
				<stop  offset="1" style="stop-color:#0C8ED8"/>
			</linearGradient>
			<path id="Petal_CyanBlue" fill="url(#Petal_CyanBlue_1_)" d="M805.46,1549.885v218.189c0,18.5,2.079,31.535,21.283,47.99l0,0
				c7.431,6.369,17.015,8.877,26.913,9.328l0,0h6.626c13.595-0.521,26.983-4.227,35.757-6.547l0,0
				c16.559-4.473,47.386-11.805,55.805-35.693l0,0c8.352-23.887,3.594-36.184-5.672-52.207l0,0
				c-9.263-16.033-109.251-188.846-109.251-188.846l0,0l-28.463,6.98l25.155-7.432L805.46,1549.885z"/>
			
				<linearGradient id="Petal_Cyan_1_" gradientUnits="userSpaceOnUse" x1="620.181" y1="2240.6672" x2="622.6981" y2="2243.1846" gradientTransform="matrix(48.3318 0 0 -48.4215 -29080.8555 110184.6484)">
				<stop  offset="0" style="stop-color:#3096DA"/>
				<stop  offset="1" style="stop-color:#29A2B7"/>
			</linearGradient>
			<path id="Petal_Cyan" fill="url(#Petal_Cyan_1_)" d="M845.411,1536.221l18.184-18.883l-20.368,21.105
				c0,0,98.861,173.441,108.053,189.504l0,0c9.161,16.102,17.408,26.424,42.244,31.211l0,0
				c24.875,4.797,49.357-19.867,61.581-31.918l0,0c12.188-12.121,35.339-33.748,30.798-58.656l0,0
				c-4.547-24.871-14.766-33.227-30.759-42.564l0,0c-16.032-9.328-188.452-109.949-188.452-109.949l0,0L845.411,1536.221z"/>
			
				<linearGradient id="Petal_CyanGreen_1_" gradientUnits="userSpaceOnUse" x1="622.202" y1="2237.5691" x2="624.7203" y2="2242.6057" gradientTransform="matrix(56.567 0 0 -29.8816 -34254.4062 68473.5469)">
				<stop  offset="0" style="stop-color:#29A2B7"/>
				<stop  offset="1" style="stop-color:#4DBD4B"/>
			</linearGradient>
			<path id="Petal_CyanGreen" fill="url(#Petal_CyanGreen_1_)" d="M1096.578,1479.394c-18.501,0.029-218.154,0.529-218.154,0.529
				l0,0l-8.174,28.115l6.134-25.48l-6.911,28.469c0,0,173.059,99.598,189.087,108.828l0,0c16.028,9.27,28.393,13.959,52.212,5.535
				l0,0c23.89-8.455,32.555-42.062,36.957-58.695l0,0c2.502-9.299,6.414-22.934,6.448-36.5l0,0v-0.629
				c-0.034-10.43-2.433-20.762-9.511-28.998l0,0c-16.416-19.021-29.38-21.174-47.666-21.174l0,0
				C1096.852,1479.394,1096.715,1479.394,1096.578,1479.394"/>
			
				<linearGradient id="Petal_Green_1_" gradientUnits="userSpaceOnUse" x1="624.7194" y1="2240.5842" x2="622.2036" y2="2245.6157" gradientTransform="matrix(56.567 0 0 -29.8833 -34254.4062 68445.9688)">
				<stop  offset="0" style="stop-color:#4DBD4A"/>
				<stop  offset="1" style="stop-color:#80CB28"/>
			</linearGradient>
			<path id="Petal_Green" fill="url(#Petal_Green_1_)" d="M1058.559,1330.959c-16.028,9.27-189.087,108.83-189.087,108.83l0,0
				l6.911,28.506l-6.134-25.469l8.174,28.143c0,0,199.653,0.424,218.154,0.492l0,0c18.529,0.039,31.563-1.967,48.088-21.164l0,0
				c7.078-8.248,9.477-18.568,9.511-28.998l0,0v-0.641c-0.034-13.564-3.946-27.189-6.448-36.498l0,0
				c-4.402-16.623-13.067-50.271-36.957-58.695l0,0c-8.67-3.096-15.816-4.404-22.194-4.404l0,0
				C1077.477,1321.06,1068.777,1325.111,1058.559,1330.959"/>
			
				<linearGradient id="Petal_YellowGreen_1_" gradientUnits="userSpaceOnUse" x1="622.6959" y1="2245.6133" x2="620.1797" y2="2248.1294" gradientTransform="matrix(48.3318 0 0 -48.4189 -29080.8555 110114.5938)">
				<stop  offset="0" style="stop-color:#80CB27"/>
				<stop  offset="1" style="stop-color:#D8D31A"/>
			</linearGradient>
			<path id="Petal_YellowGreen" fill="url(#Petal_YellowGreen_1_)" d="M993.523,1191.697c-24.836,4.787-33.083,15.119-42.244,31.182
				l0,0c-9.191,16.102-108.053,189.543-108.053,189.543l0,0l20.368,21.096l-18.184-18.914l21.28,20.182
				c0,0,172.42-100.611,188.452-109.949l0,0c15.993-9.34,26.212-17.695,30.759-42.564l0,0c4.541-24.91-18.609-46.535-30.798-58.627
				l0,0c-11.167-11.059-32.548-32.547-55.138-32.547l0,0C997.853,1191.098,995.672,1191.305,993.523,1191.697"/>
			
				<linearGradient id="Petal_Yellow_1_" gradientUnits="userSpaceOnUse" x1="616.5541" y1="2246.7505" x2="611.5211" y2="2249.2668" gradientTransform="matrix(29.944 0 0 -56.3922 -17524.4648 128036.2656)">
				<stop  offset="0" style="stop-color:#D8D31A"/>
				<stop  offset="1" style="stop-color:#F67D14"/>
			</linearGradient>
			<path id="Petal_Yellow" fill="url(#Petal_Yellow_1_)" d="M826.743,1134.801c-19.204,16.455-21.283,29.49-21.283,48.02l0,0
				v218.178l28.153,8.219l-25.155-7.402l28.463,6.941c0,0,99.988-172.814,109.251-188.836l0,0
				c9.266-16.033,14.023-28.332,5.672-52.219l0,0c-8.419-23.848-39.246-31.17-55.805-35.652l0,0
				c-9.477-2.537-24.453-6.656-39.109-6.656l0,0C845.871,1125.392,834.984,1127.723,826.743,1134.801"/>
		</g>
		<g id="Wonderful_Letters">
			<path id="Letter_S" fill="#FFFFFF" d="M492.022,1526.086c4.532,2.379,15.556,7.492,25.946,7.629
				c11.65,0.158,22.506-3.047,22.506-17.557c0-14.49-11.447-19.443-25.941-27.455c-14.497-8.021-28.994-20.613-28.994-44.402
				c0-27.643,20.979-48.561,58.853-48.561c12.867,0,30.035,9.791,30.035,9.791l-7.628,23.65c-6.247-3.125-7.259-7.629-22.889-7.629
				c-15.861,0-21.371,11.443-21.371,19.621c0,10.332,10.307,18.146,24.04,23.484c25.749,10.018,33.953,33.707,33.953,48.148
				c0,14.43-8.98,50.23-53.441,50.23c-18.511,0-33.383-5.041-42.521-10.094L492.022,1526.086z"/>
			<path id="Letter_H" fill="#FFFFFF" d="M626.532,1398.385v66.697h42.987v-66.697h36.533v162.01h-36.533v-69.873h-42.987v69.873
				h-36.538v-162.01H626.532z"/>
			<path id="Letter_O" fill="#FFFFFF" d="M717.859,1477.467c0,45.721,37.064,82.789,82.788,82.789
				c45.725,0,82.784-37.068,82.784-82.789c0-45.719-37.06-82.789-82.784-82.789C754.923,1394.678,717.859,1431.748,717.859,1477.467
				"/>
			<path id="Letter_O-hole" fill="#F6861B" d="M759.254,1477.467c0,22.865,18.534,41.395,41.394,41.395
				c22.86,0,41.394-18.529,41.394-41.395s-18.534-41.395-41.394-41.395C777.788,1436.072,759.254,1454.601,759.254,1477.467"/>
			<path id="Letter_W" fill="#FFFFFF" d="M1024.277,1559.273h40.819l43.493-160.613h-45.405l-23.651,112.543l-29.372-112.543
				h-32.862l-29.372,112.543l-23.651-112.543h-45.404l43.498,160.613h40.818l28.611-101.859L1024.277,1559.273z"/>
		</g>
	</g>
</g>
<g id="Laag_2">
</g>
</svg>
