<?xml version="1.0" encoding="utf-8"?>
<!-- Generator: Adobe Illustrator 23.0.6, SVG Export Plug-In . SVG Version: 6.00 Build 0)  -->
<svg version="1.1" id="Layer_1" xmlns="http://www.w3.org/2000/svg" xmlns:xlink="http://www.w3.org/1999/xlink" x="0px" y="0px"
	 viewBox="0 0 1600 900" enable-background="new 0 0 1600 900" xml:space="preserve">
<g>
	<path fill="#FFFFFF" d="M701.393,538.55V307.543h-77.002v253.534c0,30.085,24.389,54.472,54.474,54.472h138.031v-77H701.393z"/>
	<rect x="1481.039" y="307.543" fill="#FFFFFF" width="77.002" height="192.505"/>
	<rect x="1481.039" y="538.55" fill="#FFFFFF" width="77.002" height="77"/>
	<path fill="#FFFFFF" d="M1022.305,307.543H900.246c-30.085,0-54.474,24.388-54.474,54.473V615.55h77.002v-77h77.002v77h77.002
		V362.016C1076.778,331.931,1052.39,307.543,1022.305,307.543z M999.776,461.547h-77.002v-77.003h77.002V461.547z"/>
	<path fill="#FFFFFF" d="M1397.689,307.543h-237.561c-30.085,0-54.474,24.388-54.474,54.473V615.55h77.002V384.543h57.751V615.55
		h77.002V384.543h57.751V615.55h77.002V362.016C1452.163,331.931,1427.774,307.543,1397.689,307.543z"/>
	<path fill="#FFFFFF" d="M418.983,307.543c-30.085,0-54.474,24.388-54.474,54.473v83.557c0,30.088,24.389,54.476,54.474,54.476
		h99.53v38.502H364.509v77h176.532c30.085,0,54.474-24.388,54.474-54.472v-83.557c0-30.088-24.389-54.476-54.474-54.476h-99.53
		v-38.502h154.004v-77H418.983z"/>
	<g>
		<path fill="#FFFFFF" d="M300.47,418.481L112.594,314.024c-0.13-0.075-0.261-0.149-0.392-0.223
			c-7.079-3.986-15.251-6.259-23.954-6.259c-27.006,0.001-48.899,21.893-48.899,48.898v210.212
			c0,27.006,21.893,48.897,48.899,48.898c8.703,0,16.875-2.274,23.954-6.259l188.215-104.844
			c15.243-8.28,25.591-24.429,25.591-42.996C326.008,442.905,315.684,426.77,300.47,418.481z M92.634,559.197V363.893
			l175.472,97.557L92.634,559.197z"/>
	</g>
</g>
</svg>
