<?xml version="1.0" encoding="utf-8"?>
<!-- Generator: Adobe Illustrator 22.1.0, SVG Export Plug-In . SVG Version: 6.00 Build 0)  -->
<svg version="1.2" baseProfile="tiny" xmlns="http://www.w3.org/2000/svg" xmlns:xlink="http://www.w3.org/1999/xlink" x="0px"
	 y="0px" viewBox="0 0 1600 900" xml:space="preserve">
<g id="Layer_1">
	<path id="path2998_1_" fill="#FFFFFF" d="M367.5,245.5c-103.8,0-147.1,54.2-147.1,115.5c0,67.2,49.1,89.2,100.5,101.9
		c17.5,3.8,46.6,9.2,46.6,9.2c20.6,3.9,51.1,7.9,51.1,28.5c0,17.2-24.3,26.1-51.2,26.1c-57.5,0-84.1-27.1-93.4-45.5l-70.3,67.7
		c34.1,39.4,82.6,61.5,160.8,61.5c81.8,0,143.1-32.5,155.4-99.8v216.3l96.1-98.7v-50.5c0,0,3.8,13.1,27.1,22.8l144.4-151.2
		c-8.2-57.3-36.4-108-106.5-108c-49.7,0-65.7,26.9-65.7,26.9v-20h-95.4v118.1c-2.7-14.4-9.4-31.7-23.4-46
		c-24-23-75.2-36.9-116.1-42.3c-34.6-5.9-54-8.9-54-27.4c0-9,7.1-22.1,40.3-22.1c24.2,0,67.3,5.8,86.2,34.9l63.2-61.1
		C483.2,266.9,433.6,245.5,367.5,245.5L367.5,245.5z M787.5,449.3v150.8h98.2V345.4L787.5,449.3z M654.4,416.8
		c13.8,0,37.1,6.6,37.1,58.2c0,40.1-14.6,58.4-39.5,58.4c-15.1,0-36.8-9.1-36.8-58.5C615.3,425.1,637.1,416.8,654.4,416.8z"/>
	<path id="path3002_1_" fill="#FFFFFF" d="M906.3,600.1V324.9l98.2-102.4v197.8l66.7-72.1h120.5l-94.3,90.7l97.5,161.2h-111.4
		l-53.4-95.6l-25.6,25v70.7L906.3,600.1z"/>
	<path id="path3004_1_" fill="#FFFFFF" d="M1274.3,341.7c-87.4,0-131.2,59.6-131.2,129.4c0,72,47.8,132.3,131.5,132.3
		c69,0,110.6-38.2,125.4-90.1h-85.9c-3.4,11.8-16.9,22.4-33.8,22.4c-20.8,0-44.2-12.8-43.8-45.2h167.2v-21.4
		C1403.7,390.4,1348.3,341.7,1274.3,341.7L1274.3,341.7z M1276,403.3c17.7,0,32.4,14.1,32.4,36h-70.4
		C1238.7,421.3,1250.8,403.3,1276,403.3L1276,403.3z"/>
</g>
<g id="Laag_2" display="none">
</g>
</svg>
