<?xml version="1.0" encoding="utf-8"?>
<!-- Generator: Adobe Illustrator 22.1.0, SVG Export Plug-In . SVG Version: 6.00 Build 0)  -->
<svg version="1.1" xmlns="http://www.w3.org/2000/svg" xmlns:xlink="http://www.w3.org/1999/xlink" x="0px" y="0px"
	 viewBox="0 0 1600 900" enable-background="new 0 0 1600 900" xml:space="preserve">
<g id="Layer_1">
	<polygon fill="#E95776" points="875.893,317.354 800.127,86.458 723.637,318.333 478.139,318.005 705.077,441.836 854.368,345.043 
			"/>
	<polygon fill="#941A2B" points="800.339,516.021 998.079,694.941 891.215,451.067 	"/>
	<polygon fill="#674B98" points="875.893,317.354 1118.064,318.097 923.289,461.755 891.215,451.067 800.339,516.021 
		800.199,551.52 601.724,694.121 622.97,628.333 	"/>
	<polygon fill="#9D5366" points="478.139,318.005 674.013,461.427 750.303,407.667 	"/>
	<polygon fill="#4E1025" points="891.215,451.067 998.079,694.941 923.289,461.755 	"/>
	<polygon fill="#F39F73" points="800.339,516.021 800.199,551.52 998.079,694.941 	"/>
	<polygon fill="#B42129" points="478.139,318.005 702.919,441.167 854.335,344 800.17,86.373 743.637,345.667 	"/>
	<polygon fill="#29285A" points="702.919,441.167 854.335,344 1119.397,318.097 889.814,451.938 800.377,515.875 601.724,694.121 
		622.97,628.333 756.502,473.5 888.922,376.005 	"/>
	<path fill="#E6E6E6" d="M674.013,461.427L622.97,628.333c0,0,95.532-99.833,130.532-133.333s135.42-118.995,135.42-118.995
		l-186.003,65.161L674.013,461.427z"/>
	<path fill="#F39F73" d="M989.978,689.4c0.763-0.109,1.27,0.114,1.274,0.986C990.567,690.392,990.049,690.185,989.978,689.4z"/>
	<path fill="#F39F73" d="M992.707,691.499c0.465-0.15,0.691,0.033,0.709,0.506C993.179,691.836,992.943,691.668,992.707,691.499z"/>
	<path fill="#F39F73" d="M988.037,687.965c0.618-0.394,0.79-0.131,0.719,0.488C988.298,688.611,988.062,688.444,988.037,687.965z"/>
	<path fill="#F39F73" d="M991.793,690.791c0.485-0.263,0.653-0.08,0.594,0.422l-0.428-0.025L991.793,690.791z"/>
	<path fill="#F39F73" d="M988.967,688.622c0.597-0.181,0.858,0.08,0.874,0.664C989.305,689.387,988.991,689.195,988.967,688.622z"/>
	<g>
		<g>
			<path fill="#F1F2F3" d="M597.929,746.624l-12.497,11.019c-4.392-6.109-8.861-9.156-13.405-9.156
				c-2.221,0-4.029,0.592-5.433,1.768c-1.415,1.186-2.108,2.534-2.108,4.013c0,1.493,0.493,2.904,1.505,4.221
				c1.371,1.775,5.497,5.552,12.376,11.384c6.441,5.399,10.343,8.789,11.699,10.195c3.435,3.441,5.853,6.747,7.292,9.906
				c1.415,3.161,2.135,6.602,2.135,10.335c0,7.261-2.507,13.277-7.541,18.029c-5.02,4.739-11.576,7.111-19.67,7.111
				c-6.322,0-11.804-1.562-16.495-4.647c-4.693-3.089-8.706-7.961-12.033-14.582l14.178-8.561
				c4.28,7.832,9.162,11.741,14.737,11.741c2.887,0,5.328-0.82,7.292-2.52c1.975-1.686,2.97-3.647,2.97-5.848
				c0-1.998-0.758-4.016-2.241-6.015c-1.493-2.012-4.762-5.102-9.849-9.23c-9.641-7.873-15.894-13.953-18.719-18.23
				c-2.81-4.283-4.214-8.554-4.214-12.81c0-6.145,2.346-11.41,7.03-15.813c4.687-4.401,10.467-6.602,17.34-6.602
				c4.44,0,8.66,1.024,12.643,3.061C588.934,737.466,593.271,741.194,597.929,746.624z"/>
			<path fill="#F1F2F3" d="M607.724,733.474h16.458v24.168h9.773v14.172h-9.773v51.4h-16.458v-51.4h-8.425v-14.172h8.425V733.474z"
				/>
			<path fill="#F1F2F3" d="M684.508,757.643h16.455v65.572h-16.455v-6.946c-3.227,3.07-6.449,5.264-9.676,6.604
				c-3.232,1.357-6.724,2.024-10.502,2.024c-8.468,0-15.78-3.282-21.969-9.854c-6.178-6.574-9.266-14.735-9.266-24.484
				c0-10.149,2.994-18.439,8.972-24.905c5.977-6.464,13.223-9.686,21.787-9.686c3.931,0,7.617,0.713,11.065,2.206
				c3.457,1.49,6.644,3.737,9.588,6.693V757.643z M667.206,771.144c-5.084,0-9.312,1.8-12.678,5.379
				c-3.367,3.607-5.04,8.225-5.04,13.829c0,5.678,1.708,10.34,5.123,13.992c3.434,3.651,7.652,5.486,12.658,5.486
				c5.163,0,9.454-1.803,12.849-5.398c3.399-3.593,5.107-8.291,5.107-14.137c0-5.69-1.707-10.322-5.107-13.85
				C676.724,772.911,672.419,771.144,667.206,771.144z"/>
			<path fill="#F1F2F3" d="M709.537,757.643h14.099v8.253c1.517-3.243,3.556-5.724,6.084-7.407c2.534-1.684,5.3-2.521,8.325-2.521
				c2.121,0,4.363,0.551,6.672,1.675l-5.102,14.172c-1.927-0.975-3.524-1.462-4.774-1.462c-2.531,0-4.659,1.572-6.414,4.7
				c-1.752,3.139-2.617,9.281-2.617,18.443l0.046,3.191v26.528h-16.32V757.643z"/>
			<path fill="#F1F2F3" d="M832.448,749.031l-11.88,11.745c-7.533-7.958-16.299-11.951-26.3-11.951
				c-8.74,0-16.049,2.916-21.923,8.704c-5.898,5.767-8.843,12.816-8.843,21.08c0,8.569,3.059,15.828,9.16,21.757
				c6.131,5.958,13.671,8.925,22.628,8.925c5.834,0,10.745-1.227,14.754-3.685c4.004-2.445,7.228-6.291,9.674-11.513h-25.666v-15.85
				h44.592l0.119,3.747c0,7.75-2.004,15.102-6.021,22.064c-4.021,6.954-9.214,12.252-15.609,15.912
				c-6.383,3.634-13.865,5.482-22.474,5.482c-9.213,0-17.419-2.016-24.641-6.004c-7.205-3.995-12.892-9.693-17.1-17.094
				c-4.188-7.377-6.304-15.362-6.304-23.92c0-11.737,3.884-21.945,11.643-30.616c9.203-10.326,21.164-15.483,35.901-15.483
				c7.733,0,14.938,1.422,21.634,4.275C821.48,739.016,827.009,743.144,832.448,749.031z"/>
			<path fill="#F1F2F3" d="M889.041,732.331c12.538,0,23.339,4.545,32.341,13.611c9.033,9.085,13.555,20.153,13.555,33.222
				c0,12.937-4.455,23.888-13.365,32.833c-8.894,8.961-19.725,13.45-32.426,13.45c-13.29,0-24.349-4.606-33.152-13.81
				c-8.803-9.209-13.215-20.122-13.215-32.78c0-8.483,2.058-16.282,6.157-23.393c4.105-7.101,9.738-12.74,16.922-16.884
				C873.018,734.412,880.742,732.331,889.041,732.331z M888.858,748.825c-8.209,0-15.095,2.865-20.689,8.582
				c-5.592,5.692-8.402,12.946-8.402,21.758c0,9.794,3.531,17.553,10.569,23.25c5.468,4.464,11.743,6.692,18.81,6.692
				c8.025,0,14.835-2.887,20.468-8.662c5.62-5.794,8.446-12.93,8.446-21.412c0-8.422-2.848-15.58-8.499-21.422
				C903.869,751.764,896.977,748.825,888.858,748.825z"/>
			<path fill="#F1F2F3" d="M940.962,734.548h16.874v72.577h24.598v16.09h-41.472V734.548z"/>
			<path fill="#F1F2F3" d="M988.544,734.548h19.996c12.879,0,22.46,1.623,28.717,4.811c6.253,3.186,11.426,8.382,15.457,15.564
				c4.077,7.203,6.094,15.597,6.094,25.202c0,6.831-1.136,13.113-3.398,18.841c-2.265,5.727-5.387,10.466-9.396,14.251
				c-3.988,3.768-8.31,6.381-12.978,7.83c-4.646,1.438-12.713,2.168-24.198,2.168h-20.293V734.548z M1005.308,750.822v55.938h7.82
				c7.715,0,13.307-0.882,16.79-2.652c3.472-1.765,6.333-4.746,8.519-8.928c2.207-4.183,3.311-9.336,3.311-15.451
				c0-9.411-2.627-16.718-7.88-21.904c-4.756-4.663-12.351-7.002-22.862-7.002H1005.308z"/>
		</g>
	</g>
</g>
<g id="Laag_2">
</g>
</svg>
