<?xml version="1.0" encoding="utf-8"?>
<!-- Generator: Adobe Illustrator 22.1.0, SVG Export Plug-In . SVG Version: 6.00 Build 0)  -->
<svg version="1.1" id="Layer_1" xmlns="http://www.w3.org/2000/svg" xmlns:xlink="http://www.w3.org/1999/xlink" x="0px" y="0px"
	 viewBox="0 0 1600 900" enable-background="new 0 0 1600 900" xml:space="preserve">
<g>
	<polygon fill="#494849" points="846.113,228.682 869.438,228.682 869.438,294.16 885.042,294.16 885.042,228.682 908.195,228.682 
		908.195,214.007 846.113,214.007 	"/>
	<rect x="924.405" y="214.007" fill="#494849" width="15.938" height="80.153"/>
	<polygon fill="#494849" points="1016.615,266.357 977.423,214.007 962.233,214.007 962.233,294.16 977.847,294.16 977.847,241.941 
		1017.039,294.16 1032.218,294.16 1032.218,214.007 1016.615,214.007 	"/>
	<path fill="#494849" d="M1096.12,267.135h14.937c-2.587,8.955-10.066,14.058-20.688,14.058c-17.908,0-26.063-13.946-26.063-26.882
		c0-13.26,8.803-27.337,25.104-27.337c9.206,0,16.816,4.699,18.505,11.42l0.585,2.254h15.523l-0.516-3.437
		c-2.193-14.431-16.625-24.901-34.31-24.901c-26.438,0-40.698,21.688-40.698,42.102c0,20.597,14.26,41.435,41.537,41.435
		c19.232,0,33.512-10.975,37.433-28.711h8.47v-14.664h-39.819V267.135z"/>
	<polygon fill="#494849" points="1341.801,214.007 1325.894,245.579 1306.096,214.007 1287.814,214.007 1317.759,261.87 
		1301.487,294.15 1318.79,294.15 1359.093,214.007 	"/>
	<path fill="#494849" d="M1193.553,263.75c8.085-4.811,13.048-13.523,13.048-22.981c0-14.645-11.895-26.661-26.508-26.752h-30.955
		v80.031h15.583V267.55h12.966l12.168,26.619h17.575L1193.553,263.75z M1180.072,252.856h-15.352v-24.174h15.22
		c6.589,0,12.006,5.427,12.006,12.087C1191.947,247.379,1186.61,252.795,1180.072,252.856"/>
	<path fill="#494849" d="M1260.618,214.695l-0.232-0.678h-13.836l-27.7,80.152h16.978l5.932-17.888h23.447l5.932,17.888h16.969
		L1260.618,214.695z M1245.044,263.154l8.429-25.478l8.449,25.478H1245.044z"/>
	<path fill="#494849" d="M816.572,248.085l-14.442-3.355c-5.953-1.415-8.913-4.123-8.913-8.65c0-5.681,5.032-9.278,12.511-9.278
		c8.256,0,12.784,4.123,14.583,9.419h16.403c-2.587-13.441-13.038-22.992-31.117-22.992c-16.655,0-28.509,10.076-28.509,24.406
		c0,13.027,8.771,19.091,20.121,21.689l14.199,3.213c6.862,1.557,9.672,4.123,9.672,8.913c0,6.328-5.286,9.935-13.279,9.935
		c-7.742,0-13.563-3.223-15.726-10.198h-17.059c2.698,15.109,15.23,23.872,32.906,23.872c16.786,0,29.429-9.278,29.429-24.659
		C837.351,258.414,829.478,251.046,816.572,248.085"/>
	<g>
		<path fill="#E21E27" d="M349.161,380.933l87.749-16.428v248.623h23.347v6.911h-88.19v-23.339
			c-4.327,6.064-10.304,12.196-17.94,18.381c-7.636,6.185-16.929,9.277-27.882,9.277c-14.416,0-27.018-2.73-37.824-8.206
			c-10.814-5.459-19.814-12.749-27.018-21.835c-7.203-9.07-12.602-19.452-16.213-31.113c-3.593-11.678-5.398-23.564-5.398-35.664
			c0-12.102,1.805-23.917,5.398-35.449c3.61-11.514,9.009-21.836,16.213-30.897c7.204-9.086,16.205-16.359,27.018-21.835
			c10.806-5.477,23.408-8.206,37.824-8.206c12.11,0,21.888,2.142,29.393,6.461c7.507,4.336,12.965,9.812,16.428,16.437v-70.526
			l-22.906,4.318V380.933z M314.144,549.141c0,13.837,0.355,24.859,1.071,33.082c0.734,8.205,1.874,14.476,3.473,18.795
			c1.572,4.319,3.809,7.221,6.694,8.655c2.885,1.434,6.487,2.16,10.806,2.16c3.748,0,7.351-1.02,10.815-3.041
			c3.446-2.004,6.763-4.595,9.942-7.774c3.161-3.161,6.046-6.547,8.637-10.157c2.592-3.594,4.759-6.979,6.487-10.158V469.192
			c-4.024-7.204-9.017-13.699-14.908-19.461c-5.917-5.77-12.905-8.655-20.972-8.655c-4.319,0-7.86,1.01-10.598,3.032
			c-2.73,2.021-4.958,5.476-6.695,10.373c-1.719,4.915-2.945,11.549-3.679,19.884c-0.716,8.369-1.071,18.89-1.071,31.57V549.141z"/>
		<path fill="#E21E27" d="M565.325,690.176c-5.312,16.135-12.991,29.903-23.02,41.322c-10.037,11.402-22.241,20.264-36.606,26.57
			c-14.373,6.288-30.611,9.432-48.724,9.432c-16.127,0-29.697-3.732-40.718-11.195c-11.022-7.48-16.541-17.931-16.541-31.302
			c0-9.847,3.351-17.811,10.028-23.909c6.711-6.115,14.174-9.155,22.449-9.155c9.044,0,16.619,2.661,22.717,7.964
			c6.107,5.32,9.164,13.095,9.164,23.321c0,4.734-0.993,8.863-2.954,12.403c-1.978,3.542-4.431,6.496-7.385,8.863
			c-2.945,2.367-6.098,4.129-9.432,5.303c-3.359,1.192-6.409,1.762-9.164,1.762c4.336,3.559,9.639,5.338,15.953,5.338
			c3.533,0,7.368-0.587,11.514-1.779c4.129-1.175,7.765-3.058,10.917-5.615c3.136-2.557,5.805-6.098,7.964-10.625
			c2.151-4.526,3.239-10.141,3.239-16.826V366.629l-31.88,4.725v-9.45l120.45-18.894v293.423
			C573.297,656.126,570.636,674.023,565.325,690.176"/>
		<path fill="#E21E27" d="M773.672,362.189c15.547,2.954,28.349,7.982,38.386,15.065c10.036,7.082,17.309,16.342,21.844,27.753
			c4.526,11.41,6.789,25.386,6.789,41.918v123.984c0,9.432,1.079,16.826,3.248,22.147c2.15,5.303,7.178,7.964,15.055,7.964
			c6.686,0,11.315-2.159,13.872-6.496c2.556-4.336,4.43-9.449,5.614-15.357c0.38-3.542,1.961-5.303,4.716-5.303
			c2.358,0,3.55,1.572,3.55,4.716c0,4.336-0.7,9.07-2.064,14.165c-1.39,5.131-4.345,9.847-8.863,14.166
			c-4.535,4.353-10.917,8.085-19.193,11.229c-8.258,3.144-19.486,4.716-33.643,4.716c-20.082,0-35.423-3.058-46.055-9.138
			c-10.624-6.115-17.716-13.302-21.257-21.542c-3.162,3.144-6.988,6.478-11.514,10.02c-4.526,3.541-9.735,6.893-15.643,10.037
			c-5.891,3.161-12.697,5.701-20.367,7.67c-7.679,1.969-16.437,2.953-26.276,2.953c-14.96,0-28.037-2.056-39.258-6.184
			c-11.22-4.146-20.583-9.76-28.046-16.843c-7.48-7.083-13.094-15.444-16.826-25.083c-3.74-9.64-5.606-19.78-5.606-30.404
			c0-10.235,1.952-20.367,5.9-30.404c3.93-10.037,9.933-18.986,18.009-26.863c8.059-7.877,18.096-14.269,30.102-19.193
			c12.007-4.924,26.077-7.377,42.221-7.377h63.763v-47.239c0-14.157-2.168-25.179-6.496-33.056
			c-4.336-7.878-13.777-11.808-28.34-11.808c-16.153,0-27.156,1.097-33.056,3.239c-5.908,2.177-8.854,4.828-8.854,7.973
			c0,2.358,1.365,4.345,4.129,5.9c7.471,4.733,11.221,12.023,11.221,21.853c0,2.358-0.398,5.303-1.192,8.845
			c-0.794,3.558-2.349,6.806-4.716,9.751c-2.367,2.945-5.606,5.519-9.751,7.679c-4.121,2.159-9.537,3.248-16.221,3.248
			c-8.275,0-15.652-2.454-22.156-7.377c-6.487-4.924-9.726-13.095-9.726-24.505c0-15.747,8.448-27.546,25.377-35.423
			c16.921-7.869,38.386-11.817,64.35-11.817C739.139,357.766,758.133,359.244,773.672,362.189 M727.927,471.126
			c-16.152,0-27.666,6.704-34.55,20.074c-6.884,13.388-10.331,30.905-10.331,52.533c0,22.061,2.064,37.902,6.211,47.541
			c4.12,9.64,11.116,14.46,20.963,14.46c2.349,0,5.9-0.968,10.624-2.954c4.724-1.969,9.432-4.422,14.174-7.377
			c4.707-2.954,8.733-6.288,12.093-10.036c3.334-3.732,5.019-7.377,5.019-10.918V471.126H727.927z"/>
		<path fill="#E21E27" d="M1113.984,376.666L984.092,606.322h56.092c22.82,0,40.043-6.184,51.661-18.588
			c11.609-12.403,18.986-28.832,22.138-49.303h5.9v77.341H893.181V602.78l133.434-231.417h-50.789
			c-16.144,0-30.698,5.104-43.68,15.34c-12.99,10.236-20.471,25.585-22.431,46.047h-5.917v-70.846h210.187V376.666z"/>
		<path fill="#E21E27" d="M1349.254,376.666l-129.891,229.656h56.1c22.812,0,40.035-6.184,51.653-18.588
			c11.609-12.403,18.985-28.832,22.138-49.303h5.908v77.341h-226.711V602.78l133.434-231.417h-50.78
			c-16.144,0-30.707,5.104-43.689,15.34c-12.991,10.236-20.471,25.585-22.432,46.047h-5.917v-70.846h210.187V376.666z"/>
		<path fill="#E21E27" d="M551.133,310.014c-7.048,7.04-15.609,10.555-25.697,10.555c-10.106,0-18.674-3.516-25.706-10.555
			c-7.048-7.031-10.563-15.6-10.563-25.705c0-10.089,3.516-18.657,10.563-25.688c7.032-7.048,15.6-10.572,25.706-10.572
			c10.088,0,18.648,3.524,25.697,10.572c7.022,7.031,10.546,15.599,10.546,25.688C561.679,294.414,558.155,302.983,551.133,310.014"
			/>
	</g>
</g>
</svg>
