<?xml version="1.0" encoding="utf-8"?>
<!-- Generator: Adobe Illustrator 22.1.0, SVG Export Plug-In . SVG Version: 6.00 Build 0)  -->
<svg version="1.1" id="Layer_1" xmlns="http://www.w3.org/2000/svg" xmlns:xlink="http://www.w3.org/1999/xlink" x="0px" y="0px"
	 viewBox="0 0 1600 900" enable-background="new 0 0 1600 900" xml:space="preserve">
<g>
	<g>
		<g>
			<g>
				<polygon fill="#7A7D80" points="436.223,563.069 474.493,563.069 474.493,670.538 500.127,670.538 500.127,563.069 
					538.118,563.069 538.118,538.982 436.223,538.982 				"/>
			</g>
			<g>
				<rect x="564.728" y="538.982" fill="#7A7D80" width="26.149" height="131.556"/>
			</g>
			<g>
				<polygon fill="#7A7D80" points="716.077,624.911 651.749,538.982 626.825,538.982 626.825,670.538 652.446,670.538 
					652.446,584.821 716.787,670.538 741.698,670.538 741.698,538.982 716.077,538.982 				"/>
			</g>
			<g>
				<path fill="#7A7D80" d="M846.587,626.185h24.517c-4.251,14.693-16.519,23.062-33.966,23.062
					c-29.387,0-42.771-22.88-42.771-44.123c0-21.752,14.439-44.863,41.212-44.863c15.1,0,27.592,7.714,30.357,18.747l0.964,3.708
					h25.487l-0.843-5.646c-3.608-23.693-27.301-40.885-56.324-40.885c-43.395,0-66.815,35.603-66.815,69.107
					c0,33.808,23.42,68.022,68.198,68.022c31.57,0,54.996-18.017,61.436-47.13h13.899v-24.069h-65.353V626.185z"/>
			</g>
			<g>
				<polygon fill="#7A7D80" points="1249.854,538.988 1223.735,590.794 1191.244,538.988 1161.238,538.988 1210.382,617.549 
					1183.682,670.538 1212.08,670.538 1278.228,538.988 				"/>
			</g>
			<g>
				<g>
					<path fill="#7A7D80" d="M1006.517,620.624c13.262-7.902,21.419-22.201,21.419-37.725c0-24.032-19.527-43.747-43.523-43.905
						h-50.799v131.362h25.572v-43.492h21.291l19.963,43.68h28.847L1006.517,620.624z M984.383,602.741h-25.197v-39.684h24.972
						c10.831,0,19.715,8.914,19.715,19.842C1003.873,593.757,995.117,602.643,984.383,602.741z"/>
				</g>
			</g>
			<g>
				<g>
					<path fill="#7A7D80" d="M1116.6,540.098l-0.382-1.104h-22.71l-45.475,131.55h27.877l9.733-29.351h38.483l9.733,29.351h27.865
						L1116.6,540.098z M1091.027,619.648l13.85-41.824l13.863,41.824H1091.027z"/>
				</g>
			</g>
			<g>
				<g>
					<path fill="#7A7D80" d="M387.733,594.924l-23.711-5.506c-9.769-2.335-14.62-6.774-14.62-14.208
						c0-9.321,8.259-15.239,20.533-15.239c13.547,0,20.97,6.768,23.941,15.464h26.919c-4.251-22.049-21.406-37.731-51.078-37.731
						c-27.337,0-46.803,16.537-46.803,40.06c0,21.382,14.396,31.333,33.037,35.59l23.305,5.288
						c11.249,2.553,15.876,6.774,15.876,14.615c0,10.394-8.69,16.313-21.795,16.313c-12.717,0-22.261-5.294-25.821-16.725h-27.998
						c4.439,24.79,24.996,39.18,54.007,39.18c27.556,0,48.313-15.245,48.313-40.472
						C421.838,611.867,408.922,599.775,387.733,594.924z"/>
				</g>
			</g>
		</g>
	</g>
	<g>
		<path fill="#008BCE" d="M798.873,86.799c1.358,18.835,15.536,115.75,86.548,204.82h0.006c15.076,18.623,32.783,36.8,53.547,53.689
			l-140.1,127.924L658.779,345.308c20.757-16.889,38.465-35.066,53.54-53.689l0,0c71.011-89.07,85.189-185.985,86.548-204.82"/>
		<path fill="#21B5EA" d="M965.395,206.93L798.873,86.805c0-0.003,0-0.006,0-0.006l-0.006,0.003v-0.003c0,0,0,0.003,0,0.006
			L632.345,206.93c32.449,27.361,58.725,56.209,79.974,84.686c0,0.003,0,0.003,0,0.003h-0.006
			c69.695,93.491,85.086,160.943,86.554,181.613c0-0.012,0-0.024,0-0.037c0,0.012,0.006,0.025,0.006,0.037
			c1.461-20.67,16.852-88.122,86.554-181.613h-0.006c0,0,0,0-0.006-0.003C906.663,263.138,932.945,234.291,965.395,206.93z"/>
		<linearGradient id="SVGID_1_" gradientUnits="userSpaceOnUse" x1="771.4002" y1="373.3007" x2="720.0142" y2="402.9684">
			<stop  offset="0.0277" style="stop-color:#3F6CB3"/>
			<stop  offset="0.377" style="stop-color:#2778BD"/>
			<stop  offset="1" style="stop-color:#008BCE"/>
		</linearGradient>
		<path fill="url(#SVGID_1_)" d="M798.873,473.232L658.779,345.308c20.757-16.889,38.465-35.066,53.54-53.689
			C782.015,385.107,797.405,452.559,798.873,473.232z"/>
		<linearGradient id="SVGID_2_" gradientUnits="userSpaceOnUse" x1="824.3201" y1="200.1775" x2="894.6873" y2="156.8873">
			<stop  offset="0" style="stop-color:#00A5DF"/>
			<stop  offset="0.2569" style="stop-color:#0DACE4"/>
			<stop  offset="0.661" style="stop-color:#1CB3E9"/>
			<stop  offset="1" style="stop-color:#21B5EA"/>
		</linearGradient>
		<path fill="url(#SVGID_2_)" d="M798.873,86.802c1.358,18.844,15.542,115.753,86.548,204.817
			c21.249-28.48,47.531-57.328,79.98-84.689L798.873,86.802z"/>
	</g>
	<g>
		<path fill="#008BCE" d="M643.019,800.829v16.304h-42.04v-81.514h18.866v65.211H643.019z"/>
		<path fill="#008BCE" d="M656.317,735.618h19.099v81.514h-19.099V735.618z"/>
		<path fill="#008BCE" d="M707.026,751.919h-18.4v-16.3h55.78v16.3H725.89v65.214h-18.864V751.919z"/>
		<path fill="#008BCE" d="M776.592,750.755v18.517h30.857v14.79h-30.857v17.932h30.857v15.139h-49.723v-81.514h49.723v15.136
			H776.592z"/>
		<path fill="#008BCE" d="M874.626,751.919h-18.402v-16.3h55.781v16.3h-18.517v65.214h-18.863V751.919z"/>
		<path fill="#008BCE" d="M967.889,817.133h-17.353l-29.111-81.514h20.145l17.701,57.525l17.583-57.525h20.494L967.889,817.133z"/>
	</g>
</g>
</svg>
