<?xml version="1.0" encoding="utf-8"?>
<!-- Generator: Adobe Illustrator 23.0.2, SVG Export Plug-In . SVG Version: 6.00 Build 0)  -->
<svg version="1.1" id="Layer_1" xmlns="http://www.w3.org/2000/svg" xmlns:xlink="http://www.w3.org/1999/xlink" x="0px" y="0px"
	 viewBox="0 0 1600 900" enable-background="new 0 0 1600 900" xml:space="preserve">
<g>
	<g>
		<polygon fill="#FFFFFF" points="916.63,297.707 942.06,297.707 942.06,369.093 959.071,369.093 959.071,297.707 984.313,297.707 
			984.313,281.708 916.63,281.708 		"/>
		<rect x="1001.987" y="281.708" fill="#FFFFFF" width="17.376" height="87.385"/>
		<polygon fill="#FFFFFF" points="1102.515,338.782 1059.788,281.708 1043.227,281.708 1043.227,369.093 1060.25,369.093 
			1060.25,312.163 1102.977,369.093 1119.527,369.093 1119.527,281.708 1102.515,281.708 		"/>
		<path fill="#FFFFFF" d="M1189.194,339.63h16.285c-2.82,9.762-10.974,15.326-22.555,15.326c-19.523,0-28.415-15.204-28.415-29.307
			c0-14.456,9.597-29.804,27.369-29.804c10.037,0,18.334,5.123,20.174,12.45l0.638,2.457h16.924l-0.562-3.747
			c-2.39-15.734-18.125-27.148-37.406-27.148c-28.823,0-44.37,23.645-44.37,45.901c0,22.455,15.547,45.174,45.284,45.174
			c20.968,0,36.536-11.965,40.811-31.302h9.234v-15.987h-43.411V339.63z"/>
		<polygon fill="#FFFFFF" points="1457.04,281.708 1439.698,316.129 1418.114,281.708 1398.182,281.708 1430.829,333.89 
			1413.09,369.082 1431.953,369.082 1475.892,281.708 		"/>
		<path fill="#FFFFFF" d="M1295.418,335.94c8.815-5.245,14.225-14.743,14.225-25.055c0-15.966-12.968-29.066-28.9-29.165h-33.748
			v87.252h16.989v-28.889h14.136l13.266,29.021h19.161L1295.418,335.94z M1280.72,324.063h-16.737v-26.355h16.593
			c7.183,0,13.09,5.917,13.09,13.178C1293.666,318.091,1287.848,323.996,1280.72,324.063"/>
		<path fill="#FFFFFF" d="M1368.533,282.459l-0.252-0.739h-15.085l-30.199,87.384h18.51l6.467-19.502h25.563l6.467,19.502h18.5
			L1368.533,282.459z M1351.554,335.29l9.19-27.776l9.211,27.776H1351.554z"/>
		<path fill="#FFFFFF" d="M884.424,318.862l-15.744-3.658c-6.49-1.542-9.717-4.495-9.717-9.431c0-6.193,5.487-10.115,13.64-10.115
			c9.001,0,13.937,4.495,15.898,10.268h17.883c-2.821-14.654-14.214-25.066-33.924-25.066c-18.158,0-31.082,10.985-31.082,26.608
			c0,14.202,9.563,20.814,21.936,23.646l15.481,3.503c7.482,1.697,10.544,4.495,10.544,9.717c0,6.898-5.763,10.831-14.477,10.831
			c-8.441,0-14.787-3.514-17.145-11.118h-18.598c2.941,16.472,16.604,26.026,35.875,26.026c18.3,0,32.084-10.115,32.084-26.884
			C907.078,330.122,898.495,322.089,884.424,318.862"/>
	</g>
	<g>
		<path fill="#B49661" d="M412.202,603.436V326.121h-6.885l-0.707,1.033c-6.836,10.013-15.581,18.422-25.988,25.001
			c-10.356,6.555-21.856,10.455-34.182,11.589l-2.155,0.199v7.635h4.818c2.109,0,3.33,0.626,3.33,3.823v228.034
			c0,2.526-0.841,3.379-3.33,3.379h-4.818v7.846h77.656v-7.846h-4.815C413.23,606.814,412.202,606.277,412.202,603.436z"/>
		<path fill="#B49661" d="M633.884,448.048c-11.169-6.444-20.758-14.942-28.493-25.256l-0.714-0.95h-6.655v27.995
			c-8.618-8.687-18.661-15.505-29.89-20.285c-12.052-5.116-25.019-7.71-38.54-7.71c-13.236,0-25.914,2.598-37.678,7.721
			c-11.737,5.121-22.111,12.217-30.833,21.089c-8.713,8.859-15.72,19.14-20.83,30.565c-5.128,11.459-7.73,23.699-7.73,36.374
			c0,13.551,2.676,26.384,7.953,38.137c5.26,11.73,12.425,22.097,21.3,30.815c8.859,8.718,19.305,15.66,31.051,20.624
			c11.742,4.973,24.113,7.494,36.768,7.494c13.843,0,26.906-2.753,38.821-8.18c11.065-5.042,21.013-11.739,29.61-19.928v16.883
			c0,2.526-0.853,3.379-3.381,3.379h-5.028v7.846h83.956v-7.846h-5.028c-3.198,0-3.823-1.237-3.823-3.379V471.121
			c0-2.139,0.626-3.379,3.823-3.379h5.028v-7.61l-2.127-0.22C657.686,458.48,645.048,454.488,633.884,448.048z M513.164,601.355
			c-5.487-5.756-8.768-15.095-9.749-27.756c-1.024-13.102-1.395-28.215-1.101-44.95v-20.841c-0.294-16.392,0.076-31.429,1.101-44.69
			c0.98-12.775,4.245-22.023,9.709-27.487c4-4,9.097-5.944,15.581-5.944h0.885c12.298,0,24.118,2.391,35.129,7.109
			c11.012,4.72,20.802,11.466,29.128,20.072c2.808,2.818,4.173,6.324,4.173,10.717v101.338c0,4.611-1.458,8.069-4.646,10.738
			c-8.013,8.305-17.59,14.979-28.467,19.84c-10.847,4.852-22.728,7.313-35.317,7.313h-0.885
			C522.445,606.814,517.312,604.979,513.164,601.355z"/>
		<path fill="#B49661" d="M1045.084,603.436V421.842h-6.535l-0.709,1.04c-6.979,10.286-15.892,18.763-26.486,25.191
			c-10.604,6.43-22.375,10.414-34.99,11.839l-2.104,0.239v7.591h4.866c1.965,0,3.031,0.538,3.031,3.379v132.315
			c0,2.841-1.066,3.379-3.031,3.379h-4.866v7.846h79.139v-7.846h-4.866C1045.955,606.814,1045.084,605.962,1045.084,603.436z"/>
		<path fill="#B49661" d="M1460.34,467.742h5.024v-7.61l-2.127-0.22c-13.755-1.432-26.393-5.425-37.553-11.864
			c-11.178-6.449-20.763-14.946-28.493-25.256l-0.714-0.95h-6.66v27.995c-8.616-8.687-18.659-15.505-29.888-20.285
			c-12.054-5.116-25.022-7.71-38.541-7.71c-13.241,0-25.916,2.598-37.678,7.719c-11.739,5.123-22.111,12.219-30.833,21.092
			c-8.718,8.863-15.725,19.145-20.828,30.565c-5.135,11.463-7.735,23.703-7.735,36.374c0,13.547,2.674,26.38,7.953,38.137
			c5.255,11.73,12.425,22.097,21.3,30.815c8.861,8.722,19.312,15.66,31.051,20.624c11.739,4.973,24.113,7.494,36.77,7.494
			c13.843,0,26.903-2.753,38.819-8.18c11.062-5.042,21.013-11.739,29.61-19.928v16.883c0,2.526-0.853,3.379-3.379,3.379h-5.028
			v7.846h83.954v-7.846h-5.024c-3.198,0-3.823-1.237-3.823-3.379V471.121C1456.516,468.982,1457.142,467.742,1460.34,467.742z
			 M1321.388,606.814h-0.885c-6.261,0-11.396-1.835-15.539-5.459c-5.492-5.756-8.773-15.095-9.756-27.756
			c-1.024-13.102-1.395-28.215-1.098-44.95v-20.841c-0.297-16.392,0.074-31.429,1.098-44.69c0.982-12.775,4.25-22.023,9.714-27.487
			c4-4,9.098-5.944,15.581-5.944h0.885c12.295,0,24.113,2.391,35.13,7.109c11.016,4.725,20.804,11.47,29.123,20.072
			c2.809,2.818,4.176,6.324,4.176,10.717v101.338c0,4.611-1.46,8.069-4.644,10.738c-8.018,8.305-17.593,14.979-28.47,19.84
			C1345.858,604.354,1333.976,606.814,1321.388,606.814z"/>
		<path fill="#B49661" d="M322.716,384.025c-10.914-7.932-23.04-14.279-36.045-18.865c-13.055-4.597-27.096-6.929-42.1-6.929
			c-17.868,0-34.993,3.527-50.894,10.483c-15.866,6.94-29.825,16.374-41.488,28.036c-11.663,11.663-21.036,25.626-27.86,41.502
			c-6.829,15.892-10.291,33.009-10.291,51.22c0,17.871,3.462,34.986,10.291,50.878c6.82,15.869,16.193,29.832,27.86,41.502
			c11.663,11.66,25.62,21.092,41.488,28.039c15.899,6.952,33.023,10.479,51.262,10.479c14.638,0,28.678-2.331,41.734-6.924
			c13.009-4.593,25.138-10.942,36.077-18.89c0.111-0.083,0.343-0.218,0.827-0.366l1.671-0.519v-10.265l-3.83,2.985
			c-10.365,8.073-21.984,14.566-34.534,19.293c-13.035,4.894-27.024,7.373-41.578,7.373h-2.204c-13.797,0-25.219-1.909-33.943-5.682
			c-8.713-3.772-14.374-7.04-16.839-9.728c-3.411-3.638-6.074-8.458-7.913-14.325c-1.902-6.057-3.29-13.194-4.127-21.203
			c-0.843-8.059-1.335-16.944-1.455-26.407c-0.125-9.542-0.183-19.567-0.183-30.082v-32.655c0-10.513,0.058-20.545,0.183-30.083
			c0.12-9.459,0.612-18.343,1.455-26.407c0.837-8.011,2.225-15.143,4.127-21.203c1.84-5.865,4.502-10.685,7.932-14.344
			c2.452-2.674,8.11-5.941,16.819-9.709c8.717-3.768,20.139-5.68,33.945-5.68h2.204c14.566,0,28.555,2.482,41.576,7.374
			c12.557,4.727,24.176,11.215,34.536,19.291l3.83,2.985v-10.268l-1.671-0.517C323.096,384.266,322.86,384.131,322.716,384.025z"/>
		<path fill="#B49661" d="M813.026,539.308c-3.944-7.323-8.996-14.413-15.007-21.064c-5.969-6.6-12.411-13.041-19.154-19.164
			c-6.627-5.992-12.981-12.078-18.89-18.084c-5.779-5.86-10.613-11.846-14.367-17.785c-3.601-5.689-5.427-11.605-5.427-17.583
			c0-3.93,1.682-7.151,5.144-9.841c3.652-2.839,7.712-4.217,12.416-4.217c6.558,0,12.907,0.876,18.867,2.6
			c5.946,1.726,11.401,4.169,16.211,7.26c2.34,1.506,4.139,2.92,5.339,4.203c1.061,1.129,1.766,1.882,2.127,2.257
			c0.565,0.943,1.511,2.489,2.841,4.635c1.196,1.953,1.803,4.528,1.803,7.649v13.415h6.896v-38.413h-6.896l-0.014,7.675
			l-2.136-2.137c-1.566-1.56-3.694-3.205-6.271-4.862c-5.223-3.538-11.253-6.275-17.931-8.134
			c-14.043-3.895-30.713-3.61-44.403,0.417c-7.216,2.13-13.612,5.142-19.015,8.956c-5.455,3.858-9.848,8.541-13.055,13.917
			c-3.258,5.466-4.913,11.63-4.913,18.323c0,7.614,2.211,14.932,6.572,21.745c4.203,6.586,9.575,13.116,15.952,19.405
			c6.266,6.178,13.102,12.467,20.318,18.691c7.072,6.104,13.815,12.485,20.035,18.964c6.118,6.382,11.257,13.162,15.28,20.146
			c3.898,6.785,5.877,14.177,5.877,21.981c0,4.732-0.876,8.523-2.595,11.262c-1.78,2.822-3.916,4.889-6.535,6.317
			c-2.72,1.478-5.677,2.479-8.796,2.971c-3.277,0.519-6.321,0.779-9.056,0.779c-6.59,0-12.865-0.788-18.645-2.345
			c-5.793-1.553-11.127-3.735-15.855-6.493c-4.704-2.73-8.819-6.02-12.23-9.779c-1.182-1.298-2.308-2.758-3.448-4.463l-0.704-1.057
			h-7.615l2.345,3.652c3.212,5.01,7.35,9.44,12.3,13.171c5.654,4.268,12.318,7.698,19.803,10.191
			c7.475,2.489,15.567,3.754,24.048,3.754c9,0,17.523-1.214,25.337-3.601c7.874-2.41,14.84-5.992,20.712-10.65
			c5.909-4.685,10.571-10.492,13.852-17.25c3.291-6.766,4.959-14.548,4.959-23.122c0-8.611-2.044-16.786-6.076-24.289V539.308z"/>
		<path fill="#B49661" d="M951.421,539.308c-3.949-7.327-9-14.418-15.011-21.064c-5.941-6.576-12.383-13.018-19.154-19.159
			c-6.623-5.997-12.977-12.082-18.89-18.088c-5.779-5.865-10.613-11.848-14.362-17.785c-3.601-5.682-5.427-11.598-5.427-17.583
			c0-3.93,1.682-7.151,5.144-9.841c3.652-2.839,7.712-4.217,12.416-4.217c6.558,0,12.907,0.876,18.862,2.602
			c5.951,1.722,11.406,4.164,16.216,7.258c2.34,1.506,4.139,2.92,5.339,4.203c1.061,1.129,1.766,1.882,2.127,2.257
			c0.565,0.943,1.511,2.489,2.841,4.635c1.191,1.949,1.798,4.523,1.798,7.649v13.415h6.901v-38.413h-6.901l-0.014,7.67l-2.132-2.132
			c-1.566-1.56-3.694-3.205-6.271-4.862c-5.223-3.538-11.253-6.275-17.931-8.134c-14.043-3.895-30.717-3.61-44.403,0.417
			c-7.216,2.13-13.612,5.142-19.015,8.956c-5.455,3.858-9.848,8.541-13.055,13.917c-3.258,5.457-4.913,11.621-4.913,18.323
			c0,7.619,2.211,14.937,6.567,21.745c4.208,6.59,9.579,13.12,15.957,19.405c6.266,6.178,13.102,12.467,20.313,18.691
			c7.1,6.127,13.843,12.508,20.04,18.964c6.118,6.382,11.257,13.162,15.28,20.146c3.898,6.785,5.877,14.177,5.877,21.981
			c0,4.732-0.876,8.523-2.595,11.262c-1.78,2.822-3.916,4.889-6.539,6.321c-2.711,1.474-5.668,2.475-8.796,2.966
			c-3.272,0.519-6.317,0.779-9.051,0.779c-6.59,0-12.865-0.788-18.645-2.345c-5.793-1.553-11.127-3.735-15.855-6.493
			c-4.704-2.73-8.819-6.02-12.235-9.779c-1.168-1.284-2.294-2.744-3.443-4.463l-0.704-1.057h-7.61l2.34,3.652
			c3.207,5.01,7.346,9.44,12.295,13.171c5.649,4.264,12.314,7.693,19.803,10.191c7.48,2.489,15.572,3.754,24.053,3.754
			c9,0,17.523-1.214,25.337-3.601c7.874-2.405,14.84-5.988,20.707-10.65c5.904-4.676,10.567-10.479,13.866-17.25
			c3.286-6.771,4.95-14.552,4.95-23.122c0-8.611-2.044-16.786-6.076-24.289V539.308z"/>
		<path fill="#B49661" d="M1164.214,423.687c-12.93,0-25.49,2.577-37.336,7.656c-11.823,5.061-22.412,12.149-31.482,21.064
			c-9.074,8.924-16.318,19.439-21.532,31.257c-4.658,10.56-7.267,22.086-7.772,34.302h-0.12l0.014,3.031l-0.014,1.381l0.051,2.373
			h0.07c0.505,12.217,3.114,23.747,7.772,34.309c5.219,11.823,12.462,22.338,21.532,31.255c9.06,8.912,19.655,15.998,31.482,21.064
			c11.846,5.079,24.405,7.656,37.336,7.656c19.507,0,37.47-5.279,53.385-15.692l1.075-0.7v-9.58l-3.703,2.512
			c-15.215,10.316-32.288,15.549-50.757,15.549c-6.637,0-11.86-1.993-15.961-6.09c-5.589-5.594-8.931-14.905-9.936-27.673
			c-1.047-13.269-1.427-28.484-1.122-45.265v-21.513c-0.306-16.744,0.074-31.957,1.122-45.221
			c1.006-12.768,4.347-22.081,9.936-27.675c4.101-4.097,9.32-6.09,15.961-6.09c18.469,0,35.547,5.23,50.757,15.544l3.703,2.514
			v-9.579l-1.075-0.702C1201.684,428.966,1183.72,423.687,1164.214,423.687z"/>
	</g>
</g>
</svg>
