<?xml version="1.0" encoding="utf-8"?>
<!-- Generator: Adobe Illustrator 22.1.0, SVG Export Plug-In . SVG Version: 6.00 Build 0)  -->
<svg version="1.2" baseProfile="tiny" xmlns="http://www.w3.org/2000/svg" xmlns:xlink="http://www.w3.org/1999/xlink" x="0px"
	 y="0px" viewBox="0 0 1600 900" xml:space="preserve">
<g id="Layer_1">
	<g>
		<path fill="#D6272C" d="M602.1,668.1c0,12-9.8,21.8-21.8,21.8H315.3c-12,0-21.8-9.8-21.8-21.8V239.9c0-12,9.8-21.8,21.8-21.8
			h264.9c12,0,21.8,9.8,21.8,21.8V668.1z"/>
		<path fill="#D6272C" d="M1301.2,668.1c0,12-9.8,21.8-21.8,21.8h-264.9c-12,0-21.8-9.8-21.8-21.8V239.9c0-12,9.8-21.8,21.8-21.8
			h264.9c12,0,21.8,9.8,21.8,21.8V668.1z"/>
		<path fill="#D6272C" d="M951.7,668.1c0,12-9.8,21.8-21.8,21.8H664.9c-12,0-21.8-9.8-21.8-21.8V239.9c0-12,9.8-21.8,21.8-21.8
			h264.9c12,0,21.8,9.8,21.8,21.8V668.1z"/>
		<path fill="#FFFFFF" d="M537.8,348.2h-180c-2.1,0-3.8,1.7-3.8,3.8v35.6c0,2.1,1.7,3.8,3.8,3.8h69.5v176.9c0,2.1,1.7,3.8,3.8,3.8
			h35.6c2.1,0,3.8-1.7,3.8-3.8V391.4l67.3,0c2.1,0,3.8-1.7,3.8-3.8V352C541.6,349.9,539.9,348.2,537.8,348.2"/>
		<path fill="#FFFFFF" d="M860.2,528.9h-65.6c-11.5,0-20.7-9.3-20.7-20.7V352c0-2.1-1.7-3.8-3.8-3.8l-35.5,0c-2.1,0-3.8,1.7-3.8,3.8
			v169.9c0,28.4,14.7,50.2,48.8,50.2h80.7c2.2,0,3.8-1.7,3.8-3.8l0-35.5C864,530.6,862.3,528.9,860.2,528.9"/>
		<path fill="#FFFFFF" d="M1241.4,537.2l-25.2-25.1c-1.5-1.5-4-1.5-5.5,0l0-0.1c-12.3,11-28.6,17.7-46.3,17.7
			c-38.4,0-69.6-31.2-69.6-69.6c0-38.4,31.2-69.6,69.6-69.6c17.8,0,34,6.7,46.4,17.7l0,0c1.5,1.5,4.1,1.5,5.5,0l25.2-25.2
			c1.3-1.4,1.4-3.5,0.2-5c-20.2-19-47.3-30.7-77.2-30.7c-62.3,0-112.8,50.5-112.8,112.8c0,62.2,50.5,112.7,112.8,112.7
			c29.9,0,57.1-11.7,77.2-30.7C1242.7,540.7,1242.7,538.6,1241.4,537.2"/>
	</g>
</g>
<g id="Laag_2" display="none">
</g>
</svg>
