<?xml version="1.0" encoding="utf-8"?>
<!-- Generator: Adobe Illustrator 22.1.0, SVG Export Plug-In . SVG Version: 6.00 Build 0)  -->
<svg version="1.1" xmlns="http://www.w3.org/2000/svg" xmlns:xlink="http://www.w3.org/1999/xlink" x="0px" y="0px"
	 viewBox="0 0 1600 900" enable-background="new 0 0 1600 900" xml:space="preserve">
<g id="Layer_1">
	<g>
		<path fill="#FEFEFE" d="M511.69,612.897c25.231,0.102,44.179-3.746,61.869-13.011c13.276-6.954,26.477-14.047,39.555-21.37
			c38.633-21.632,76.144-45.001,111.253-72.064c10.035-7.735,20.326-15.24,29.147-24.37c12.592-13.035,16.661-28.508,11.091-45.96
			c-3.969-12.436-12.111-21.959-22.474-29.626c-25.324-18.735-50.62-37.51-76.693-55.205
			c-32.504-22.059-66.401-41.545-102.921-56.27c-11.079-4.467-22.342-8.034-34.302-9.086c-15.045-1.323-29.711,0.686-43.847,5.779
			c-23.899,8.609-46.968,19.166-69.549,30.776c-39.373,20.243-75.753,45.01-110.023,72.963
			c-9.201,7.505-17.865,15.492-24.642,25.339c-13.488,19.6-13.508,39.6,0.101,57.899c5.133,6.903,11.432,12.753,17.691,18.604
			c18.185,17.002,38.548,31.072,59.67,44.105c26.189,16.16,53.17,30.957,79.852,46.268c8.218,4.716,16.142,10.001,24.74,13.992
			C479.572,609.721,498.044,612.737,511.69,612.897z"/>
		<path fill="#AFAFAF" d="M1009.177,477.882c0,10.626,0.051,21.253-0.047,31.878c-0.018,1.934,0.586,2.352,2.409,2.335
			c9.279-0.088,18.561-0.103,27.84,0.008c2.062,0.025,2.584-0.57,2.576-2.601c-0.076-20.119-0.005-40.238-0.092-60.356
			c-0.014-3.294-0.377-6.623-0.954-9.869c-1.266-7.128-3.45-13.967-7.24-20.211c-4.106-6.764-9.379-12.353-16.456-16.045
			c-5.056-2.638-10.447-3.957-16.161-4.6c-8.01-0.902-15.468,0.369-22.549,4.017c-4.31,2.221-8.005,5.303-11.245,8.909
			c-0.974,1.084-1.487,1.378-2.685-0.048c-2.97-3.535-6.656-6.305-10.726-8.517c-7.919-4.303-16.359-5.434-25.228-4.257
			c-8.599,1.142-16.155,4.45-22.388,10.522c-10.831,10.551-15.521,23.945-15.94,38.555c-0.597,20.81-0.138,41.651-0.192,62.478
			c-0.004,1.633,0.533,2.018,2.077,2.007c9.067-0.064,18.135-0.024,27.203-0.035c3.404-0.004,3.031,0.349,3.072-3.074
			c0.259-21.518-0.764-43.057,0.534-64.549c0.467-7.736,6.858-13.759,15.866-12.136c6.533,1.177,10.767,8.039,10.781,13.998
			c0.049,21.182,0.04,42.364-0.018,63.545c-0.005,1.77,0.497,2.274,2.262,2.258c9.35-0.082,18.703-0.09,28.053,0.005
			c1.85,0.019,2.358-0.818,2.435-2.353c0.028-0.565,0.011-1.133,0.011-1.7c0.001-20.544,0.017-41.088-0.026-61.633
			c-0.004-1.884,0.296-3.656,0.957-5.381c3.503-9.146,13.363-11.322,19.954-6.705c4.027,2.821,5.851,7.037,5.89,11.888
			C1009.235,456.77,1009.176,467.326,1009.177,477.882z"/>
		<path fill="#AFAFAF" d="M1353.955,433.525c0-1.317,0-2.092,0-2.866c0-24.655-0.019-49.31,0.039-73.965
			c0.004-1.827-0.408-2.426-2.337-2.405c-9.28,0.104-18.562,0.047-27.843,0.047c-3.013,0-2.977,0.001-3.021,2.918
			c-0.284,18.762,0.549,37.514,0.443,56.276c-0.086,15.374-0.067,30.748,0.003,46.122c0.076,16.491,0.294,32.982,0.363,49.474
			c0.007,1.759,0.599,2.114,2.203,2.103c9.706-0.062,19.413-0.085,29.118,0.015c1.917,0.02,2.36-0.558,2.348-2.399
			c-0.08-12.044-0.045-24.088-0.031-36.132c0.001-0.659-0.19-1.368,0.186-2.024c0.808,0.291,1.208,0.896,1.659,1.417
			c2.444,2.827,4.855,5.682,7.301,8.507c3.97,4.588,7.965,9.154,11.937,13.74c4.294,4.957,8.592,9.911,12.849,14.899
			c1.26,1.477,2.805,1.968,4.687,1.962c10.556-0.034,21.113-0.019,31.669-0.012c1.042,0.001,2.066-0.02,3.114-0.768
			c-4.207-4.775-8.334-9.493-12.498-14.177c-5.908-6.646-11.83-13.279-17.771-19.895c-6.556-7.301-13.124-14.591-19.734-21.842
			c-0.802-0.88-0.869-1.406,0-2.249c1.724-1.67,3.309-3.479,4.936-5.245c8.328-9.046,16.761-17.994,25.185-26.951
			c5.425-5.768,10.899-11.49,16.349-17.234c0.559-0.589,1.065-1.21,1.188-2.159c-12.542,0-24.938,0.022-37.334-0.029
			c-1.462-0.006-2.504,0.416-3.537,1.456c-9.785,9.853-19.617,19.659-29.438,29.476
			C1355.45,432.121,1354.889,432.635,1353.955,433.525z"/>
		<path fill="#AFAFAF" d="M1121.418,434.02c0,9.917-0.024,19.834,0.022,29.751c0.008,1.803-0.284,3.497-0.883,5.18
			c-2.855,8.027-9.671,11.887-17.67,9.977c-6.436-1.536-11.226-7.833-11.236-14.93c-0.028-20.33-0.039-40.66,0.025-60.989
			c0.006-1.863-0.47-2.405-2.363-2.384c-9.137,0.099-18.276,0.104-27.412-0.002c-2.014-0.023-2.625,0.482-2.615,2.562
			c0.084,17.354,0.056,34.709,0.042,52.064c-0.005,5.788,0.186,11.523,1.189,17.278c2.015,11.555,7.091,21.262,15.807,29.158
			c8.42,7.628,18.306,11.129,29.544,11.235c3.395,0.032,6.733-0.286,10.102-0.787c10.443-1.553,18.925-6.591,25.528-14.577
			c8.664-10.48,12.256-23.035,12.534-36.34c0.407-19.471,0.087-38.957,0.145-58.437c0.005-1.695-0.491-2.157-2.159-2.144
			c-9.491,0.073-18.984,0.073-28.475,0c-1.67-0.013-2.173,0.452-2.161,2.148C1121.456,413.194,1121.419,423.607,1121.418,434.02z"/>
		<path fill="#AFAFAF" d="M1209.45,432.135c-0.984,1.238-1.618,2.085-2.301,2.89c-4.974,5.858-9.973,11.694-14.934,17.563
			c-5.915,6.997-11.834,13.991-17.683,21.043c-3.394,4.092-6.492,8.397-7.802,13.683c-1.373,5.541-1.252,11.019,1.87,15.95
			c3.79,5.987,10.023,7.791,16.505,7.858c22.238,0.229,44.48,0.072,66.72,0.131c1.773,0.005,2.273-0.505,2.258-2.265
			c-0.081-9.207-0.037-18.415-0.038-27.623c0-3.162-0.126-3.295-3.365-3.3c-5.879-0.009-11.759-0.075-17.636,0.017
			c-6.431,0.1-12.871-0.404-19.293,0.292c-0.284,0.031-0.633,0.084-0.699-0.25c-0.044-0.224,0.089-0.544,0.247-0.736
			c0.849-1.035,1.728-2.047,2.603-3.062c4.557-5.289,9.139-10.556,13.666-15.87c5.302-6.223,10.527-12.513,15.841-18.725
			c5.386-6.296,9.311-13.14,8.639-21.821c-0.4-5.168-2.334-9.498-6.591-12.701c-5.058-3.806-10.994-4.818-16.986-4.881
			c-18.839-0.199-37.681-0.054-56.521-0.11c-1.663-0.005-1.992,0.584-1.982,2.099c0.06,9.278,0.067,18.557-0.005,27.835
			c-0.012,1.62,0.509,2.025,2.067,2.017c10.978-0.06,21.957-0.032,32.935-0.032C1207.648,432.135,1208.332,432.135,1209.45,432.135z
			"/>
		<path fill="#AFAFAF" d="M1303.793,455.962c0-17.847-0.018-35.694,0.03-53.54c0.004-1.608-0.348-2.216-2.106-2.2
			c-9.489,0.086-18.98,0.086-28.469,0.001c-1.802-0.016-2.236,0.554-2.234,2.287c0.046,35.481,0.046,70.962,0.001,106.443
			c-0.002,1.71,0.39,2.321,2.215,2.304c9.418-0.088,18.839-0.096,28.256,0.005c1.915,0.021,2.353-0.556,2.346-2.397
			C1303.766,491.231,1303.793,473.596,1303.793,455.962z"/>
		<path fill="#AFAFAF" d="M1267.223,370.399c-0.623,10.717,9,20.187,19.671,20.092c11.401-0.102,20.12-8.572,20.209-19.897
			c0.087-11.125-8.746-19.974-20.004-20.123C1276.373,350.33,1266.627,359.934,1267.223,370.399z"/>
		<path fill="#AFAFAF" d="M1123.27,380.269c8.097,0.002,14.22-6.11,14.313-14.121c0.098-8.488-6.599-14.819-14.34-14.631
			c-8.168,0.198-14.252,5.516-14.351,14.617C1108.806,374.118,1115.474,380.419,1123.27,380.269z"/>
		<path fill="#AFAFAF" d="M1086.733,380.269c8.33,0.004,14.618-6.144,14.707-14.243c0.088-8.034-6.365-14.514-13.868-14.472
			c-9.195,0.051-14.758,5.823-14.893,14.47C1072.55,374.255,1079.546,380.368,1086.733,380.269z"/>
		<path fill="#AFAFAF" d="M479.454,266.333c1.18,1.639,3.056,0.893,4.573,1.205c5.904,1.213,11.672,2.682,16.964,6.228
			c-1.785,0.951-3.611,1.06-5.319,1.456c-17.937,4.157-35.278,10.053-52.101,17.526c-17.48,7.765-34.145,17.033-50.501,26.91
			c-14.88,8.986-29.409,18.516-44.011,27.936c-12.109,7.812-24.309,15.483-36.343,23.408c-11.608,7.645-22.909,15.743-33.641,24.587
			c-4.572,3.767-9.048,7.701-13.187,11.932c-7.13,7.289-13.622,15.121-17.871,24.537c-2.015,4.464-3.215,9.108-3.74,14.025
			c-0.883,8.264,2.025,15.413,5.968,22.263c6.242,10.842,14.846,19.776,23.946,28.17c14.487,13.363,30.254,25.132,46.36,36.474
			c15.711,11.064,31.77,21.605,47.791,32.2c11.668,7.716,23.695,14.858,35.974,21.585c19.451,10.656,39.577,19.744,60.564,26.936
			c12.424,4.258,25.031,7.828,37.859,10.635c0.477,0.104,0.93,0.317,1.75,0.604c-2.682,1.221-5.293,1.654-7.812,2.324
			c-6.874,1.828-13.839,3.334-20.894,4.138c-6.282,0.717-12.58,1.034-18.977,0.664c-12.353-0.714-24.51-2.521-36.522-5.287
			c-15.382-3.542-30.187-8.834-44.62-15.237c-18.595-8.25-36.181-18.323-53.441-29.017c-13.333-8.261-26.455-16.846-39.534-25.5
			c-15.554-10.292-31.239-20.389-46.737-30.765c-11.079-7.418-21.855-15.289-32.03-23.918c-9.663-8.194-18.785-16.953-25.693-27.711
			c-4.076-6.347-7.287-13.08-8.272-20.679c-0.073-0.562-0.226-0.954-0.851-0.997c0-2.693,0-5.385,0-8.078
			c0.623-0.049,0.824-0.436,0.839-1.005c0.062-2.289,0.791-4.437,1.477-6.58c3.443-10.745,10.024-19.558,17.522-27.705
			c9.444-10.262,19.993-19.338,31.123-27.721c13.421-10.108,27.258-19.62,41.511-28.523c20.538-12.83,41.031-25.731,61.604-38.504
			c16.574-10.289,33.421-20.09,51.157-28.301c12.913-5.978,26.191-10.921,39.94-14.558c6.391-1.691,12.82-3.258,19.418-4.021
			c3.15-0.364,6.286-0.776,9.463-0.808c0.699-0.007,1.655,0.365,1.859-0.831C456.497,266.333,467.976,266.333,479.454,266.333z"/>
		<path fill="#AFAFAF" d="M596.791,266.333c0.066,0.771,0.606,0.828,1.215,0.847c16.062,0.496,31.238,5.088,46.288,10.155
			c8.373,2.819,16.478,6.324,24.482,10.082c18.207,8.548,35.439,18.812,52.475,29.439c18.036,11.251,36.126,22.416,54.141,33.7
			c10.536,6.6,20.917,13.445,31.08,20.609c9.165,6.461,18.143,13.165,26.753,20.368c6.301,5.272,12.387,10.773,17.942,16.803
			c7.922,8.6,15.043,17.726,18.766,29.132c3.063,9.383,2.094,18.351-1.615,27.221c-3.701,8.853-9.45,16.294-15.909,23.312
			c-10.534,11.445-22.796,20.809-35.27,29.94c-9.458,6.923-19.217,13.411-29.009,19.847c-14.876,9.777-29.74,19.572-44.678,29.254
			c-11.379,7.375-22.765,14.746-34.426,21.672c-7.047,4.185-14.185,8.212-21.407,12.097c-10.724,5.769-21.722,10.944-33.048,15.389
			c-13.813,5.42-27.94,9.763-42.581,12.454c-5.956,1.095-11.956,1.799-17.919,2.784c-1.868,0.308-3.79,0.258-5.687,0.432
			c-4.002,0.366-8.041,0.523-12.06,0.457c-5.849-0.096-11.614-1.079-17.383-2.027c-7.103-1.167-14.073-2.853-20.982-4.836
			c-0.4-0.115-0.776-0.31-1.418-0.572c4.878-1.189,9.514-2.267,14.122-3.451c16.507-4.244,32.602-9.706,48.326-16.285
			c8.222-3.44,16.331-7.139,24.272-11.158c15.201-7.694,30.027-16.077,44.303-25.396c11.476-7.491,22.948-14.989,34.338-22.61
			c14.899-9.968,29.542-20.308,43.701-31.303c7.406-5.751,14.52-11.869,21.435-18.232c8.354-7.687,16.044-15.906,22.297-25.399
			c3.32-5.04,6.095-10.384,7.236-16.371c1.274-6.682,0.389-13.193-2.058-19.527c-3.094-8.01-7.815-14.962-13.455-21.383
			c-7.679-8.743-16.379-16.342-25.532-23.479c-11.589-9.037-23.731-17.284-36.048-25.27c-18.608-12.065-37.262-24.062-55.989-35.941
			c-14.02-8.893-28.256-17.426-42.941-25.207c-15.084-7.992-30.611-14.918-46.74-20.51c-10.407-3.608-20.999-6.538-31.743-8.934
			c-0.559-0.125-1.103-0.214-1.667-0.782c3.874-2.639,8.138-4.185,12.617-5.166c2.882-0.632,5.75-1.443,8.753-1.325
			c0.571,0.023,0.953-0.215,1.011-0.832C574.117,266.333,585.454,266.333,596.791,266.333z"/>
		<path fill="#AD2B32" d="M511.69,612.897c-13.646-0.16-32.118-3.176-49.483-11.238c-8.598-3.992-16.522-9.276-24.74-13.992
			c-26.681-15.312-53.662-30.108-79.852-46.268c-21.122-13.033-41.485-27.103-59.67-44.105
			c-6.259-5.852-12.558-11.701-17.691-18.604c-13.609-18.3-13.589-38.299-0.101-57.899c6.777-9.848,15.441-17.835,24.642-25.339
			c34.27-27.952,70.65-52.72,110.023-72.963c22.581-11.609,45.65-22.166,69.549-30.776c14.136-5.092,28.801-7.102,43.847-5.779
			c11.96,1.052,23.224,4.619,34.302,9.086c36.52,14.725,70.417,34.211,102.921,56.27c26.074,17.695,51.37,36.47,76.693,55.205
			c10.363,7.667,18.506,17.191,22.474,29.626c5.57,17.452,1.501,32.925-11.091,45.96c-8.821,9.131-19.112,16.635-29.147,24.37
			c-35.109,27.063-72.62,50.432-111.253,72.064c-13.078,7.323-26.279,14.416-39.555,21.37
			C555.869,609.151,536.921,612.999,511.69,612.897z M549.496,488.768c3.902-1.711,7.471-3.709,10.712-6.242
			c11.036-8.623,16.94-20.078,18.517-33.861c1.736-15.173-3.608-27.287-18.047-34.419c-8.601-4.249-17.859-6.072-27.31-6.184
			c-24.011-0.285-48.027-0.159-72.041-0.245c-1.289-0.005-1.472,0.559-1.58,1.605c-1.352,13.019-2.736,26.035-4.114,39.052
			c-1.08,10.202-2.176,20.402-3.244,30.605c-1.075,10.274-2.095,20.554-3.215,30.823c-0.169,1.552,0.291,1.867,1.774,1.917
			c9.914,0.333,19.831-0.012,29.741,0.216c1.981,0.046,2.373-0.76,2.529-2.369c0.439-4.507,0.933-9.009,1.44-13.509
			c2.108-18.702,4.236-37.401,6.338-56.104c0.471-4.186,0.437-4.19,4.68-4.177c0.283,0.001,0.567-0.006,0.85,0.001
			c9.055,0.216,18.124,0.155,27.153,0.97c4.886,0.441,9.677,1.425,13.881,4.19c3.992,2.626,5.538,6.546,4.587,11.209
			c-0.982,4.811-3.682,8.369-7.858,10.819c-4.972,2.917-10.495,3.751-16.13,3.848c-5.735,0.099-11.475,0.028-17.21-0.099
			c-1.632-0.036-2.239,0.47-2.365,2.085c-0.276,3.525-0.66,7.045-1.128,10.551c-0.149,1.112,0.327,1.687,1.04,2.338
			c10.453,9.55,20.902,19.103,31.313,28.697c1.008,0.929,2.006,1.349,3.384,1.323c9.98-0.19,19.962-0.326,29.943-0.449
			c3.629-0.045,7.259-0.007,10.888-0.007C565.997,503.452,557.96,496.016,549.496,488.768z M389.813,406.713
			c-19.907,0-39.815-0.002-59.722,0.005c-1.075,0-2.24-0.357-2.432,1.461c-0.917,8.654-1.908,17.3-2.964,25.938
			c-0.223,1.825,0.339,2.233,2.111,2.223c13.106-0.074,26.212-0.009,39.318-0.078c1.706-0.009,2.157,0.432,1.969,2.131
			c-0.794,7.174-1.464,14.362-2.185,21.544c-1.068,10.632-2.147,21.262-3.209,31.894c-0.647,6.478-1.261,12.96-1.919,19.437
			c-0.109,1.073-0.028,1.676,1.35,1.67c11.052-0.05,22.103-0.046,33.155-0.003c1.219,0.005,1.559-0.46,1.677-1.577
			c0.817-7.741,1.69-15.475,2.544-23.212c1.824-16.528,3.677-33.052,5.423-49.588c0.182-1.726,0.706-2.166,2.408-2.157
			c13.177,0.075,26.354,0.014,39.531,0.078c1.526,0.007,2.018-0.36,2.145-1.934c0.701-8.674,1.484-17.344,2.37-26.001
			c0.196-1.916-0.728-1.848-2.062-1.847C429.486,406.72,409.65,406.713,389.813,406.713z M650.793,406.713
			c-18.985,0-37.97,0-56.955,0c-1.204,0-2.411,0.046-3.612-0.012c-1.006-0.049-1.359,0.409-1.464,1.351
			c-0.991,8.86-1.994,17.718-3.037,26.572c-0.155,1.314,0.233,1.722,1.577,1.705c5.312-0.069,10.626-0.028,15.939-0.028
			c8.076,0,16.152,0.041,24.227-0.036c1.534-0.015,1.958,0.372,1.692,1.883c-0.294,1.667-0.339,3.377-0.506,5.067
			c-1.038,10.49-2.07,20.981-3.123,31.469c-1.209,12.035-2.401,24.073-3.695,36.099c-0.204,1.892,0.425,2.181,2.134,2.167
			c9.634-0.08,19.268-0.038,28.902-0.038c4.972,0,4.974,0,5.505-4.822c2.55-23.137,5.129-46.271,7.591-69.418
			c0.197-1.854,0.709-2.284,2.509-2.272c13.176,0.082,26.352,0.022,39.528,0.076c1.395,0.006,1.94-0.278,2.064-1.785
			c0.719-8.743,1.514-17.481,2.383-26.21c0.194-1.95-0.895-1.776-2.152-1.775C690.463,406.717,670.628,406.713,650.793,406.713z"/>
		<path fill="#AFAFAF" d="M1009.177,477.882c-0.001-10.555,0.058-21.111-0.027-31.666c-0.039-4.851-1.863-9.067-5.89-11.888
			c-6.591-4.617-16.451-2.441-19.954,6.705c-0.661,1.725-0.961,3.497-0.957,5.381c0.044,20.544,0.027,41.088,0.026,61.633
			c0,0.567,0.017,1.134-0.011,1.7c-0.076,1.535-0.585,2.372-2.435,2.353c-9.35-0.095-18.702-0.087-28.053-0.005
			c-1.765,0.015-2.267-0.488-2.262-2.258c0.058-21.182,0.067-42.363,0.018-63.545c-0.014-5.959-4.248-12.821-10.781-13.998
			c-9.008-1.623-15.398,4.4-15.866,12.136c-1.298,21.493-0.276,43.031-0.534,64.549c-0.041,3.423,0.332,3.07-3.072,3.074
			c-9.068,0.011-18.136-0.029-27.203,0.035c-1.544,0.011-2.081-0.374-2.077-2.007c0.053-20.827-0.406-41.668,0.192-62.478
			c0.419-14.61,5.11-28.004,15.94-38.555c6.233-6.072,13.79-9.38,22.388-10.522c8.868-1.177,17.309-0.046,25.228,4.257
			c4.07,2.211,7.756,4.981,10.726,8.517c1.198,1.426,1.711,1.133,2.685,0.048c3.239-3.605,6.934-6.688,11.245-8.909
			c7.081-3.648,14.54-4.919,22.549-4.017c5.714,0.643,11.105,1.962,16.161,4.6c7.076,3.692,12.349,9.281,16.456,16.045
			c3.791,6.244,5.974,13.084,7.24,20.211c0.577,3.246,0.94,6.576,0.954,9.869c0.087,20.119,0.016,40.238,0.092,60.356
			c0.008,2.031-0.514,2.626-2.576,2.601c-9.279-0.11-18.56-0.096-27.84-0.008c-1.823,0.017-2.427-0.401-2.409-2.335
			C1009.228,499.135,1009.177,488.508,1009.177,477.882z"/>
		<path fill="#AFAFAF" d="M1353.955,433.525c0.934-0.89,1.495-1.404,2.033-1.941c9.821-9.817,19.654-19.623,29.438-29.476
			c1.033-1.04,2.075-1.462,3.537-1.456c12.396,0.051,24.792,0.029,37.334,0.029c-0.123,0.949-0.63,1.57-1.188,2.159
			c-5.45,5.745-10.924,11.467-16.349,17.234c-8.424,8.956-16.857,17.905-25.185,26.951c-1.626,1.767-3.212,3.575-4.936,5.245
			c-0.869,0.842-0.802,1.369,0,2.249c6.61,7.251,13.178,14.542,19.734,21.842c5.941,6.616,11.863,13.249,17.771,19.895
			c4.164,4.684,8.291,9.402,12.498,14.177c-1.048,0.748-2.072,0.768-3.114,0.768c-10.557-0.006-21.113-0.021-31.669,0.012
			c-1.882,0.006-3.427-0.485-4.687-1.962c-4.257-4.989-8.555-9.942-12.849-14.899c-3.972-4.586-7.967-9.152-11.937-13.74
			c-2.445-2.826-4.857-5.681-7.301-8.507c-0.451-0.521-0.851-1.126-1.659-1.417c-0.377,0.656-0.186,1.365-0.186,2.024
			c-0.014,12.044-0.049,24.089,0.031,36.132c0.012,1.841-0.431,2.419-2.348,2.399c-9.705-0.1-19.412-0.077-29.118-0.015
			c-1.604,0.01-2.196-0.344-2.203-2.103c-0.069-16.491-0.288-32.982-0.363-49.474c-0.07-15.374-0.09-30.748-0.003-46.122
			c0.105-18.761-0.727-37.514-0.443-56.276c0.044-2.917,0.008-2.918,3.021-2.918c9.281,0,18.563,0.057,27.843-0.047
			c1.929-0.022,2.341,0.577,2.337,2.405c-0.058,24.655-0.039,49.31-0.039,73.965
			C1353.955,431.434,1353.955,432.208,1353.955,433.525z"/>
		<path fill="#AFAFAF" d="M1121.418,434.02c0.001-10.413,0.037-20.826-0.036-31.238c-0.012-1.695,0.491-2.16,2.161-2.148
			c9.491,0.073,18.984,0.073,28.475,0c1.668-0.013,2.164,0.449,2.159,2.144c-0.058,19.48,0.262,38.966-0.145,58.437
			c-0.278,13.305-3.87,25.861-12.534,36.34c-6.603,7.986-15.085,13.024-25.528,14.577c-3.369,0.501-6.707,0.819-10.102,0.787
			c-11.238-0.105-21.124-3.606-29.544-11.235c-8.716-7.897-13.792-17.603-15.807-29.158c-1.003-5.755-1.194-11.49-1.189-17.278
			c0.014-17.355,0.041-34.71-0.042-52.064c-0.01-2.08,0.601-2.585,2.615-2.562c9.137,0.106,18.276,0.101,27.412,0.002
			c1.893-0.02,2.369,0.521,2.363,2.384c-0.064,20.33-0.053,40.659-0.025,60.989c0.01,7.097,4.8,13.394,11.236,14.93
			c7.999,1.909,14.815-1.951,17.67-9.977c0.599-1.684,0.891-3.378,0.883-5.18C1121.393,453.854,1121.418,443.937,1121.418,434.02z"
			/>
		<path fill="#AFAFAF" d="M1209.45,432.135c-1.118,0-1.801,0-2.485,0c-10.979,0-21.957-0.028-32.935,0.032
			c-1.557,0.008-2.079-0.397-2.067-2.017c0.071-9.278,0.064-18.557,0.005-27.835c-0.01-1.515,0.319-2.104,1.982-2.099
			c18.84,0.056,37.682-0.089,56.521,0.11c5.992,0.063,11.928,1.075,16.986,4.881c4.257,3.203,6.192,7.534,6.591,12.701
			c0.672,8.681-3.253,15.525-8.639,21.821c-5.314,6.213-10.539,12.502-15.841,18.725c-4.527,5.314-9.11,10.581-13.666,15.87
			c-0.874,1.015-1.753,2.026-2.603,3.062c-0.158,0.192-0.291,0.512-0.247,0.736c0.066,0.335,0.415,0.281,0.699,0.25
			c6.421-0.696,12.862-0.192,19.293-0.292c5.877-0.092,11.757-0.026,17.636-0.017c3.239,0.005,3.364,0.138,3.365,3.3
			c0.001,9.208-0.043,18.416,0.038,27.623c0.015,1.76-0.485,2.27-2.258,2.265c-22.24-0.059-44.482,0.098-66.72-0.131
			c-6.482-0.067-12.715-1.871-16.505-7.858c-3.122-4.931-3.243-10.41-1.87-15.95c1.31-5.285,4.408-9.591,7.802-13.683
			c5.849-7.052,11.769-14.046,17.683-21.043c4.961-5.869,9.96-11.705,14.934-17.563
			C1207.832,434.22,1208.466,433.374,1209.45,432.135z"/>
		<path fill="#AFAFAF" d="M1303.793,455.962c0,17.634-0.027,35.269,0.041,52.903c0.007,1.841-0.431,2.418-2.346,2.397
			c-9.418-0.101-18.838-0.093-28.256-0.005c-1.826,0.017-2.217-0.594-2.215-2.304c0.045-35.481,0.045-70.962-0.001-106.443
			c-0.002-1.733,0.432-2.304,2.234-2.287c9.489,0.085,18.98,0.085,28.469-0.001c1.758-0.016,2.11,0.592,2.106,2.2
			C1303.775,420.268,1303.793,438.115,1303.793,455.962z"/>
		<path fill="#AFAFAF" d="M1267.223,370.399c-0.596-10.466,9.15-20.07,19.875-19.928c11.258,0.149,20.092,8.997,20.004,20.123
			c-0.089,11.325-8.808,19.796-20.209,19.897C1276.223,390.587,1266.6,381.116,1267.223,370.399z"/>
		<path fill="#AFAFAF" d="M1123.27,380.269c-7.796,0.15-14.464-6.151-14.377-14.136c0.099-9.101,6.182-14.418,14.351-14.617
			c7.741-0.188,14.438,6.143,14.34,14.631C1137.49,374.159,1131.367,380.271,1123.27,380.269z"/>
		<path fill="#AFAFAF" d="M1086.733,380.269c-7.188,0.099-14.183-6.014-14.055-14.245c0.135-8.647,5.698-14.419,14.893-14.47
			c7.503-0.042,13.956,6.438,13.868,14.472C1101.352,374.125,1095.063,380.273,1086.733,380.269z"/>
		<path fill="#E1E2E3" d="M549.496,488.768c8.464,7.247,16.501,14.684,24.529,22.582c-3.629,0-7.259-0.037-10.888,0.007
			c-9.981,0.123-19.963,0.259-29.943,0.449c-1.378,0.026-2.376-0.394-3.384-1.323c-10.412-9.594-20.861-19.147-31.313-28.697
			c-0.713-0.651-1.188-1.226-1.04-2.338c0.468-3.505,0.852-7.025,1.128-10.551c0.126-1.615,0.733-2.122,2.365-2.085
			c5.735,0.127,11.475,0.198,17.21,0.099c5.635-0.097,11.157-0.931,16.13-3.848c4.175-2.45,6.876-6.007,7.858-10.819
			c0.951-4.663-0.595-8.583-4.587-11.209c-4.204-2.765-8.995-3.749-13.881-4.19c-9.029-0.815-18.098-0.754-27.153-0.97
			c-0.283-0.007-0.567,0-0.85-0.001c-4.242-0.013-4.209-0.009-4.68,4.177c-2.103,18.702-4.231,37.402-6.338,56.104
			c-0.507,4.5-1.002,9.002-1.44,13.509c-0.156,1.609-0.548,2.415-2.529,2.369c-9.911-0.228-19.827,0.117-29.741-0.216
			c-1.483-0.05-1.943-0.365-1.774-1.917c1.12-10.269,2.14-20.549,3.215-30.823c1.068-10.203,2.164-20.403,3.244-30.605
			c1.379-13.016,2.763-26.032,4.114-39.052c0.109-1.046,0.292-1.609,1.58-1.605c24.014,0.086,48.03-0.04,72.041,0.245
			c9.451,0.112,18.709,1.935,27.31,6.184c14.439,7.133,19.783,19.247,18.047,34.419c-1.577,13.783-7.48,25.237-18.517,33.861
			C556.967,485.059,553.398,487.057,549.496,488.768z"/>
		<path fill="#E1E2E3" d="M389.813,406.713c19.836,0,39.673,0.007,59.509-0.016c1.334-0.001,2.258-0.069,2.062,1.847
			c-0.886,8.657-1.669,17.327-2.37,26.001c-0.127,1.574-0.619,1.941-2.145,1.934c-13.177-0.064-26.354-0.003-39.531-0.078
			c-1.702-0.01-2.226,0.431-2.408,2.157c-1.746,16.536-3.6,33.06-5.423,49.588c-0.854,7.737-1.727,15.472-2.544,23.212
			c-0.118,1.117-0.459,1.582-1.677,1.577c-11.052-0.043-22.103-0.048-33.155,0.003c-1.378,0.006-1.459-0.597-1.35-1.67
			c0.658-6.477,1.272-12.959,1.919-19.437c1.062-10.632,2.141-21.263,3.209-31.894c0.721-7.182,1.39-14.37,2.185-21.544
			c0.188-1.698-0.264-2.14-1.969-2.131c-13.106,0.069-26.212,0.004-39.318,0.078c-1.772,0.01-2.335-0.398-2.111-2.223
			c1.056-8.638,2.047-17.284,2.964-25.938c0.193-1.818,1.357-1.461,2.432-1.461C349.999,406.711,369.906,406.713,389.813,406.713z"
			/>
		<path fill="#E1E2E3" d="M650.793,406.713c19.835,0,39.67,0.004,59.506-0.01c1.257-0.001,2.346-0.174,2.152,1.775
			c-0.869,8.73-1.664,17.467-2.383,26.21c-0.124,1.507-0.669,1.79-2.064,1.785c-13.176-0.054-26.353,0.006-39.528-0.076
			c-1.8-0.011-2.312,0.418-2.509,2.272c-2.462,23.147-5.041,46.281-7.591,69.418c-0.531,4.822-0.532,4.822-5.505,4.822
			c-9.634,0-19.269-0.041-28.902,0.038c-1.708,0.014-2.337-0.275-2.134-2.167c1.294-12.026,2.486-24.063,3.695-36.099
			c1.053-10.489,2.085-20.979,3.123-31.469c0.167-1.69,0.212-3.4,0.506-5.067c0.266-1.511-0.158-1.897-1.692-1.883
			c-8.075,0.078-16.151,0.036-24.227,0.036c-5.313,0-10.627-0.041-15.939,0.028c-1.344,0.017-1.732-0.391-1.577-1.705
			c1.043-8.854,2.046-17.712,3.037-26.572c0.105-0.941,0.458-1.4,1.464-1.351c1.201,0.059,2.408,0.012,3.612,0.012
			C612.823,406.713,631.808,406.713,650.793,406.713z"/>
	</g>
</g>
<g id="Laag_2">
</g>
</svg>
