<?xml version="1.0" encoding="utf-8"?>
<!-- Generator: Adobe Illustrator 22.1.0, SVG Export Plug-In . SVG Version: 6.00 Build 0)  -->
<svg version="1.2" baseProfile="tiny" xmlns="http://www.w3.org/2000/svg" xmlns:xlink="http://www.w3.org/1999/xlink" x="0px"
	 y="0px" viewBox="0 0 1600 900" xml:space="preserve">
<g id="Layer_1">
	<g>
		<g>
			<path fill="#FFFFFF" d="M149.3,351.3c54.8,0,109.5,0,164.3,0c0,15.4,0,30.8,0,46.1c-18.4,0.1-36.8,0-55.3,0.1
				c0,49.5,0,99.1,0,148.6c-17.5,0-35.1,0-52.6,0c0-49.5,0-99.1,0-148.7c-18.8,0-37.6,0-56.4,0V351.3z"/>
			<g>
				<path fill="#FFFFFF" d="M323.2,351.3c30.8,0.1,61.7-0.1,92.5,0.1c19.9,1,42.1,3.4,56.7,18.4c13.7,15,15.5,37.2,13.1,56.5
					c-2.2,19.5-14.9,37.1-32.7,45.4c12.6,24.9,25.6,49.6,38.1,74.5c-20.1,0-40.1,0-60.2,0c-11.7-22.1-23.3-44.3-34.8-66.6
					c-6.3,0-12.7,0-19,0c-0.1,22.2,0,44.4,0,66.6c-17.9,0-35.8,0-53.6,0C323.2,481.2,323.2,416.3,323.2,351.3z M377,393.2
					c-1.1,14.8-0.3,29.6-1.3,44.4c11.8,0.8,23.7,1,35.5,0.4c6.8-0.2,13.7-3.2,17.3-9.2c8.5-13.4-1.2-34.2-17.2-35.5
					C399.9,392.9,388.5,393.3,377,393.2z"/>
			</g>
			<path fill="#FFFFFF" d="M491.8,351.3c55,0,109.9,0,164.8,0c0,15.4,0,30.8,0,46.1c-18.4,0.1-36.9,0-55.3,0
				c0.1,49.5-0.1,99,0.1,148.5c-17.6,0.4-35.1,0-52.7,0.2c-0.1-49.6,0.1-99.2-0.1-148.8c-18.9,0.1-37.9,0-56.8,0
				C491.8,382.1,491.8,366.7,491.8,351.3z"/>
		</g>
		<path fill="#D31120" d="M1074.3,308.9c124.9,0,249.8,0,374.8,0c3.4,0,3.4,0,3.4,3.4c0,91.6,0,183.3,0,274.9c0,3.4,0,3.4-3.4,3.4
			c-249.9,0-499.9,0-749.8,0c-3.7,0-3.7,0-3.7-3.6c0-91.5,0-182.9,0-274.4c0-3.6,0-3.6,3.8-3.6
			C824.3,308.9,949.3,308.9,1074.3,308.9z M1222.3,538.5c-0.5-1-0.7-1.5-1-2.1c-9.6-17.1-19.2-34.2-28.7-51.3
			c-3.1-5.5-6.1-10.9-9.2-16.4c-1.2-2.1-1.1-2.1,0.9-2.9c1.8-0.7,3.7-1.5,5.4-2.3c14.5-7,24.1-18.1,27.4-34.1c2.3-11,2-21.9-1-32.7
			c-3.3-11.8-10.4-20.7-21-26.7c-4.1-2.3-8.3-4.1-12.8-5.5c-11.9-3.7-24.2-4.8-36.6-4.8c-24.5-0.1-49,0-73.4,0
			c-3.8,0-3.3-0.5-3.3,3.2c0,57.5,0,114.9,0,172.4c0,0.6,0,1.3,0,1.9c-0.1,1.1,0.5,1.4,1.4,1.4c0.5,0,1.1,0,1.6,0
			c12.1,0,24.2,0,36.3,0c3.6,0,3,0.1,3-3c0-19.1,0-38.2,0-57.3c0-3.3-0.4-2.9,2.8-2.9c7.7,0,15.4,0,23.1,0c1.7,0,2.7,0.4,3.5,2
			c10.6,19.6,21.4,39.1,32,58.7c1,1.9,2.1,2.6,4.3,2.6c14-0.1,28-0.1,42-0.1C1220.1,538.5,1221,538.5,1222.3,538.5z M1046.9,418.7
			c0-3.3,0-6.6,0-10c0-15.4,0-30.8,0-46.3c0-3.4,0.4-2.9-3-2.9c-12.1,0-24.2,0-36.3,0c-0.5,0-1.1,0-1.6,0c-1.1-0.1-1.4,0.4-1.4,1.5
			c0,0.6,0,1.3,0,1.9c0,30.8,0,61.5,0,92.3c0,6.5-0.1,13.1-0.8,19.6c-0.7,6-1.8,11.9-4.3,17.4c-3.3,7.2-8.8,11.9-16.5,13.8
			c-7,1.7-14.1,1.7-21,0c-7.1-1.7-12.4-5.8-15.7-12.4c-1.2-2.3-2.1-4.8-2.7-7.3c-2.2-8.1-2.7-16.4-2.8-24.8c0-32.8,0-65.6,0-98.4
			c0-0.7,0-1.4,0-2.2c0-0.9-0.4-1.3-1.3-1.3c-0.6,0-1.3,0-1.9,0c-12,0-24,0-36,0c-3.8,0-3.3-0.5-3.3,3.2c0,35,0,69.9,0.1,104.9
			c0,8,0.7,15.9,2.2,23.8c1.9,9.8,5.6,18.9,11.9,26.7c8.4,10.4,19.3,16.8,32,20.6c11.6,3.5,23.4,4.3,35.4,3.6
			c9.9-0.6,19.5-2.5,28.7-6.3c18.4-7.8,30.6-21.1,35.4-40.7c2.3-9.1,3-18.4,3-27.7C1046.9,451.3,1046.9,435,1046.9,418.7z
			 M1281.5,440c-0.5-1.4-0.3-2.4-0.3-3.4c0-24.4,0-48.8,0-73.2c0-0.7,0-1.4,0-2.2c0-1-0.3-1.5-1.4-1.5c-0.6,0-1.3,0-1.9,0
			c-11.9,0-23.8,0-35.8,0c-3.8,0-3.3-0.4-3.3,3.3c0,57.4,0,114.8,0,172.1c0,0.6,0,1.3,0,1.9c-0.1,1.1,0.4,1.4,1.5,1.4
			c0.6,0,1.3,0,1.9,0c11.7,0,23.5,0,35.2,0c4.3,0,3.8,0.6,3.8-3.6c0-28.5,0-57,0-85.5c0-1-0.3-2.1,0.3-3.1c0.8,0.4,1.1,1.1,1.5,1.7
			c20.9,29.4,41.8,58.9,62.7,88.3c1.2,1.7,2.4,2.3,4.4,2.2c15.1-0.1,30.1,0,45.2-0.1c0.9,0,1.8,0.3,2.6-0.3c-0.3-1.1-1-1.7-1.6-2.5
			c-12.8-17-25.7-34.1-38.5-51.1c-10.4-13.7-20.7-27.5-31.1-41.2c-1.6-2.1-1.6-2.1,0.2-4.2c4.8-5.5,9.7-11.1,14.5-16.6
			c17.5-20.1,34.9-40.2,52.4-60.3c0.6-0.7,1.4-1.3,1.6-2.5c-1,0-1.8,0-2.6,0c-14.4,0-28.9,0-43.3-0.1c-2,0-3.3,0.7-4.5,2.2
			c-20.4,25.2-40.9,50.4-61.4,75.6C1283,438.3,1282.3,439,1281.5,440z M791,466.2c0,22.9,0,45.7,0,68.6c0,0.7,0,1.4,0,2.2
			c-0.1,1.1,0.5,1.4,1.5,1.3c0.6,0,1.3,0,1.9,0c11.9,0,23.8,0,35.8,0c3.4,0,3.4,0,3.4-3.4c0-45.7,0-91.4,0-137.2
			c0-4.2-0.4-3.6,3.6-3.6c13.4,0,26.9,0,40.3,0c2.3,0,2.3,0,2.3-2.3c0-10,0-20.1,0-30.1c0-2.1,0-2.1-2-2.1c-0.5,0-1.1,0-1.6,0
			c-35.5,0-71,0-106.5,0c-7.5,0-15.1,0-22.6,0c-2,0-2.1,0-2.1,2c0,7.3,0,14.5,0,21.8c0,3,0,5.9,0,8.9c0,1.9,0,1.9,2,1.9
			c0.5,0,1.1,0,1.6,0c13.1,0,26.2,0,39.3,0c3.3,0,3.1-0.4,3.1,3.2C791,420.3,790.9,443.2,791,466.2z M1005.4,345.2
			c5.7,0,11.5,0,17.2,0c2,0,2.1,0,2.1-2.1c0-5.8,0-11.6,0-17.5c0-2,0-2.1-2-2.1c-11.3,0-22.6,0-33.9,0c-1.9,0-1.9,0-2,1.9
			c0,5.9,0,11.8,0,17.7c0,1.9,0,2,2.2,2C994.4,345.2,999.9,345.2,1005.4,345.2z M939.7,323.5c-5.7,0-11.5,0-17.2,0
			c-1.2,0-1.8,0.2-1.7,1.6c0.1,6.2,0.1,12.4,0,18.5c0,1.2,0.4,1.6,1.5,1.5c2.3-0.1,4.7,0,7,0c9,0,18.1,0,27.1,0c2.1,0,2.1,0,2.1-2
			c0-5.9,0-11.8,0-17.7c0-1.9,0-1.9-1.9-1.9C951,323.5,945.4,323.5,939.7,323.5z"/>
		<path fill="#FFFFFF" d="M1222.3,538.5c-1.3,0-2.2,0-3.1,0c-14,0-28-0.1-42,0.1c-2.2,0-3.3-0.7-4.3-2.6
			c-10.6-19.6-21.4-39.1-32-58.7c-0.9-1.6-1.8-2-3.5-2c-7.7,0.1-15.4,0-23.1,0c-3.2,0-2.8-0.3-2.8,2.9c0,19.1,0,38.2,0,57.3
			c0,3.1,0.6,3-3,3c-12.1,0-24.2,0-36.3,0c-0.5,0-1.1,0-1.6,0c-1,0-1.5-0.3-1.4-1.4c0-0.6,0-1.3,0-1.9c0-57.5,0-114.9,0-172.4
			c0-3.7-0.5-3.2,3.3-3.2c24.5,0,49-0.1,73.4,0c12.4,0,24.7,1.1,36.6,4.8c4.5,1.4,8.7,3.2,12.8,5.5c10.6,6.1,17.7,15,21,26.7
			c3,10.8,3.3,21.8,1,32.7c-3.3,16-12.9,27-27.4,34.1c-1.8,0.9-3.6,1.6-5.4,2.3c-2.1,0.8-2.1,0.8-0.9,2.9c3.1,5.5,6.1,10.9,9.2,16.4
			c9.6,17.1,19.2,34.2,28.7,51.3C1221.6,537,1221.8,537.5,1222.3,538.5z M1111.4,417.2c0,7.5,0,15.1,0,22.6c0,2.2-0.5,2.5,2.5,2.5
			c7.3,0,14.7,0,22,0c4.5,0,9,0,13.4-0.3c5.5-0.4,10.9-1.2,15.8-3.8c4.7-2.4,7.8-6.2,9.2-11.3c1.5-5.2,1.4-10.5,0.7-15.7
			c-1.5-10.7-7.5-15-16.4-17c-4.6-1.1-9.2-1.3-13.9-1.4c-10.4-0.1-20.8,0-31.2,0c-2.2,0-2.3,0-2.3,2.4
			C1111.4,402.5,1111.4,409.8,1111.4,417.2z"/>
		<path fill="#FFFFFF" d="M1046.9,418.7c0,16.3,0,32.6,0,49c0,9.3-0.7,18.6-3,27.7c-4.9,19.6-17,32.9-35.4,40.7
			c-9.2,3.9-18.8,5.7-28.7,6.3c-12,0.7-23.8-0.1-35.4-3.6c-12.7-3.8-23.6-10.2-32-20.6c-6.3-7.9-10-16.9-11.9-26.7
			c-1.5-7.9-2.2-15.8-2.2-23.8c-0.1-35-0.1-69.9-0.1-104.9c0-3.8-0.5-3.2,3.3-3.2c12,0,24,0,36,0c0.6,0,1.3,0,1.9,0
			c0.9,0,1.3,0.3,1.3,1.3c0,0.7,0,1.4,0,2.2c0,32.8,0,65.6,0,98.4c0,8.3,0.6,16.7,2.8,24.8c0.7,2.5,1.6,4.9,2.7,7.3
			c3.3,6.6,8.6,10.7,15.7,12.4c7,1.7,14.1,1.7,21,0c7.7-1.8,13.2-6.5,16.5-13.8c2.5-5.5,3.6-11.4,4.3-17.4c0.7-6.5,0.8-13,0.8-19.6
			c0-30.8,0-61.5,0-92.3c0-0.6,0-1.3,0-1.9c-0.1-1,0.3-1.5,1.4-1.5c0.5,0,1.1,0,1.6,0c12.1,0,24.2,0,36.3,0c3.5,0,3-0.4,3,2.9
			c0,15.4,0,30.8,0,46.3C1046.9,412,1046.9,415.3,1046.9,418.7z"/>
		<path fill="#FFFFFF" d="M1281.5,440c0.9-1,1.5-1.7,2.1-2.4c20.5-25.2,40.9-50.3,61.4-75.6c1.2-1.5,2.5-2.2,4.5-2.2
			c14.4,0.1,28.9,0.1,43.3,0.1c0.8,0,1.6,0,2.6,0c-0.2,1.2-1,1.8-1.6,2.5c-17.4,20.1-34.9,40.2-52.4,60.3
			c-4.8,5.5-9.7,11.1-14.5,16.6c-1.8,2.1-1.8,2.1-0.2,4.2c10.4,13.7,20.7,27.5,31.1,41.2c12.8,17,25.7,34.1,38.5,51.1
			c0.6,0.8,1.3,1.4,1.6,2.5c-0.8,0.5-1.7,0.3-2.6,0.3c-15.1,0-30.1,0-45.2,0.1c-2,0-3.2-0.6-4.4-2.2c-20.9-29.5-41.8-58.9-62.7-88.3
			c-0.4-0.6-0.7-1.3-1.5-1.7c-0.6,1-0.3,2.1-0.3,3.1c0,28.5,0,57,0,85.5c0,4.2,0.5,3.6-3.8,3.6c-11.7,0-23.5,0-35.2,0
			c-0.6,0-1.3,0-1.9,0c-1,0.1-1.5-0.3-1.5-1.4c0-0.6,0-1.3,0-1.9c0-57.4,0-114.8,0-172.1c0-3.7-0.5-3.3,3.3-3.3
			c11.9,0,23.8,0,35.8,0c0.6,0,1.3,0,1.9,0c1.1-0.1,1.4,0.5,1.4,1.5c0,0.7,0,1.4,0,2.2c0,24.4,0,48.8,0,73.2
			C1281.2,437.6,1281,438.6,1281.5,440z"/>
		<path fill="#FFFFFF" d="M790.9,466.2c0-22.9,0-45.9,0-68.8c0-3.6,0.2-3.2-3.1-3.2c-13.1,0-26.2,0-39.3,0c-0.5,0-1.1,0-1.6,0
			c-1.9,0-1.9,0-2-1.9c0-3,0-5.9,0-8.9c0-7.3,0-14.5,0-21.8c0-2,0-2,2.1-2c7.5,0,15.1,0,22.6,0c35.5,0,71,0,106.5,0
			c0.5,0,1.1,0,1.6,0c2,0,2,0,2,2.1c0,10,0,20.1,0,30.1c0,2.3,0,2.3-2.3,2.3c-13.4,0-26.9,0-40.3,0c-4,0-3.6-0.6-3.6,3.6
			c0,45.7,0,91.4,0,137.2c0,3.4,0,3.4-3.4,3.4c-11.9,0-23.8,0-35.8,0c-0.6,0-1.3,0-1.9,0c-1,0.1-1.5-0.2-1.5-1.3c0-0.7,0-1.4,0-2.2
			C791,511.9,791,489,790.9,466.2z"/>
		<path fill="#FFFFFF" d="M1005.4,345.2c-5.5,0-10.9,0-16.4,0c-2.1,0-2.2,0-2.2-2c0-5.9,0-11.8,0-17.7c0-1.9,0-1.9,2-1.9
			c11.3,0,22.6,0,33.9,0c2,0,2,0,2,2.1c0,5.8,0,11.6,0,17.5c0,2,0,2-2.1,2.1C1016.8,345.2,1011.1,345.2,1005.4,345.2z"/>
		<path fill="#FFFFFF" d="M939.7,323.5c5.6,0,11.3,0,16.9,0c1.9,0,1.9,0,1.9,1.9c0,5.9,0,11.8,0,17.7c0,2,0,2-2.1,2
			c-9,0-18.1,0-27.1,0c-2.3,0-4.7-0.1-7,0c-1.2,0-1.5-0.4-1.5-1.5c0-6.2,0.1-12.4,0-18.5c0-1.4,0.6-1.6,1.7-1.6
			C928.3,323.6,934,323.5,939.7,323.5z"/>
		<path fill="#D31120" d="M1111.4,417.2c0-7.3,0-14.7,0-22c0-2.4,0-2.4,2.3-2.4c10.4,0,20.8-0.1,31.2,0c4.7,0,9.3,0.3,13.9,1.4
			c8.9,2,14.9,6.3,16.4,17c0.8,5.2,0.8,10.5-0.7,15.7c-1.5,5.1-4.6,8.9-9.2,11.3c-4.9,2.6-10.3,3.4-15.8,3.8
			c-4.5,0.3-8.9,0.3-13.4,0.3c-7.3,0-14.7,0-22,0c-3,0-2.5-0.2-2.5-2.5C1111.4,432.2,1111.4,424.7,1111.4,417.2z"/>
	</g>
</g>
<g id="Laag_2" display="none">
</g>
</svg>
