<?xml version="1.0" encoding="utf-8"?>
<!-- Generator: Adobe Illustrator 22.1.0, SVG Export Plug-In . SVG Version: 6.00 Build 0)  -->
<svg version="1.1" xmlns="http://www.w3.org/2000/svg" xmlns:xlink="http://www.w3.org/1999/xlink" x="0px" y="0px"
	 viewBox="0 0 1600 900" enable-background="new 0 0 1600 900" xml:space="preserve">
<g id="Layer_1">
	<g id="trt_cocuk">
		<g>
			<path fill="#00B159" d="M1000.565,171.417c-39.462-24.656-77.683-49.043-126.899-49.394c-4.105,0.042-8.13,0.286-12.1,0.677
				c-43.578,4.056-78.574,26.289-114.36,48.736c-39.181,24.982-82.945,48.285-83.416,75.02c0.671,26.913,44.412,50.24,83.416,75.044
				c30.993,19.354,61.214,38.55,96.636,46.059c-0.021,0.003-0.042,0.003-0.057,0.003c9.549,2.006,19.359,3.343,29.781,3.411
				c49.51-0.47,87.808-24.925,127-49.492c39.178-24.989,82.955-48.299,83.422-75.04
				C1083.304,219.543,1039.545,196.188,1000.565,171.417L1000.565,171.417z"/>
			<path fill="#0092D0" d="M939.646,171.417c-39.464-24.656-77.683-49.043-126.901-49.394c-4.105,0.042-8.135,0.286-12.1,0.677
				c-43.581,4.056-78.575,26.289-114.362,48.736c-39.181,24.982-82.942,48.285-83.413,75.02
				c0.666,26.913,44.404,50.24,83.413,75.044c30.996,19.354,61.218,38.55,96.637,46.059c-0.023,0.003-0.041,0.003-0.056,0.003
				c9.542,2.006,19.36,3.343,29.777,3.411c49.513-0.47,87.813-24.925,127.005-49.492c39.176-24.989,82.955-48.299,83.42-75.04
				C1022.381,219.543,978.617,196.188,939.646,171.417L939.646,171.417z"/>
			<path fill="#FFFFFF" d="M842.929,367.543c37.047-7.568,68.485-25.288,100.534-44.978c40.535-25.345,85.827-48.995,86.292-76.114
				c-0.696-27.288-45.967-50.974-86.292-76.1c-32.165-19.724-63.562-37.433-100.331-45.008
				c-37.108,7.575-68.544,25.3-100.579,45.008c-40.526,25.338-85.8,48.974-86.292,76.1c0.697,27.291,45.95,50.959,86.292,76.114
				C774.736,342.268,806.121,359.991,842.929,367.543L842.929,367.543z"/>
			<path fill="#E52613" d="M843.008,356.58c34.731-6.779,64.207-24.252,94.259-41.902c38.003-22.718,80.467-43.918,80.901-68.227
				c-0.654-24.46-43.096-45.695-80.901-68.222c-30.161-17.676-59.597-35.139-94.071-41.924
				c-34.79,6.786-64.263,24.266-94.297,41.924c-37.996,22.72-80.441,43.904-80.905,68.222c0.651,24.46,43.077,45.675,80.905,68.227
				C779.069,332.342,808.499,349.811,843.008,356.58L843.008,356.58z"/>
			<path fill="#FFFFFF" d="M789.804,211.801h-73.166l-1.928,18.349c0,0,24.988,0,28.032,0c-0.312,2.953-5.193,49.406-5.193,49.406
				h20.675c0,0,4.881-46.453,5.194-49.406c3.042,0,26.892,0,26.892,0l1.931-18.349H789.804L789.804,211.801z"/>
			<path fill="#FFFFFF" d="M966.764,211.801h-72.032l-1.931,18.349c0,0,23.86,0,26.901,0c-0.309,2.953-5.193,49.406-5.193,49.406
				h20.678c0,0,4.881-46.453,5.191-49.406c3.047,0,28.027,0,28.027,0l1.926-18.349H966.764L966.764,211.801z"/>
			<path fill="#FFFFFF" d="M863.487,264.056c12.041-4.24,16.248-13.309,17.574-25.905c1.915-18.24-12.216-26.37-33.413-26.37
				h-38.803l-7.124,67.765h20.854c0,0,4.933-46.944,5.176-49.253c2.641,0,16.668,0,16.668,0c12.415,0,15.78,3.994,15.2,9.497
				c-0.378,3.572-2.099,10.504-13.986,10.504c0,0-6.747,0-12.849,0l-0.72,6.845l20.334,22.407h27.557
				C879.955,279.546,864.219,264.227,863.487,264.056L863.487,264.056z"/>
		</g>
		<path fill="#EAD0E3" d="M482.891,755.604c7.924,1.404,22.159,5.665,26.668,11.094c1.89,2.254,1.627,13.792-0.551,24.227
			c-0.496,2.361-2.673,14.451,1.706,20.872c1.573,2.307,3.803,3.777,6.451,4.249c0.735,0.104,1.442,0.184,2.177,0.184
			c9.729,0,14.502-10.96,15.26-12.849c0.684-1.494,8.419-18.696,13.635-26.089c0.684-0.946,1.261-1.366,1.522-1.366
			c0.735,0,2.202,1.05,2.963,1.916l0.185,0.236l0.235,0.21c3.383,3.224,20.927,19.377,32.673,19.377
			c4.092,0,6.635-1.782,8.076-3.277c13.031-13.766-14.737-45.443-15.023-45.757c-0.631-0.63-0.761-0.996-0.815-0.996l12.98-3.409
			l0,0c62.592-18.8,112.073-75.783,114.171-78.195l0.156-0.236c0.683-0.84,16.207-21.188,23.418-42.216
			c7.001-20.35,3.014-35.663-4.538-40.278c-4.589-2.832-9.098-4.195-13.766-4.195c-4.745,0-9.703,1.364-15.603,4.485
			c15.552-17.99,27.036-42.822,32.017-71.85c0.185-1.022,0.343-2.046,0.5-3.042c-2.727,31.806,4.878,76.413,58.055,105.177
			c15.812,8.547,36.004,13.242,56.848,13.242c24.545,0,48.906-6.425,70.382-18.617l3.539-1.995l-18.644-69.251l-5.691,2.727
			c-0.314,0.156-30.706,14.579-55.641,14.579c-10.15,0-17.831-2.387-22.865-7.107c-17.543-16.495,10.014-46.255,10.33-46.598
			c0.184-0.206,19.456-20.662,47.174-20.662c5.979,0,12.034,0.946,17.935,2.858l6.189,1.995l4.771-47.148
			c-1.808,40.934,2.099,94.793,29.292,127.963c16.255,19.8,38.912,29.842,67.337,29.842c24.677,0,44.763-8.97,59.734-26.641
			c34.612-40.88,33.38-118.185,29.762-159.535l40.828,230.045l60.992-21.714l-1.862-56.849l70.194,69.568l43.215-74.551
			l-83.044-56.663l55.171-126.311l-85.171,17.045l-18.59,69.459l-18.434-72.03l-63.772,16.889
			c-1.259-12.745-2.621-21.138-2.831-22.42l-0.736-4.381h-79.95l3.381,7.421c7.186,15.761,14.137,44.605,11.985,78.274
			c-1.862,29.604-18.722,30.496-20.822,30.496c-4.249,0-7.892-1.705-11.144-5.245c-17.727-19.116-17.017-82.494-15.259-105.307
			l0.444-5.639h-63.562l-0.84,4.221c-0.236,1.206-1.758,8.994-3.279,20.928l-3.984-0.92c-0.63-0.156-15.549-3.565-36.817-3.565
			c-33.957,0-95.446,9.386-125.785,72.268c-0.159,0.34-5.429,12.64-7.971,30.52c3.539-43.762-19.011-79.557-65.714-104.022
			c-0.026-0.026-0.077-0.026-0.105-0.052c4.222,0.892,8.156,1.338,11.775,1.338c15.997,0,21.318-8.522,22.211-10.2
			c16.835-30.364-37.865-62.356-40.227-63.693l-0.235-0.13c-30.576-15.603-63.353-23.523-97.442-23.523
			c-51.158,0-104.888,18.304-151.327,51.528c-51.104,36.551-82.259,87.187-90.753,112.284
			c-24.465,72.37-22.525,134.334,5.795,184.104c43.318,76.199,132.001,95.918,135.75,96.731l8.691,1.811
			C466.671,747.242,467.483,752.875,482.891,755.604z M624.675,624.914c-16.548,4.955-32.281,7.473-46.78,7.473
			c-90.781,0-109.582-96.181-109.687-97.151C456.303,418.207,534.05,391.04,581.459,385.273c4.512-0.554,9.152-0.92,13.635-1.076
			c17.57,0.076,31.336,2.358,40.75,4.665c-3.488-0.416-7.027-0.626-10.674-0.626c-26.063,0-47.015,10.75-48.011,11.274
			c-59.34,33.093-43.293,103.998-41.93,109.529c0.525,3.513,5.823,35.059,24.439,61.65c16.704,23.836,46.729,42.662,69.829,43.738
			c1.155,0.052,2.307,0.08,3.462,0.08c5.244,0,10.384-0.579,15.393-1.68C636.736,619.095,626.667,623.97,624.675,624.914z
			 M639.673,546.039c-2.91,0-17.752-1.05-24.15-22.08c-2.569-8.416-2.648-16.703-2.727-23.363
			c-0.131-12.352,2.072-20.112,2.125-20.322c0.076-0.262,6.817-25.017,27.978-25.017c0.656,0,1.311,0.026,1.992,0.08
			c24.991,1.678,24.65,28.241,24.622,29.34v0.342C669.541,485.597,671.114,543.442,639.673,546.039z"/>
		<linearGradient id="SVGID_1_" gradientUnits="userSpaceOnUse" x1="536.2352" y1="810.9778" x2="536.2352" y2="688.7463">
			<stop  offset="0" style="stop-color:#FAAC18"/>
			<stop  offset="0.8226" style="stop-color:#F05822"/>
		</linearGradient>
		<path fill="url(#SVGID_1_)" stroke="#C5168C" stroke-miterlimit="10" d="M483.815,750.45c0,0-7.211-1.475-6.72-6.392
			c0.492-4.917,16.64-7.603,31.303-9.122c0,0,6.01-1.858,5.9-9.069c-0.12-7.893-0.947-37.12,9.588-37.12
			c5.198,0,19.83,24.748,19.83,24.748s10.771,15.421,21.551,8.604c13.628-8.618,26.878-10.08,29.877-5.245
			c2.947,4.752-20.699,26.96-20.699,26.96s-4.041,3.683,0.655,8.493c4.697,4.81,23.052,29.937,14.97,38.46
			c-7.713,8.128-33.326-16.281-33.326-16.281s-6.993-8.411-12.783-0.217c-5.791,8.194-14.203,27.095-14.203,27.095
			s-4.153,10.816-11.692,9.504c-7.538-1.31-3.933-18.899-3.933-18.899s4.686-22.326-0.546-28.627
			C506.168,754.399,483.815,750.45,483.815,750.45z"/>
		<linearGradient id="SVGID_2_" gradientUnits="userSpaceOnUse" x1="818.4268" y1="707.0244" x2="757.8302" y2="275.8572">
			<stop  offset="0" style="stop-color:#FAAC18"/>
			<stop  offset="0.8226" style="stop-color:#F05822"/>
		</linearGradient>
		<path fill="url(#SVGID_2_)" stroke="#C5168C" stroke-miterlimit="10" d="M660.1,401.688c-37.787-19.772-80.397,2.412-80.397,2.412
			c-58.579,32.674-39.333,103.918-39.333,103.918s4.773,32.778,23.599,59.654c16.074,22.945,44.501,40.514,65.765,41.51
			c46.099,2.177,82.39-42.4,91.988-98.333C731.345,454.917,697.911,421.484,660.1,401.688z M640.013,551.283
			c0,0-21.318,1.076-29.499-25.801c-2.779-9.098-2.883-17.805-2.963-24.831c-0.13-13.427,2.308-21.714,2.308-21.714
			s8.051-30.706,35.4-28.844c30.47,2.072,29.499,34.745,29.499,34.745S676.882,548.215,640.013,551.283z M819.841,497.3
			c0,0-31.686,33.654-10.053,53.978c23.901,22.458,84.347-6.557,84.347-6.557l15.952,59.217
			c-43.922,24.909-92.867,21.158-122.152,5.321c-82.159-44.437-50.823-128.462-46.979-136.431
			c44.36-91.995,156.676-65.887,156.676-65.887l-7.211,71.128C849.777,464.956,819.841,497.3,819.841,497.3z M911.234,382.851
			h53.592c0,0-9.015,116.198,31.629,116.196c0,0,23.764,0.819,26.058-35.399c2.295-36.22-5.571-65.72-12.454-80.797h67.356
			c0,0,34.719,207.617-81.016,207.617C869.771,590.468,911.234,382.851,911.234,382.851z M1167.5,480.255l22.945-85.657
			l72.11-14.425l-52.881,121.059l82.598,56.377l-37.367,64.462l-74.731-74.074l2.184,66.211l-51.569,18.355l-39.77-224.198
			l54.409-14.421L1167.5,480.255z M723.818,621.885c-7.016,20.438-22.606,40.722-22.606,40.722s-49.847,58.013-111.689,76.588
			c0,0,30.375-26.221,23.165-34.306c-7.211-8.083-32.122,2.077-32.122,2.077s-19.449,9.399-29.61-2.622
			c-10.161-12.02-14.094-26.223-14.094-26.223s-4.589-13.877-15.733-11.909c-11.145,1.966-12.783,23.272-12.783,23.272
			s-1.641,16.061-1.969,25.567c-0.328,9.506-3.605,13.439-9.505,13.111s-26.11-1.967-37.802,12.128c0,0-214.8-45.889-137.665-274.02
			c8.757-25.902,40.08-74.804,88.827-109.69c65.197-46.656,157.004-71.678,243.352-27.604c0,0,52.854,30.442,38.206,56.661
			c0,0-7.132,14.56-39.571,2.965l-0.003,0.005c0,0-0.064-0.029-0.082-0.036c-1.38-0.494-2.814-1.044-4.286-1.636
			c-7.856-2.733-26.112-7.872-52.736-7.995h-0.008c-4.56,0.172-9.341,0.526-14.266,1.124
			c-54.267,6.617-129.635,39.881-117.835,155.693c1.398,13.731,34.088,133.076,163.56,94.071c0,0,37.914-18.028,56.269-32.012
			c18.355-13.984,27.969-16.606,38.677-10.051C726.036,590.539,730.359,602.843,723.818,621.885z"/>
		<g opacity="0.9">
			<path fill="#FAB46D" d="M1129.108,602.073c0,0,0.656,18.356,19.666,17.372l7.867,0.038l-23.599,8.156L1129.108,602.073z"/>
			<g>
				<path fill="#FAB46D" d="M913.432,440.281c0,0-0.328-43.923,30.482-53.755h-30.482l-1.64,52.116L913.432,440.281z"/>
				<path opacity="0.7" fill="#FAB46D" d="M314.587,511.079c0,0-5.572,16.389,5.572,17.045c11.145,0.656,13.766-9.834,17.372-26.223
					c3.605-16.389,32.777-103.248,100.298-140.943c67.522-37.695,108.166-37.039,127.177-33.761c0,0,4.917-7.211-4.261-7.867
					c0,0-76.371-17.044-161.265,58.673C314.587,453.718,314.587,511.079,314.587,511.079z"/>
				<path fill="#FAB46D" d="M554.845,454.702c0,0,6.556,5.573,16.061-6.555c9.505-12.128,17.045-34.417,27.206-36.383
					c10.161-1.967,26.222-11.146,51.788,8.849c0,0,5.901,1.639,2.622-2.294c-3.277-3.933-32.122-26.877-71.783-5.245
					C580.739,413.074,547.634,439.953,554.845,454.702z"/>
				<path fill="#FAB46D" d="M643.672,560.573c0,0,22.944,0.656,29.828-20.322c6.884-20.978,7.539-34.743,7.539-34.743h3.933
					c0,0,8.522,71.454-38.35,58.999L643.672,560.573z"/>
				<path fill="#FAB46D" d="M749.871,496.658c0,0,10.489-3.933,15.734-16.061c5.244-12.128,21.961-42.301,39.66-50.65
					c17.7-8.351,35.073-8.325,37.367-7.027c2.294,1.299,15.077-6.569,6.555-8.862c-8.522-2.294-39.332-0.328-68.504,24.911
					C751.511,464.208,743.971,494.69,749.871,496.658z"/>
				<path fill="#FAB46D" d="M798.71,565.964c0,0,28.517,29.354,74.406,2.476v-2.476c0,0-17.895,5.675-38.279,5.193
					c-10.986-0.26-23.454,0.108-32.521-8.616l-5.757,3.423"/>
				<path fill="#FAB46D" d="M960.303,576.962c0,0-29.828-18.682-29.172-39.66h1.967c0,0,11.8,24.911,27.205,28.189
					c15.405,3.277,18.682,0.519,26.878,5.666c8.193,5.149,7.539,8.62,7.539,8.62S980.953,585.812,960.303,576.962z"/>
				<path fill="#FAB46D" d="M997.014,512.391c0,0,8.522,3.605,17.701-3.605c9.176-7.211,9.832-24.255,9.832-26.223
					C1024.546,480.597,1023.89,507.802,997.014,512.391z"/>
				<path fill="#FAB46D" d="M1028.807,457.98c0,0,2.623-56.705-4.261-64.571v-3.933h20.978c0,0-12.783,7.211-13.438,29.5
					C1031.431,441.263,1028.807,457.98,1028.807,457.98z"/>
				<path fill="#FAB46D" d="M1104.524,476.336l3.277-2.623c0,0-10.49-33.76-1.64-49.985c8.85-16.224,19.012-19.503,19.012-19.503
					l-29.5,9.178L1104.524,476.336z"/>
				<path fill="#FAB46D" d="M1209.084,568.112l-26.877-29.826c0,0-7.213-9.506-9.506,0c-2.294,9.504-1.968,18.354-1.968,18.354
					s-2.714-16.632,6.557-15.077C1186.56,543.118,1209.084,568.112,1209.084,568.112z"/>
				<path fill="#FAB46D" d="M1182.207,444.214c0-0.984,9.176-36.057,17.699-39.99c8.522-3.933,19.34-6.555,29.828-9.176
					c10.49-2.623,14.095-8.522,14.095-8.522l-50.806,10.16l-13.111,47.528H1182.207z"/>
			</g>
		</g>
	</g>
</g>
<g id="Laag_2">
</g>
</svg>
