<?xml version="1.0" encoding="utf-8"?>
<!-- Generator: Adobe Illustrator 22.1.0, SVG Export Plug-In . SVG Version: 6.00 Build 0)  -->
<svg version="1.1" xmlns="http://www.w3.org/2000/svg" xmlns:xlink="http://www.w3.org/1999/xlink" x="0px" y="0px"
	 viewBox="0 0 1599.999 900" enable-background="new 0 0 1599.999 900" xml:space="preserve">
<g id="Layer_1">
	<g>
		<rect x="531.538" y="185.655" fill="#E20613" width="531.053" height="531.053"/>
		<g>
			<path fill="#FFFFFF" d="M702.393,315.797l-5.428,40.998c-7.444-1.021-17.269-2.373-25.731-2.373
				c-17.614,0-29.468,13.217-29.468,33.492v97.918h-46.393v-124.64c0-8.142-3.385-12.199-10.501-12.199h-4.74v-33.195
				c9.824-1.359,19.314-2.003,30.147-2.003c18.628,0,27.758,10.803,27.758,26.404v4.737l1.361,0.346
				c8.125-19.327,20.313-31.486,41.312-31.486C687.478,313.794,694.937,314.437,702.393,315.797z"/>
			<path fill="#FFFFFF" d="M891.998,317.165l37.033,115.822h1.357l34.585-115.828h48.435l-65.073,168.672h-41.999l-54.245-134.125
				h-69.738v74.861c0,18.941,9.146,27.752,26.744,27.752c3.743,0,9.492-0.344,13.213-0.673l-3.037,33.181
				c-11.182,0.673-23.036,1.361-34.221,1.361c-33.181,0-49.443-19.642-49.443-51.822v-84.66h-23.017l3.712-34.536h21.343v-28.788
				l44.707-5.423v34.211h109.644"/>
		</g>
		<g>
			<path fill="#FFFFFF" d="M698.413,557.886l-1.921,14.523c-2.634-0.355-6.123-0.845-9.12-0.845
				c-6.244,0-10.452,4.684-10.452,11.896v34.691h-16.446v-44.179c0-2.887-1.202-4.332-3.725-4.332h-1.672v-11.753
				c3.476-0.49,6.837-0.714,10.674-0.714c6.612,0,9.854,3.831,9.854,9.349v1.687l0.474,0.124c2.881-6.846,7.206-11.16,14.653-11.16
				C693.137,557.172,695.779,557.396,698.413,557.886z"/>
			<path fill="#FFFFFF" d="M744.415,601.707l13.332,5.155c-5.048,7.933-13.932,12.609-25.458,12.609
				c-17.772,0-28.334-11.998-28.334-29.657c0-17.527,11.645-32.642,29.415-32.642c18.255,0,26.182,12.236,26.182,30.729v2.148
				c-12.73,0.732-25.343,1.336-38.069,1.932v1.669c0,7.578,4.68,13.586,11.886,13.586
				C738.541,607.236,742.138,605.059,744.415,601.707z M721.484,583.089l21.607-1.445c0-6.718-3.12-11.874-9.96-11.874
				C725.805,569.77,721.961,575.888,721.484,583.089z"/>
			<path fill="#FFFFFF" d="M826.801,578.168v39.983h-16.572v-35.061c0-6.843-3.128-11.888-10.199-11.888
				c-6.724,0-11.169,4.932-11.169,12.258v34.691h-16.57v-59.668h14.53l1.798,9.964h0.481c4.206-6.846,10.093-11.274,19.091-11.274
				C820.562,557.172,826.801,565.808,826.801,578.168z"/>
			<path fill="#FFFFFF" d="M846.026,600.624v-30.015h-8.163l1.325-12.247h7.563v-10.209l15.851-1.925v12.134h14.899v12.247h-14.899
				v26.525c0,6.736,3.249,9.85,9.48,9.85c1.321,0,3.359-0.121,4.684-0.234l-1.079,11.771c-3.97,0.234-8.167,0.472-12.122,0.472
				C851.785,618.992,846.026,612.029,846.026,600.624z"/>
			<path fill="#FFFFFF" d="M945.223,577.447v40.703h-16.561v-35.416c0-7.446-3.494-12.368-10.333-12.368
				c-6.853,0-11.284,4.922-11.284,12.368v35.416h-16.572v-85.252h16.327v34.71h0.486c4.435-6.737,10.205-11.171,19.214-11.171
				C938.86,556.437,945.223,565.083,945.223,577.447z"/>
			<path fill="#FFFFFF" d="M998.188,601.707l13.345,5.155c-5.053,7.933-13.937,12.609-25.46,12.609
				c-17.776,0-28.34-11.998-28.34-29.657c0-17.527,11.654-32.642,29.415-32.642c18.251,0,26.184,12.236,26.184,30.729v2.148
				c-12.73,0.732-25.339,1.336-38.069,1.932v1.669c0,7.578,4.684,13.586,11.885,13.586
				C992.315,607.236,995.919,605.059,998.188,601.707z M975.264,583.089l21.603-1.445c0-6.718-3.107-11.874-9.96-11.874
				C979.585,569.77,975.743,575.888,975.264,583.089z"/>
			<g>
				<path fill="#FFFFFF" d="M623.92,619l-1.165-6.528l-0.816-0.114c-4.889,4.779-10.598,8.039-19.106,8.039
					c-13.744,0-22.599-8.734-22.599-30.992c0-23.418,11.764-32.262,24.697-32.262c6.755,0,12.002,2.32,16.429,5.591v-17.706
					c0-1.175-0.468-1.983-1.519-2.334l-6.405-2.217l1.279-9.433h23.42v75.724c0,1.749,0.112,1.979,1.863,2.21l5.593,0.82V619H623.92
					z M620.662,574.151c-2.915-1.983-6.645-3.502-10.021-3.502c-8.622,0-12.003,8.046-12.003,18.413
					c0,11.303,3.266,17.593,10.606,17.593c3.959,0,8.268-2.338,11.418-5.009V574.151z"/>
			</g>
		</g>
	</g>
</g>
<g id="Laag_2">
</g>
</svg>
