<?xml version="1.0" encoding="utf-8"?>
<!-- Generator: Adobe Illustrator 22.1.0, SVG Export Plug-In . SVG Version: 6.00 Build 0)  -->
<svg version="1.1" xmlns="http://www.w3.org/2000/svg" xmlns:xlink="http://www.w3.org/1999/xlink" x="0px" y="0px"
	 viewBox="0 0 1599.999 900" enable-background="new 0 0 1599.999 900" xml:space="preserve">
<g id="Layer_1">
	<g>
		
			<ellipse transform="matrix(0.7071 -0.7071 0.7071 0.7071 24.7603 963.4782)" fill="#F28230" cx="1175.401" cy="451.851" rx="257.556" ry="257.557"/>
		<path fill="#FFFFFF" d="M1176.143,709.491c2.737,0,6.83-6.478,10.043-11.836c3.452-5.756,29.44-52.392,33.677-59.398
			c4.385-7.247,7.414-12.9,7.414-12.9c74.711-22.3,129.175-91.543,129.175-173.507c0-99.992-81.057-181.049-181.049-181.049
			S994.353,351.86,994.353,451.852c0,81.964,54.464,151.207,129.174,173.507c0,0,3.029,5.653,7.414,12.9
			c4.237,7.005,30.224,53.641,33.677,59.398c3.214,5.358,7.307,11.836,10.043,11.836H1176.143z"/>
		<g>
			<path fill="#F28230" d="M262.639,455.006c0,14.516-4.481,26.254-13.435,35.209c-8.957,8.957-20.694,13.433-35.207,13.433
				c-14.516,0-26.253-4.476-35.207-13.433c-8.957-8.954-13.435-20.693-13.435-35.209v-24.784c0-14.513,4.477-26.251,13.435-35.209
				c8.954-8.953,20.691-13.433,35.207-13.433c14.513,0,26.25,4.48,35.207,13.433c8.954,8.957,13.435,20.696,13.435,35.209V455.006z
				 M238.78,428.369c0-7.412-2.2-13.396-6.6-17.951c-4.402-4.552-10.464-6.833-18.183-6.833c-7.875,0-13.978,2.164-18.298,6.484
				c-4.325,4.325-6.486,10.423-6.486,18.3v28.721c0,7.878,2.161,13.938,6.486,18.185c4.32,4.249,10.423,6.368,18.298,6.368
				c7.876,0,13.974-2.119,18.299-6.368c4.32-4.247,6.484-10.307,6.484-18.185V428.369z"/>
			<path fill="#F28230" d="M415.048,423.504c0-2.779-0.543-5.364-1.621-7.759c-1.083-2.393-2.512-4.477-4.286-6.255
				c-1.776-1.773-3.862-3.203-6.254-4.284c-2.396-1.078-4.979-1.621-7.76-1.621c-3.553,0-7.027,0.543-10.423,1.621
				c-3.397,1.081-6.564,2.547-9.496,4.4v81.995c0,3.399-1.158,6.255-3.474,8.571c-2.316,2.317-5.176,3.475-8.57,3.475
				c-3.244,0-6.023-1.158-8.339-3.475c-2.316-2.316-3.475-5.172-3.475-8.571v-71.109c0-3.395-0.504-6.174-1.505-8.338
				c-1.007-2.161-2.396-3.859-4.169-5.095c-1.778-1.235-3.823-2.122-6.139-2.665c-2.316-0.538-4.711-0.81-7.18-0.81
				c-4.169,0-7.76,0.272-10.771,0.81c-3.011,0.543-6.37,1.354-10.075,2.432v84.775c0,3.399-1.158,6.255-3.474,8.571
				c-2.316,2.317-5.097,3.475-8.339,3.475c-3.399,0-6.254-1.158-8.57-3.475c-2.316-2.316-3.474-5.172-3.474-8.571v-89.175
				c0-3.089,0.886-5.907,2.663-8.455c1.773-2.547,4.13-4.436,7.065-5.674c6.023-2.316,12.044-4.014,18.067-5.096
				c6.021-1.078,12.429-1.621,19.225-1.621c5.558,0,10.731,0.81,15.519,2.431c4.785,1.623,8.954,3.978,12.507,7.065
				c4.785-3.087,9.921-5.442,15.404-7.065c5.478-1.621,11.155-2.431,17.024-2.431c6.175,0,11.966,1.122,17.372,3.359
				c5.405,2.239,10.037,5.292,13.898,9.149c3.859,3.862,6.91,8.495,9.151,13.898c2.236,5.408,3.358,11.198,3.358,17.372v66.245
				c0,3.399-1.158,6.255-3.475,8.571c-2.316,2.317-5.175,3.475-8.57,3.475c-3.399,0-6.219-1.158-8.455-3.475
				c-2.239-2.316-3.359-5.172-3.359-8.571V423.504z"/>
			<path fill="#F28230" d="M467.164,416.092c0-4.94,0.886-9.497,2.663-13.665c1.773-4.17,4.206-7.796,7.297-10.888
				c3.087-3.087,6.716-5.519,10.886-7.296c4.17-1.773,8.722-2.663,13.665-2.663c5.405,0,11.195,0.618,17.372,1.852
				c2.781,0.62,5.056,1.969,6.834,4.053c1.773,2.086,2.663,4.518,2.663,7.298c0,3.09-1.042,5.714-3.128,7.875
				c-2.084,2.164-4.827,3.243-8.223,3.243c-0.774,0-1.389,0-1.852,0c-0.464,0-1.158-0.152-2.086-0.464
				c-1.853-0.463-3.785-0.887-5.791-1.273c-2.009-0.384-3.937-0.579-5.791-0.579c-2.934,0-5.442,1.042-7.528,3.126
				c-2.084,2.085-3.126,4.597-3.126,7.528v77.363c0,3.399-1.158,6.255-3.475,8.571c-2.316,2.317-5.097,3.475-8.339,3.475
				c-3.399,0-6.254-1.158-8.57-3.475c-2.316-2.316-3.474-5.172-3.474-8.571V416.092z"/>
			<path fill="#F28230" d="M638.567,455.006c0,14.516-4.48,26.254-13.435,35.209c-8.958,8.957-20.694,13.433-35.207,13.433
				c-14.516,0-26.252-4.476-35.207-13.433c-8.957-8.954-13.434-20.693-13.434-35.209v-24.784c0-14.513,4.477-26.251,13.434-35.209
				c8.955-8.953,20.691-13.433,35.207-13.433c14.513,0,26.25,4.48,35.207,13.433c8.955,8.957,13.435,20.696,13.435,35.209V455.006z
				 M614.709,428.369c0-7.412-2.2-13.396-6.6-17.951c-4.402-4.552-10.464-6.833-18.184-6.833c-7.875,0-13.978,2.164-18.298,6.484
				c-4.325,4.325-6.486,10.423-6.486,18.3v28.721c0,7.878,2.161,13.938,6.486,18.185c4.32,4.249,10.423,6.368,18.298,6.368
				c7.876,0,13.975-2.119,18.3-6.368c4.32-4.247,6.484-10.307,6.484-18.185V428.369z"/>
			<path fill="#F28230" d="M683.271,453.848c0,4.786,0.383,8.766,1.158,11.93c0.771,3.164,1.929,5.832,3.475,7.991
				c4.013,5.251,9.96,7.875,17.835,7.875c4.477,0,8.763-0.58,12.856-1.736c4.09-1.161,8.143-2.586,12.16-4.287
				c1.853-0.772,3.474-1.158,4.865-1.158c2.931,0,5.558,1.045,7.875,3.129c2.316,2.084,3.474,4.67,3.474,7.758
				c0,2.166-0.463,4.168-1.39,6.02c-0.926,1.855-2.472,3.324-4.633,4.403c-10.966,5.251-22.698,7.875-35.207,7.875
				c-13.746,0-24.939-4.322-33.586-12.972c-8.495-8.49-12.74-19.688-12.74-33.586v-29.184c0-13.742,4.245-24.861,12.74-33.355
				c8.647-8.645,19.84-12.97,33.586-12.97c14.05,0,25.248,4.325,33.586,12.97c4.17,4.17,7.372,9.073,9.613,14.709
				c2.236,5.638,3.358,11.853,3.358,18.646v10.886c0,4.168-1.47,7.721-4.402,10.655c-2.935,2.935-6.484,4.4-10.654,4.4H683.271z
				 M728.438,431.843c0-18.838-7.567-28.258-22.7-28.258c-7.412,0-13.011,2.28-16.793,6.833c-3.785,4.556-5.674,11.698-5.674,21.426
				H728.438z"/>
			<path fill="#F28230" d="M777.311,401.732c0-3.244,0.923-6.175,2.781-8.802c1.852-2.624,4.318-4.4,7.407-5.328
				c5.869-1.853,11.776-3.319,17.721-4.4c5.944-1.078,12.084-1.621,18.417-1.621c14.048,0,25.247,4.325,33.583,12.97
				c4.174,4.17,7.376,9.073,9.617,14.709c2.235,5.638,3.358,11.853,3.358,18.646v29.184c0,6.949-1.086,13.32-3.245,19.108
				c-2.159,5.794-5.323,10.772-9.497,14.943c-8.185,8.339-18.913,12.507-32.196,12.507c-3.861,0-7.953-0.578-12.278-1.739
				c-4.325-1.155-8.261-2.583-11.807-4.284v43.315c0,3.396-1.162,6.252-3.478,8.568c-2.316,2.316-5.097,3.478-8.336,3.478
				c-3.402,0-6.258-1.161-8.575-3.478c-2.316-2.316-3.471-5.172-3.471-8.568V401.732z M846.334,426.052
				c0-7.101-1.965-12.623-5.907-16.562c-3.936-3.937-9.535-5.905-16.791-5.905c-7.57,0-15.059,0.926-22.466,2.779v67.172
				c6.635,5.408,14.123,8.107,22.466,8.107c7.256,0,12.856-1.93,16.791-5.79c3.942-3.861,5.907-9.416,5.907-16.679V426.052z"/>
		</g>
		<g>
			<path fill="#8C3189" d="M1151.542,348.688c0-3.395,1.158-6.254,3.475-8.57c2.316-2.316,5.169-3.475,8.571-3.475
				c3.239,0,6.02,1.158,8.336,3.475s3.478,5.175,3.478,8.57v142.914c0,3.399-1.161,6.255-3.478,8.571
				c-2.316,2.317-5.097,3.475-8.336,3.475c-3.402,0-6.255-1.158-8.571-3.475c-2.316-2.316-3.475-5.172-3.475-8.571V348.688z"/>
			<path fill="#8C3189" d="M1201.571,427.906c0-6.794,1.042-13.047,3.129-18.762c2.084-5.71,5.213-10.655,9.381-14.824
				c4.319-4.322,9.341-7.528,15.053-9.613c5.712-2.084,11.967-3.126,18.763-3.126c4.017,0,8.028,0.579,12.046,1.737
				c4.015,1.158,7.564,2.588,10.656,4.284v-38.914c0-3.395,1.12-6.254,3.358-8.57c2.238-2.316,5.056-3.475,8.455-3.475
				c3.393,0,6.255,1.158,8.572,3.475c2.316,2.316,3.471,5.175,3.471,8.57v134.81c0,3.239-0.926,6.136-2.777,8.684
				c-1.855,2.545-4.325,4.366-7.413,5.442c-11.735,4.014-23.856,6.023-36.367,6.023c-13.744,0-24.939-4.322-33.583-12.972
				c-8.496-8.49-12.743-19.688-12.743-33.586V427.906z M1270.598,411.923c-6.488-5.558-14.052-8.338-22.701-8.338
				c-7.103,0-12.623,1.968-16.559,5.905c-3.939,3.939-5.907,9.461-5.907,16.562v33.122c0,7.263,1.968,12.818,5.907,16.679
				c3.936,3.86,9.456,5.79,16.559,5.79c8.185,0,15.753-1.001,22.701-3.01V411.923z"/>
		</g>
		<g>
			<path fill="#8C3189" d="M1122.793,393.045c-1.852-2.548-4.325-4.361-7.413-5.444c-11.738-4.013-23.856-6.022-36.364-6.022
				c-13.747,0-24.939,4.325-33.589,12.97c-8.493,8.495-12.736,19.613-12.736,33.355v29.184c0,13.898,4.243,25.096,12.736,33.586
				c8.65,8.65,19.842,12.972,33.589,12.972c4.011,0,7.909-0.578,11.694-1.739c3.785-1.155,7.451-2.583,11.004-4.284v9.036
				c0,7.1-1.971,12.931-5.907,17.488c-3.936,4.551-9.535,6.83-16.791,6.83l-0.003-0.006c-0.828-0.047-1.767-0.041-2.815-0.006
				c-1.052,0.041-1.946,0.188-2.677,0.439c-3.057,1.061-5.301,2.966-6.714,5.737c-1.415,2.765-1.613,5.593-0.615,8.506
				c0.76,2.175,2.056,3.92,3.904,5.235c1.843,1.309,3.961,1.808,6.353,2.122l2.567-0.019c14.048,0,25.247-4.325,33.583-12.975
				c8.65-8.65,12.975-19.767,12.975-33.351V401.732C1125.574,398.488,1124.645,395.592,1122.793,393.045z M1101.714,473.304
				c-6.484,5.562-14.054,8.339-22.698,8.339c-7.106,0-12.623-1.93-16.562-5.79c-3.939-3.861-5.907-9.416-5.907-16.679v-33.122
				c0-7.101,1.968-12.623,5.907-16.562c3.939-3.937,9.457-5.905,16.562-5.905c4.011,0,7.909,0.272,11.694,0.81
				c3.785,0.543,7.451,1.274,11.004,2.2V473.304z"/>
		</g>
	</g>
</g>
<g id="Laag_2">
</g>
</svg>
