<?xml version="1.0" encoding="utf-8"?>
<!-- Generator: Adobe Illustrator 22.1.0, SVG Export Plug-In . SVG Version: 6.00 Build 0)  -->
<svg version="1.1" xmlns="http://www.w3.org/2000/svg" xmlns:xlink="http://www.w3.org/1999/xlink" x="0px" y="0px"
	 viewBox="0 0 1599.999 900" enable-background="new 0 0 1599.999 900" xml:space="preserve">
<g id="Layer_1">
</g>
<g id="Laag_2">
	<g>
		<path fill="#FFFFFF" d="M730.72,573.22v0.019h-0.013h-0.028v-0.019c-35.193-0.008-67.047-14.266-90.09-37.31
			c-23.051-23.047-37.314-54.91-37.315-90.109h-0.021v-0.013v-0.028h0.021c0.005-35.192,14.262-67.043,37.305-90.089
			c23.048-23.051,54.914-37.313,90.115-37.316v-0.019h0.014h0.027v0.019c35.191,0.007,67.042,14.263,90.088,37.306
			c23.055,23.047,37.313,54.911,37.318,90.113h0.021v0.013v0.027h-0.021c-0.005,35.191-14.263,67.041-37.307,90.088
			C797.782,558.955,765.92,573.218,730.72,573.22L730.72,573.22z"/>
		
			<path fill-rule="evenodd" clip-rule="evenodd" fill="#FFFFFF" stroke="#FFFFFF" stroke-width="0.216" stroke-miterlimit="22.9256" d="
			M731.577,579.632c71.036,0,128.616-57.579,128.616-128.61c0-71.033-57.58-128.612-128.616-128.612
			c-71.034,0-128.614,57.579-128.614,128.612C602.963,522.054,660.543,579.632,731.577,579.632L731.577,579.632z"/>
		<path fill-rule="evenodd" clip-rule="evenodd" fill="#253080" d="M598.045,451.022c0,73.636,59.895,133.53,133.532,133.53
			c73.494,0,133.391-59.894,133.391-133.53c0-73.637-59.897-133.53-133.391-133.53C657.94,317.492,598.045,377.385,598.045,451.022
			L598.045,451.022z M607.737,451.022c0-68.284,55.554-123.693,123.84-123.693c68.141,0,123.695,55.409,123.695,123.693
			c0,68.285-55.554,123.693-123.695,123.693C663.292,574.715,607.737,519.307,607.737,451.022L607.737,451.022z"/>
		<polygon fill-rule="evenodd" clip-rule="evenodd" fill="#253080" points="807.82,369.573 807.82,520.174 769.771,520.174 
			769.771,369.573 807.82,369.573 		"/>
		<polygon fill-rule="evenodd" clip-rule="evenodd" fill="#253080" points="712.77,426.573 712.77,518.727 675.59,518.727 
			675.59,380.424 693.673,362.194 762.971,431.926 762.971,476.339 712.77,426.573 		"/>
		<polygon fill-rule="evenodd" clip-rule="evenodd" fill="#253080" points="624.809,430.478 668.501,386.643 668.501,430.478 
			624.809,474.458 624.809,430.478 		"/>
		<path fill-rule="evenodd" clip-rule="evenodd" fill="#253080" d="M895.639,521.909c-44.27,0-71.181-30.379-71.181-78.845
			c0-48.463,26.911-78.844,71.181-78.844c44.415,0,71.176,30.38,71.176,78.844C966.815,491.53,940.054,521.909,895.639,521.909
			L895.639,521.909z M869.45,443.064c0,40.798,11.573,48.61,26.189,48.61c14.466,0,26.328-7.812,26.328-48.61
			c0-38.626-9.69-48.753-26.328-48.753C878.563,394.311,869.45,406.174,869.45,443.064L869.45,443.064z"/>
		<path fill-rule="evenodd" clip-rule="evenodd" fill="#253080" d="M1048.992,521.909c-44.271,0-71.181-30.379-71.181-78.845
			c0-48.463,26.911-78.844,71.181-78.844c44.415,0,71.176,30.38,71.176,78.844C1120.167,491.53,1093.406,521.909,1048.992,521.909
			L1048.992,521.909z M1022.803,443.064c0,40.798,11.573,48.61,26.189,48.61c14.466,0,26.328-7.812,26.328-48.61
			c0-38.626-9.691-48.753-26.328-48.753C1031.921,394.311,1022.803,406.174,1022.803,443.064L1022.803,443.064z"/>
		<path fill-rule="evenodd" clip-rule="evenodd" fill="#253080" d="M1138.688,366.968h71.326c49.763,0,59.459,24.16,59.459,43.835
			c0,18.953-11.717,31.684-28.211,38.194l27.777,70.019h-47.308l-21.124-62.352h-19.386v62.352h-42.532V366.968L1138.688,366.968z
			 M1181.22,427.731h22.135c12.3,0,21.124-5.353,21.124-15.335c0-9.547-6.075-16.492-19.386-16.492h-23.873V427.731L1181.22,427.731
			z"/>
		<path fill-rule="evenodd" clip-rule="evenodd" fill="#253080" d="M1287.409,366.968h60.042c49.768,0,75.952,32.262,75.952,75.085
			c0,33.997-14.755,76.962-79.711,76.962h-56.282V366.968L1287.409,366.968z M1329.946,490.083h11.284
			c20.108,0,37.179-12.586,37.179-48.32c0-23.292-8.824-45.86-35.008-45.86h-13.456V490.083L1329.946,490.083z"/>
		<polygon fill-rule="evenodd" clip-rule="evenodd" fill="#EB6608" points="356.875,397.103 315.933,397.103 315.933,366.867 
			440.496,366.867 440.496,397.103 399.553,397.103 399.553,519.059 356.875,519.059 356.875,397.103 		"/>
		<polygon fill-rule="evenodd" clip-rule="evenodd" fill="#EB6608" points="447.006,366.867 490.987,366.867 524.407,466.254 
			524.84,466.254 558.259,366.867 594.139,366.867 540.9,519.059 499.667,519.059 447.006,366.867 		"/>
		<path fill-rule="evenodd" clip-rule="evenodd" fill="#EB6608" d="M175.746,366.867h71.323c49.768,0,59.46,24.16,59.46,43.979
			c0,18.808-11.719,31.538-28.211,38.194l27.777,70.019h-47.308l-21.122-62.352h-19.388v62.352h-42.532V366.867L175.746,366.867z
			 M218.278,427.628h22.137c12.152,0,21.122-5.352,21.122-15.19c0-9.693-6.076-16.493-19.386-16.493h-23.872V427.628
			L218.278,427.628z"/>
	</g>
</g>
</svg>
