<?xml version="1.0" encoding="utf-8"?>
<!-- Generator: Adobe Illustrator 22.1.0, SVG Export Plug-In . SVG Version: 6.00 Build 0)  -->
<svg version="1.1" id="Layer_1" xmlns="http://www.w3.org/2000/svg" xmlns:xlink="http://www.w3.org/1999/xlink" x="0px" y="0px"
	 viewBox="0 0 1600 900" enable-background="new 0 0 1600 900" xml:space="preserve">
<g>
	<polygon fill="#FF931E" points="675.668,356.243 604.159,605.714 538.812,356.243 536.625,356.243 444.109,356.243 
		190.366,356.243 190.366,388.163 271.52,388.163 271.52,684.648 373.234,684.648 373.234,388.163 452.469,388.163 530.132,684.648 
		581.53,684.648 616.698,684.648 620.949,669.812 710.836,356.243 	"/>
	<rect x="161.281" y="315.45" fill="#FF931E" width="583.1" height="18.51"/>
	<rect x="1403.191" y="315.45" fill="#FF931E" width="31.878" height="18.51"/>
	<rect x="161.281" y="708.085" fill="#FF931E" width="1273.788" height="18.51"/>
	<g>
		<path fill="#FF931E" d="M781.531,525.226h-0.721c-20.557,0-61.316,6.494-61.316,72.857c0,66.369,48.333,70.691,61.677,70.691
			c13.344,0,61.677-4.322,61.677-70.691C842.847,531.72,802.09,525.226,781.531,525.226z M781.17,658.86
			c-7.396,0-19.476-0.719-19.476-62.309c0-59.963,12.08-61.764,19.476-61.764c7.395,0,19.477,0.898,19.477,61.764
			C800.647,656.519,788.565,658.86,781.17,658.86z"/>
	</g>
	<g>
		<path fill="#FF931E" d="M964.94,651.468c0-7.035-3.868-24.99-4.33-31.021c-0.9-11.721-11.542-23.623-24.346-23.623
			c0,0,29.398-1.08,29.398-34.084c0-33.76-28.847-34.773-69.253-34.807h-40.218v140.842h40.218v-69.604c1.808,0,4.901,0,6.852,0
			c2.887,0,19.117,0.539,19.117,24.164c0,34.625,6.132,45.44,6.132,45.44h43.361C971.871,668.775,964.94,658.501,964.94,651.468z
			 M896.409,588.526v-48.152c0,0,30.659-5.227,30.659,22.547C927.068,594.659,896.409,588.526,896.409,588.526z"/>
	</g>
	<path fill="#FF931E" d="M1092.519,668.775l-41.116-140.842h-18.668h-15.959l-2.091,7.158l-39.026,133.684h15.961l10.019-34.324
		v0.965h42.333l9.741,33.359H1092.519z M1005.383,621.618l17.284-59.191l17.279,59.191H1005.383z"/>
	<polygon fill="#FF931E" points="1188.835,527.933 1188.835,621.259 1126.482,527.933 1126.422,528.003 1126.422,527.933 
		1114.172,527.933 1101.189,527.933 1100.917,527.933 1100.917,668.775 1114.172,668.775 1114.172,576.607 1174.227,668.775 
		1188.835,668.775 1200.197,668.775 1202.09,668.775 1202.09,527.933 	"/>
	<path fill="#FF931E" d="M1287.197,616.044c0.122-6.371,0-12.467,0-17.691v-70.42h-39.187v93.25h0.027
		c0.229,8.229,1.576,34.973-9.877,34.973c-19.117,0-9.02-42.558-9.02-42.558l-14.428,3.244c0,0-2.045,14.086-2.523,20.92
		c-0.565,8.119,2.957,31.014,42.201,31.014c26.319,0,31.656-24.586,32.647-47.592h0.158V616.044z"/>
	<polygon fill="#FF931E" points="1350.15,654.845 1350.15,596.966 1392.067,596.966 1392.067,583.036 1350.15,583.036 
		1350.15,541.862 1399.839,541.862 1399.839,527.933 1350.15,527.933 1311.566,527.933 1311.566,541.862 1311.566,583.036 
		1311.566,596.966 1311.566,654.845 1311.566,668.775 1350.15,668.775 1407.61,668.775 1407.61,654.845 	"/>
	<g>
		<path fill="#FF931E" d="M1048.427,298.995c-0.251-7.836-4.715-8.682-6.621-8.682c-2.202,0-4.2,1.062-6.316,2.182l-0.546,0.291
			c-1.366,0.719-8.722,2.117-17.33,2.117c-4.528,0-8.4-0.418-10.902-1.174c-1.621-0.486-3.306-1.023-5.06-1.582
			c-11.328-3.592-25.424-8.064-44.368-8.064c-5.854,0-11.899,0.445-17.964,1.316c-32.946,4.736-40.37,26.381-40.671,27.303
			l-0.409,1.256l0.361,1.272c0.255,0.898,6.333,22.098,14.896,37.088c6.68,11.695,19.631,39.295,31.056,63.65
			c2.751,5.859,5.403,11.514,7.849,16.691c6.604,13.982,14.325,46.494,14.403,46.82l0.594,2.51l2.489,0.672
			c0.334,0.094,8.294,2.217,19.49,3.078c0.968,0.076,1.914,0.111,2.836,0.111c11.127,0,18.859-5.162,21.677-8.209
			c2.254-2.443,3.306-6.215,2.746-9.846c-0.473-3.072-2.08-5.6-4.411-6.932c-0.322-0.186-0.744-0.377-1.266-0.586
			c-1.439-0.586-4.43-1.797-8.067-9.832c-0.974-2.147-0.843-4.498,0.403-7.188c2.608-5.633,8.949-10.207,10.931-10.949
			c2.536,0.307,10.825,6.904,11.945,14.273c0.562,3.693-1.677,9.523-4.181,13.373c-4.461,6.859-2.406,9.691,2.99,14.107
			c2,1.637,4.758,2.469,8.196,2.469c6.579,0,14.479-3.041,16.967-4.213l0.34-0.16c4.973-2.338,10.611-4.988,10.106-10.057
			C1060.485,460.978,1048.65,305.923,1048.427,298.995z M940.555,293.966c5.655-0.812,11.283-1.227,16.729-1.227
			c12.386,0,22.646,2.113,31.411,4.549c-33.217,9.113-65.7,11.453-78.222,12.043C914.734,303.894,923.51,296.417,940.555,293.966z
			 M1046.8,464.325l-0.343,0.162c-2.348,1.107-8.684,3.389-13.28,3.389c-2.033,0-2.652-0.459-2.716-0.512
			c-0.514-0.422-1.318-1.076-1.899-1.605c0.18-0.295,0.407-0.66,0.687-1.086c3.304-5.08,6.478-12.842,5.482-19.393
			c-1.668-10.943-13.22-21.641-20.627-21.641c-0.721,0-1.414,0.094-2.065,0.277c-4.488,1.285-12.975,7.881-16.6,15.709
			c-2.3,4.961-2.447,9.939-0.435,14.391c5.064,11.186,10.415,13.354,12.699,14.283l0.157,0.064c0.408,0.65,0.393,2.619-0.331,3.406
			c-1.51,1.635-7.866,6.074-17.489,5.338c-6.83-0.523-12.418-1.572-15.441-2.228c-2.017-8.203-8.442-33.365-14.369-45.918
			c-2.446-5.174-5.096-10.82-7.842-16.672c-11.492-24.504-24.521-52.273-31.377-64.268c-3.19-5.584-6.047-12.232-8.35-18.244
			c7.383-0.861,24.449-3.148,54.893-8.701c28.087-5.123,50.745-13.357,63.093-18.459c3.515-0.52,6.57-1.248,8.329-2.174l0.571-0.303
			c0.085-0.043,0.174-0.09,0.262-0.141c0.7,12.918,10.924,146.982,12.066,161.654C1050.678,462.505,1048.134,463.7,1046.8,464.325z"
			/>
		<path fill="#FF931E" d="M1202.795,415.968c11.426-24.355,24.377-51.955,31.057-63.65c8.562-14.99,14.64-36.19,14.896-37.088
			l0.361-1.272l-0.41-1.256c-0.3-0.922-7.724-22.566-40.67-27.303c-6.065-0.871-12.109-1.316-17.964-1.316
			c-18.941,0-33.04,4.473-44.368,8.064c-1.752,0.559-3.438,1.096-5.06,1.582c-2.503,0.756-6.374,1.174-10.903,1.174
			c-8.607,0-15.963-1.398-17.329-2.117l-0.546-0.291c-2.114-1.119-4.113-2.182-6.317-2.182c-1.905,0-6.37,0.846-6.621,8.682
			c-0.222,6.928-12.057,161.982-12.162,163.1c-0.506,5.076,5.135,7.727,10.106,10.064l0.341,0.16
			c2.487,1.172,10.387,4.213,16.966,4.213c3.438,0,6.196-0.832,8.198-2.469c5.395-4.416,7.449-7.248,2.988-14.107
			c-2.503-3.85-4.743-9.68-4.181-13.373c1.122-7.371,9.421-13.971,11.943-14.279c1.979,0.748,8.323,5.322,10.935,10.955
			c1.244,2.689,1.375,5.041,0.401,7.188c-3.638,8.035-6.629,9.246-8.067,9.832c-0.522,0.209-0.942,0.4-1.268,0.586
			c-2.33,1.332-3.935,3.859-4.408,6.932c-0.561,3.631,0.493,7.402,2.745,9.846c2.816,3.047,10.549,8.209,21.676,8.209
			c0.922,0,1.869-0.035,2.837-0.111c11.196-0.861,19.156-2.984,19.489-3.078l2.489-0.672l0.595-2.51
			c0.078-0.326,7.794-32.83,14.402-46.82C1197.396,427.482,1200.046,421.827,1202.795,415.968z M1206.795,293.966
			c17.082,2.459,25.846,9.926,30.094,15.359c-12.591-0.596-45.03-2.949-78.184-12.055c8.753-2.426,19-4.531,31.359-4.531
			C1195.509,292.739,1201.137,293.154,1206.795,293.966z M1172.75,474.88c-3.024,0.656-8.612,1.705-15.442,2.228
			c-9.629,0.742-15.979-3.703-17.489-5.338c-0.725-0.787-0.738-2.756-0.331-3.406l0.158-0.064c2.284-0.93,7.634-3.098,12.697-14.283
			c2.014-4.451,1.866-9.43-0.433-14.391c-3.624-7.828-12.113-14.424-16.602-15.709c-0.65-0.184-1.345-0.277-2.064-0.277
			c-7.407,0-18.959,10.697-20.627,21.641c-0.996,6.551,2.179,14.312,5.482,19.393c0.279,0.426,0.507,0.791,0.688,1.086
			c-0.582,0.529-1.388,1.184-1.901,1.605c-0.063,0.053-0.682,0.512-2.715,0.512c-4.597,0-10.933-2.281-13.281-3.389l-0.342-0.162
			c-1.334-0.625-3.879-1.82-5.074-2.67c1.141-14.672,11.365-148.736,12.064-161.654c0.089,0.051,0.178,0.098,0.263,0.141l0.57,0.303
			c1.786,0.94,4.912,1.674,8.491,2.199c12.361,5.102,34.992,13.318,63.037,18.434c30.305,5.527,47.354,7.818,54.791,8.689
			c-2.302,6.016-5.165,12.668-8.354,18.256c-6.856,11.994-19.881,39.764-31.377,64.268c-2.746,5.852-5.396,11.498-7.841,16.674
			C1181.191,441.515,1174.766,466.677,1172.75,474.88z"/>
	</g>
	<path fill="#FF931E" d="M1377.652,363.546c0-7.967-5.334-14.709-12.614-16.855c5.115-3.078,8.557-8.67,8.557-15.064
		c0-9.697-7.887-17.582-17.581-17.582c-9.115,0-16.626,6.969-17.499,15.853c-1.429-1.217-3.052-2.357-4.891-3.428
		c5.584-2.945,9.402-8.809,9.402-15.551c0-9.695-7.887-17.584-17.583-17.584c-9.696,0-17.584,7.889-17.584,17.584
		c0,2.76,0.655,5.359,1.793,7.684c-2.841-0.531-6.049-1.09-9.398-1.635c2.866-3.133,4.63-7.281,4.63-11.853
		c0-9.695-7.887-17.582-17.583-17.582c-9.696,0-17.584,7.887-17.584,17.582c0,3.049,0.78,5.914,2.149,8.414
		c-0.75-0.022-1.451-0.035-2.059-0.027c-1.42-4.25-4.55-11.256-11.26-19.053c-1.343-1.56-2.804-3.07-4.355-4.523
		c8.135-0.439,14.627-7.178,14.627-15.42c0-8.525-6.938-15.457-15.462-15.457c-2.358,0-4.588,0.545-6.59,1.492
		c-0.83-7.406-7.124-13.182-14.749-13.182c-3.295,0-6.334,1.088-8.801,2.916c-2.258-5.201-7.438-8.848-13.457-8.848
		c-5.114,0-9.62,2.639-12.248,6.615c-2.629-3.977-7.135-6.615-12.247-6.615c-5.334,0-9.998,2.871-12.568,7.135
		c-2.569-2.215-5.906-3.564-9.559-3.564c-5.93,0-11.038,3.545-13.349,8.619c-2.367-1.641-5.235-2.607-8.325-2.607
		c-5.454,0-10.214,3-12.744,7.43c-2.667-2.75-6.396-4.467-10.517-4.467c-8.094,0-14.677,6.58-14.677,14.672
		c0,3.283,1.097,6.307,2.926,8.754c-4.149-1.674-7.945-4.49-10.754-9.045c3.646-4.041,9.976-12.67,9.976-23.883
		c0-7.658-5.03-18.158-17.92-22.664c-0.763-2.076-1.632-4.459-2.343-6.449c0.422,0.203,0.811,0.385,1.169,0.549
		c0.553,0.262,1.037,0.486,1.468,0.703c2.473,1.232,4.675,1.279,6.533,0.129c2.977-1.838,2.977-5.502,2.977-6.707v-17.312
		c0-2.182-1.062-4.125-2.842-5.213c-1.495-0.904-4.083-1.57-7.938,0.424l-0.177,0.088c0.67-1.842,1.261-3.518,1.673-4.75
		c0.35-1.045,1.272-3.816-0.481-6.252c-1.84-2.557-5.146-2.557-6.735-2.557h-14.764c-1.589,0-4.896,0-6.735,2.557
		c-1.755,2.436-0.831,5.207-0.482,6.252c0.412,1.232,1.003,2.904,1.674,4.75l-0.178-0.088c-3.854-1.994-6.445-1.332-7.938-0.424
		c-1.779,1.088-2.843,3.031-2.843,5.213v17.312c0,1.205,0,4.869,2.979,6.707c1.855,1.154,4.058,1.103,6.531-0.129
		c0.431-0.217,0.915-0.441,1.469-0.703c0.357-0.164,0.746-0.346,1.172-0.549c-0.716,1.99-1.584,4.373-2.348,6.449
		c-12.889,4.506-17.919,15.006-17.919,22.664c0,11.213,6.329,19.842,9.975,23.883c-2.486,4.035-5.76,6.668-9.354,8.389
		c1.545-2.32,2.45-5.105,2.45-8.098c0-8.092-6.583-14.672-14.674-14.672c-4.125,0-7.854,1.717-10.521,4.467
		c-2.529-4.43-7.289-7.43-12.744-7.43c-3.09,0-5.958,0.967-8.324,2.607c-2.312-5.074-7.421-8.619-13.351-8.619
		c-3.651,0-6.989,1.35-9.559,3.564c-2.568-4.264-7.232-7.135-12.566-7.135c-5.114,0-9.62,2.639-12.247,6.615
		c-2.629-3.977-7.135-6.615-12.25-6.615c-6.018,0-11.198,3.646-13.457,8.848c-2.467-1.828-5.504-2.916-8.799-2.916
		c-7.627,0-13.921,5.775-14.749,13.182c-2.004-0.947-4.232-1.492-6.592-1.492c-8.522,0-15.459,6.932-15.459,15.457
		c0,7.951,6.033,14.512,13.758,15.361c-1.572,1.475-3.051,3-4.413,4.582c-6.71,7.797-9.839,14.803-11.26,19.053
		c-0.343-0.004-0.732,0-1.12,0.006c1.36-2.494,2.135-5.357,2.135-8.393c0-9.695-7.888-17.582-17.583-17.582
		c-9.696,0-17.582,7.887-17.582,17.582c0,4.508,1.714,8.607,4.51,11.723c-3.241,0.52-6.374,1.06-9.188,1.582
		c1.08-2.279,1.702-4.814,1.702-7.5c0-9.695-7.889-17.584-17.583-17.584c-9.697,0-17.584,7.889-17.584,17.584
		c0,6.553,3.608,12.268,8.934,15.293c-1.673,0.941-3.178,1.945-4.518,3.01c-1.183-8.559-8.524-15.178-17.401-15.178
		c-9.696,0-17.583,7.885-17.583,17.582c0,6.395,3.44,11.986,8.56,15.064c-7.282,2.147-12.616,8.889-12.616,16.855
		c0,8.557,6.141,15.691,14.243,17.26c-3.744,3.225-6.128,7.992-6.128,13.309c0,9.697,7.887,17.584,17.583,17.584
		c0.452,0,0.894-0.033,1.335-0.066c-2.007,2.857-3.195,6.326-3.195,10.076c0,9.697,7.888,17.584,17.583,17.584
		c6.035,0,11.364-3.057,14.532-7.703c4.512,8.137,9.626,17.318,14.671,26.369c9.935,17.832,19.321,34.68,22.668,40.98
		c4.356,8.215,11.553,13.836,17.113,17.221c-1.063,2.756-1.214,6.18,1.46,8.195c1.063,0.801,2.301,1.223,3.58,1.223
		c2.16,0,4.275-1.15,6.47-3.51c1.949-2.096,1.753-5.486,0.695-7.92c-0.339-0.779-0.764-1.459-1.249-2.051l0.01-0.025
		c0,0-0.044-0.021-0.06-0.023c-1.206-1.439-2.812-2.242-4.594-2.228c-4.709-2.603-11.837-7.508-15.779-14.938
		c-3.388-6.383-12.794-23.264-22.755-41.141c-6.939-12.455-14.021-25.166-19.451-35.01c-0.671-3.922-2.645-7.4-5.465-9.979
		c-0.687-1.27-1.31-2.426-1.837-3.416l-0.786-1.475c-8.344-15.66-13.853-26.004-13.853-43.561c0-17.686,2.132-25.48,23.604-31.422
		c8.326-2.305,38.944-7.039,46.714-6.738c0.377,0.781,0.858,1.775,1.438,2.967c-6.92,0.055-18.41,0.668-33.299,3.34
		c-23.81,4.277-28.747,17.389-29.531,40.092c-0.773,22.451,11.026,39.117,17.365,48.07c0.753,1.07,1.444,2.043,2.043,2.926
		c3.914,5.777,21.385,37.891,32.947,59.139c4.952,9.107,8.863,16.297,10.686,19.541c3.894,6.941,8.551,10.424,13.91,10.424
		c2.477,0,5.107-0.744,7.877-2.234c2.589-1.395,11.323-7.838,12.69-12.605c0.419-1.467,0.265-2.949-0.435-4.176
		c-0.906-1.586-2.312-2.367-3.441-2.998c-1.801-1-4.822-2.68-8.674-9.883c-3.47-6.486,2.847-14.801,5.945-18.283
		c3.791,1.154,11.33,4.18,12.813,10.262c0.805,3.289-0.879,7.504-2.229,10.889c-0.607,1.518-1.179,2.949-1.534,4.281
		c-0.702,2.633,0.275,5.268,2.612,7.055c4.528,3.459,14.969,3.863,25.386-2.193c10.977-6.383,15.289-14.131,12.816-23.027
		c-1.463-5.264-5.437-15.678-12.882-33.764c-7.508-18.234-22.078-44.014-32.718-62.836l-0.699-1.238
		c-9.089-16.082-22.482-43.684-25.547-50.039c0.704-2.656,3.077-9.603,10.09-17.754c10.108-11.746,27.398-20.289,47.438-23.434
		c23.511-3.697,43.742,2.492,57.125,6.59c4.717,1.445,8.792,2.691,12.057,3.221l1.532,0.258c9.931,1.725,36.306,6.299,47.382-17.312
		l1.372-2.955l-2.445-2.148c-0.097-0.082-9.489-8.453-9.489-19.844c0-5.607,4.878-16.223,23.343-16.223s23.342,10.615,23.342,16.223
		c0,11.391-9.392,19.762-9.476,19.838l-2.479,2.143l1.394,2.967c11.075,23.605,37.448,19.037,47.381,17.312l1.534-0.258
		c3.266-0.529,7.339-1.775,12.056-3.221c13.382-4.098,33.608-10.285,57.125-6.59c20.039,3.145,37.329,11.688,47.438,23.434
		c7.024,8.162,9.391,15.119,10.091,17.754c-3.063,6.346-16.459,33.957-25.549,50.039l-0.7,1.238
		c-10.639,18.822-25.209,44.602-32.718,62.836c-7.444,18.086-11.418,28.5-12.88,33.764c-2.474,8.896,1.838,16.645,12.814,23.027
		c10.424,6.053,20.857,5.654,25.387,2.193c2.337-1.787,3.314-4.422,2.611-7.055c-0.354-1.332-0.928-2.764-1.533-4.281
		c-1.35-3.385-3.033-7.6-2.23-10.889c1.393-5.701,8.426-8.955,12.798-10.279c3.095,3.478,9.438,11.805,5.961,18.301
		c-3.852,7.203-6.87,8.883-8.673,9.883c-1.129,0.631-2.534,1.412-3.441,2.998c-0.699,1.227-0.854,2.709-0.436,4.176
		c1.367,4.768,10.103,11.211,12.691,12.605c2.773,1.49,5.399,2.234,7.876,2.234c5.359,0,10.02-3.482,13.911-10.424
		c1.821-3.244,5.734-10.434,10.685-19.541c11.562-21.248,29.033-53.361,32.947-59.139c0.6-0.883,1.289-1.855,2.044-2.926
		c6.338-8.953,18.137-25.619,17.364-48.07c-0.785-22.703-5.722-35.814-29.531-40.092c-14.891-2.672-26.381-3.285-33.299-3.34
		c0.58-1.191,1.062-2.186,1.44-2.967c7.728-0.295,38.383,4.434,46.712,6.738c21.472,5.941,23.607,13.736,23.607,31.422
		c0,17.557-5.513,27.9-13.857,43.561l-0.786,1.475c-0.87,1.637-1.974,3.674-3.263,6.037c-0.89,1.221-1.627,2.557-2.183,3.986
		c-5.601,10.193-13.543,24.445-21.308,38.381c-9.961,17.877-19.367,34.758-22.753,41.141c-4.043,7.621-11.514,12.609-16.218,15.162
		c-0.317-0.082-0.617-0.174-0.981-0.211c-2.781-0.309-5.213,1.381-6.491,4.314c-1.06,2.434-1.256,5.824,0.694,7.92
		c2.194,2.359,4.31,3.51,6.472,3.51c1.278,0,2.516-0.422,3.578-1.223c2.359-1.779,2.517-4.658,1.792-7.201
		c5.712-3.231,13.989-9.145,18.801-18.215c3.346-6.301,12.731-23.148,22.668-40.98c5.205-9.346,10.489-18.826,15.106-27.154
		c3.086,5.078,8.653,8.488,15.019,8.488c9.695,0,17.585-7.887,17.585-17.584c0-3.75-1.191-7.219-3.197-10.076
		c0.441,0.033,0.886,0.066,1.337,0.066c9.695,0,17.583-7.887,17.583-17.584c0-5.316-2.385-10.084-6.13-13.309
		C1371.51,379.237,1377.652,372.103,1377.652,363.546z M792.26,322.698c4.923,0,8.928,4.008,8.928,8.928
		c0,4.926-4.005,8.928-8.928,8.928c-4.922,0-8.927-4.002-8.927-8.928C783.333,326.706,787.338,322.698,792.26,322.698z
		 M800.522,377.062c-0.288-0.068-0.573-0.145-0.864-0.199c0.237-0.203,0.465-0.414,0.688-0.631
		C800.406,376.511,800.46,376.788,800.522,377.062z M799.583,347.591c-0.12,0.752-0.222,1.525-0.315,2.309
		c-0.642-0.52-1.329-0.986-2.04-1.418C798.039,348.245,798.825,347.943,799.583,347.591z M779.276,363.546
		c0-4.918,4.006-8.926,8.928-8.926c4.922,0,8.926,4.008,8.926,8.926c0,4.924-4.004,8.928-8.926,8.928
		C783.282,372.474,779.276,368.47,779.276,363.546z M796.319,403.042c-4.923,0-8.927-4.002-8.927-8.928
		c0-4.92,4.004-8.926,8.927-8.926c4.922,0,8.928,4.006,8.928,8.926C805.247,399.04,801.241,403.042,796.319,403.042z
		 M811.222,403.401c0.133,0.25,0.262,0.494,0.394,0.744c-0.305,0.008-0.609,0.025-0.909,0.047
		C810.888,403.933,811.055,403.669,811.222,403.401z M812.042,412.78c1.867,0,3.6,0.58,5.036,1.565
		c1.133,2.088,2.43,4.449,3.86,7.049c0.003,0.107,0.031,0.209,0.031,0.314c0,4.924-4.004,8.928-8.928,8.928
		c-4.92,0-8.927-4.004-8.927-8.928C803.115,416.788,807.122,412.78,812.042,412.78z M822.831,319.847
		c-4.924,0-8.929-4.004-8.929-8.928c0-4.918,4.005-8.926,8.929-8.926c4.921,0,8.925,4.008,8.925,8.926
		C831.755,315.843,827.751,319.847,822.831,319.847z M860.972,314.044c-4.921,0-8.928-4.004-8.928-8.93
		c0-4.918,4.007-8.926,8.928-8.926s8.926,4.008,8.926,8.926C869.898,310.04,865.893,314.044,860.972,314.044z M903.282,372.15
		l0.699,1.238c10.529,18.623,24.944,44.131,32.251,61.871c7.208,17.516,11.196,27.93,12.545,32.783
		c0.579,2.088,1.936,6.969-8.825,13.225c-6.438,3.74-12.264,3.885-14.739,3.238c0.201-0.525,0.429-1.1,0.664-1.688
		c1.714-4.289,4.058-10.168,2.602-16.147c-3.329-13.643-21.042-17.15-21.793-17.295l-2.144-0.406l-1.604,1.484
		c-0.697,0.643-16.973,15.961-9.263,30.373c4.029,7.533,7.759,10.678,10.354,12.338c-1.94,1.996-5.114,4.621-6.966,5.617
		c-2.682,1.447-5.717,3.074-10.134-4.801c-1.803-3.213-5.77-10.508-10.63-19.439c-12.338-22.68-29.237-53.734-33.384-59.859
		c-0.629-0.93-1.355-1.953-2.146-3.072c-6.152-8.689-16.451-23.238-15.776-42.775c0.759-21.992,5.574-28.844,22.407-31.867
		c15.098-2.707,26.612-3.193,32.942-3.193c1.229,0,2.263,0.018,3.089,0.041C889.036,345.177,897.12,361.243,903.282,372.15z
		 M894.914,282.355c-4.326,0-7.847-3.52-7.847-7.85c0-4.328,3.521-7.848,7.847-7.848c4.33,0,7.85,3.52,7.85,7.848
		C902.764,278.835,899.245,282.355,894.914,282.355z M909.897,278.255c0.2-0.795,0.344-1.609,0.414-2.451
		c0.87,0.385,1.786,0.68,2.736,0.891C911.979,277.198,910.93,277.718,909.897,278.255z M916.255,269.741
		c-4.158,0-7.542-3.381-7.542-7.537c0-4.158,3.384-7.539,7.542-7.539s7.542,3.381,7.542,7.539
		C923.797,266.361,920.414,269.741,916.255,269.741z M928.158,271.048c0.703-0.945,1.31-1.967,1.776-3.064
		c0.984,0.711,2.054,1.303,3.199,1.758C931.449,270.136,929.794,270.579,928.158,271.048z M938.511,263.55
		c-4.108,0-7.449-3.34-7.449-7.447c0-4.109,3.341-7.453,7.449-7.453c4.11,0,7.451,3.344,7.451,7.453
		C945.962,260.21,942.622,263.55,938.511,263.55z M947.946,267.325c1.082-0.91,2.031-1.979,2.813-3.162
		c0.687,1.039,1.51,1.978,2.433,2.814C951.464,267.046,949.715,267.163,947.946,267.325z M963.008,263.554
		c-4.107,0-7.449-3.344-7.449-7.451c0-4.109,3.343-7.453,7.449-7.453c4.108,0,7.452,3.344,7.452,7.453
		C970.46,260.21,967.117,263.554,963.008,263.554z M971.844,267.788c0.247-0.186,0.491-0.375,0.726-0.578
		c0.15,0.25,0.298,0.498,0.46,0.74C972.634,267.896,972.245,267.839,971.844,267.788z M985.133,267.122
		c-4.108,0-7.449-3.344-7.449-7.453s3.341-7.447,7.449-7.447s7.449,3.338,7.449,7.447S989.242,267.122,985.133,267.122z
		 M992.833,272.138c0.21-0.131,0.422-0.258,0.624-0.4c0.102,0.223,0.206,0.443,0.317,0.658
		C993.468,272.308,993.143,272.224,992.833,272.138z M1006.808,273.132c-4.107,0-7.449-3.34-7.449-7.447
		c0-4.109,3.343-7.451,7.449-7.451c4.108,0,7.45,3.342,7.45,7.451C1014.258,269.792,1010.917,273.132,1006.808,273.132z
		 M1014.992,278.204l-0.443-0.076c1.016-0.633,1.952-1.381,2.781-2.24c0.638,1.117,1.408,2.142,2.307,3.051
		C1017.89,278.7,1016.3,278.427,1014.992,278.204z M1030.073,276.095c-4.106,0-7.45-3.344-7.45-7.451
		c0-4.109,3.344-7.447,7.45-7.447c4.108,0,7.45,3.338,7.45,7.447C1037.523,272.751,1034.181,276.095,1030.073,276.095z
		 M1076.996,204.984c-3.094,2.459-1.895,6.658-1.318,8.668c0.263,0.924,1.164,3.471,2.114,6.105
		c-1.318-0.107-2.688-0.166-4.117-0.166s-2.799,0.059-4.117,0.166c0.953-2.635,1.852-5.182,2.113-6.105
		c0.577-2.01,1.775-6.209-1.312-8.668c-1.342-1.066-3.682-1.918-7.237,0.041c-1.931,1.061-3.432,1.809-4.674,2.406v-10.859
		c4.691,2.389,8.734,4.068,11.696,1.412c0.821-0.734,2.569-2.844,1.133-6.561c-1.076-2.775-2.22-5.857-3.092-8.309h10.981
		c-0.873,2.451-2.016,5.533-3.092,8.309c-1.437,3.717,0.314,5.826,1.133,6.561c2.961,2.656,7.008,0.977,11.695-1.412v10.859
		c-1.242-0.598-2.743-1.346-4.672-2.406C1080.673,203.066,1078.331,203.917,1076.996,204.984z M1118.203,276.095
		c-4.111,0-7.453-3.344-7.453-7.451c0-4.109,3.342-7.447,7.453-7.447c4.104,0,7.446,3.338,7.446,7.447
		C1125.649,272.751,1122.307,276.095,1118.203,276.095z M1132.356,278.204c-1.044,0.178-2.25,0.389-3.584,0.588
		c0.837-0.871,1.566-1.848,2.171-2.904c0.775,0.799,1.64,1.51,2.578,2.117L1132.356,278.204z M1141.463,273.132
		c-4.108,0-7.45-3.34-7.45-7.447c0-4.109,3.342-7.451,7.45-7.451c4.109,0,7.45,3.342,7.45,7.451
		C1148.914,269.792,1145.573,273.132,1141.463,273.132z M1154.638,272.105c0.06-0.123,0.119-0.242,0.176-0.367
		c0.11,0.08,0.224,0.152,0.338,0.223C1154.981,272.013,1154.807,272.058,1154.638,272.105z M1163.138,267.122
		c-4.106,0-7.449-3.344-7.449-7.453s3.343-7.447,7.449-7.447c4.108,0,7.449,3.338,7.449,7.447S1167.246,267.122,1163.138,267.122z
		 M1175.338,267.806c0.129-0.189,0.244-0.398,0.364-0.596c0.194,0.17,0.397,0.33,0.602,0.486
		C1175.984,267.739,1175.656,267.769,1175.338,267.806z M1185.265,263.554c-4.11,0-7.454-3.344-7.454-7.451
		c0-4.109,3.344-7.453,7.454-7.453c4.106,0,7.447,3.344,7.447,7.453C1192.712,260.21,1189.371,263.554,1185.265,263.554z
		 M1195.04,267.011c0.941-0.84,1.775-1.793,2.473-2.848c0.809,1.221,1.786,2.32,2.913,3.25
		C1198.606,267.228,1196.813,267.101,1195.04,267.011z M1202.31,256.103c0-4.109,3.342-7.453,7.45-7.453
		c4.109,0,7.449,3.344,7.449,7.453c0,4.107-3.34,7.447-7.449,7.447C1205.652,263.55,1202.31,260.21,1202.31,256.103z
		 M1214.762,269.878c1.287-0.471,2.485-1.109,3.576-1.895c0.522,1.234,1.217,2.377,2.037,3.41
		C1218.536,270.845,1216.664,270.339,1214.762,269.878z M1234.562,276.818c1.188-0.203,2.327-0.545,3.399-1.014
		c0.087,1.039,0.276,2.045,0.558,3.014C1237.232,278.124,1235.914,277.46,1234.562,276.818z M1232.018,269.741
		c-4.159,0-7.542-3.381-7.542-7.537c0-4.158,3.383-7.539,7.542-7.539c4.157,0,7.54,3.381,7.54,7.539
		C1239.558,266.361,1236.175,269.741,1232.018,269.741z M1245.508,274.505c0-4.328,3.521-7.848,7.849-7.848
		c4.328,0,7.848,3.52,7.848,7.848c0,4.33-3.52,7.85-7.848,7.85C1249.03,282.355,1245.508,278.835,1245.508,274.505z
		 M1299.949,336.968c16.833,3.023,21.649,9.875,22.408,31.867c0.675,19.537-9.624,34.086-15.776,42.775
		c-0.792,1.119-1.518,2.143-2.147,3.072c-4.146,6.125-21.045,37.18-33.383,59.859c-4.861,8.932-8.825,16.227-10.63,19.439
		c-4.413,7.871-7.452,6.248-10.133,4.801c-1.853-0.996-5.026-3.621-6.967-5.617c2.595-1.66,6.325-4.805,10.354-12.338
		c7.709-14.412-8.566-29.73-9.263-30.373l-1.603-1.484l-2.145,0.406c-0.751,0.145-18.464,3.652-21.792,17.295
		c-1.457,5.979,0.889,11.857,2.601,16.147c0.235,0.588,0.463,1.162,0.663,1.693c-2.474,0.641-8.303,0.502-14.738-3.244
		c-10.762-6.256-9.403-11.137-8.824-13.225c1.347-4.854,5.335-15.268,12.549-32.783c7.301-17.74,21.721-43.248,32.245-61.871
		l0.7-1.238c6.162-10.906,14.246-26.973,19.851-38.334C1269,333.663,1281.924,333.732,1299.949,336.968z M1287.3,314.044
		c-4.922,0-8.926-4.004-8.926-8.93c0-4.918,4.004-8.926,8.926-8.926s8.928,4.008,8.928,8.926
		C1296.228,310.04,1292.222,314.044,1287.3,314.044z M1325.443,319.847c-4.922,0-8.927-4.004-8.927-8.928
		c0-4.918,4.005-8.926,8.927-8.926s8.929,4.008,8.929,8.926C1334.371,315.843,1330.365,319.847,1325.443,319.847z M1356.013,322.698
		c4.92,0,8.925,4.008,8.925,8.928c0,4.926-4.005,8.928-8.925,8.928c-4.925,0-8.929-4.002-8.929-8.928
		C1347.084,326.706,1351.088,322.698,1356.013,322.698z M1351.046,348.482c-1.037,0.627-2.001,1.35-2.881,2.166
		c-0.13-1.221-0.292-2.402-0.488-3.543C1348.739,347.679,1349.867,348.136,1351.046,348.482z M1347.158,375.443
		c0.459,0.496,0.942,0.975,1.456,1.42c-0.627,0.117-1.243,0.266-1.849,0.451C1346.905,376.702,1347.031,376.072,1347.158,375.443z
		 M1336.553,402.587c0.309,0.557,0.649,1.088,1.012,1.605c-0.441-0.033-0.886-0.066-1.335-0.066c-0.17,0-0.332,0.02-0.498,0.023
		C1336.007,403.626,1336.283,403.101,1336.553,402.587z M1336.23,430.636c-4.923,0-8.927-4.004-8.927-8.928
		c0-1.01,0.204-1.971,0.517-2.879c0.504-0.912,0.985-1.795,1.445-2.639c1.639-2.06,4.135-3.41,6.965-3.41
		c4.923,0,8.927,4.008,8.927,8.928C1345.157,426.632,1341.153,430.636,1336.23,430.636z M1351.955,403.042
		c-4.924,0-8.929-4.002-8.929-8.928c0-4.92,4.005-8.926,8.929-8.926c4.921,0,8.926,4.006,8.926,8.926
		C1360.88,399.04,1356.875,403.042,1351.955,403.042z M1360.071,372.474c-4.924,0-8.929-4.004-8.929-8.928
		c0-4.918,4.005-8.926,8.929-8.926c4.92,0,8.926,4.008,8.926,8.926C1368.996,368.47,1364.991,372.474,1360.071,372.474z"/>
</g>
</svg>
