<?xml version="1.0" encoding="utf-8"?>
<!-- Generator: Adobe Illustrator 22.1.0, SVG Export Plug-In . SVG Version: 6.00 Build 0)  -->
<svg version="1.1" xmlns="http://www.w3.org/2000/svg" xmlns:xlink="http://www.w3.org/1999/xlink" x="0px" y="0px"
	 viewBox="0 0 1599.999 900" enable-background="new 0 0 1599.999 900" xml:space="preserve">
<g id="Layer_1">
	<g>
		<g>
			<defs>
				<path id="SVGID_26_" d="M828.432,484.742c0-31.332,25.402-56.73,56.732-56.73c31.323,0,56.718,25.398,56.718,56.73
					s-25.395,56.73-56.718,56.73C853.835,541.472,828.432,516.074,828.432,484.742 M865.23,378.196
					c-58.847,11.011-97.627,67.631-86.612,126.48c11.006,58.847,67.643,97.622,126.481,86.612
					c58.84-11.013,97.624-67.64,86.614-126.487c-9.749-52.104-55.27-88.477-106.427-88.472
					C878.675,376.328,871.964,376.937,865.23,378.196 M1019.426,436.082c0,66.432,100.463,62.384,100.463,93.175
					c0,12.151-12.55,18.633-27.14,18.633c-33.624,0-56.301-22.683-56.301-22.683l-23.497,36.052c0,0,28.763,30.383,80.213,30.383
					c49.009,0,78.991-27.543,78.991-61.983c0-66.435-100.465-62.79-100.465-91.956c0-12.967,12.962-18.64,26.333-18.64
					c31.594,0,50.646,17.822,50.646,17.822l19.025-38.073c0,0-22.681-23.497-69.263-23.497
					C1053.862,375.314,1019.426,397.594,1019.426,436.082 M1225.672,329.452v53.274h-32.57v46.225h32.57v82.892
					c-0.07,46.507,25.316,79.698,83.501,79.698c11.96,0,23.264-0.888,34.102-3.864v-0.009l-7.678-45.885
					c-11.878,1.931-26.636,1.548-26.636,1.548c-16.22,0-29.875-14.644-29.875-31.488v-82.892h64.194v-46.225h-64.194v-53.274
					H1225.672z M527.495,450.113c0-47.501,38.516-86.012,86.005-86.012c47.496,0,86.003,38.512,86.003,86.012
					c0,47.494-38.507,86.001-86.003,86.001C566.011,536.113,527.495,497.606,527.495,450.113 M472.097,450.113
					c0,78.101,63.308,141.401,141.404,141.401c78.091,0,141.409-63.301,141.409-141.401c0-78.098-63.317-141.408-141.409-141.408
					C535.405,308.704,472.097,372.014,472.097,450.113"/>
			</defs>
			<clipPath id="SVGID_1_">
				<use xlink:href="#SVGID_26_"  overflow="visible"/>
			</clipPath>
			
				<linearGradient id="SVGID_2_" gradientUnits="userSpaceOnUse" x1="-1008.0025" y1="3998.2515" x2="-1005.6708" y2="3998.2515" gradientTransform="matrix(373.6128 0 0 -373.6128 377074.75 1494253.375)">
				<stop  offset="0" style="stop-color:#0051CC"/>
				<stop  offset="0.0121" style="stop-color:#0051CC"/>
				<stop  offset="1" style="stop-color:#1AACFF"/>
			</linearGradient>
			<rect x="472.097" y="308.704" clip-path="url(#SVGID_1_)" fill="url(#SVGID_2_)" width="871.183" height="293.594"/>
		</g>
		<g>
			<path fill="#0051CC" d="M269.945,490.256h-18.2v-64.772h16.192l1.003,12.552c4.519-8.912,12.932-12.529,24.229-12.529
				l-0.375,17.299h-3.768c-12.051,0-19.081,6.277-19.081,21.338V490.256z"/>
			<polygon fill="#0051CC" points="352.979,425.484 373.189,425.484 388.129,466.531 403.063,425.484 422.273,425.484 
				396.537,490.256 378.836,490.256 			"/>
			<path fill="#0051CC" d="M329.585,425.212h20.473v14.844h-20.473v26.741c0,5.885,2.686,8.7,7.804,8.7
				c5.246,0,10.493-1.406,10.493-1.406l2.176,15.352c0,0-7.037,3.071-17.402,3.071c-13.179,0-21.625-7.292-21.625-20.984v-31.474
				h-12.156v-14.844h12.156v-15.865h18.554V425.212z"/>
		</g>
	</g>
</g>
<g id="Laag_2">
</g>
</svg>
