<?xml version="1.0" encoding="utf-8"?>
<!-- Generator: Adobe Illustrator 22.1.0, SVG Export Plug-In . SVG Version: 6.00 Build 0)  -->
<svg version="1.1" xmlns="http://www.w3.org/2000/svg" xmlns:xlink="http://www.w3.org/1999/xlink" x="0px" y="0px"
	 viewBox="0 0 1599.999 900" enable-background="new 0 0 1599.999 900" xml:space="preserve">
<g id="Layer_1">
	<g>
		<g>
			<path fill="#E1F2FD" d="M369.698,511.098v34.856c15.077,7.441,31.57,12.456,48.97,14.524l-24.022-49.38H369.698z"/>
		</g>
		<path fill="#E1F2FD" d="M538.177,409.59c0,40.054-23.248,74.682-56.982,91.13l0.028,0.03l-0.011-0.049l0.011,0.049l23.729,44.736
			c44.77-22.483,76.902-66.433,82.871-118.344l-0.062-0.013c-9.045-0.716-16.163-8.282-16.163-17.512L538.177,409.59z"/>
		<g>
			<path fill="#E1F2FD" d="M436.479,308.277c0.1-0.003,0.212-0.007,0.315-0.008c-0.154,0-0.313,0.005-0.469,0.008H436.479z"/>
			<path fill="#E1F2FD" d="M436.793,308.269c0.016,0,0.026-0.002,0.038-0.002v-50.655c-44.997,0.005-85.407,19.581-113.227,50.665
				h112.72C436.481,308.274,436.639,308.269,436.793,308.269z"/>
			<path fill="#E1F2FD" d="M436.832,308.267L436.832,308.267c-0.012,0-0.023,0.002-0.038,0.002
				C436.809,308.269,436.82,308.267,436.832,308.267z"/>
		</g>
		<g>
			<g>
				<path fill="#455B92" d="M481.223,500.75l-0.011-0.049c33.722-16.449,56.965-51.064,56.965-91.111
					c0-55.959-45.368-101.322-101.326-101.322c-0.129,0-0.251,0.007-0.372,0.01H285.374v50.642h-106.76v101.346h106.747v182.975
					h84.336V511.098h24.948l64.262,132.114h97.882L481.223,500.75z"/>
			</g>
			<g>
				<path fill="#134294" d="M481.223,500.75l-0.011-0.049c33.722-16.449,56.965-51.064,56.965-91.111
					c0-55.959-45.368-101.322-101.326-101.322c-0.129,0-0.251,0.007-0.372,0.01H285.374v50.642h-106.76v101.346h106.747v182.975
					h84.336V511.098h24.948l64.262,132.114h97.882L481.223,500.75z"/>
			</g>
		</g>
		<path fill="#0071B8" d="M436.851,358.928c-14.988,0-28.454,6.51-37.723,16.854h37.704v0.012c0.008,0,0.013-0.002,0.019-0.002
			c18.663,0,33.794,15.131,33.794,33.792c0,18.663-15.131,33.794-33.794,33.794c-0.138,0-0.267-0.01-0.401-0.01h-37.348
			c9.278,10.358,22.746,16.884,37.749,16.884c27.977,0,50.659-22.684,50.659-50.663
			C487.509,381.611,464.828,358.928,436.851,358.928z"/>
		<g>
			<path fill="#00528C" d="M481.223,500.683c-13.388,6.521-28.478,10.229-44.372,10.229c-55.959,0-101.32-45.363-101.32-101.322
				s45.36-101.322,101.32-101.322c-0.129,0-0.251,0.007-0.372,0.01h-112.9c-24.064,26.888-38.708,62.388-38.708,101.312
				c0,59.826,34.572,111.569,84.827,136.364v-34.856h24.948l24.022,49.38c5.962,0.717,12.03,1.091,18.183,1.091
				c24.486,0,47.612-5.8,68.101-16.082l-23.458-44.256L481.223,500.683z"/>
		</g>
		<g>
			<path fill="#8C99B1" d="M399.128,375.782h-7.672l-22.47,67.586h30.116c-8.027-8.965-12.913-20.799-12.913-33.779
				C386.188,396.596,391.085,384.749,399.128,375.782z"/>
		</g>
		<path fill="#C1E5FA" d="M571.598,409.558c0.039-9.218,7.175-16.747,16.225-17.433c-8.666-75.709-72.949-134.513-150.972-134.513
			c-0.006,0-0.011,0-0.019,0v50.655c0.008,0,0.013,0,0.019,0c55.947,0,101.306,45.346,101.324,101.291H571.598"/>
		<rect x="571.861" y="442.237" fill="#00305B" width="34.018" height="111.507"/>
		<path fill="#00305B" d="M647.644,591.147h-19.399V562.51h13.169c4.57,0,6.855-2.486,6.855-6.844V442.294h34.021v115.863
			C682.291,573.51,672.338,591.147,647.644,591.147z"/>
		<path fill="#00305B" d="M786.581,553.797v-66.823c0-12.862-9.135-15.35-13.697-15.35c-4.57,0-13.696,2.488-13.696,15.35v66.823
			h-34.032V442.155h33.208v9.125c6.841-6.843,17.012-10.368,25.935-10.368c10.583,0,19.087,3.525,25.103,9.547
			c9.548,9.541,11.202,20.121,11.202,31.957v71.381H786.581z"/>
		<path fill="#00305B" d="M987.08,553.797v-66.823c0-12.862-9.123-15.35-13.689-15.35c-4.567,0-13.696,2.488-13.696,15.35v66.823
			h-34.035v-66.823c0-12.862-9.132-15.35-13.697-15.35c-4.56,0-13.69,2.488-13.69,15.35v66.823h-34.029V442.155h33.186v9.125
			c6.856-6.843,17.027-10.368,25.942-10.368c11.005,0,19.931,3.525,27.189,11.824c9.754-8.505,18.676-11.824,31.541-11.824
			c10.581,0,20.739,3.525,26.767,9.547c9.545,9.541,12.237,20.121,12.237,31.957v71.381H987.08z"/>
		<path fill="#00305B" d="M1141.034,540.721c-6.644,7.059-17.854,14.321-35.912,14.321c-18.042,0-29.252-7.262-35.896-14.321
			c-9.326-10.171-12.235-20.748-12.235-42.75c0-21.785,2.909-32.575,12.235-42.743c6.644-7.055,17.854-14.315,35.896-14.315
			c18.058,0,29.267,7.261,35.912,14.315c9.331,10.168,12.241,20.958,12.241,42.743
			C1153.275,519.973,1150.365,530.55,1141.034,540.721z M1114.261,474.735c-2.076-2.076-4.979-3.11-9.139-3.11
			c-4.142,0-7.037,1.034-9.123,3.11c-4.358,4.356-4.98,12.239-4.98,23.236c0,11.006,0.622,18.888,4.98,23.246
			c2.086,2.074,4.982,3.113,9.123,3.113c4.161,0,7.063-1.039,9.139-3.113c4.358-4.358,4.973-12.24,4.973-23.246
			C1119.234,486.974,1118.619,479.091,1114.261,474.735z"/>
		<path fill="#00305B" d="M1251.36,553.797v-66.823c0-12.862-9.133-15.35-13.703-15.35c-4.562,0-13.687,2.488-13.687,15.35v66.823
			h-34.033V442.155h33.195v9.125c6.852-6.843,17.012-10.368,25.941-10.368c10.586,0,19.084,3.525,25.108,9.547
			c9.543,9.541,11.209,20.121,11.209,31.957v71.381H1251.36z"/>
		<path fill="#00305B" d="M1387.865,553.797v-9.132c-6.843,6.85-14.104,10.377-25.731,10.377c-10.786,0-20.748-3.733-27.181-10.167
			c-10.995-10.999-10.377-30.499-10.377-46.905c0-16.39-0.618-35.893,10.377-46.892c6.434-6.434,16.194-10.166,26.977-10.166
			c11,0,18.679,3.107,24.897,9.337v-44.201h34.036v147.75H1387.865z M1372.723,471.625c-12.657,0-14.117,10.164-14.117,26.346
			c0,16.193,1.459,26.359,14.117,26.359c12.656,0,14.104-10.167,14.104-26.359C1386.826,481.788,1385.379,471.625,1372.723,471.625z
			"/>
		<path fill="#00305B" d="M682.618,409.617c0,9.702-7.859,17.566-17.562,17.566c-9.702,0-17.564-7.864-17.564-17.566
			c0-9.699,7.862-17.561,17.564-17.561C674.759,392.056,682.618,399.919,682.618,409.617z"/>
		<path fill="#00305B" d="M538.175,409.558h-8.27c0,0.02,0.003,0.041,0.003,0.059c0,9.702-7.863,17.566-17.563,17.566
			c-9.701,0-17.565-7.864-17.565-17.566c0-0.017,0.001-0.038,0.001-0.059h-7.272c0,0.01,0,0.02,0,0.031
			c0,27.979-22.681,50.663-50.659,50.663c-0.006,0-0.009,0-0.009,0l-0.005,0.001h-0.005v-0.001
			c-14.99-0.006-28.457-6.531-37.73-16.884h-30.116l22.47-67.586h7.672c9.269-10.339,22.728-16.849,37.704-16.854v-0.005v-50.656
			c-37.482,0.004-70.195,20.386-87.712,50.656c-8.63,14.908-13.589,32.202-13.589,50.667c0,18.462,4.958,35.759,13.589,50.665
			c17.517,30.271,50.23,50.655,87.712,50.658c0.008,0,0.013,0,0.019,0c55.958,0,101.326-45.363,101.326-101.322
			C538.177,409.579,538.175,409.569,538.175,409.558z"/>
		<g>
			<path fill="#00305B" d="M436.832,561.568c-6.145-0.003-12.208-0.374-18.164-1.091l18.164,37.351l22.076,45.383h97.882
				l-51.838-97.725c-20.489,10.282-43.615,16.082-68.101,16.082C436.845,561.568,436.84,561.568,436.832,561.568"/>
		</g>
		<path fill="#134294" d="M487.509,409.558h50.665c-0.018-55.945-45.377-101.291-101.324-101.291c-0.006,0-0.011,0-0.019,0v50.661
			c0.008,0,0.013,0,0.019,0C464.818,358.928,487.492,381.594,487.509,409.558z"/>
		<path fill="#BCB4DA" d="M529.908,409.617c0,9.702-7.863,17.566-17.563,17.566c-9.701,0-17.565-7.864-17.565-17.566
			c0-9.699,7.864-17.561,17.565-17.561C522.045,392.056,529.908,399.919,529.908,409.617z"/>
		<path fill="#448BC2" d="M436.45,443.368c0.134,0,0.263,0.01,0.401,0.01c18.663,0,33.794-15.131,33.794-33.794
			c0-18.661-15.131-33.792-33.794-33.792c-0.006,0-0.011,0.002-0.019,0.002v67.574H436.45z"/>
		<path fill="#448BC2" d="M399.128,375.782h-7.672l-22.47,67.586h30.116c-8.027-8.965-12.913-20.799-12.913-33.779
			C386.188,396.596,391.085,384.749,399.128,375.782z"/>
		<g>
			<g>
				<g>
					<path fill="#6E84A4" d="M399.128,375.782c-8.043,8.967-12.939,20.814-12.939,33.807c0,12.979,4.886,24.813,12.913,33.779
						h37.348h0.382v-67.574v-0.012H399.128z"/>
				</g>
				<g>
					<path fill="#4884A5" d="M399.128,375.782c-8.043,8.967-12.939,20.814-12.939,33.807c0,12.979,4.886,24.813,12.913,33.779
						h37.348h0.382v-67.574v-0.012H399.128z"/>
				</g>
			</g>
		</g>
		<path fill="#64C6F2" d="M454.452,409.575c0,9.698-7.864,17.562-17.563,17.562c-9.701,0-17.56-7.864-17.56-17.562
			c0-9.702,7.859-17.564,17.56-17.564C446.588,392.011,454.452,399.873,454.452,409.575z"/>
		<g>
			<g>
				<path fill="#271C41" d="M230.287,443.394l-11.935-25.17h-5.594v25.17h-16.58v-67.612h26.719
					c14.974,0,23.025,10.631,23.025,21.744c0,9.206-5.683,15.001-10.99,17.66l14.598,28.209H230.287z M222.141,390.897h-9.383
					v13.681h9.383c4.55,0,7.2-3.334,7.2-6.839C229.34,394.226,226.691,390.897,222.141,390.897z"/>
				<path fill="#271C41" d="M301.735,390.586v52.808h-16.589v-52.808h-16.578v-14.804h49.745v14.804H301.735z"/>
				<path fill="#271C41" d="M375.089,443.374h-12.318l-22.264-67.592h17.151l11.366,37.792l11.186-37.792h17.233L375.089,443.374z"
					/>
			</g>
			<g>
				<path fill="#FFFFFF" d="M230.287,443.394l-11.935-25.17h-5.594v25.17h-16.58v-67.612h26.719
					c14.974,0,23.025,10.631,23.025,21.744c0,9.206-5.683,15.001-10.99,17.66l14.598,28.209H230.287z M222.141,390.897h-9.383
					v13.681h9.383c4.55,0,7.2-3.334,7.2-6.839C229.34,394.226,226.691,390.897,222.141,390.897z"/>
				<path fill="#FFFFFF" d="M301.735,390.586v52.808h-16.589v-52.808h-16.578v-14.804h49.745v14.804H301.735z"/>
				<path fill="#FFFFFF" d="M375.089,443.374h-12.318l-22.264-67.592h17.151l11.366,37.792l11.186-37.792h17.233L375.089,443.374z"
					/>
			</g>
		</g>
		<path fill="#134294" d="M606.725,409.617c0,9.702-7.864,17.566-17.561,17.566c-9.704,0-17.566-7.864-17.566-17.566
			c0-9.699,7.863-17.561,17.566-17.561C598.86,392.056,606.725,399.919,606.725,409.617z"/>
	</g>
</g>
<g id="Laag_2">
</g>
</svg>
