<?xml version="1.0" encoding="utf-8"?>
<!-- Generator: Adobe Illustrator 22.1.0, SVG Export Plug-In . SVG Version: 6.00 Build 0)  -->
<svg version="1.1" xmlns="http://www.w3.org/2000/svg" xmlns:xlink="http://www.w3.org/1999/xlink" x="0px" y="0px"
	 viewBox="0 0 1599.999 900" enable-background="new 0 0 1599.999 900" xml:space="preserve">
<g id="Layer_1">
	<g>
		<path fill="#FFFFFF" d="M597.327,427.536L464.906,295.13c-6.504-6.512-15.164-10.086-24.345-10.086
			c-9.203,0-17.844,3.574-24.356,10.086l-132.4,132.406c-6.523,6.504-10.084,15.153-10.084,24.365
			c0,9.183,3.561,17.824,10.084,24.325l132.4,132.43c6.512,6.492,15.153,10.064,24.356,10.064c9.181,0,17.842-3.572,24.345-10.064
			l132.421-132.43c6.493-6.501,10.082-15.142,10.082-24.325C607.409,442.689,603.82,434.04,597.327,427.536z"/>
		<path fill="#D70861" d="M597.935,426.918c6.901,6.89,10.347,15.945,10.347,24.983c0,9.018-3.446,18.057-10.347,24.966
			L465.536,609.268c-6.901,6.896-15.937,10.342-24.975,10.342c-9.029,0-18.085-3.446-24.974-10.342l-132.41-132.402
			c-6.881-6.909-10.345-15.947-10.345-24.966c0-9.038,3.463-18.093,10.345-24.983l132.41-132.406
			c6.89-6.899,15.945-10.349,24.974-10.349c9.038,0,18.074,3.45,24.975,10.349L597.935,426.918z"/>
		<path fill="#FFFFFF" d="M440.561,599.386L299.983,458.83c-1.905-1.916-2.873-4.442-2.873-6.929c0-2.515,0.968-5.021,2.873-6.948
			l140.578-140.565l-9.387,78.202h81.55c6.089,0,11.857,2.778,15.602,7.578c3.762,4.8,5.438,10.991,3.693,16.952l-30.827,98.912
			c-2.825,9.481-10.142,15.153-19.276,15.153h-50.743L440.561,599.386z"/>
		<path fill="#1763AD" d="M484.481,401.121c0,0-13.161,50.858-15.223,58.791c-2.031-7.944-15.036-58.791-15.036-58.791H422.91
			c0,0-12.006,50.886-13.886,58.831c-2.196-7.857-16.535-58.831-16.535-58.831h-31.371l32.435,101.523h28.943
			c0,0,13.139-53.781,15.095-61.832c2.157,8.011,16.924,61.832,16.924,61.832h28.381l31.534-101.523H484.481z"/>
		<path fill="#1763AD" d="M645.406,343.184h48.23l29.842,91.93h0.599l25.012-91.93h49.445l27.116,91.93h0.608l27.433-91.93h45.826
			l-52.154,146.494h-44.619l-30.449-97.363h-0.603l-27.12,97.363h-45.518L645.406,343.184z"/>
		<path fill="#1763AD" d="M1052.022,464.365c-14.465,18.384-38.287,28.93-61.801,28.93c-45.205,0-81.366-30.15-81.366-76.848
			c0-46.737,36.161-76.879,81.366-76.879c42.198,0,68.732,30.141,68.732,76.879v14.146H954.052
			c3.619,17.186,16.583,28.334,34.06,28.334c14.778,0,24.712-7.53,32.259-17.777L1052.022,464.365z M1013.735,399.851
			c0.308-15.064-11.449-27.726-27.741-27.726c-19.877,0-30.723,13.56-31.942,27.726H1013.735z"/>
		<path fill="#1763AD" d="M1168.672,386.287c-6.64-8.138-15.368-12.363-26.222-12.363c-7.53,0-16.588,3.32-16.588,12.061
			c0,21.715,76.271,3.311,76.271,59.084c0,37.38-36.191,48.226-67.53,48.226c-20.484,0-43.109-5.117-57.565-19.895l27.433-30.441
			c8.437,10.258,18.392,15.967,31.942,15.967c10.255,0,20.502-2.71,20.502-10.549c0-23.514-76.257-3.619-76.257-59.373
			c0-34.362,30.74-49.437,61.48-49.437c19.295,0,40.692,4.82,54.267,19.296L1168.672,386.287z"/>
		<path fill="#1763AD" d="M1324.508,379.362h-39.798v48.831c0,15.676,1.801,27.114,21.414,27.114c4.817,0,14.465-0.601,18.384-4.201
			v37.671c-9.947,3.609-21.105,4.518-31.651,4.518c-30.15,0-53.343-12.365-53.343-44.316v-69.618h-28.943v-36.178h28.943v-29.765
			l45.196-13.639v43.404h39.798V379.362z"/>
	</g>
</g>
<g id="Laag_2">
</g>
</svg>
