<?xml version="1.0" encoding="utf-8"?>
<!-- Generator: Adobe Illustrator 22.1.0, SVG Export Plug-In . SVG Version: 6.00 Build 0)  -->
<svg version="1.1" id="Layer_1" xmlns="http://www.w3.org/2000/svg" xmlns:xlink="http://www.w3.org/1999/xlink" x="0px" y="0px"
	 viewBox="0 0 1600 900" enable-background="new 0 0 1600 900" xml:space="preserve">
<g>
	<path d="M1450,562.816c0,24.097-19.718,43.814-43.818,43.814H193.818c-24.101,0-43.818-19.718-43.818-43.814V337.184
		c0-24.102,19.718-43.815,43.818-43.815h1212.363c24.101,0,43.818,19.713,43.818,43.815V562.816z"/>
	<path fill="#FFFFFF" d="M1201.762,400.924h-30.267v116.644c0,15.365-7.294,23.047-21.883,23.047
		c-14.588,0-21.883-7.682-21.883-23.047V400.924h-30.267c-14.279,0-21.42-6.437-21.42-19.323c0-13.038,7.141-19.556,21.42-19.556
		h104.3c14.279,0,21.42,6.518,21.42,19.556C1223.182,394.487,1216.041,400.924,1201.762,400.924"/>
	<path fill="#FFFFFF" d="M1379.864,390.954l-44.005,128.683c-2.64,7.926-5.353,13.133-8.146,15.619
		c-3.726,3.569-9.859,5.36-18.396,5.36c-11.953,0-19.785-4.113-23.511-12.341c-0.78-1.549-1.788-4.266-3.023-8.149l-44.005-128.981
		c-1.09-3.1-1.631-6.204-1.631-9.312c0-6.669,2.094-12.106,6.286-16.294c4.192-4.19,9.62-6.285,16.294-6.285
		c10.863,0,18.471,7.602,22.816,22.813l26.773,92.894l26.777-92.847c4.341-15.24,12.491-22.859,24.448-22.859
		c6.204,0,11.289,1.98,15.246,5.945c3.957,3.963,5.939,8.97,5.939,15.033C1381.727,383.805,1381.104,387.379,1379.864,390.954"/>
	<path fill="#FFFFFF" d="M272.152,545.066c-16.801,0-30.99-4.077-42.691-12.162c-11.712-8.149-17.585-17.583-17.585-28.289
		c0-6.178,2.049-11.363,6.087-15.671c4.017-4.233,8.959-6.369,14.835-6.369c7.393,0,14.2,4.655,20.405,14.022
		c2.665,4.222,5.317,7.145,7.921,8.754c2.613,1.598,6.264,2.359,11.027,2.359c16.425,0,24.66-9.157,24.66-27.498
		c0-17.706-8.17-26.572-24.466-26.572c-5.348,0-11.983,2.02-19.77,6.055c-7.832,4.006-13.62,6.037-17.428,6.037
		c-13.278,0-19.945-7.445-19.945-22.28c0-7.397,1.112-19.028,3.352-34.827c1.083-7.726,2.259-15.524,3.567-23.441
		c1.269-9.958,3.94-16.571,8.061-19.785c4.133-3.231,11.671-4.87,22.738-4.87h61.677c13.586,0,20.386,6.563,20.386,19.624
		c0,12.975-6.8,19.427-20.386,19.427h-56.686l-2.602,21.079c6.8-2.978,14.796-4.457,23.947-4.457
		c18.785,0,34.034,5.734,45.627,17.297c11.639,11.515,17.454,26.502,17.454,44.977c0,20.226-6.402,36.359-19.238,48.481
		C310.323,539.059,293.318,545.066,272.152,545.066"/>
	<path fill="#FFFFFF" d="M419.65,545.066c-16.589,0-30.198-3.386-40.809-10.158c-15.778-10.273-23.682-22.992-23.682-38.096
		c0-6.689,1.874-12.057,5.689-16.126c3.798-4.103,8.772-6.156,14.945-6.156c6.798,0,12.291,2.68,16.599,8.044
		c1.879,2.52,4.888,8.06,8.991,16.62c2.372,5.037,8.157,7.582,17.32,7.582c15.83,0,23.705-7.38,23.705-22.066
		c0-11.538-5.923-18.423-17.777-20.667c-3.145-0.294-7.825-1.142-13.99-2.545c-5.842-2.259-8.789-7.197-8.789-14.953
		c0-8.863,5.149-14.385,15.447-16.595c2.986-0.629,7.107-1.915,12.31-3.814c5.229-2.986,7.81-8.279,7.81-15.906
		c0-11.5-6.059-17.31-18.23-17.31c-7.74,0-13.135,2.309-16.126,6.885c-0.338,0.799-1.262,3.027-2.845,6.639
		c-4.442,11.074-11.431,16.622-21.12,16.622c-6.131,0-11.059-1.759-14.663-5.344c-3.658-3.548-5.489-8.415-5.489-14.553
		c0-13.284,5.818-24.553,17.435-33.773c11.625-9.25,26.256-13.879,43.975-13.879c18.8,0,33.879,4.764,45.138,14.226
		c11.311,9.477,16.972,22.13,16.972,37.93c0,14.368-5.428,25.707-16.347,34.13c15.158,9.312,22.764,23.099,22.764,41.416
		c0,18.979-6.284,34-18.738,45.136C457.651,539.5,440.824,545.066,419.65,545.066"/>
	<path fill="#FFFFFF" d="M571.644,545.066c-21.094,0-37.577-5.223-49.544-15.694c-11.953-10.453-17.924-25.004-17.924-43.676
		c0-18.662,7.106-32.776,21.356-42.264c-10.914-8.061-16.395-19.563-16.395-34.48c0-16.747,5.551-29.87,16.644-39.288
		c11.092-9.404,26.391-14.14,45.864-14.14c19.331,0,34.648,4.717,46.013,14.018c11.326,9.36,16.991,22.27,16.991,38.749
		c0,15.023-5.508,26.641-16.454,34.885c14.156,9.341,21.167,23.525,21.167,42.519c0,18.541-6.077,33.07-18.172,43.568
		C609.079,539.825,592.565,545.066,571.644,545.066 M571.889,462.234c-7.285,0-13.019,2.068-17.103,6.185
		c-4.112,4.129-6.18,9.956-6.18,17.616c0,14.07,7.741,21.122,23.283,21.122c15.344,0,23.042-7.548,23.042-22.581
		c0-6.802-2.06-12.23-6.164-16.276C584.633,464.291,579.037,462.234,571.889,462.234 M571.644,392.841
		c-13.475,0-20.188,5.573-20.188,16.632c0,11.096,6.714,16.655,20.188,16.655c13.646,0,20.458-5.559,20.458-16.655
		C592.102,398.414,585.29,392.841,571.644,392.841"/>
	<path fill="#8BC53F" d="M849.16,450.348c0,53.039-42.99,96.062-96.058,96.062c-53.024,0-96.097-43.023-96.097-96.062
		c0-53.035,43.073-96.146,96.097-96.146C806.17,354.202,849.16,397.313,849.16,450.348"/>
	<path fill="#7E4897" d="M1058.836,450.348c0,53.039-43.004,96.062-96.036,96.062c-53.098,0-96.129-43.023-96.129-96.062
		c0-53.035,43.031-96.146,96.129-96.146C1015.831,354.202,1058.836,397.313,1058.836,450.348"/>
</g>
</svg>
