<?xml version="1.0" encoding="utf-8"?>
<!-- Generator: Adobe Illustrator 22.1.0, SVG Export Plug-In . SVG Version: 6.00 Build 0)  -->
<svg version="1.2" baseProfile="tiny" xmlns="http://www.w3.org/2000/svg" xmlns:xlink="http://www.w3.org/1999/xlink" x="0px"
	 y="0px" viewBox="0 0 1600 900" xml:space="preserve">
<g id="Layer_1">
	<g>
		<path fill="#00ADEE" d="M457.4,354.6l0.1,0.1c9.3,5.4,14.2,16,14.2,30.6v151c0,24-7.7,42.9-22.7,56.4l-0.1,0.1v3.1l5.6-2.4
			c28.6-12.3,38.3-16.2,61-24.5c11.6-4.2,21.7-7.6,30-10.2c11.1-3.4,16.3-4.8,30.7-8.3l0.2-0.1l3.2-64.8l0-0.3h-3.1l-0.1,0.2
			c-4.2,19.1-11.4,34.9-21.5,47c-10,11.9-23,20.5-38.8,25.6V452.5c20.2,1.1,31.6,6.7,39.3,25.1l0.1,0.2h3V410h-3l-0.1,0.2
			c-6.4,21.3-20.4,30-39.3,33.6v-80.7h11.2c23.6,0,41.2,13.5,48.3,37l0.1,0.2h3.1l-1.6-48.6H457.4V354.6z"/>
		<path fill="#00ADEE" d="M914.9,540.9l14.2,2.4l16.2,2.8l12.4,2l3.6,0.6v-3l-0.2-0.1c-10-5.3-15.4-10.3-19.4-17.9
			c-2.1-4-3.4-8.3-4.3-14V404.8h0.3l89.8,161.2l0.1,0.2h3v-0.3h0.6V382c0.6-7.6,1.8-12.9,3.5-16.2c2.3-4.5,7.6-9,12.9-11.1l0.2-0.1
			v-3h-51.8v3l0.2,0.1c10.7,4.6,15,8.7,17.7,16.7c1.3,3.8,2.2,8,2.8,12.9v79.8h-0.8l-61.6-112.4l-0.1-0.2h-53.1v3l0.2,0.1
			c8.9,3.6,19.5,10.3,21.5,21.8V512c-0.8,14.1-10.1,21.1-23,23l-0.3,0v3l3.6,0.7L914.9,540.9z"/>
		<path fill="#00ADEE" d="M1131.6,570.7l4.2,0.2v-3l-0.2-0.1c-6.6-3.3-10.9-7.6-14.2-14.2c-4-7.8-4.9-14.1-4.9-32V393.7
			c0-22.3,6.2-34,20.6-39.1l0.2-0.1v-2.9h-77.7v2.8l0.1,0.1c7.5,5.2,13,12.2,15.1,19.3c1.3,4.3,2.1,14.6,2.1,25.2v116.4
			c0,28.5-3.5,36.6-19,43.1l-0.2,0.1v3l2.7,0.5C1084.9,566.6,1112.8,570,1131.6,570.7"/>
		<path fill="#00ADEE" d="M1206.3,575.2c12.1,0,23.5-4.7,32.9-13.7c9.4-8.9,16-21.2,19-35.6c1.9-9,2.3-11.7,3.4-24.3l0-0.3h-2.6
			l-1.1,3.5c-6.9,22.6-17.3,32.7-33.5,32.7c-25.6,0-42.2-35.1-42.2-89.3c0-27.8,3.5-52.4,9.7-67.7c2.6-6.5,7.2-11.8,13-14.9
			c3.7-2,8.5-3.1,13.4-3.1c18.7,0,31.7,15.2,39.9,46.6l0.6,2.3h3.1v-61.2l-2.2,0.8l-3,1.4c-3.4,1.6-7.6,2.7-10.7,2.7
			c-2.2,0-4.5-0.3-6.5-0.9l-6-1.8c-6.1-1.8-12.7-2.8-17.9-2.8c-19.5,0-37.7,12.8-51.4,36c-13.6,23.1-21.2,54-21.2,86.9
			C1143.1,532,1169.7,575.2,1206.3,575.2"/>
		<path fill="#00ADEE" d="M651.8,362.6l5.8-0.1c24,0,33.8,8.6,33.8,29.7c0,24.1-14.1,38-39.6,39.1V362.6z M593.2,546.9
			c10.4-3.3,16.9-5,28.8-7.6c13.6-3,31.9-6.2,37.7-6.7l7.9-0.6l2-0.2v-3l-0.2-0.1c-14.1-4.6-17.8-11.6-17.8-34.2v-51.8l1.3-0.1
			c2.2-0.2,3.4-0.3,4.8-0.3c15.2,0,21.9,7.4,25.7,28.3c4.1,23,4.9,26.6,7.7,35.3c2.2,6.9,5.5,13,10.1,18.1
			c6.5,7.4,15.7,11.4,25.9,11.4c11.9,0,24.7-5.4,33.3-14.1l0.2-0.2l-1.2-2.2l-0.2,0c-5.2,1-7.4,1.3-10.1,1.3
			c-5.9,0-8.9-1.7-11.1-6.4c-1.8-3.9-2.1-5.1-4.8-17.8c-8.9-42.7-17.8-53.6-49.8-59.3c18.8-5.3,29.3-10.2,37.2-17.2
			c7.7-6.9,12.7-18.2,12.7-29c0-13.7-8-27.7-19-33.1c-8.5-4.2-19.8-6-37.9-6h-82.7v3l0.2,0.1c13.6,6,16.8,12.8,16.8,36.1v110.4
			c0,13.6-1,19-4.9,26.7c-3.1,6.1-5.5,8.9-13.4,16l-0.1,0.1l0.7,3L593.2,546.9z"/>
		<path fill="#00ADEE" d="M1312.4,463l14.5-67.7l1.1,0l14.3,57.8C1331.3,457.8,1327,459.2,1312.4,463 M1409.6,498.1h-0.2
			c-5.6-0.1-9-1.3-11.7-4.3c-4-4.3-5.9-8.9-11.6-27.3c-1.8-5.9-2.8-9.5-3.3-11.4l-24.9-103.2l-0.1-0.2h-61.4v3l0.2,0.1
			c10.8,4.9,15.5,8.2,21.2,15.3l-30.4,142.5c-4.1,13.5-9.1,25.4-13.2,31.3c-3.9,5.6-6.8,8.4-16.1,15.6l-0.1,0.1l0.4,3.1l22.6-6
			c14.5-3.8,26.5-7.3,33.8-9.9l0.2-0.1l-0.5-2.9l-0.2,0c-10.8-2.7-14.1-6.8-14.1-17.6c0-2,0.1-4.3,0.4-6.7l9-42.1l2.6-0.8
			c12.9-4,25.3-8.4,33.3-11.9l2.6,10.6c2.9,12,4.3,21.4,4.3,29.8c0,12.6-3.8,22.3-11.3,28.7l-0.1,0.1l0.5,3.1l0.3-0.1
			c23.3-9.2,48.3-22.3,68.7-35.7l0.2-0.1L1409.6,498.1z"/>
		<path fill="#00ADEE" d="M825.6,360.2c21.2,0,28,19.4,28,79.8c0,40.2-3.3,67.2-9.7,78.2c-3.4,5.9-9.8,9.2-18.1,9.2
			c-14.5,0-21.3-7.5-24.2-26.8c-3-19.5-4.1-36-4.1-60.8C797.5,379.5,804.4,360.2,825.6,360.2 M825.6,539.5
			c22.5,0,41.1-8.8,53.6-25.6c12.5-16.7,19.2-41.4,19.2-71.3c0-30.7-6.3-54.5-18.7-70.8c-12.4-16.3-30.6-24.5-54.1-24.5
			c-23.5,0-41.7,8.2-54.1,24.5c-12.4,16.2-18.7,40-18.7,70.7c0,30,6.6,54.6,19.2,71.4C784.5,530.6,803,539.5,825.6,539.5"/>
		<path fill="#00ADEE" d="M1307,606.1c-42.5,14.4-88,21.5-139,21.5c-33.8,0-51.8-1.7-106.6-10.2l-61.2-9.4l-65-11.2
			c-32-5.5-72.8-10.5-106.3-13c-23.6-1.8-47.4-2.7-70.7-2.7c-69.3,0-131.8,7.6-185.7,22.6c-28.7,8-58.4,19.1-88.2,33.1
			c-14.7,6.9-26,12.4-36.9,18.6l0.6,1.1c24.4-11.4,46.4-18.7,75.9-25.4c28.8-6.5,50.2-8.9,78.9-8.9c15.1,0,32,0.8,48.8,2.2
			c10.9,0.9,25.8,2.6,44.6,4.9c24.8,3.1,44.6,5.9,58.9,8.4l60.1,10.6c8.8,1.6,25.5,4.3,51.1,8.4c24.8,4,42.2,6.7,51.9,8
			c40.2,5.6,72.1,8.1,106.8,8.1c92.2,0,186.7-18.5,266.2-52.1c25.8-10.9,49.6-23.1,68.9-35.3l-0.6-1.1
			C1342.7,592.5,1324.7,600.1,1307,606.1"/>
		<path fill="#00ADEE" d="M476.6,308.9c4.9,0.1,8.5,1.2,14.6,4.3c8,4.1,8.6,4.4,11.7,5.2c1.9,0.5,4,0.8,6.4,0.8
			c17.1,0.3,29.6-13.2,30-32.4c0.4-20.3-14.9-35.7-35.6-36.1c-17.3-0.3-35.9,9.2-46.3,23.8c-11,15.4-21,39-36.7,86.8l-51.7,145
			l-47.3-141.6c-4-11.9-5.2-19.9-5.2-25.9c0-11.7,8.3-22.1,22.5-28.3v-2.5h-37.6h-74.1h-33.7v2.5c16.2,3.4,26.6,9.1,34.3,18.7
			c7.5,9.3,15.8,25,22.6,43.7l92.8,259.8L442.3,348C452.9,319.8,463.1,308.6,476.6,308.9"/>
	</g>
</g>
<g id="Laag_2" display="none">
</g>
</svg>
