<?xml version="1.0" encoding="utf-8"?>
<!-- Generator: Adobe Illustrator 22.1.0, SVG Export Plug-In . SVG Version: 6.00 Build 0)  -->
<svg version="1.1" id="Layer_1" xmlns="http://www.w3.org/2000/svg" xmlns:xlink="http://www.w3.org/1999/xlink" x="0px" y="0px"
	 viewBox="0 0 1600 900" enable-background="new 0 0 1600 900" xml:space="preserve">
<g>
	<g>
		<path fill="#D6D9DC" d="M843.168,385.913c-12.158,0-18.107-9.568-18.107-17.588c0-5.174,0-119.25,0-132.441
			c0-13.193-11.123-18.109-15.004-18.109c-3.881,0-29.489,0-34.146,0c-8.018,0-12.675,5.951-27.161,17.332
			c-14.485,11.381-27.161,10.863-35.18,11.639c-8.018,0.777-14.485,9.314-14.485,16.041c0,4.914,0,16.039,0,24.83
			c0,8.797,6.983,12.678,9.57,12.678s12.675,0,17.331,0c4.657,0,8.278,5.949,8.278,9.055c0,3.102-0.259,50.182-0.259,58.719
			c0,13.451-11.123,17.588-15.262,17.588c-0.712,0-1.051,0-1.205,0c0.009,0-0.016,0-0.113,0c-0.406,0-2.149,0-8.512,0
			c-13.969,0-18.624,12.16-18.624,15.781c0,3.621,0,22.244,0,34.402c0,12.16,13.192,16.297,18.365,16.297
			c5.174,0,117.697,0,134.771,0c17.071,0,20.693-11.898,20.693-16.037c0-4.139,0-27.678,0-34.922
			C864.12,393.934,855.325,385.913,843.168,385.913z M776.557,319.696c-0.775,2.195-9.312,25.219-10.218,27.676
			c-0.903,2.457-4.01,5.174-7.242,5.174c-3.234,0-6.984-1.424-8.148-5.303c-1.164-3.879-5.949-20.951-6.208-22.635
			c-0.259-1.68-1.597-2.756-2.543-3.361c-0.783-0.498-1.808-1.897-1.808-3.707c0-1.811,2.325-3.664,6.937-3.664
			c2.846,0,6.339,1.293,7.761,6.465c1.422,5.174,5.045,20.693,5.045,20.693s6.983-20.953,7.89-23.539
			c0.904-2.586,3.621-3.879,5.82-3.234C776.04,314.909,777.333,317.495,776.557,319.696z M810.574,352.116
			c-4.657,0-6.984-2.414-6.984-4.744c0-2.328,0-10.43,0-10.43h-8.62c0,0,0,8.705,0,10.26c0,1.551-1.898,5.174-5.174,5.174
			c-3.277,0-5.951-1.986-5.951-5.262c0-3.277,0-23.711,0-24.66c0-0.949-3.102-1.725-3.102-4.139c0-2.244,3.102-4.312,7.501-4.312
			c4.396,0,7.069,2.844,7.069,5.607c0,2.758,0,9.053,0,9.053h8.536c0,0,0.088-6.984,0.088-9.053c0-2.07,1.981-5.693,5.431-5.693
			c3.449,0,5.434,2.846,5.434,5.693c0,2.844,0,23.363,0,24.227c0,0.863,0.604,1.553,1.033,1.725
			c0.431,0.174,2.156,1.467,2.156,2.674S815.23,352.116,810.574,352.116z"/>
	</g>
	<g>
		<path fill="#D6D9DC" d="M780.31,131.087c-118.167,0-213.959,95.791-213.959,213.957c0,118.168,95.792,213.959,213.959,213.959
			c118.166,0,213.958-95.791,213.958-213.959C994.268,226.878,898.477,131.087,780.31,131.087z M780.31,498.489
			c-84.747,0-153.445-68.699-153.445-153.445c0-84.744,68.698-153.443,153.445-153.443c84.745,0,153.443,68.699,153.443,153.443
			C933.754,429.79,865.056,498.489,780.31,498.489z"/>
	</g>
	<path fill="#D6D9DC" d="M393.157,655.288c-7.722,0.76-22.246-3.105-25.006-11.729c-2.76-8.623-5.173-10.178-10.174-10.178
		c-5.003,0-19.145,5.521-20.006,38.285c-0.86,32.768,10.012,40.369,27.594,39.838c5.691-0.172,18.623-3.967,24.142-7.76
		c5.52-3.793,22.246-9.141,29.49,2.586c7.242,11.727,2.242,21.902-5.691,28.799c-7.654,6.654-23.626,20.695-65.014,20.695
		c-23.281,0-83.812-6.727-83.812-80.018c0-67.258,64.236-88.768,97.607-86.398c26.73,1.897,50.183,6.551,57.6,21.902
		c5.316,11.004,4.655,26.039-1.553,33.973C412.128,653.216,405.402,654.081,393.157,655.288z"/>
	<path fill="#D6D9DC" d="M1270.588,655.288c-7.722,0.76-22.246-3.105-25.004-11.729c-2.762-8.623-5.174-10.178-10.176-10.178
		c-5.002,0-19.143,5.521-20.006,38.285c-0.86,32.768,10.015,40.369,27.594,39.838c5.691-0.172,18.623-3.967,24.146-7.76
		c5.517-3.793,22.243-9.141,29.487,2.586c7.241,11.727,2.242,21.902-5.692,28.799c-7.655,6.654-23.624,20.695-65.013,20.695
		c-23.28,0-83.812-6.727-83.812-80.018c0-67.258,64.234-88.768,97.607-86.398c26.73,1.897,50.183,6.551,57.6,21.902
		c5.316,11.004,4.657,26.039-1.551,33.973C1289.56,653.216,1282.834,654.081,1270.588,655.288z"/>
	<path fill="#D6D9DC" d="M478.692,529.741c11.382,0,35.18-1.81,35.18,34.402c0,36.215,0,127.785,0,132.701
		c0,4.914,1.035,8.275,5.174,10.348c4.138,2.07,15.003,5.174,15.003,18.106c0,10.348-10.697,17.018-20.953,20.435
		c-7.76,2.588-34.662,10.088-51.735,1.295c-17.072-8.795-17.59-19.4-17.59-39.578c0-20.176-0.258-133.994-0.258-143.566
		C443.513,554.313,443.77,529.741,478.692,529.741z"/>
	<path fill="#D6D9DC" d="M1084.513,591.046c11.383,0,35.182-1.81,35.182,34.404c0,36.215,0,66.479,0,71.395
		c0,4.914,1.033,8.275,5.172,10.348c4.139,2.07,15.003,5.174,15.003,18.106c0,10.348-10.698,17.018-20.952,20.435
		c-7.762,2.588-34.662,10.088-51.735,1.295c-17.072-8.795-17.59-19.4-17.59-39.578c0-20.176-0.26-72.689-0.26-82.26
		S1049.592,591.046,1084.513,591.046z"/>
	<path fill="#D6D9DC" d="M807.988,589.235c20.433-0.254,48.053,6.785,56.698,18.826c8.731,12.152,10.557,23.596,0.727,31.357
		c-9.829,7.76-20.436,3.361-29.488-1.293c-9.055-4.658-26.127-7.244-29.231-0.518c-3.104,6.725,6.21,12.156,16.813,15.779
		c10.606,3.621,57.943,20.951,49.666,56.908c-7.825,33.994-42.423,42.94-58.202,44.232c-15.779,1.293-55.096,2.07-72.431-15.52
		c-17.33-17.59-14.057-32.342-4.396-38.025c8.794-5.174,18.882-4.398,28.971,4.137c10.089,8.539,34.663,9.055,35.957,0.518
		c1.293-8.533-15.004-13.967-21.729-17.07c-6.324-2.918-49.407-19.143-45.786-51.219C739.18,605.272,766.34,589.753,807.988,589.235
		z"/>
	<path fill="#D6D9DC" d="M964.955,589.235c20.435-0.254,48.052,6.785,56.699,18.826c8.731,12.152,10.558,23.596,0.727,31.357
		c-9.83,7.76-20.435,3.361-29.488-1.293c-9.055-4.658-26.126-7.244-29.232-0.518c-3.103,6.725,6.208,12.156,16.815,15.779
		c10.604,3.621,57.942,20.951,49.665,56.908c-7.826,33.994-42.424,42.94-58.202,44.232c-15.779,1.293-55.099,2.07-72.429-15.52
		c-17.333-17.59-14.059-32.342-4.399-38.025c8.795-5.174,18.884-4.398,28.972,4.137c10.089,8.539,34.663,9.055,35.956,0.518
		c1.294-8.533-15.003-13.967-21.729-17.07c-6.325-2.918-49.407-19.143-45.785-51.219
		C896.147,605.272,923.31,589.753,964.955,589.235z"/>
	<path fill="#D6D9DC" d="M1084.517,526.635c20.344-1.088,39.492,3.451,39.316,22.938c-0.175,19.486-15.004,26.9-39.665,26.727
		c-24.661-0.17-38.629-10.002-37.077-24.314C1048.644,537.673,1065.2,527.671,1084.517,526.635z"/>
	<g>
		<path fill="#D6D9DC" d="M708.396,705.294c-5.864-2.242-7.759-5-7.759-21.383s0-29.316,0-36.215c0-6.896-2.588-33.975-21.383-45.01
			c-18.798-11.035-41.389-14.141-66.395-11.898c-25.007,2.238-48.977,14.312-53.288,21.041c-4.312,6.723-4.655,16.898-4.655,21.209
			c0,4.311,1.204,21.9,23.106,21.9c21.904,0,27.421-5.688,31.042-14.658c3.621-8.969,8.276-10.002,12.245-10.002
			c4.483,0,12.934,0.865,12.934,20.35c0,0-41.391,11.039-53.634,13.969c-12.243,2.932-43.815,12.533-35.006,51.215
			c3.965,17.418,14.484,32.078,32.247,34.322c17.762,2.238,36.559,6.549,61.563-22.422c0,0,3.624,22.422,24.317,23.285
			c20.694,0.859,39.146-5.35,47.598-13.279c8.448-7.935,9.309-12.939,9.309-20.008C720.639,710.643,714.261,707.536,708.396,705.294
			z M630.923,701.372c-3.878,3.363-9.054,5.043-13.321,5.043c-4.268,0-10.864-1.68-10.864-9.311c0-7.633,3.929-9.578,5.949-10.477
			c2.811-1.25,7.317-3.016,8.88-3.639c3.233-1.293,9.357-3.606,11.427-1.537c1.571,1.576,1.81,1.684,1.81,5.434
			S634.804,698.007,630.923,701.372z"/>
	</g>
	<path fill="#D6D9DC" d="M1292.94,559.747c0,0,3.493,0,5.714,0c1.293,0,1.982,1.205,1.982,1.811c0,1.098-0.775,1.809-1.94,1.809
		c-1.163,0-3.103,0-3.103,0s0,10.154,0,10.994c0,1.359-0.323,2.652-2.586,2.652h-0.13c-2.264,0-2.588-1.293-2.588-2.652
		c0-0.84,0-10.994,0-10.994s-1.939,0-3.103,0c-1.165,0-1.941-0.711-1.941-1.809c0-0.605,0.691-1.811,1.982-1.811
		C1289.449,559.747,1292.94,559.747,1292.94,559.747z"/>
	<path fill="#D6D9DC" d="M1302.512,561.686c0-0.42,1.488-1.973,3.461-1.973c1.972,0,2.488,0.873,3.104,1.939
		c0.614,1.068,2.523,4.365,2.716,4.656c0.196,0.291,0.469,0.566,0.744,0.566c0.226,0,0.484-0.211,0.84-1.082
		c0.356-0.875,2.394-4.69,2.555-5.045c0.162-0.357,1.358-1.1,2.135-1.1c0.775,0,2.23,0.84,2.23,1.94c0,1.1,0,11.383,0,11.674
		s0.259,0.615,0.518,0.678c0.259,0.064,1.068,0.518,1.068,1.1c0,0.582-0.68,1.715-2.91,1.715c-2.231,0-3.265-1.488-3.265-2.619
		c0-1.133,0-6.758,0-6.758s-2.847,4.623-3.009,4.883c-0.161,0.258-0.582,0.58-0.969,0.58c-0.389,0-1.067-0.42-1.359-0.84
		c-0.291-0.42-2.651-4.527-2.651-4.527s-0.291,7.275-0.291,7.857c0,0.584-0.614,1.486-1.907,1.486c-1.293,0-1.778-0.678-1.778-1.455
		c0-0.775,0.032-11.445,0.032-11.832C1303.773,563.139,1302.512,563.044,1302.512,561.686z"/>
</g>
</svg>
