<?xml version="1.0" encoding="utf-8"?>
<!-- Generator: Adobe Illustrator 23.0.6, SVG Export Plug-In . SVG Version: 6.00 Build 0)  -->
<svg version="1.1" id="Layer_1" xmlns="http://www.w3.org/2000/svg" xmlns:xlink="http://www.w3.org/1999/xlink" x="0px" y="0px"
	 viewBox="0 0 1600 900" enable-background="new 0 0 1600 900" xml:space="preserve">
<g>
	<g>
		<g>
			<g>
				<polygon fill="#F9F9F9" points="66.51,315.028 10.402,315.028 109.559,487.799 208.715,315.028 152.608,315.028 
					109.559,396.246 				"/>
				<rect x="221.758" y="315.028" fill="#F9F9F9" width="47.965" height="171.041"/>
				<path fill="#F9F9F9" d="M572.592,309.742c-23.814,0-45.797,9.628-61.901,27.11c-15.251,16.555-23.998,39.083-23.998,61.809
					c0,22.498,8.725,44.882,23.938,61.414c16.323,17.737,38.863,27.505,63.471,27.505c56.053,0,75.04-42.719,79.072-54.005h-49.415
					c-5.363,8.645-16.138,13.591-29.657,13.591c-15.718,0-34.243-9.089-39.096-34.599l-0.381-2.006h123.057
					c0.56-5.264,0.81-9.359,0.81-13.196C658.49,349.05,619.957,309.742,572.592,309.742z M535.279,382.229l0.414-2.029
					c2.972-14.557,14.419-31.555,36.899-31.555c22.182,0,33.701,16.99,36.826,31.538l0.439,2.045H535.279z"/>
				<path fill="#F9F9F9" d="M763.807,309.742c-49.03,0-88.919,39.889-88.919,88.919s39.889,88.919,88.919,88.919
					c49.031,0,88.92-39.889,88.92-88.919S812.837,309.742,763.807,309.742z M763.807,442.635c-23.347,0-40.954-18.905-40.954-43.974
					c0-25.07,17.606-43.974,40.954-43.974c23.348,0,40.955,18.905,40.955,43.974C804.761,423.731,787.155,442.635,763.807,442.635z"
					/>
				<path fill="#F9F9F9" d="M1562.676,433.86h-2.75c-14.737,0-26.726,11.99-26.726,26.726c0,14.737,11.989,26.726,26.726,26.726
					h2.75c14.737,0,26.726-11.99,26.726-26.726C1589.402,445.85,1577.413,433.86,1562.676,433.86z"/>
			</g>
		</g>
		<path fill="#F9F9F9" d="M1420.353,309.742c-48.085,0-84.345,38.227-84.345,88.919c0,32.993,14.435,53.756,26.545,65.366
			c15.617,14.968,36.855,23.553,58.271,23.553c23.345,0,38.158-8.347,46.119-13.791l4.421,12.281h42.418v-222.49h-47.9v66.083l0,0
			C1455.445,317.447,1438.301,309.742,1420.353,309.742z M1424.944,442.635c-10.866,0-20.906-4.031-28.266-11.351
			c-8.29-8.244-12.671-20.127-12.671-34.363c0-20.739,15.312-42.191,40.937-42.191c12.316,0,22.824,4.738,30.388,13.702
			c6.802,8.064,10.55,18.799,10.55,30.228C1465.881,423.731,1448.281,442.635,1424.944,442.635z"/>
		<path fill="#F9F9F9" d="M1022.262,309.742c-48.085,0-84.345,38.227-84.345,88.919c0,32.993,14.435,53.756,26.545,65.366
			c15.617,14.968,36.855,23.553,58.271,23.553c23.345,0,38.158-8.347,46.119-13.791l4.421,12.281h42.418V314.987h-46.209
			l-1.69,14.674l0,0C1057.354,317.447,1040.21,309.742,1022.262,309.742z M1026.853,442.635c-10.866,0-20.906-4.031-28.266-11.351
			c-8.29-8.244-12.671-20.127-12.671-34.363c0-20.739,15.312-42.191,40.937-42.191c12.316,0,22.824,4.738,30.388,13.702
			c6.802,8.064,10.55,18.799,10.55,30.228C1067.79,423.731,1050.19,442.635,1026.853,442.635z"/>
		<path fill="#F9F9F9" d="M375.186,309.742c-48.085,0-84.345,38.227-84.345,88.919c0,32.993,14.435,53.756,26.545,65.366
			c15.617,14.968,36.855,23.553,58.271,23.553c23.345,0,38.158-8.347,46.119-13.791l4.421,12.281h42.418v-222.49h-47.9v66.083l0,0
			C410.277,317.447,393.134,309.742,375.186,309.742z M379.777,442.635c-10.867,0-20.906-4.031-28.266-11.351
			c-8.29-8.244-12.671-20.127-12.671-34.363c0-20.739,15.312-42.191,40.937-42.191c12.316,0,22.824,4.738,30.388,13.702
			c6.802,8.064,10.55,18.799,10.55,30.228C420.714,423.731,403.114,442.635,379.777,442.635z"/>
		<rect x="871.339" y="263.579" fill="#F9F9F9" width="47.966" height="222.49"/>
		<path fill="#F9F9F9" d="M1187.149,404.634c0-31.484,14.867-49.904,40.937-49.904c25.625,0,40.213,14.332,40.213,42.24
			l0.099,89.099h48.689v-96.235c0-54.9-26.268-80.092-75.958-80.092c-20.106,0-43.543,9.395-53.979,21.61l-1.69-16.365h-46.209
			v171.082h47.9V404.634z"/>
	</g>
	<g>
		<g>
			<g>
				<path fill="#FF3746" d="M675.247,561.343v73.355h249.31v-73.355H675.247z"/>
			</g>
		</g>
		<g>
			<path fill="#F9F9F9" d="M706.326,580.107l17.587,0c4.363,0,7.665,1.123,9.901,3.365c1.732,1.732,2.6,3.885,2.6,6.448v0.109
				c0,1.087-0.135,2.044-0.406,2.876c-0.27,0.832-0.629,1.581-1.076,2.246c-0.452,0.671-0.972,1.258-1.565,1.763
				c-0.593,0.51-1.227,0.941-1.908,1.3c2.194,0.832,3.921,1.96,5.179,3.391s1.888,3.406,1.888,5.939v0.104
				c0,1.737-0.333,3.255-0.998,4.555c-0.671,1.3-1.628,2.387-2.87,3.255c-1.243,0.863-2.741,1.513-4.493,1.95
				c-1.747,0.432-3.687,0.65-5.819,0.65l-18.019,0L706.326,580.107z M722.155,595.453c1.841,0,3.307-0.317,4.389-0.952
				c1.087-0.629,1.628-1.654,1.628-3.063v-0.109c0-1.264-0.468-2.231-1.409-2.896c-0.941-0.671-2.293-1.004-4.066-1.004h-8.242
				l0,8.024H722.155z M724.375,610.741c1.846,0,3.292-0.338,4.337-1.004c1.05-0.671,1.576-1.711,1.576-3.12v-0.109
				c0-1.264-0.489-2.267-1.466-3.006c-0.972-0.744-2.548-1.113-4.717-1.113h-9.651l0,8.351H724.375z"/>
			<path fill="#F9F9F9" d="M756.143,603.097l-14.581-22.99h9.761l9.053,15.236l9.215-15.236h9.485l-14.581,22.823l0,15.127h-8.351
				L756.143,603.097z"/>
			<path fill="#F9F9F9" d="M800.547,580.107h17.348c4.805,0,8.492,1.284,11.061,3.853c2.168,2.168,3.25,5.06,3.25,8.674v0.104
				c0,3.073-0.749,5.58-2.252,7.509c-1.498,1.934-3.458,3.354-5.881,4.259l9.272,13.552h-9.761l-8.128-12.142h-0.109h-6.453
				l0,12.142h-8.346L800.547,580.107z M817.354,598.541c2.059,0,3.64-0.489,4.743-1.466c1.102-0.972,1.654-2.272,1.654-3.9v-0.109
				c0-1.805-0.582-3.162-1.737-4.067c-1.154-0.905-2.766-1.357-4.826-1.357h-8.294l0,10.899H817.354z"/>
			<path fill="#F9F9F9" d="M848.576,587.808h-11.55l0-7.701h31.445l0,7.701h-11.544l0,30.249h-8.351L848.576,587.808z"/>
			<path fill="#F9F9F9" d="M874.868,580.107h8.346l0,30.416h17.808l0,7.535h-26.154L874.868,580.107z"/>
		</g>
	</g>
</g>
</svg>
