<?xml version="1.0" encoding="utf-8"?>
<!-- Generator: Adobe Illustrator 22.1.0, SVG Export Plug-In . SVG Version: 6.00 Build 0)  -->
<svg version="1.2" baseProfile="tiny" xmlns="http://www.w3.org/2000/svg" xmlns:xlink="http://www.w3.org/1999/xlink" x="0px"
	 y="0px" viewBox="0 0 1600 900" xml:space="preserve">
<g id="Layer_1">
	<g>
		<path fill="#FFFFFF" d="M691.2,227.3l101.2,0l0,448.4l-101.2,0L691.2,227.3z"/>
		<path fill="#FFFFFF" d="M860.9,308l-51.9,0l0-80.7l205,0l0,80.7l-51.9,0l0,367.7l-101.2,0L860.9,308z"/>
		<path fill="#FFFFFF" d="M1030.7,227.3l171.3,0l0,80.7l-70.1,0l0,98.7l51,0l0,80.7l-51,0l0,107.6l70.1,0l0,80.7l-171.3,0
			L1030.7,227.3z"/>
		<polygon fill="#FFFFFF" points="668,675.7 601.4,446.7 668,227.3 559.7,227.3 534.1,386 508.4,227.3 400.2,227.3 466.8,446.7 
			400.2,675.7 508.5,675.7 534.1,517 559.7,675.7 		"/>
	</g>
</g>
<g id="Laag_2" display="none">
</g>
</svg>
