<?xml version="1.0" encoding="utf-8"?>
<!-- Generator: Adobe Illustrator 22.1.0, SVG Export Plug-In . SVG Version: 6.00 Build 0)  -->
<svg version="1.2" baseProfile="tiny" xmlns="http://www.w3.org/2000/svg" xmlns:xlink="http://www.w3.org/1999/xlink" x="0px"
	 y="0px" viewBox="0 0 1600 900" xml:space="preserve">
<g id="Layer_1">
	<g>
		<path fill-rule="evenodd" fill="#ED7203" d="M1262.1,354.9h111.6v-52.8h-134.4c-72.2,0-101.9,40.4-101.9,104v6
			c-12-74.5-56.5-110-137.7-110h-136c-54.8-110-168.1-185.2-299.1-185.2c-184.5,0-334.2,149.4-334.2,334.2
			c0,184.5,149.7,333.9,334.2,333.9c130,0,243-74.2,298.1-182.8h138.7c33.1,0,63.2-2,93.6-26.4c22.1-17.4,35.8-42.1,42.1-74.2v100.3
			h63.8v-118h150.4v-52.5h-150.4l0.7-21.4C1201.6,375.6,1211.9,354.9,1262.1,354.9L1262.1,354.9z M998.4,549.4h-70.2V354.9h70.2
			c55.5,0,75.2,23.7,75.2,97.3C1073.6,525.7,1053.9,549.4,998.4,549.4L998.4,549.4z"/>
		<path fill-rule="evenodd" fill="#FFFFFF" d="M712.3,426.4H754c32.8,0,52.1-6.7,52.1-34.8c0-28.7-19.4-36.8-53.1-36.8H612.3v-52.8
			h163.8c82.9,0,94.9,58.2,94.9,90.6c0,34.4-14.4,89.2-94.9,89.2h-40.4c-50.1,0-60.8,18-60.8,52.5v16h187.8v51.5H610.3v-74.5
			C610.3,464.2,640.1,426.4,712.3,426.4L712.3,426.4z"/>
	</g>
</g>
<g id="Laag_2" display="none">
</g>
</svg>
