<?xml version="1.0" encoding="utf-8"?>
<!-- Generator: Adobe Illustrator 22.1.0, SVG Export Plug-In . SVG Version: 6.00 Build 0)  -->
<svg version="1.1" xmlns="http://www.w3.org/2000/svg" xmlns:xlink="http://www.w3.org/1999/xlink" x="0px" y="0px"
	 viewBox="0 0 1600 900" enable-background="new 0 0 1600 900" xml:space="preserve">
<g id="Layer_1">
	<g>
		<path fill="#F1B61C" d="M1059.206,484.843c-1.781-1.786-3.944-1.759-5.685-1.742c-0.282,0.003-0.582,0.004-0.955,0.007
			c-10.492-0.009-20.984-0.011-31.477-0.014c-12.661-0.003-25.321-0.006-37.982-0.02c-31.605-0.033-63.21-0.085-94.814-0.139
			c-0.916-0.002-1.824-0.007-2.741-0.016c20.865-32.305,41.531-63.855,59.075-90.579c4.885-7.441,9.796-15.033,14.546-22.375
			c8.534-13.191,17.358-26.832,26.314-40.033c2.456-3.619,4.511-7.008,6.283-10.357l1.241-2.344
			c2.356-4.443,4.792-9.038,7.086-13.645c10.303-20.689,17.632-40.315,22.406-59.998c3.005-12.389,4.886-23.93,5.751-35.28
			c0.651-8.538,0.754-16.148,0.315-23.265c-0.58-9.405-1.754-17.703-3.59-25.367c-2.795-11.672-6.944-21.703-12.683-30.667
			c-8.456-13.206-19.707-23.153-33.445-29.566c-2.263-1.056-4.549-1.55-6.93-1.532c-4.275,0.044-8.637,0.037-12.857,0.031
			c-2.501-0.004-5.002-0.007-7.502-0.001c-17.493,0.044-35.284,0.024-52.487,0.007c-29.869-0.031-60.758-0.064-91.15,0.231
			c-20.174,0.197-40.692,0.3-60.536,0.398c-8.48,0.042-16.96,0.084-25.44,0.134l-118.245,0.68l-0.591,0.001
			c-0.487-0.005-0.979-0.001-1.467,0.015c-5.149,0.163-6.36,3.548-6.47,6.362c-0.018,0.457-0.018,0.916-0.016,1.375l0,0.448
			l-0.117,28.131c-0.165,39.41-0.329,78.82-0.48,118.229c-0.002,0.514-0.013,0.955-0.023,1.335c-0.044,1.774-0.1,3.983,1.709,5.811
			c0.027,0.027,0.055,0.045,0.083,0.071L607.5,283.5h117.937l-31.081,47.726c-28.312,43.473-56.624,86.944-84.922,130.425
			c-13.341,20.5-26.68,41.129-40.309,62.221c-5.554,8.593-9.984,16.355-13.546,23.732c-5.476,11.339-9.112,21.936-11.116,32.395
			c-1.767,9.222-2.868,19.028-3.366,29.981c-0.321,7.048-0.636,15.377-0.53,23.71c0.005,0.402,0.004,0.758,0.003,1.071
			c-0.004,1.753-0.01,3.936,1.79,5.724c1.628,1.616,3.572,1.765,5.361,1.765c0.204,0,0.407-0.002,0.607-0.004l0.988-0.006
			c139.654,0.004,279.309,0.003,418.964,0.003h83.793l0.551,0.002c0.499,0.002,0.999,0.005,1.504-0.008
			c4.449-0.112,6.663-2.317,6.768-6.743c0.01-0.432,0.008-0.863,0.006-1.295l-0.002-0.473l0.005-28.445
			c0.007-37.928,0.014-75.855,0.013-113.783c0-0.383,0.005-0.72,0.009-1.016C1060.953,488.764,1060.984,486.627,1059.206,484.843z
			 M821.745,369.19c-9.097,6.522-18.208,13.025-27.319,19.527c-11.26,8.037-22.903,16.347-34.33,24.562
			c-26.147,18.796-47.299,34.645-66.565,49.874c-16.325,12.905-30.335,24.712-42.833,36.097
			c-12.217,11.127-23.399,22.748-33.313,34.613c1.188-1.691,2.341-3.409,3.598-5.059c16.466-21.61,33.486-42.745,52.637-62.079
			c12.532-12.652,24.993-25.365,38.556-36.957c11.269-9.63,22.125-19.731,33.77-28.937c12.147-9.603,24.206-19.315,36.524-28.699
			c9.977-7.601,19.895-15.277,29.876-22.87c4.448-3.385,9.007-6.622,13.483-9.97c9.753-7.296,19.334-14.815,28.951-22.289
			c19.73-15.332,39.288-30.871,57.797-47.674c10.048-9.122,19.726-18.602,28.863-28.594c0.336-0.316,0.682-0.625,1.017-0.943
			c12.293-11.674,23.252-24.58,32.573-38.359c3.346-4.947,6.256-9.777,8.771-14.559c-0.375,4.605-0.975,9.196-1.093,13.816
			c-0.369,14.389-14.637,37.331-29.315,57.237c-8.527,10.307-18.091,20.167-28.491,29.332
			c-16.899,14.893-33.889,29.133-50.496,42.326C858.393,342.309,841.166,355.264,821.745,369.19z"/>
		<path fill="#2CB34A" d="M747.608,257.914c-1.231,0-2.225,0-3.219,0c-46.95-0.015-93.899-0.026-140.849-0.053
			c-4.636-0.003-3.99,0.558-3.973-3.888c0.187-48.787,0.395-97.573,0.597-146.359c0.002-0.551-0.01-1.103,0.012-1.654
			c0.053-1.381,0.187-1.509,1.632-1.556c0.643-0.021,1.286-0.008,1.929-0.012c39.415-0.226,78.829-0.451,118.244-0.68
			c28.665-0.167,57.331-0.252,85.995-0.532c47.867-0.468,95.734-0.117,143.601-0.238c6.799-0.017,13.598,0.038,20.397-0.031
			c1.711-0.017,3.242,0.352,4.766,1.064c13.185,6.155,23.527,15.518,31.347,27.732c5.756,8.99,9.555,18.794,12.032,29.136
			c1.93,8.058,2.951,16.236,3.462,24.509c0.466,7.546,0.262,15.069-0.31,22.578c-0.887,11.645-2.871,23.13-5.625,34.481
			c-4.98,20.532-12.623,40.072-22.023,58.948c-2.66,5.341-5.48,10.603-8.271,15.878c-1.805,3.412-3.835,6.696-6.001,9.889
			c-13.976,20.601-27.243,41.665-40.903,62.472c-20.364,31.019-40.678,62.071-60.799,93.249c-0.796,1.234-1.587,2.472-2.33,3.738
			c-0.433,0.738-0.138,1.208,0.769,1.224c3.398,0.062,6.797,0.122,10.196,0.127c31.606,0.054,63.212,0.106,94.818,0.139
			c23.153,0.024,46.306,0.015,69.46,0.033c3.81,0.003,3.355-0.412,3.356,3.389c0.001,47.409-0.01,94.818-0.017,142.227
			c0,0.551,0.01,1.103-0.003,1.654c-0.041,1.735-0.121,1.815-1.896,1.86c-0.643,0.016-1.286,0.004-1.929,0.004
			c-167.586,0-335.171,0.001-502.757-0.003c-4.205,0-3.699,0.398-3.75-3.613c-0.099-7.813,0.17-15.62,0.525-23.419
			c0.447-9.821,1.43-19.597,3.282-29.267c2.088-10.895,5.898-21.201,10.708-31.162c3.88-8.036,8.406-15.707,13.243-23.193
			c13.41-20.751,26.824-41.499,40.3-62.207c41.482-63.74,82.995-127.46,124.494-191.188c2.757-4.233,5.502-8.474,8.235-12.722
			C746.793,259.785,747.382,259.173,747.608,257.914z M991.457,140.841c-0.155,1.619-0.336,3.236-0.462,4.857
			c-0.664,8.565-2.453,16.887-5.41,24.952c-3.659,9.977-8.767,19.214-14.697,27.982c-9.246,13.669-19.906,26.17-31.874,37.535
			c-7.998,7.595-16.44,14.692-24.781,21.903c-14.603,12.626-29.62,24.73-45.281,36.021c-16.99,12.249-33.969,24.512-51.018,36.678
			c-25.352,18.091-50.62,36.291-75.175,55.461c-14.558,11.365-28.97,22.908-42.95,34.983
			c-16.352,14.124-32.024,28.964-47.117,44.423c-7.768,7.956-15.47,15.969-22.663,24.459
			c-10.602,12.511-19.681,26.099-28.354,39.975c-1.362,2.179-2.646,4.412-3.872,6.67c-5.813,10.706-9.963,22.076-13.245,33.769
			c-2.544,9.064-3.725,18.342-3.867,27.752c-0.009,0.579-0.077,1.176,0.285,2.193c0.39-1.112,0.614-1.781,0.86-2.443
			c0.993-2.666,1.925-5.358,3.003-7.989c3.782-9.237,8.995-17.657,14.833-25.712c5.556-7.667,11.612-14.94,17.527-22.326
			c11.228-14.019,23.594-26.95,36.865-39.038c13.729-12.505,28.004-24.357,42.568-35.87c21.698-17.152,43.929-33.596,66.383-49.737
			c20.512-14.746,41.114-29.365,61.644-44.085c17.92-12.849,35.591-26.033,52.859-39.751c17.269-13.72,34.145-27.909,50.691-42.491
			c11.19-9.862,21.53-20.549,30.906-32.158c9.207-11.399,17.322-23.512,23.767-36.697c6.333-12.957,10.85-26.473,12.598-40.858
			c1.355-11.146,0.883-22.177-1.645-33.12C993.259,145.693,992.691,143.207,991.457,140.841z"/>
		<g>
			<path fill="#1D1D1B" d="M548.976,763.883c-4.417-7.463-5.895-15.439-4.601-24.044c2.54-16.878,18.218-27.334,34.76-23.099
				c6.463,1.655,11.738,5.295,16.683,9.559c1.776,1.53,1.818,1.539,3.333-0.195c4.54-5.2,9.059-10.417,13.573-15.639
				c0.378-0.438,0.949-0.813,0.799-1.596c-1.605-1.842-3.492-3.435-5.409-4.998c-0.597,0.561-1.243,1.08-1.78,1.695
				c-4.273,4.898-8.522,9.817-12.785,14.725c-1.501,1.729-1.519,1.732-3.316,0.188c-3.218-2.765-6.547-5.393-10.42-7.176
				c-10.076-4.639-20.005-4.751-29.4,1.663c-7.053,4.815-10.76,11.851-11.922,20.176c-1.395,9.987,0.822,19.067,7.553,26.801
				C546.81,762.824,547.446,764.081,548.976,763.883z"/>
			<path fill="#1D1D1B" d="M969.409,794.162c0-32.458,0-64.916,0-97.374c0-0.412-0.035-0.828,0.005-1.236
				c0.128-1.282-0.331-1.925-1.72-1.832c-1.231,0.083-2.472,0.026-3.709,0.031c-0.549,1.29-0.307,2.649-0.307,3.977
				c-0.015,30.533-0.01,61.065-0.014,91.599c0,3.02-0.018,3.03-3.028,3.039c-4.023,0.011-8.046-0.016-12.069,0.012
				c-1.542,0.01-3.096-0.173-4.624,0.189c-0.01,1.134,0.054,2.273-0.048,3.398c-0.144,1.588,0.438,2.155,2.075,2.139
				c7.109-0.072,14.22-0.066,21.33-0.004c1.569,0.014,2.321-0.432,2.12-2.084C969.346,795.406,969.409,794.78,969.409,794.162z"/>
			<path fill="#1D1D1B" d="M648.832,694.153c-1.103-1.142-3.13-0.256-4.741-0.412c-1.128,1.12-0.611,2.541-0.612,3.818
				c-0.03,30.204-0.014,60.408-0.033,90.612c-0.003,4.818,0.627,4.107-4.334,4.2c-5.148,0.096-10.302-0.248-15.446,0.195
				c-0.011,1.134,0.052,2.275-0.05,3.401c-0.146,1.604,0.476,2.148,2.096,2.133c7.116-0.067,14.233-0.015,21.349-0.038
				c2.103-0.007,2.107-0.055,2.157-2.293c0.016-0.721,0.003-1.443,0.003-2.165c0-31.561,0.007-63.121-0.02-94.681
				C649.199,697.303,649.924,695.284,648.832,694.153z"/>
			<path fill="#1D1D1B" d="M758.343,694.214c-1.192-1.217-3.318-0.318-5.028-0.467c-0.563,1.287-0.315,2.648-0.316,3.975
				c-0.015,30.235-0.011,60.471-0.012,90.705c0,0.826-0.03,1.652-0.005,2.477c0.032,1.062-0.504,1.479-1.511,1.458
				c-0.825-0.018-1.651-0.008-2.476,0.007c-5.259,0.093-10.521-0.199-15.777,0.154c0.89,1.256,1.845,2.472,2.651,3.779
				c0.85,1.38,1.943,1.847,3.582,1.812c5.257-0.11,10.519-0.031,15.778-0.044c3.871-0.009,3.479,0.349,3.479-3.474
				c0.007-31.867,0.01-63.734-0.014-95.602C758.693,697.369,759.421,695.313,758.343,694.214z"/>
			<path fill="#1D1D1B" d="M1042.887,769.553c-11.744,0.11-23.49,0.049-35.235,0.057c-2.691,0.001-2.697,0.018-3.747,2.587
				c-2.336,5.717-4.627,11.453-7.015,17.148c-1.437,3.427-0.884,2.954-4.417,3.026c-5.041,0.104-10.089-0.259-15.125,0.213
				c-0.487,1.755-1.701,3.265-1.865,5.104c0.293,0.159,0.461,0.332,0.631,0.332c7.943,0.026,15.887,0.001,23.83,0.082
				c1.553,0.016,1.847-0.997,2.27-2.032c2.418-5.908,4.838-11.816,7.24-17.732c1.356-3.341,0.861-2.936,4.433-2.949
				c11.348-0.044,22.696-0.062,34.044-0.089c-0.393-1.061-0.858-2.102-1.162-3.188
				C1046.204,770.09,1044.977,769.534,1042.887,769.553z"/>
			<path fill="#1D1D1B" d="M852.803,774.975c-1.34,0.05-2.684,0.015-4.027,0.017c-0.453,0.979-0.311,2.023-0.314,3.045
				c-0.014,4.12-0.048,8.24,0.014,12.359c0.022,1.444-0.462,2.111-1.95,1.979c-0.715-0.063-1.441-0.009-2.162-0.009
				c-22.247,0-44.494-0.002-66.74,0.008c-1.231,0.001-2.462,0.108-3.692,0.166c-0.009,1.136,0.044,2.276-0.042,3.406
				c-0.118,1.526,0.315,2.403,2.042,2.135c0.403-0.062,0.824-0.009,1.237-0.009c24.574,0,49.148,0,73.722,0
				c0.62,0,1.241-0.035,1.858-0.001c1.056,0.059,1.47-0.414,1.467-1.464c-0.02-6.711-0.02-13.422,0.003-20.134
				C854.222,775.458,853.9,774.935,852.803,774.975z"/>
			<path fill="#1D1D1B" d="M1085.895,794.697c-14.065-33.033-28.133-66.066-42.202-99.098c-1.096-2.574-1.101-2.572-4.071-2.535
				c-0.439,1.02,0.276,1.785,0.623,2.603c8.833,20.792,17.684,41.578,26.539,62.361c4.408,10.344,8.848,20.675,13.222,31.033
				c0.405,0.958,1.273,1.927,0.564,3.306c-1.215,0-2.448-0.008-3.681,0.002c-6.191,0.048-12.382,0.101-18.574,0.151
				c0.378,1.062,0.856,2.102,1.114,3.192c0.467,1.98,1.677,2.43,3.596,2.402c7.213-0.104,14.428-0.036,21.642-0.051
				c0.763-0.001,1.591,0.169,2.422-0.42C1086.657,796.576,1086.292,795.629,1085.895,794.697z"/>
			<path fill="#1D1D1B" d="M798.973,728.49c0.099-0.012,0.192-0.073,0.288-0.111c0-3.293,0.023-6.587-0.009-9.88
				c-0.011-1.134,0.357-1.748,1.589-1.661c0.716,0.051,1.44,0.004,2.161,0.004c15.541,0,31.082,0,46.623,0
				c0.72,0,1.444-0.048,2.161,0.008c1.373,0.106,1.765-0.564,1.757-1.842c-0.035-6.483-0.038-12.968,0.004-19.451
				c0.008-1.276-0.339-1.928-1.729-1.836c-1.23,0.08-2.469,0.026-3.704,0.031c-0.104,0.604-0.293,1.208-0.297,1.812
				c-0.027,4.439,0.013,8.879-0.032,13.317c-0.022,2.181-0.082,2.239-2.308,2.257c-4.955,0.039-9.911,0.013-14.866,0.013
				c-11.562,0.001-23.125-0.011-34.688,0.01c-2.395,0.004-2.433,0.057-2.457,2.387c-0.036,3.406-0.01,6.813-0.01,10.221
				C793.456,729.139,793.456,729.139,798.973,728.49z"/>
			<path fill="#1D1D1B" d="M613.389,778.764c-1.517-1.393-2.963-2.863-4.44-4.302c-0.789,0.812-1.588,1.614-2.362,2.44
				c-11.231,11.983-25.189,17.468-41.471,17.241c-10.611-0.147-20.555-2.759-29.558-8.56c-0.834-0.537-1.535-1.451-2.728-1.212
				c4.537,5.129,10.231,8.595,16.463,11.197c9.341,3.9,19.058,4.81,29.118,3.885c14.249-1.311,25.591-7.909,35.14-18.169
				C614.522,780.244,614.304,779.603,613.389,778.764z"/>
			<path fill="#1D1D1B" d="M803.556,757.138c13.585-0.037,27.171-0.008,40.756-0.018c2.563-0.002,2.602-0.03,2.611-2.47
				c0.022-6.278-0.015-12.557,0.023-18.834c0.007-1.259-0.291-1.947-1.72-1.831c-1.227,0.099-2.468,0.027-3.706,0.031
				c-0.587,1.062-0.353,2.222-0.36,3.342c-0.027,4.024-0.048,8.05,0.006,12.073c0.019,1.41-0.387,2.101-1.93,2.019
				c-1.852-0.099-3.714-0.021-5.571-0.021c-12.487,0-24.974-0.008-37.46,0.006c-2.706,0.003-2.727,0.037-2.744,2.728
				c-0.022,3.509-0.005,7.018-0.005,10.526c0,5.336,0,5.336,5.5,4.757c0.1-0.011,0.194-0.066,0.292-0.102
				c0.003-2.676-0.015-5.352,0.015-8.027C799.317,756.378,798.681,757.152,803.556,757.138z"/>
			<path fill="#1D1D1B" d="M884.351,731.503c0,1.232,0,2.359,0,3.485c0,17.808,0,35.614,0,53.422c0,0.824-0.032,1.648-0.005,2.471
				c0.034,1.044-0.457,1.502-1.482,1.479c-0.823-0.02-1.646-0.008-2.47,0.008c-5.141,0.098-10.286-0.215-15.423,0.179
				c-0.02,1.03-0.069,2.062-0.052,3.093c0.038,2.381,0.051,2.417,2.359,2.426c5.982,0.021,11.965,0.007,17.948,0.007
				c4.856,0,4.852,0,4.857-4.887c0.021-17.844,0.044-35.688,0.067-53.531C888.659,736.379,886.146,732.8,884.351,731.503z"/>
			<path fill="#1D1D1B" d="M684.95,732.149c0,1.194,0,2.32,0,3.446c0,17.613,0,35.227,0,52.84c0,0.824-0.032,1.649-0.006,2.472
				c0.032,1.059-0.486,1.483-1.504,1.455c-0.823-0.024-1.647-0.009-2.472,0.007c-5.144,0.099-10.293-0.215-15.435,0.173
				c-0.008,0.721-0.027,1.44-0.022,2.161c0.025,3.809-0.314,3.354,3.227,3.365c6.071,0.02,12.143,0.028,18.213-0.003
				c4.256-0.021,3.751,0.567,3.759-3.768c0.034-18.418,0.043-36.837,0.062-55.254C688.824,735.596,686.764,733.125,684.95,732.149z"
				/>
			<path fill="#1D1D1B" d="M936.446,733.068c-3.301,4.982-6.584,9.977-9.893,14.954c-4.79,7.206-9.596,14.401-14.395,21.602
				c0.536,1.472,1.554,2.652,2.405,3.927c1.579,2.364,3.051,2.367,4.631-0.007c3.532-5.306,7.006-10.649,10.536-15.957
				c2.84-4.269,5.727-8.507,8.592-12.758c0.323-4.589,0.124-9.172-0.119-13.843C937.452,731.624,936.932,732.334,936.446,733.068z"
				/>
			<path fill="#1D1D1B" d="M714.809,728.255c-8.232-10.782-16.436-21.584-24.689-32.35c-0.688-0.896-1.036-2.393-2.703-2.094
				c-0.014,1.281,0.998,2.005,1.659,2.876c10.604,13.979,21.24,27.936,31.877,41.89c2.162,2.836,4.361,5.646,6.582,8.518
				c0.862-0.954,0.17-1.565,0.034-2.22C723.315,739.336,719.047,733.807,714.809,728.255z"/>
			<path fill="#1D1D1B" d="M911.268,725.47c-6.187-9.938-12.384-19.871-18.542-29.827c-0.742-1.199-1.41-2.299-3.08-1.851
				c-0.262,1.072,0.57,1.715,1.035,2.464c6.017,9.712,12.065,19.404,18.105,29.102c0.85,1.364,1.703,2.727,2.554,4.089
				c1.029-0.47,1.122-1.193,1.249-1.897C912.148,726.856,911.702,726.167,911.268,725.47z"/>
			<path fill="#1D1D1B" d="M1022.289,746.96c2.241-5.712,4.459-11.434,7.042-17.005c-0.932-3.339-2.467-6.425-3.853-9.745
				c-2.036,3.324-10.633,24.702-10.842,26.975C1017.197,747.112,1019.746,747.429,1022.289,746.96z"/>
		</g>
		<g>
			<path fill="#F1B61C" d="M963.716,691.318c0.005-3.281,0.234-3.072-3.274-3.074c-6.791-0.003-13.584,0.094-20.373-0.056
				c-2.156-0.047-3.303,0.729-4.381,2.515c-4.357,7.22-8.84,14.365-13.338,21.499c-3.233,5.129-6.212,10.42-9.762,15.348
				c-0.126,0.704-0.219,1.428-1.249,1.897c-0.852-1.362-1.705-2.725-2.554-4.089c-6.041-9.697-12.088-19.39-18.105-29.102
				c-0.464-0.749-1.296-1.392-1.035-2.464c-1.076-0.87-1.718-2.079-2.291-3.271c-0.88-1.833-2.163-2.373-4.186-2.331
				c-6.602,0.139-13.209,0.034-19.814,0.059c-4.259,0.016-3.811-0.48-3.813,3.778c-0.011,32.2-0.006,64.399-0.006,96.599
				c0,0.517,0.041,1.036-0.006,1.548c-0.138,1.52,0.339,2.333,2.057,2.196c1.116-0.089,2.254,0.107,3.383,0.177
				c5.137-0.394,10.282-0.081,15.423-0.179c0.823-0.016,1.647-0.027,2.47-0.008c1.026,0.022,1.517-0.436,1.482-1.479
				c-0.027-0.822,0.005-1.646,0.005-2.471c0-17.808,0-35.614,0-53.422c0-1.126,0-2.253,0-3.485c1.795,1.297,4.308,4.876,5.799,8.151
				c1.046,0.592,1.446,1.707,2.058,2.628c5.562,8.377,11.112,16.762,16.593,25.19c0.847,1.304,1.715,2.246,3.358,2.15
				c4.799-7.2,9.605-14.396,14.395-21.602c3.308-4.978,6.592-9.972,9.893-14.954c0.486-0.733,1.006-1.444,1.759-2.082
				c0.243,4.671,0.442,9.254,0.119,13.843c0.042,1.234,0.12,2.469,0.121,3.702c0.009,13.396,0.005,26.793,0.006,40.189
				c0,0.722,0.03,1.443,0.004,2.164c-0.038,1.058,0.487,1.437,1.499,1.466c1.33,0.039,2.68-0.213,3.989,0.216
				c1.528-0.362,3.082-0.18,4.624-0.189c4.022-0.027,8.046-0.001,12.069-0.012c3.01-0.009,3.027-0.02,3.028-3.039
				c0.004-30.533,0-61.065,0.014-91.599c0-1.327-0.242-2.687,0.307-3.977C963.64,692.968,963.715,692.137,963.716,691.318z"/>
			<path fill="#F1B61C" d="M753.025,691.001c-0.064-2.719-0.061-2.746-2.682-2.753c-6.4-0.017-12.8-0.004-19.201-0.006
				c-3.637-0.001-3.288-0.146-3.289,3.406c-0.005,16.517,0.002,33.032-0.012,49.549c-0.001,1.228,0.204,2.481-0.272,3.678
				c0.135,0.654,0.828,1.266-0.035,2.22c-2.221-2.872-4.42-5.682-6.582-8.518c-10.637-13.954-21.272-27.91-31.877-41.89
				c-0.661-0.871-1.673-1.595-1.659-2.876c-1.328-1.026-2.214-2.438-3.141-3.786c-0.905-1.316-1.947-1.854-3.594-1.823
				c-5.666,0.106-11.335,0.023-17.003,0.046c-4.025,0.016-3.596-0.437-3.598,3.667c-0.01,32.256-0.006,64.512-0.006,96.768
				c0,0.618,0.039,1.239-0.004,1.854c-0.091,1.292,0.404,1.88,1.772,1.826c1.226-0.048,2.46,0.11,3.69,0.178
				c5.141-0.388,10.291-0.074,15.435-0.173c0.824-0.016,1.649-0.031,2.472-0.007c1.018,0.028,1.536-0.396,1.504-1.455
				c-0.025-0.822,0.006-1.647,0.006-2.472c0-17.613,0-35.227,0-52.84c0-1.126,0-2.252,0-3.446c1.813,0.976,3.874,3.447,5.822,6.895
				c0.808,0.504,1.333,1.279,1.895,2.014c4.253,5.567,8.5,11.142,12.749,16.714c8.248,10.816,16.496,21.632,24.743,32.449
				c0.804,1.055,1.458,2.309,3.059,2.303c5.256-0.354,10.519-0.062,15.777-0.154c0.825-0.015,1.651-0.024,2.476-0.007
				c1.007,0.021,1.543-0.396,1.511-1.458c-0.025-0.824,0.005-1.65,0.005-2.477c0.001-30.234-0.003-60.47,0.012-90.705
				c0.001-1.326-0.248-2.688,0.316-3.975C752.905,692.866,753.046,691.924,753.025,691.001z"/>
			<path fill="#F1B61C" d="M848.539,771.634c0.074-1.512-0.321-2.382-2.034-2.168c-0.608,0.076-1.234,0.011-1.852,0.011
				c-11.431,0-22.862,0.011-34.292-0.006c-3.705-0.006-7.409-0.082-11.113-0.126c-0.097,0.035-0.192,0.091-0.292,0.102
				c-5.5,0.579-5.5,0.579-5.5-4.757c0-3.509-0.017-7.018,0.005-10.526c0.017-2.69,0.039-2.725,2.744-2.728
				c12.487-0.014,24.974-0.006,37.46-0.006c1.857,0,3.719-0.078,5.571,0.021c1.542,0.082,1.949-0.608,1.93-2.019
				c-0.054-4.023-0.034-8.049-0.006-12.073c0.008-1.12-0.227-2.279,0.36-3.342c-0.415-0.767-0.32-1.604-0.319-2.423
				c0.006-3.361,0.181-3.073-3.27-3.078c-7.117-0.009-14.234,0.015-21.351-0.008c-5.773-0.019-11.547-0.085-17.32-0.13
				c-0.096,0.038-0.189,0.1-0.288,0.111c-5.518,0.649-5.518,0.649-5.518-4.722c0-3.407-0.026-6.814,0.01-10.221
				c0.024-2.33,0.062-2.383,2.457-2.387c11.562-0.021,23.125-0.009,34.688-0.01c4.955,0,9.911,0.026,14.866-0.013
				c2.226-0.018,2.286-0.076,2.308-2.257c0.044-4.438,0.004-8.878,0.032-13.317c0.004-0.604,0.193-1.209,0.297-1.812
				c-0.428-0.987-0.249-2.031-0.279-3.055c-0.072-2.391-0.066-2.443-2.36-2.445c-24.85-0.013-49.699-0.013-74.549-0.001
				c-2.382,0.001-2.383,0.048-2.441,2.358c-0.01,0.412-0.001,0.825-0.001,1.237c0,32.273,0,64.547,0,96.821
				c0,0.618,0.037,1.239-0.004,1.855c-0.086,1.277,0.385,1.893,1.762,1.84c1.227-0.046,2.461,0.11,3.692,0.178
				c1.23-0.058,2.461-0.165,3.692-0.166c22.247-0.01,44.493-0.008,66.74-0.008c0.721,0,1.447-0.055,2.162,0.009
				c1.487,0.132,1.972-0.535,1.95-1.979c-0.062-4.119-0.028-8.239-0.014-12.359c0.003-1.021-0.139-2.066,0.314-3.045
				C848.319,773.901,848.485,772.749,848.539,771.634z"/>
			<path fill="#F1B61C" d="M1080.006,789.061c-4.374-10.358-8.814-20.689-13.222-31.033c-8.855-20.783-17.706-41.569-26.539-62.361
				c-0.347-0.817-1.062-1.583-0.623-2.603c-1.031-0.959-1.354-2.31-1.821-3.541c-0.557-1.466-1.403-2.031-2.999-2.01
				c-6.09,0.08-12.183,0.098-18.272-0.011c-1.751-0.031-2.523,0.635-3.179,2.18c-14.15,33.323-28.354,66.623-42.521,99.938
				c-0.336,0.79-1.065,1.567-0.562,2.607c2.349,0.367,4.747-0.213,7.081,0.356c5.036-0.472,10.083-0.108,15.125-0.213
				c3.532-0.072,2.979,0.4,4.417-3.026c2.387-5.695,4.678-11.432,7.015-17.148c1.05-2.569,1.056-2.586,3.747-2.587
				c11.745-0.008,23.491,0.054,35.235-0.057c2.09-0.02,3.317,0.537,3.882,2.559c0.304,1.086,0.77,2.127,1.162,3.188
				c1.996,4.843,4.059,9.66,5.954,14.542c0.673,1.734,1.471,2.882,3.522,2.535c0.287-0.049,0.605,0.091,0.909,0.144
				c6.191-0.051,12.382-0.104,18.574-0.151c1.233-0.01,2.465-0.002,3.681-0.002C1081.279,790.988,1080.411,790.019,1080.006,789.061
				z M1022.289,746.96c-2.543,0.469-5.091,0.151-7.654,0.225c0.209-2.272,8.807-23.65,10.842-26.975
				c1.386,3.32,2.921,6.406,3.853,9.745c2.659,5.395,4.631,11.062,7.185,17.005C1031.425,746.96,1026.856,746.96,1022.289,746.96z"
				/>
			<path fill="#F1B61C" d="M590.076,760.357c-1.334,1.128-2.694,2.227-4.079,3.291c-7.202,5.541-15.322,7.792-24.312,6.434
				c-4.829-0.73-9.364-2.311-12.71-6.198c-1.53,0.197-2.166-1.06-2.932-1.939c-6.731-7.733-8.948-16.813-7.553-26.801
				c1.163-8.325,4.87-15.36,11.922-20.176c9.395-6.414,19.324-6.302,29.4-1.663c3.873,1.783,7.202,4.411,10.42,7.176
				c1.797,1.544,1.814,1.54,3.316-0.188c4.263-4.907,8.512-9.826,12.785-14.725c0.537-0.615,1.183-1.135,1.78-1.695
				c-5.357-6.399-12.124-10.812-19.86-13.728c-9.752-3.674-19.853-4.456-30.145-3.112c-11.499,1.502-21.53,6.157-29.984,14.114
				c-18.889,17.779-20.393,47.181-9.237,66.761c3.639,6.386,8.845,11.359,13.943,16.466c1.192-0.239,1.894,0.675,2.728,1.212
				c9.002,5.801,18.946,8.412,29.558,8.56c16.281,0.227,30.239-5.258,41.471-17.241c0.774-0.826,1.573-1.628,2.362-2.44
				c-4.632-4.669-9.264-9.341-13.899-14.009C592.716,758.103,592.725,758.119,590.076,760.357z"/>
			<path fill="#F1B61C" d="M643.533,690.829c-0.01-2.663-0.035-2.586-2.532-2.586c-6.598,0.002-13.196-0.006-19.795,0.004
				c-3.009,0.004-3.009,0.019-3.03,3.033c-0.001,0.206,0,0.412,0,0.618c0,32.27,0,64.539,0,96.809c0,0.722,0.028,1.444,0.005,2.165
				c-0.034,1.048,0.473,1.449,1.493,1.479c1.331,0.038,2.681-0.212,3.991,0.217c5.144-0.443,10.297-0.1,15.446-0.195
				c4.961-0.093,4.331,0.618,4.334-4.2c0.019-30.204,0.003-60.408,0.033-90.612c0.001-1.277-0.516-2.698,0.612-3.818
				C643.167,692.916,643.537,691.814,643.533,690.829z"/>
		</g>
	</g>
</g>
<g id="Laag_2">
</g>
</svg>
