<?xml version="1.0" encoding="utf-8"?>
<!-- Generator: Adobe Illustrator 22.1.0, SVG Export Plug-In . SVG Version: 6.00 Build 0)  -->
<svg version="1.1" xmlns="http://www.w3.org/2000/svg" xmlns:xlink="http://www.w3.org/1999/xlink" x="0px" y="0px"
	 viewBox="0 0 1600 900" enable-background="new 0 0 1600 900" xml:space="preserve">
<g id="Layer_1">
	<g>
		<path fill="#0087CA" d="M746.919,253.085c-1.208,0-2.184,0-3.16,0c-46.093-0.015-92.185-0.025-138.278-0.052
			c-4.552-0.003-3.917,0.548-3.9-3.817c0.184-47.896,0.388-95.792,0.586-143.688c0.002-0.541-0.009-1.083,0.011-1.623
			c0.052-1.356,0.184-1.482,1.603-1.527c0.631-0.02,1.263-0.008,1.894-0.012c38.695-0.222,77.39-0.443,116.085-0.668
			c28.142-0.164,56.284-0.247,84.425-0.522c46.993-0.459,93.986-0.115,140.979-0.234c6.675-0.017,13.35,0.037,20.024-0.03
			c1.68-0.017,3.183,0.346,4.679,1.044c12.945,6.043,23.098,15.235,30.775,27.225c5.651,8.826,9.38,18.451,11.812,28.604
			c1.895,7.911,2.897,15.94,3.398,24.062c0.457,7.408,0.258,14.794-0.304,22.166c-0.871,11.433-2.819,22.707-5.522,33.852
			c-4.889,20.158-12.392,39.34-21.621,57.872c-2.611,5.244-5.38,10.41-8.12,15.588c-1.772,3.35-3.765,6.574-5.892,9.708
			c-13.721,20.225-26.746,40.904-40.156,61.331c-19.993,30.453-39.935,60.938-59.689,91.547c-0.782,1.211-1.558,2.427-2.287,3.67
			c-0.425,0.724-0.136,1.186,0.755,1.202c3.336,0.061,6.673,0.119,10.01,0.125c31.029,0.053,62.058,0.104,93.087,0.136
			c22.731,0.024,45.461,0.015,68.192,0.032c3.741,0.003,3.294-0.404,3.294,3.327c0.001,46.544-0.009,93.087-0.017,139.631
			c0,0.541,0.01,1.083-0.003,1.623c-0.04,1.704-0.119,1.782-1.861,1.826c-0.631,0.016-1.263,0.004-1.894,0.004
			c-164.526,0-329.053,0-493.579-0.003c-4.128,0-3.631,0.391-3.681-3.547c-0.097-7.67,0.167-15.335,0.515-22.992
			c0.439-9.641,1.403-19.239,3.222-28.733c2.05-10.696,5.79-20.814,10.512-30.593c3.809-7.889,8.252-15.42,13.001-22.769
			c13.165-20.372,26.334-40.742,39.565-61.071c40.725-62.576,81.48-125.133,122.221-187.698c2.706-4.156,5.401-8.319,8.085-12.49
			C746.119,254.921,746.698,254.32,746.919,253.085z M986.317,138.149c-0.153,1.589-0.33,3.177-0.454,4.768
			c-0.652,8.409-2.408,16.578-5.312,24.496c-3.592,9.795-8.607,18.863-14.429,27.471c-9.077,13.42-19.542,25.692-31.292,36.85
			c-7.852,7.456-16.14,14.424-24.328,21.504c-14.337,12.395-29.079,24.278-44.455,35.364c-16.68,12.025-33.349,24.064-50.087,36.008
			c-24.889,17.76-49.696,35.629-73.802,54.449c-14.292,11.158-28.442,22.49-42.166,34.344
			c-16.053,13.866-31.44,28.436-46.257,43.612c-7.626,7.811-15.187,15.678-22.25,24.012c-10.408,12.283-19.322,25.623-27.836,39.246
			c-1.337,2.139-2.598,4.331-3.802,6.549c-5.706,10.51-9.781,21.673-13.003,33.152c-2.498,8.898-3.657,18.007-3.796,27.246
			c-0.009,0.568-0.076,1.154,0.28,2.153c0.383-1.091,0.602-1.749,0.844-2.398c0.975-2.618,1.89-5.26,2.948-7.844
			c3.713-9.069,8.831-17.335,14.563-25.243c5.455-7.527,11.4-14.667,17.207-21.918c11.023-13.763,23.163-26.458,36.192-38.325
			c13.478-12.276,27.493-23.913,41.791-35.215c21.302-16.839,43.127-32.982,65.171-48.83c20.137-14.476,40.364-28.829,60.519-43.281
			c17.593-12.614,34.941-25.557,51.894-39.026c16.954-13.469,33.521-27.4,49.765-41.715c10.986-9.682,21.137-20.174,30.342-31.571
			c9.039-11.191,17.006-23.083,23.333-36.027c6.218-12.72,10.651-25.99,12.368-40.112c1.33-10.943,0.866-21.773-1.615-32.515
			C988.086,142.912,987.528,140.471,986.317,138.149z"/>
		<path fill="#0288CA" d="M999.541,741.373c0.504-0.685,0.642-1.47,0.849-2.235c6.3-23.223,12.606-46.445,18.912-69.667
			c0.73-2.688,0.555-2.569,3.206-2.569c8.209,0,16.418-0.001,24.627,0.002c0.54,0,1.083,0.007,1.619,0.064
			c0.539,0.058,0.781,0.43,0.688,0.941c-0.145,0.797-0.329,1.589-0.531,2.374c-1.635,6.371-3.29,12.737-4.916,19.11
			c-5.546,21.745-11.077,43.494-16.624,65.239c-3.586,14.059-7.189,28.114-10.786,42.171c-0.112,0.436-0.25,0.864-0.359,1.301
			c-0.18,0.723-0.66,1.026-1.377,1.025c-0.541-0.001-1.082,0.011-1.624,0.011c-9.111,0.001-18.222,0.001-27.333,0
			c-0.541,0-1.082-0.014-1.624-0.016c-0.74-0.003-1.154-0.404-1.342-1.086c-0.168-0.608-0.338-1.215-0.501-1.823
			c-5.018-18.716-10.034-37.433-15.053-56.149c-3.572-13.318-7.152-26.634-10.719-39.953c-0.8-2.988-0.568-2.732-3.617-2.734
			c-10.013-0.008-20.026,0.001-30.039-0.005c-2.807-0.002-2.717-0.042-2.716,2.624c0.004,10.915,0.002,21.83,0.002,32.745
			c0,21.379,0.005,42.759-0.005,64.138c-0.002,3.678,0.423,3.243-3.375,3.251c-8.209,0.017-16.418,0.001-24.627,0.008
			c-2.421,0.002-2.391,0.018-2.391-2.375c0.003-15.606,0.001-31.212,0.001-46.818c0-16.779,0-33.557,0-50.336
			c0-3.474,0.227-3.234-3.205-3.235c-7.938-0.001-15.877,0.006-23.815-0.005c-2.415-0.003-2.442-0.023-2.445-2.361
			c-0.012-8.57-0.004-17.14-0.004-25.709c0-0.09-0.002-0.18,0.001-0.271c0.055-2.012,0.13-2.086,2.178-2.125
			c0.451-0.009,0.902-0.002,1.353-0.002c32.204,0,64.408,0.005,96.613-0.008c2.908-0.001,5.771,0.234,8.527,1.213
			c5.731,2.035,9.77,5.993,12.622,11.254c1.077,1.986,1.882,4.087,2.471,6.276c3.958,14.709,7.93,29.413,11.898,44.119
			c0.892,3.306,1.784,6.613,2.675,9.919C998.92,740.274,998.977,740.924,999.541,741.373z"/>
		<path fill="#0288CA" d="M748.792,743.168c0-17.406,0.013-34.813-0.013-52.219c-0.004-2.908,0.243-5.757,1.166-8.528
			c3.034-9.109,11.297-15.204,21.043-15.513c0.631-0.02,1.263-0.007,1.894-0.007c18.759,0,37.518,0,56.278,0
			c0.541,0,1.083-0.011,1.623,0.005c1.71,0.05,1.83,0.134,1.833,1.894c0.015,8.929,0.007,17.857,0.006,26.786
			c0,0.18,0,0.361-0.014,0.541c-0.069,0.866-0.317,1.168-1.115,1.214c-0.809,0.046-1.623,0.031-2.434,0.031
			c-15.422,0.001-30.844,0-46.267,0.002c-0.811,0-1.623,0.007-2.434,0.036c-0.631,0.022-0.985,0.383-1.037,1.005
			c-0.038,0.448-0.039,0.901-0.039,1.351c-0.002,5.051-0.003,10.101,0.001,15.152c0,0.54,0.013,1.082,0.068,1.618
			c0.051,0.497,0.353,0.827,0.867,0.855c0.809,0.045,1.621,0.065,2.431,0.066c9.38,0.004,18.759,0.002,28.139,0.005
			c0.811,0,1.623-0.001,2.432,0.052c0.629,0.041,0.95,0.437,0.963,1.068c0.011,0.541,0.02,1.082,0.02,1.623
			c0.001,8.388,0.001,16.775,0.001,25.163c0,0.451,0.013,0.903-0.013,1.352c-0.057,0.989-0.271,1.191-1.358,1.236
			c-0.72,0.03-1.443,0.014-2.164,0.014c-9.47,0.001-18.94-0.002-28.409,0.002c-3.185,0.001-2.972-0.176-2.976,2.895
			c-0.008,5.501-0.003,11.003,0,16.504c0,0.541,0.011,1.082,0.046,1.621c0.033,0.505,0.296,0.853,0.825,0.878
			c0.9,0.043,1.801,0.064,2.702,0.064c15.422,0.004,30.844,0,46.267,0.005c3.882,0.001,3.495-0.321,3.499,3.465
			c0.009,8.117,0,16.234,0.004,24.351c0.001,2.353,0.066,2.383-2.385,2.382c-25.253-0.005-50.506-0.003-75.758-0.003
			c-1.263,0-2.526,0.015-3.788-0.004c-1.857-0.029-1.869-0.05-1.902-2.037c-0.01-0.631-0.002-1.263-0.002-1.894
			C748.792,778.522,748.792,760.845,748.792,743.168z"/>
		<path fill="#0288CA" d="M652.247,743.279c0-17.855,0.016-35.711-0.011-53.566c-0.007-4.455,1.072-8.587,3.51-12.3
			c4.368-6.651,10.603-10.096,18.534-10.498c0.63-0.032,1.262-0.012,1.893-0.012c18.847,0,37.695-0.004,56.542,0.002
			c3.328,0.001,3.299-0.351,3.295,3.171c-0.009,8.297,0.004,16.593-0.007,24.889c-0.003,2.38-0.028,2.404-2.398,2.405
			c-15.691,0.008-31.382-0.005-47.073,0.01c-4.407,0.004-3.791-0.483-3.821,3.944c-0.03,4.328-0.007,8.657-0.006,12.986
			c0,0.541-0.013,1.083,0.009,1.623c0.053,1.308,0.229,1.472,1.638,1.522c0.63,0.022,1.262,0.007,1.894,0.007
			c9.469,0,18.938,0.008,28.406-0.004c3.244-0.004,3.06-0.029,3.059,3.149c-0.004,8.026-0.004,16.052,0,24.078
			c0.002,3.502,0.173,3.289-3.169,3.288c-9.469-0.002-18.938-0.001-28.406-0.001c-0.631,0-1.263-0.016-1.894,0.008
			c-1.365,0.051-1.524,0.182-1.527,1.604c-0.015,6.312-0.013,12.625,0.005,18.937c0.003,1.197,0.21,1.366,1.442,1.41
			c0.721,0.025,1.443,0.009,2.164,0.009c15.511,0,31.021,0,46.532,0.001c3.251,0,3.156-0.23,3.153,3.027
			c-0.008,8.116-0.002,16.232-0.004,24.348c0,0.631-0.013,1.262-0.042,1.892c-0.023,0.51-0.287,0.858-0.814,0.893
			c-0.629,0.042-1.262,0.036-1.893,0.036c-26.062,0.001-52.123,0.002-78.185,0c-0.631,0-1.262-0.006-1.892-0.04
			c-0.502-0.027-0.853-0.29-0.88-0.817c-0.042-0.809-0.053-1.621-0.053-2.432C652.246,778.99,652.247,761.134,652.247,743.279z"/>
		<path fill="#0288CA" d="M629.49,666.9c3.029,0,2.971-0.168,2.968,2.94c-0.009,8.389-0.038,16.778,0.026,25.167
			c0.013,1.706-0.431,3.116-1.347,4.542c-14.481,22.533-28.925,45.09-43.366,67.648c-0.472,0.736-1.503,1.543-1.13,2.295
			c0.488,0.983,1.782,0.419,2.704,0.421c13.35,0.035,26.7,0.026,40.051,0.023c3.26-0.001,3.061-0.169,3.06,3.104
			c-0.002,8.209-0.004,16.418,0.001,24.626c0.001,2.547,0.042,2.469-2.567,2.469c-20.206-0.003-40.411-0.011-60.617,0.012
			c-1.834,0.002-3.594-0.269-5.297-0.909c-8.181-3.076-13.333-8.871-14.804-17.483c-0.945-5.535-0.086-10.9,3.082-15.816
			c14.068-21.832,28.054-43.716,42.067-65.584c0.437-0.682,0.876-1.366,1.238-2.088c0.166-0.332,0.031-0.762-0.411-0.804
			c-0.805-0.077-1.618-0.087-2.428-0.087c-13.44-0.005-26.881,0.008-40.321-0.01c-3.945-0.005-3.452,0.463-3.463-3.437
			c-0.022-8.208-0.001-16.417-0.01-24.626c-0.003-2.488,0.025-2.404,2.358-2.403C564.453,666.903,616.591,666.903,629.49,666.9z"/>
	</g>
</g>
<g id="Laag_2">
</g>
</svg>
