<?xml version="1.0" encoding="utf-8"?>
<!-- Generator: Adobe Illustrator 22.1.0, SVG Export Plug-In . SVG Version: 6.00 Build 0)  -->
<svg version="1.1" xmlns="http://www.w3.org/2000/svg" xmlns:xlink="http://www.w3.org/1999/xlink" x="0px" y="0px"
	 viewBox="0 0 1600 900" enable-background="new 0 0 1600 900" xml:space="preserve">
<g id="Layer_1">
	<path fill="#F48C00" d="M974.845,634.43c-1.367-27.795-20.144-70.569-67.328-76.2H739.609L933.05,373.022
		c8.158-7.783,26.502-34.202,13.45-62.645c-10.473-22.859-28.046-32.61-58.716-32.61H646.802
		c0.992,31.975,16.933,70.148,59.311,76.983h137.707L640.315,546.001c-8.259,7.916-21.846,32.292-11.126,57.031
		c9.671,22.3,25.969,31.397,56.264,31.397H974.845z M556.2,632.123c0,18.675,7.603,35.63,19.875,47.903
		c12.272,12.254,29.206,19.853,47.885,19.853H976.04c18.679,0,35.613-7.598,47.885-19.853
		c12.272-12.272,19.875-29.228,19.875-47.903V456.101l-0.022-108.814c0-35.939,36.27-69.442,76.222-69.519v178.333v176.023
		c0,39.754-16.114,75.759-42.166,101.798c-26.053,26.062-62.045,42.179-101.794,42.179H623.959
		c-39.749,0-75.741-16.117-101.794-42.179C496.113,707.882,480,671.877,480,632.123V280.071c0-39.754,16.117-75.752,42.168-101.796
		c26.055-26.062,62.045-42.175,101.796-42.175h176.009h176.005c19.513,0,38.122,3.892,55.086,10.932
		c23.274,9.64,38.157,21.535,52.511,37.041c5.711,6.171,11.166,15.3,11.166,26.942c0,9.752-3.713,19.502-11.166,26.943
		c-7.443,7.441-17.189,11.157-26.943,11.157c-9.745,0-19.615-3.836-26.934-11.157c-10.173-10.164-15.738-15.383-27.38-20.311
		c-8.105-3.435-17.013-5.336-26.339-5.336H799.973H623.964c-18.68,0-35.617,7.596-47.888,19.87
		c-12.27,12.27-19.872,29.214-19.872,47.889L556.2,632.123z"/>
</g>
<g id="Laag_2">
</g>
</svg>
