<?xml version="1.0" encoding="utf-8"?>
<!-- Generator: Adobe Illustrator 22.1.0, SVG Export Plug-In . SVG Version: 6.00 Build 0)  -->
<svg version="1.2" baseProfile="tiny" xmlns="http://www.w3.org/2000/svg" xmlns:xlink="http://www.w3.org/1999/xlink" x="0px"
	 y="0px" viewBox="0 0 1600 900" xml:space="preserve">
<g id="Layer_1">
	<path fill="#F48C00" d="M974.8,628.3c-1.4-27.8-20.1-70.6-67.3-76.2H739.6L933,366.9c8.2-7.8,26.5-34.2,13.4-62.6
		c-10.5-22.9-28-32.6-58.7-32.6h-241c1,32,16.9,70.1,59.3,77h137.7L640.3,539.9c-8.3,7.9-21.8,32.3-11.1,57
		c9.7,22.3,26,31.4,56.3,31.4H974.8z M556.2,626c0,18.7,7.6,35.6,19.9,47.9c12.3,12.3,29.2,19.9,47.9,19.9H976
		c18.7,0,35.6-7.6,47.9-19.9c12.3-12.3,19.9-29.2,19.9-47.9V450l0-108.8c0-35.9,36.3-69.4,76.2-69.5V450v176
		c0,39.8-16.1,75.8-42.2,101.8c-26.1,26.1-62,42.2-101.8,42.2H624c-39.7,0-75.7-16.1-101.8-42.2c-26.1-26-42.2-62-42.2-101.8V274
		c0-39.8,16.1-75.8,42.2-101.8c26.1-26.1,62-42.2,101.8-42.2h176h176c19.5,0,38.1,3.9,55.1,10.9c23.3,9.6,38.2,21.5,52.5,37
		c5.7,6.2,11.2,15.3,11.2,26.9c0,9.8-3.7,19.5-11.2,26.9c-7.4,7.4-17.2,11.2-26.9,11.2c-9.7,0-19.6-3.8-26.9-11.2
		c-10.2-10.2-15.7-15.4-27.4-20.3c-8.1-3.4-17-5.3-26.3-5.3H800H624c-18.7,0-35.6,7.6-47.9,19.9c-12.3,12.3-19.9,29.2-19.9,47.9
		L556.2,626z"/>
</g>
<g id="Laag_2" display="none">
</g>
</svg>
