<?xml version="1.0" encoding="utf-8"?>
<!-- Generator: Adobe Illustrator 22.1.0, SVG Export Plug-In . SVG Version: 6.00 Build 0)  -->
<svg version="1.2" baseProfile="tiny" id="Layer_1" xmlns="http://www.w3.org/2000/svg" xmlns:xlink="http://www.w3.org/1999/xlink"
	 x="0px" y="0px" viewBox="0 0 1600 900" xml:space="preserve">
<g>
	<path id="Ziggo_x5F_Sport_x5F_White_x5F_RGB_10_" fill="#D3D6D9" d="M1356.779,566.975h-39.681V452.737h-38.07v-34.52h117.813
		v34.52h-40.062V566.975z M1260.832,526.682c-3.583-9.976-8.135-15.338-17.679-18.419c25.055-6.878,25.074-21.18,25.074-45.02
		c0-37.091-16.86-44.424-51.184-45.026h-76.566v148.759h39.668v-39.472h23.247c10.507,0,13.919,1.975,17.005,11.011
		c7.841,22.877,9.799,28.461,9.799,28.461h45.125C1275.321,566.975,1270.925,554.802,1260.832,526.682z M1180.146,452.737h30.753
		c13.094,0,16.454,3.76,16.454,17.053c0,16.857,0.596,23.211-16.454,23.211h-30.753V452.737z M1051.759,417.047
		c-40.254,0-68.822,8.728-68.822,54.544v42.051c0,45.813,28.568,54.541,68.822,54.541c40.272,0,68.834-8.728,68.834-54.541V471.59
		C1120.592,425.774,1092.031,417.047,1051.759,417.047z M1079.745,509.243c-0.597,22.214-7.369,24.394-27.986,24.394
		c-20.618,0-27.368-2.181-27.965-24.394v-33.515c0.597-22.025,7.347-24.2,27.965-24.2c20.617,0,27.389,2.175,27.986,24.2V509.243z
		 M917.579,418.217h-74.771v148.759h39.662v-38.08h35.109c41.45,0,50.777-14.289,50.777-56.142
		C968.357,433.891,954.47,418.217,917.579,418.217z M927.526,473.564c0-0.012,0-0.022,0-0.034
		c-0.004,15.235-2.396,20.785-17.856,20.785h-27.171v-41.571h27.171c15.46,0,17.852,5.55,17.856,20.785c0-0.012,0-0.022,0-0.034
		V473.564z M759.785,449.23L759.785,449.23c23.157,0.686,38.46,1.601,57.137,4.118v-32.776c-8.684-1.044-30.684-3.78-51.856-3.78
		c-1.765,0-5.282,0.023-5.282,0.023l-0.029,0.022c-38.777,0-62.715,2.77-62.715,45.305c0,42.536,21.367,42.338,57.968,44.911
		l8.705,0.593c18.597,1.188,20.773,0.989,20.773,13.849c0,12.464-6.133,13.651-24.73,13.651l-0.066,0.063h0.001
		c-22.748-0.686-41.241-1.889-59.587-4.404v32.754c8.53,1.043,29.499,4.067,54.399,4.067c1.734,0,5.01-0.023,5.01-0.023l0.243-0.012
		c65.288,0,64.299-24.136,64.299-48.669c0-34.028-10.881-39.568-54.802-42.734l-16.421-1.187
		c-10.485-0.791-16.223-1.188-16.223-13.057c0-8.31,1.781-12.662,23.147-12.662L759.785,449.23z M992.671,263.511
		c23.407,0.786,41.591,1.834,60.469,4.716v-37.543c-8.777-1.195-33.806-4.33-55.206-4.33c-46.69,0-81.164,7.89-81.164,60.776v41.371
		c0,51.812,25.585,60.341,75.911,60.341c57.151,0,70.795-9.806,70.795-63.756V297.16h-72.714v29.633h29.43
		c0,22.179-5.758,27.079-27.511,27.079c-22.172,0-31.985-2.98-31.985-31.35h-0.01v-27.661
		C960.686,266.492,970.499,263.511,992.671,263.511 M1158.084,263.511c23.407,0.786,41.591,1.834,60.469,4.716v-37.543
		c-8.777-1.195-33.806-4.33-55.206-4.33c-46.69,0-81.164,7.89-81.164,60.776v41.371c0,51.812,25.585,60.341,75.911,60.341
		c57.151,0,70.795-9.806,70.795-63.756V297.16h-72.714v29.633h29.43c0,22.179-5.758,27.079-27.511,27.079
		c-22.172,0-31.985-2.98-31.985-31.35h-0.01v-27.661C1126.099,266.492,1135.911,263.511,1158.084,263.511 M1321.713,226.355
		c-43.278,0-73.992,9.383-73.992,58.641v45.209c0,49.254,30.714,58.638,73.992,58.638c43.297,0,74.005-9.383,74.005-58.638v-45.209
		C1395.718,235.738,1365.01,226.355,1321.713,226.355z M1351.802,325.477c-0.642,23.882-7.922,26.227-30.088,26.227
		c-22.166,0-29.424-2.345-30.066-26.227v-36.033c0.642-23.679,7.899-26.017,30.066-26.017c22.166,0,29.446,2.338,30.088,26.017
		V325.477z M828.457,263.465l-76.559,85.716v1.284h76.559v37.097H697.734V351.53l75.492-85.51v-1.281H702.64v-37.104h125.817
		V263.465z M893.502,387.563h-42.649V227.636h42.649V387.563z M541.728,521.63c-0.952-19.352-14.027-49.138-46.885-53.063H377.917
		l134.706-128.972c5.681-5.417,18.455-23.817,9.365-43.623c-7.296-15.919-19.53-22.705-40.89-22.705H313.29
		c0.691,22.263,11.792,48.847,41.302,53.606h95.897L308.773,460.055c-5.751,5.509-15.212,22.484-7.747,39.711
		c6.734,15.532,18.084,21.864,39.18,21.864H541.728z M250.198,520.027c0,13.002,5.294,24.812,13.84,33.354
		c8.546,8.537,20.338,13.825,33.346,13.825h245.179c13.008,0,24.8-5.288,33.343-13.825c8.543-8.543,13.837-20.353,13.837-33.354
		V397.448l-0.013-75.774c0-25.027,25.254-48.355,53.075-48.408v124.181v122.578c0,27.68-11.214,52.756-29.357,70.885
		c-18.142,18.149-43.212,29.375-70.886,29.375H297.384c-27.68,0-52.743-11.226-70.886-29.375
		c-18.142-18.13-29.363-43.205-29.363-70.885V274.87c0-27.683,11.224-52.749,29.366-70.885
		c18.142-18.148,43.206-29.369,70.886-29.369h122.566h122.561c13.591,0,26.55,2.709,38.36,7.61
		c16.214,6.712,26.575,14.997,36.567,25.794c3.98,4.299,7.775,10.656,7.775,18.762c0,6.793-2.58,13.579-7.775,18.762
		c-5.184,5.183-11.964,7.769-18.757,7.769c-6.792,0-13.658-2.672-18.756-7.769c-7.087-7.078-10.962-10.711-19.069-14.144
		c-5.644-2.392-11.847-3.715-18.345-3.715H419.953H297.387c-13.008,0-24.803,5.288-33.349,13.837
		c-8.543,8.543-13.837,20.343-13.837,33.348L250.198,520.027z"/>
	<g>
		<path fill="#D3D6D9" d="M701.844,701.977c5.383,2.179,13.171,4.355,20.732,4.355c7.331,0,10.423-2.521,10.423-6.645
			c0-5.497-3.895-6.985-13.173-10.192c-12.828-4.469-21.535-10.768-21.535-24.399c0-15.118,9.852-24.168,28.522-24.168
			c9.507,0,17.754,2.176,22.563,4.466l-3.895,16.723c-5.269-2.176-10.537-3.664-17.523-3.664c-6.071,0-9.164,1.833-9.164,5.957
			c0,4.695,2.864,6.183,10.995,9.161c13.63,4.926,23.711,10.309,23.711,26.001c0,15.235-11.568,24.282-30.01,24.282
			c-10.078,0-19.585-2.176-25.313-4.809L701.844,701.977z"/>
		<path fill="#D3D6D9" d="M879.938,722.481h-51.542v-80.179h51.542v17.182h-31.27v13.973h26.572v17.182h-26.572v14.661h31.27
			V722.481z"/>
		<path fill="#D3D6D9" d="M957.122,642.302h20.273v62.999h29.779v17.18h-50.052V642.302z"/>
		<path fill="#D3D6D9" d="M1134.757,722.481h-51.542v-80.179h51.542v17.182h-31.27v13.973h26.572v17.182h-26.572v14.661h31.27
			V722.481z"/>
		<path fill="#D3D6D9" d="M1206.789,682.735c0-25.084,13.745-41.807,39.517-41.807c6.069,0,13.859,1.833,19.242,4.124l-4.466,17.18
			c-4.124-1.488-9.164-3.435-14.547-3.435c-13.287,0-18.785,8.361-18.785,23.825c0,15.464,5.383,23.365,18.325,23.365
			c7.33,0,12.599-2.519,16.38-4.581l3.895,17.411c-5.383,2.976-13.402,5.038-21.192,5.038
			C1220.419,723.854,1206.789,707.477,1206.789,682.735z"/>
		<path fill="#D3D6D9" d="M1357.047,659.484h-19.816v-17.182h59.904v17.182h-19.816v62.997h-20.273V659.484z"/>
	</g>
</g>
</svg>
