<?xml version="1.0" encoding="utf-8"?>
<!-- Generator: Adobe Illustrator 22.1.0, SVG Export Plug-In . SVG Version: 6.00 Build 0)  -->
<svg version="1.2" baseProfile="tiny" id="Layer_1" xmlns="http://www.w3.org/2000/svg" xmlns:xlink="http://www.w3.org/1999/xlink"
	 x="0px" y="0px" viewBox="0 0 1600 900" xml:space="preserve">
<g>
	<path id="Ziggo_x5F_Sport_x5F_White_x5F_RGB" fill="#D3D6D9" d="M1359.932,568.027h-39.687V453.773h-38.075v-34.524h117.828v34.524
		h-40.067V568.027z M1263.972,527.728c-3.584-9.977-8.136-15.34-17.682-18.422c25.058-6.879,25.078-21.183,25.078-45.026
		c0-37.096-16.863-44.43-51.191-45.032h-76.576v148.778h39.673V528.55h23.25c10.508,0,13.921,1.975,17.007,11.012
		c7.842,22.88,9.8,28.464,9.8,28.464h45.131C1278.463,568.027,1274.067,555.852,1263.972,527.728z M1183.275,453.773h30.757
		c13.096,0,16.456,3.76,16.456,17.056c0,16.859,0.596,23.214-16.456,23.214h-30.757V453.773z M1054.871,418.079
		c-40.259,0-68.831,8.729-68.831,54.551v42.056c0,45.819,28.572,54.548,68.831,54.548c40.277,0,68.843-8.729,68.843-54.548v-42.056
		C1123.714,426.807,1095.148,418.079,1054.871,418.079z M1082.861,510.287c-0.597,22.216-7.37,24.398-27.99,24.398
		c-20.62,0-27.372-2.181-27.969-24.398v-33.52c0.597-22.028,7.349-24.203,27.969-24.203c20.62,0,27.393,2.175,27.99,24.203V510.287z
		 M920.674,419.249h-74.781v148.778h39.667v-38.085h35.114c41.455,0,50.784-14.291,50.784-56.149
		C971.458,434.925,957.57,419.249,920.674,419.249z M930.622,474.604c0-0.012,0-0.022,0-0.034
		c-0.004,15.237-2.396,20.788-17.858,20.788h-27.174v-41.576h27.174c15.462,0,17.854,5.551,17.858,20.788c0-0.012,0-0.022,0-0.034
		V474.604z M762.859,450.266L762.859,450.266c23.16,0.686,38.465,1.601,57.144,4.118v-32.781c-8.685-1.044-30.688-3.78-51.863-3.78
		c-1.765,0-5.282,0.023-5.282,0.023l-0.029,0.022c-38.782,0-62.724,2.77-62.724,45.311c0,42.542,21.37,42.344,57.975,44.917
		l8.706,0.593c18.599,1.188,20.776,0.989,20.776,13.851c0,12.465-6.134,13.653-24.734,13.653l-0.066,0.064h0.001
		c-22.751-0.686-41.247-1.889-59.595-4.404v32.759c8.531,1.043,29.503,4.067,54.406,4.067c1.734,0,5.011-0.023,5.011-0.023
		l0.243-0.012c65.296,0,64.307-24.139,64.307-48.675c0-34.033-10.882-39.573-54.809-42.739l-16.423-1.187
		c-10.487-0.791-16.225-1.188-16.225-13.059c0-8.311,1.781-12.663,23.15-12.663L762.859,450.266z M995.776,264.523
		c23.41,0.786,41.596,1.834,60.477,4.717v-37.548c-8.779-1.195-33.81-4.33-55.213-4.33c-46.696,0-81.175,7.891-81.175,60.784v41.377
		c0,51.819,25.589,60.349,75.921,60.349c57.158,0,70.805-9.807,70.805-63.765v-27.931h-72.724v29.637h29.434
		c0,22.182-5.758,27.082-27.515,27.082c-22.175,0-31.989-2.981-31.989-31.354h-0.01v-27.665
		C963.787,267.504,973.601,264.523,995.776,264.523 M1161.21,264.523c23.41,0.786,41.596,1.834,60.477,4.717v-37.548
		c-8.779-1.195-33.81-4.33-55.213-4.33c-46.696,0-81.175,7.891-81.175,60.784v41.377c0,51.819,25.589,60.349,75.921,60.349
		c57.158,0,70.805-9.807,70.805-63.765v-27.931h-72.724v29.637h29.434c0,22.182-5.758,27.082-27.515,27.082
		c-22.175,0-31.989-2.981-31.989-31.354h-0.01v-27.665C1129.221,267.504,1139.035,264.523,1161.21,264.523 M1324.861,227.362
		c-43.283,0-74.001,9.384-74.001,58.649v45.215c0,49.261,30.718,58.646,74.001,58.646c43.303,0,74.014-9.385,74.014-58.646v-45.215
		C1398.875,236.746,1368.164,227.362,1324.861,227.362z M1354.953,326.497c-0.642,23.885-7.923,26.23-30.092,26.23
		c-22.169,0-29.428-2.345-30.07-26.23v-36.038c0.642-23.682,7.9-26.021,30.07-26.021c22.169,0,29.45,2.339,30.092,26.021V326.497z
		 M831.541,264.477l-76.569,85.728v1.284h76.569v37.102H700.8v-36.038l75.502-85.521v-1.281h-70.595v-37.109h125.834V264.477z
		 M896.593,388.591h-42.654V228.643h42.654V388.591z M544.773,522.675c-0.952-19.354-14.029-49.145-46.891-53.07H380.941
		l134.724-128.989c5.682-5.417,18.457-23.82,9.367-43.629c-7.297-15.921-19.532-22.708-40.895-22.708h-167.83
		c0.691,22.266,11.793,48.853,41.307,53.613h95.91l-141.735,133.2c-5.752,5.51-15.214,22.487-7.748,39.716
		c6.735,15.534,18.086,21.867,39.185,21.867H544.773z M253.205,521.072c0,13.003,5.295,24.815,13.842,33.359
		c8.547,8.538,20.34,13.827,33.35,13.827h245.211c13.01,0,24.803-5.288,33.347-13.827c8.544-8.544,13.839-20.355,13.839-33.359
		V398.477l-0.013-75.784c0-25.03,25.257-48.362,53.082-48.414v124.198v122.595c0,27.684-11.216,52.763-29.361,70.895
		c-18.145,18.151-43.218,29.379-70.895,29.379H300.397c-27.684,0-52.75-11.228-70.895-29.379
		c-18.145-18.132-29.367-43.211-29.367-70.895V275.883c0-27.687,11.225-52.756,29.37-70.895
		c18.144-18.15,43.211-29.372,70.895-29.372h122.582h122.577c13.593,0,26.554,2.709,38.365,7.611
		c16.216,6.713,26.578,14.999,36.572,25.797c3.98,4.3,7.776,10.657,7.776,18.765c0,6.794-2.58,13.581-7.776,18.765
		c-5.185,5.184-11.966,7.77-18.759,7.77c-6.793,0-13.66-2.672-18.759-7.77c-7.088-7.079-10.964-10.712-19.072-14.146
		c-5.645-2.393-11.849-3.716-18.347-3.716H422.983H300.4c-13.01,0-24.806,5.288-33.353,13.839
		c-8.544,8.544-13.839,20.346-13.839,33.353L253.205,521.072z"/>
	<g>
		<path fill="#D3D6D9" d="M750.688,723.961h-22.909c-5.193-10.612-10.194-23.347-15.005-38.199
			c-4.811-14.853-8.476-28.845-10.996-41.981h20.961c2.366,11.456,5.115,23.006,8.247,34.649c3.131,11.645,5.88,20.37,8.247,26.172
			c2.366-5.802,5.115-14.527,8.247-26.172c3.131-11.643,5.88-23.193,8.247-34.649h20.961c-2.519,13.136-6.185,27.128-10.996,41.981
			C760.881,700.615,755.879,713.349,750.688,723.961z"/>
		<path fill="#D3D6D9" d="M879.432,653.747c6.719,7.56,10.082,17.603,10.082,30.126c0,12.523-3.363,22.564-10.082,30.124
			c-6.719,7.56-15.806,11.339-27.259,11.339c-11.531,0-20.657-3.759-27.376-11.281c-6.721-7.521-10.079-17.583-10.079-30.182
			c0-12.601,3.358-22.661,10.079-30.182c6.719-7.521,15.845-11.283,27.376-11.283C863.626,642.408,872.713,646.186,879.432,653.747z
			 M839.917,666.348c-2.828,4.049-4.238,9.89-4.238,17.525c0,7.635,1.41,13.476,4.238,17.525c2.823,4.046,6.908,6.069,12.256,6.069
			c5.267,0,9.316-2.023,12.141-6.069c2.823-4.049,4.238-9.89,4.238-17.525c0-7.635-1.415-13.476-4.238-17.525
			c-2.826-4.046-6.874-6.072-12.141-6.072C846.825,660.276,842.74,662.301,839.917,666.348z"/>
		<path fill="#D3D6D9" d="M987.102,706.779v17.182h-51.544v-80.18h51.544v17.182h-31.269v13.972h26.573v17.182h-26.573v14.661
			H987.102z"/>
		<path fill="#D3D6D9" d="M1048.954,723.961v-62.998h-19.816v-17.182h59.904v17.182h-19.816v62.998H1048.954z"/>
		<path fill="#D3D6D9" d="M1163.951,723.961h-30.009v-80.18h27.95c8.934,0,15.979,1.833,21.131,5.498
			c5.155,3.667,7.733,8.783,7.733,15.349c0,6.721-2.636,12.027-7.903,15.923c7.176,3.893,10.765,10.194,10.765,18.899
			c0,7.789-2.634,13.822-7.903,18.097C1180.445,721.824,1173.191,723.961,1163.951,723.961z M1153.643,660.964v14.775h9.394
			c5.114,0,7.674-2.595,7.674-7.789c0-2.291-0.802-4.027-2.407-5.211c-1.603-1.184-3.665-1.775-6.184-1.775H1153.643z
			 M1153.643,690.859v15.92h8.591c7.56,0,11.339-2.519,11.339-7.558c0-5.573-3.779-8.363-11.339-8.363H1153.643z"/>
		<path fill="#D3D6D9" d="M1285.936,723.961c-0.382-1.602-0.973-4.046-1.775-7.332c-0.802-3.28-1.432-5.763-1.889-7.443h-26.116
			c-0.382,1.68-0.973,4.163-1.775,7.443c-0.802,3.285-1.432,5.729-1.889,7.332h-20.847c3.665-14.126,7.942-28.616,12.829-43.469
			c4.885-14.85,9.62-27.089,14.203-36.711h21.075c4.581,9.7,9.352,21.992,14.318,36.884c4.963,14.889,9.238,29.321,12.827,43.296
			H1285.936z M1269.213,665.431c-2.215,4.81-5.08,13.668-8.591,26.573h17.182C1274.291,679.099,1271.429,670.241,1269.213,665.431z"
			/>
		<path fill="#D3D6D9" d="M1350.079,723.961v-80.18h20.275v62.998h29.781v17.182H1350.079z"/>
	</g>
</g>
</svg>
