<?xml version="1.0" encoding="utf-8"?>
<!-- Generator: Adobe Illustrator 22.1.0, SVG Export Plug-In . SVG Version: 6.00 Build 0)  -->
<svg version="1.2" baseProfile="tiny" xmlns="http://www.w3.org/2000/svg" xmlns:xlink="http://www.w3.org/1999/xlink" x="0px"
	 y="0px" viewBox="0 0 1600 900" xml:space="preserve">
<g id="Layer_1">
	<path fill="#FFFFFF" d="M1358.7,621.9H1319V507.7H1281v-34.5h117.8v34.5h-40.1V621.9z M1262.8,581.6c-3.6-10-8.1-15.3-17.7-18.4
		c25.1-6.9,25.1-21.2,25.1-45c0-37.1-16.9-44.4-51.2-45h-76.6v148.8h39.7v-39.5h23.3c10.5,0,13.9,2,17,11
		c7.8,22.9,9.8,28.5,9.8,28.5h45.1C1277.3,621.9,1272.9,609.8,1262.8,581.6z M1182.1,507.7h30.8c13.1,0,16.5,3.8,16.5,17.1
		c0,16.9,0.6,23.2-16.5,23.2h-30.8V507.7z M1053.6,472c-40.3,0-68.8,8.7-68.8,54.6v42.1c0,45.8,28.6,54.6,68.8,54.6
		c40.3,0,68.9-8.7,68.9-54.6v-42.1C1122.5,480.7,1093.9,472,1053.6,472z M1081.6,564.2c-0.6,22.2-7.4,24.4-28,24.4
		c-20.6,0-27.4-2.2-28-24.4v-33.5c0.6-22,7.3-24.2,28-24.2c20.6,0,27.4,2.2,28,24.2V564.2z M919.4,473.1h-74.8v148.8h39.7v-38.1
		h35.1c41.5,0,50.8-14.3,50.8-56.2C970.2,488.8,956.3,473.1,919.4,473.1z M929.4,528.5C929.4,528.5,929.4,528.5,929.4,528.5
		c0,15.2-2.4,20.8-17.9,20.8h-27.2v-41.6h27.2C927,507.7,929.4,513.2,929.4,528.5C929.4,528.5,929.4,528.4,929.4,528.5L929.4,528.5z
		 M761.6,504.2L761.6,504.2c23.2,0.7,38.5,1.6,57.2,4.1v-32.8c-8.7-1-30.7-3.8-51.9-3.8c-1.8,0-5.3,0-5.3,0l0,0
		c-38.8,0-62.7,2.8-62.7,45.3c0,42.5,21.4,42.3,58,44.9l8.7,0.6c18.6,1.2,20.8,1,20.8,13.9c0,12.5-6.1,13.7-24.7,13.7l-0.1,0.1h0
		c-22.8-0.7-41.3-1.9-59.6-4.4v32.8c8.5,1,29.5,4.1,54.4,4.1c1.7,0,5,0,5,0l0.2,0c65.3,0,64.3-24.1,64.3-48.7
		c0-34-10.9-39.6-54.8-42.7l-16.4-1.2c-10.5-0.8-16.2-1.2-16.2-13.1C738.4,508.6,740.2,504.2,761.6,504.2L761.6,504.2z M994.5,318.4
		c23.4,0.8,41.6,1.8,60.5,4.7v-37.6c-8.8-1.2-33.8-4.3-55.2-4.3c-46.7,0-81.2,7.9-81.2,60.8v41.4c0,51.8,25.6,60.4,75.9,60.4
		c57.2,0,70.8-9.8,70.8-63.8v-27.9h-72.7v29.6h29.4c0,22.2-5.8,27.1-27.5,27.1c-22.2,0-32-3-32-31.4h0v-27.7
		C962.5,321.4,972.4,318.4,994.5,318.4 M1160,318.4c23.4,0.8,41.6,1.8,60.5,4.7v-37.6c-8.8-1.2-33.8-4.3-55.2-4.3
		c-46.7,0-81.2,7.9-81.2,60.8v41.4c0,51.8,25.6,60.4,75.9,60.4c57.2,0,70.8-9.8,70.8-63.8v-27.9h-72.7v29.6h29.4
		c0,22.2-5.8,27.1-27.5,27.1c-22.2,0-32-3-32-31.4h0v-27.7C1128,321.4,1137.8,318.4,1160,318.4 M1323.7,281.2
		c-43.3,0-74,9.4-74,58.7v45.2c0,49.3,30.7,58.7,74,58.7c43.3,0,74-9.4,74-58.7v-45.2C1397.7,290.6,1367,281.2,1323.7,281.2z
		 M1353.8,380.4c-0.6,23.9-7.9,26.2-30.1,26.2c-22.2,0-29.4-2.3-30.1-26.2v-36c0.6-23.7,7.9-26,30.1-26c22.2,0,29.5,2.3,30.1,26
		V380.4z M830.3,318.3l-76.6,85.7v1.3h76.6v37.1H699.5v-36l75.5-85.5v-1.3h-70.6v-37.1h125.8V318.3z M895.3,442.5h-42.7v-160h42.7
		V442.5z M543.5,576.6c-1-19.4-14-49.2-46.9-53.1h-117l134.7-129c5.7-5.4,18.5-23.8,9.4-43.6c-7.3-15.9-19.5-22.7-40.9-22.7H315
		c0.7,22.3,11.8,48.9,41.3,53.6h95.9L310.5,515c-5.8,5.5-15.2,22.5-7.7,39.7c6.7,15.5,18.1,21.9,39.2,21.9H543.5z M251.9,575
		c0,13,5.3,24.8,13.8,33.4c8.5,8.5,20.3,13.8,33.4,13.8h245.2c13,0,24.8-5.3,33.4-13.8c8.5-8.5,13.8-20.4,13.8-33.4V452.4l0-75.8
		c0-25,25.3-48.4,53.1-48.4v124.2V575c0,27.7-11.2,52.8-29.4,70.9c-18.1,18.2-43.2,29.4-70.9,29.4H299.1
		c-27.7,0-52.8-11.2-70.9-29.4c-18.1-18.1-29.4-43.2-29.4-70.9V329.8c0-27.7,11.2-52.8,29.4-70.9c18.1-18.2,43.2-29.4,70.9-29.4
		h245.2c13.6,0,26.6,2.7,38.4,7.6c16.2,6.7,26.6,15,36.6,25.8c4,4.3,7.8,10.7,7.8,18.8c0,6.8-2.6,13.6-7.8,18.8
		c-5.2,5.2-12,7.8-18.8,7.8s-13.7-2.7-18.8-7.8c-7.1-7.1-11-10.7-19.1-14.1c-5.6-2.4-11.8-3.7-18.3-3.7H421.7H299.1
		c-13,0-24.8,5.3-33.4,13.8c-8.5,8.5-13.8,20.3-13.8,33.4L251.9,575z"/>
</g>
<g id="Laag_2" display="none">
</g>
</svg>
