<?xml version="1.0" encoding="utf-8"?>
<!-- Generator: Adobe Illustrator 22.1.0, SVG Export Plug-In . SVG Version: 6.00 Build 0)  -->
<svg version="1.2" baseProfile="tiny" id="Layer_1" xmlns="http://www.w3.org/2000/svg" xmlns:xlink="http://www.w3.org/1999/xlink"
	 x="0px" y="0px" viewBox="0 0 1600 900" xml:space="preserve">
<g>
	<path id="Ziggo_x5F_Sport_x5F_White_x5F_RGB_7_" fill="#D3D6D9" d="M1359.763,567.97h-39.681V453.733h-38.069v-34.519h117.811
		v34.519h-40.061V567.97z M1263.817,527.677c-3.583-9.976-8.135-15.337-17.679-18.419c25.054-6.878,25.074-21.18,25.074-45.019
		c0-37.09-16.86-44.423-51.183-45.026h-76.564V567.97h39.668v-39.471h23.246c10.506,0,13.919,1.975,17.004,11.011
		c7.84,22.876,9.799,28.46,9.799,28.46h45.124C1278.305,567.97,1273.91,555.797,1263.817,527.677z M1183.132,453.733h30.753
		c13.094,0,16.454,3.76,16.454,17.053c0,16.857,0.596,23.21-16.454,23.21h-30.753V453.733z M1054.746,418.043
		c-40.253,0-68.821,8.727-68.821,54.543v42.05c0,45.812,28.568,54.54,68.821,54.54c40.271,0,68.833-8.728,68.833-54.54v-42.05
		C1123.579,426.771,1095.018,418.043,1054.746,418.043z M1082.732,510.238c-0.597,22.213-7.369,24.394-27.986,24.394
		c-20.617,0-27.368-2.181-27.965-24.394v-33.515c0.597-22.024,7.347-24.199,27.965-24.199c20.617,0,27.389,2.175,27.986,24.199
		V510.238z M920.569,419.213h-74.77V567.97h39.661v-38.079h35.109c41.449,0,50.777-14.289,50.777-56.141
		C971.346,434.888,957.459,419.213,920.569,419.213z M930.515,474.56c0-0.012,0-0.022,0-0.034
		c-0.004,15.235-2.396,20.785-17.855,20.785h-27.17v-41.57h27.17c15.459,0,17.852,5.55,17.855,20.785c0-0.012,0-0.022,0-0.034
		V474.56z M762.777,450.226L762.777,450.226c23.157,0.686,38.459,1.601,57.136,4.117v-32.776c-8.684-1.044-30.683-3.78-51.855-3.78
		c-1.765,0-5.282,0.023-5.282,0.023l-0.029,0.022c-38.776,0-62.715,2.77-62.715,45.305c0,42.536,21.367,42.338,57.967,44.91
		l8.705,0.593c18.596,1.188,20.773,0.989,20.773,13.849c0,12.463-6.133,13.651-24.73,13.651l-0.066,0.064h0.001
		c-22.747-0.686-41.24-1.889-59.586-4.404v32.754c8.53,1.043,29.499,4.066,54.398,4.066c1.734,0,5.01-0.023,5.01-0.023l0.243-0.012
		c65.287,0,64.298-24.136,64.298-48.668c0-34.028-10.881-39.567-54.801-42.733l-16.421-1.187
		c-10.485-0.791-16.223-1.188-16.223-13.057c0-8.31,1.781-12.662,23.147-12.662L762.777,450.226z M995.66,264.51
		c23.407,0.786,41.59,1.834,60.468,4.716v-37.542c-8.777-1.195-33.805-4.33-55.205-4.33c-46.689,0-81.163,7.89-81.163,60.775v41.37
		c0,51.811,25.585,60.34,75.909,60.34c57.15,0,70.794-9.805,70.794-63.756v-27.927h-72.713v29.633h29.43
		c0,22.179-5.758,27.079-27.511,27.079c-22.172,0-31.984-2.98-31.984-31.349h-0.01v-27.661
		C963.676,267.491,973.488,264.51,995.66,264.51 M1161.07,264.51c23.407,0.786,41.59,1.834,60.468,4.716v-37.542
		c-8.777-1.195-33.806-4.33-55.205-4.33c-46.689,0-81.163,7.89-81.163,60.775v41.37c0,51.811,25.585,60.34,75.91,60.34
		c57.15,0,70.794-9.805,70.794-63.756v-27.927h-72.713v29.633h29.43c0,22.179-5.758,27.079-27.511,27.079
		c-22.172,0-31.984-2.98-31.984-31.349h-0.01v-27.661C1129.086,267.491,1138.898,264.51,1161.07,264.51 M1324.697,227.354
		c-43.277,0-73.991,9.383-73.991,58.64v45.209c0,49.254,30.714,58.637,73.991,58.637c43.297,0,74.003-9.383,74.003-58.637v-45.209
		C1398.701,236.738,1367.994,227.354,1324.697,227.354z M1354.785,326.475c-0.642,23.882-7.922,26.227-30.088,26.227
		c-22.166,0-29.423-2.345-30.065-26.227v-36.032c0.642-23.679,7.899-26.017,30.065-26.017c22.166,0,29.446,2.338,30.088,26.017
		V326.475z M831.448,264.464l-76.558,85.715v1.284h76.558v37.097H700.727v-36.032l75.491-85.508v-1.281h-70.584v-37.103h125.815
		V264.464z M896.492,388.56h-42.648V228.635h42.648V388.56z M544.723,522.625c-0.952-19.351-14.027-49.138-46.884-53.062H380.915
		l134.704-128.97c5.681-5.417,18.455-23.816,9.365-43.622c-7.296-15.919-19.529-22.705-40.889-22.705H316.289
		c0.691,22.263,11.792,48.846,41.301,53.605h95.895l-141.714,133.18c-5.751,5.509-15.212,22.484-7.747,39.71
		c6.734,15.532,18.084,21.864,39.179,21.864H544.723z M253.197,521.022c0,13.002,5.294,24.811,13.84,33.354
		c8.546,8.537,20.337,13.825,33.345,13.825h245.176c13.008,0,24.799-5.288,33.342-13.825c8.543-8.543,13.837-20.353,13.837-33.354
		V398.445l-0.013-75.773c0-25.026,25.253-48.355,53.075-48.407v124.18v122.577c0,27.68-11.214,52.755-29.356,70.885
		c-18.142,18.148-43.211,29.374-70.885,29.374H300.382c-27.68,0-52.743-11.226-70.885-29.374
		c-18.142-18.129-29.363-43.205-29.363-70.885V275.868c0-27.683,11.224-52.749,29.366-70.884
		c18.141-18.148,43.205-29.368,70.885-29.368H422.95h122.559c13.591,0,26.55,2.709,38.359,7.609
		c16.213,6.712,26.574,14.997,36.566,25.794c3.98,4.299,7.775,10.656,7.775,18.762c0,6.793-2.58,13.579-7.775,18.762
		c-5.184,5.183-11.964,7.769-18.756,7.769c-6.792,0-13.658-2.671-18.756-7.769c-7.087-7.078-10.962-10.71-19.069-14.144
		c-5.644-2.392-11.847-3.715-18.345-3.715H422.95H300.386c-13.008,0-24.803,5.288-33.348,13.837
		c-8.543,8.543-13.837,20.343-13.837,33.348L253.197,521.022z"/>
	<g>
		<path fill="#D3D6D9" d="M765.441,723.881H743.91l-9.391-22.217c-1.528-3.739-4.392-5.612-8.59-5.612h-3.091v27.829h-20.387
			v-80.168h25.654c10.001,0,17.867,2.159,23.592,6.472c5.726,4.313,8.59,10.289,8.59,17.921c0,6.263-1.28,10.995-3.837,14.201
			c-2.559,3.207-5.975,5.612-10.25,7.216c3.817,1.527,6.909,5.115,9.277,10.766L765.441,723.881z M727.189,660.893h-4.351v18.094
			h4.351c8.169,0,12.255-3.015,12.255-9.047c0-3.358-1.013-5.706-3.036-7.044C734.384,661.562,731.312,660.893,727.189,660.893z"/>
		<path fill="#D3D6D9" d="M884.086,723.881c-0.382-1.602-0.973-4.046-1.775-7.33c-0.802-3.28-1.432-5.762-1.889-7.442H854.31
			c-0.382,1.68-0.973,4.162-1.775,7.442c-0.802,3.285-1.432,5.728-1.889,7.33h-20.844c3.664-14.124,7.941-28.612,12.828-43.462
			c4.885-14.848,9.618-27.085,14.201-36.706h21.072c4.581,9.699,9.351,21.989,14.316,36.878c4.962,14.887,9.237,29.317,12.825,43.29
			H884.086z M867.366,665.359c-2.215,4.809-5.079,13.667-8.59,26.57h17.18C872.442,679.026,869.581,670.168,867.366,665.359z"/>
		<path fill="#D3D6D9" d="M1006.856,725.255c-12.14,0-21.568-3.703-28.286-11.109c-6.72-7.403-10.078-17.408-10.078-30.005
			c0-12.828,3.416-23,10.248-30.52c6.832-7.52,16.587-11.281,29.263-11.281c6.336,0,12.75,1.374,19.239,4.124l-4.466,17.177
			c-6.338-2.29-11.187-3.435-14.544-3.435c-6.492,0-11.245,1.986-14.26,5.957c-3.017,3.97-4.522,9.925-4.522,17.865
			c0,7.865,1.469,13.725,4.408,17.578c2.939,3.856,7.576,5.784,13.914,5.784c5.344,0,10.805-1.527,16.377-4.581l3.895,17.408
			C1021.935,723.577,1014.874,725.255,1006.856,725.255z"/>
		<path fill="#D3D6D9" d="M1098.935,723.881v-80.168h20.272v80.168H1098.935z"/>
		<path fill="#D3D6D9" d="M1212.658,723.881h-18.553v-80.168h19.584c8.247,17.027,18.325,34.321,30.234,51.88
			c-0.304-2.823-0.457-6.03-0.457-9.618v-42.261h18.553v80.168h-19.699c-4.43-6.107-7.771-10.746-10.022-13.914
			c-2.251-3.168-5.325-7.768-9.217-13.8c-3.895-6.03-7.523-12.14-10.88-18.325c0.304,3.132,0.457,7.826,0.457,14.087V723.881z"/>
		<path fill="#D3D6D9" d="M1400.135,718.384c-8.476,4.581-17.372,6.871-26.686,6.871c-12.215,0-21.836-3.664-28.86-10.994
			c-7.024-7.328-10.535-17.102-10.535-29.317c0-12.903,3.7-23.229,11.109-30.98c7.403-7.749,17.445-11.624,30.119-11.624
			c8.247,0,15.422,1.298,21.532,3.893l-4.352,16.951c-5.193-1.984-10.805-2.978-16.837-2.978c-13.742,0-20.613,8.247-20.613,24.739
			c0,7.328,1.661,12.903,4.982,16.72s8.147,5.726,14.486,5.726c2.75,0,5.191-0.229,7.33-0.688v-13.399h-11.223v-16.606h29.548
			V718.384z"/>
	</g>
</g>
</svg>
