<?xml version="1.0" encoding="utf-8"?>
<!-- Generator: Adobe Illustrator 22.1.0, SVG Export Plug-In . SVG Version: 6.00 Build 0)  -->
<svg version="1.2" baseProfile="tiny" id="Layer_1" xmlns="http://www.w3.org/2000/svg" xmlns:xlink="http://www.w3.org/1999/xlink"
	 x="0px" y="0px" viewBox="0 0 1600 900" xml:space="preserve">
<g>
	<path id="Ziggo_x5F_Sport_x5F_White_x5F_RGB_8_" fill="#D3D6D9" d="M1359.064,567.072h-39.691V452.805h-38.079v-34.528h117.842
		v34.528h-40.071V567.072z M1263.092,526.768c-3.584-9.978-8.137-15.341-17.683-18.424c25.061-6.879,25.081-21.185,25.081-45.031
		c0-37.1-16.865-44.435-51.196-45.037h-76.584v148.795h39.678V527.59h23.252c10.509,0,13.923,1.975,17.009,11.014
		c7.843,22.882,9.802,28.468,9.802,28.468h45.136C1277.585,567.072,1273.189,554.895,1263.092,526.768z M1182.387,452.805h30.761
		c13.097,0,16.458,3.761,16.458,17.057c0,16.861,0.596,23.216-16.458,23.216h-30.761V452.805z M1053.968,417.106
		c-40.264,0-68.839,8.73-68.839,54.557v42.061c0,45.824,28.575,54.554,68.839,54.554c40.282,0,68.851-8.73,68.851-54.554v-42.061
		C1122.819,425.836,1094.25,417.106,1053.968,417.106z M1081.961,509.325c-0.597,22.219-7.371,24.4-27.993,24.4
		c-20.623,0-27.375-2.181-27.972-24.4v-33.524c0.597-22.03,7.349-24.206,27.972-24.206c20.622,0,27.396,2.176,27.993,24.206V509.325
		z M919.756,418.276h-74.79v148.795h39.672v-38.089h35.118c41.46,0,50.79-14.293,50.79-56.156
		C970.546,433.955,956.656,418.276,919.756,418.276z M929.705,473.638c0-0.012,0-0.022,0-0.034
		c-0.004,15.239-2.397,20.79-17.86,20.79h-27.177v-41.581h27.177c15.463,0,17.856,5.552,17.86,20.79c0-0.012,0-0.022,0-0.034
		V473.638z M761.923,449.298L761.923,449.298c23.163,0.686,38.469,1.602,57.151,4.119v-32.784
		c-8.686-1.044-30.691-3.781-51.869-3.781c-1.765,0-5.283,0.023-5.283,0.023l-0.029,0.022c-38.786,0-62.731,2.77-62.731,45.316
		c0,42.547,21.372,42.349,57.982,44.922l8.707,0.593c18.601,1.188,20.778,0.99,20.778,13.853c0,12.467-6.135,13.654-24.737,13.654
		l-0.066,0.064h0.001c-22.753-0.686-41.251-1.89-59.602-4.405v32.762c8.532,1.043,29.507,4.068,54.412,4.068
		c1.734,0,5.011-0.023,5.011-0.023l0.243-0.012c65.304,0,64.314-24.142,64.314-48.681c0-34.036-10.884-39.577-54.815-42.744
		l-16.425-1.187c-10.488-0.791-16.227-1.188-16.227-13.061c0-8.312,1.781-12.665,23.153-12.665L761.923,449.298z M994.866,263.533
		c23.413,0.786,41.601,1.835,60.484,4.717v-37.552c-8.78-1.196-33.814-4.331-55.219-4.331c-46.701,0-81.184,7.892-81.184,60.791
		v41.381c0,51.825,25.592,60.355,75.929,60.355c57.165,0,70.813-9.808,70.813-63.772V297.19h-72.732v29.64h29.438
		c0,22.185-5.759,27.086-27.518,27.086c-22.178,0-31.993-2.981-31.993-31.357h-0.01V294.89
		C962.874,266.514,972.688,263.533,994.866,263.533 M1160.319,263.533c23.413,0.786,41.601,1.835,60.484,4.717v-37.552
		c-8.78-1.196-33.814-4.331-55.219-4.331c-46.701,0-81.184,7.892-81.184,60.791v41.381c0,51.825,25.592,60.355,75.929,60.355
		c57.165,0,70.812-9.808,70.812-63.772V297.19h-72.732v29.64h29.438c0,22.185-5.759,27.086-27.518,27.086
		c-22.178,0-31.993-2.981-31.993-31.357h-0.01V294.89C1128.327,266.514,1138.142,263.533,1160.319,263.533 M1323.989,226.368
		c-43.288,0-74.01,9.385-74.01,58.655v45.221c0,49.266,30.722,58.652,74.01,58.652c43.308,0,74.023-9.386,74.023-58.652v-45.221
		C1398.011,235.753,1367.297,226.368,1323.989,226.368z M1354.085,325.514c-0.642,23.888-7.924,26.233-30.096,26.233
		c-22.172,0-29.431-2.345-30.073-26.233v-36.042c0.642-23.685,7.901-26.024,30.073-26.024c22.172,0,29.454,2.339,30.096,26.024
		V325.514z M830.612,263.487l-76.578,85.737v1.284h76.578v37.107H699.857v-36.042l75.51-85.531v-1.281h-70.603v-37.113h125.848
		V263.487z M895.672,387.615h-42.659V227.649h42.659V387.615z M543.812,521.715c-0.952-19.356-14.031-49.15-46.896-53.076H379.962
		l134.739-129.003c5.682-5.418,18.459-23.823,9.368-43.634c-7.298-15.923-19.534-22.711-40.9-22.711H315.319
		c0.691,22.269,11.795,48.859,41.312,53.619h95.92L310.801,460.125c-5.753,5.51-15.216,22.49-7.749,39.72
		c6.736,15.536,18.088,21.869,39.19,21.869H543.812z M252.211,520.111c0,13.005,5.295,24.818,13.843,33.363
		c8.548,8.539,20.343,13.828,33.354,13.828h245.239c13.011,0,24.806-5.289,33.351-13.828c8.545-8.545,13.84-20.358,13.84-33.363
		V397.503l-0.013-75.792c0-25.033,25.26-48.367,53.089-48.42v124.212v122.608c0,27.687-11.217,52.769-29.364,70.903
		c-18.147,18.153-43.222,29.382-70.903,29.382H299.408c-27.687,0-52.756-11.229-70.903-29.382
		c-18.147-18.134-29.37-43.216-29.37-70.903V274.894c0-27.69,11.227-52.762,29.373-70.903
		c18.146-18.152,43.216-29.376,70.903-29.376h122.596h122.591c13.594,0,26.557,2.709,38.369,7.611
		c16.217,6.714,26.581,15.001,36.576,25.8c3.981,4.3,7.777,10.659,7.777,18.767c0,6.794-2.58,13.582-7.777,18.767
		c-5.185,5.185-11.967,7.771-18.761,7.771c-6.794,0-13.662-2.672-18.761-7.771c-7.089-7.08-10.965-10.713-19.074-14.147
		c-5.646-2.393-11.85-3.716-18.349-3.716H422.008H299.412c-13.011,0-24.809,5.289-33.357,13.84
		c-8.545,8.545-13.84,20.348-13.84,33.356L252.211,520.111z"/>
	<g>
		<path fill="#D3D6D9" d="M701.582,723.024v-80.189h28.869c11.988,0,21.688,3.551,29.097,10.654
			c7.406,7.101,11.112,16.802,11.112,29.096c0,12.527-3.705,22.396-11.112,29.614c-7.409,7.216-17.109,10.825-29.097,10.825H701.582
			z M749.695,682.585c0-7.712-1.623-13.403-4.869-17.068c-3.247-3.667-8.23-5.499-14.949-5.499h-8.019v45.82h8.019
			c6.719,0,11.703-1.89,14.949-5.669C748.072,696.389,749.695,690.53,749.695,682.585z"/>
		<path fill="#D3D6D9" d="M977.315,652.801c6.719,7.561,10.083,17.605,10.083,30.13c0,12.525-3.363,22.566-10.083,30.127
			s-15.808,11.34-27.262,11.34c-11.532,0-20.659-3.76-27.379-11.282c-6.722-7.522-10.08-17.586-10.08-30.185
			c0-12.602,3.359-22.663,10.08-30.185c6.719-7.522,15.847-11.284,27.379-11.284C961.507,641.461,970.595,645.24,977.315,652.801z
			 M937.795,665.403c-2.828,4.049-4.239,9.891-4.239,17.527c0,7.636,1.411,13.478,4.239,17.527c2.823,4.047,6.909,6.07,12.257,6.07
			c5.268,0,9.317-2.023,12.143-6.07c2.824-4.049,4.239-9.891,4.239-17.527c0-7.636-1.415-13.478-4.239-17.527
			c-2.826-4.047-6.875-6.073-12.143-6.073C944.704,659.331,940.619,661.356,937.795,665.403z"/>
		<path fill="#D3D6D9" d="M1168.277,724.398c-12.143,0-21.574-3.704-28.293-11.112c-6.722-7.405-10.08-17.413-10.08-30.013
			c0-12.831,3.417-23.006,10.251-30.528c6.834-7.522,16.591-11.284,29.271-11.284c6.338,0,12.753,1.374,19.244,4.125l-4.468,17.182
			c-6.34-2.291-11.189-3.436-14.548-3.436c-6.493,0-11.248,1.987-14.263,5.958c-3.018,3.971-4.523,9.927-4.523,17.87
			c0,7.867,1.469,13.728,4.409,17.583c2.94,3.857,7.578,5.786,13.918,5.786c5.345,0,10.808-1.527,16.382-4.582l3.896,17.413
			C1183.36,722.72,1176.297,724.398,1168.277,724.398z"/>
		<path fill="#D3D6D9" d="M1333.122,690.72v-47.885h20.275v46.394c0,11.532,4.239,17.298,12.717,17.298
			c8.475,0,12.714-5.766,12.714-17.298v-46.394h20.278v47.885c0,10.615-2.865,18.882-8.592,24.801
			c-5.727,5.919-13.862,8.877-24.4,8.877c-10.54,0-18.673-2.957-24.4-8.877C1335.984,709.602,1333.122,701.335,1333.122,690.72z"/>
	</g>
</g>
</svg>
