<?xml version="1.0" encoding="utf-8"?>
<!-- Generator: Adobe Illustrator 22.1.0, SVG Export Plug-In . SVG Version: 6.00 Build 0)  -->
<svg version="1.2" baseProfile="tiny" id="Layer_1" xmlns="http://www.w3.org/2000/svg" xmlns:xlink="http://www.w3.org/1999/xlink"
	 x="0px" y="0px" viewBox="0 0 1600 900" xml:space="preserve">
<g>
	<path id="Ziggo_x5F_Sport_x5F_White_x5F_RGB_4_" fill="#D3D6D9" d="M1360.064,568.072h-39.691V453.805h-38.079v-34.528h117.842
		v34.528h-40.071V568.072z M1264.092,527.768c-3.584-9.978-8.137-15.341-17.683-18.424c25.061-6.879,25.081-21.185,25.081-45.031
		c0-37.1-16.865-44.435-51.196-45.037h-76.584v148.795h39.678V528.59h23.252c10.509,0,13.923,1.975,17.009,11.014
		c7.843,22.882,9.802,28.468,9.802,28.468h45.136C1278.585,568.072,1274.189,555.895,1264.092,527.768z M1183.387,453.805h30.761
		c13.097,0,16.458,3.761,16.458,17.057c0,16.861,0.596,23.216-16.458,23.216h-30.761V453.805z M1054.968,418.106
		c-40.264,0-68.839,8.73-68.839,54.557v42.061c0,45.824,28.575,54.554,68.839,54.554c40.282,0,68.851-8.73,68.851-54.554v-42.061
		C1123.819,426.836,1095.25,418.106,1054.968,418.106z M1082.961,510.325c-0.597,22.219-7.371,24.4-27.993,24.4
		c-20.623,0-27.375-2.181-27.972-24.4v-33.524c0.597-22.03,7.349-24.206,27.972-24.206c20.622,0,27.396,2.176,27.993,24.206V510.325
		z M920.756,419.276h-74.79v148.795h39.672v-38.089h35.118c41.46,0,50.79-14.293,50.79-56.156
		C971.546,434.955,957.656,419.276,920.756,419.276z M930.705,474.638c0-0.012,0-0.022,0-0.034
		c-0.004,15.239-2.397,20.79-17.86,20.79h-27.177v-41.581h27.177c15.463,0,17.856,5.552,17.86,20.79c0-0.012,0-0.022,0-0.034
		V474.638z M762.922,450.298L762.922,450.298c23.163,0.686,38.469,1.602,57.151,4.119v-32.784
		c-8.686-1.044-30.691-3.781-51.868-3.781c-1.765,0-5.283,0.023-5.283,0.023l-0.029,0.022c-38.786,0-62.731,2.77-62.731,45.316
		c0,42.547,21.372,42.349,57.982,44.922l8.707,0.593c18.601,1.188,20.778,0.99,20.778,13.853c0,12.467-6.135,13.654-24.737,13.654
		l-0.066,0.064h0.001c-22.753-0.686-41.251-1.89-59.602-4.405v32.762c8.532,1.043,29.507,4.068,54.412,4.068
		c1.734,0,5.011-0.023,5.011-0.023l0.243-0.012c65.304,0,64.314-24.142,64.314-48.681c0-34.036-10.884-39.577-54.815-42.744
		l-16.425-1.187c-10.488-0.791-16.227-1.188-16.227-13.061c0-8.312,1.781-12.665,23.153-12.665L762.922,450.298z M995.866,264.533
		c23.413,0.786,41.601,1.835,60.484,4.717v-37.552c-8.78-1.196-33.814-4.331-55.219-4.331c-46.701,0-81.184,7.892-81.184,60.791
		v41.381c0,51.825,25.591,60.355,75.929,60.355c57.165,0,70.813-9.808,70.813-63.772V298.19h-72.732v29.64h29.438
		c0,22.185-5.759,27.086-27.518,27.086c-22.178,0-31.993-2.981-31.993-31.357h-0.01V295.89
		C963.874,267.514,973.688,264.533,995.866,264.533 M1161.319,264.533c23.413,0.786,41.601,1.835,60.484,4.717v-37.552
		c-8.78-1.196-33.814-4.331-55.219-4.331c-46.701,0-81.184,7.892-81.184,60.791v41.381c0,51.825,25.592,60.355,75.929,60.355
		c57.165,0,70.812-9.808,70.812-63.772V298.19h-72.732v29.64h29.438c0,22.185-5.759,27.086-27.518,27.086
		c-22.178,0-31.993-2.981-31.993-31.357h-0.01V295.89C1129.327,267.514,1139.141,264.533,1161.319,264.533 M1324.989,227.368
		c-43.288,0-74.01,9.385-74.01,58.655v45.221c0,49.266,30.722,58.652,74.01,58.652c43.308,0,74.023-9.386,74.023-58.652v-45.221
		C1399.011,236.753,1368.297,227.368,1324.989,227.368z M1355.085,326.514c-0.642,23.888-7.924,26.233-30.096,26.233
		c-22.172,0-29.431-2.345-30.073-26.233v-36.042c0.642-23.685,7.901-26.024,30.073-26.024c22.172,0,29.454,2.339,30.096,26.024
		V326.514z M831.612,264.487l-76.578,85.737v1.284h76.578v37.107H700.857v-36.042l75.51-85.531v-1.281h-70.603v-37.113h125.848
		V264.487z M896.672,388.615h-42.659V228.649h42.659V388.615z M544.812,522.715c-0.952-19.356-14.031-49.15-46.896-53.076H380.962
		l134.739-129.003c5.682-5.418,18.459-23.823,9.368-43.634c-7.297-15.923-19.534-22.711-40.9-22.711H316.319
		c0.691,22.269,11.795,48.859,41.312,53.619h95.92L311.801,461.125c-5.753,5.51-15.216,22.49-7.749,39.72
		c6.736,15.536,18.088,21.869,39.19,21.869H544.812z M253.211,521.111c0,13.005,5.295,24.818,13.843,33.363
		c8.548,8.539,20.343,13.828,33.354,13.828h245.239c13.011,0,24.806-5.289,33.351-13.828c8.545-8.545,13.84-20.358,13.84-33.363
		V398.503l-0.013-75.792c0-25.033,25.26-48.367,53.089-48.42v124.212v122.608c0,27.687-11.217,52.769-29.364,70.903
		c-18.147,18.153-43.222,29.382-70.903,29.382H300.408c-27.687,0-52.756-11.229-70.903-29.382
		c-18.147-18.134-29.37-43.216-29.37-70.903V275.894c0-27.69,11.227-52.762,29.373-70.903
		c18.146-18.152,43.216-29.376,70.903-29.376h122.596h122.591c13.594,0,26.556,2.709,38.369,7.611
		c16.217,6.714,26.581,15.001,36.576,25.8c3.981,4.3,7.777,10.659,7.777,18.767c0,6.794-2.58,13.582-7.777,18.767
		c-5.185,5.185-11.967,7.771-18.761,7.771c-6.794,0-13.662-2.672-18.761-7.771c-7.089-7.08-10.965-10.713-19.074-14.147
		c-5.646-2.393-11.85-3.716-18.349-3.716H423.008H300.412c-13.011,0-24.809,5.289-33.357,13.84
		c-8.545,8.545-13.84,20.348-13.84,33.356L253.211,521.111z"/>
	<g>
		<path fill="#D3D6D9" d="M754.132,706.839v17.184h-51.55v-80.189h51.55v17.184h-31.274v13.974h26.578v17.184h-26.578v14.662
			H754.132z"/>
		<path fill="#D3D6D9" d="M900.188,724.024l-18.673-28.639c-5.041,8.018-9.587,17.566-13.634,28.639h-21.306
			c4.964-13.06,13.441-27.454,25.431-43.187l-24.171-37.002h23.026l16.496,25.202c5.803-8.782,10.042-17.184,12.717-25.202h21.306
			c-5.041,12.831-13.288,26.005-24.745,39.522l26.579,40.667H900.188z"/>
		<path fill="#D3D6D9" d="M1033.184,724.024v-63.005h-19.818v-17.184h59.911v17.184h-19.818v63.005H1033.184z"/>
		<path fill="#D3D6D9" d="M1233.31,724.024h-21.535l-9.395-22.223c-1.527-3.74-4.392-5.613-8.59-5.613h-3.093v27.836h-20.392
			v-80.189h25.662c10.003,0,17.87,2.16,23.597,6.474c5.727,4.314,8.592,10.292,8.592,17.926c0,6.265-1.279,10.997-3.838,14.205
			c-2.561,3.208-5.978,5.613-10.253,7.218c3.818,1.527,6.912,5.117,9.278,10.769L1233.31,724.024z M1195.051,661.019h-4.353v18.099
			h4.353c8.171,0,12.257-3.016,12.257-9.049c0-3.359-1.014-5.708-3.035-7.045C1202.247,661.688,1199.173,661.019,1195.051,661.019z"
			/>
		<path fill="#D3D6D9" d="M1378.68,724.024c-0.382-1.603-0.973-4.047-1.775-7.332c-0.802-3.281-1.432-5.764-1.89-7.444h-26.119
			c-0.382,1.68-0.973,4.164-1.775,7.444c-0.802,3.286-1.432,5.73-1.89,7.332h-20.849c3.665-14.127,7.943-28.619,12.831-43.474
			c4.886-14.852,9.621-27.092,14.205-36.715h21.078c4.582,9.701,9.353,21.995,14.319,36.888
			c4.964,14.891,9.239,29.325,12.829,43.301H1378.68z M1361.956,665.486c-2.215,4.81-5.08,13.67-8.592,26.576h17.184
			C1367.034,679.156,1364.171,670.297,1361.956,665.486z"/>
	</g>
</g>
</svg>
