<?xml version="1.0" encoding="utf-8"?>
<!-- Generator: Adobe Illustrator 22.1.0, SVG Export Plug-In . SVG Version: 6.00 Build 0)  -->
<svg version="1.1" xmlns="http://www.w3.org/2000/svg" xmlns:xlink="http://www.w3.org/1999/xlink" x="0px" y="0px"
	 viewBox="0 0 1600 900" enable-background="new 0 0 1600 900" xml:space="preserve">
<g id="Layer_1">
	<polygon fill="#CE087D" points="381.5,485 481,348.5 584.5,293 707,274.5 584.5,60.5 866.5,239 1127,355 1222.5,536 1183,685.5 
		1060.5,780 818.5,842 546,781 421.5,639 	"/>
	<g>
		<path fill="#FFFFFF" d="M1157.081,614.693c-0.389,1.06-0.905,2.091-1.15,3.184c-5.189,23.17-24.318,41.48-47.688,45.355
			c-4.696,0.779-9.506,1.164-14.268,1.197c-19.405,0.131-38.81,0.055-58.216,0.055c-1.031,0-2.062,0-3.421,0
			c0.278-1.444,0.426-2.474,0.676-3.479c3.877-15.544,7.796-31.077,11.62-46.634c0.496-2.017,1.318-2.78,3.509-2.766
			c15.929,0.102,31.859,0.064,47.789,0.041c1.243-0.002,2.531-0.047,3.718-0.368c3.247-0.877,5.118-3.721,4.778-6.997
			c-0.31-2.992-2.844-5.387-6.037-5.656c-0.863-0.073-1.737-0.024-2.606-0.026c-22.493-0.051-44.996,0.293-67.477-0.253
			c-27.698-0.674-52.377-24.444-54.786-52.038c-0.369-4.221-0.449-8.478-0.454-12.719c-0.021-20.563-0.343-41.135,0.139-61.688
			c0.738-31.453,27.016-56.668,58.419-56.671c22.012-0.002,44.024-0.008,66.036,0.002c28.694,0.013,52.146,18.817,58.389,46.771
			c0.203,0.911,0.68,1.761,1.029,2.64c0,28.195,0,56.391,0,84.586c-0.24,0.401-0.615,0.776-0.702,1.208
			c-1.487,7.428-4.109,14.39-8.206,20.799c-0.375,0.587-0.21,1.892,0.202,2.554c3.803,6.112,6.421,12.666,7.791,19.733
			c0.139,0.717,0.602,1.372,0.915,2.055C1157.081,601.948,1157.081,608.321,1157.081,614.693z M1064.964,467.638
			c-10.621,0-21.243-0.016-31.864,0.007c-4.613,0.01-7.321,2.499-7.335,7.087c-0.064,21.339-0.064,42.678-0.007,64.017
			c0.013,4.865,2.564,7.299,7.401,7.305c21.243,0.025,42.485,0.023,63.728-0.001c5.186-0.006,7.631-2.398,7.642-7.653
			c0.046-21.049,0.049-42.099,0-63.149c-0.012-5.207-2.532-7.597-7.702-7.605C1086.206,467.63,1075.585,467.642,1064.964,467.638z"
			/>
		<path fill="#FFFFFF" d="M668.106,378.317c0.333,0.418,0.578,0.997,1.011,1.231c10.564,5.712,15.757,15.056,17.574,26.48
			c2.553,16.053-0.997,31.243-6.911,46.083c-5.269,13.224-13.61,24.63-21.25,36.451c-9.798,15.159-19.685,30.259-29.528,45.389
			c-0.552,0.849-1.045,1.737-1.889,3.148c24.774,0,48.926,0,73.243,0c0,20.776,0,41.184,0,61.76c-69.952,0-139.798,0-209.722,0
			c0-5.16-0.313-10.343,0.064-15.475c0.832-11.34,5.215-21.425,11.388-30.885c23.209-35.566,46.323-71.194,69.469-106.8
			c0.509-0.783,0.978-1.591,1.663-2.71c-1.1-0.083-1.819-0.184-2.538-0.185c-18.245-0.016-36.489-0.085-54.733,0.039
			c-2.888,0.02-3.531-0.914-3.505-3.63c0.181-18.919,0.259-37.84,0.226-56.76c-0.005-2.659,0.77-3.567,3.425-3.522
			c5.209,0.088,10.424-0.085,15.635-0.2c1.045-0.023,2.084-0.27,3.126-0.414C579.271,378.317,623.689,378.317,668.106,378.317z
			 M674.212,395.701c-1.926,16.107-11.431,27.664-22.384,38.231c-5.754,5.551-11.815,10.864-18.207,15.658
			c-16.9,12.675-34.092,24.96-51.103,37.489c-20.713,15.255-40.521,31.572-57.318,51.183c-8.193,9.566-15.303,19.922-18.534,32.376
			c-0.938,3.616-1.41,7.353-2.096,11.034c0.297,0.079,0.593,0.158,0.89,0.237c0.296-0.432,0.632-0.843,0.883-1.301
			c2.077-3.793,3.815-7.818,6.26-11.356c11.828-17.114,27.089-30.859,43.643-43.183c21.589-16.074,43.54-31.664,65.058-47.831
			c12.798-9.616,25.44-19.544,36.207-31.5c9.234-10.254,16.418-21.704,18.234-35.797
			C676.413,405.771,676.136,400.667,674.212,395.701z"/>
		<path fill="#FFFFFF" d="M776.167,415.178c3.832,0.915,7.369,1.738,10.895,2.608c5.528,1.365,11.024,2.869,16.586,4.072
			c1.444,0.312,3.28,0.129,4.6-0.515c8.125-3.961,16.631-6.121,25.683-6.118c22.976,0.008,45.953-0.058,68.929,0.017
			c30.434,0.1,56.994,26.272,57.174,56.713c0.245,41.219,0.117,82.441,0.229,123.661c0.007,2.518-0.912,3.038-3.214,3.025
			c-15.446-0.084-30.893-0.112-46.338,0.021c-2.763,0.024-3.362-0.888-3.357-3.472c0.073-39.774,0.051-79.548,0.053-119.322
			c0-6.041-2.161-8.229-8.143-8.229c-20.562,0-41.125,0.001-61.687,0.001c-6.694,0-8.868,2.143-8.868,8.793
			c-0.003,39.484-0.03,78.969,0.06,118.453c0.006,2.822-0.529,3.823-3.611,3.789c-15.348-0.17-30.699-0.116-46.048-0.036
			c-2.302,0.012-3.177-0.515-3.174-3.04c0.07-59.178,0.054-118.356,0.061-177.535C775.998,417.232,776.093,416.397,776.167,415.178z
			"/>
		<path fill="#FFFFFF" d="M710.334,510.126c0.001-28.277,0.035-56.554-0.056-84.831c-0.009-2.708,0.609-3.644,3.491-3.617
			c15.344,0.142,30.69,0.119,46.034,0.015c2.503-0.017,3.279,0.63,3.276,3.227c-0.074,56.747-0.078,113.495,0.007,170.242
			c0.004,2.9-0.952,3.513-3.643,3.493c-15.248-0.114-30.497-0.116-45.744,0.003c-2.662,0.021-3.431-0.722-3.422-3.411
			C710.369,566.873,710.334,538.5,710.334,510.126z"/>
		<path fill="#FFFFFF" d="M710.745,382.363c7.861,1.988,15.563,3.947,23.271,5.882c8.794,2.207,17.581,4.441,26.399,6.548
			c1.94,0.463,2.762,1.281,2.646,3.335c-0.159,2.789-0.104,5.596-0.013,8.391c0.053,1.633-0.579,2.224-2.188,2.222
			c-16.112-0.027-32.224,0.008-48.336-0.078c-0.731-0.004-2.085-0.984-2.092-1.524c-0.11-8.004-0.046-16.011,0.004-24.017
			C710.438,382.78,710.711,382.441,710.745,382.363z"/>
	</g>
</g>
<g id="Laag_2">
</g>
</svg>
